<?xml version="1.0" encoding="us-ascii" standalone="no"?><svg xmlns="http://www.w3.org/2000/svg" xmlns:xlink="http://www.w3.org/1999/xlink" contentStyleType="text/css" height="1309px" preserveAspectRatio="none" style="width:1193px;height:1309px;background:#FFFFFF;" version="1.1" viewBox="0 0 1193 1309" width="1193px" zoomAndPan="magnify"><defs/><g><text fill="#000000" font-family="sans-serif" font-size="14" font-weight="bold" lengthAdjust="spacing" textLength="458" x="360.5" y="22.9951">US008 - As Administrator, I want to add a business sector</text><!--class CreateBusinessSectorController--><g id="elem_CreateBusinessSectorController"><rect codeLine="2" fill="#F1F1F1" height="96.8906" id="CreateBusinessSectorController" rx="2.5" ry="2.5" style="stroke:#181818;stroke-width:0.5;" width="588" x="312.5" y="44.2969"/><ellipse cx="491.25" cy="60.2969" fill="#ADD1B2" rx="11" ry="11" style="stroke:#181818;stroke-width:1.0;"/><path d="M494.2188,65.9375 Q493.6406,66.2344 493,66.375 Q492.3594,66.5313 491.6563,66.5313 Q489.1563,66.5313 487.8281,64.8906 Q486.5156,63.2344 486.5156,60.1094 Q486.5156,56.9844 487.8281,55.3281 Q489.1563,53.6719 491.6563,53.6719 Q492.3594,53.6719 493,53.8281 Q493.6563,53.9844 494.2188,54.2813 L494.2188,57 Q493.5938,56.4219 493,56.1563 Q492.4063,55.875 491.7813,55.875 Q490.4375,55.875 489.75,56.9531 Q489.0625,58.0156 489.0625,60.1094 Q489.0625,62.2031 489.75,63.2813 Q490.4375,64.3438 491.7813,64.3438 Q492.4063,64.3438 493,64.0781 Q493.5938,63.7969 494.2188,63.2188 L494.2188,65.9375 Z " fill="#000000"/><text fill="#000000" font-family="sans-serif" font-size="14" lengthAdjust="spacing" textLength="222" x="511.75" y="65.1436">CreateBusinessSectorController</text><line style="stroke:#181818;stroke-width:0.5;" x1="313.5" x2="899.5" y1="76.2969" y2="76.2969"/><rect fill="none" height="6" style="stroke:#C82930;stroke-width:1.0;" width="6" x="320.5" y="86.9453"/><text fill="#000000" font-family="sans-serif" font-size="14" lengthAdjust="spacing" textLength="413" x="332.5" y="93.292">businessSectorService : BusinessSectorService {readOnly}</text><line style="stroke:#181818;stroke-width:0.5;" x1="313.5" x2="899.5" y1="100.5938" y2="100.5938"/><ellipse cx="323.5" cy="114.2422" fill="#84BE84" rx="3" ry="3" style="stroke:#038048;stroke-width:1.0;"/><text fill="#000000" font-family="sans-serif" font-size="14" lengthAdjust="spacing" textLength="562" x="332.5" y="117.5889">CreateBusinessSectorController(businessSectorService : BusinessSectorService)</text><ellipse cx="323.5" cy="130.5391" fill="#84BE84" rx="3" ry="3" style="stroke:#038048;stroke-width:1.0;"/><text fill="#000000" font-family="sans-serif" font-size="14" lengthAdjust="spacing" textLength="471" x="332.5" y="133.8857">createBusinessSector(businessSectorNameValue : String) : boolean</text></g><!--class BusinessSectorService--><g id="elem_BusinessSectorService"><rect codeLine="3" fill="#F1F1F1" height="129.4844" id="BusinessSectorService" rx="2.5" ry="2.5" style="stroke:#181818;stroke-width:0.5;" width="497" x="358" y="218.2969"/><ellipse cx="522.75" cy="234.2969" fill="#ADD1B2" rx="11" ry="11" style="stroke:#181818;stroke-width:1.0;"/><path d="M525.7188,239.9375 Q525.1406,240.2344 524.5,240.375 Q523.8594,240.5313 523.1563,240.5313 Q520.6563,240.5313 519.3281,238.8906 Q518.0156,237.2344 518.0156,234.1094 Q518.0156,230.9844 519.3281,229.3281 Q520.6563,227.6719 523.1563,227.6719 Q523.8594,227.6719 524.5,227.8281 Q525.1563,227.9844 525.7188,228.2813 L525.7188,231 Q525.0938,230.4219 524.5,230.1563 Q523.9063,229.875 523.2813,229.875 Q521.9375,229.875 521.25,230.9531 Q520.5625,232.0156 520.5625,234.1094 Q520.5625,236.2031 521.25,237.2813 Q521.9375,238.3438 523.2813,238.3438 Q523.9063,238.3438 524.5,238.0781 Q525.0938,237.7969 525.7188,237.2188 L525.7188,239.9375 Z " fill="#000000"/><text fill="#000000" font-family="sans-serif" font-size="14" lengthAdjust="spacing" textLength="159" x="543.25" y="239.1436">BusinessSectorService</text><line style="stroke:#181818;stroke-width:0.5;" x1="359" x2="854" y1="250.2969" y2="250.2969"/><rect fill="none" height="6" style="stroke:#C82930;stroke-width:1.0;" width="6" x="366" y="260.9453"/><text fill="#000000" font-family="sans-serif" font-size="14" lengthAdjust="spacing" textLength="352" x="378" y="267.292">businessSectorRepository : Repository {readOnly}</text><rect fill="none" height="6" style="stroke:#C82930;stroke-width:1.0;" width="6" x="366" y="277.2422"/><text fill="#000000" font-family="sans-serif" font-size="14" lengthAdjust="spacing" textLength="413" x="378" y="283.5889">businessSectorFactory : BusinessSectorFactory {readOnly}</text><line style="stroke:#181818;stroke-width:0.5;" x1="359" x2="854" y1="290.8906" y2="290.8906"/><ellipse cx="369" cy="312.6875" fill="#84BE84" rx="3" ry="3" style="stroke:#038048;stroke-width:1.0;"/><text fill="#000000" font-family="sans-serif" font-size="14" lengthAdjust="spacing" textLength="437" x="378" y="307.8857">BusinessSectorService(businessSectorRepository : Repository,</text><text fill="#000000" font-family="sans-serif" font-size="14" lengthAdjust="spacing" textLength="335" x="382" y="324.1826">businessSectorFactory : BusinessSectorFactory)</text><ellipse cx="369" cy="337.1328" fill="#84BE84" rx="3" ry="3" style="stroke:#038048;stroke-width:1.0;"/><text fill="#000000" font-family="sans-serif" font-size="14" lengthAdjust="spacing" textLength="471" x="378" y="340.4795">createBusinessSector(businessSectorNameValue : String) : boolean</text></g><!--class Repository--><g id="elem_Repository"><rect codeLine="4" fill="#F1F1F1" height="154.0469" id="Repository" rx="2.5" ry="2.5" style="stroke:#181818;stroke-width:0.5;" width="232" x="260.5" y="424.2969"/><ellipse cx="334.25" cy="444.4297" fill="#B4A7E5" rx="11" ry="11" style="stroke:#181818;stroke-width:1.0;"/><path d="M330.1719,440.1953 L330.1719,438.0391 L337.5625,438.0391 L337.5625,440.1953 L335.0938,440.1953 L335.0938,448.2734 L337.5625,448.2734 L337.5625,450.4297 L330.1719,450.4297 L330.1719,448.2734 L332.6406,448.2734 L332.6406,440.1953 L330.1719,440.1953 Z " fill="#000000"/><text fill="#000000" font-family="sans-serif" font-size="12" font-style="italic" lengthAdjust="spacing" textLength="80" x="352.75" y="440.4355">&#171;Repository&#187;</text><text fill="#000000" font-family="sans-serif" font-size="14" font-style="italic" lengthAdjust="spacing" textLength="74" x="355.75" y="456.2607">Repository</text><line style="stroke:#181818;stroke-width:0.5;" x1="261.5" x2="491.5" y1="464.5625" y2="464.5625"/><line style="stroke:#181818;stroke-width:0.5;" x1="261.5" x2="491.5" y1="472.5625" y2="472.5625"/><ellipse cx="271.5" cy="486.2109" fill="#84BE84" rx="3" ry="3" style="stroke:#038048;stroke-width:1.0;"/><text fill="#000000" font-family="sans-serif" font-size="14" lengthAdjust="spacing" textLength="124" x="280.5" y="489.5576">save(entity : T) : T</text><ellipse cx="271.5" cy="502.5078" fill="#84BE84" rx="3" ry="3" style="stroke:#038048;stroke-width:1.0;"/><text fill="#000000" font-family="sans-serif" font-size="14" lengthAdjust="spacing" textLength="147" x="280.5" y="505.8545">findAll() : Iterable&lt;T&gt;</text><ellipse cx="271.5" cy="518.8047" fill="#84BE84" rx="3" ry="3" style="stroke:#038048;stroke-width:1.0;"/><text fill="#000000" font-family="sans-serif" font-size="14" lengthAdjust="spacing" textLength="206" x="280.5" y="522.1514">findById(id : ID) : Optional&lt;T&gt;</text><ellipse cx="271.5" cy="535.1016" fill="#84BE84" rx="3" ry="3" style="stroke:#038048;stroke-width:1.0;"/><text fill="#000000" font-family="sans-serif" font-size="14" lengthAdjust="spacing" textLength="187" x="280.5" y="538.4482">existsById(id : ID) : boolean</text><ellipse cx="271.5" cy="551.3984" fill="#84BE84" rx="3" ry="3" style="stroke:#038048;stroke-width:1.0;"/><text fill="#000000" font-family="sans-serif" font-size="14" lengthAdjust="spacing" textLength="69" x="280.5" y="554.7451">deleteAll()</text><ellipse cx="271.5" cy="567.6953" fill="#84BE84" rx="3" ry="3" style="stroke:#038048;stroke-width:1.0;"/><text fill="#000000" font-family="sans-serif" font-size="14" lengthAdjust="spacing" textLength="126" x="280.5" y="571.042">deleteById (id : ID)</text></g><!--class BusinessSectorRepository--><g id="elem_BusinessSectorRepository"><rect codeLine="2" fill="#F1F1F1" height="186.6406" id="BusinessSectorRepository" rx="2.5" ry="2.5" style="stroke:#181818;stroke-width:0.5;" width="523" x="7" y="639.2969"/><ellipse cx="172.75" cy="659.4297" fill="#ADD1B2" rx="11" ry="11" style="stroke:#181818;stroke-width:1.0;"/><path d="M175.7188,665.0703 Q175.1406,665.3672 174.5,665.5078 Q173.8594,665.6641 173.1563,665.6641 Q170.6563,665.6641 169.3281,664.0234 Q168.0156,662.3672 168.0156,659.2422 Q168.0156,656.1172 169.3281,654.4609 Q170.6563,652.8047 173.1563,652.8047 Q173.8594,652.8047 174.5,652.9609 Q175.1563,653.1172 175.7188,653.4141 L175.7188,656.1328 Q175.0938,655.5547 174.5,655.2891 Q173.9063,655.0078 173.2813,655.0078 Q171.9375,655.0078 171.25,656.0859 Q170.5625,657.1484 170.5625,659.2422 Q170.5625,661.3359 171.25,662.4141 Q171.9375,663.4766 173.2813,663.4766 Q173.9063,663.4766 174.5,663.2109 Q175.0938,662.9297 175.7188,662.3516 L175.7188,665.0703 Z " fill="#000000"/><text fill="#000000" font-family="sans-serif" font-size="12" font-style="italic" lengthAdjust="spacing" textLength="80" x="244.75" y="655.4355">&#171;Repository&#187;</text><text fill="#000000" font-family="sans-serif" font-size="14" lengthAdjust="spacing" textLength="183" x="193.25" y="671.2607">BusinessSectorRepository</text><line style="stroke:#181818;stroke-width:0.5;" x1="8" x2="529" y1="679.5625" y2="679.5625"/><rect fill="none" height="6" style="stroke:#C82930;stroke-width:1.0;" width="6" x="15" y="690.2109"/><text fill="#000000" font-family="sans-serif" font-size="14" lengthAdjust="spacing" text-decoration="underline" textLength="374" x="27" y="696.5576">businessSectorList : BusinessSector [1..*] {readOnly}</text><line style="stroke:#181818;stroke-width:0.5;" x1="8" x2="529" y1="703.8594" y2="703.8594"/><ellipse cx="18" cy="717.5078" fill="#84BE84" rx="3" ry="3" style="stroke:#038048;stroke-width:1.0;"/><text fill="#000000" font-family="sans-serif" font-size="14" lengthAdjust="spacing" textLength="341" x="27" y="720.8545">save(businessSector : BusinessSector) : boolean</text><ellipse cx="18" cy="733.8047" fill="#84BE84" rx="3" ry="3" style="stroke:#038048;stroke-width:1.0;"/><text fill="#000000" font-family="sans-serif" font-size="14" lengthAdjust="spacing" textLength="424" x="27" y="737.1514">findAll(businessSectorName : BusinessSectorName) : Iterable</text><ellipse cx="18" cy="750.1016" fill="#84BE84" rx="3" ry="3" style="stroke:#038048;stroke-width:1.0;"/><text fill="#000000" font-family="sans-serif" font-size="14" lengthAdjust="spacing" textLength="446" x="27" y="753.4482">findByID(businessSectorName : BusinessSectorName) : Optional</text><ellipse cx="18" cy="766.3984" fill="#84BE84" rx="3" ry="3" style="stroke:#038048;stroke-width:1.0;"/><text fill="#000000" font-family="sans-serif" font-size="14" lengthAdjust="spacing" textLength="460" x="27" y="769.7451">existsByID(businessSectorName : BusinessSectorName) : boolean</text><ellipse cx="18" cy="782.6953" fill="#84BE84" rx="3" ry="3" style="stroke:#038048;stroke-width:1.0;"/><text fill="#000000" font-family="sans-serif" font-size="14" lengthAdjust="spacing" textLength="288" x="27" y="786.042">findByCriteria(criteria : Predicate) : Iterable</text><ellipse cx="18" cy="798.9922" fill="#84BE84" rx="3" ry="3" style="stroke:#038048;stroke-width:1.0;"/><text fill="#000000" font-family="sans-serif" font-size="14" lengthAdjust="spacing" textLength="69" x="27" y="802.3389">deleteAll()</text><ellipse cx="18" cy="815.2891" fill="#84BE84" rx="3" ry="3" style="stroke:#038048;stroke-width:1.0;"/><text fill="#000000" font-family="sans-serif" font-size="14" lengthAdjust="spacing" textLength="497" x="27" y="818.6357">findAllByID(listOfIDs : BusinessSectorName [0..*]) : BusinessSector [0..*]</text></g><!--class BusinessSector--><g id="elem_BusinessSector"><rect codeLine="2" fill="#F1F1F1" height="170.3438" id="BusinessSector" rx="2.5" ry="2.5" style="stroke:#181818;stroke-width:0.5;" width="455" x="344" y="887.2969"/><ellipse cx="512.75" cy="907.4297" fill="#ADD1B2" rx="11" ry="11" style="stroke:#181818;stroke-width:1.0;"/><path d="M515.7188,913.0703 Q515.1406,913.3672 514.5,913.5078 Q513.8594,913.6641 513.1563,913.6641 Q510.6563,913.6641 509.3281,912.0234 Q508.0156,910.3672 508.0156,907.2422 Q508.0156,904.1172 509.3281,902.4609 Q510.6563,900.8047 513.1563,900.8047 Q513.8594,900.8047 514.5,900.9609 Q515.1563,901.1172 515.7188,901.4141 L515.7188,904.1328 Q515.0938,903.5547 514.5,903.2891 Q513.9063,903.0078 513.2813,903.0078 Q511.9375,903.0078 511.25,904.0859 Q510.5625,905.1484 510.5625,907.2422 Q510.5625,909.3359 511.25,910.4141 Q511.9375,911.4766 513.2813,911.4766 Q513.9063,911.4766 514.5,911.2109 Q515.0938,910.9297 515.7188,910.3516 L515.7188,913.0703 Z " fill="#000000"/><text fill="#000000" font-family="sans-serif" font-size="12" font-style="italic" lengthAdjust="spacing" textLength="109" x="533.25" y="903.4355">&#171;AggregateRoot&#187;</text><text fill="#000000" font-family="sans-serif" font-size="14" lengthAdjust="spacing" textLength="109" x="533.25" y="919.2607">BusinessSector</text><line style="stroke:#181818;stroke-width:0.5;" x1="345" x2="798" y1="927.5625" y2="927.5625"/><rect fill="none" height="6" style="stroke:#C82930;stroke-width:1.0;" width="6" x="352" y="938.2109"/><text fill="#000000" font-family="sans-serif" font-size="14" lengthAdjust="spacing" textLength="310" x="364" y="944.5576">businessSectorName : BusinessSectorName</text><line style="stroke:#181818;stroke-width:0.5;" x1="345" x2="798" y1="951.8594" y2="951.8594"/><polygon fill="#FFFF44" points="355,960.5078,359,964.5078,355,968.5078,351,964.5078" style="stroke:#B38D22;stroke-width:1.0;"/><text fill="#000000" font-family="sans-serif" font-size="14" lengthAdjust="spacing" textLength="429" x="364" y="968.8545">BusinessSector(businessSectorName : BusinessSectorName)</text><ellipse cx="355" cy="981.8047" fill="#84BE84" rx="3" ry="3" style="stroke:#038048;stroke-width:1.0;"/><text fill="#000000" font-family="sans-serif" font-size="14" lengthAdjust="spacing" textLength="222" x="364" y="985.1514">identity() : BusinessSectorName</text><ellipse cx="355" cy="998.1016" fill="#84BE84" rx="3" ry="3" style="stroke:#038048;stroke-width:1.0;"/><text fill="#000000" font-family="sans-serif" font-size="14" lengthAdjust="spacing" textLength="235" x="364" y="1001.4482">getBusinessSectorName() : String</text><ellipse cx="355" cy="1014.3984" fill="#84BE84" rx="3" ry="3" style="stroke:#038048;stroke-width:1.0;"/><text fill="#000000" font-family="sans-serif" font-size="14" lengthAdjust="spacing" textLength="235" x="364" y="1017.7451">sameAs(object : Object) : boolean</text><ellipse cx="355" cy="1030.6953" fill="#84BE84" rx="3" ry="3" style="stroke:#038048;stroke-width:1.0;"/><text fill="#000000" font-family="sans-serif" font-size="14" lengthAdjust="spacing" textLength="192" x="364" y="1034.042">equals(o : Object) : boolean</text><ellipse cx="355" cy="1046.9922" fill="#84BE84" rx="3" ry="3" style="stroke:#038048;stroke-width:1.0;"/><text fill="#000000" font-family="sans-serif" font-size="14" lengthAdjust="spacing" textLength="109" x="364" y="1050.3389">hashcode() : int</text></g><!--class BusinessSectorName--><g id="elem_BusinessSectorName"><rect codeLine="2" fill="#F1F1F1" height="168.0156" id="BusinessSectorName" rx="2.5" ry="2.5" style="stroke:#181818;stroke-width:0.5;" width="424" x="359.5" y="1134.2969"/><ellipse cx="492.75" cy="1161.4141" fill="#ADD1B2" rx="11" ry="11" style="stroke:#181818;stroke-width:1.0;"/><path d="M495.7188,1167.0547 Q495.1406,1167.3516 494.5,1167.4922 Q493.8594,1167.6484 493.1563,1167.6484 Q490.6563,1167.6484 489.3281,1166.0078 Q488.0156,1164.3516 488.0156,1161.2266 Q488.0156,1158.1016 489.3281,1156.4453 Q490.6563,1154.7891 493.1563,1154.7891 Q493.8594,1154.7891 494.5,1154.9453 Q495.1563,1155.1016 495.7188,1155.3984 L495.7188,1158.1172 Q495.0938,1157.5391 494.5,1157.2734 Q493.9063,1156.9922 493.2813,1156.9922 Q491.9375,1156.9922 491.25,1158.0703 Q490.5625,1159.1328 490.5625,1161.2266 Q490.5625,1163.3203 491.25,1164.3984 Q491.9375,1165.4609 493.2813,1165.4609 Q493.9063,1165.4609 494.5,1165.1953 Q495.0938,1164.9141 495.7188,1164.3359 L495.7188,1167.0547 Z " fill="#000000"/><text fill="#000000" font-family="sans-serif" font-size="12" font-style="italic" lengthAdjust="spacing" textLength="74" x="550.75" y="1150.4355">&#171;DomainID&#187;</text><text fill="#000000" font-family="sans-serif" font-size="12" font-style="italic" lengthAdjust="spacing" textLength="92" x="541.75" y="1164.4043">&#171;Value Object&#187;</text><text fill="#000000" font-family="sans-serif" font-size="14" lengthAdjust="spacing" textLength="149" x="513.25" y="1180.2295">BusinessSectorName</text><line style="stroke:#181818;stroke-width:0.5;" x1="360.5" x2="782.5" y1="1188.5313" y2="1188.5313"/><rect fill="none" height="6" style="stroke:#C82930;stroke-width:1.0;" width="6" x="367.5" y="1199.1797"/><text fill="#000000" font-family="sans-serif" font-size="14" lengthAdjust="spacing" textLength="322" x="379.5" y="1205.5264">businessSectorNameValue : String {readOnly}</text><line style="stroke:#181818;stroke-width:0.5;" x1="360.5" x2="782.5" y1="1212.8281" y2="1212.8281"/><ellipse cx="370.5" cy="1226.4766" fill="#84BE84" rx="3" ry="3" style="stroke:#038048;stroke-width:1.0;"/><text fill="#000000" font-family="sans-serif" font-size="14" lengthAdjust="spacing" textLength="398" x="379.5" y="1229.8232">BusinessSectorName(businessSectorNameValue : String)</text><rect fill="#F24D5C" height="6" style="stroke:#C82930;stroke-width:1.0;" width="6" x="367.5" y="1239.7734"/><text fill="#000000" font-family="sans-serif" font-size="14" lengthAdjust="spacing" text-decoration="underline" textLength="339" x="379.5" y="1246.1201">validateValue(businessSectorNameValue : String)</text><ellipse cx="370.5" cy="1259.0703" fill="#84BE84" rx="3" ry="3" style="stroke:#038048;stroke-width:1.0;"/><text fill="#000000" font-family="sans-serif" font-size="14" lengthAdjust="spacing" textLength="273" x="379.5" y="1262.417">getBusinessSectorNameValue() : String</text><ellipse cx="370.5" cy="1275.3672" fill="#84BE84" rx="3" ry="3" style="stroke:#038048;stroke-width:1.0;"/><text fill="#000000" font-family="sans-serif" font-size="14" lengthAdjust="spacing" textLength="192" x="379.5" y="1278.7139">equals(o : Object) : boolean</text><ellipse cx="370.5" cy="1291.6641" fill="#84BE84" rx="3" ry="3" style="stroke:#038048;stroke-width:1.0;"/><text fill="#000000" font-family="sans-serif" font-size="14" lengthAdjust="spacing" textLength="111" x="379.5" y="1295.0107">hashCode() : int</text></g><!--class BusinessSectorFactory--><g id="elem_BusinessSectorFactory"><rect codeLine="2" fill="#F1F1F1" height="64.2969" id="BusinessSectorFactory" rx="2.5" ry="2.5" style="stroke:#181818;stroke-width:0.5;" width="621" x="546" y="469.2969"/><ellipse cx="773.75" cy="485.2969" fill="#B4A7E5" rx="11" ry="11" style="stroke:#181818;stroke-width:1.0;"/><path d="M769.6719,481.0625 L769.6719,478.9063 L777.0625,478.9063 L777.0625,481.0625 L774.5938,481.0625 L774.5938,489.1406 L777.0625,489.1406 L777.0625,491.2969 L769.6719,491.2969 L769.6719,489.1406 L772.1406,489.1406 L772.1406,481.0625 L769.6719,481.0625 Z " fill="#000000"/><text fill="#000000" font-family="sans-serif" font-size="14" font-style="italic" lengthAdjust="spacing" textLength="157" x="794.25" y="490.1436">BusinessSectorFactory</text><line style="stroke:#181818;stroke-width:0.5;" x1="547" x2="1166" y1="501.2969" y2="501.2969"/><line style="stroke:#181818;stroke-width:0.5;" x1="547" x2="1166" y1="509.2969" y2="509.2969"/><ellipse cx="557" cy="522.9453" fill="#84BE84" rx="3" ry="3" style="stroke:#038048;stroke-width:1.0;"/><text fill="#000000" font-family="sans-serif" font-size="14" lengthAdjust="spacing" textLength="595" x="566" y="526.292">createBusinessSector(businessSectorName : BusinessSectorName) : BusinessSector</text></g><!--class BusinessSectorFactoryImplementation--><g id="elem_BusinessSectorFactoryImplementation"><rect codeLine="2" fill="#F1F1F1" height="64.2969" id="BusinessSectorFactoryImplementation" rx="2.5" ry="2.5" style="stroke:#181818;stroke-width:0.5;" width="621" x="565" y="700.7969"/><ellipse cx="738.25" cy="716.7969" fill="#ADD1B2" rx="11" ry="11" style="stroke:#181818;stroke-width:1.0;"/><path d="M741.2188,722.4375 Q740.6406,722.7344 740,722.875 Q739.3594,723.0313 738.6563,723.0313 Q736.1563,723.0313 734.8281,721.3906 Q733.5156,719.7344 733.5156,716.6094 Q733.5156,713.4844 734.8281,711.8281 Q736.1563,710.1719 738.6563,710.1719 Q739.3594,710.1719 740,710.3281 Q740.6563,710.4844 741.2188,710.7813 L741.2188,713.5 Q740.5938,712.9219 740,712.6563 Q739.4063,712.375 738.7813,712.375 Q737.4375,712.375 736.75,713.4531 Q736.0625,714.5156 736.0625,716.6094 Q736.0625,718.7031 736.75,719.7813 Q737.4375,720.8438 738.7813,720.8438 Q739.4063,720.8438 740,720.5781 Q740.5938,720.2969 741.2188,719.7188 L741.2188,722.4375 Z " fill="#000000"/><text fill="#000000" font-family="sans-serif" font-size="14" lengthAdjust="spacing" textLength="266" x="758.75" y="721.6436">BusinessSectorFactoryImplementation</text><line style="stroke:#181818;stroke-width:0.5;" x1="566" x2="1185" y1="732.7969" y2="732.7969"/><line style="stroke:#181818;stroke-width:0.5;" x1="566" x2="1185" y1="740.7969" y2="740.7969"/><ellipse cx="576" cy="754.4453" fill="#84BE84" rx="3" ry="3" style="stroke:#038048;stroke-width:1.0;"/><text fill="#000000" font-family="sans-serif" font-size="14" lengthAdjust="spacing" textLength="595" x="585" y="757.792">createBusinessSector(businessSectorName : BusinessSectorName) : BusinessSector</text></g><!--link CreateBusinessSectorController to BusinessSectorService--><g id="link_CreateBusinessSectorController_BusinessSectorService"><path codeLine="13" d="M606.5,141.7269 C606.5,163.3569 606.5,189.3169 606.5,212.9769 " fill="none" id="CreateBusinessSectorController-to-BusinessSectorService" style="stroke:#181818;stroke-width:1.0;"/><polygon fill="#181818" points="606.5,217.9869,610.5,208.9869,606.5,212.9869,602.5,208.9869,606.5,217.9869" style="stroke:#181818;stroke-width:1.0;"/><text fill="#000000" font-family="sans-serif" font-size="13" lengthAdjust="spacing" textLength="146" x="607.5" y="184.3638">BusinessSectorService</text></g><!--link BusinessSectorService to Repository--><g id="link_BusinessSectorService_Repository"><path codeLine="14" d="M538.74,347.5869 C514.49,370.4069 486.85,396.4269 461.34,420.4369 " fill="none" id="BusinessSectorService-to-Repository" style="stroke:#181818;stroke-width:1.0;"/><polygon fill="#181818" points="457.59,423.9669,466.8853,420.7114,461.231,420.5401,461.4023,414.8858,457.59,423.9669" style="stroke:#181818;stroke-width:1.0;"/><text fill="#000000" font-family="sans-serif" font-size="13" lengthAdjust="spacing" textLength="165" x="506.5" y="390.3638">businessSectorRepository</text></g><!--reverse link Repository to BusinessSectorRepository--><g id="link_Repository_BusinessSectorRepository"><path codeLine="15" d="M332.14,596.5569 C325.52,610.6169 318.71,625.1069 312.11,639.1269 " fill="none" id="Repository-backto-BusinessSectorRepository" style="stroke:#181818;stroke-width:1.0;stroke-dasharray:7.0,7.0;"/><polygon fill="none" points="325.84,593.5169,340.69,578.3969,338.51,599.4769,325.84,593.5169" style="stroke:#181818;stroke-width:1.0;"/></g><!--link BusinessSectorService to BusinessSectorFactory--><g id="link_BusinessSectorService_BusinessSectorFactory"><path codeLine="16" d="M680.16,347.5869 C724.76,386.2169 779.93,433.9869 816.56,465.7069 " fill="none" id="BusinessSectorService-to-BusinessSectorFactory" style="stroke:#181818;stroke-width:1.0;"/><polygon fill="#181818" points="820.49,469.1169,816.3316,460.1889,816.72,465.8324,811.0765,466.2209,820.49,469.1169" style="stroke:#181818;stroke-width:1.0;"/><text fill="#000000" font-family="sans-serif" font-size="13" lengthAdjust="spacing" textLength="145" x="732.5" y="390.3638">businessSectorFactory</text></g><!--reverse link BusinessSectorFactory to BusinessSectorFactoryImplementation--><g id="link_BusinessSectorFactory_BusinessSectorFactoryImplementation"><path codeLine="17" d="M860.77,553.8569 C864.51,598.9969 869.81,663.0669 872.93,700.7469 " fill="none" id="BusinessSectorFactory-backto-BusinessSectorFactoryImplementation" style="stroke:#181818;stroke-width:1.0;stroke-dasharray:7.0,7.0;"/><polygon fill="none" points="853.78,554.2369,859.1,533.7269,867.73,553.0769,853.78,554.2369" style="stroke:#181818;stroke-width:1.0;"/></g><!--reverse link BusinessSectorRepository to BusinessSector--><g id="link_BusinessSectorRepository_BusinessSector"><path codeLine="18" d="M396.77,834.3469 C419.23,851.9369 442.38,870.0869 464.19,887.1869 " fill="none" id="BusinessSectorRepository-backto-BusinessSector" style="stroke:#181818;stroke-width:1.0;"/><polygon fill="#181818" points="386.52,826.2969,388.7759,833.146,395.9659,833.6979,393.71,826.8488,386.52,826.2969" style="stroke:#181818;stroke-width:1.0;"/><text fill="#000000" font-family="sans-serif" font-size="13" lengthAdjust="spacing" textLength="8" x="387.2497" y="846.1154">1</text><text fill="#000000" font-family="sans-serif" font-size="13" lengthAdjust="spacing" textLength="7" x="447.6673" y="876.286">*</text></g><!--link BusinessSector to BusinessSectorName--><g id="link_BusinessSector_BusinessSectorName"><path codeLine="19" d="M571.5,1057.6069 C571.5,1080.6569 571.5,1105.7069 571.5,1128.9669 " fill="none" id="BusinessSector-to-BusinessSectorName" style="stroke:#181818;stroke-width:1.0;"/><polygon fill="#181818" points="571.5,1134.2169,575.5,1125.2169,571.5,1129.2169,567.5,1125.2169,571.5,1134.2169" style="stroke:#181818;stroke-width:1.0;"/><text fill="#000000" font-family="sans-serif" font-size="13" lengthAdjust="spacing" textLength="137" x="572.5" y="1100.3638">businessSectorName</text></g><!--link BusinessSectorFactoryImplementation to BusinessSector--><g id="link_BusinessSectorFactoryImplementation_BusinessSector"><path codeLine="20" d="M835.76,764.8469 C797.17,794.9869 736.78,842.1769 683.46,883.8269 " fill="none" id="BusinessSectorFactoryImplementation-to-BusinessSector" style="stroke:#181818;stroke-width:1.0;"/><polygon fill="#181818" points="679.31,887.0769,688.8628,884.6801,683.2475,883.9953,683.9323,878.3801,679.31,887.0769" style="stroke:#181818;stroke-width:1.0;"/></g><!--SRC=[lP9DIyD048Rl-ol678j9war4X5eGUl5Wy1ocsQ5itIzsDvM0FzwDYQZjjdXe2WlB33FlCpEyGGH9y5hDvxUGmyB3WYkXXGyEWt7Ni89tr0620UGS4DQj5vgy1qzDB63-JMYB3XN8c0-T9R16Tdt0heHkPCi9Yg8SdjcHGobhwymszfUSlDZeif7eVSq5RgBG497__clEURbqX84UHtZrnLuQ7PoHabnXMoNFYViBgiZjH4DdfxoGDLv4G3Vn0XS3JIp_Z8ecHZnXSu4xZPILif8KwO1163qmsMchGvu_GDAUS9VEitHrh_FZYzYyFc8Pzglg_gCeu9YtJe2IsnymnpnBLoVOoJEoO_D1TfF1BCyXcsLxGdizYPbxwnqCt2VPFqPAwB5F]--></g></svg>