<svg version="1.1" xmlns="http://www.w3.org/2000/svg" viewBox="0 0 581.5999755859375 365.5999755859375" width="581.5999755859375" height="365.5999755859375">
  <!-- svg-source:excalidraw -->
  
  <defs>
    <style class="style-fonts">
      @font-face {
        font-family: "Virgil";
        src: url("https://excalidraw.com/Virgil.woff2");
      }
      @font-face {
        font-family: "Cascadia";
        src: url("https://excalidraw.com/Cascadia.woff2");
      }
    </style>
  </defs>
  <rect x="0" y="0" width="581.5999755859375" height="365.5999755859375" fill="#ffffff"></rect><g stroke-linecap="round" transform="translate(10 10) rotate(0 280.79998779296875 172.79998779296875)"><path d="M32 0 M32 0 C150.58 -0.92, 269.57 -1.85, 529.6 0 M32 0 C185.43 0.42, 338.08 0.4, 529.6 0 M529.6 0 C551.63 -1.72, 561.91 11.77, 561.6 32 M529.6 0 C550.71 -0.21, 563.43 11.01, 561.6 32 M561.6 32 C562.65 110.86, 564.16 190.71, 561.6 313.6 M561.6 32 C559.44 120.26, 560.36 208.85, 561.6 313.6 M561.6 313.6 C561.44 333.74, 552.59 344.02, 529.6 345.6 M561.6 313.6 C562.64 336.09, 548.78 345.37, 529.6 345.6 M529.6 345.6 C330.9 347.04, 131.18 347.22, 32 345.6 M529.6 345.6 C334.2 344.21, 139.51 344.02, 32 345.6 M32 345.6 C9.49 345.62, 0.82 334.21, 0 313.6 M32 345.6 C12.91 345.15, 1.19 335.43, 0 313.6 M0 313.6 C-0.13 233.78, 0.18 156.65, 0 32 M0 313.6 C-0.31 226.14, -0.64 139.19, 0 32 M0 32 C1.11 10.93, 9.59 0.09, 32 0 M0 32 C2 9.61, 11.66 -0.43, 32 0" stroke="#415a77" stroke-width="1" fill="none"></path></g><g stroke-linecap="round" transform="translate(143.99996948242188 36.19995880126953) rotate(0 208.00001525878906 154.00000762939453)"><path d="M32 0 M32 0 C103.26 1.56, 176.91 1.38, 384 0 M32 0 C123.8 -1.23, 214.65 -0.75, 384 0 M384 0 C404.53 1.81, 417.66 8.86, 416 32 M384 0 C403.41 0.69, 414.17 9.44, 416 32 M416 32 C416.17 122.53, 415.9 213.17, 416 276 M416 32 C417.39 118.06, 417 203.57, 416 276 M416 276 C414.67 299.08, 407.14 307.02, 384 308 M416 276 C417.53 295.77, 403.38 308.78, 384 308 M384 308 C269.8 305.72, 154.18 304.76, 32 308 M384 308 C251.46 307.9, 118.39 306.98, 32 308 M32 308 C9.61 308.73, -0.7 297.91, 0 276 M32 308 C9.23 310.16, 1.2 298.59, 0 276 M0 276 C-0.62 212.2, -3.2 152.18, 0 32 M0 276 C0.55 224.1, -0.36 171.59, 0 32 M0 32 C-0.43 11.08, 10.95 1.67, 32 0 M0 32 C0.32 11.1, 9.28 1.77, 32 0" stroke="#343a40" stroke-width="1" fill="none"></path></g><g stroke-linecap="round" transform="translate(20.79998779296875 32.999977111816406) rotate(0 58 156.0000228881836)"><path d="M29 0 M29 0 C49.44 0.8, 67.69 1.54, 87 0 M29 0 C47.44 0.54, 67.17 -0.94, 87 0 M87 0 C106.01 1.87, 114.1 8.94, 116 29 M87 0 C105.84 -1.57, 117.87 7.86, 116 29 M116 29 C116.21 114.66, 115.47 203.54, 116 283 M116 29 C116.3 121.75, 116.71 216.23, 116 283 M116 283 C117.92 302.74, 105.44 310.09, 87 312 M116 283 C117.39 303.85, 105.42 309.91, 87 312 M87 312 C67.06 310.03, 42.17 310.31, 29 312 M87 312 C72.78 311.43, 56.28 311.62, 29 312 M29 312 C10.92 310.15, -1.61 303.12, 0 283 M29 312 C7.42 311.05, 1.66 301.41, 0 283 M0 283 C-0.49 211.1, 1.58 137.23, 0 29 M0 283 C0.95 202.81, 1.11 120.65, 0 29 M0 29 C1.72 11.15, 9.32 -1.13, 29 0 M0 29 C0.43 10.7, 7.54 1.64, 29 0" stroke="#343a40" stroke-width="1" fill="none"></path></g><g stroke-linecap="round" transform="translate(31.999969482421875 86.5999984741211) rotate(0 47.19999694824219 15.20001220703125)"><path d="M7.6 0 M7.6 0 C34.17 -1.31, 61.26 -0.6, 86.8 0 M7.6 0 C31.8 1.14, 56 -0.44, 86.8 0 M86.8 0 C92.55 0.32, 95.3 2.87, 94.4 7.6 M86.8 0 C91.75 0.75, 92.77 2.09, 94.4 7.6 M94.4 7.6 C94.99 14.31, 93.11 20.19, 94.4 22.8 M94.4 7.6 C93.68 10.51, 94.48 14.32, 94.4 22.8 M94.4 22.8 C93.26 27.04, 90.07 30.49, 86.8 30.4 M94.4 22.8 C93.72 25.68, 90.13 28.64, 86.8 30.4 M86.8 30.4 C63.04 31.3, 38.58 30.12, 7.6 30.4 M86.8 30.4 C69.44 28.89, 52.89 29.44, 7.6 30.4 M7.6 30.4 C1.05 29.46, -1.84 28.89, 0 22.8 M7.6 30.4 C1.42 30.33, -1.07 25.77, 0 22.8 M0 22.8 C-0.34 18.72, 1.36 13.97, 0 7.6 M0 22.8 C0.21 19.75, -0.43 15.92, 0 7.6 M0 7.6 C0.42 1.29, 3.92 1.87, 7.6 0 M0 7.6 C0.2 1.28, 4.21 1.76, 7.6 0" stroke="#000000" stroke-width="1" fill="none"></path></g><g stroke-linecap="round" transform="translate(32.39997863769531 126.39995574951172) rotate(0 47.19999694824219 15.20001220703125)"><path d="M7.6 0 M7.6 0 C34.75 0.94, 56.86 1.91, 86.8 0 M7.6 0 C39.51 1.2, 70.62 0.99, 86.8 0 M86.8 0 C90.35 -1.6, 94.2 1.75, 94.4 7.6 M86.8 0 C91.15 0.18, 94.41 2.8, 94.4 7.6 M94.4 7.6 C93.02 13.41, 94.15 17.89, 94.4 22.8 M94.4 7.6 C94.9 12.04, 94.78 18.31, 94.4 22.8 M94.4 22.8 C95.4 29.81, 90.31 32.24, 86.8 30.4 M94.4 22.8 C93.27 26.77, 91.01 29.11, 86.8 30.4 M86.8 30.4 C61.72 28.49, 38.81 30.11, 7.6 30.4 M86.8 30.4 C68.25 30.03, 48.37 29.31, 7.6 30.4 M7.6 30.4 C2.25 31.5, -1.44 26.06, 0 22.8 M7.6 30.4 C0.89 32.67, 0.95 25.84, 0 22.8 M0 22.8 C-0.43 17.34, 0.79 10.49, 0 7.6 M0 22.8 C-0.16 16.32, -0.49 10.65, 0 7.6 M0 7.6 C0.61 0.68, 2.13 -1.12, 7.6 0 M0 7.6 C-0.13 4.73, 2.43 1.97, 7.6 0" stroke="#000000" stroke-width="1" fill="none"></path></g><g stroke-linecap="round" transform="translate(31.599990844726562 164.59996795654297) rotate(0 47.19999694824219 15.20001220703125)"><path d="M7.6 0 M7.6 0 C29.79 -1.97, 48.16 -1.16, 86.8 0 M7.6 0 C30.66 0.06, 55.99 0.37, 86.8 0 M86.8 0 C92.37 -1.57, 94.11 3.63, 94.4 7.6 M86.8 0 C90.21 -2.07, 92.76 4.8, 94.4 7.6 M94.4 7.6 C94.31 12.62, 93.84 17.99, 94.4 22.8 M94.4 7.6 C93.79 13.26, 94.01 17.78, 94.4 22.8 M94.4 22.8 C92.87 27.22, 92.48 28.55, 86.8 30.4 M94.4 22.8 C93.94 26.58, 91.74 32.6, 86.8 30.4 M86.8 30.4 C61.98 31.46, 40.32 32.51, 7.6 30.4 M86.8 30.4 C54.87 30.71, 23.46 31.03, 7.6 30.4 M7.6 30.4 C0.55 28.4, -0.6 26.1, 0 22.8 M7.6 30.4 C1.45 28.14, 1.36 25.63, 0 22.8 M0 22.8 C-1.13 16.64, 0.32 14.58, 0 7.6 M0 22.8 C0.15 18.67, 0.07 15.93, 0 7.6 M0 7.6 C0.9 2.83, 1.51 -1.1, 7.6 0 M0 7.6 C-0.09 3.56, 0.79 1.6, 7.6 0" stroke="#000000" stroke-width="1" fill="none"></path></g><g stroke-linecap="round" transform="translate(31.399978637695312 206.5999984741211) rotate(0 47.19999694824219 15.20001220703125)"><path d="M7.6 0 M7.6 0 C26.51 -1.6, 43.8 -0.86, 86.8 0 M7.6 0 C31.78 0.72, 53.53 0.3, 86.8 0 M86.8 0 C92.21 1.57, 96.38 2.42, 94.4 7.6 M86.8 0 C91.19 -0.71, 95.64 2.3, 94.4 7.6 M94.4 7.6 C93.79 12.12, 93.53 17.84, 94.4 22.8 M94.4 7.6 C94.11 13.43, 93.67 17.87, 94.4 22.8 M94.4 22.8 C94.78 29.83, 90.77 31.73, 86.8 30.4 M94.4 22.8 C93.3 28.61, 90.63 30.93, 86.8 30.4 M86.8 30.4 C55.98 29.42, 27.12 31.41, 7.6 30.4 M86.8 30.4 C69.43 30.19, 51.47 30.62, 7.6 30.4 M7.6 30.4 C2.69 29.14, -1.6 27.68, 0 22.8 M7.6 30.4 C4.14 30.93, -0.99 26.54, 0 22.8 M0 22.8 C0.55 20.27, -0.01 16.21, 0 7.6 M0 22.8 C0.89 16.72, 0.02 12.1, 0 7.6 M0 7.6 C-0.31 2.46, 3.71 -0.61, 7.6 0 M0 7.6 C2.21 4.66, 2.51 2.16, 7.6 0" stroke="#000000" stroke-width="1" fill="none"></path></g><g transform="translate(56 11.400007629394537) rotate(0 28.149999618530273 9.599999999999994)"><text x="0" y="0" font-family="Cascadia, Segoe UI Emoji" font-size="16px" fill="#000000" text-anchor="start" style="white-space: pre;" direction="ltr" dominant-baseline="text-before-edge">NavBar</text></g><g transform="translate(191.99993896484375 12.199974060058594) rotate(0 32.84166717529297 9.599999999999994)"><text x="0" y="0" font-family="Cascadia, Segoe UI Emoji" font-size="16px" fill="#000000" text-anchor="start" style="white-space: pre;" direction="ltr" dominant-baseline="text-before-edge">Project</text></g><g stroke-linecap="round"><g transform="translate(168.66055830792527 84.66658979697712) rotate(0 46.34975671568418 0.384003430027235)"><path d="M0.07 0.11 C15.88 0.01, 78.59 0.01, 94.06 0.14 M-1.36 -0.88 C14.43 -0.85, 77.93 1.68, 93.45 1.65" stroke="#000000" stroke-width="1" fill="none"></path></g></g><mask></mask><g stroke-linecap="round"><g transform="translate(167.66055830792527 102.66658979697706) rotate(0 45.8351094180299 -0.06272637798727487)"><path d="M-0.03 0.18 C15.66 0.23, 77.64 0.73, 93.17 0.84 M-1.5 -0.78 C14.08 -1.11, 76.47 -0.88, 92.1 -0.95" stroke="#000000" stroke-width="1" fill="none"></path></g></g><mask></mask><g stroke-linecap="round"><g transform="translate(164.66055830792527 121.66658979697712) rotate(0 46.59301796674259 -0.19740189655684048)"><path d="M0.88 -1.02 C16.3 -0.81, 78.04 0.37, 93.3 0.5 M-0.11 1.06 C15.07 0.96, 76.48 -1.43, 92.3 -1.46" stroke="#000000" stroke-width="1" fill="none"></path></g></g><mask></mask><g stroke-linecap="round"><g transform="translate(164.66055830792527 138.66658979697712) rotate(0 46.303358744671584 -0.012832062691444435)"><path d="M-0.24 0.68 C15.07 0.56, 76.51 -0.64, 92.3 -0.71 M-1.83 0 C13.8 0, 78.42 0.08, 94.43 0.35" stroke="#000000" stroke-width="1" fill="none"></path></g></g><mask></mask><g stroke-linecap="round"><g transform="translate(164.66055830792527 156.66658979697712) rotate(0 46.84520565896764 -0.13937647020776467)"><path d="M0.47 -0.21 C16.38 -0.18, 79.05 0.95, 94.43 1.17 M-0.74 -1.37 C15.19 -1.74, 78.63 -0.55, 94.02 -0.45" stroke="#000000" stroke-width="1" fill="none"></path></g></g><mask></mask><g stroke-linecap="round"><g transform="translate(165.66055830792527 173.66658979697712) rotate(0 46.68094462492968 -0.15953137430363995)"><path d="M0.71 0.14 C16.43 0.05, 78.15 -0.49, 93.74 -0.6 M-0.37 -0.84 C15.27 -0.78, 77.25 0.31, 92.96 0.52" stroke="#000000" stroke-width="1" fill="none"></path></g></g><mask></mask><g stroke-linecap="round"><g transform="translate(164.66055830792527 194.66658979697706) rotate(0 46.62339099674949 -0.014875210874265576)"><path d="M0.34 0.27 C15.86 0.1, 78.83 -0.62, 94.19 -0.55 M-0.94 -0.63 C14.39 -0.7, 77.68 0.73, 93.65 0.59" stroke="#000000" stroke-width="1" fill="none"></path></g></g><mask></mask><g stroke-linecap="round"><g transform="translate(164.66055830792527 215.66658979697712) rotate(0 46.36743212416769 0.5821380036590256)"><path d="M-0.75 1.07 C15 1.18, 77.9 1.49, 93.48 1.33 M1.06 0.58 C16.75 0.33, 77.48 -0.33, 92.58 -0.19" stroke="#000000" stroke-width="1" fill="none"></path></g></g><mask></mask><g stroke-linecap="round"><g transform="translate(165.66055830792527 235.66658979697718) rotate(0 46.80040613799821 0.5836819430723779)"><path d="M1.13 -0.64 C16.51 -0.65, 77.87 -0.19, 93.33 0.02 M0.27 1.63 C15.39 1.81, 76.83 1.99, 92.35 1.47" stroke="#000000" stroke-width="1" fill="none"></path></g></g><mask></mask><g stroke-linecap="round"><g transform="translate(165.66055830792527 256.666589796977) rotate(0 47.11191175191664 -0.40464749741281025)"><path d="M0.4 -0.26 C15.77 -0.42, 77.37 -0.55, 92.72 -0.53 M-0.85 -1.44 C14.87 -1.49, 79.11 0.22, 95.08 0.63" stroke="#000000" stroke-width="1" fill="none"></path></g></g><mask></mask><g stroke-linecap="round"><g transform="translate(296.0230136819182 87.05294389068979) rotate(0 28.179205065364954 0.4415847431914699)"><path d="M0.45 0.05 C9.92 0.42, 47.99 1.47, 57.13 1.85 M-0.77 -0.97 C8.57 -0.92, 46.84 -0.18, 56.56 0.07" stroke="#000000" stroke-width="1" fill="none"></path></g></g><mask></mask><g stroke-linecap="round"><g transform="translate(298.0230136819182 213.0529438906898) rotate(0 28.5215719411662 0.3298227591363343)"><path d="M0.65 -1.13 C10.23 -1.16, 48.34 0.29, 57.51 0.58 M-0.47 0.88 C9.04 0.95, 47.37 1.67, 57.15 1.79" stroke="#000000" stroke-width="1" fill="none"></path></g></g><mask></mask><g stroke-linecap="round"><g transform="translate(295.0230136819182 106.05294389068973) rotate(0 27.603883009403944 0.6090570064093583)"><path d="M-0.62 -0.72 C8.87 -0.81, 46.15 0.1, 55.83 0.56 M1.26 1.52 C10.64 2.09, 45.25 1.99, 54.58 1.76" stroke="#000000" stroke-width="1" fill="none"></path></g></g><mask></mask><g stroke-linecap="round"><g transform="translate(294.0230136819182 123.05294389068979) rotate(0 28.30148671343926 1.056656178222056)"><path d="M-0.64 1.02 C9.02 1.2, 47.81 0.54, 57.25 0.48 M1.22 0.51 C10.86 0.88, 47.79 1.45, 56.74 1.64" stroke="#000000" stroke-width="1" fill="none"></path></g></g><mask></mask><g stroke-linecap="round"><g transform="translate(297.0230136819182 143.0529438906898) rotate(0 27.553308778256167 -0.008973116080198906)"><path d="M-0.72 -0.45 C8.41 -0.3, 46.27 1.48, 55.83 1.75 M1.1 -1.73 C9.94 -2.01, 45.43 -0.78, 54.58 -0.08" stroke="#000000" stroke-width="1" fill="none"></path></g></g><mask></mask><g stroke-linecap="round"><g transform="translate(295.0230136819182 158.0529438906898) rotate(0 27.87460284748579 0.33541249361820746)"><path d="M0.55 0.25 C10.02 0.39, 47 0.25, 56.37 0.28 M-0.62 -0.67 C8.73 -0.35, 45.94 0.99, 55.4 1.34" stroke="#000000" stroke-width="1" fill="none"></path></g></g><mask></mask><g stroke-linecap="round"><g transform="translate(296.0230136819182 174.0529438906898) rotate(0 28.53167755350006 0.7858278317842746)"><path d="M-0.92 0.33 C8.32 0.47, 45.98 0.77, 55.66 0.79 M0.8 -0.54 C10.4 -0.23, 48.66 1.79, 57.98 2.11" stroke="#000000" stroke-width="1" fill="none"></path></g></g><mask></mask><g stroke-linecap="round"><g transform="translate(297.0230136819182 195.0529438906898) rotate(0 28.763884763955105 0.52540067298537)"><path d="M-0.41 0.74 C8.8 1.11, 46.08 1.59, 55.63 1.51 M1.57 0.08 C11.14 0.14, 48.8 -0.61, 57.94 -0.45" stroke="#000000" stroke-width="1" fill="none"></path></g></g><mask></mask><g stroke-linecap="round"><g transform="translate(294.2784158518026 236.97016503383247) rotate(0 28.794430373604428 0.7075008697900955)"><path d="M1.15 0.71 C10.84 0.89, 48.27 0.08, 57.3 0.31 M0.29 0.03 C9.98 0.41, 47.26 1.35, 56.82 1.38" stroke="#000000" stroke-width="1" fill="none"></path></g></g><mask></mask><g stroke-linecap="round"><g transform="translate(292.2784158518026 255.97016503383242) rotate(0 28.791377465366395 0.05180970752996927)"><path d="M-0.42 -0.28 C8.67 0.05, 46.12 1.3, 55.67 1.58 M1.56 -1.47 C10.94 -1.47, 48.86 -1.05, 58 -0.35" stroke="#000000" stroke-width="1" fill="none"></path></g></g><mask></mask><g stroke-linecap="round" transform="translate(167.79998779296875 275.29998779296875) rotate(0 26 11)"><path d="M5.5 0 M5.5 0 C19.81 1.4, 34.68 -1.59, 46.5 0 M5.5 0 C14.31 0.29, 21.67 0.51, 46.5 0 M46.5 0 C48.55 1.84, 53.29 2.37, 52 5.5 M46.5 0 C51.95 0.21, 50.07 1.28, 52 5.5 M52 5.5 C51.9 9.49, 51.25 13.54, 52 16.5 M52 5.5 C52.6 9.44, 51.6 13.89, 52 16.5 M52 16.5 C51.75 19.23, 48.84 21.73, 46.5 22 M52 16.5 C52.12 19.1, 49.48 21.08, 46.5 22 M46.5 22 C32.75 20.87, 21.09 20.69, 5.5 22 M46.5 22 C35.97 21.07, 24.32 22.06, 5.5 22 M5.5 22 C1.16 20.58, -1.09 18.45, 0 16.5 M5.5 22 C1.13 20.11, 1.08 22.06, 0 16.5 M0 16.5 C1.11 11.79, -0.77 7.93, 0 5.5 M0 16.5 C0.38 14.45, -0.66 11.46, 0 5.5 M0 5.5 C-1.02 2.53, 1.61 -0.33, 5.5 0 M0 5.5 C-0.05 1.57, 3.15 2.28, 5.5 0" stroke="#000000" stroke-width="1" fill="none"></path></g><g stroke-linecap="round" transform="translate(232.79998779296875 276.29998779296875) rotate(0 41.5 9.5)"><path d="M4.75 0 M4.75 0 C34.59 -0.54, 59.01 0.02, 78.25 0 M4.75 0 C21.09 0.56, 34.67 -0.67, 78.25 0 M78.25 0 C80.4 0.7, 82.78 1.25, 83 4.75 M78.25 0 C81.37 -0.27, 84.32 3.86, 83 4.75 M83 4.75 C83.94 8.05, 83.07 11.15, 83 14.25 M83 4.75 C82.92 8.06, 83.22 12.44, 83 14.25 M83 14.25 C84.69 17.68, 81.2 19.24, 78.25 19 M83 14.25 C81.55 17.8, 79.39 20.16, 78.25 19 M78.25 19 C57.77 17.03, 35.61 19.52, 4.75 19 M78.25 19 C49.79 18.89, 20.85 18.27, 4.75 19 M4.75 19 C1.05 19.8, -1.89 16.86, 0 14.25 M4.75 19 C2.66 17.29, -1.92 16.66, 0 14.25 M0 14.25 C-0.86 11, -0.65 8.51, 0 4.75 M0 14.25 C0.39 12.14, -0.41 10.54, 0 4.75 M0 4.75 C1.2 2.22, 0 1.88, 4.75 0 M0 4.75 C-0.14 1.94, 0.76 -0.55, 4.75 0" stroke="#000000" stroke-width="1" fill="none"></path></g><g stroke-linecap="round" transform="translate(327.79998779296875 275.29998779296875) rotate(0 26 11)"><path d="M5.5 0 M5.5 0 C13.96 2.07, 25.78 1.86, 46.5 0 M5.5 0 C19.22 0.66, 33.85 0.14, 46.5 0 M46.5 0 C50.12 -0.23, 53.15 3.81, 52 5.5 M46.5 0 C50.94 0.31, 53.36 4.09, 52 5.5 M52 5.5 C53.07 9.57, 52.59 12.09, 52 16.5 M52 5.5 C52.5 7.8, 51.98 10.02, 52 16.5 M52 16.5 C50.74 20.5, 48.41 23.01, 46.5 22 M52 16.5 C51.49 20, 49.2 21.93, 46.5 22 M46.5 22 C39.44 20.63, 29.32 22.89, 5.5 22 M46.5 22 C35.33 22.01, 23.75 21.33, 5.5 22 M5.5 22 C2.77 20.51, -1.67 19.51, 0 16.5 M5.5 22 C1.98 22.6, 1.43 18.14, 0 16.5 M0 16.5 C-0.81 13.48, 0.44 11.57, 0 5.5 M0 16.5 C0.43 13.43, -0.34 10.53, 0 5.5 M0 5.5 C-0.12 2.15, 1.12 -0.48, 5.5 0 M0 5.5 C-0.38 2.36, 0.68 2.08, 5.5 0" stroke="#000000" stroke-width="1" fill="none"></path></g><g transform="translate(181.88075740520776 51.43075702373807) rotate(0 23.45833396911621 9.599999999999994)"><text x="0" y="0" font-family="Cascadia, Segoe UI Emoji" font-size="16px" fill="#000000" text-anchor="start" style="white-space: pre;" direction="ltr" dominant-baseline="text-before-edge">Title</text></g><g transform="translate(285.8031922853911 50.661526254507294) rotate(0 37.53333282470703 9.599999999999994)"><text x="0" y="0" font-family="Cascadia, Segoe UI Emoji" font-size="16px" fill="#000000" text-anchor="start" style="white-space: pre;" direction="ltr" dominant-baseline="text-before-edge">Atribute</text></g><g stroke-linecap="round" transform="translate(385.107680100661 49.45383394681488) rotate(0 13 15)"><path d="M6.5 0 M6.5 0 C11.68 -0.23, 14.86 0.89, 19.5 0 M6.5 0 C11.81 0.54, 16.55 0.28, 19.5 0 M19.5 0 C21.91 -1.23, 25.05 3.18, 26 6.5 M19.5 0 C23.98 0.87, 27.29 -0.1, 26 6.5 M26 6.5 C25.26 12.26, 27.61 16.02, 26 23.5 M26 6.5 C26.1 13.18, 26.61 17.73, 26 23.5 M26 23.5 C26.46 26.42, 23.08 28.03, 19.5 30 M26 23.5 C24.08 28.95, 23.97 28.19, 19.5 30 M19.5 30 C16.47 30.87, 14.57 29.84, 6.5 30 M19.5 30 C16.07 29.85, 11.65 29.33, 6.5 30 M6.5 30 C2.57 30.8, 1.81 28.6, 0 23.5 M6.5 30 C1.12 27.76, 2.1 27.9, 0 23.5 M0 23.5 C-1.15 16.77, -1.36 11.02, 0 6.5 M0 23.5 C-0.68 16.59, 0.11 9.67, 0 6.5 M0 6.5 C-1.37 1.78, 0.95 1.21, 6.5 0 M0 6.5 C0.69 3.21, 3.87 -0.17, 6.5 0" stroke="#000000" stroke-width="1" fill="none"></path></g><g transform="translate(393.107680100661 54.45383394681488) rotate(0 5 10)"><text x="5" y="0" font-family="Virgil, Segoe UI Emoji" font-size="16px" fill="#000000" text-anchor="middle" style="white-space: pre;" direction="ltr" dominant-baseline="text-before-edge">+</text></g></svg>