<svg version="1.1" xmlns="http://www.w3.org/2000/svg" viewBox="0 0 581.5999755859375 365.5999755859375" width="581.5999755859375" height="365.5999755859375">
  <!-- svg-source:excalidraw -->
  
  <defs>
    <style class="style-fonts">
      @font-face {
        font-family: "Virgil";
        src: url("https://excalidraw.com/Virgil.woff2");
      }
      @font-face {
        font-family: "Cascadia";
        src: url("https://excalidraw.com/Cascadia.woff2");
      }
    </style>
  </defs>
  <rect x="0" y="0" width="581.5999755859375" height="365.5999755859375" fill="#ffffff"></rect><g stroke-linecap="round" transform="translate(10 10) rotate(0 280.79998779296875 172.79998779296875)"><path d="M32 0 M32 0 C150.58 -0.92, 269.57 -1.85, 529.6 0 M32 0 C185.43 0.42, 338.08 0.4, 529.6 0 M529.6 0 C551.63 -1.72, 561.91 11.77, 561.6 32 M529.6 0 C550.71 -0.21, 563.43 11.01, 561.6 32 M561.6 32 C562.65 110.86, 564.16 190.71, 561.6 313.6 M561.6 32 C559.44 120.26, 560.36 208.85, 561.6 313.6 M561.6 313.6 C561.44 333.74, 552.59 344.02, 529.6 345.6 M561.6 313.6 C562.64 336.09, 548.78 345.37, 529.6 345.6 M529.6 345.6 C330.9 347.04, 131.18 347.22, 32 345.6 M529.6 345.6 C334.2 344.21, 139.51 344.02, 32 345.6 M32 345.6 C9.49 345.62, 0.82 334.21, 0 313.6 M32 345.6 C12.91 345.15, 1.19 335.43, 0 313.6 M0 313.6 C-0.13 233.78, 0.18 156.65, 0 32 M0 313.6 C-0.31 226.14, -0.64 139.19, 0 32 M0 32 C1.11 10.93, 9.59 0.09, 32 0 M0 32 C2 9.61, 11.66 -0.43, 32 0" stroke="#415a77" stroke-width="1" fill="none"></path></g><g stroke-linecap="round" transform="translate(143.99996948242188 36.19995880126953) rotate(0 208.00001525878906 154.00000762939453)"><path d="M32 0 M32 0 C103.26 1.56, 176.91 1.38, 384 0 M32 0 C123.8 -1.23, 214.65 -0.75, 384 0 M384 0 C404.53 1.81, 417.66 8.86, 416 32 M384 0 C403.41 0.69, 414.17 9.44, 416 32 M416 32 C416.17 122.53, 415.9 213.17, 416 276 M416 32 C417.39 118.06, 417 203.57, 416 276 M416 276 C414.67 299.08, 407.14 307.02, 384 308 M416 276 C417.53 295.77, 403.38 308.78, 384 308 M384 308 C269.8 305.72, 154.18 304.76, 32 308 M384 308 C251.46 307.9, 118.39 306.98, 32 308 M32 308 C9.61 308.73, -0.7 297.91, 0 276 M32 308 C9.23 310.16, 1.2 298.59, 0 276 M0 276 C-0.62 212.2, -3.2 152.18, 0 32 M0 276 C0.55 224.1, -0.36 171.59, 0 32 M0 32 C-0.43 11.08, 10.95 1.67, 32 0 M0 32 C0.32 11.1, 9.28 1.77, 32 0" stroke="#343a40" stroke-width="1" fill="none"></path></g><g stroke-linecap="round" transform="translate(20.79998779296875 32.999977111816406) rotate(0 58 156.0000228881836)"><path d="M29 0 M29 0 C49.44 0.8, 67.69 1.54, 87 0 M29 0 C47.44 0.54, 67.17 -0.94, 87 0 M87 0 C106.01 1.87, 114.1 8.94, 116 29 M87 0 C105.84 -1.57, 117.87 7.86, 116 29 M116 29 C116.21 114.66, 115.47 203.54, 116 283 M116 29 C116.3 121.75, 116.71 216.23, 116 283 M116 283 C117.92 302.74, 105.44 310.09, 87 312 M116 283 C117.39 303.85, 105.42 309.91, 87 312 M87 312 C67.06 310.03, 42.17 310.31, 29 312 M87 312 C72.78 311.43, 56.28 311.62, 29 312 M29 312 C10.92 310.15, -1.61 303.12, 0 283 M29 312 C7.42 311.05, 1.66 301.41, 0 283 M0 283 C-0.49 211.1, 1.58 137.23, 0 29 M0 283 C0.95 202.81, 1.11 120.65, 0 29 M0 29 C1.72 11.15, 9.32 -1.13, 29 0 M0 29 C0.43 10.7, 7.54 1.64, 29 0" stroke="#343a40" stroke-width="1" fill="none"></path></g><g stroke-linecap="round" transform="translate(31.999969482421875 86.5999984741211) rotate(0 47.19999694824219 15.20001220703125)"><path d="M7.6 0 M7.6 0 C34.17 -1.31, 61.26 -0.6, 86.8 0 M7.6 0 C31.8 1.14, 56 -0.44, 86.8 0 M86.8 0 C92.55 0.32, 95.3 2.87, 94.4 7.6 M86.8 0 C91.75 0.75, 92.77 2.09, 94.4 7.6 M94.4 7.6 C94.99 14.31, 93.11 20.19, 94.4 22.8 M94.4 7.6 C93.68 10.51, 94.48 14.32, 94.4 22.8 M94.4 22.8 C93.26 27.04, 90.07 30.49, 86.8 30.4 M94.4 22.8 C93.72 25.68, 90.13 28.64, 86.8 30.4 M86.8 30.4 C63.04 31.3, 38.58 30.12, 7.6 30.4 M86.8 30.4 C69.44 28.89, 52.89 29.44, 7.6 30.4 M7.6 30.4 C1.05 29.46, -1.84 28.89, 0 22.8 M7.6 30.4 C1.42 30.33, -1.07 25.77, 0 22.8 M0 22.8 C-0.34 18.72, 1.36 13.97, 0 7.6 M0 22.8 C0.21 19.75, -0.43 15.92, 0 7.6 M0 7.6 C0.42 1.29, 3.92 1.87, 7.6 0 M0 7.6 C0.2 1.28, 4.21 1.76, 7.6 0" stroke="#000000" stroke-width="1" fill="none"></path></g><g stroke-linecap="round" transform="translate(32.39997863769531 126.39995574951172) rotate(0 47.19999694824219 15.20001220703125)"><path d="M7.6 0 M7.6 0 C34.75 0.94, 56.86 1.91, 86.8 0 M7.6 0 C39.51 1.2, 70.62 0.99, 86.8 0 M86.8 0 C90.35 -1.6, 94.2 1.75, 94.4 7.6 M86.8 0 C91.15 0.18, 94.41 2.8, 94.4 7.6 M94.4 7.6 C93.02 13.41, 94.15 17.89, 94.4 22.8 M94.4 7.6 C94.9 12.04, 94.78 18.31, 94.4 22.8 M94.4 22.8 C95.4 29.81, 90.31 32.24, 86.8 30.4 M94.4 22.8 C93.27 26.77, 91.01 29.11, 86.8 30.4 M86.8 30.4 C61.72 28.49, 38.81 30.11, 7.6 30.4 M86.8 30.4 C68.25 30.03, 48.37 29.31, 7.6 30.4 M7.6 30.4 C2.25 31.5, -1.44 26.06, 0 22.8 M7.6 30.4 C0.89 32.67, 0.95 25.84, 0 22.8 M0 22.8 C-0.43 17.34, 0.79 10.49, 0 7.6 M0 22.8 C-0.16 16.32, -0.49 10.65, 0 7.6 M0 7.6 C0.61 0.68, 2.13 -1.12, 7.6 0 M0 7.6 C-0.13 4.73, 2.43 1.97, 7.6 0" stroke="#000000" stroke-width="1" fill="none"></path></g><g stroke-linecap="round" transform="translate(31.599990844726562 164.59996795654297) rotate(0 47.19999694824219 15.20001220703125)"><path d="M7.6 0 M7.6 0 C29.79 -1.97, 48.16 -1.16, 86.8 0 M7.6 0 C30.66 0.06, 55.99 0.37, 86.8 0 M86.8 0 C92.37 -1.57, 94.11 3.63, 94.4 7.6 M86.8 0 C90.21 -2.07, 92.76 4.8, 94.4 7.6 M94.4 7.6 C94.31 12.62, 93.84 17.99, 94.4 22.8 M94.4 7.6 C93.79 13.26, 94.01 17.78, 94.4 22.8 M94.4 22.8 C92.87 27.22, 92.48 28.55, 86.8 30.4 M94.4 22.8 C93.94 26.58, 91.74 32.6, 86.8 30.4 M86.8 30.4 C61.98 31.46, 40.32 32.51, 7.6 30.4 M86.8 30.4 C54.87 30.71, 23.46 31.03, 7.6 30.4 M7.6 30.4 C0.55 28.4, -0.6 26.1, 0 22.8 M7.6 30.4 C1.45 28.14, 1.36 25.63, 0 22.8 M0 22.8 C-1.13 16.64, 0.32 14.58, 0 7.6 M0 22.8 C0.15 18.67, 0.07 15.93, 0 7.6 M0 7.6 C0.9 2.83, 1.51 -1.1, 7.6 0 M0 7.6 C-0.09 3.56, 0.79 1.6, 7.6 0" stroke="#000000" stroke-width="1" fill="none"></path></g><g stroke-linecap="round" transform="translate(31.399978637695312 206.5999984741211) rotate(0 47.19999694824219 15.20001220703125)"><path d="M7.6 0 M7.6 0 C26.51 -1.6, 43.8 -0.86, 86.8 0 M7.6 0 C31.78 0.72, 53.53 0.3, 86.8 0 M86.8 0 C92.21 1.57, 96.38 2.42, 94.4 7.6 M86.8 0 C91.19 -0.71, 95.64 2.3, 94.4 7.6 M94.4 7.6 C93.79 12.12, 93.53 17.84, 94.4 22.8 M94.4 7.6 C94.11 13.43, 93.67 17.87, 94.4 22.8 M94.4 22.8 C94.78 29.83, 90.77 31.73, 86.8 30.4 M94.4 22.8 C93.3 28.61, 90.63 30.93, 86.8 30.4 M86.8 30.4 C55.98 29.42, 27.12 31.41, 7.6 30.4 M86.8 30.4 C69.43 30.19, 51.47 30.62, 7.6 30.4 M7.6 30.4 C2.69 29.14, -1.6 27.68, 0 22.8 M7.6 30.4 C4.14 30.93, -0.99 26.54, 0 22.8 M0 22.8 C0.55 20.27, -0.01 16.21, 0 7.6 M0 22.8 C0.89 16.72, 0.02 12.1, 0 7.6 M0 7.6 C-0.31 2.46, 3.71 -0.61, 7.6 0 M0 7.6 C2.21 4.66, 2.51 2.16, 7.6 0" stroke="#000000" stroke-width="1" fill="none"></path></g><g transform="translate(56 11.400007629394537) rotate(0 28.125 9.599999999999994)"><text x="0" y="0" font-family="Cascadia, Segoe UI Emoji" font-size="16px" fill="#000000" text-anchor="start" style="white-space: pre;" direction="ltr" dominant-baseline="text-before-edge">NavBar</text></g><g transform="translate(190.22650146484375 13.149192810058594) rotate(0 32.8125 9.599999999999994)"><text x="0" y="0" font-family="Cascadia, Segoe UI Emoji" font-size="16px" fill="#000000" text-anchor="start" style="white-space: pre;" direction="ltr" dominant-baseline="text-before-edge">Project</text></g><g stroke-linecap="round" transform="translate(238.15437786395728 282.1666823167067) rotate(0 27.96922771747296 15)"><path d="M7.5 0 M7.5 0 C20.72 1.67, 37.37 1.41, 48.44 0 M7.5 0 C18.13 -0.27, 29.89 0.03, 48.44 0 M48.44 0 C54.38 1.68, 57.38 1.29, 55.94 7.5 M48.44 0 C52.81 1.44, 53.86 2.31, 55.94 7.5 M55.94 7.5 C54.76 13.08, 56.84 17.37, 55.94 22.5 M55.94 7.5 C56.09 13.73, 55.47 18.4, 55.94 22.5 M55.94 22.5 C56.42 28.99, 54.54 29.42, 48.44 30 M55.94 22.5 C56.38 29.19, 52.35 29.64, 48.44 30 M48.44 30 C33.37 29.15, 19.06 29.24, 7.5 30 M48.44 30 C39.42 29.59, 30.12 30.6, 7.5 30 M7.5 30 C3.43 31.93, -1.26 26.82, 0 22.5 M7.5 30 C1.01 27.92, 0.22 28.39, 0 22.5 M0 22.5 C-1.4 15.78, 0.71 11.27, 0 7.5 M0 22.5 C-0.12 18.87, -0.76 14.97, 0 7.5 M0 7.5 C0.43 1.83, 2.62 -0.46, 7.5 0 M0 7.5 C0.19 1.12, 2.17 -1.84, 7.5 0" stroke="#000000" stroke-width="1" fill="none"></path></g><g transform="translate(247.0596178494966 287.1666823167067) rotate(0 19.063987731933594 10)"><text x="19.063987731933594" y="0" font-family="Virgil, Segoe UI Emoji" font-size="16px" fill="#000000" text-anchor="middle" style="white-space: pre;" direction="ltr" dominant-baseline="text-before-edge">Back</text></g><g stroke-linecap="round" transform="translate(310.8067756065956 282.4788818359375) rotate(0 33 15)"><path d="M7.5 0 M7.5 0 C27.52 -1.22, 46.05 0.61, 58.5 0 M7.5 0 C23.45 0.95, 37.74 1.15, 58.5 0 M58.5 0 C62.48 -0.45, 64.73 2.27, 66 7.5 M58.5 0 C62.11 1.52, 64.38 2.76, 66 7.5 M66 7.5 C65.06 13.12, 67.19 18.28, 66 22.5 M66 7.5 C66.46 11.85, 66.07 17.5, 66 22.5 M66 22.5 C64.29 28.27, 62.88 30.76, 58.5 30 M66 22.5 C67.64 25.2, 64.53 31.88, 58.5 30 M58.5 30 C40.21 31.89, 26.96 28.95, 7.5 30 M58.5 30 C41.46 30.1, 25.43 29.08, 7.5 30 M7.5 30 C0.74 31.13, -1.73 27.22, 0 22.5 M7.5 30 C2.22 31.94, 1.24 25.71, 0 22.5 M0 22.5 C0.44 17.15, 1.22 11.71, 0 7.5 M0 22.5 C-0.61 17.3, -0.2 12.33, 0 7.5 M0 7.5 C0.5 1.69, 2.03 1.45, 7.5 0 M0 7.5 C2.28 2.27, 3.68 1.21, 7.5 0" stroke="#000000" stroke-width="1" fill="none"></path></g><g stroke-linecap="round" transform="translate(391.8758321908804 282.924795297476) rotate(0 34 15)"><path d="M7.5 0 M7.5 0 C18.51 0.48, 32.32 0.47, 60.5 0 M7.5 0 C27.99 0.02, 46.4 0.33, 60.5 0 M60.5 0 C63.81 1.6, 69.67 1.16, 68 7.5 M60.5 0 C65.86 -1.38, 68.2 0.35, 68 7.5 M68 7.5 C66.55 12.94, 66.58 16.47, 68 22.5 M68 7.5 C67.54 12.38, 67.78 16.53, 68 22.5 M68 22.5 C68.5 27.87, 67.03 30.61, 60.5 30 M68 22.5 C69.23 26.71, 65.71 27.98, 60.5 30 M60.5 30 C44.38 29.49, 26.78 31.75, 7.5 30 M60.5 30 C39.88 30.95, 18.73 29.79, 7.5 30 M7.5 30 C1.37 31.37, -1.16 26.31, 0 22.5 M7.5 30 C3.36 30.93, 2.24 27.14, 0 22.5 M0 22.5 C-0.6 17.46, 1.2 14.38, 0 7.5 M0 22.5 C0.46 18.15, 0.12 12.57, 0 7.5 M0 7.5 C0.81 3.4, 3.72 -0.37, 7.5 0 M0 7.5 C-0.46 4.07, 0.99 2.12, 7.5 0" stroke="#000000" stroke-width="1" fill="none"></path></g><g stroke-linecap="round" transform="translate(237.92739163912256 185.29758394681494) rotate(0 51.15384615384619 9.230769230769226)"><path d="M4.62 0 M4.62 0 C33 -0.79, 61.98 0.9, 97.69 0 M4.62 0 C28.42 -0.71, 50.7 -1.77, 97.69 0 M97.69 0 C100.9 -0.75, 102.37 0.18, 102.31 4.62 M97.69 0 C102.52 -0.87, 102.59 0.67, 102.31 4.62 M102.31 4.62 C101.55 7.85, 103.06 8.7, 102.31 13.85 M102.31 4.62 C102.65 7.4, 102.5 10, 102.31 13.85 M102.31 13.85 C102.47 17.24, 101.69 19.48, 97.69 18.46 M102.31 13.85 C100.04 18.47, 99.75 18.91, 97.69 18.46 M97.69 18.46 C77.67 19.55, 57.32 15.91, 4.62 18.46 M97.69 18.46 C64.26 18.6, 32.13 20.16, 4.62 18.46 M4.62 18.46 C2.44 20.15, 0.62 18.66, 0 13.85 M4.62 18.46 C1.51 16.49, -0.44 17.17, 0 13.85 M0 13.85 C-0.86 12.18, -0.9 9.28, 0 4.62 M0 13.85 C-0.12 11.4, 0.35 9.04, 0 4.62 M0 4.62 C1.01 -0.46, 2.34 -1.25, 4.62 0 M0 4.62 C0.42 2.64, -0.2 0.23, 4.62 0" stroke="#000000" stroke-width="1" fill="none"></path></g><g stroke-linecap="round"><g transform="translate(321.00431471604566 192.98989163912262) rotate(0 3.0402796913336374 2.727898295854885)"><path d="M-0.53 0.24 C0.4 0.91, 3.56 3.98, 4.41 4.87 M1.39 -0.69 C2.8 0.08, 5.66 4.86, 6.61 6.14" stroke="#000000" stroke-width="1" fill="none"></path></g></g><mask></mask><g stroke-linecap="round"><g transform="translate(327.15816086989184 198.37450702373803) rotate(0 3.70861131971094 -2.6526541310434197)"><path d="M0.63 0.87 C1.91 0.03, 7 -5.13, 7.92 -6.17 M-0.51 0.27 C0.69 -0.32, 5.97 -4.32, 7.5 -5.05" stroke="#000000" stroke-width="1" fill="none"></path></g></g><mask></mask><g stroke-linecap="round" transform="translate(234.4922954852765 91.03075702373809) rotate(0 51.15384615384619 9.230769230769226)"><path d="M4.62 0 M4.62 0 C34.25 1.08, 64.63 1.13, 97.69 0 M4.62 0 C31.72 -0.44, 60.93 0.11, 97.69 0 M97.69 0 C100.89 0.28, 101.05 0.25, 102.31 4.62 M97.69 0 C102.39 1.56, 101.84 3.41, 102.31 4.62 M102.31 4.62 C102.92 7.44, 102.12 11.05, 102.31 13.85 M102.31 4.62 C101.93 8.08, 102.17 10.93, 102.31 13.85 M102.31 13.85 C103.4 17.28, 99.1 17.2, 97.69 18.46 M102.31 13.85 C103.67 16.13, 102.36 16.2, 97.69 18.46 M97.69 18.46 C76.95 18.24, 56.64 18.56, 4.62 18.46 M97.69 18.46 C73.09 18.42, 50.49 18.42, 4.62 18.46 M4.62 18.46 C0.56 16.85, -0.24 16.36, 0 13.85 M4.62 18.46 C1.84 19.61, 1.91 15.14, 0 13.85 M0 13.85 C0.56 11.46, -0.14 7.32, 0 4.62 M0 13.85 C0.14 10.89, 0.03 7.84, 0 4.62 M0 4.62 C1.65 1.27, 0.67 -1.88, 4.62 0 M0 4.62 C-0.58 3.04, -0.32 1.12, 4.62 0" stroke="#000000" stroke-width="1" fill="none"></path></g><g stroke-linecap="round" transform="translate(323.39258038556136 95.30426129724225) rotate(0 3.703703703703752 3.7037037037037237)"><path d="M7.41 3.7 C7.41 3.92, 7.39 4.14, 7.35 4.35 C7.31 4.56, 7.26 4.77, 7.18 4.97 C7.11 5.17, 7.02 5.37, 6.91 5.56 C6.8 5.74, 6.68 5.92, 6.54 6.08 C6.4 6.25, 6.25 6.4, 6.08 6.54 C5.92 6.68, 5.74 6.8, 5.56 6.91 C5.37 7.02, 5.17 7.11, 4.97 7.18 C4.77 7.26, 4.56 7.31, 4.35 7.35 C4.14 7.39, 3.92 7.41, 3.7 7.41 C3.49 7.41, 3.27 7.39, 3.06 7.35 C2.85 7.31, 2.64 7.26, 2.44 7.18 C2.24 7.11, 2.04 7.02, 1.85 6.91 C1.67 6.8, 1.49 6.68, 1.32 6.54 C1.16 6.4, 1 6.25, 0.87 6.08 C0.73 5.92, 0.6 5.74, 0.5 5.56 C0.39 5.37, 0.3 5.17, 0.22 4.97 C0.15 4.77, 0.09 4.56, 0.06 4.35 C0.02 4.14, 0 3.92, 0 3.7 C0 3.49, 0.02 3.27, 0.06 3.06 C0.09 2.85, 0.15 2.64, 0.22 2.44 C0.3 2.24, 0.39 2.04, 0.5 1.85 C0.6 1.67, 0.73 1.49, 0.87 1.32 C1 1.16, 1.16 1, 1.32 0.87 C1.49 0.73, 1.67 0.6, 1.85 0.5 C2.04 0.39, 2.24 0.3, 2.44 0.22 C2.64 0.15, 2.85 0.09, 3.06 0.06 C3.27 0.02, 3.49 0, 3.7 0 C3.92 0, 4.14 0.02, 4.35 0.06 C4.56 0.09, 4.77 0.15, 4.97 0.22 C5.17 0.3, 5.37 0.39, 5.56 0.5 C5.74 0.6, 5.92 0.73, 6.08 0.87 C6.25 1, 6.4 1.16, 6.54 1.32 C6.68 1.49, 6.8 1.67, 6.91 1.85 C7.02 2.04, 7.11 2.24, 7.18 2.44 C7.26 2.64, 7.31 2.85, 7.35 3.06 C7.39 3.27, 7.4 3.6, 7.41 3.7 C7.42 3.81, 7.42 3.6, 7.41 3.7" stroke="#000000" stroke-width="1" fill="none"></path></g><g stroke-linecap="round"><g transform="translate(328.1456668053145 102.09438475403249) rotate(0 1.1111111111110858 1.4814814814814667)"><path d="M0 0 C0.37 0.49, 1.85 2.47, 2.22 2.96 M0 0 C0.37 0.49, 1.85 2.47, 2.22 2.96" stroke="#000000" stroke-width="1" fill="none"></path></g></g><mask></mask><g stroke-linecap="round" transform="translate(350.38008261134473 134.71635397886615) rotate(0 51.15384615384619 9.230769230769226)"><path d="M4.62 0 M4.62 0 C22.1 -0.7, 41.16 -1.26, 97.69 0 M4.62 0 C33.36 0.09, 59.97 -0.55, 97.69 0 M97.69 0 C100.57 0.73, 101.05 0.28, 102.31 4.62 M97.69 0 C99.57 0.48, 102.06 1.33, 102.31 4.62 M102.31 4.62 C103.05 8.43, 101.6 10.57, 102.31 13.85 M102.31 4.62 C101.88 7.82, 102 11.71, 102.31 13.85 M102.31 13.85 C103.17 16.47, 100.81 18, 97.69 18.46 M102.31 13.85 C102.21 17.66, 101.46 18.03, 97.69 18.46 M97.69 18.46 C75.22 18.91, 51.42 18.77, 4.62 18.46 M97.69 18.46 C68.21 18.56, 39.47 18.47, 4.62 18.46 M4.62 18.46 C3.45 17.43, 0.8 15.27, 0 13.85 M4.62 18.46 C0.28 19.63, -1.77 15.85, 0 13.85 M0 13.85 C0.76 12.21, -0.17 8.67, 0 4.62 M0 13.85 C-0.23 11.1, 0.3 9.67, 0 4.62 M0 4.62 C1.57 3.3, 2.7 0.34, 4.62 0 M0 4.62 C0.81 1.54, 3.74 0.89, 4.62 0" stroke="#000000" stroke-width="1" fill="none"></path></g><g stroke-linecap="round" transform="translate(235.02360112986332 135.83990721960697) rotate(0 51.15384615384619 9.230769230769226)"><path d="M4.62 0 M4.62 0 C34.89 1, 67.04 0.4, 97.69 0 M4.62 0 C39.53 0.08, 72.08 -1.26, 97.69 0 M97.69 0 C102.02 -0.47, 102.58 -0.22, 102.31 4.62 M97.69 0 C100.04 -1.43, 104.31 2.53, 102.31 4.62 M102.31 4.62 C102.27 7.47, 102.59 9.56, 102.31 13.85 M102.31 4.62 C102.59 6.9, 102.54 9.2, 102.31 13.85 M102.31 13.85 C102.6 18.17, 102.39 18.04, 97.69 18.46 M102.31 13.85 C100.79 17.65, 99.06 20.66, 97.69 18.46 M97.69 18.46 C73.48 18.71, 49.91 16.75, 4.62 18.46 M97.69 18.46 C76.84 19.09, 54.07 17.59, 4.62 18.46 M4.62 18.46 C0.52 16.51, -1.73 15.56, 0 13.85 M4.62 18.46 C-0.69 19.53, 2.11 18.72, 0 13.85 M0 13.85 C0.27 10.26, 0.83 7.04, 0 4.62 M0 13.85 C-0.24 11.19, -0.17 8.82, 0 4.62 M0 4.62 C1.37 1.78, 2.32 0.25, 4.62 0 M0 4.62 C1.68 -0.59, 1.47 -1.05, 4.62 0" stroke="#000000" stroke-width="1" fill="none"></path></g><g stroke-linecap="round"><g transform="translate(356.79998779296864 197.82277981576084) rotate(0 49.074074074074076 0)"><path d="M0 0 C16.36 0, 81.79 0, 98.15 0 M0 0 C16.36 0, 81.79 0, 98.15 0" stroke="#000000" stroke-width="1" fill="none"></path></g></g><mask></mask><g stroke-linecap="round" transform="translate(379.0222100151909 193.74870574168682) rotate(0 4.629629629629619 4.6296296296296475)"><path d="M9.26 4.63 C9.26 4.9, 9.24 5.17, 9.19 5.43 C9.14 5.7, 9.07 5.96, 8.98 6.21 C8.89 6.46, 8.77 6.71, 8.64 6.94 C8.51 7.18, 8.35 7.4, 8.18 7.61 C8 7.81, 7.81 8, 7.61 8.18 C7.4 8.35, 7.18 8.51, 6.94 8.64 C6.71 8.77, 6.46 8.89, 6.21 8.98 C5.96 9.07, 5.7 9.14, 5.43 9.19 C5.17 9.24, 4.9 9.26, 4.63 9.26 C4.36 9.26, 4.09 9.24, 3.83 9.19 C3.56 9.14, 3.3 9.07, 3.05 8.98 C2.79 8.89, 2.55 8.77, 2.31 8.64 C2.08 8.51, 1.86 8.35, 1.65 8.18 C1.45 8, 1.26 7.81, 1.08 7.61 C0.91 7.4, 0.75 7.18, 0.62 6.94 C0.49 6.71, 0.37 6.46, 0.28 6.21 C0.19 5.96, 0.12 5.7, 0.07 5.43 C0.02 5.17, 0 4.9, 0 4.63 C0 4.36, 0.02 4.09, 0.07 3.83 C0.12 3.56, 0.19 3.3, 0.28 3.05 C0.37 2.79, 0.49 2.55, 0.62 2.31 C0.75 2.08, 0.91 1.86, 1.08 1.65 C1.26 1.45, 1.45 1.26, 1.65 1.08 C1.86 0.91, 2.08 0.75, 2.31 0.62 C2.55 0.49, 2.79 0.37, 3.05 0.28 C3.3 0.19, 3.56 0.12, 3.83 0.07 C4.09 0.02, 4.36 0, 4.63 0 C4.9 0, 5.17 0.02, 5.43 0.07 C5.7 0.12, 5.96 0.19, 6.21 0.28 C6.46 0.37, 6.71 0.49, 6.94 0.62 C7.18 0.75, 7.4 0.91, 7.61 1.08 C7.81 1.26, 8 1.45, 8.18 1.65 C8.35 1.86, 8.51 2.08, 8.64 2.31 C8.77 2.55, 8.89 2.79, 8.98 3.05 C9.07 3.3, 9.14 3.56, 9.19 3.83 C9.24 4.09, 9.25 4.5, 9.26 4.63 C9.27 4.76, 9.27 4.5, 9.26 4.63" stroke="none" stroke-width="0" fill="#ced4da"></path><path d="M9.26 4.63 C9.26 4.9, 9.24 5.17, 9.19 5.43 C9.14 5.7, 9.07 5.96, 8.98 6.21 C8.89 6.46, 8.77 6.71, 8.64 6.94 C8.51 7.18, 8.35 7.4, 8.18 7.61 C8 7.81, 7.81 8, 7.61 8.18 C7.4 8.35, 7.18 8.51, 6.94 8.64 C6.71 8.77, 6.46 8.89, 6.21 8.98 C5.96 9.07, 5.7 9.14, 5.43 9.19 C5.17 9.24, 4.9 9.26, 4.63 9.26 C4.36 9.26, 4.09 9.24, 3.83 9.19 C3.56 9.14, 3.3 9.07, 3.05 8.98 C2.79 8.89, 2.55 8.77, 2.31 8.64 C2.08 8.51, 1.86 8.35, 1.65 8.18 C1.45 8, 1.26 7.81, 1.08 7.61 C0.91 7.4, 0.75 7.18, 0.62 6.94 C0.49 6.71, 0.37 6.46, 0.28 6.21 C0.19 5.96, 0.12 5.7, 0.07 5.43 C0.02 5.17, 0 4.9, 0 4.63 C0 4.36, 0.02 4.09, 0.07 3.83 C0.12 3.56, 0.19 3.3, 0.28 3.05 C0.37 2.79, 0.49 2.55, 0.62 2.31 C0.75 2.08, 0.91 1.86, 1.08 1.65 C1.26 1.45, 1.45 1.26, 1.65 1.08 C1.86 0.91, 2.08 0.75, 2.31 0.62 C2.55 0.49, 2.79 0.37, 3.05 0.28 C3.3 0.19, 3.56 0.12, 3.83 0.07 C4.09 0.02, 4.36 0, 4.63 0 C4.9 0, 5.17 0.02, 5.43 0.07 C5.7 0.12, 5.96 0.19, 6.21 0.28 C6.46 0.37, 6.71 0.49, 6.94 0.62 C7.18 0.75, 7.4 0.91, 7.61 1.08 C7.81 1.26, 8 1.45, 8.18 1.65 C8.35 1.86, 8.51 2.08, 8.64 2.31 C8.77 2.55, 8.89 2.79, 8.98 3.05 C9.07 3.3, 9.14 3.56, 9.19 3.83 C9.24 4.09, 9.25 4.5, 9.26 4.63 C9.27 4.76, 9.27 4.5, 9.26 4.63" stroke="#000000" stroke-width="1" fill="none"></path></g><g stroke-linecap="round" transform="translate(239.21254788912267 237.99109356219952) rotate(0 49.99368990384619 7.53515625)"><path d="M3.77 0 M3.77 0 C36.58 1.07, 69.1 1.17, 96.22 0 M3.77 0 C23.8 -0.77, 41.45 -1.25, 96.22 0 M96.22 0 C98.9 0.69, 100.02 1.36, 99.99 3.77 M96.22 0 C96.58 -0.8, 100 0.57, 99.99 3.77 M99.99 3.77 C100.33 6.52, 99.7 8.98, 99.99 11.3 M99.99 3.77 C99.86 5.82, 99.75 8.1, 99.99 11.3 M99.99 11.3 C98.81 15.29, 96.91 15.38, 96.22 15.07 M99.99 11.3 C102.21 13.11, 99.77 12.81, 96.22 15.07 M96.22 15.07 C65.97 13.82, 37.91 14.58, 3.77 15.07 M96.22 15.07 C65.58 15.03, 33.69 15.34, 3.77 15.07 M3.77 15.07 C-0.55 13.1, -1.9 13.17, 0 11.3 M3.77 15.07 C2.59 15.79, 0.91 13.79, 0 11.3 M0 11.3 C-0.67 9.09, -0.41 6.35, 0 3.77 M0 11.3 C-0.1 9.04, -0.1 6.43, 0 3.77 M0 3.77 C0.76 2.27, 1.55 1.82, 3.77 0 M0 3.77 C1.64 1.69, 3.1 -1.99, 3.77 0" stroke="#000000" stroke-width="1" fill="none"></path></g><g transform="translate(167.39582061767578 46.58670654296873) rotate(0 56.25 9.599999999999994)"><text x="0" y="0" font-family="Cascadia, Segoe UI Emoji" font-size="16px" fill="#000000" text-anchor="start" style="white-space: pre;" direction="ltr" dominant-baseline="text-before-edge">Add Resource</text></g><g transform="translate(248.54425811767578 71.09061279296873) rotate(0 32.8125 9.599999999999994)"><text x="0" y="0" font-family="Cascadia, Segoe UI Emoji" font-size="16px" fill="#000000" text-anchor="start" style="white-space: pre;" direction="ltr" dominant-baseline="text-before-edge">Account</text></g><g transform="translate(239.23358154296875 114.69217529296873) rotate(0 46.845703125 19.196444444444438)"><text x="0" y="0" font-family="Cascadia, Segoe UI Emoji" font-size="15.997037037037039px" fill="#000000" text-anchor="start" style="white-space: pre;" direction="ltr" dominant-baseline="text-before-edge">Start Date</text><text x="0" y="19.196444444444445" font-family="Cascadia, Segoe UI Emoji" font-size="15.997037037037039px" fill="#000000" text-anchor="start" style="white-space: pre;" direction="ltr" dominant-baseline="text-before-edge"></text></g><g stroke-linecap="round" transform="translate(348.67348538912256 89.39343731219952) rotate(0 51.15384615384619 9.230769230769226)"><path d="M4.62 0 M4.62 0 C32.22 -1.68, 56.95 0.77, 97.69 0 M4.62 0 C24.37 -0.12, 45.41 -1.87, 97.69 0 M97.69 0 C100.01 1.1, 104.12 0.16, 102.31 4.62 M97.69 0 C98.94 0.73, 103.87 2.23, 102.31 4.62 M102.31 4.62 C102.86 7.76, 102.53 9.62, 102.31 13.85 M102.31 4.62 C102.01 7.64, 102.15 10.1, 102.31 13.85 M102.31 13.85 C100.5 18.26, 100.34 19.13, 97.69 18.46 M102.31 13.85 C103.48 16.62, 101.87 20.54, 97.69 18.46 M97.69 18.46 C68.3 19.3, 41.12 18.27, 4.62 18.46 M97.69 18.46 C63.92 19.61, 30.96 18.19, 4.62 18.46 M4.62 18.46 C2.02 20, 0.11 15.04, 0 13.85 M4.62 18.46 C-0.42 16.78, 1.7 17.96, 0 13.85 M0 13.85 C-0.58 11.47, -0.09 10.73, 0 4.62 M0 13.85 C0.09 11.61, -0.41 9.52, 0 4.62 M0 4.62 C-0.15 2.82, 0.1 0.27, 4.62 0 M0 4.62 C-2.2 3.52, 2.45 1.91, 4.62 0" stroke="#000000" stroke-width="1" fill="none"></path></g><g transform="translate(363.64373779296875 67.86405029296873) rotate(0 32.8125 19.19999999999999)"><text x="0" y="0" font-family="Cascadia, Segoe UI Emoji" font-size="16px" fill="#000000" text-anchor="start" style="white-space: pre;" direction="ltr" dominant-baseline="text-before-edge">Project</text><text x="0" y="19.2" font-family="Cascadia, Segoe UI Emoji" font-size="16px" fill="#000000" text-anchor="start" style="white-space: pre;" direction="ltr" dominant-baseline="text-before-edge"></text></g><g transform="translate(362.51873779296875 113.63479334852434) rotate(0 37.4765625 19.196444444444438)"><text x="0" y="0" font-family="Cascadia, Segoe UI Emoji" font-size="15.997037037037039px" fill="#000000" text-anchor="start" style="white-space: pre;" direction="ltr" dominant-baseline="text-before-edge">End Date</text><text x="0" y="19.196444444444445" font-family="Cascadia, Segoe UI Emoji" font-size="15.997037037037039px" fill="#000000" text-anchor="start" style="white-space: pre;" direction="ltr" dominant-baseline="text-before-edge"></text></g><g transform="translate(354.01873779296875 160.91604334852434) rotate(0 56.21484375 9.598222222222233)"><text x="0" y="0" font-family="Cascadia, Segoe UI Emoji" font-size="15.997037037037039px" fill="#000000" text-anchor="start" style="white-space: pre;" direction="ltr" dominant-baseline="text-before-edge">Allocation %</text></g><g transform="translate(240.71014404296875 162.2291093207465) rotate(0 18.73828125 9.598222222222233)"><text x="0" y="0" font-family="Cascadia, Segoe UI Emoji" font-size="15.997037037037039px" fill="#000000" text-anchor="start" style="white-space: pre;" direction="ltr" dominant-baseline="text-before-edge">Role</text></g><g transform="translate(239.00311279296875 212.5806718207465) rotate(0 42.1611328125 9.598222222222233)"><text x="0" y="0" font-family="Cascadia, Segoe UI Emoji" font-size="15.997037037037039px" fill="#000000" text-anchor="start" style="white-space: pre;" direction="ltr" dominant-baseline="text-before-edge">Cost/Hour</text></g><g transform="translate(398.41185819185694 287.924795297476) rotate(0 27.463973999023438 10)"><text x="27.463973999023438" y="0" font-family="Virgil, Segoe UI Emoji" font-size="16px" fill="#1e1e1e" text-anchor="middle" style="white-space: pre;" direction="ltr" dominant-baseline="text-before-edge">Confirm</text></g><g transform="translate(320.7667899498573 287.4788818359375) rotate(0 23.03998565673828 10)"><text x="23.03998565673828" y="0" font-family="Virgil, Segoe UI Emoji" font-size="16px" fill="#000000" text-anchor="middle" style="white-space: pre;" direction="ltr" dominant-baseline="text-before-edge">Reset</text></g></svg>