<?xml version="1.0" encoding="us-ascii" standalone="no"?><svg xmlns="http://www.w3.org/2000/svg" xmlns:xlink="http://www.w3.org/1999/xlink" contentStyleType="text/css" height="1118px" preserveAspectRatio="none" style="width:2266px;height:1118px;background:#FFFFFF;" version="1.1" viewBox="0 0 2266 1118" width="2266px" zoomAndPan="magnify"><defs/><g><text fill="#000000" font-family="sans-serif" font-size="14" font-weight="bold" lengthAdjust="spacing" textLength="674" x="795" y="27.9951">US031 -  As Project Manager, I want to start the next sprint of a project in the web UI</text><rect fill="#FFFFFF" height="871.2656" style="stroke:#181818;stroke-width:1.0;" width="10" x="265" y="153.6172"/><rect fill="#FFFFFF" height="804" style="stroke:#181818;stroke-width:1.0;" width="10" x="581" y="182.75"/><rect fill="#FFFFFF" height="745.7344" style="stroke:#181818;stroke-width:1.0;" width="10" x="865" y="211.8828"/><rect fill="#FFFFFF" height="398.8594" style="stroke:#181818;stroke-width:1.0;" width="10" x="870" y="471.3594"/><rect fill="#FFFFFF" height="29.1328" style="stroke:#181818;stroke-width:1.0;" width="10" x="1449.5" y="405.0938"/><rect fill="#FFFFFF" height="29.1328" style="stroke:#181818;stroke-width:1.0;" width="10" x="1449.5" y="578.8906"/><rect fill="#FFFFFF" height="203.9297" style="stroke:#181818;stroke-width:1.0;" width="10" x="1449.5" y="666.2891"/><rect fill="#FFFFFF" height="29.1328" style="stroke:#181818;stroke-width:1.0;" width="10" x="1596.5" y="505.4922"/><rect fill="#FFFFFF" height="29.1328" style="stroke:#181818;stroke-width:1.0;" width="10" x="1785.5" y="695.4219"/><rect fill="#FFFFFF" height="29.1328" style="stroke:#181818;stroke-width:1.0;" width="10" x="1785.5" y="811.9531"/><rect fill="#FFFFFF" height="29.1328" style="stroke:#181818;stroke-width:1.0;" width="10" x="1981" y="753.6875"/><rect fill="#FFFFFF" height="29.1328" style="stroke:#181818;stroke-width:1.0;" width="10" x="2161.5" y="899.3516"/><line style="stroke:#181818;stroke-width:0.5;stroke-dasharray:5.0,5.0;" x1="67" x2="67" y1="122.4844" y2="1033.8828"/><line style="stroke:#181818;stroke-width:0.5;stroke-dasharray:5.0,5.0;" x1="269.5" x2="269.5" y1="122.4844" y2="1033.8828"/><line style="stroke:#181818;stroke-width:0.5;stroke-dasharray:5.0,5.0;" x1="586" x2="586" y1="122.4844" y2="1033.8828"/><line style="stroke:#181818;stroke-width:0.5;stroke-dasharray:5.0,5.0;" x1="869.5" x2="869.5" y1="122.4844" y2="1033.8828"/><line style="stroke:#181818;stroke-width:0.5;stroke-dasharray:5.0,5.0;" x1="1195" x2="1195" y1="274.9766" y2="1033.8828"/><line style="stroke:#181818;stroke-width:0.5;stroke-dasharray:5.0,5.0;" x1="1320" x2="1320" y1="357.0156" y2="1033.8828"/><line style="stroke:#181818;stroke-width:0.5;stroke-dasharray:5.0,5.0;" x1="1454" x2="1454" y1="122.4844" y2="1033.8828"/><line style="stroke:#181818;stroke-width:0.5;stroke-dasharray:5.0,5.0;" x1="1601" x2="1601" y1="122.4844" y2="1033.8828"/><line style="stroke:#181818;stroke-width:0.5;stroke-dasharray:5.0,5.0;" x1="1790" x2="1790" y1="122.4844" y2="1033.8828"/><line style="stroke:#181818;stroke-width:0.5;stroke-dasharray:5.0,5.0;" x1="1986" x2="1986" y1="122.4844" y2="1033.8828"/><line style="stroke:#181818;stroke-width:0.5;stroke-dasharray:5.0,5.0;" x1="2166" x2="2166" y1="122.4844" y2="1033.8828"/><text fill="#000000" font-family="sans-serif" font-size="14" lengthAdjust="spacing" textLength="118" x="5" y="119.1826">Product Manager</text><ellipse cx="67" cy="54.6875" fill="#FFFFFF" rx="8" ry="8" style="stroke:#181818;stroke-width:0.5;"/><path d="M67,62.6875 L67,89.6875 M54,70.6875 L80,70.6875 M67,89.6875 L54,104.6875 M67,89.6875 L80,104.6875 " fill="none" style="stroke:#181818;stroke-width:0.5;"/><text fill="#000000" font-family="sans-serif" font-size="14" lengthAdjust="spacing" textLength="118" x="5" y="1045.8779">Product Manager</text><ellipse cx="67" cy="1057.6797" fill="#FFFFFF" rx="8" ry="8" style="stroke:#181818;stroke-width:0.5;"/><path d="M67,1065.6797 L67,1092.6797 M54,1073.6797 L80,1073.6797 M67,1092.6797 L54,1107.6797 M67,1092.6797 L80,1107.6797 " fill="none" style="stroke:#181818;stroke-width:0.5;"/><rect fill="#FFFFFF" height="46.5938" rx="2.5" ry="2.5" style="stroke:#181818;stroke-width:0.5;" width="97" x="221.5" y="74.8906"/><text fill="#000000" font-family="sans-serif" font-size="14" lengthAdjust="spacing" textLength="83" x="228.5" y="94.8857">:OpenSprint</text><text fill="#000000" font-family="sans-serif" font-size="14" lengthAdjust="spacing" textLength="13" x="263.5" y="111.1826">UI</text><rect fill="#FFFFFF" height="46.5938" rx="2.5" ry="2.5" style="stroke:#181818;stroke-width:0.5;" width="97" x="221.5" y="1032.8828"/><text fill="#000000" font-family="sans-serif" font-size="14" lengthAdjust="spacing" textLength="83" x="228.5" y="1052.8779">:OpenSprint</text><text fill="#000000" font-family="sans-serif" font-size="14" lengthAdjust="spacing" textLength="13" x="263.5" y="1069.1748">UI</text><rect fill="#FFFFFF" height="46.5938" rx="2.5" ry="2.5" style="stroke:#181818;stroke-width:0.5;" width="126" x="523" y="74.8906"/><text fill="#000000" font-family="sans-serif" font-size="14" lengthAdjust="spacing" textLength="85" x="543.5" y="94.8857">&#171;Controller&#187;</text><text fill="#000000" font-family="sans-serif" font-size="14" lengthAdjust="spacing" textLength="112" x="530" y="111.1826">:SprintController</text><rect fill="#FFFFFF" height="46.5938" rx="2.5" ry="2.5" style="stroke:#181818;stroke-width:0.5;" width="126" x="523" y="1032.8828"/><text fill="#000000" font-family="sans-serif" font-size="14" lengthAdjust="spacing" textLength="85" x="543.5" y="1052.8779">&#171;Controller&#187;</text><text fill="#000000" font-family="sans-serif" font-size="14" lengthAdjust="spacing" textLength="112" x="530" y="1069.1748">:SprintController</text><rect fill="#FFFFFF" height="46.5938" rx="2.5" ry="2.5" style="stroke:#181818;stroke-width:0.5;" width="109" x="815.5" y="74.8906"/><text fill="#000000" font-family="sans-serif" font-size="14" lengthAdjust="spacing" textLength="68" x="836" y="94.8857">&#171;Service&#187;</text><text fill="#000000" font-family="sans-serif" font-size="14" lengthAdjust="spacing" textLength="95" x="822.5" y="111.1826">:SprintService</text><rect fill="#FFFFFF" height="46.5938" rx="2.5" ry="2.5" style="stroke:#181818;stroke-width:0.5;" width="109" x="815.5" y="1032.8828"/><text fill="#000000" font-family="sans-serif" font-size="14" lengthAdjust="spacing" textLength="68" x="836" y="1052.8779">&#171;Service&#187;</text><text fill="#000000" font-family="sans-serif" font-size="14" lengthAdjust="spacing" textLength="95" x="822.5" y="1069.1748">:SprintService</text><rect fill="#FFFFFF" height="79.1875" rx="2.5" ry="2.5" style="stroke:#181818;stroke-width:0.5;" width="115" x="1138" y="1032.8828"/><text fill="#000000" font-family="sans-serif" font-size="14" lengthAdjust="spacing" textLength="101" x="1145" y="1052.8779">&#171;ValueObject&#187;</text><text fill="#000000" font-family="sans-serif" font-size="14" lengthAdjust="spacing" textLength="85" x="1153" y="1069.1748">&#171;DomainID&#187;</text><text fill="#000000" font-family="sans-serif" font-size="14" lengthAdjust="spacing" textLength="53" x="1169" y="1085.4717">sprintID</text><text fill="#000000" font-family="sans-serif" font-size="14" lengthAdjust="spacing" textLength="59" x="1166" y="1101.7686">:SprintID</text><rect fill="#FFFFFF" height="62.8906" rx="2.5" ry="2.5" style="stroke:#181818;stroke-width:0.5;" width="115" x="1263" y="1032.8828"/><text fill="#000000" font-family="sans-serif" font-size="14" lengthAdjust="spacing" textLength="101" x="1270" y="1052.8779">&#171;ValueObject&#187;</text><text fill="#000000" font-family="sans-serif" font-size="14" lengthAdjust="spacing" textLength="83" x="1279" y="1069.1748">sprintStatus</text><text fill="#000000" font-family="sans-serif" font-size="14" lengthAdjust="spacing" textLength="89" x="1276" y="1085.4717">:SprintStatus</text><rect fill="#FFFFFF" height="62.8906" rx="2.5" ry="2.5" style="stroke:#181818;stroke-width:0.5;" width="133" x="1388" y="58.5938"/><text fill="#000000" font-family="sans-serif" font-size="14" lengthAdjust="spacing" textLength="78" x="1415.5" y="78.5889">&#171;Interface&#187;</text><text fill="#000000" font-family="sans-serif" font-size="14" lengthAdjust="spacing" textLength="92" x="1408.5" y="94.8857">&#171;Repository&#187;</text><text fill="#000000" font-family="sans-serif" font-size="14" lengthAdjust="spacing" textLength="119" x="1395" y="111.1826">:SprintRepository</text><rect fill="#FFFFFF" height="62.8906" rx="2.5" ry="2.5" style="stroke:#181818;stroke-width:0.5;" width="133" x="1388" y="1032.8828"/><text fill="#000000" font-family="sans-serif" font-size="14" lengthAdjust="spacing" textLength="78" x="1415.5" y="1052.8779">&#171;Interface&#187;</text><text fill="#000000" font-family="sans-serif" font-size="14" lengthAdjust="spacing" textLength="92" x="1408.5" y="1069.1748">&#171;Repository&#187;</text><text fill="#000000" font-family="sans-serif" font-size="14" lengthAdjust="spacing" textLength="119" x="1395" y="1085.4717">:SprintRepository</text><rect fill="#FFFFFF" height="79.1875" rx="2.5" ry="2.5" style="stroke:#181818;stroke-width:0.5;" width="141" x="1531" y="42.2969"/><text fill="#000000" font-family="sans-serif" font-size="14" lengthAdjust="spacing" textLength="56" x="1573.5" y="62.292">&#171;Entity&#187;</text><text fill="#000000" font-family="sans-serif" font-size="14" lengthAdjust="spacing" textLength="127" x="1538" y="78.5889">&#171;Aggregate Root&#187;</text><text fill="#000000" font-family="sans-serif" font-size="14" lengthAdjust="spacing" textLength="39" x="1582" y="94.8857">sprint</text><text fill="#000000" font-family="sans-serif" font-size="14" lengthAdjust="spacing" textLength="45" x="1579" y="111.1826">:Sprint</text><rect fill="#FFFFFF" height="79.1875" rx="2.5" ry="2.5" style="stroke:#181818;stroke-width:0.5;" width="141" x="1531" y="1032.8828"/><text fill="#000000" font-family="sans-serif" font-size="14" lengthAdjust="spacing" textLength="56" x="1573.5" y="1052.8779">&#171;Entity&#187;</text><text fill="#000000" font-family="sans-serif" font-size="14" lengthAdjust="spacing" textLength="127" x="1538" y="1069.1748">&#171;Aggregate Root&#187;</text><text fill="#000000" font-family="sans-serif" font-size="14" lengthAdjust="spacing" textLength="39" x="1582" y="1085.4717">sprint</text><text fill="#000000" font-family="sans-serif" font-size="14" lengthAdjust="spacing" textLength="45" x="1579" y="1101.7686">:Sprint</text><rect fill="#FFFFFF" height="30.2969" rx="2.5" ry="2.5" style="stroke:#181818;stroke-width:0.5;" width="217" x="1682" y="91.1875"/><text fill="#000000" font-family="sans-serif" font-size="14" lengthAdjust="spacing" textLength="203" x="1689" y="111.1826">:SprintDomainDataAssembler</text><rect fill="#FFFFFF" height="30.2969" rx="2.5" ry="2.5" style="stroke:#181818;stroke-width:0.5;" width="217" x="1682" y="1032.8828"/><text fill="#000000" font-family="sans-serif" font-size="14" lengthAdjust="spacing" textLength="203" x="1689" y="1052.8779">:SprintDomainDataAssembler</text><rect fill="#FFFFFF" height="62.8906" rx="2.5" ry="2.5" style="stroke:#181818;stroke-width:0.5;" width="154" x="1909" y="58.5938"/><text fill="#000000" font-family="sans-serif" font-size="14" lengthAdjust="spacing" textLength="78" x="1947" y="78.5889">&#171;Interface&#187;</text><text fill="#000000" font-family="sans-serif" font-size="14" lengthAdjust="spacing" textLength="92" x="1940" y="94.8857">&#171;Repository&#187;</text><text fill="#000000" font-family="sans-serif" font-size="14" lengthAdjust="spacing" textLength="140" x="1916" y="111.1826">:SprintRepositoryJPA</text><rect fill="#FFFFFF" height="62.8906" rx="2.5" ry="2.5" style="stroke:#181818;stroke-width:0.5;" width="154" x="1909" y="1032.8828"/><text fill="#000000" font-family="sans-serif" font-size="14" lengthAdjust="spacing" textLength="78" x="1947" y="1052.8779">&#171;Interface&#187;</text><text fill="#000000" font-family="sans-serif" font-size="14" lengthAdjust="spacing" textLength="92" x="1940" y="1069.1748">&#171;Repository&#187;</text><text fill="#000000" font-family="sans-serif" font-size="14" lengthAdjust="spacing" textLength="140" x="1916" y="1085.4717">:SprintRepositoryJPA</text><rect fill="#FFFFFF" height="30.2969" rx="2.5" ry="2.5" style="stroke:#181818;stroke-width:0.5;" width="187" x="2073" y="91.1875"/><text fill="#000000" font-family="sans-serif" font-size="14" lengthAdjust="spacing" textLength="173" x="2080" y="111.1826">:CreatedSprintAssembler</text><rect fill="#FFFFFF" height="30.2969" rx="2.5" ry="2.5" style="stroke:#181818;stroke-width:0.5;" width="187" x="2073" y="1032.8828"/><text fill="#000000" font-family="sans-serif" font-size="14" lengthAdjust="spacing" textLength="173" x="2080" y="1052.8779">:CreatedSprintAssembler</text><rect fill="#FFFFFF" height="871.2656" style="stroke:#181818;stroke-width:1.0;" width="10" x="265" y="153.6172"/><rect fill="#FFFFFF" height="804" style="stroke:#181818;stroke-width:1.0;" width="10" x="581" y="182.75"/><rect fill="#FFFFFF" height="745.7344" style="stroke:#181818;stroke-width:1.0;" width="10" x="865" y="211.8828"/><rect fill="#FFFFFF" height="398.8594" style="stroke:#181818;stroke-width:1.0;" width="10" x="870" y="471.3594"/><rect fill="#FFFFFF" height="29.1328" style="stroke:#181818;stroke-width:1.0;" width="10" x="1449.5" y="405.0938"/><rect fill="#FFFFFF" height="29.1328" style="stroke:#181818;stroke-width:1.0;" width="10" x="1449.5" y="578.8906"/><rect fill="#FFFFFF" height="203.9297" style="stroke:#181818;stroke-width:1.0;" width="10" x="1449.5" y="666.2891"/><rect fill="#FFFFFF" height="29.1328" style="stroke:#181818;stroke-width:1.0;" width="10" x="1596.5" y="505.4922"/><rect fill="#FFFFFF" height="29.1328" style="stroke:#181818;stroke-width:1.0;" width="10" x="1785.5" y="695.4219"/><rect fill="#FFFFFF" height="29.1328" style="stroke:#181818;stroke-width:1.0;" width="10" x="1785.5" y="811.9531"/><rect fill="#FFFFFF" height="29.1328" style="stroke:#181818;stroke-width:1.0;" width="10" x="1981" y="753.6875"/><rect fill="#FFFFFF" height="29.1328" style="stroke:#181818;stroke-width:1.0;" width="10" x="2161.5" y="899.3516"/><polygon fill="#181818" points="253,149.6172,263,153.6172,253,157.6172,257,153.6172" style="stroke:#181818;stroke-width:1.0;"/><line style="stroke:#181818;stroke-width:1.0;" x1="67" x2="259" y1="153.6172" y2="153.6172"/><text fill="#000000" font-family="sans-serif" font-size="13" font-weight="bold" lengthAdjust="spacing" textLength="9" x="92.5" y="148.5513">1</text><text fill="#000000" font-family="sans-serif" font-size="13" lengthAdjust="spacing" textLength="134" x="105.5" y="148.5513">asks to open a sprint</text><polygon fill="#181818" points="569,178.75,579,182.75,569,186.75,573,182.75" style="stroke:#181818;stroke-width:1.0;"/><line style="stroke:#181818;stroke-width:1.0;" x1="275" x2="575" y1="182.75" y2="182.75"/><text fill="#000000" font-family="sans-serif" font-size="13" font-weight="bold" lengthAdjust="spacing" textLength="9" x="284.5" y="177.6841">2</text><text fill="#000000" font-family="sans-serif" font-size="13" lengthAdjust="spacing" textLength="274" x="297.5" y="177.6841">changeSprintStatusREST(sprintStatusDTO)</text><polygon fill="#181818" points="853,207.8828,863,211.8828,853,215.8828,857,211.8828" style="stroke:#181818;stroke-width:1.0;"/><line style="stroke:#181818;stroke-width:1.0;" x1="591" x2="859" y1="211.8828" y2="211.8828"/><text fill="#000000" font-family="sans-serif" font-size="13" font-weight="bold" lengthAdjust="spacing" textLength="9" x="600.5" y="206.8169">3</text><text fill="#000000" font-family="sans-serif" font-size="13" lengthAdjust="spacing" textLength="242" x="613.5" y="206.8169">changeSprintStatus(sprintStatusDTO)</text><polygon fill="#181818" points="1126,237.0156,1136,241.0156,1126,245.0156,1130,241.0156" style="stroke:#181818;stroke-width:1.0;"/><line style="stroke:#181818;stroke-width:1.0;" x1="875" x2="1132" y1="241.0156" y2="241.0156"/><text fill="#000000" font-family="sans-serif" font-size="13" font-weight="bold" lengthAdjust="spacing" textLength="9" x="887" y="235.9497">4</text><text fill="#000000" font-family="sans-serif" font-size="13" lengthAdjust="spacing" textLength="226" x="900" y="235.9497">sprintID = sprintStatusDTO.sprintID</text><rect fill="#FFFFFF" height="79.1875" rx="2.5" ry="2.5" style="stroke:#181818;stroke-width:0.5;" width="115" x="1138" y="219.8828"/><text fill="#000000" font-family="sans-serif" font-size="14" lengthAdjust="spacing" textLength="101" x="1145" y="239.8779">&#171;ValueObject&#187;</text><text fill="#000000" font-family="sans-serif" font-size="14" lengthAdjust="spacing" textLength="85" x="1153" y="256.1748">&#171;DomainID&#187;</text><text fill="#000000" font-family="sans-serif" font-size="14" lengthAdjust="spacing" textLength="53" x="1169" y="272.4717">sprintID</text><text fill="#000000" font-family="sans-serif" font-size="14" lengthAdjust="spacing" textLength="59" x="1166" y="288.7686">:SprintID</text><polygon fill="#181818" points="1251,327.2031,1261,331.2031,1251,335.2031,1255,331.2031" style="stroke:#181818;stroke-width:1.0;"/><line style="stroke:#181818;stroke-width:1.0;" x1="875" x2="1257" y1="331.2031" y2="331.2031"/><text fill="#000000" font-family="sans-serif" font-size="13" font-weight="bold" lengthAdjust="spacing" textLength="9" x="920.5" y="326.1372">5</text><text fill="#000000" font-family="sans-serif" font-size="13" lengthAdjust="spacing" textLength="284" x="933.5" y="326.1372">sprintStatus = sprintStatusDTO.sprintStatus</text><rect fill="#FFFFFF" height="62.8906" rx="2.5" ry="2.5" style="stroke:#181818;stroke-width:0.5;" width="115" x="1263" y="310.0703"/><text fill="#000000" font-family="sans-serif" font-size="14" lengthAdjust="spacing" textLength="101" x="1270" y="330.0654">&#171;ValueObject&#187;</text><text fill="#000000" font-family="sans-serif" font-size="14" lengthAdjust="spacing" textLength="83" x="1279" y="346.3623">sprintStatus</text><text fill="#000000" font-family="sans-serif" font-size="14" lengthAdjust="spacing" textLength="89" x="1276" y="362.6592">:SprintStatus</text><polygon fill="#181818" points="1437.5,401.0938,1447.5,405.0938,1437.5,409.0938,1441.5,405.0938" style="stroke:#181818;stroke-width:1.0;"/><line style="stroke:#181818;stroke-width:1.0;" x1="875" x2="1443.5" y1="405.0938" y2="405.0938"/><text fill="#000000" font-family="sans-serif" font-size="13" font-weight="bold" lengthAdjust="spacing" textLength="9" x="1101.25" y="400.0278">6</text><text fill="#000000" font-family="sans-serif" font-size="13" lengthAdjust="spacing" textLength="109" x="1114.25" y="400.0278">findById(sprintID)</text><polygon fill="#181818" points="886,430.2266,876,434.2266,886,438.2266,882,434.2266" style="stroke:#181818;stroke-width:1.0;"/><line style="stroke:#181818;stroke-width:1.0;stroke-dasharray:2.0,2.0;" x1="880" x2="1453.5" y1="434.2266" y2="434.2266"/><text fill="#000000" font-family="sans-serif" font-size="13" font-weight="bold" lengthAdjust="spacing" textLength="9" x="1140.25" y="429.1606">7</text><text fill="#000000" font-family="sans-serif" font-size="13" lengthAdjust="spacing" textLength="36" x="1153.25" y="429.1606">sprint</text><line style="stroke:#181818;stroke-width:1.0;" x1="875" x2="922" y1="458.3594" y2="458.3594"/><line style="stroke:#181818;stroke-width:1.0;" x1="922" x2="922" y1="458.3594" y2="471.3594"/><line style="stroke:#181818;stroke-width:1.0;" x1="881" x2="922" y1="471.3594" y2="471.3594"/><polygon fill="#181818" points="891,467.3594,881,471.3594,891,475.3594,887,471.3594" style="stroke:#181818;stroke-width:1.0;"/><text fill="#000000" font-family="sans-serif" font-size="13" font-weight="bold" lengthAdjust="spacing" textLength="9" x="887" y="453.2935">8</text><text fill="#000000" font-family="sans-serif" font-size="13" lengthAdjust="spacing" textLength="263" x="900" y="453.2935">setSprintInformation(sprint, sprintStatus)</text><polygon fill="#181818" points="1584.5,501.4922,1594.5,505.4922,1584.5,509.4922,1588.5,505.4922" style="stroke:#181818;stroke-width:1.0;"/><line style="stroke:#181818;stroke-width:1.0;" x1="880" x2="1590.5" y1="505.4922" y2="505.4922"/><text fill="#000000" font-family="sans-serif" font-size="13" font-weight="bold" lengthAdjust="spacing" textLength="9" x="1155.25" y="500.4263">9</text><text fill="#000000" font-family="sans-serif" font-size="13" lengthAdjust="spacing" textLength="153" x="1168.25" y="500.4263">hasStatus(sprintStatus)</text><polygon fill="#181818" points="891,530.625,881,534.625,891,538.625,887,534.625" style="stroke:#181818;stroke-width:1.0;"/><line style="stroke:#181818;stroke-width:1.0;stroke-dasharray:2.0,2.0;" x1="885" x2="1600.5" y1="534.625" y2="534.625"/><text fill="#000000" font-family="sans-serif" font-size="13" font-weight="bold" lengthAdjust="spacing" textLength="18" x="1199.75" y="529.5591">10</text><text fill="#000000" font-family="sans-serif" font-size="13" lengthAdjust="spacing" textLength="60" x="1221.75" y="529.5591">true/false</text><polygon fill="#181818" points="1437.5,574.8906,1447.5,578.8906,1437.5,582.8906,1441.5,578.8906" style="stroke:#181818;stroke-width:1.0;"/><line style="stroke:#181818;stroke-width:1.0;" x1="880" x2="1443.5" y1="578.8906" y2="578.8906"/><text fill="#000000" font-family="sans-serif" font-size="13" font-weight="bold" lengthAdjust="spacing" textLength="18" x="989.25" y="566.2583">11</text><text fill="#000000" font-family="sans-serif" font-size="13" lengthAdjust="spacing" textLength="329" x="1011.25" y="558.6919">existsBySprintIdJPAProjectCodeAndSprintStatusLike</text><text fill="#000000" font-family="sans-serif" font-size="13" lengthAdjust="spacing" textLength="273" x="1039.25" y="573.8247">(sprint.projectCode, SprintStatus.OPENED)</text><polygon fill="#181818" points="891,604.0234,881,608.0234,891,612.0234,887,608.0234" style="stroke:#181818;stroke-width:1.0;"/><line style="stroke:#181818;stroke-width:1.0;stroke-dasharray:2.0,2.0;" x1="885" x2="1453.5" y1="608.0234" y2="608.0234"/><text fill="#000000" font-family="sans-serif" font-size="13" font-weight="bold" lengthAdjust="spacing" textLength="18" x="1126.25" y="602.9575">12</text><text fill="#000000" font-family="sans-serif" font-size="13" lengthAdjust="spacing" textLength="60" x="1148.25" y="602.9575">true/false</text><polygon fill="#181818" points="1589.5,633.1563,1599.5,637.1563,1589.5,641.1563,1593.5,637.1563" style="stroke:#181818;stroke-width:1.0;"/><line style="stroke:#181818;stroke-width:1.0;" x1="880" x2="1595.5" y1="637.1563" y2="637.1563"/><text fill="#000000" font-family="sans-serif" font-size="13" font-weight="bold" lengthAdjust="spacing" textLength="18" x="1126.25" y="632.0903">13</text><text fill="#000000" font-family="sans-serif" font-size="13" lengthAdjust="spacing" textLength="207" x="1148.25" y="632.0903">defineSprintStatus(sprintStatus)</text><polygon fill="#181818" points="1437.5,662.2891,1447.5,666.2891,1437.5,670.2891,1441.5,666.2891" style="stroke:#181818;stroke-width:1.0;"/><line style="stroke:#181818;stroke-width:1.0;" x1="880" x2="1443.5" y1="666.2891" y2="666.2891"/><text fill="#000000" font-family="sans-serif" font-size="13" font-weight="bold" lengthAdjust="spacing" textLength="18" x="1115.75" y="661.2231">14</text><text fill="#000000" font-family="sans-serif" font-size="13" lengthAdjust="spacing" textLength="76" x="1137.75" y="661.2231">save(sprint)</text><polygon fill="#181818" points="1773.5,691.4219,1783.5,695.4219,1773.5,699.4219,1777.5,695.4219" style="stroke:#181818;stroke-width:1.0;"/><line style="stroke:#181818;stroke-width:1.0;" x1="1459.5" x2="1779.5" y1="695.4219" y2="695.4219"/><text fill="#000000" font-family="sans-serif" font-size="13" font-weight="bold" lengthAdjust="spacing" textLength="18" x="1566.5" y="690.356">15</text><text fill="#000000" font-family="sans-serif" font-size="13" lengthAdjust="spacing" textLength="90" x="1588.5" y="690.356">toData(sprint)</text><polygon fill="#181818" points="1470.5,720.5547,1460.5,724.5547,1470.5,728.5547,1466.5,724.5547" style="stroke:#181818;stroke-width:1.0;"/><line style="stroke:#181818;stroke-width:1.0;stroke-dasharray:2.0,2.0;" x1="1464.5" x2="1789.5" y1="724.5547" y2="724.5547"/><text fill="#000000" font-family="sans-serif" font-size="13" font-weight="bold" lengthAdjust="spacing" textLength="18" x="1586" y="719.4888">16</text><text fill="#000000" font-family="sans-serif" font-size="13" lengthAdjust="spacing" textLength="56" x="1608" y="719.4888">sprintJPA</text><polygon fill="#181818" points="1969,749.6875,1979,753.6875,1969,757.6875,1973,753.6875" style="stroke:#181818;stroke-width:1.0;"/><line style="stroke:#181818;stroke-width:1.0;" x1="1459.5" x2="1975" y1="753.6875" y2="753.6875"/><text fill="#000000" font-family="sans-serif" font-size="13" font-weight="bold" lengthAdjust="spacing" textLength="18" x="1661.25" y="748.6216">17</text><text fill="#000000" font-family="sans-serif" font-size="13" lengthAdjust="spacing" textLength="96" x="1683.25" y="748.6216">save(sprintJPA)</text><polygon fill="#181818" points="1470.5,778.8203,1460.5,782.8203,1470.5,786.8203,1466.5,782.8203" style="stroke:#181818;stroke-width:1.0;"/><line style="stroke:#181818;stroke-width:1.0;stroke-dasharray:2.0,2.0;" x1="1464.5" x2="1985" y1="782.8203" y2="782.8203"/><text fill="#000000" font-family="sans-serif" font-size="13" font-weight="bold" lengthAdjust="spacing" textLength="18" x="1663.75" y="777.7544">18</text><text fill="#000000" font-family="sans-serif" font-size="13" lengthAdjust="spacing" textLength="96" x="1685.75" y="777.7544">savedSprintJPA</text><polygon fill="#181818" points="1773.5,807.9531,1783.5,811.9531,1773.5,815.9531,1777.5,811.9531" style="stroke:#181818;stroke-width:1.0;"/><line style="stroke:#181818;stroke-width:1.0;" x1="1459.5" x2="1779.5" y1="811.9531" y2="811.9531"/><text fill="#000000" font-family="sans-serif" font-size="13" font-weight="bold" lengthAdjust="spacing" textLength="18" x="1527" y="806.8872">19</text><text fill="#000000" font-family="sans-serif" font-size="13" lengthAdjust="spacing" textLength="169" x="1549" y="806.8872">toDomain(savedSprintJPA)</text><polygon fill="#181818" points="1470.5,837.0859,1460.5,841.0859,1470.5,845.0859,1466.5,841.0859" style="stroke:#181818;stroke-width:1.0;"/><line style="stroke:#181818;stroke-width:1.0;stroke-dasharray:2.0,2.0;" x1="1464.5" x2="1789.5" y1="841.0859" y2="841.0859"/><text fill="#000000" font-family="sans-serif" font-size="13" font-weight="bold" lengthAdjust="spacing" textLength="18" x="1533" y="836.02">20</text><text fill="#000000" font-family="sans-serif" font-size="13" lengthAdjust="spacing" textLength="162" x="1555" y="836.02">sprintWithChangedStatus</text><polygon fill="#181818" points="886,866.2188,876,870.2188,886,874.2188,882,870.2188" style="stroke:#181818;stroke-width:1.0;"/><line style="stroke:#181818;stroke-width:1.0;stroke-dasharray:2.0,2.0;" x1="880" x2="1453.5" y1="870.2188" y2="870.2188"/><text fill="#000000" font-family="sans-serif" font-size="13" font-weight="bold" lengthAdjust="spacing" textLength="18" x="1072.75" y="865.1528">21</text><text fill="#000000" font-family="sans-serif" font-size="13" lengthAdjust="spacing" textLength="162" x="1094.75" y="865.1528">sprintWithChangedStatus</text><polygon fill="#181818" points="2149.5,895.3516,2159.5,899.3516,2149.5,903.3516,2153.5,899.3516" style="stroke:#181818;stroke-width:1.0;"/><line style="stroke:#181818;stroke-width:1.0;" x1="875" x2="2155.5" y1="899.3516" y2="899.3516"/><text fill="#000000" font-family="sans-serif" font-size="13" font-weight="bold" lengthAdjust="spacing" textLength="18" x="1378.75" y="894.2856">22</text><text fill="#000000" font-family="sans-serif" font-size="13" lengthAdjust="spacing" textLength="257" x="1400.75" y="894.2856">generateDTO(sprintWithChangedStatus)</text><polygon fill="#181818" points="886,924.4844,876,928.4844,886,932.4844,882,928.4844" style="stroke:#181818;stroke-width:1.0;"/><line style="stroke:#181818;stroke-width:1.0;stroke-dasharray:2.0,2.0;" x1="880" x2="2165.5" y1="928.4844" y2="928.4844"/><text fill="#000000" font-family="sans-serif" font-size="13" font-weight="bold" lengthAdjust="spacing" textLength="18" x="1452.75" y="923.4185">23</text><text fill="#000000" font-family="sans-serif" font-size="13" lengthAdjust="spacing" textLength="114" x="1474.75" y="923.4185">createdSprintDTO</text><polygon fill="#181818" points="602,953.6172,592,957.6172,602,961.6172,598,957.6172" style="stroke:#181818;stroke-width:1.0;"/><line style="stroke:#181818;stroke-width:1.0;stroke-dasharray:2.0,2.0;" x1="596" x2="869" y1="957.6172" y2="957.6172"/><text fill="#000000" font-family="sans-serif" font-size="13" font-weight="bold" lengthAdjust="spacing" textLength="18" x="662.5" y="952.5513">24</text><text fill="#000000" font-family="sans-serif" font-size="13" lengthAdjust="spacing" textLength="114" x="684.5" y="952.5513">createdSprintDTO</text><polygon fill="#181818" points="286,982.75,276,986.75,286,990.75,282,986.75" style="stroke:#181818;stroke-width:1.0;"/><line style="stroke:#181818;stroke-width:1.0;stroke-dasharray:2.0,2.0;" x1="280" x2="585" y1="986.75" y2="986.75"/><text fill="#000000" font-family="sans-serif" font-size="13" font-weight="bold" lengthAdjust="spacing" textLength="18" x="362.5" y="981.6841">25</text><text fill="#000000" font-family="sans-serif" font-size="13" lengthAdjust="spacing" textLength="114" x="384.5" y="981.6841">createdSprintDTO</text><polygon fill="#181818" points="78,1011.8828,68,1015.8828,78,1019.8828,74,1015.8828" style="stroke:#181818;stroke-width:1.0;"/><line style="stroke:#181818;stroke-width:1.0;stroke-dasharray:2.0,2.0;" x1="72" x2="264" y1="1015.8828" y2="1015.8828"/><text fill="#000000" font-family="sans-serif" font-size="13" font-weight="bold" lengthAdjust="spacing" textLength="18" x="79" y="1010.8169">26</text><text fill="#000000" font-family="sans-serif" font-size="13" lengthAdjust="spacing" textLength="152" x="101" y="1010.8169">successful/unsuccessful</text><!--SRC=[fPPDZzem48Rl-HNMda3iHwlU45s91TIcAWN1qbxsOf8Xk0GxjPtz-FSTEoPs0eYjoW7YyRoFPyPZ1xLZlA2Ixec2FoNm1AQW5CrWcBECamIu1XcfseicMiW7ckmoAKgUZaGk97dPCWs14tvhbh22Sdt9zR3g0ZOWpSC_2xu2JK6-L_O5VOhJpX4jjU3bVeq9Hvhf7CXg-U7JHt93o52HkHI_8T5aIZcMHrwJcBnWWaGBeZGcJFGM28TNJLGX6Kw83Q6aS2h6xVmBhCagngLC6SaLCjFICwy8nNMcKHGKa5prPmNmfMK-yLLidP3Hy1aCHe9hAV8SvFtz4-zN_jveLNxOLYz1FhC40gcpM9rxRej-qho4sThaPuI3mLZiAUFns8og8iJZ6XYFAvORN81LygMckbG-9ZiCC9MXZOfDpsvebSvWi812A8RrVWlIyyO0vurjv8HZGxnLl66MISYe1h8G8WYsPWV4ravMngfCOwhfK2dOhm_RKu_-Bw5lyw75uQynja8OIS3GqqhKNF_qL8IV-PJSt6FJzNfzTDmfq_G2kn8RlCezMiN6mpUOyKosb6SGxjHYidpiX5ixVfnr8wyo3DTifm77uYYnKVk-SdgBSZRI9uTs99z92t5xc6gXN6yTuIfxZNJ3SrX7ESRu_JAPRXXF7zxYj7C8fXj9qANaX_es0Bv22hHBac-4t5FD17UCwqP4tHCX6C2MgXELhLVNieIx3SqLN4m1NfdIwk7DnPDY-xahSoHI6F8qBDztjeEdGwItXVUxRbJvTZQV_9YCtnTEdwI0TJpVBzsBEIZw34xIZTeEHbIVYbuFEq0BSuXhGMF7CFsJ17SghJvO3iqUW6PNhNEKepZibT9fAbiH_M9wEx8dAdLTUM4w1NnDiMTx9DmR82pWwUl21fG11ucJU0uwP-XrS4c8GK6mHkD6GUoHguymQjmYzhAw931N5ZhYtOOxKIO9_k_PbFbToVqW-Wi0]--></g></svg>