<?xml version="1.0" encoding="us-ascii" standalone="no"?><svg xmlns="http://www.w3.org/2000/svg" xmlns:xlink="http://www.w3.org/1999/xlink" contentStyleType="text/css" height="982px" preserveAspectRatio="none" style="width:2044px;height:982px;background:#FFFFFF;" version="1.1" viewBox="0 0 2044 982" width="2044px" zoomAndPan="magnify"><defs/><g><text fill="#000000" font-family="sans-serif" font-size="14" font-weight="bold" lengthAdjust="spacing" textLength="508" x="767" y="28.5352">US011/012/013 - As Manager, I want to define a resource of a project</text><rect fill="#FFFFFF" height="733.0957" style="stroke:#181818;stroke-width:1.0;" width="10" x="227" y="150.2871"/><rect fill="#FFFFFF" height="674.4746" style="stroke:#181818;stroke-width:1.0;" width="10" x="441" y="179.5977"/><rect fill="#FFFFFF" height="600.543" style="stroke:#181818;stroke-width:1.0;" width="10" x="624" y="224.2188"/><rect fill="#FFFFFF" height="29.3105" style="stroke:#181818;stroke-width:1.0;" width="10" x="866" y="268.8398"/><rect fill="#FFFFFF" height="29.3105" style="stroke:#181818;stroke-width:1.0;" width="10" x="1018.5" y="342.7715"/><rect fill="#FFFFFF" height="29.3105" style="stroke:#181818;stroke-width:1.0;" width="10" x="1179" y="649.543"/><rect fill="#FFFFFF" height="161.2188" style="stroke:#181818;stroke-width:1.0;" width="10" x="1330.5" y="416.7031"/><rect fill="#FFFFFF" height="87.2871" style="stroke:#181818;stroke-width:1.0;" width="10" x="1505.5" y="708.1641"/><rect fill="#FFFFFF" height="87.2871" style="stroke:#181818;stroke-width:1.0;" width="10" x="1848.5" y="461.3242"/><line style="stroke:#181818;stroke-width:0.5;stroke-dasharray:5.0,5.0;" x1="38" x2="38" y1="118.9766" y2="901.3828"/><line style="stroke:#181818;stroke-width:0.5;stroke-dasharray:5.0,5.0;" x1="232" x2="232" y1="118.9766" y2="901.3828"/><line style="stroke:#181818;stroke-width:0.5;stroke-dasharray:5.0,5.0;" x1="445.5" x2="445.5" y1="118.9766" y2="901.3828"/><line style="stroke:#181818;stroke-width:0.5;stroke-dasharray:5.0,5.0;" x1="628.5" x2="628.5" y1="118.9766" y2="901.3828"/><line style="stroke:#181818;stroke-width:0.5;stroke-dasharray:5.0,5.0;" x1="871" x2="871" y1="118.9766" y2="901.3828"/><line style="stroke:#181818;stroke-width:0.5;stroke-dasharray:5.0,5.0;" x1="1023" x2="1023" y1="118.9766" y2="901.3828"/><line style="stroke:#181818;stroke-width:0.5;stroke-dasharray:5.0,5.0;" x1="1184" x2="1184" y1="118.9766" y2="901.3828"/><line style="stroke:#181818;stroke-width:0.5;stroke-dasharray:5.0,5.0;" x1="1335" x2="1335" y1="118.9766" y2="901.3828"/><line style="stroke:#181818;stroke-width:0.5;stroke-dasharray:5.0,5.0;" x1="1510" x2="1510" y1="118.9766" y2="901.3828"/><line style="stroke:#181818;stroke-width:0.5;stroke-dasharray:5.0,5.0;" x1="1699" x2="1699" y1="755.1523" y2="901.3828"/><line style="stroke:#181818;stroke-width:0.5;stroke-dasharray:5.0,5.0;" x1="1853" x2="1853" y1="118.9766" y2="901.3828"/><line style="stroke:#181818;stroke-width:0.5;stroke-dasharray:5.0,5.0;" x1="1983" x2="1983" y1="508.3125" y2="901.3828"/><text fill="#000000" font-family="sans-serif" font-size="14" lengthAdjust="spacing" textLength="60" x="5" y="116.0234">Manager</text><ellipse cx="38" cy="50.9883" fill="#FFFFFF" rx="8" ry="8" style="stroke:#181818;stroke-width:0.5;"/><path d="M38,58.9883 L38,85.9883 M25,66.9883 L51,66.9883 M38,85.9883 L25,100.9883 M38,85.9883 L51,100.9883 " fill="none" style="stroke:#181818;stroke-width:0.5;"/><text fill="#000000" font-family="sans-serif" font-size="14" lengthAdjust="spacing" textLength="60" x="5" y="913.918">Manager</text><ellipse cx="38" cy="925.3711" fill="#FFFFFF" rx="8" ry="8" style="stroke:#181818;stroke-width:0.5;"/><path d="M38,933.3711 L38,960.3711 M25,941.3711 L51,941.3711 M38,960.3711 L25,975.3711 M38,960.3711 L51,975.3711 " fill="none" style="stroke:#181818;stroke-width:0.5;"/><rect fill="#FFFFFF" height="30.4883" rx="2.5" ry="2.5" style="stroke:#181818;stroke-width:0.5;" width="134" x="165" y="87.4883"/><text fill="#000000" font-family="sans-serif" font-size="14" lengthAdjust="spacing" textLength="120" x="172" y="108.0234">:CreateResouceUI</text><rect fill="#FFFFFF" height="30.4883" rx="2.5" ry="2.5" style="stroke:#181818;stroke-width:0.5;" width="134" x="165" y="900.3828"/><text fill="#000000" font-family="sans-serif" font-size="14" lengthAdjust="spacing" textLength="120" x="172" y="920.918">:CreateResouceUI</text><rect fill="#FFFFFF" height="30.4883" rx="2.5" ry="2.5" style="stroke:#181818;stroke-width:0.5;" width="151" x="370.5" y="87.4883"/><text fill="#000000" font-family="sans-serif" font-size="14" lengthAdjust="spacing" textLength="137" x="377.5" y="108.0234">:ResourceController</text><rect fill="#FFFFFF" height="30.4883" rx="2.5" ry="2.5" style="stroke:#181818;stroke-width:0.5;" width="151" x="370.5" y="900.3828"/><text fill="#000000" font-family="sans-serif" font-size="14" lengthAdjust="spacing" textLength="137" x="377.5" y="920.918">:ResourceController</text><rect fill="#FFFFFF" height="30.4883" rx="2.5" ry="2.5" style="stroke:#181818;stroke-width:0.5;" width="129" x="564.5" y="87.4883"/><text fill="#000000" font-family="sans-serif" font-size="14" lengthAdjust="spacing" textLength="115" x="571.5" y="108.0234">:ResourceService</text><rect fill="#FFFFFF" height="30.4883" rx="2.5" ry="2.5" style="stroke:#181818;stroke-width:0.5;" width="129" x="564.5" y="900.3828"/><text fill="#000000" font-family="sans-serif" font-size="14" lengthAdjust="spacing" textLength="115" x="571.5" y="920.918">:ResourceService</text><rect fill="#FFFFFF" height="30.4883" rx="2.5" ry="2.5" style="stroke:#181818;stroke-width:0.5;" width="138" x="802" y="87.4883"/><text fill="#000000" font-family="sans-serif" font-size="14" lengthAdjust="spacing" textLength="124" x="809" y="108.0234">:ProjectRepository</text><rect fill="#FFFFFF" height="30.4883" rx="2.5" ry="2.5" style="stroke:#181818;stroke-width:0.5;" width="138" x="802" y="900.3828"/><text fill="#000000" font-family="sans-serif" font-size="14" lengthAdjust="spacing" textLength="124" x="809" y="920.918">:ProjectRepository</text><rect fill="#FFFFFF" height="30.4883" rx="2.5" ry="2.5" style="stroke:#181818;stroke-width:0.5;" width="147" x="950" y="87.4883"/><text fill="#000000" font-family="sans-serif" font-size="14" lengthAdjust="spacing" textLength="133" x="957" y="108.0234">:AccountRepository</text><rect fill="#FFFFFF" height="30.4883" rx="2.5" ry="2.5" style="stroke:#181818;stroke-width:0.5;" width="147" x="950" y="900.3828"/><text fill="#000000" font-family="sans-serif" font-size="14" lengthAdjust="spacing" textLength="133" x="957" y="920.918">:AccountRepository</text><rect fill="#FFFFFF" height="30.4883" rx="2.5" ry="2.5" style="stroke:#181818;stroke-width:0.5;" width="154" x="1107" y="87.4883"/><text fill="#000000" font-family="sans-serif" font-size="14" lengthAdjust="spacing" textLength="140" x="1114" y="108.0234">:ResourceRepository</text><rect fill="#FFFFFF" height="30.4883" rx="2.5" ry="2.5" style="stroke:#181818;stroke-width:0.5;" width="154" x="1107" y="900.3828"/><text fill="#000000" font-family="sans-serif" font-size="14" lengthAdjust="spacing" textLength="140" x="1114" y="920.918">:ResourceRepository</text><rect fill="#FFFFFF" height="30.4883" rx="2.5" ry="2.5" style="stroke:#181818;stroke-width:0.5;" width="129" x="1271" y="87.4883"/><text fill="#000000" font-family="sans-serif" font-size="14" lengthAdjust="spacing" textLength="115" x="1278" y="108.0234">ResourceMapper</text><rect fill="#FFFFFF" height="30.4883" rx="2.5" ry="2.5" style="stroke:#181818;stroke-width:0.5;" width="129" x="1271" y="900.3828"/><text fill="#000000" font-family="sans-serif" font-size="14" lengthAdjust="spacing" textLength="115" x="1278" y="920.918">ResourceMapper</text><rect fill="#FFFFFF" height="30.4883" rx="2.5" ry="2.5" style="stroke:#181818;stroke-width:0.5;" width="201" x="1410" y="87.4883"/><text fill="#000000" font-family="sans-serif" font-size="14" lengthAdjust="spacing" textLength="187" x="1417" y="108.0234">:OutputResourceAssembler</text><rect fill="#FFFFFF" height="30.4883" rx="2.5" ry="2.5" style="stroke:#181818;stroke-width:0.5;" width="201" x="1410" y="900.3828"/><text fill="#000000" font-family="sans-serif" font-size="14" lengthAdjust="spacing" textLength="187" x="1417" y="920.918">:OutputResourceAssembler</text><rect fill="#FFFFFF" height="46.9766" rx="2.5" ry="2.5" style="stroke:#181818;stroke-width:0.5;" width="157" x="1621" y="900.3828"/><text fill="#000000" font-family="sans-serif" font-size="14" lengthAdjust="spacing" textLength="143" x="1628" y="920.918">outputResourceDTO:</text><text fill="#000000" font-family="sans-serif" font-size="14" lengthAdjust="spacing" textLength="141" x="1629" y="937.4063">OutputResourceDTO</text><rect fill="#FFFFFF" height="30.4883" rx="2.5" ry="2.5" style="stroke:#181818;stroke-width:0.5;" width="131" x="1788" y="87.4883"/><text fill="#000000" font-family="sans-serif" font-size="14" lengthAdjust="spacing" textLength="117" x="1795" y="108.0234">:ResourceFactory</text><rect fill="#FFFFFF" height="30.4883" rx="2.5" ry="2.5" style="stroke:#181818;stroke-width:0.5;" width="131" x="1788" y="900.3828"/><text fill="#000000" font-family="sans-serif" font-size="14" lengthAdjust="spacing" textLength="117" x="1795" y="920.918">:ResourceFactory</text><rect fill="#FFFFFF" height="46.9766" rx="2.5" ry="2.5" style="stroke:#181818;stroke-width:0.5;" width="109" x="1929" y="900.3828"/><text fill="#000000" font-family="sans-serif" font-size="14" lengthAdjust="spacing" textLength="95" x="1936" y="920.918">newResource:</text><text fill="#000000" font-family="sans-serif" font-size="14" lengthAdjust="spacing" textLength="63" x="1952" y="937.4063">Resource</text><rect fill="#FFFFFF" height="733.0957" style="stroke:#181818;stroke-width:1.0;" width="10" x="227" y="150.2871"/><rect fill="#FFFFFF" height="674.4746" style="stroke:#181818;stroke-width:1.0;" width="10" x="441" y="179.5977"/><rect fill="#FFFFFF" height="600.543" style="stroke:#181818;stroke-width:1.0;" width="10" x="624" y="224.2188"/><rect fill="#FFFFFF" height="29.3105" style="stroke:#181818;stroke-width:1.0;" width="10" x="866" y="268.8398"/><rect fill="#FFFFFF" height="29.3105" style="stroke:#181818;stroke-width:1.0;" width="10" x="1018.5" y="342.7715"/><rect fill="#FFFFFF" height="29.3105" style="stroke:#181818;stroke-width:1.0;" width="10" x="1179" y="649.543"/><rect fill="#FFFFFF" height="161.2188" style="stroke:#181818;stroke-width:1.0;" width="10" x="1330.5" y="416.7031"/><rect fill="#FFFFFF" height="87.2871" style="stroke:#181818;stroke-width:1.0;" width="10" x="1505.5" y="708.1641"/><rect fill="#FFFFFF" height="87.2871" style="stroke:#181818;stroke-width:1.0;" width="10" x="1848.5" y="461.3242"/><polygon fill="#181818" points="215,146.2871,225,150.2871,215,154.2871,219,150.2871" style="stroke:#181818;stroke-width:1.0;"/><line style="stroke:#181818;stroke-width:1.0;" x1="38" x2="221" y1="150.2871" y2="150.2871"/><text fill="#000000" font-family="sans-serif" font-size="13" font-weight="bold" lengthAdjust="spacing" textLength="9" x="47.5" y="145.5449">1</text><text fill="#000000" font-family="sans-serif" font-size="13" lengthAdjust="spacing" textLength="157" x="60.5" y="145.5449">asks to create a resource</text><polygon fill="#181818" points="429,175.5977,439,179.5977,429,183.5977,433,179.5977" style="stroke:#181818;stroke-width:1.0;"/><line style="stroke:#181818;stroke-width:1.0;" x1="237" x2="435" y1="179.5977" y2="179.5977"/><text fill="#000000" font-family="sans-serif" font-size="13" font-weight="bold" lengthAdjust="spacing" textLength="9" x="246.5" y="174.8555">2</text><text fill="#000000" font-family="sans-serif" font-size="13" lengthAdjust="spacing" textLength="172" x="259.5" y="174.8555">addResourceToProject(info)</text><polygon fill="#181818" points="612,220.2188,622,224.2188,612,228.2188,616,224.2188" style="stroke:#181818;stroke-width:1.0;"/><line style="stroke:#181818;stroke-width:1.0;" x1="451" x2="618" y1="224.2188" y2="224.2188"/><text fill="#000000" font-family="sans-serif" font-size="13" font-weight="bold" lengthAdjust="spacing" textLength="9" x="461.5" y="211.8213">3</text><text fill="#000000" font-family="sans-serif" font-size="13" lengthAdjust="spacing" textLength="139" x="474.5" y="204.166">addResourceToProject</text><text fill="#000000" font-family="sans-serif" font-size="13" lengthAdjust="spacing" textLength="118" x="485" y="219.4766">(newResourceDTO)</text><polygon fill="#181818" points="854,264.8398,864,268.8398,854,272.8398,858,268.8398" style="stroke:#181818;stroke-width:1.0;"/><line style="stroke:#181818;stroke-width:1.0;" x1="634" x2="860" y1="268.8398" y2="268.8398"/><text fill="#000000" font-family="sans-serif" font-size="13" font-weight="bold" lengthAdjust="spacing" textLength="9" x="644.5" y="256.4424">4</text><text fill="#000000" font-family="sans-serif" font-size="13" lengthAdjust="spacing" textLength="64" x="724.5" y="248.7871">existsById</text><text fill="#000000" font-family="sans-serif" font-size="13" lengthAdjust="spacing" textLength="198" x="657.5" y="264.0977">(newResourceDTO.projectCode)</text><polygon fill="#181818" points="645,294.1504,635,298.1504,645,302.1504,641,298.1504" style="stroke:#181818;stroke-width:1.0;"/><line style="stroke:#181818;stroke-width:1.0;stroke-dasharray:2.0,2.0;" x1="639" x2="870" y1="298.1504" y2="298.1504"/><text fill="#000000" font-family="sans-serif" font-size="13" font-weight="bold" lengthAdjust="spacing" textLength="9" x="715" y="293.4082">5</text><text fill="#000000" font-family="sans-serif" font-size="13" lengthAdjust="spacing" textLength="62" x="728" y="293.4082">true/false</text><polygon fill="#181818" points="1006.5,338.7715,1016.5,342.7715,1006.5,346.7715,1010.5,342.7715" style="stroke:#181818;stroke-width:1.0;"/><line style="stroke:#181818;stroke-width:1.0;" x1="634" x2="1012.5" y1="342.7715" y2="342.7715"/><text fill="#000000" font-family="sans-serif" font-size="13" font-weight="bold" lengthAdjust="spacing" textLength="9" x="741.75" y="330.374">6</text><text fill="#000000" font-family="sans-serif" font-size="13" lengthAdjust="spacing" textLength="64" x="800.75" y="322.7188">existsById</text><text fill="#000000" font-family="sans-serif" font-size="13" lengthAdjust="spacing" textLength="156" x="754.75" y="338.0293">(newResourceDTO.email)</text><polygon fill="#181818" points="645,368.082,635,372.082,645,376.082,641,372.082" style="stroke:#181818;stroke-width:1.0;"/><line style="stroke:#181818;stroke-width:1.0;stroke-dasharray:2.0,2.0;" x1="639" x2="1022.5" y1="372.082" y2="372.082"/><text fill="#000000" font-family="sans-serif" font-size="13" font-weight="bold" lengthAdjust="spacing" textLength="9" x="791.25" y="367.3398">7</text><text fill="#000000" font-family="sans-serif" font-size="13" lengthAdjust="spacing" textLength="62" x="804.25" y="367.3398">true/false</text><polygon fill="#181818" points="1318.5,412.7031,1328.5,416.7031,1318.5,420.7031,1322.5,416.7031" style="stroke:#181818;stroke-width:1.0;"/><line style="stroke:#181818;stroke-width:1.0;" x1="634" x2="1324.5" y1="416.7031" y2="416.7031"/><text fill="#000000" font-family="sans-serif" font-size="13" font-weight="bold" lengthAdjust="spacing" textLength="9" x="862.75" y="404.3057">8</text><text fill="#000000" font-family="sans-serif" font-size="13" lengthAdjust="spacing" textLength="128" x="924.75" y="396.6504">createDomainObject</text><text fill="#000000" font-family="sans-serif" font-size="13" lengthAdjust="spacing" textLength="226" x="875.75" y="411.9609">(newResourceDTO, resourceFactory)</text><polygon fill="#181818" points="1836.5,457.3242,1846.5,461.3242,1836.5,465.3242,1840.5,461.3242" style="stroke:#181818;stroke-width:1.0;"/><line style="stroke:#181818;stroke-width:1.0;" x1="1340.5" x2="1842.5" y1="461.3242" y2="461.3242"/><text fill="#000000" font-family="sans-serif" font-size="13" font-weight="bold" lengthAdjust="spacing" textLength="9" x="1459" y="448.9268">9</text><text fill="#000000" font-family="sans-serif" font-size="13" lengthAdjust="spacing" textLength="258" x="1472" y="441.2715">createResource(resourceID, roleInProject,</text><text fill="#000000" font-family="sans-serif" font-size="13" lengthAdjust="spacing" textLength="237" x="1482.5" y="456.582">percentageOfAllocation, costPerHour)</text><polygon fill="#181818" points="1917,486.6348,1927,490.6348,1917,494.6348,1921,490.6348" style="stroke:#181818;stroke-width:1.0;"/><line style="stroke:#181818;stroke-width:1.0;" x1="1858.5" x2="1923" y1="490.6348" y2="490.6348"/><text fill="#000000" font-family="sans-serif" font-size="13" font-weight="bold" lengthAdjust="spacing" textLength="18" x="1880.75" y="485.8926">10</text><text fill="#000000" font-family="sans-serif" font-size="13" lengthAdjust="spacing" textLength="4" x="1902.75" y="485.8926">&#160;</text><rect fill="#FFFFFF" height="46.9766" rx="2.5" ry="2.5" style="stroke:#181818;stroke-width:0.5;" width="109" x="1929" y="469.3242"/><text fill="#000000" font-family="sans-serif" font-size="14" lengthAdjust="spacing" textLength="95" x="1936" y="489.8594">newResource:</text><text fill="#000000" font-family="sans-serif" font-size="14" lengthAdjust="spacing" textLength="63" x="1952" y="506.3477">Resource</text><polygon fill="#181818" points="1351.5,544.6113,1341.5,548.6113,1351.5,552.6113,1347.5,548.6113" style="stroke:#181818;stroke-width:1.0;"/><line style="stroke:#181818;stroke-width:1.0;stroke-dasharray:2.0,2.0;" x1="1345.5" x2="1852.5" y1="548.6113" y2="548.6113"/><text fill="#000000" font-family="sans-serif" font-size="13" font-weight="bold" lengthAdjust="spacing" textLength="18" x="1545" y="543.8691">11</text><text fill="#000000" font-family="sans-serif" font-size="13" lengthAdjust="spacing" textLength="82" x="1567" y="543.8691">newResource</text><polygon fill="#181818" points="645,573.9219,635,577.9219,645,581.9219,641,577.9219" style="stroke:#181818;stroke-width:1.0;"/><line style="stroke:#181818;stroke-width:1.0;stroke-dasharray:2.0,2.0;" x1="639" x2="1334.5" y1="577.9219" y2="577.9219"/><text fill="#000000" font-family="sans-serif" font-size="13" font-weight="bold" lengthAdjust="spacing" textLength="18" x="932.75" y="573.1797">12</text><text fill="#000000" font-family="sans-serif" font-size="13" lengthAdjust="spacing" textLength="82" x="954.75" y="573.1797">newResource</text><line style="stroke:#181818;stroke-width:1.0;" x1="634" x2="676" y1="607.2324" y2="607.2324"/><line style="stroke:#181818;stroke-width:1.0;" x1="676" x2="676" y1="607.2324" y2="620.2324"/><line style="stroke:#181818;stroke-width:1.0;" x1="635" x2="676" y1="620.2324" y2="620.2324"/><polygon fill="#181818" points="645,616.2324,635,620.2324,645,624.2324,641,620.2324" style="stroke:#181818;stroke-width:1.0;"/><text fill="#000000" font-family="sans-serif" font-size="13" font-weight="bold" lengthAdjust="spacing" textLength="18" x="641" y="602.4902">13</text><text fill="#000000" font-family="sans-serif" font-size="13" lengthAdjust="spacing" textLength="196" x="663" y="602.4902">validateResource(newResource)</text><polygon fill="#181818" points="1167,645.543,1177,649.543,1167,653.543,1171,649.543" style="stroke:#181818;stroke-width:1.0;"/><line style="stroke:#181818;stroke-width:1.0;" x1="634" x2="1173" y1="649.543" y2="649.543"/><text fill="#000000" font-family="sans-serif" font-size="13" font-weight="bold" lengthAdjust="spacing" textLength="18" x="836.5" y="644.8008">14</text><text fill="#000000" font-family="sans-serif" font-size="13" lengthAdjust="spacing" textLength="118" x="858.5" y="644.8008">save(newResource)</text><polygon fill="#181818" points="645,674.8535,635,678.8535,645,682.8535,641,678.8535" style="stroke:#181818;stroke-width:1.0;"/><line style="stroke:#181818;stroke-width:1.0;stroke-dasharray:2.0,2.0;" x1="639" x2="1183" y1="678.8535" y2="678.8535"/><text fill="#000000" font-family="sans-serif" font-size="13" font-weight="bold" lengthAdjust="spacing" textLength="18" x="871" y="674.1113">15</text><text fill="#000000" font-family="sans-serif" font-size="13" lengthAdjust="spacing" textLength="54" x="893" y="674.1113">resource</text><polygon fill="#181818" points="1493.5,704.1641,1503.5,708.1641,1493.5,712.1641,1497.5,708.1641" style="stroke:#181818;stroke-width:1.0;"/><line style="stroke:#181818;stroke-width:1.0;" x1="634" x2="1499.5" y1="708.1641" y2="708.1641"/><text fill="#000000" font-family="sans-serif" font-size="13" font-weight="bold" lengthAdjust="spacing" textLength="18" x="936.25" y="703.4219">16</text><text fill="#000000" font-family="sans-serif" font-size="13" lengthAdjust="spacing" textLength="245" x="958.25" y="703.4219">generateOutputResourceDTO(resource)</text><polygon fill="#181818" points="1609,733.4746,1619,737.4746,1609,741.4746,1613,737.4746" style="stroke:#181818;stroke-width:1.0;"/><line style="stroke:#181818;stroke-width:1.0;" x1="1515.5" x2="1615" y1="737.4746" y2="737.4746"/><text fill="#000000" font-family="sans-serif" font-size="13" font-weight="bold" lengthAdjust="spacing" textLength="18" x="1555.25" y="732.7324">17</text><text fill="#000000" font-family="sans-serif" font-size="13" lengthAdjust="spacing" textLength="4" x="1577.25" y="732.7324">&#160;</text><rect fill="#FFFFFF" height="46.9766" rx="2.5" ry="2.5" style="stroke:#181818;stroke-width:0.5;" width="157" x="1621" y="716.1641"/><text fill="#000000" font-family="sans-serif" font-size="14" lengthAdjust="spacing" textLength="143" x="1628" y="736.6992">outputResourceDTO:</text><text fill="#000000" font-family="sans-serif" font-size="14" lengthAdjust="spacing" textLength="141" x="1629" y="753.1875">OutputResourceDTO</text><polygon fill="#181818" points="645,791.4512,635,795.4512,645,799.4512,641,795.4512" style="stroke:#181818;stroke-width:1.0;"/><line style="stroke:#181818;stroke-width:1.0;stroke-dasharray:2.0,2.0;" x1="639" x2="1509.5" y1="795.4512" y2="795.4512"/><text fill="#000000" font-family="sans-serif" font-size="13" font-weight="bold" lengthAdjust="spacing" textLength="18" x="997.75" y="790.709">18</text><text fill="#000000" font-family="sans-serif" font-size="13" lengthAdjust="spacing" textLength="127" x="1019.75" y="790.709">outputResourceDTO</text><polygon fill="#181818" points="462,820.7617,452,824.7617,462,828.7617,458,824.7617" style="stroke:#181818;stroke-width:1.0;"/><line style="stroke:#181818;stroke-width:1.0;stroke-dasharray:2.0,2.0;" x1="456" x2="628" y1="824.7617" y2="824.7617"/><text fill="#000000" font-family="sans-serif" font-size="13" font-weight="bold" lengthAdjust="spacing" textLength="18" x="465.5" y="820.0195">19</text><text fill="#000000" font-family="sans-serif" font-size="13" lengthAdjust="spacing" textLength="127" x="487.5" y="820.0195">outputResourceDTO</text><polygon fill="#181818" points="248,850.0723,238,854.0723,248,858.0723,244,854.0723" style="stroke:#181818;stroke-width:1.0;"/><line style="stroke:#181818;stroke-width:1.0;stroke-dasharray:2.0,2.0;" x1="242" x2="445" y1="854.0723" y2="854.0723"/><text fill="#000000" font-family="sans-serif" font-size="13" font-weight="bold" lengthAdjust="spacing" textLength="18" x="259" y="849.3301">20</text><text fill="#000000" font-family="sans-serif" font-size="13" lengthAdjust="spacing" textLength="143" x="281" y="849.3301">responseEntity.created</text><polygon fill="#181818" points="49,879.3828,39,883.3828,49,887.3828,45,883.3828" style="stroke:#181818;stroke-width:1.0;"/><line style="stroke:#181818;stroke-width:1.0;stroke-dasharray:2.0,2.0;" x1="43" x2="231" y1="883.3828" y2="883.3828"/><text fill="#000000" font-family="sans-serif" font-size="13" font-weight="bold" lengthAdjust="spacing" textLength="18" x="54" y="878.6406">21</text><text fill="#000000" font-family="sans-serif" font-size="13" lengthAdjust="spacing" textLength="140" x="76" y="878.6406">success/unsuccessful</text><!--SRC=[XLLDZzem4BtxLrXx0i4kItlZK2aBhPe3OiKkDox6cL0NOwV-WFBlQmS7aZYXIA3mPjwRyVZPqGSc2gB84MluOq5GM8BMP0y9Ptk1AGW32kbRblirZBA22FD6w66lf1NPN7AfyFaNCr1B9TH8rPr4h9727dTE6XbcEE3Dn-jqEdcTVd7Vh_WP9nelYN1zg35EyTcLmqRY378c01EiG4khA62Pkt-5ah-16eJAalWfC9ymqJZn4AgrZPzcSmN4mDfhKDYaPTucRIMjGucv54P9peDU3FVmFa2T68K6AM0jnlkr_JKKKZFNxQNaH6YBbL3gnjfcHMXFTorQ33TvLNn9Yg8rY2lKAhEofh2cIacqXkEkcc1FhAaW6qcBpzLiArPjh4FEeJqh_b6QexdSW3KP0ivLt1Mj7XiyX4fRuUTlpZUZqSp53jeRb9REgXaKRLAV5RkcP6LP5VYKORy7JEHoY692NIRuQ3J2iowDhHZK5k56SjSBJ2yM6Sot17-PDlhjacQHo4iuPdEPmH0fC5O9R9I5IKwuXguIaHl_LmAEXF4kyIxrfWEzz7Ny2-bKn6hNEOhnRMl2vW-H_pIrwkeXxIvV1GQLKBfmef93Ai98nrlXHFpTwQwXLPvmBYanJ8enfbARTr0_7N68WbjkhcgLh7THZQIsc2xeqPW2DCCdmbbMNqXDOVXGehcHcfnQtD2HUjHEp_7tWdiGe5nZqP6-ZVesi_ZKz-Z69NroQ3IwPL1_vBwsGWeDtuLxSLrUhkraLLHRIjtxSs95UCej_mS0]--></g></svg>