<?xml version="1.0" encoding="us-ascii" standalone="no"?><svg xmlns="http://www.w3.org/2000/svg" xmlns:xlink="http://www.w3.org/1999/xlink" contentStyleType="text/css" height="460px" preserveAspectRatio="none" style="width:765px;height:460px;background:#FFFFFF;" version="1.1" viewBox="0 0 765 460" width="765px" zoomAndPan="magnify"><defs/><g><text fill="#000000" font-family="sans-serif" font-size="14" font-weight="bold" lengthAdjust="spacing" textLength="663" x="50.25" y="28.5352">US028 - As Manager, I want to associate a user as Team Member of a project in the web UI.</text><text fill="#000000" font-family="sans-serif" font-size="14" font-weight="bold" lengthAdjust="spacing" textLength="517" x="123.25" y="45.0234">US029 - As Manager, I want to define the PO of a project in the web UI.</text><text fill="#000000" font-family="sans-serif" font-size="14" font-weight="bold" lengthAdjust="spacing" textLength="517" x="123.25" y="61.5117">US030 - As Manager, I want to define the SM of a project in the web UI.</text><rect fill="#FFFFFF" height="29.3105" style="stroke:#181818;stroke-width:1.0;" width="10" x="352" y="154.752"/><rect fill="#FFFFFF" height="161.8633" style="stroke:#181818;stroke-width:1.0;" width="10" x="352" y="228.6836"/><rect fill="#FFFFFF" height="103.2422" style="stroke:#181818;stroke-width:1.0;" width="10" x="535" y="257.9941"/><rect fill="#FFFFFF" height="29.3105" style="stroke:#181818;stroke-width:1.0;" width="10" x="695" y="287.3047"/><line style="stroke:#181818;stroke-width:0.5;stroke-dasharray:5.0,5.0;" x1="356.5" x2="356.5" y1="123.4414" y2="408.5469"/><line style="stroke:#181818;stroke-width:0.5;stroke-dasharray:5.0,5.0;" x1="539.5" x2="539.5" y1="123.4414" y2="408.5469"/><line style="stroke:#181818;stroke-width:0.5;stroke-dasharray:5.0,5.0;" x1="699.5" x2="699.5" y1="123.4414" y2="408.5469"/><rect fill="#FFFFFF" height="46.9766" rx="2.5" ry="2.5" style="stroke:#181818;stroke-width:0.5;" width="119" x="297.5" y="75.4648"/><text fill="#000000" font-family="sans-serif" font-size="14" lengthAdjust="spacing" textLength="105" x="304.5" y="96">&#171;container(c4)&#187;</text><text fill="#000000" font-family="sans-serif" font-size="14" lengthAdjust="spacing" textLength="75" x="319.5" y="112.4883">:Front-end</text><rect fill="#FFFFFF" height="46.9766" rx="2.5" ry="2.5" style="stroke:#181818;stroke-width:0.5;" width="119" x="297.5" y="407.5469"/><text fill="#000000" font-family="sans-serif" font-size="14" lengthAdjust="spacing" textLength="105" x="304.5" y="428.082">&#171;container(c4)&#187;</text><text fill="#000000" font-family="sans-serif" font-size="14" lengthAdjust="spacing" textLength="75" x="319.5" y="444.5703">:Front-end</text><rect fill="#FFFFFF" height="46.9766" rx="2.5" ry="2.5" style="stroke:#181818;stroke-width:0.5;" width="119" x="480.5" y="75.4648"/><text fill="#000000" font-family="sans-serif" font-size="14" lengthAdjust="spacing" textLength="105" x="487.5" y="96">&#171;container(c4)&#187;</text><text fill="#000000" font-family="sans-serif" font-size="14" lengthAdjust="spacing" textLength="69" x="505.5" y="112.4883">:Back-end</text><rect fill="#FFFFFF" height="46.9766" rx="2.5" ry="2.5" style="stroke:#181818;stroke-width:0.5;" width="119" x="480.5" y="407.5469"/><text fill="#000000" font-family="sans-serif" font-size="14" lengthAdjust="spacing" textLength="105" x="487.5" y="428.082">&#171;container(c4)&#187;</text><text fill="#000000" font-family="sans-serif" font-size="14" lengthAdjust="spacing" textLength="69" x="505.5" y="444.5703">:Back-end</text><rect fill="#FFFFFF" height="46.9766" rx="2.5" ry="2.5" style="stroke:#181818;stroke-width:0.5;" width="119" x="640.5" y="75.4648"/><text fill="#000000" font-family="sans-serif" font-size="14" lengthAdjust="spacing" textLength="105" x="647.5" y="96">&#171;container(c4)&#187;</text><text fill="#000000" font-family="sans-serif" font-size="14" lengthAdjust="spacing" textLength="63" x="668.5" y="112.4883">Database</text><rect fill="#FFFFFF" height="46.9766" rx="2.5" ry="2.5" style="stroke:#181818;stroke-width:0.5;" width="119" x="640.5" y="407.5469"/><text fill="#000000" font-family="sans-serif" font-size="14" lengthAdjust="spacing" textLength="105" x="647.5" y="428.082">&#171;container(c4)&#187;</text><text fill="#000000" font-family="sans-serif" font-size="14" lengthAdjust="spacing" textLength="63" x="668.5" y="444.5703">Database</text><rect fill="#FFFFFF" height="29.3105" style="stroke:#181818;stroke-width:1.0;" width="10" x="352" y="154.752"/><rect fill="#FFFFFF" height="161.8633" style="stroke:#181818;stroke-width:1.0;" width="10" x="352" y="228.6836"/><rect fill="#FFFFFF" height="103.2422" style="stroke:#181818;stroke-width:1.0;" width="10" x="535" y="257.9941"/><rect fill="#FFFFFF" height="29.3105" style="stroke:#181818;stroke-width:1.0;" width="10" x="695" y="287.3047"/><ellipse cx="7.5" cy="154.002" fill="none" rx="4" ry="4" style="stroke:#181818;stroke-width:1.5;"/><polygon fill="#181818" points="340,150.752,350,154.752,340,158.752,344,154.752" style="stroke:#181818;stroke-width:1.0;"/><line style="stroke:#181818;stroke-width:1.0;" x1="12" x2="346" y1="154.752" y2="154.752"/><text fill="#000000" font-family="sans-serif" font-size="13" font-weight="bold" lengthAdjust="spacing" textLength="9" x="73.5" y="150.0098">1</text><text fill="#000000" font-family="sans-serif" font-size="13" lengthAdjust="spacing" textLength="200" x="86.5" y="150.0098">ask to add resource to a project</text><ellipse cx="7.5" cy="183.3125" fill="none" rx="4" ry="4" style="stroke:#181818;stroke-width:1.5;"/><polygon fill="#181818" points="24.5,180.0625,14.5,184.0625,24.5,188.0625,20.5,184.0625" style="stroke:#181818;stroke-width:1.0;"/><line style="stroke:#181818;stroke-width:1.0;" x1="22.5" x2="356" y1="184.0625" y2="184.0625"/><text fill="#000000" font-family="sans-serif" font-size="13" font-weight="bold" lengthAdjust="spacing" textLength="9" x="169.5" y="179.3203">2</text><text fill="#000000" font-family="sans-serif" font-size="13" lengthAdjust="spacing" textLength="13" x="182.5" y="179.3203">UI</text><ellipse cx="7.5" cy="227.9336" fill="none" rx="4" ry="4" style="stroke:#181818;stroke-width:1.5;"/><polygon fill="#181818" points="340,224.6836,350,228.6836,340,232.6836,344,228.6836" style="stroke:#181818;stroke-width:1.0;"/><line style="stroke:#181818;stroke-width:1.0;" x1="12" x2="346" y1="228.6836" y2="228.6836"/><text fill="#000000" font-family="sans-serif" font-size="13" font-weight="bold" lengthAdjust="spacing" textLength="9" x="17.5" y="216.2861">3</text><text fill="#000000" font-family="sans-serif" font-size="13" lengthAdjust="spacing" textLength="248" x="60.5" y="208.6309">email, projectCode, startDate, endDate,</text><text fill="#000000" font-family="sans-serif" font-size="13" lengthAdjust="spacing" textLength="312" x="30.5" y="223.9414">projectRole, percentageOfAllocation, costPerHour</text><polygon fill="#181818" points="523,253.9941,533,257.9941,523,261.9941,527,257.9941" style="stroke:#181818;stroke-width:1.0;"/><line style="stroke:#181818;stroke-width:1.0;" x1="362" x2="529" y1="257.9941" y2="257.9941"/><text fill="#000000" font-family="sans-serif" font-size="13" font-weight="bold" lengthAdjust="spacing" textLength="9" x="371.5" y="253.252">4</text><text fill="#000000" font-family="sans-serif" font-size="13" lengthAdjust="spacing" textLength="141" x="384.5" y="253.252">POST /resources (info)</text><polygon fill="#181818" points="683,283.3047,693,287.3047,683,291.3047,687,287.3047" style="stroke:#181818;stroke-width:1.0;"/><line style="stroke:#181818;stroke-width:1.0;" x1="545" x2="689" y1="287.3047" y2="287.3047"/><text fill="#000000" font-family="sans-serif" font-size="13" font-weight="bold" lengthAdjust="spacing" textLength="9" x="554.5" y="282.5625">5</text><text fill="#000000" font-family="sans-serif" font-size="13" lengthAdjust="spacing" textLength="118" x="567.5" y="282.5625">save(newResource)</text><polygon fill="#181818" points="556,312.6152,546,316.6152,556,320.6152,552,316.6152" style="stroke:#181818;stroke-width:1.0;"/><line style="stroke:#181818;stroke-width:1.0;stroke-dasharray:2.0,2.0;" x1="550" x2="699" y1="316.6152" y2="316.6152"/><text fill="#000000" font-family="sans-serif" font-size="13" font-weight="bold" lengthAdjust="spacing" textLength="9" x="575" y="311.873">6</text><text fill="#000000" font-family="sans-serif" font-size="13" lengthAdjust="spacing" textLength="82" x="588" y="311.873">newResource</text><polygon fill="#181818" points="373,357.2363,363,361.2363,373,365.2363,369,361.2363" style="stroke:#181818;stroke-width:1.0;"/><line style="stroke:#181818;stroke-width:1.0;stroke-dasharray:2.0,2.0;" x1="367" x2="539" y1="361.2363" y2="361.2363"/><text fill="#000000" font-family="sans-serif" font-size="13" font-weight="bold" lengthAdjust="spacing" textLength="9" x="387.5" y="348.8389">7</text><text fill="#000000" font-family="sans-serif" font-size="13" lengthAdjust="spacing" textLength="28" x="441.5" y="341.1836">201,</text><text fill="#000000" font-family="sans-serif" font-size="13" lengthAdjust="spacing" textLength="110" x="404.5" y="356.4941">newResourceDTO</text><ellipse cx="7.5" cy="389.7969" fill="none" rx="4" ry="4" style="stroke:#181818;stroke-width:1.5;"/><polygon fill="#181818" points="24.5,386.5469,14.5,390.5469,24.5,394.5469,20.5,390.5469" style="stroke:#181818;stroke-width:1.0;"/><line style="stroke:#181818;stroke-width:1.0;stroke-dasharray:2.0,2.0;" x1="22.5" x2="356" y1="390.5469" y2="390.5469"/><text fill="#000000" font-family="sans-serif" font-size="13" font-weight="bold" lengthAdjust="spacing" textLength="9" x="102" y="385.8047">8</text><text fill="#000000" font-family="sans-serif" font-size="13" lengthAdjust="spacing" textLength="148" x="115" y="385.8047">success / unsuccessful</text><!--SRC=[bP91Rnen48Nl_XMZd41X6vhsaAuG4atK9WS40d8gbrbxbhWiuwtj3N-_umqa6waDoGNPizzxymPFjB4Yk5yEBwyWWqc0AJ9ko0_W3lR84Q833C5fYv40eGdafG0hmXrCQLV8rPNoeVRkD-a8bY4-4EofWFkxJsjErj_-Qssej4ojOZuxQVHb-1wZvVGj8wMmYOwRb5o5hUKQlOmIw4z3h6bA8OZtfB8R1aqSNr6ee_FVKMyttZLihbtbFEmVRAGE9B_HQbjBibFeiUk2IlBfy671BQ4X_rxPJs7gVyDATNB3sMYa7KUK_zJtzDV-UBpc_8UNKaPipj86b7HQaLez2uhJWXkCM62WbZU5KhzSDfPEv-UGIsdRRgCnu2cuncjgxyU75dYK2PpBCoj3ybRsKPRsnIC7sg6j1aV1jJCqW10bb3IMeoHzEgpvW2nS9TUQV5e5sOjPEQagfp5QnmFGBiGv-Ll9eae2QLCyHPtFbYkuEAOCqBDSkhugMiOKAKh0H-enxHS7gAzC0LbhaKEdtfqawTjPShWSVaunk-JDQlPwx56M9JGqMZ84k8263-UogRheNm00]--></g></svg>