<?xml version="1.0" encoding="us-ascii" standalone="no"?><svg xmlns="http://www.w3.org/2000/svg" xmlns:xlink="http://www.w3.org/1999/xlink" contentStyleType="text/css" height="693px" preserveAspectRatio="none" style="width:1873px;height:693px;background:#FFFFFF;" version="1.1" viewBox="0 0 1873 693" width="1873px" zoomAndPan="magnify"><defs/><g><!--class CreateProjectTypologyController--><g id="elem_CreateProjectTypologyController"><rect codeLine="2" fill="#F1F1F1" height="96.8906" id="CreateProjectTypologyController" rx="2.5" ry="2.5" style="stroke:#181818;stroke-width:0.5;" width="592" x="1274.5" y="52"/><ellipse cx="1454.75" cy="68" fill="#ADD1B2" rx="11" ry="11" style="stroke:#181818;stroke-width:1.0;"/><path d="M1457.7188,73.6406 Q1457.1406,73.9375 1456.5,74.0781 Q1455.8594,74.2344 1455.1563,74.2344 Q1452.6563,74.2344 1451.3281,72.5938 Q1450.0156,70.9375 1450.0156,67.8125 Q1450.0156,64.6875 1451.3281,63.0313 Q1452.6563,61.375 1455.1563,61.375 Q1455.8594,61.375 1456.5,61.5313 Q1457.1563,61.6875 1457.7188,61.9844 L1457.7188,64.7031 Q1457.0938,64.125 1456.5,63.8594 Q1455.9063,63.5781 1455.2813,63.5781 Q1453.9375,63.5781 1453.25,64.6563 Q1452.5625,65.7188 1452.5625,67.8125 Q1452.5625,69.9063 1453.25,70.9844 Q1453.9375,72.0469 1455.2813,72.0469 Q1455.9063,72.0469 1456.5,71.7813 Q1457.0938,71.5 1457.7188,70.9219 L1457.7188,73.6406 Z " fill="#000000"/><text fill="#000000" font-family="sans-serif" font-size="14" lengthAdjust="spacing" textLength="223" x="1475.25" y="72.8467">CreateProjectTypologyController</text><line style="stroke:#181818;stroke-width:0.5;" x1="1275.5" x2="1865.5" y1="84" y2="84"/><rect fill="none" height="6" style="stroke:#C82930;stroke-width:1.0;" width="6" x="1282.5" y="94.6484"/><text fill="#000000" font-family="sans-serif" font-size="14" lengthAdjust="spacing" textLength="333" x="1294.5" y="100.9951">projectTypologyService : ProjectTypologyService</text><line style="stroke:#181818;stroke-width:0.5;" x1="1275.5" x2="1865.5" y1="108.2969" y2="108.2969"/><ellipse cx="1285.5" cy="121.9453" fill="#84BE84" rx="3" ry="3" style="stroke:#038048;stroke-width:1.0;"/><text fill="#000000" font-family="sans-serif" font-size="14" lengthAdjust="spacing" textLength="566" x="1294.5" y="125.292">CreateProjectTypologyController(projectTypologyService : ProjectTypologyService)</text><ellipse cx="1285.5" cy="138.2422" fill="#84BE84" rx="3" ry="3" style="stroke:#038048;stroke-width:1.0;"/><text fill="#000000" font-family="sans-serif" font-size="14" lengthAdjust="spacing" textLength="325" x="1294.5" y="141.5889">createProjectTypology(name : String) : boolean</text></g><!--class ProjectTypologyService--><g id="elem_ProjectTypologyService"><rect codeLine="2" fill="#F1F1F1" height="145.7813" id="ProjectTypologyService" rx="2.5" ry="2.5" style="stroke:#181818;stroke-width:0.5;" width="470" x="1252.5" y="283"/><ellipse cx="1403.25" cy="299" fill="#ADD1B2" rx="11" ry="11" style="stroke:#181818;stroke-width:1.0;"/><path d="M1406.2188,304.6406 Q1405.6406,304.9375 1405,305.0781 Q1404.3594,305.2344 1403.6563,305.2344 Q1401.1563,305.2344 1399.8281,303.5938 Q1398.5156,301.9375 1398.5156,298.8125 Q1398.5156,295.6875 1399.8281,294.0313 Q1401.1563,292.375 1403.6563,292.375 Q1404.3594,292.375 1405,292.5313 Q1405.6563,292.6875 1406.2188,292.9844 L1406.2188,295.7031 Q1405.5938,295.125 1405,294.8594 Q1404.4063,294.5781 1403.7813,294.5781 Q1402.4375,294.5781 1401.75,295.6563 Q1401.0625,296.7188 1401.0625,298.8125 Q1401.0625,300.9063 1401.75,301.9844 Q1402.4375,303.0469 1403.7813,303.0469 Q1404.4063,303.0469 1405,302.7813 Q1405.5938,302.5 1406.2188,301.9219 L1406.2188,304.6406 Z " fill="#000000"/><text fill="#000000" font-family="sans-serif" font-size="14" lengthAdjust="spacing" textLength="160" x="1423.75" y="303.8467">ProjectTypologyService</text><line style="stroke:#181818;stroke-width:0.5;" x1="1253.5" x2="1721.5" y1="315" y2="315"/><rect fill="none" height="6" style="stroke:#C82930;stroke-width:1.0;" width="6" x="1260.5" y="325.6484"/><text fill="#000000" font-family="sans-serif" font-size="14" lengthAdjust="spacing" textLength="271" x="1272.5" y="331.9951">projectTypologyRepository : Repository</text><rect fill="none" height="6" style="stroke:#C82930;stroke-width:1.0;" width="6" x="1260.5" y="341.9453"/><text fill="#000000" font-family="sans-serif" font-size="14" lengthAdjust="spacing" textLength="333" x="1272.5" y="348.292">projectTypologyFactory : ProjectTypologyFactory</text><line style="stroke:#181818;stroke-width:0.5;" x1="1253.5" x2="1721.5" y1="355.5938" y2="355.5938"/><ellipse cx="1263.5" cy="377.3906" fill="#84BE84" rx="3" ry="3" style="stroke:#038048;stroke-width:1.0;"/><text fill="#000000" font-family="sans-serif" font-size="14" lengthAdjust="spacing" textLength="440" x="1272.5" y="372.5889">ProjectTypologyService(projectTypologyRepository : Repository,</text><text fill="#000000" font-family="sans-serif" font-size="14" lengthAdjust="spacing" textLength="338" x="1272.5" y="388.8857">projectTypologyFactory : ProjectTypologyFactory)</text><rect fill="#F24D5C" height="6" style="stroke:#C82930;stroke-width:1.0;" width="6" x="1260.5" y="398.8359"/><text fill="#000000" font-family="sans-serif" font-size="14" lengthAdjust="spacing" textLength="211" x="1272.5" y="405.1826">createInitialProjectTypologies()</text><ellipse cx="1263.5" cy="418.1328" fill="#84BE84" rx="3" ry="3" style="stroke:#038048;stroke-width:1.0;"/><text fill="#000000" font-family="sans-serif" font-size="14" lengthAdjust="spacing" textLength="434" x="1272.5" y="421.4795">createProjectTypology(projectTypologyValue : String) : boolean</text></g><!--class ProjectTypology--><g id="elem_ProjectTypology"><rect codeLine="2" fill="#F1F1F1" height="170.3438" id="ProjectTypology" rx="2.5" ry="2.5" style="stroke:#181818;stroke-width:0.5;" width="459" x="395" y="271"/><ellipse cx="565.25" cy="291.1328" fill="#ADD1B2" rx="11" ry="11" style="stroke:#181818;stroke-width:1.0;"/><path d="M568.2188,296.7734 Q567.6406,297.0703 567,297.2109 Q566.3594,297.3672 565.6563,297.3672 Q563.1563,297.3672 561.8281,295.7266 Q560.5156,294.0703 560.5156,290.9453 Q560.5156,287.8203 561.8281,286.1641 Q563.1563,284.5078 565.6563,284.5078 Q566.3594,284.5078 567,284.6641 Q567.6563,284.8203 568.2188,285.1172 L568.2188,287.8359 Q567.5938,287.2578 567,286.9922 Q566.4063,286.7109 565.7813,286.7109 Q564.4375,286.7109 563.75,287.7891 Q563.0625,288.8516 563.0625,290.9453 Q563.0625,293.0391 563.75,294.1172 Q564.4375,295.1797 565.7813,295.1797 Q566.4063,295.1797 567,294.9141 Q567.5938,294.6328 568.2188,294.0547 L568.2188,296.7734 Z " fill="#000000"/><text fill="#000000" font-family="sans-serif" font-size="12" font-style="italic" lengthAdjust="spacing" textLength="109" x="586.25" y="287.1387">&#171;AggregateRoot&#187;</text><text fill="#000000" font-family="sans-serif" font-size="14" lengthAdjust="spacing" textLength="110" x="585.75" y="302.9639">ProjectTypology</text><line style="stroke:#181818;stroke-width:0.5;" x1="396" x2="853" y1="311.2656" y2="311.2656"/><rect fill="none" height="6" style="stroke:#C82930;stroke-width:1.0;" width="6" x="403" y="321.9141"/><text fill="#000000" font-family="sans-serif" font-size="14" lengthAdjust="spacing" textLength="313" x="415" y="328.2607">projectTypologyName : ProjectTypologyName</text><line style="stroke:#181818;stroke-width:0.5;" x1="396" x2="853" y1="335.5625" y2="335.5625"/><ellipse cx="406" cy="349.2109" fill="#84BE84" rx="3" ry="3" style="stroke:#038048;stroke-width:1.0;"/><text fill="#000000" font-family="sans-serif" font-size="14" lengthAdjust="spacing" textLength="433" x="415" y="352.5576">ProjectTypology(projectTypologyName : ProjectTypologyName)</text><ellipse cx="406" cy="365.5078" fill="#84BE84" rx="3" ry="3" style="stroke:#038048;stroke-width:1.0;"/><text fill="#000000" font-family="sans-serif" font-size="14" lengthAdjust="spacing" textLength="236" x="415" y="368.8545">getProjectTypologyName() : String</text><ellipse cx="406" cy="381.8047" fill="#84BE84" rx="3" ry="3" style="stroke:#038048;stroke-width:1.0;"/><text fill="#000000" font-family="sans-serif" font-size="14" lengthAdjust="spacing" textLength="223" x="415" y="385.1514">identity() : ProjectTypologyName</text><ellipse cx="406" cy="398.1016" fill="#84BE84" rx="3" ry="3" style="stroke:#038048;stroke-width:1.0;"/><text fill="#000000" font-family="sans-serif" font-size="14" lengthAdjust="spacing" textLength="235" x="415" y="401.4482">sameAs(object : Object) : boolean</text><ellipse cx="406" cy="414.3984" fill="#84BE84" rx="3" ry="3" style="stroke:#038048;stroke-width:1.0;"/><text fill="#000000" font-family="sans-serif" font-size="14" lengthAdjust="spacing" textLength="192" x="415" y="417.7451">equals(o : Object) : boolean</text><ellipse cx="406" cy="430.6953" fill="#84BE84" rx="3" ry="3" style="stroke:#038048;stroke-width:1.0;"/><text fill="#000000" font-family="sans-serif" font-size="14" lengthAdjust="spacing" textLength="111" x="415" y="434.042">hashCode() : int</text></g><!--class ProjectTypologyName--><g id="elem_ProjectTypologyName"><rect codeLine="2" fill="#F1F1F1" height="168.0156" id="ProjectTypologyName" rx="2.5" ry="2.5" style="stroke:#181818;stroke-width:0.5;" width="460" x="394.5" y="518"/><ellipse cx="545.25" cy="545.1172" fill="#ADD1B2" rx="11" ry="11" style="stroke:#181818;stroke-width:1.0;"/><path d="M548.2188,550.7578 Q547.6406,551.0547 547,551.1953 Q546.3594,551.3516 545.6563,551.3516 Q543.1563,551.3516 541.8281,549.7109 Q540.5156,548.0547 540.5156,544.9297 Q540.5156,541.8047 541.8281,540.1484 Q543.1563,538.4922 545.6563,538.4922 Q546.3594,538.4922 547,538.6484 Q547.6563,538.8047 548.2188,539.1016 L548.2188,541.8203 Q547.5938,541.2422 547,540.9766 Q546.4063,540.6953 545.7813,540.6953 Q544.4375,540.6953 543.75,541.7734 Q543.0625,542.8359 543.0625,544.9297 Q543.0625,547.0234 543.75,548.1016 Q544.4375,549.1641 545.7813,549.1641 Q546.4063,549.1641 547,548.8984 Q547.5938,548.6172 548.2188,548.0391 L548.2188,550.7578 Z " fill="#000000"/><text fill="#000000" font-family="sans-serif" font-size="12" font-style="italic" lengthAdjust="spacing" textLength="74" x="603.75" y="534.1387">&#171;DomainID&#187;</text><text fill="#000000" font-family="sans-serif" font-size="12" font-style="italic" lengthAdjust="spacing" textLength="92" x="594.75" y="548.1074">&#171;Value Object&#187;</text><text fill="#000000" font-family="sans-serif" font-size="14" lengthAdjust="spacing" textLength="150" x="565.75" y="563.9326">ProjectTypologyName</text><line style="stroke:#181818;stroke-width:0.5;" x1="395.5" x2="853.5" y1="572.2344" y2="572.2344"/><rect fill="none" height="6" style="stroke:#C82930;stroke-width:1.0;" width="6" x="402.5" y="582.8828"/><text fill="#000000" font-family="sans-serif" font-size="14" lengthAdjust="spacing" textLength="434" x="414.5" y="589.2295">projectTypologyNameValue : ProjectTypologyName {readOnly}</text><line style="stroke:#181818;stroke-width:0.5;" x1="395.5" x2="853.5" y1="596.5313" y2="596.5313"/><ellipse cx="405.5" cy="610.1797" fill="#84BE84" rx="3" ry="3" style="stroke:#038048;stroke-width:1.0;"/><text fill="#000000" font-family="sans-serif" font-size="14" lengthAdjust="spacing" textLength="401" x="414.5" y="613.5264">ProjectTypologyName(projectTypologyNameValue : String)</text><rect fill="#F24D5C" height="6" style="stroke:#C82930;stroke-width:1.0;" width="6" x="402.5" y="623.4766"/><text fill="#000000" font-family="sans-serif" font-size="14" lengthAdjust="spacing" text-decoration="underline" textLength="341" x="414.5" y="629.8232">validateValue(projectTypologyNameValue : String)</text><ellipse cx="405.5" cy="642.7734" fill="#84BE84" rx="3" ry="3" style="stroke:#038048;stroke-width:1.0;"/><text fill="#000000" font-family="sans-serif" font-size="14" lengthAdjust="spacing" textLength="274" x="414.5" y="646.1201">getProjectTypologyNameValue() : String</text><ellipse cx="405.5" cy="659.0703" fill="#84BE84" rx="3" ry="3" style="stroke:#038048;stroke-width:1.0;"/><text fill="#000000" font-family="sans-serif" font-size="14" lengthAdjust="spacing" textLength="226" x="414.5" y="662.417">equals(object : Object) : boolean</text><ellipse cx="405.5" cy="675.3672" fill="#84BE84" rx="3" ry="3" style="stroke:#038048;stroke-width:1.0;"/><text fill="#000000" font-family="sans-serif" font-size="14" lengthAdjust="spacing" textLength="111" x="414.5" y="678.7139">hashCode() : int</text></g><!--class ProjectTypologyRepository--><g id="elem_ProjectTypologyRepository"><rect codeLine="2" fill="#F1F1F1" height="186.6406" id="ProjectTypologyRepository" rx="2.5" ry="2.5" style="stroke:#181818;stroke-width:0.5;" width="571" x="7" y="7"/><ellipse cx="196.25" cy="27.1328" fill="#ADD1B2" rx="11" ry="11" style="stroke:#181818;stroke-width:1.0;"/><path d="M199.2188,32.7734 Q198.6406,33.0703 198,33.2109 Q197.3594,33.3672 196.6563,33.3672 Q194.1563,33.3672 192.8281,31.7266 Q191.5156,30.0703 191.5156,26.9453 Q191.5156,23.8203 192.8281,22.1641 Q194.1563,20.5078 196.6563,20.5078 Q197.3594,20.5078 198,20.6641 Q198.6563,20.8203 199.2188,21.1172 L199.2188,23.8359 Q198.5938,23.2578 198,22.9922 Q197.4063,22.7109 196.7813,22.7109 Q195.4375,22.7109 194.75,23.7891 Q194.0625,24.8516 194.0625,26.9453 Q194.0625,29.0391 194.75,30.1172 Q195.4375,31.1797 196.7813,31.1797 Q197.4063,31.1797 198,30.9141 Q198.5938,30.6328 199.2188,30.0547 L199.2188,32.7734 Z " fill="#000000"/><text fill="#000000" font-family="sans-serif" font-size="12" font-style="italic" lengthAdjust="spacing" textLength="80" x="268.75" y="23.1387">&#171;Repository&#187;</text><text fill="#000000" font-family="sans-serif" font-size="14" lengthAdjust="spacing" textLength="184" x="216.75" y="38.9639">ProjectTypologyRepository</text><line style="stroke:#181818;stroke-width:0.5;" x1="8" x2="577" y1="47.2656" y2="47.2656"/><rect fill="none" height="6" style="stroke:#C82930;stroke-width:1.0;" width="6" x="15" y="57.9141"/><text fill="#000000" font-family="sans-serif" font-size="14" lengthAdjust="spacing" textLength="294" x="27" y="64.2607">projectTypologyList : ProjectTypology [0..*]</text><line style="stroke:#181818;stroke-width:0.5;" x1="8" x2="577" y1="71.5625" y2="71.5625"/><ellipse cx="18" cy="85.2109" fill="#84BE84" rx="3" ry="3" style="stroke:#038048;stroke-width:1.0;"/><text fill="#000000" font-family="sans-serif" font-size="14" lengthAdjust="spacing" textLength="344" x="27" y="88.5576">save(projectTypology : ProjectTypology) : boolean</text><ellipse cx="18" cy="101.5078" fill="#84BE84" rx="3" ry="3" style="stroke:#038048;stroke-width:1.0;"/><text fill="#000000" font-family="sans-serif" font-size="14" lengthAdjust="spacing" textLength="114" x="27" y="104.8545">findAll() : Iterable</text><ellipse cx="18" cy="117.8047" fill="#84BE84" rx="3" ry="3" style="stroke:#038048;stroke-width:1.0;"/><text fill="#000000" font-family="sans-serif" font-size="14" lengthAdjust="spacing" textLength="364" x="27" y="121.1514">findByID(id : ProjectTypologyName) : ProjectTypology</text><ellipse cx="18" cy="134.1016" fill="#84BE84" rx="3" ry="3" style="stroke:#038048;stroke-width:1.0;"/><text fill="#000000" font-family="sans-serif" font-size="14" lengthAdjust="spacing" textLength="325" x="27" y="137.4482">existsByID(id : ProjectTypologyName) : boolean</text><ellipse cx="18" cy="150.3984" fill="#84BE84" rx="3" ry="3" style="stroke:#038048;stroke-width:1.0;"/><text fill="#000000" font-family="sans-serif" font-size="14" lengthAdjust="spacing" textLength="545" x="27" y="153.7451">findByCriteria(criteria : Predicate) {exception UnsupportedOperationException}</text><ellipse cx="18" cy="166.6953" fill="#84BE84" rx="3" ry="3" style="stroke:#038048;stroke-width:1.0;"/><text fill="#000000" font-family="sans-serif" font-size="14" lengthAdjust="spacing" textLength="69" x="27" y="170.042">deleteAll()</text><ellipse cx="18" cy="182.9922" fill="#84BE84" rx="3" ry="3" style="stroke:#038048;stroke-width:1.0;"/><text fill="#000000" font-family="sans-serif" font-size="14" lengthAdjust="spacing" textLength="478" x="27" y="186.3389">findAllByID(idList : ProjectTypologyName [0..*]) : ProjectTypology [0..*]</text></g><!--class ProjectTypologyFactory--><g id="elem_ProjectTypologyFactory"><rect codeLine="2" fill="#F1F1F1" height="64.2969" id="ProjectTypologyFactory" rx="2.5" ry="2.5" style="stroke:#181818;stroke-width:0.5;" width="503" x="890" y="570"/><ellipse cx="1056.25" cy="586" fill="#B4A7E5" rx="11" ry="11" style="stroke:#181818;stroke-width:1.0;"/><path d="M1052.1719,581.7656 L1052.1719,579.6094 L1059.5625,579.6094 L1059.5625,581.7656 L1057.0938,581.7656 L1057.0938,589.8438 L1059.5625,589.8438 L1059.5625,592 L1052.1719,592 L1052.1719,589.8438 L1054.6406,589.8438 L1054.6406,581.7656 L1052.1719,581.7656 Z " fill="#000000"/><text fill="#000000" font-family="sans-serif" font-size="14" font-style="italic" lengthAdjust="spacing" textLength="162" x="1076.75" y="590.8467">ProjectTypologyFactory</text><line style="stroke:#181818;stroke-width:0.5;" x1="891" x2="1392" y1="602" y2="602"/><line style="stroke:#181818;stroke-width:0.5;" x1="891" x2="1392" y1="610" y2="610"/><ellipse cx="901" cy="623.6484" fill="#84BE84" rx="3" ry="3" style="stroke:#038048;stroke-width:1.0;"/><text fill="#000000" font-family="sans-serif" font-size="14" lengthAdjust="spacing" textLength="477" x="910" y="626.9951">createProjectTypology(projectTypologyName : ProjectTypologyName)</text></g><!--class Repository--><g id="elem_Repository"><rect codeLine="4" fill="#F1F1F1" height="154.0469" id="Repository" rx="2.5" ry="2.5" style="stroke:#181818;stroke-width:0.5;" width="232" x="1428.5" y="525"/><ellipse cx="1502.25" cy="545.1328" fill="#B4A7E5" rx="11" ry="11" style="stroke:#181818;stroke-width:1.0;"/><path d="M1498.1719,540.8984 L1498.1719,538.7422 L1505.5625,538.7422 L1505.5625,540.8984 L1503.0938,540.8984 L1503.0938,548.9766 L1505.5625,548.9766 L1505.5625,551.1328 L1498.1719,551.1328 L1498.1719,548.9766 L1500.6406,548.9766 L1500.6406,540.8984 L1498.1719,540.8984 Z " fill="#000000"/><text fill="#000000" font-family="sans-serif" font-size="12" font-style="italic" lengthAdjust="spacing" textLength="80" x="1520.75" y="541.1387">&#171;Repository&#187;</text><text fill="#000000" font-family="sans-serif" font-size="14" font-style="italic" lengthAdjust="spacing" textLength="74" x="1523.75" y="556.9639">Repository</text><line style="stroke:#181818;stroke-width:0.5;" x1="1429.5" x2="1659.5" y1="565.2656" y2="565.2656"/><line style="stroke:#181818;stroke-width:0.5;" x1="1429.5" x2="1659.5" y1="573.2656" y2="573.2656"/><ellipse cx="1439.5" cy="586.9141" fill="#84BE84" rx="3" ry="3" style="stroke:#038048;stroke-width:1.0;"/><text fill="#000000" font-family="sans-serif" font-size="14" lengthAdjust="spacing" textLength="124" x="1448.5" y="590.2607">save(entity : T) : T</text><ellipse cx="1439.5" cy="603.2109" fill="#84BE84" rx="3" ry="3" style="stroke:#038048;stroke-width:1.0;"/><text fill="#000000" font-family="sans-serif" font-size="14" lengthAdjust="spacing" textLength="147" x="1448.5" y="606.5576">findAll() : Iterable&lt;T&gt;</text><ellipse cx="1439.5" cy="619.5078" fill="#84BE84" rx="3" ry="3" style="stroke:#038048;stroke-width:1.0;"/><text fill="#000000" font-family="sans-serif" font-size="14" lengthAdjust="spacing" textLength="206" x="1448.5" y="622.8545">findById(id : ID) : Optional&lt;T&gt;</text><ellipse cx="1439.5" cy="635.8047" fill="#84BE84" rx="3" ry="3" style="stroke:#038048;stroke-width:1.0;"/><text fill="#000000" font-family="sans-serif" font-size="14" lengthAdjust="spacing" textLength="187" x="1448.5" y="639.1514">existsById(id : ID) : boolean</text><ellipse cx="1439.5" cy="652.1016" fill="#84BE84" rx="3" ry="3" style="stroke:#038048;stroke-width:1.0;"/><text fill="#000000" font-family="sans-serif" font-size="14" lengthAdjust="spacing" textLength="69" x="1448.5" y="655.4482">deleteAll()</text><ellipse cx="1439.5" cy="668.3984" fill="#84BE84" rx="3" ry="3" style="stroke:#038048;stroke-width:1.0;"/><text fill="#000000" font-family="sans-serif" font-size="14" lengthAdjust="spacing" textLength="126" x="1448.5" y="671.7451">deleteById (id : ID)</text></g><!--class ProjectTypologyFactoryImplementation--><g id="elem_ProjectTypologyFactoryImplementation"><rect codeLine="2" fill="#F1F1F1" height="64.2969" id="ProjectTypologyFactoryImplementation" rx="2.5" ry="2.5" style="stroke:#181818;stroke-width:0.5;" width="626" x="613.5" y="68.5"/><ellipse cx="788.75" cy="84.5" fill="#ADD1B2" rx="11" ry="11" style="stroke:#181818;stroke-width:1.0;"/><path d="M791.7188,90.1406 Q791.1406,90.4375 790.5,90.5781 Q789.8594,90.7344 789.1563,90.7344 Q786.6563,90.7344 785.3281,89.0938 Q784.0156,87.4375 784.0156,84.3125 Q784.0156,81.1875 785.3281,79.5313 Q786.6563,77.875 789.1563,77.875 Q789.8594,77.875 790.5,78.0313 Q791.1563,78.1875 791.7188,78.4844 L791.7188,81.2031 Q791.0938,80.625 790.5,80.3594 Q789.9063,80.0781 789.2813,80.0781 Q787.9375,80.0781 787.25,81.1563 Q786.5625,82.2188 786.5625,84.3125 Q786.5625,86.4063 787.25,87.4844 Q787.9375,88.5469 789.2813,88.5469 Q789.9063,88.5469 790.5,88.2813 Q791.0938,88 791.7188,87.4219 L791.7188,90.1406 Z " fill="#000000"/><text fill="#000000" font-family="sans-serif" font-size="14" lengthAdjust="spacing" textLength="267" x="809.25" y="89.3467">ProjectTypologyFactoryImplementation</text><line style="stroke:#181818;stroke-width:0.5;" x1="614.5" x2="1238.5" y1="100.5" y2="100.5"/><line style="stroke:#181818;stroke-width:0.5;" x1="614.5" x2="1238.5" y1="108.5" y2="108.5"/><ellipse cx="624.5" cy="122.1484" fill="#84BE84" rx="3" ry="3" style="stroke:#038048;stroke-width:1.0;"/><text fill="#000000" font-family="sans-serif" font-size="14" lengthAdjust="spacing" textLength="600" x="633.5" y="125.4951">createProjectTypology(projectTypologyName : ProjectTypologyName) : ProjectTypology</text></g><!--link CreateProjectTypologyController to ProjectTypologyService--><g id="link_CreateProjectTypologyController_ProjectTypologyService"><path codeLine="13" d="M1554.89,149.18 C1543.04,185.36 1526.51,235.86 1512.78,277.78 " fill="none" id="CreateProjectTypologyController-to-ProjectTypologyService" style="stroke:#181818;stroke-width:1.0;"/><polygon fill="#181818" points="1511.21,282.59,1517.8113,275.2809,1512.7654,277.8381,1510.2082,272.7922,1511.21,282.59" style="stroke:#181818;stroke-width:1.0;"/><text fill="#000000" font-family="sans-serif" font-size="13" lengthAdjust="spacing" textLength="147" x="1529.5" y="237.0669">projectTypologyService</text></g><!--link ProjectTypologyService to Repository--><g id="link_ProjectTypologyService_Repository"><path codeLine="14" d="M1504.37,429.22 C1511.01,457.65 1518.67,490.43 1525.5,519.68 " fill="none" id="ProjectTypologyService-to-Repository" style="stroke:#181818;stroke-width:1.0;"/><polygon fill="#181818" points="1526.68,524.72,1528.5455,515.0494,1525.5515,519.849,1520.752,516.855,1526.68,524.72" style="stroke:#181818;stroke-width:1.0;"/><text fill="#000000" font-family="sans-serif" font-size="13" lengthAdjust="spacing" textLength="167" x="1518.5" y="484.0669">projectTypologyRepository</text></g><!--link ProjectTypologyService to ProjectTypologyFactory--><g id="link_ProjectTypologyService_ProjectTypologyFactory"><path codeLine="15" d="M1385.09,429.22 C1320.55,474.73 1240.18,531.41 1189.84,566.91 " fill="none" id="ProjectTypologyService-to-ProjectTypologyFactory" style="stroke:#181818;stroke-width:1.0;"/><polygon fill="#181818" points="1185.67,569.85,1195.3289,567.9251,1189.754,566.9655,1190.7137,561.3906,1185.67,569.85" style="stroke:#181818;stroke-width:1.0;"/><text fill="#000000" font-family="sans-serif" font-size="13" lengthAdjust="spacing" textLength="147" x="1326.5" y="484.0669">projectTypologyFactory</text></g><!--link ProjectTypologyService to ProjectTypologyName--><g id="link_ProjectTypologyService_ProjectTypologyName"><path codeLine="16" d="M1252.36,418.56 C1078.75,464.01 872.5,518 872.5,518 C872.5,518 867.75,519.59 859.56,522.33 " fill="none" id="ProjectTypologyService-to-ProjectTypologyName" style="stroke:#181818;stroke-width:1.0;stroke-dasharray:7.0,7.0;"/><polygon fill="#181818" points="854.66,523.97,864.4639,524.9098,859.402,522.3846,861.9272,517.3226,854.66,523.97" style="stroke:#181818;stroke-width:1.0;"/></g><!--link ProjectTypologyRepository to ProjectTypology--><g id="link_ProjectTypologyRepository_ProjectTypology"><path codeLine="18" d="M424.25,202.1 C450.47,222.12 477.88,243.05 503.71,262.77 " fill="none" id="ProjectTypologyRepository-ProjectTypology" style="stroke:#181818;stroke-width:1.0;"/><polygon fill="#181818" points="413.77,194.1,416.1116,200.9203,423.3079,201.3821,420.9663,194.5617,413.77,194.1" style="stroke:#181818;stroke-width:1.0;"/><polygon fill="#181818" points="514.29,270.85,509.5582,262.2123,510.3139,267.8185,504.7077,268.5741,514.29,270.85" style="stroke:#181818;stroke-width:1.0;"/><line style="stroke:#181818;stroke-width:1.0;" x1="510.3139" x2="503.96" y1="267.8185" y2="262.96"/><text fill="#000000" font-family="sans-serif" font-size="13" lengthAdjust="spacing" textLength="122" x="469.5" y="237.0669">projectTypologyList</text><text fill="#000000" font-family="sans-serif" font-size="13" lengthAdjust="spacing" textLength="8" x="414.382" y="213.6095">1</text><text fill="#000000" font-family="sans-serif" font-size="13" lengthAdjust="spacing" textLength="7" x="497.518" y="259.9457">*</text></g><!--link ProjectTypology to ProjectTypologyName--><g id="link_ProjectTypology_ProjectTypologyName"><path codeLine="20" d="M624.5,441.31 C624.5,464.36 624.5,489.41 624.5,512.67 " fill="none" id="ProjectTypology-to-ProjectTypologyName" style="stroke:#181818;stroke-width:1.0;"/><polygon fill="#181818" points="624.5,517.92,628.5,508.92,624.5,512.92,620.5,508.92,624.5,517.92" style="stroke:#181818;stroke-width:1.0;"/><text fill="#000000" font-family="sans-serif" font-size="13" lengthAdjust="spacing" textLength="139" x="625.5" y="484.0669">projectTypologyName</text></g><!--link ProjectTypologyFactoryImplementation to ProjectTypologyFactory--><g id="link_ProjectTypologyFactoryImplementation_ProjectTypologyFactory"><path codeLine="22" d="M939.95,132.75 C977.92,220.96 1085.79,471.57 1126.07,565.16 " fill="none" id="ProjectTypologyFactoryImplementation-to-ProjectTypologyFactory" style="stroke:#181818;stroke-width:1.0;stroke-dasharray:7.0,7.0;"/><polygon fill="#181818" points="1128.06,569.77,1128.1655,559.9217,1126.0784,565.1795,1120.8206,563.0923,1128.06,569.77" style="stroke:#181818;stroke-width:1.0;"/></g><!--link ProjectTypologyFactoryImplementation to ProjectTypology--><g id="link_ProjectTypologyFactoryImplementation_ProjectTypology"><path codeLine="23" d="M889.47,132.58 C849.63,166.02 784.49,220.7 728.77,267.48 " fill="none" id="ProjectTypologyFactoryImplementation-to-ProjectTypology" style="stroke:#181818;stroke-width:1.0;"/><polygon fill="#181818" points="724.77,270.83,734.2348,268.1066,728.5994,267.615,729.0909,261.9796,724.77,270.83" style="stroke:#181818;stroke-width:1.0;"/></g><!--SRC=[lP91QmCX48Nl_Wgxnq1SSiqXbq2XK49fUbz4XyLsT4HDOFzz8viGY6vxgGL1Xl5zRnvE_3BEoo0jH-CWJHwu9vnomTYJSGfF6hWG_Npe344Y3ZxG9wZKQuXcTBr26UEWZHmlfBc2UBi7hNM_3o0JlCsoZ-dYGUEq9vS28K8G_cJnB_qUd8uGpaP1QvlM_8EqpJEyWwTe4eNcQPwbQcBpxmbUh4Umu99CXjniodxPUBvUxtXzI_cM-sg3BRpFg7leKdxl_KIePojfryOIIeW2bTUMiSKzuzscuwiyGhVg7hMb_wk9gQ3L4cJRKbuTflgHjIWBuUlwoapV]--></g></svg>