<?xml version="1.0" encoding="us-ascii" standalone="no"?><svg xmlns="http://www.w3.org/2000/svg" xmlns:xlink="http://www.w3.org/1999/xlink" contentStyleType="text/css" height="856px" preserveAspectRatio="none" style="width:755px;height:856px;background:#FFFFFF;" version="1.1" viewBox="0 0 755 856" width="755px" zoomAndPan="magnify"><defs/><g><!--cluster System--><g id="cluster_System"><rect fill="none" height="843" rx="2.5" ry="2.5" style="stroke:#181818;stroke-width:1.0;" width="587" x="162" y="7"/><text fill="#000000" font-family="sans-serif" font-size="14" font-weight="bold" lengthAdjust="spacing" textLength="58" x="426.5" y="21.9951">System</text></g><g id="elem_UC31"><ellipse cx="455.364" cy="641.9728" fill="#FFFFFF" rx="195.364" ry="41.4728" style="stroke:#181818;stroke-width:0.5;"/><text fill="#000000" font-family="sans-serif" font-size="14" lengthAdjust="spacing" textLength="364" x="273.364" y="644.8195">US031: start the next sprint of a project in the web UI</text></g><g id="elem_UC32"><ellipse cx="455.5679" cy="775.9136" fill="#FFFFFF" rx="275.0679" ry="57.4136" style="stroke:#181818;stroke-width:0.5;"/><text fill="#000000" font-family="sans-serif" font-size="14" lengthAdjust="spacing" textLength="526" x="192.5679" y="778.7603">US032: add a user story to the open/current sprint backlog using the web UI</text></g><g id="elem_UC33"><ellipse cx="455.3788" cy="236.8758" fill="#FFFFFF" rx="277.3788" ry="57.8758" style="stroke:#181818;stroke-width:0.5;"/><text fill="#000000" font-family="sans-serif" font-size="14" lengthAdjust="spacing" textLength="418" x="244.3788" y="231.574">US033: update the status (i.e.: the Scrum Board category) of</text><text fill="#000000" font-family="sans-serif" font-size="14" lengthAdjust="spacing" textLength="512" x="199.3788" y="247.8709">a user story in the scope of the current/active sprint backlog in the web UI.</text></g><g id="elem_UC34"><ellipse cx="455.6831" cy="516.9366" fill="#FFFFFF" rx="230.1831" ry="48.4366" style="stroke:#181818;stroke-width:0.5;"/><text fill="#000000" font-family="sans-serif" font-size="14" lengthAdjust="spacing" textLength="435" x="238.1831" y="519.7833">US034: close the current/active sprint of a project in the web UI</text></g><g id="elem_UC35"><ellipse cx="455.4549" cy="381.891" fill="#FFFFFF" rx="244.9549" ry="51.391" style="stroke:#181818;stroke-width:0.5;"/><text fill="#000000" font-family="sans-serif" font-size="14" lengthAdjust="spacing" textLength="465" x="222.9549" y="384.7377">US035: Product Backlog should be updated when a sprint is closed</text></g><g id="elem_UC36"><ellipse cx="455.513" cy="93.1026" fill="#FFFFFF" rx="241.013" ry="50.6026" style="stroke:#181818;stroke-width:0.5;"/><text fill="#000000" font-family="sans-serif" font-size="14" lengthAdjust="spacing" textLength="457" x="227.013" y="95.9493">US036: consult the Sprint Backlog of a chosen sprint in the web UI</text></g><!--entity PO--><g id="elem_PO"><ellipse cx="62" cy="24.5" fill="#FFFFFF" rx="8" ry="8" style="stroke:#181818;stroke-width:0.5;"/><path d="M62,32.5 L62,59.5 M49,40.5 L75,40.5 M62,59.5 L49,74.5 M62,59.5 L75,74.5 " fill="none" style="stroke:#181818;stroke-width:0.5;"/><text fill="#000000" font-family="sans-serif" font-size="14" lengthAdjust="spacing" textLength="103" x="10.5" y="88.9951">Product Owner</text></g><!--entity SM--><g id="elem_SM"><ellipse cx="62" cy="135.5" fill="#FFFFFF" rx="8" ry="8" style="stroke:#181818;stroke-width:0.5;"/><path d="M62,143.5 L62,170.5 M49,151.5 L75,151.5 M62,170.5 L49,185.5 M62,170.5 L75,185.5 " fill="none" style="stroke:#181818;stroke-width:0.5;"/><text fill="#000000" font-family="sans-serif" font-size="14" lengthAdjust="spacing" textLength="95" x="14.5" y="199.9951">Scrum Master</text></g><!--entity PM--><g id="elem_PM"><ellipse cx="62" cy="487.5" fill="#FFFFFF" rx="8" ry="8" style="stroke:#181818;stroke-width:0.5;"/><path d="M62,495.5 L62,522.5 M49,503.5 L75,503.5 M62,522.5 L49,537.5 M62,522.5 L75,537.5 " fill="none" style="stroke:#181818;stroke-width:0.5;"/><text fill="#000000" font-family="sans-serif" font-size="14" lengthAdjust="spacing" textLength="112" x="6" y="551.9951">Project Manager</text></g><!--entity TM--><g id="elem_TM"><ellipse cx="62" cy="246.5" fill="#FFFFFF" rx="8" ry="8" style="stroke:#181818;stroke-width:0.5;"/><path d="M62,254.5 L62,281.5 M49,262.5 L75,262.5 M62,281.5 L49,296.5 M62,281.5 L75,296.5 " fill="none" style="stroke:#181818;stroke-width:0.5;"/><text fill="#000000" font-family="sans-serif" font-size="14" lengthAdjust="spacing" textLength="100" x="12" y="310.9951">Team Member</text></g><!--link PM to UC31--><g id="link_PM_UC31"><path d="M107.39,555.07 C121.51,565.52 137.72,575.91 154,583 C193.11,600.03 237.23,612.18 279.37,620.84 " fill="none" id="PM-to-UC31" style="stroke:#181818;stroke-width:1.0;"/><polygon fill="#181818" points="284.5,621.88,276.4656,616.1836,279.5982,620.8939,274.8879,624.0265,284.5,621.88" style="stroke:#181818;stroke-width:1.0;"/></g><!--link PM to UC32--><g id="link_PM_UC32"><path d="M71.65,555.1 C83.19,597.14 107.79,663.78 154,701 C174.99,717.91 199.29,731.07 224.78,741.31 " fill="none" id="PM-to-UC32" style="stroke:#181818;stroke-width:1.0;"/><polygon fill="#181818" points="229.56,743.18,222.6632,736.1491,224.9108,741.3403,219.7196,743.5879,229.56,743.18" style="stroke:#181818;stroke-width:1.0;"/></g><!--link PO to UC33--><g id="link_PO_UC33"><path d="M102.96,92.23 C108.18,97.72 113.33,103.4 118,109 C136.01,130.58 130.9,144.98 154,161 C177.2,177.09 203.51,189.78 230.68,199.78 " fill="none" id="PO-to-UC33" style="stroke:#181818;stroke-width:1.0;"/><polygon fill="#181818" points="235.41,201.49,228.3072,194.6673,230.7081,199.7893,225.5861,202.1903,235.41,201.49" style="stroke:#181818;stroke-width:1.0;"/></g><!--link SM to UC33--><g id="link_SM_UC33"><path d="M109.84,173.61 C143.59,179.82 191.77,188.68 241.45,197.82 " fill="none" id="SM-to-UC33" style="stroke:#181818;stroke-width:1.0;"/><polygon fill="#181818" points="246.57,198.76,238.4378,193.2041,241.6518,197.8593,236.9967,201.0733,246.57,198.76" style="stroke:#181818;stroke-width:1.0;"/></g><!--link TM to UC33--><g id="link_TM_UC33"><path d="M112.19,271.1 C135.87,268.74 166.26,265.71 199.12,262.44 " fill="none" id="TM-to-UC33" style="stroke:#181818;stroke-width:1.0;"/><polygon fill="#181818" points="204.41,261.91,195.0549,258.8307,199.4351,262.4103,195.8555,266.7906,204.41,261.91" style="stroke:#181818;stroke-width:1.0;"/></g><!--link PM to UC33--><g id="link_PM_UC33"><path d="M69.56,478.99 C79.56,432.82 103.11,355.82 154,313 C174.35,295.88 198.04,282.53 223.03,272.15 " fill="none" id="PM-to-UC33" style="stroke:#181818;stroke-width:1.0;"/><polygon fill="#181818" points="227.71,270.24,217.866,269.9313,223.0795,272.1265,220.8844,277.34,227.71,270.24" style="stroke:#181818;stroke-width:1.0;"/></g><!--link PM to UC34--><g id="link_PM_UC34"><path d="M118.26,517 C146.2,517 182.21,517 220.23,517 " fill="none" id="PM-to-UC34" style="stroke:#181818;stroke-width:1.0;"/><polygon fill="#181818" points="225.37,517,216.37,513,220.37,517,216.37,521,225.37,517" style="stroke:#181818;stroke-width:1.0;"/></g><!--link PM to UC35--><g id="link_PM_UC35"><path d="M108,478.9 C122.01,468.58 138.01,458.27 154,451 C186.4,436.28 222.23,424.55 257.54,415.25 " fill="none" id="PM-to-UC35" style="stroke:#181818;stroke-width:1.0;"/><polygon fill="#181818" points="262.74,413.89,253.0237,412.2797,257.9004,415.1463,255.0338,420.023,262.74,413.89" style="stroke:#181818;stroke-width:1.0;"/></g><!--link PO to UC36--><g id="link_PO_UC36"><path d="M113.78,59.06 C145.16,62.18 187.84,66.44 232.38,70.87 " fill="none" id="PO-to-UC36" style="stroke:#181818;stroke-width:1.0;"/><polygon fill="#181818" points="237.53,71.39,228.9616,66.5338,232.5537,70.9038,228.1837,74.4959,237.53,71.39" style="stroke:#181818;stroke-width:1.0;"/></g><!--link SM to UC36--><g id="link_SM_UC36"><path d="M109.84,156.39 C149.71,149.05 209.74,138.01 268.58,127.19 " fill="none" id="SM-to-UC36" style="stroke:#181818;stroke-width:1.0;"/><polygon fill="#181818" points="273.54,126.28,263.9614,123.9887,268.6239,127.192,265.4206,131.8545,273.54,126.28" style="stroke:#181818;stroke-width:1.0;"/></g><!--link TM to UC36--><g id="link_TM_UC36"><path d="M102.67,237.89 C108.04,232.08 113.31,226.02 118,220 C136.89,195.77 129.05,178.92 154,161 C179.57,142.64 209.26,129.13 239.84,119.2 " fill="none" id="TM-to-UC36" style="stroke:#181818;stroke-width:1.0;"/><polygon fill="#181818" points="244.75,117.64,234.9607,116.5583,239.9856,119.1566,237.3873,124.1814,244.75,117.64" style="stroke:#181818;stroke-width:1.0;"/></g><!--SRC=[XP8xJyCm481t_ufJ9nWeqBGPCY1H9eQeaT9kBAvz98RKZloW8CH_v_8g8QfWk_ZklljyiNjLkkQM7s3dK727QovU2sk2bW-cCXQEfVB8tAdiNdXZpnUn2fyzU0DM5QK7gImAhuncZ3TDCCkiaK5us1mrsXbm1zbcoEN2XWEatFa-bQUZjXSYKLBpOcWyPRT8LYaUzdrccpB6cibS5nL2_a740tmoWD3T46Qx_2QwJS1vRictHD3uxi7LLcaFvXaurFr8fTly4VUmUspnkuVeTifQ9C2bf3OwjOGrzgDPGzDfQjJN8bYB-ZHXJzkhJ47LIXTd-8ifFqeWr99xR8j9smS75sgEywGzwNQtDjnA45HMaC1bSv4d_SkfluqJPDMacu_UxPgsgTvmglZh_lD1C9eABXCGbN7u1_7_jIwdr5K2mujPzpwkDA6IiCT-8PAU7ceYzrEKwqJa05rDeJ6f6kr2rVtvlEiR-AsbA8cWJyXphZ7xOYnBuUhghdiHF_62PPiXZbYU_iJRKPoTZPUZU3NYn2DEFEB4Z7q3]--></g></svg>