<?xml version="1.0" encoding="us-ascii" standalone="no"?><svg xmlns="http://www.w3.org/2000/svg" xmlns:xlink="http://www.w3.org/1999/xlink" contentStyleType="text/css" height="1668px" preserveAspectRatio="none" style="width:1864px;height:1668px;background:#FFFFFF;" version="1.1" viewBox="0 0 1864 1668" width="1864px" zoomAndPan="magnify"><defs/><g><g id="elem_Account"><rect fill="#F1F1F1" height="126.0781" style="stroke:#181818;stroke-width:0.5;" width="112" x="1692.4442" y="7"/><text fill="#000000" font-family="sans-serif" font-size="14" lengthAdjust="spacing" textLength="57" x="1719.9442" y="21.9951">Account</text><line style="stroke:#181818;stroke-width:0.5;" x1="1693.4442" x2="1803.4442" y1="27.2969" y2="27.2969"/><text fill="#000000" font-family="sans-serif" font-size="14" lengthAdjust="spacing" textLength="39" x="1698.4442" y="44.292">name</text><text fill="#000000" font-family="sans-serif" font-size="14" lengthAdjust="spacing" textLength="41" x="1698.4442" y="60.5889">e-mail</text><text fill="#000000" font-family="sans-serif" font-size="14" lengthAdjust="spacing" textLength="67" x="1698.4442" y="76.8857">password</text><text fill="#000000" font-family="sans-serif" font-size="14" lengthAdjust="spacing" textLength="100" x="1698.4442" y="93.1826">phoneNumber</text><text fill="#000000" font-family="sans-serif" font-size="14" lengthAdjust="spacing" textLength="90" x="1698.4442" y="109.4795">photo : [0..1]</text><text fill="#000000" font-family="sans-serif" font-size="14" lengthAdjust="spacing" textLength="43" x="1698.4442" y="125.7764">status</text></g><g id="elem_Profile"><rect fill="#F1F1F1" height="36.2969" style="stroke:#181818;stroke-width:0.5;" width="56" x="1720.4442" y="193"/><text fill="#000000" font-family="sans-serif" font-size="14" lengthAdjust="spacing" textLength="42" x="1727.4442" y="207.9951">Profile</text><line style="stroke:#181818;stroke-width:0.5;" x1="1721.4442" x2="1775.4442" y1="213.2969" y2="213.2969"/></g><g id="elem_User"><rect fill="#F1F1F1" height="36.2969" style="stroke:#181818;stroke-width:0.5;" width="46" x="1654.4442" y="1626"/><text fill="#000000" font-family="sans-serif" font-size="14" lengthAdjust="spacing" textLength="32" x="1661.4442" y="1640.9951">User</text><line style="stroke:#181818;stroke-width:0.5;" x1="1655.4442" x2="1699.4442" y1="1646.2969" y2="1646.2969"/></g><g id="elem_Manager"><rect fill="#F1F1F1" height="36.2969" style="stroke:#181818;stroke-width:0.5;" width="74" x="1397.4442" y="289"/><text fill="#000000" font-family="sans-serif" font-size="14" lengthAdjust="spacing" textLength="60" x="1404.4442" y="303.9951">Manager</text><line style="stroke:#181818;stroke-width:0.5;" x1="1398.4442" x2="1470.4442" y1="309.2969" y2="309.2969"/></g><g id="elem_Admin"><rect fill="#F1F1F1" height="36.2969" style="stroke:#181818;stroke-width:0.5;" width="57" x="1801.9442" y="289"/><text fill="#000000" font-family="sans-serif" font-size="14" lengthAdjust="spacing" textLength="43" x="1808.9442" y="303.9951">Admin</text><line style="stroke:#181818;stroke-width:0.5;" x1="1802.9442" x2="1857.9442" y1="309.2969" y2="309.2969"/></g><g id="elem_ScrumMaster"><rect fill="#F1F1F1" height="36.2969" style="stroke:#181818;stroke-width:0.5;" width="105" x="1518.9442" y="841.5"/><text fill="#000000" font-family="sans-serif" font-size="14" lengthAdjust="spacing" textLength="91" x="1525.9442" y="856.4951">ScrumMaster</text><line style="stroke:#181818;stroke-width:0.5;" x1="1519.9442" x2="1622.9442" y1="861.7969" y2="861.7969"/></g><g id="elem_ProjectManager"><rect fill="#F1F1F1" height="36.2969" style="stroke:#181818;stroke-width:0.5;" width="122" x="1068.4442" y="841.5"/><text fill="#000000" font-family="sans-serif" font-size="14" lengthAdjust="spacing" textLength="108" x="1075.4442" y="856.4951">ProjectManager</text><line style="stroke:#181818;stroke-width:0.5;" x1="1069.4442" x2="1189.4442" y1="861.7969" y2="861.7969"/></g><g id="elem_ProductOwner"><rect fill="#F1F1F1" height="36.2969" style="stroke:#181818;stroke-width:0.5;" width="113" x="1370.9442" y="841.5"/><text fill="#000000" font-family="sans-serif" font-size="14" lengthAdjust="spacing" textLength="99" x="1377.9442" y="856.4951">ProductOwner</text><line style="stroke:#181818;stroke-width:0.5;" x1="1371.9442" x2="1482.9442" y1="861.7969" y2="861.7969"/></g><g id="elem_TeamMember"><rect fill="#F1F1F1" height="36.2969" style="stroke:#181818;stroke-width:0.5;" width="110" x="1225.4442" y="841.5"/><text fill="#000000" font-family="sans-serif" font-size="14" lengthAdjust="spacing" textLength="96" x="1232.4442" y="856.4951">TeamMember</text><line style="stroke:#181818;stroke-width:0.5;" x1="1226.4442" x2="1334.4442" y1="861.7969" y2="861.7969"/></g><g id="elem_Project"><rect fill="#F1F1F1" height="142.375" style="stroke:#181818;stroke-width:0.5;" width="185" x="603.9442" y="627"/><text fill="#000000" font-family="sans-serif" font-size="14" lengthAdjust="spacing" textLength="48" x="672.4442" y="641.9951">Project</text><line style="stroke:#181818;stroke-width:0.5;" x1="604.9442" x2="787.9442" y1="647.2969" y2="647.2969"/><text fill="#000000" font-family="sans-serif" font-size="14" lengthAdjust="spacing" textLength="35" x="609.9442" y="664.292">code</text><text fill="#000000" font-family="sans-serif" font-size="14" lengthAdjust="spacing" textLength="39" x="609.9442" y="680.5889">name</text><text fill="#000000" font-family="sans-serif" font-size="14" lengthAdjust="spacing" textLength="77" x="609.9442" y="696.8857">description</text><text fill="#000000" font-family="sans-serif" font-size="14" lengthAdjust="spacing" textLength="98" x="609.9442" y="713.1826">sprintDuration</text><text fill="#000000" font-family="sans-serif" font-size="14" lengthAdjust="spacing" textLength="173" x="609.9442" y="729.4795">numberOfPlannedSprints</text><text fill="#000000" font-family="sans-serif" font-size="14" lengthAdjust="spacing" textLength="50" x="609.9442" y="745.7764">budget</text><text fill="#000000" font-family="sans-serif" font-size="14" lengthAdjust="spacing" textLength="44" x="609.9442" y="762.0732">period</text></g><g id="elem_ProjectStatus"><rect fill="#F1F1F1" height="44.5938" style="stroke:#181818;stroke-width:0.5;" width="106" x="718.4442" y="837"/><text fill="#000000" font-family="sans-serif" font-size="14" lengthAdjust="spacing" textLength="92" x="725.4442" y="851.9951">ProjectStatus</text><line style="stroke:#181818;stroke-width:0.5;" x1="719.4442" x2="823.4442" y1="857.2969" y2="857.2969"/><text fill="#000000" font-family="sans-serif" font-size="14" lengthAdjust="spacing" textLength="39" x="724.4442" y="874.292">name</text></g><g id="elem_Customer"><rect fill="#F1F1F1" height="60.8906" style="stroke:#181818;stroke-width:0.5;" width="174" x="859.4442" y="829"/><text fill="#000000" font-family="sans-serif" font-size="14" lengthAdjust="spacing" textLength="68" x="912.4442" y="843.9951">Customer</text><line style="stroke:#181818;stroke-width:0.5;" x1="860.4442" x2="1032.4442" y1="849.2969" y2="849.2969"/><text fill="#000000" font-family="sans-serif" font-size="14" lengthAdjust="spacing" textLength="39" x="865.4442" y="866.292">name</text><text fill="#000000" font-family="sans-serif" font-size="14" lengthAdjust="spacing" textLength="162" x="865.4442" y="882.5889">taxIdentificationNumber</text></g><g id="elem_BusinessSector"><rect fill="#F1F1F1" height="44.5938" style="stroke:#181818;stroke-width:0.5;" width="123" x="329.9442" y="837"/><text fill="#000000" font-family="sans-serif" font-size="14" lengthAdjust="spacing" textLength="109" x="336.9442" y="851.9951">BusinessSector</text><line style="stroke:#181818;stroke-width:0.5;" x1="330.9442" x2="451.9442" y1="857.2969" y2="857.2969"/><text fill="#000000" font-family="sans-serif" font-size="14" lengthAdjust="spacing" textLength="39" x="335.9442" y="874.292">name</text></g><g id="elem_ProjectTypology"><rect fill="#F1F1F1" height="44.5938" style="stroke:#181818;stroke-width:0.5;" width="124" x="559.4442" y="837"/><text fill="#000000" font-family="sans-serif" font-size="14" lengthAdjust="spacing" textLength="110" x="566.4442" y="851.9951">ProjectTypology</text><line style="stroke:#181818;stroke-width:0.5;" x1="560.4442" x2="682.4442" y1="857.2969" y2="857.2969"/><text fill="#000000" font-family="sans-serif" font-size="14" lengthAdjust="spacing" textLength="39" x="565.4442" y="874.292">name</text></g><g id="elem_Sprint"><rect fill="#F1F1F1" height="60.8906" style="stroke:#181818;stroke-width:0.5;" width="106" x="188.4442" y="829"/><text fill="#000000" font-family="sans-serif" font-size="14" lengthAdjust="spacing" textLength="40" x="221.4442" y="843.9951">Sprint</text><line style="stroke:#181818;stroke-width:0.5;" x1="189.4442" x2="293.4442" y1="849.2969" y2="849.2969"/><text fill="#000000" font-family="sans-serif" font-size="14" lengthAdjust="spacing" textLength="44" x="194.4442" y="866.292">period</text><text fill="#000000" font-family="sans-serif" font-size="14" lengthAdjust="spacing" textLength="94" x="194.4442" y="882.5889">sprintNumber</text></g><g id="elem_SprintBacklog"><rect fill="#F1F1F1" height="36.2969" style="stroke:#181818;stroke-width:0.5;" width="109" x="463.9442" y="1142"/><text fill="#000000" font-family="sans-serif" font-size="14" lengthAdjust="spacing" textLength="95" x="470.9442" y="1156.9951">SprintBacklog</text><line style="stroke:#181818;stroke-width:0.5;" x1="464.9442" x2="571.9442" y1="1162.2969" y2="1162.2969"/></g><g id="elem_Task"><rect fill="#F1F1F1" height="142.375" style="stroke:#181818;stroke-width:0.5;" width="175" x="1347.9442" y="1424"/><text fill="#000000" font-family="sans-serif" font-size="14" lengthAdjust="spacing" textLength="33" x="1418.9442" y="1438.9951">Task</text><line style="stroke:#181818;stroke-width:0.5;" x1="1348.9442" x2="1521.9442" y1="1444.2969" y2="1444.2969"/><text fill="#000000" font-family="sans-serif" font-size="14" lengthAdjust="spacing" textLength="39" x="1353.9442" y="1461.292">name</text><text fill="#000000" font-family="sans-serif" font-size="14" lengthAdjust="spacing" textLength="77" x="1353.9442" y="1477.5889">description</text><text fill="#000000" font-family="sans-serif" font-size="14" lengthAdjust="spacing" textLength="44" x="1353.9442" y="1493.8857">period</text><text fill="#000000" font-family="sans-serif" font-size="14" lengthAdjust="spacing" textLength="81" x="1353.9442" y="1510.1826">hoursSpent</text><text fill="#000000" font-family="sans-serif" font-size="14" lengthAdjust="spacing" textLength="96" x="1353.9442" y="1526.4795">effortEstimate</text><text fill="#000000" font-family="sans-serif" font-size="14" lengthAdjust="spacing" textLength="163" x="1353.9442" y="1542.7764">percentageOfExecution</text><text fill="#000000" font-family="sans-serif" font-size="14" lengthAdjust="spacing" textLength="43" x="1353.9442" y="1559.0732">status</text></g><g id="elem_ProductBacklog"><rect fill="#F1F1F1" height="36.2969" style="stroke:#181818;stroke-width:0.5;" width="123" x="1250.9442" y="950"/><text fill="#000000" font-family="sans-serif" font-size="14" lengthAdjust="spacing" textLength="109" x="1257.9442" y="964.9951">ProductBacklog</text><line style="stroke:#181818;stroke-width:0.5;" x1="1251.9442" x2="1372.9442" y1="970.2969" y2="970.2969"/></g><g id="elem_ScrumCeremony"><rect fill="#F1F1F1" height="36.2969" style="stroke:#181818;stroke-width:0.5;" width="129" x="176.9442" y="950"/><text fill="#000000" font-family="sans-serif" font-size="14" lengthAdjust="spacing" textLength="115" x="183.9442" y="964.9951">ScrumCeremony</text><line style="stroke:#181818;stroke-width:0.5;" x1="177.9442" x2="304.9442" y1="970.2969" y2="970.2969"/></g><g id="elem_SprintPlanning"><rect fill="#F1F1F1" height="36.2969" style="stroke:#181818;stroke-width:0.5;" width="113" x="351.9442" y="1046"/><text fill="#000000" font-family="sans-serif" font-size="14" lengthAdjust="spacing" textLength="99" x="358.9442" y="1060.9951">SprintPlanning</text><line style="stroke:#181818;stroke-width:0.5;" x1="352.9442" x2="463.9442" y1="1066.2969" y2="1066.2969"/></g><g id="elem_SprintReview"><rect fill="#F1F1F1" height="36.2969" style="stroke:#181818;stroke-width:0.5;" width="103" x="27.9442" y="1046"/><text fill="#000000" font-family="sans-serif" font-size="14" lengthAdjust="spacing" textLength="89" x="34.9442" y="1060.9951">SprintReview</text><line style="stroke:#181818;stroke-width:0.5;" x1="28.9442" x2="129.9442" y1="1066.2969" y2="1066.2969"/></g><g id="elem_SprintRetrospective"><rect fill="#F1F1F1" height="36.2969" style="stroke:#181818;stroke-width:0.5;" width="150" x="166.4442" y="1046"/><text fill="#000000" font-family="sans-serif" font-size="14" lengthAdjust="spacing" textLength="136" x="173.4442" y="1060.9951">SprintRetrospective</text><line style="stroke:#181818;stroke-width:0.5;" x1="167.4442" x2="315.4442" y1="1066.2969" y2="1066.2969"/></g><g id="elem_RoleAssignment"><rect fill="#F1F1F1" height="44.5938" style="stroke:#181818;stroke-width:0.5;" width="127" x="1290.9442" y="522"/><text fill="#000000" font-family="sans-serif" font-size="14" lengthAdjust="spacing" textLength="113" x="1297.9442" y="536.9951">RoleAssignment</text><line style="stroke:#181818;stroke-width:0.5;" x1="1291.9442" x2="1416.9442" y1="542.2969" y2="542.2969"/><text fill="#000000" font-family="sans-serif" font-size="14" lengthAdjust="spacing" textLength="44" x="1296.9442" y="559.292">period</text></g><g id="elem_RoleType"><rect fill="#F1F1F1" height="44.5938" style="stroke:#181818;stroke-width:0.5;" width="79" x="1314.9442" y="675.5"/><text fill="#000000" font-family="sans-serif" font-size="14" lengthAdjust="spacing" textLength="65" x="1321.9442" y="690.4951">RoleType</text><line style="stroke:#181818;stroke-width:0.5;" x1="1315.9442" x2="1392.9442" y1="695.7969" y2="695.7969"/><text fill="#000000" font-family="sans-serif" font-size="14" lengthAdjust="spacing" textLength="39" x="1320.9442" y="712.792">name</text></g><g id="elem_UserStory"><rect fill="#F1F1F1" height="126.0781" style="stroke:#181818;stroke-width:0.5;" width="141" x="1309.9442" y="1238"/><text fill="#000000" font-family="sans-serif" font-size="14" lengthAdjust="spacing" textLength="67" x="1346.9442" y="1252.9951">UserStory</text><line style="stroke:#181818;stroke-width:0.5;" x1="1310.9442" x2="1449.9442" y1="1258.2969" y2="1258.2969"/><text fill="#000000" font-family="sans-serif" font-size="14" lengthAdjust="spacing" textLength="54" x="1315.9442" y="1275.292">number</text><text fill="#000000" font-family="sans-serif" font-size="14" lengthAdjust="spacing" textLength="35" x="1315.9442" y="1291.5889">actor</text><text fill="#000000" font-family="sans-serif" font-size="14" lengthAdjust="spacing" textLength="96" x="1315.9442" y="1307.8857">userStoryText</text><text fill="#000000" font-family="sans-serif" font-size="14" lengthAdjust="spacing" textLength="129" x="1315.9442" y="1324.1826">acceptanceCriteria</text><text fill="#000000" font-family="sans-serif" font-size="14" lengthAdjust="spacing" textLength="43" x="1315.9442" y="1340.4795">status</text><text fill="#000000" font-family="sans-serif" font-size="14" lengthAdjust="spacing" textLength="36" x="1315.9442" y="1356.7764">effort</text></g><g id="elem_Resource"><rect fill="#F1F1F1" height="77.1875" style="stroke:#181818;stroke-width:0.5;" width="173" x="1347.9442" y="385"/><text fill="#000000" font-family="sans-serif" font-size="14" lengthAdjust="spacing" textLength="67" x="1400.9442" y="399.9951">Resource</text><line style="stroke:#181818;stroke-width:0.5;" x1="1348.9442" x2="1519.9442" y1="405.2969" y2="405.2969"/><text fill="#000000" font-family="sans-serif" font-size="14" lengthAdjust="spacing" textLength="44" x="1353.9442" y="422.292">period</text><text fill="#000000" font-family="sans-serif" font-size="14" lengthAdjust="spacing" textLength="86" x="1353.9442" y="438.5889">costPerHour</text><text fill="#000000" font-family="sans-serif" font-size="14" lengthAdjust="spacing" textLength="161" x="1353.9442" y="454.8857">percentageOfAllocation</text></g><g id="elem_GMN28"><path d="M1555.9442,403.5 L1555.9442,420 L1521.0142,424 L1555.9442,428 L1555.9442,443.7656 A0,0 0 0 0 1555.9442,443.7656 L1672.9442,443.7656 A0,0 0 0 0 1672.9442,443.7656 L1672.9442,413.5 L1662.9442,403.5 L1555.9442,403.5 A0,0 0 0 0 1555.9442,403.5 " fill="#FEFFDD" style="stroke:#181818;stroke-width:0.5;"/><path d="M1662.9442,403.5 L1662.9442,413.5 L1672.9442,413.5 L1662.9442,403.5 " fill="#FEFFDD" style="stroke:#181818;stroke-width:0.5;"/><text fill="#000000" font-family="sans-serif" font-size="13" lengthAdjust="spacing" textLength="92" x="1561.9442" y="420.5669">User allocated</text><text fill="#000000" font-family="sans-serif" font-size="13" lengthAdjust="spacing" textLength="59" x="1561.9442" y="435.6997">in project</text></g><ellipse cx="1253.4442" cy="544.5" fill="#181818" rx="2" ry="2" style="stroke:#181818;stroke-width:1.0;"/><!--link Account to Profile--><g id="link_Account_Profile"><path codeLine="99" d="M1748.4442,133.08 C1748.4442,154.93 1748.4442,177.74 1748.4442,192.99 " fill="none" id="Account-Profile" style="stroke:#181818;stroke-width:1.0;"/><polygon fill="#000000" points="1753.4442,159.5964,1756.3831,150.5513,1750.5052,150.5513,1753.4442,159.5964" style="stroke:#000000;stroke-width:1.0;"/><text fill="#000000" font-family="sans-serif" font-size="13" lengthAdjust="spacing" textLength="23" x="1762.4442" y="159.0969">has</text><text fill="#000000" font-family="sans-serif" font-size="13" lengthAdjust="spacing" textLength="7" x="1741.0395" y="153.3109">*</text><text fill="#000000" font-family="sans-serif" font-size="13" lengthAdjust="spacing" textLength="8" x="1739.1692" y="181.8994">1</text></g><!--link Profile to Manager--><g id="link_Profile_Manager"><path codeLine="101" d="M1739.1142,229.21 C1739.1142,255.51 1739.1142,301 1739.1142,301 C1739.1142,301 1552.6942,301 1471.4942,301 " fill="none" id="Profile-Manager" style="stroke:#181818;stroke-width:1.0;"/><polygon fill="#000000" points="1614.0234,291.2709,1604.5257,290.7759,1606.0487,296.453,1614.0234,291.2709" style="stroke:#000000;stroke-width:1.0;"/><text fill="#000000" font-family="sans-serif" font-size="13" lengthAdjust="spacing" textLength="22" x="1618.1942" y="297.0669">is a</text><text fill="#000000" font-family="sans-serif" font-size="13" lengthAdjust="spacing" textLength="8" x="1726.8652" y="249.4458">1</text><text fill="#000000" font-family="sans-serif" font-size="13" lengthAdjust="spacing" textLength="8" x="1479.3193" y="295.4778">1</text></g><!--link Profile to Admin--><g id="link_Profile_Admin"><path codeLine="102" d="M1757.7742,229.24 C1757.7742,258.57 1757.7742,313 1757.7742,313 C1757.7742,313 1781.4142,313 1801.7242,313 " fill="none" id="Profile-Admin" style="stroke:#181818;stroke-width:1.0;"/><polygon fill="#000000" points="1723.451,280.2289,1725.0512,289.6039,1730.2561,286.8728,1723.451,280.2289" style="stroke:#000000;stroke-width:1.0;"/><text fill="#000000" font-family="sans-serif" font-size="13" lengthAdjust="spacing" textLength="22" x="1734.7742" y="289.1569">is a</text><text fill="#000000" font-family="sans-serif" font-size="13" lengthAdjust="spacing" textLength="8" x="1751.4731" y="249.4854">1</text><text fill="#000000" font-family="sans-serif" font-size="13" lengthAdjust="spacing" textLength="8" x="1785.7487" y="309.6813">1</text></g><!--link Profile to User--><g id="link_Profile_User"><path codeLine="103" d="M1720.3142,211 C1708.0642,211 1696.4442,211 1696.4442,211 C1696.4442,211 1696.4442,1460 1696.4442,1625.88 " fill="none" id="Profile-User" style="stroke:#181818;stroke-width:1.0;"/><polygon fill="#000000" points="1664.5285,893.0771,1661.4374,902.0713,1667.3144,902.1705,1664.5285,893.0771" style="stroke:#000000;stroke-width:1.0;"/><text fill="#000000" font-family="sans-serif" font-size="13" lengthAdjust="spacing" textLength="22" x="1673.4442" y="902.5769">is a</text><text fill="#000000" font-family="sans-serif" font-size="13" lengthAdjust="spacing" textLength="8" x="1704.4825" y="206.2188">1</text><text fill="#000000" font-family="sans-serif" font-size="13" lengthAdjust="spacing" textLength="8" x="1693.0379" y="1615.0756">1</text></g><!--link Manager to Project--><g id="link_Manager_Project"><path codeLine="105" d="M1397.3442,307 C1247.6842,307 696.4442,307 696.4442,307 C696.4442,307 696.4442,513.96 696.4442,626.74 " fill="none" id="Manager-Project" style="stroke:#181818;stroke-width:1.0;"/><polygon fill="#000000" points="824.4751,300.6416,833.9242,299.5614,831.4846,294.2137,824.4751,300.6416" style="stroke:#000000;stroke-width:1.0;"/><text fill="#000000" font-family="sans-serif" font-size="13" lengthAdjust="spacing" textLength="48" x="838.0242" y="303.0669">creates</text><text fill="#000000" font-family="sans-serif" font-size="13" lengthAdjust="spacing" textLength="8" x="1381.5095" y="302.6216">1</text><text fill="#000000" font-family="sans-serif" font-size="13" lengthAdjust="spacing" textLength="7" x="689.0996" y="616.042">*</text></g><!--link Manager to Resource--><g id="link_Manager_Resource"><path codeLine="106" d="M1434.4442,325.2 C1434.4442,341.07 1434.4442,364.63 1434.4442,384.71 " fill="none" id="Manager-Resource" style="stroke:#181818;stroke-width:1.0;"/><polygon fill="#000000" points="1439.4442,351.5264,1442.3831,342.4813,1436.5052,342.4813,1439.4442,351.5264" style="stroke:#000000;stroke-width:1.0;"/><text fill="#000000" font-family="sans-serif" font-size="13" lengthAdjust="spacing" textLength="60" x="1448.4442" y="351.0269">manages</text><text fill="#000000" font-family="sans-serif" font-size="13" lengthAdjust="spacing" textLength="8" x="1425.1692" y="345.4326">1</text><text fill="#000000" font-family="sans-serif" font-size="13" lengthAdjust="spacing" textLength="7" x="1426.8426" y="373.8161">*</text></g><!--link User to Resource--><g id="link_User_Resource"><path codeLine="108" d="M1666.7742,1625.77 C1666.7742,1475.93 1666.7742,453 1666.7742,453 C1666.7742,453 1587.0142,453 1520.9542,453 " fill="none" id="User-Resource" style="stroke:#181818;stroke-width:1.0;"/><polygon fill="#000000" points="1635.3911,962.9982,1637.1915,953.6596,1631.3586,954.3849,1635.3911,962.9982" style="stroke:#000000;stroke-width:1.0;"/><text fill="#000000" font-family="sans-serif" font-size="13" lengthAdjust="spacing" textLength="22" x="1643.7742" y="962.5369">is a</text><text fill="#000000" font-family="sans-serif" font-size="13" lengthAdjust="spacing" textLength="8" x="1664.7315" y="1614.932">1</text><text fill="#000000" font-family="sans-serif" font-size="13" lengthAdjust="spacing" textLength="8" x="1529.0152" y="452.0238">1</text></g><!--link Resource to apoint39--><g id="link_Resource_apoint39"><path d="M1347.9242,424 C1301.3842,424 1253.4442,424 1253.4442,424 C1253.4442,424 1253.4442,526.41 1253.4442,542.41 " fill="none" id="Resource-apoint39" style="stroke:#181818;stroke-width:1.0;"/><text fill="#000000" font-family="sans-serif" font-size="13" lengthAdjust="spacing" textLength="55" x="1197.4442" y="417.0369">works as</text><polygon fill="#000000" points="1200.8257,431.5776,1208.7643,426.3403,1204.1698,422.6743,1200.8257,431.5776" style="stroke:#000000;stroke-width:1.0;"/><text fill="#000000" font-family="sans-serif" font-size="13" lengthAdjust="spacing" textLength="39" x="1211.9442" y="432.1697">role in</text><text fill="#000000" font-family="sans-serif" font-size="13" lengthAdjust="spacing" textLength="7" x="1332.9067" y="420.441">*</text></g><!--link apoint39 to Project--><g id="link_apoint39_Project"><path d="M1253.4442,546.75 C1253.4442,562.18 1253.4442,652 1253.4442,652 C1253.4442,652 947.4342,652 789.0442,652 " fill="none" id="apoint39-Project" style="stroke:#181818;stroke-width:1.0;"/><text fill="#000000" font-family="sans-serif" font-size="13" lengthAdjust="spacing" textLength="8" x="797.0438" y="644.6264">1</text></g><!--link apoint39 to RoleAssignment--><g id="link_apoint39_RoleAssignment"><path d="M1255.5542,545 C1260.7342,545 1274.8542,545 1290.8442,545 " fill="none" id="apoint39-RoleAssignment" style="stroke:#181818;stroke-width:1.0;stroke-dasharray:7.0,7.0;"/></g><!--link RoleType to ProductOwner--><g id="link_RoleType_ProductOwner"><path codeLine="112" d="M1382.4442,720.8 C1382.4442,753.14 1382.4442,811.71 1382.4442,841.31 " fill="none" id="RoleType-ProductOwner" style="stroke:#181818;stroke-width:1.0;"/><text fill="#000000" font-family="sans-serif" font-size="13" lengthAdjust="spacing" textLength="7" x="1381.416" y="740.3182">*</text><text fill="#000000" font-family="sans-serif" font-size="13" lengthAdjust="spacing" textLength="8" x="1359.4379" y="830.4842">1</text></g><!--link RoleType to ProjectManager--><g id="link_RoleType_ProjectManager"><path codeLine="113" d="M1314.7342,698 C1250.1442,698 1129.4442,698 1129.4442,698 C1129.4442,698 1129.4442,799.05 1129.4442,841.29 " fill="none" id="RoleType-ProjectManager" style="stroke:#181818;stroke-width:1.0;"/><text fill="#000000" font-family="sans-serif" font-size="13" lengthAdjust="spacing" textLength="7" x="1300.0374" y="693.779">*</text><text fill="#000000" font-family="sans-serif" font-size="13" lengthAdjust="spacing" textLength="8" x="1120.2192" y="830.4581">1</text></g><!--link RoleType to ScrumMaster--><g id="link_RoleType_ScrumMaster"><path codeLine="114" d="M1394.3742,698 C1448.4842,698 1538.4442,698 1538.4442,698 C1538.4442,698 1538.4442,799.05 1538.4442,841.29 " fill="none" id="RoleType-ScrumMaster" style="stroke:#181818;stroke-width:1.0;"/><text fill="#000000" font-family="sans-serif" font-size="13" lengthAdjust="spacing" textLength="7" x="1401.8387" y="693.8242">*</text><text fill="#000000" font-family="sans-serif" font-size="13" lengthAdjust="spacing" textLength="8" x="1519.1129" y="830.4581">1</text></g><!--link RoleType to TeamMember--><g id="link_RoleType_TeamMember"><path codeLine="115" d="M1325.1942,720.8 C1325.1942,753.14 1325.1942,811.71 1325.1942,841.31 " fill="none" id="RoleType-TeamMember" style="stroke:#181818;stroke-width:1.0;"/><text fill="#000000" font-family="sans-serif" font-size="13" lengthAdjust="spacing" textLength="7" x="1310.2113" y="740.3182">*</text><text fill="#000000" font-family="sans-serif" font-size="13" lengthAdjust="spacing" textLength="8" x="1329.6738" y="830.4842">1</text></g><!--link RoleAssignment to RoleType--><g id="link_RoleAssignment_RoleType"><path codeLine="117" d="M1354.4442,567.15 C1354.4442,596.17 1354.4442,646.19 1354.4442,675.26 " fill="none" id="RoleAssignment-RoleType" style="stroke:#181818;stroke-width:1.0;"/><polygon fill="#000000" points="1286.4442,617.7664,1289.3831,608.7213,1283.5052,608.7213,1286.4442,617.7664" style="stroke:#000000;stroke-width:1.0;"/><text fill="#000000" font-family="sans-serif" font-size="13" lengthAdjust="spacing" textLength="58" x="1295.4442" y="617.2669">is type of</text><text fill="#000000" font-family="sans-serif" font-size="13" lengthAdjust="spacing" textLength="7" x="1346.591" y="586.6317">*</text><text fill="#000000" font-family="sans-serif" font-size="13" lengthAdjust="spacing" textLength="8" x="1345.3692" y="664.2723">1</text></g><!--link Project to Sprint--><g id="link_Project_Sprint"><path codeLine="119" d="M630.4442,769.32 C630.4442,801.32 630.4442,832 630.4442,832 C630.4442,832 401.2542,832 294.7142,832 " fill="none" id="Project-Sprint" style="stroke:#181818;stroke-width:1.0;"/><polygon fill="#000000" points="419.0091,824.484,428.4399,825.713,427.3612,819.935,419.0091,824.484" style="stroke:#000000;stroke-width:1.0;"/><text fill="#000000" font-family="sans-serif" font-size="13" lengthAdjust="spacing" textLength="60" x="432.9242" y="828.0669">divided in</text><text fill="#000000" font-family="sans-serif" font-size="13" lengthAdjust="spacing" textLength="8" x="615.2254" y="789.5027">1</text><text fill="#000000" font-family="sans-serif" font-size="13" lengthAdjust="spacing" textLength="7" x="302.3426" y="824.38">*</text></g><!--link Project to ProductBacklog--><g id="link_Project_ProductBacklog"><path codeLine="120" d="M700.9442,769.09 C700.9442,847.29 700.9442,962 700.9442,962 C700.9442,962 1095.4642,962 1250.7342,962 " fill="none" id="Project-ProductBacklog" style="stroke:#181818;stroke-width:1.0;"/><polygon fill="#000000" points="839.1022,955.2219,831.5403,949.454,829.5942,955.0003,839.1022,955.2219" style="stroke:#000000;stroke-width:1.0;"/><text fill="#000000" font-family="sans-serif" font-size="13" lengthAdjust="spacing" textLength="35" x="843.3842" y="958.0669">has a</text><text fill="#000000" font-family="sans-serif" font-size="13" lengthAdjust="spacing" textLength="8" x="692.9957" y="789.249">1</text><text fill="#000000" font-family="sans-serif" font-size="13" lengthAdjust="spacing" textLength="8" x="1235.1364" y="957.4965">1</text></g><!--link Project to ProjectTypology--><g id="link_Project_ProjectTypology"><path codeLine="121" d="M656.9442,769.31 C656.9442,793.64 656.9442,819.14 656.9442,836.79 " fill="none" id="Project-ProjectTypology" style="stroke:#181818;stroke-width:1.0;"/><polygon fill="#000000" points="623.9442,799.6164,626.8831,790.5713,621.0052,790.5713,623.9442,799.6164" style="stroke:#000000;stroke-width:1.0;"/><text fill="#000000" font-family="sans-serif" font-size="13" lengthAdjust="spacing" textLength="23" x="632.9442" y="799.1169">has</text><text fill="#000000" font-family="sans-serif" font-size="13" lengthAdjust="spacing" textLength="7" x="645.5098" y="789.4917">*</text><text fill="#000000" font-family="sans-serif" font-size="13" lengthAdjust="spacing" textLength="7" x="658.5442" y="825.8104">*</text></g><!--link Project to Customer--><g id="link_Project_Customer"><path codeLine="122" d="M765.4442,769.31 C765.4442,802.6 765.4442,835 765.4442,835 C765.4442,835 813.0242,835 859.3942,835 " fill="none" id="Project-Customer" style="stroke:#181818;stroke-width:1.0;"/><polygon fill="#000000" points="750.6719,829.4315,744.9431,821.8399,741.575,826.657,750.6719,829.4315" style="stroke:#000000;stroke-width:1.0;"/><text fill="#000000" font-family="sans-serif" font-size="13" lengthAdjust="spacing" textLength="23" x="755.5742" y="831.0669">has</text><text fill="#000000" font-family="sans-serif" font-size="13" lengthAdjust="spacing" textLength="7" x="765.1988" y="789.4917">*</text><text fill="#000000" font-family="sans-serif" font-size="13" lengthAdjust="spacing" textLength="8" x="843.5695" y="829.3273">1</text></g><!--link Project to BusinessSector--><g id="link_Project_BusinessSector"><path codeLine="123" d="M603.6942,698 C513.9642,698 391.4442,698 391.4442,698 C391.4442,698 391.4442,792.19 391.4442,836.7 " fill="none" id="Project-BusinessSector" style="stroke:#181818;stroke-width:1.0;"/><polygon fill="#000000" points="391.0286,692.3016,400.208,689.8138,396.9927,684.8934,391.0286,692.3016" style="stroke:#000000;stroke-width:1.0;"/><text fill="#000000" font-family="sans-serif" font-size="13" lengthAdjust="spacing" textLength="23" x="404.2142" y="694.0669">has</text><text fill="#000000" font-family="sans-serif" font-size="13" lengthAdjust="spacing" textLength="7" x="589.0242" y="694.4596">*</text><text fill="#000000" font-family="sans-serif" font-size="13" lengthAdjust="spacing" textLength="8" x="382.4192" y="826.0716">1</text></g><!--link Project to ProjectStatus--><g id="link_Project_ProjectStatus"><path codeLine="124" d="M741.9442,769.31 C741.9442,793.64 741.9442,819.14 741.9442,836.79 " fill="none" id="Project-ProjectStatus" style="stroke:#181818;stroke-width:1.0;"/><polygon fill="#000000" points="708.9442,799.6164,711.8831,790.5713,706.0052,790.5713,708.9442,799.6164" style="stroke:#000000;stroke-width:1.0;"/><text fill="#000000" font-family="sans-serif" font-size="13" lengthAdjust="spacing" textLength="23" x="717.9442" y="799.1169">has</text><text fill="#000000" font-family="sans-serif" font-size="13" lengthAdjust="spacing" textLength="7" x="739.2754" y="789.4917">*</text><text fill="#000000" font-family="sans-serif" font-size="13" lengthAdjust="spacing" textLength="7" x="726.0754" y="825.8104">*</text></g><!--link ProductBacklog to UserStory--><g id="link_ProductBacklog_UserStory"><path codeLine="126" d="M1352.6142,986.38 C1352.6142,1033.49 1352.6142,1160.28 1352.6142,1237.77 " fill="none" id="ProductBacklog-UserStory" style="stroke:#181818;stroke-width:1.0;"/><polygon fill="#000000" points="1288.6142,1108.6364,1291.5531,1099.5913,1285.6752,1099.5913,1288.6142,1108.6364" style="stroke:#000000;stroke-width:1.0;"/><text fill="#000000" font-family="sans-serif" font-size="13" lengthAdjust="spacing" textLength="54" x="1297.6142" y="1108.1369">contains</text><text fill="#000000" font-family="sans-serif" font-size="13" lengthAdjust="spacing" textLength="8" x="1355.6912" y="1006.3475">1</text><text fill="#000000" font-family="sans-serif" font-size="13" lengthAdjust="spacing" textLength="7" x="1342.1874" y="1227.1038">*</text></g><!--link Sprint to ScrumCeremony--><g id="link_Sprint_ScrumCeremony"><path codeLine="128" d="M241.4442,890.01 C241.4442,909.32 241.4442,933.62 241.4442,949.92 " fill="none" id="Sprint-ScrumCeremony" style="stroke:#181818;stroke-width:1.0;"/><polygon fill="#000000" points="246.4442,916.5264,249.3831,907.4813,243.5052,907.4813,246.4442,916.5264" style="stroke:#000000;stroke-width:1.0;"/><text fill="#000000" font-family="sans-serif" font-size="13" lengthAdjust="spacing" textLength="23" x="255.4442" y="916.0269">has</text><text fill="#000000" font-family="sans-serif" font-size="13" lengthAdjust="spacing" textLength="8" x="232.6192" y="909.9414">1</text><text fill="#000000" font-family="sans-serif" font-size="13" lengthAdjust="spacing" textLength="7" x="233.3285" y="938.8071">*</text></g><!--link Sprint to SprintBacklog--><g id="link_Sprint_SprintBacklog"><path codeLine="129" d="M294.6642,886 C377.5142,886 527.9442,886 527.9442,886 C527.9442,886 527.9442,1080.16 527.9442,1141.6 " fill="none" id="Sprint-SprintBacklog" style="stroke:#181818;stroke-width:1.0;"/><polygon fill="#000000" points="498.3148,892.4195,494.388,883.7574,490.0465,887.7198,498.3148,892.4195" style="stroke:#000000;stroke-width:1.0;"/><text fill="#000000" font-family="sans-serif" font-size="13" lengthAdjust="spacing" textLength="23" x="503.9442" y="893.2269">has</text><text fill="#000000" font-family="sans-serif" font-size="13" lengthAdjust="spacing" textLength="8" x="302.3531" y="885.6363">1</text><text fill="#000000" font-family="sans-serif" font-size="13" lengthAdjust="spacing" textLength="8" x="521.5598" y="1131.0347">1</text></g><!--link SprintBacklog to UserStory--><g id="link_SprintBacklog_UserStory"><path codeLine="131" d="M573.0442,1160 C755.2842,1160 1331.2742,1160 1331.2742,1160 C1331.2742,1160 1331.2742,1200.38 1331.2742,1237.92 " fill="none" id="SprintBacklog-UserStory" style="stroke:#181818;stroke-width:1.0;"/><polygon fill="#000000" points="932.098,1152.0775,923.4007,1148.2294,922.7998,1154.0764,932.098,1152.0775" style="stroke:#000000;stroke-width:1.0;"/><text fill="#000000" font-family="sans-serif" font-size="13" lengthAdjust="spacing" textLength="54" x="936.1242" y="1156.0669">contains</text><text fill="#000000" font-family="sans-serif" font-size="13" lengthAdjust="spacing" textLength="8" x="580.9185" y="1156.0481">1</text><text fill="#000000" font-family="sans-serif" font-size="13" lengthAdjust="spacing" textLength="7" x="1318.1842" y="1226.8292">*</text></g><!--link ScrumCeremony to SprintPlanning--><g id="link_ScrumCeremony_SprintPlanning"><path codeLine="133" d="M306.0042,974 C350.7942,974 402.4442,974 402.4442,974 C402.4442,974 402.4442,1019.49 402.4442,1045.79 " fill="none" id="ScrumCeremony-SprintPlanning" style="stroke:#181818;stroke-width:1.0;"/><polygon fill="#000000" points="318.1034,962.5808,323.604,970.3393,327.1138,965.6244,318.1034,962.5808" style="stroke:#000000;stroke-width:1.0;"/><text fill="#000000" font-family="sans-serif" font-size="13" lengthAdjust="spacing" textLength="58" x="331.1142" y="970.0669">is type of</text><text fill="#000000" font-family="sans-serif" font-size="13" lengthAdjust="spacing" textLength="8" x="313.9314" y="970.884">1</text><text fill="#000000" font-family="sans-serif" font-size="13" lengthAdjust="spacing" textLength="8" x="391.3817" y="1034.9581">1</text></g><!--link ScrumCeremony to SprintReview--><g id="link_ScrumCeremony_SprintReview"><path codeLine="134" d="M176.4842,968 C131.4142,968 79.4442,968 79.4442,968 C79.4442,968 79.4442,1018.13 79.4442,1045.94 " fill="none" id="ScrumCeremony-SprintReview" style="stroke:#181818;stroke-width:1.0;"/><polygon fill="#000000" points="24.8925,956.4354,16,959.8081,19.6807,964.3908,24.8925,956.4354" style="stroke:#000000;stroke-width:1.0;"/><text fill="#000000" font-family="sans-serif" font-size="13" lengthAdjust="spacing" textLength="58" x="29.9942" y="964.0669">is type of</text><text fill="#000000" font-family="sans-serif" font-size="13" lengthAdjust="spacing" textLength="8" x="160.9417" y="964.2376">1</text><text fill="#000000" font-family="sans-serif" font-size="13" lengthAdjust="spacing" textLength="8" x="70.1692" y="1034.8335">1</text></g><!--link ScrumCeremony to SprintRetrospective--><g id="link_ScrumCeremony_SprintRetrospective"><path codeLine="135" d="M241.4442,986.06 C241.4442,1003.11 241.4442,1028.56 241.4442,1045.7 " fill="none" id="ScrumCeremony-SprintRetrospective" style="stroke:#181818;stroke-width:1.0;"/><polygon fill="#000000" points="246.4442,1002.4464,243.5052,1011.4915,249.3831,1011.4915,246.4442,1002.4464" style="stroke:#000000;stroke-width:1.0;"/><text fill="#000000" font-family="sans-serif" font-size="13" lengthAdjust="spacing" textLength="58" x="255.4442" y="1011.9469">is type of</text><text fill="#000000" font-family="sans-serif" font-size="13" lengthAdjust="spacing" textLength="8" x="232.1692" y="1006.248">1</text><text fill="#000000" font-family="sans-serif" font-size="13" lengthAdjust="spacing" textLength="8" x="232.2192" y="1034.8405">1</text></g><!--link SprintPlanning to SprintBacklog--><g id="link_SprintPlanning_SprintBacklog"><path codeLine="138" d="M465.1742,1064 C482.2042,1064 496.4442,1064 496.4442,1064 C496.4442,1064 496.4442,1114.13 496.4442,1141.94 " fill="none" id="SprintPlanning-SprintBacklog" style="stroke:#181818;stroke-width:1.0;"/><polygon fill="#000000" points="442.3059,1100.5369,441.6655,1091.0479,436.2104,1093.2365,442.3059,1100.5369" style="stroke:#000000;stroke-width:1.0;"/><text fill="#000000" font-family="sans-serif" font-size="13" lengthAdjust="spacing" textLength="46" x="449.4442" y="1100.3969">defines</text><text fill="#000000" font-family="sans-serif" font-size="13" lengthAdjust="spacing" textLength="8" x="472.9552" y="1060.0954">1</text><text fill="#000000" font-family="sans-serif" font-size="13" lengthAdjust="spacing" textLength="8" x="480.1567" y="1130.8335">1</text></g><!--link UserStory to Task--><g id="link_UserStory_Task"><path codeLine="140" d="M1399.4442,1364.25 C1399.4442,1383.27 1399.4442,1404.27 1399.4442,1423.77 " fill="none" id="UserStory-Task" style="stroke:#181818;stroke-width:1.0;"/><polygon fill="#000000" points="1404.4442,1390.5764,1407.3831,1381.5313,1401.5052,1381.5313,1404.4442,1390.5764" style="stroke:#000000;stroke-width:1.0;"/><text fill="#000000" font-family="sans-serif" font-size="13" lengthAdjust="spacing" textLength="23" x="1413.4442" y="1390.0769">has</text><text fill="#000000" font-family="sans-serif" font-size="13" lengthAdjust="spacing" textLength="24" x="1376.2098" y="1384.0582">0..1</text><text fill="#000000" font-family="sans-serif" font-size="13" lengthAdjust="spacing" textLength="7" x="1388.3707" y="1412.7054">*</text></g><!--link Task to User--><g id="link_Task_User"><path codeLine="142" d="M1523.1442,1495 C1586.3642,1495 1660.6142,1495 1660.6142,1495 C1660.6142,1495 1660.6142,1585.94 1660.6142,1625.73 " fill="none" id="Task-User" style="stroke:#181818;stroke-width:1.0;"/><polygon fill="#000000" points="1572.6209,1483.1208,1577.1501,1491.4836,1581.2007,1487.2243,1572.6209,1483.1208" style="stroke:#000000;stroke-width:1.0;"/><text fill="#000000" font-family="sans-serif" font-size="13" lengthAdjust="spacing" textLength="71" x="1585.2442" y="1491.0669">is assigned</text><text fill="#000000" font-family="sans-serif" font-size="13" lengthAdjust="spacing" textLength="7" x="1530.9817" y="1491.412">*</text><text fill="#000000" font-family="sans-serif" font-size="13" lengthAdjust="spacing" textLength="8" x="1646.235" y="1614.8797">1</text></g><!--link ProductOwner to ProductBacklog--><g id="link_ProductOwner_ProductBacklog"><path codeLine="144" d="M1370.7942,860 C1360.6242,860 1353.1942,860 1353.1942,860 C1353.1942,860 1353.1942,918.87 1353.1942,949.68 " fill="none" id="ProductOwner-ProductBacklog" style="stroke:#181818;stroke-width:1.0;"/><polygon fill="#000000" points="1282.2313,892.5128,1286.8571,884.203,1281.0892,883.0711,1282.2313,892.5128" style="stroke:#000000;stroke-width:1.0;"/><text fill="#000000" font-family="sans-serif" font-size="13" lengthAdjust="spacing" textLength="60" x="1292.1942" y="892.1069">manages</text><text fill="#000000" font-family="sans-serif" font-size="13" lengthAdjust="spacing" textLength="8" x="1355.0234" y="856.1595">1</text><text fill="#000000" font-family="sans-serif" font-size="13" lengthAdjust="spacing" textLength="8" x="1356.4488" y="938.8144">1</text></g><!--link ProductOwner to UserStory--><g id="link_ProductOwner_UserStory"><path codeLine="146" d="M1412.4442,877.63 C1412.4442,938.15 1412.4442,1135.19 1412.4442,1237.71 " fill="none" id="ProductOwner-UserStory" style="stroke:#181818;stroke-width:1.0;"/><polygon fill="#000000" points="1354.4442,1054.2364,1357.3831,1045.1913,1351.5052,1045.1913,1354.4442,1054.2364" style="stroke:#000000;stroke-width:1.0;"/><text fill="#000000" font-family="sans-serif" font-size="13" lengthAdjust="spacing" textLength="48" x="1363.4442" y="1053.7369">creates</text><text fill="#000000" font-family="sans-serif" font-size="13" lengthAdjust="spacing" textLength="8" x="1398.3879" y="897.8403">1</text><text fill="#000000" font-family="sans-serif" font-size="13" lengthAdjust="spacing" textLength="7" x="1408.5613" y="1227.0372">*</text></g><!--SRC=[lLRBRjim4BphAmXVya1Z9BtL208uReeMQ9eWTazD3morabbBf41IIOoY_vuLALAKhBZj9RvOuWxtCRiSwg20p10ZYUBvsf2KAs26Iv7e3HSLLRGa1HTWjXKGgSnQ9id1GWe6bQbfGLX1jGPDJjxWbyY7NvWScJCcQs78xuJWJz0Ix0ESb9GNzh72f9waIjtBMWhuLfSFeFmxbZiZFqwdqxEVTkd0FHCkKiwemNfarP102swsvF0hLIKLv1FFQmNam_JzwP7TfWqrjKx- -CHkbSnu0PXOMFgkGSNlrrJGlByqJqikueKbKtLvJRLfSKseBaBpF-85BMdDpCsJwA-lW9RNq1G_GDj_Ho6JAVIvJ44pnIq7hj9ASM4-reg69M4PlSbk2oe4f4kBqDRqKASv64SsA2xJdS1BorpKm01OrDh84jIWkOO-Vqb169ur3S8SseQ6VPUrnZ7LUealKervRaEljfKiPBuTWxWYMbRQrBloXo4T-fAo3VhhSKxrPZYTGqOZxsjPAxsii3etnrc61-rA6rxYA7emGpFs_2QxUWPMTutP7S5c34QIibEr00Mb5DkUmPPXsyX5lckvWqSEJsFhHabTDNBns9lvErd0N6kUYnA6RFP0gqPKnlhGd9ebjd7hhTtffKrxxLFjGIjuDgsjaIMAuhHG74yFfp577RTH5g2HV0QxBMTIcrjGdz6yqu9vKKWtXUX9I0DEF6Vkj5DdXPJS8w6aScE7iecSICRjlhSHp5OslLvEZYSObapE9bwePcHDDRb84h-0jXOIb6f6k2QKd8zXd7JjGrX60Y3nJZq2C_9ID2DCWTNUYp5OwDICbDPgyxRket0HgWqPLhhgev1uIMmGf- -5mdb4_KUdXtxBEmyy8jFfOAgJ90nmtt4GuTS0aNwFGYBr7xLtWkvoY4vQX0exBH7kzixQJjlQ8sfRrPlXvV_8KvnRIyCGs9NdnSLD3usnnyEsUhKDepQ4ebil-VimVNb_5Ta5TZTCRyBZtAFoEx714PHunBcmErfQOg9w4kfT3t1day7545BeB_zB1hruEm62PFTwVFwtRQsU_- -cMEm7Utrf8Q4zNAIGDOtqXzULFMa-lm8TzleChDctQ18YHR6JZ_Dw7jhhFd_sZMma7gDxudR4afGaBm00]--></g></svg>