<?xml version="1.0" encoding="us-ascii" standalone="no"?><svg xmlns="http://www.w3.org/2000/svg" xmlns:xlink="http://www.w3.org/1999/xlink" contentStyleType="text/css" height="847px" preserveAspectRatio="none" style="width:2134px;height:847px;background:#FFFFFF;" version="1.1" viewBox="0 0 2134 847" width="2134px" zoomAndPan="magnify"><defs/><g><text fill="#000000" font-family="sans-serif" font-size="14" font-weight="bold" lengthAdjust="spacing" textLength="593" x="772.25" y="27.9951">US014 - As Manager, I want to get a list of all human resources in a project</text><rect fill="#FFFFFF" height="583.6719" style="stroke:#181818;stroke-width:1.0;" width="10" x="299.5" y="164.8594"/><rect fill="#FFFFFF" height="525.4063" style="stroke:#181818;stroke-width:1.0;" width="10" x="643.5" y="193.9922"/><rect fill="#FFFFFF" height="467.1406" style="stroke:#181818;stroke-width:1.0;" width="10" x="987.5" y="223.125"/><rect fill="#FFFFFF" height="29.1328" style="stroke:#181818;stroke-width:1.0;" width="10" x="1406.5" y="326.1484"/><rect fill="#FFFFFF" height="276.7188" style="stroke:#181818;stroke-width:1.0;" width="10" x="1610" y="384.4141"/><rect fill="#FFFFFF" height="30" style="stroke:#181818;stroke-width:1.0;" width="10" x="2041" y="595"/><rect fill="none" height="175.9922" style="stroke:#000000;stroke-width:1.5;" width="637" x="1491.5" y="457.0078"/><line style="stroke:#181818;stroke-width:0.5;stroke-dasharray:5.0,5.0;" x1="40" x2="40" y1="118.5938" y2="766.5313"/><line style="stroke:#181818;stroke-width:0.5;stroke-dasharray:5.0,5.0;" x1="304.5" x2="304.5" y1="118.5938" y2="766.5313"/><line style="stroke:#181818;stroke-width:0.5;stroke-dasharray:5.0,5.0;" x1="648" x2="648" y1="118.5938" y2="766.5313"/><line style="stroke:#181818;stroke-width:0.5;stroke-dasharray:5.0,5.0;" x1="992.5" x2="992.5" y1="118.5938" y2="766.5313"/><line style="stroke:#181818;stroke-width:0.5;stroke-dasharray:5.0,5.0;" x1="1259.5" x2="1259.5" y1="278.0703" y2="766.5313"/><line style="stroke:#181818;stroke-width:0.5;stroke-dasharray:5.0,5.0;" x1="1411.5" x2="1411.5" y1="118.5938" y2="766.5313"/><line style="stroke:#181818;stroke-width:0.5;stroke-dasharray:5.0,5.0;" x1="1614.5" x2="1614.5" y1="118.5938" y2="766.5313"/><line style="stroke:#181818;stroke-width:0.5;stroke-dasharray:5.0,5.0;" x1="1904.5" x2="1904.5" y1="555.0703" y2="766.5313"/><line style="stroke:#181818;stroke-width:0.5;stroke-dasharray:5.0,5.0;" x1="2045.5" x2="2045.5" y1="431.2109" y2="766.5313"/><text fill="#000000" font-family="sans-serif" font-size="14" lengthAdjust="spacing" textLength="65" x="5" y="115.292">:Manager</text><ellipse cx="40.5" cy="50.7969" fill="#FFFFFF" rx="8" ry="8" style="stroke:#181818;stroke-width:0.5;"/><path d="M40.5,58.7969 L40.5,85.7969 M27.5,66.7969 L53.5,66.7969 M40.5,85.7969 L27.5,100.7969 M40.5,85.7969 L53.5,100.7969 " fill="none" style="stroke:#181818;stroke-width:0.5;"/><text fill="#000000" font-family="sans-serif" font-size="14" lengthAdjust="spacing" textLength="65" x="5" y="778.5264">:Manager</text><ellipse cx="40.5" cy="790.3281" fill="#FFFFFF" rx="8" ry="8" style="stroke:#181818;stroke-width:0.5;"/><path d="M40.5,798.3281 L40.5,825.3281 M27.5,806.3281 L53.5,806.3281 M40.5,825.3281 L27.5,840.3281 M40.5,825.3281 L53.5,840.3281 " fill="none" style="stroke:#181818;stroke-width:0.5;"/><rect fill="#FFFFFF" height="30.2969" rx="2.5" ry="2.5" style="stroke:#181818;stroke-width:0.5;" width="190" x="209.5" y="87.2969"/><text fill="#000000" font-family="sans-serif" font-size="14" lengthAdjust="spacing" textLength="176" x="216.5" y="107.292">:ListResourcesInProjectUI</text><rect fill="#FFFFFF" height="30.2969" rx="2.5" ry="2.5" style="stroke:#181818;stroke-width:0.5;" width="190" x="209.5" y="765.5313"/><text fill="#000000" font-family="sans-serif" font-size="14" lengthAdjust="spacing" textLength="176" x="216.5" y="785.5264">:ListResourcesInProjectUI</text><rect fill="#FFFFFF" height="46.5938" rx="2.5" ry="2.5" style="stroke:#181818;stroke-width:0.5;" width="233" x="532" y="71"/><text fill="#000000" font-family="sans-serif" font-size="14" lengthAdjust="spacing" textLength="85" x="604" y="90.9951">&#171;Controller&#187;</text><text fill="#000000" font-family="sans-serif" font-size="14" lengthAdjust="spacing" textLength="219" x="539" y="107.292">:ListHumanResourcesController</text><rect fill="#FFFFFF" height="46.5938" rx="2.5" ry="2.5" style="stroke:#181818;stroke-width:0.5;" width="233" x="532" y="765.5313"/><text fill="#000000" font-family="sans-serif" font-size="14" lengthAdjust="spacing" textLength="85" x="604" y="785.5264">&#171;Controller&#187;</text><text fill="#000000" font-family="sans-serif" font-size="14" lengthAdjust="spacing" textLength="219" x="539" y="801.8232">:ListHumanResourcesController</text><rect fill="#FFFFFF" height="46.5938" rx="2.5" ry="2.5" style="stroke:#181818;stroke-width:0.5;" width="136" x="924.5" y="71"/><text fill="#000000" font-family="sans-serif" font-size="14" lengthAdjust="spacing" textLength="68" x="958.5" y="90.9951">&#171;Service&#187;</text><text fill="#000000" font-family="sans-serif" font-size="14" lengthAdjust="spacing" textLength="122" x="931.5" y="107.292">:ResourceService</text><rect fill="#FFFFFF" height="46.5938" rx="2.5" ry="2.5" style="stroke:#181818;stroke-width:0.5;" width="136" x="924.5" y="765.5313"/><text fill="#000000" font-family="sans-serif" font-size="14" lengthAdjust="spacing" textLength="68" x="958.5" y="785.5264">&#171;Service&#187;</text><text fill="#000000" font-family="sans-serif" font-size="14" lengthAdjust="spacing" textLength="122" x="931.5" y="801.8232">:ResourceService</text><rect fill="#FFFFFF" height="62.8906" rx="2.5" ry="2.5" style="stroke:#181818;stroke-width:0.5;" width="123" x="1198.5" y="765.5313"/><text fill="#000000" font-family="sans-serif" font-size="14" lengthAdjust="spacing" textLength="105" x="1205.5" y="785.5264">&#171;Value Object&#187;</text><text fill="#000000" font-family="sans-serif" font-size="14" lengthAdjust="spacing" textLength="85" x="1215.5" y="801.8232">projectCode</text><text fill="#000000" font-family="sans-serif" font-size="14" lengthAdjust="spacing" textLength="90" x="1215" y="818.1201">:ProjectCode</text><rect fill="#FFFFFF" height="46.5938" rx="2.5" ry="2.5" style="stroke:#181818;stroke-width:0.5;" width="160" x="1331.5" y="71"/><text fill="#000000" font-family="sans-serif" font-size="14" lengthAdjust="spacing" textLength="92" x="1363.5" y="90.9951">&#171;Repository&#187;</text><text fill="#000000" font-family="sans-serif" font-size="14" lengthAdjust="spacing" textLength="146" x="1338.5" y="107.292">:ResourceRepository</text><rect fill="#FFFFFF" height="46.5938" rx="2.5" ry="2.5" style="stroke:#181818;stroke-width:0.5;" width="160" x="1331.5" y="765.5313"/><text fill="#000000" font-family="sans-serif" font-size="14" lengthAdjust="spacing" textLength="92" x="1363.5" y="785.5264">&#171;Repository&#187;</text><text fill="#000000" font-family="sans-serif" font-size="14" lengthAdjust="spacing" textLength="146" x="1338.5" y="801.8232">:ResourceRepository</text><rect fill="#FFFFFF" height="30.2969" rx="2.5" ry="2.5" style="stroke:#181818;stroke-width:0.5;" width="227" x="1501.5" y="87.2969"/><text fill="#000000" font-family="sans-serif" font-size="14" lengthAdjust="spacing" textLength="213" x="1508.5" y="107.292">:ResourcesInProjectAssembler</text><rect fill="#FFFFFF" height="30.2969" rx="2.5" ry="2.5" style="stroke:#181818;stroke-width:0.5;" width="227" x="1501.5" y="765.5313"/><text fill="#000000" font-family="sans-serif" font-size="14" lengthAdjust="spacing" textLength="213" x="1508.5" y="785.5264">:ResourcesInProjectAssembler</text><rect fill="#FFFFFF" height="46.5938" rx="2.5" ry="2.5" style="stroke:#181818;stroke-width:0.5;" width="117" x="1846.5" y="765.5313"/><text fill="#000000" font-family="sans-serif" font-size="14" lengthAdjust="spacing" textLength="93" x="1858.5" y="785.5264">resourceDTO</text><text fill="#000000" font-family="sans-serif" font-size="14" lengthAdjust="spacing" textLength="103" x="1853.5" y="801.8232">:ResourceDTO</text><rect fill="#FFFFFF" height="46.5938" rx="2.5" ry="2.5" style="stroke:#181818;stroke-width:0.5;" width="145" x="1973.5" y="765.5313"/><text fill="#000000" font-family="sans-serif" font-size="14" lengthAdjust="spacing" textLength="116" x="1988" y="785.5264">resourceDTOList</text><text fill="#000000" font-family="sans-serif" font-size="14" lengthAdjust="spacing" textLength="131" x="1980.5" y="801.8232">:List&lt;ProjectDTO&gt;</text><rect fill="#FFFFFF" height="583.6719" style="stroke:#181818;stroke-width:1.0;" width="10" x="299.5" y="164.8594"/><rect fill="#FFFFFF" height="525.4063" style="stroke:#181818;stroke-width:1.0;" width="10" x="643.5" y="193.9922"/><rect fill="#FFFFFF" height="467.1406" style="stroke:#181818;stroke-width:1.0;" width="10" x="987.5" y="223.125"/><rect fill="#FFFFFF" height="29.1328" style="stroke:#181818;stroke-width:1.0;" width="10" x="1406.5" y="326.1484"/><rect fill="#FFFFFF" height="276.7188" style="stroke:#181818;stroke-width:1.0;" width="10" x="1610" y="384.4141"/><rect fill="#FFFFFF" height="30" style="stroke:#181818;stroke-width:1.0;" width="10" x="2041" y="595"/><polygon fill="#181818" points="287.5,160.8594,297.5,164.8594,287.5,168.8594,291.5,164.8594" style="stroke:#181818;stroke-width:1.0;"/><line style="stroke:#181818;stroke-width:1.0;" x1="40.5" x2="293.5" y1="164.8594" y2="164.8594"/><text fill="#000000" font-family="sans-serif" font-size="13" font-weight="bold" lengthAdjust="spacing" textLength="9" x="78" y="152.2271">1</text><text fill="#000000" font-family="sans-serif" font-size="13" lengthAdjust="spacing" textLength="154" x="99.5" y="144.6606">request list of all human</text><text fill="#000000" font-family="sans-serif" font-size="13" lengthAdjust="spacing" textLength="171" x="91" y="159.7935">resources in a projectCode</text><polygon fill="#181818" points="631.5,189.9922,641.5,193.9922,631.5,197.9922,635.5,193.9922" style="stroke:#181818;stroke-width:1.0;"/><line style="stroke:#181818;stroke-width:1.0;" x1="309.5" x2="637.5" y1="193.9922" y2="193.9922"/><text fill="#000000" font-family="sans-serif" font-size="13" font-weight="bold" lengthAdjust="spacing" textLength="9" x="319" y="188.9263">2</text><text fill="#000000" font-family="sans-serif" font-size="13" lengthAdjust="spacing" textLength="302" x="332" y="188.9263">listResourcesInProject(projectCodeValue, clock)</text><polygon fill="#181818" points="975.5,219.125,985.5,223.125,975.5,227.125,979.5,223.125" style="stroke:#181818;stroke-width:1.0;"/><line style="stroke:#181818;stroke-width:1.0;" x1="653.5" x2="981.5" y1="223.125" y2="223.125"/><text fill="#000000" font-family="sans-serif" font-size="13" font-weight="bold" lengthAdjust="spacing" textLength="9" x="663" y="218.0591">3</text><text fill="#000000" font-family="sans-serif" font-size="13" lengthAdjust="spacing" textLength="302" x="676" y="218.0591">listResourcesInProject(projectCodeValue, clock)</text><polygon fill="#181818" points="1186.5,248.2578,1196.5,252.2578,1186.5,256.2578,1190.5,252.2578" style="stroke:#181818;stroke-width:1.0;"/><line style="stroke:#181818;stroke-width:1.0;" x1="997.5" x2="1192.5" y1="252.2578" y2="252.2578"/><text fill="#000000" font-family="sans-serif" font-size="13" font-weight="bold" lengthAdjust="spacing" textLength="9" x="1009.5" y="247.1919">4</text><text fill="#000000" font-family="sans-serif" font-size="13" lengthAdjust="spacing" textLength="164" x="1022.5" y="247.1919">create(projectCodeValue)</text><rect fill="#FFFFFF" height="62.8906" rx="2.5" ry="2.5" style="stroke:#181818;stroke-width:0.5;" width="123" x="1198.5" y="231.125"/><text fill="#000000" font-family="sans-serif" font-size="14" lengthAdjust="spacing" textLength="105" x="1205.5" y="251.1201">&#171;Value Object&#187;</text><text fill="#000000" font-family="sans-serif" font-size="14" lengthAdjust="spacing" textLength="85" x="1215.5" y="267.417">projectCode</text><text fill="#000000" font-family="sans-serif" font-size="14" lengthAdjust="spacing" textLength="90" x="1215" y="283.7139">:ProjectCode</text><polygon fill="#181818" points="1394.5,322.1484,1404.5,326.1484,1394.5,330.1484,1398.5,326.1484" style="stroke:#181818;stroke-width:1.0;"/><line style="stroke:#181818;stroke-width:1.0;" x1="997.5" x2="1400.5" y1="326.1484" y2="326.1484"/><text fill="#000000" font-family="sans-serif" font-size="13" font-weight="bold" lengthAdjust="spacing" textLength="9" x="1148" y="321.0825">5</text><text fill="#000000" font-family="sans-serif" font-size="13" lengthAdjust="spacing" textLength="95" x="1161" y="321.0825">findByCriteria()</text><polygon fill="#181818" points="1008.5,351.2813,998.5,355.2813,1008.5,359.2813,1004.5,355.2813" style="stroke:#181818;stroke-width:1.0;"/><line style="stroke:#181818;stroke-width:1.0;stroke-dasharray:2.0,2.0;" x1="1002.5" x2="1410.5" y1="355.2813" y2="355.2813"/><text fill="#000000" font-family="sans-serif" font-size="13" font-weight="bold" lengthAdjust="spacing" textLength="9" x="1159" y="350.2153">6</text><text fill="#000000" font-family="sans-serif" font-size="13" lengthAdjust="spacing" textLength="78" x="1172" y="350.2153">resourceList</text><polygon fill="#181818" points="1598,380.4141,1608,384.4141,1598,388.4141,1602,384.4141" style="stroke:#181818;stroke-width:1.0;"/><line style="stroke:#181818;stroke-width:1.0;" x1="997.5" x2="1604" y1="384.4141" y2="384.4141"/><text fill="#000000" font-family="sans-serif" font-size="13" font-weight="bold" lengthAdjust="spacing" textLength="9" x="1163.25" y="379.3481">7</text><text fill="#000000" font-family="sans-serif" font-size="13" lengthAdjust="spacing" textLength="268" x="1176.25" y="379.3481">resourceInProjectList(resourceListIterator)</text><polygon fill="#181818" points="1961.5,409.5469,1971.5,413.5469,1961.5,417.5469,1965.5,413.5469" style="stroke:#181818;stroke-width:1.0;"/><line style="stroke:#181818;stroke-width:1.0;" x1="1620" x2="1967.5" y1="413.5469" y2="413.5469"/><text fill="#000000" font-family="sans-serif" font-size="13" font-weight="bold" lengthAdjust="spacing" textLength="9" x="1764.75" y="408.481">8</text><text fill="#000000" font-family="sans-serif" font-size="13" lengthAdjust="spacing" textLength="51" x="1777.75" y="408.481">create()</text><rect fill="#FFFFFF" height="46.5938" rx="2.5" ry="2.5" style="stroke:#181818;stroke-width:0.5;" width="145" x="1973.5" y="392.4141"/><text fill="#000000" font-family="sans-serif" font-size="14" lengthAdjust="spacing" textLength="116" x="1988" y="412.4092">resourceDTOList</text><text fill="#000000" font-family="sans-serif" font-size="14" lengthAdjust="spacing" textLength="131" x="1980.5" y="428.7061">:List&lt;ProjectDTO&gt;</text><path d="M1491.5,457.0078 L1568.5,457.0078 L1568.5,464.1406 L1558.5,474.1406 L1491.5,474.1406 L1491.5,457.0078 " fill="#FFFFFF" style="stroke:#000000;stroke-width:1.5;"/><rect fill="none" height="175.9922" style="stroke:#000000;stroke-width:1.5;" width="637" x="1491.5" y="457.0078"/><text fill="#000000" font-family="sans-serif" font-size="13" font-weight="bold" lengthAdjust="spacing" textLength="32" x="1506.5" y="470.0747">loop</text><text fill="#000000" font-family="sans-serif" font-size="11" font-weight="bold" lengthAdjust="spacing" textLength="193" x="1583.5" y="469.2183">[for each resource in iterable]</text><line style="stroke:#181818;stroke-width:1.0;" x1="1620" x2="1662" y1="495.2734" y2="495.2734"/><line style="stroke:#181818;stroke-width:1.0;" x1="1662" x2="1662" y1="495.2734" y2="508.2734"/><line style="stroke:#181818;stroke-width:1.0;" x1="1621" x2="1662" y1="508.2734" y2="508.2734"/><polygon fill="#181818" points="1631,504.2734,1621,508.2734,1631,512.2734,1627,508.2734" style="stroke:#181818;stroke-width:1.0;"/><text fill="#000000" font-family="sans-serif" font-size="13" font-weight="bold" lengthAdjust="spacing" textLength="9" x="1627" y="490.2075">9</text><text fill="#000000" font-family="sans-serif" font-size="13" lengthAdjust="spacing" textLength="253" x="1640" y="490.2075">resourceDTO = generateDTO(resource)</text><polygon fill="#181818" points="1834.5,533.4063,1844.5,537.4063,1834.5,541.4063,1838.5,537.4063" style="stroke:#181818;stroke-width:1.0;"/><line style="stroke:#181818;stroke-width:1.0;stroke-dasharray:2.0,2.0;" x1="1620" x2="1840.5" y1="537.4063" y2="537.4063"/><text fill="#000000" font-family="sans-serif" font-size="13" font-weight="bold" lengthAdjust="spacing" textLength="18" x="1696.75" y="532.3403">10</text><text fill="#000000" font-family="sans-serif" font-size="13" lengthAdjust="spacing" textLength="51" x="1718.75" y="532.3403">create()</text><rect fill="#FFFFFF" height="46.5938" rx="2.5" ry="2.5" style="stroke:#181818;stroke-width:0.5;" width="117" x="1846.5" y="516.2734"/><text fill="#000000" font-family="sans-serif" font-size="14" lengthAdjust="spacing" textLength="93" x="1858.5" y="536.2686">resourceDTO</text><text fill="#000000" font-family="sans-serif" font-size="14" lengthAdjust="spacing" textLength="103" x="1853.5" y="552.5654">:ResourceDTO</text><polygon fill="#181818" points="2029,591,2039,595,2029,599,2033,595" style="stroke:#181818;stroke-width:1.0;"/><line style="stroke:#181818;stroke-width:1.0;" x1="1620" x2="2035" y1="595" y2="595"/><text fill="#000000" font-family="sans-serif" font-size="13" font-weight="bold" lengthAdjust="spacing" textLength="18" x="1761" y="589.9341">11</text><text fill="#000000" font-family="sans-serif" font-size="13" lengthAdjust="spacing" textLength="117" x="1783" y="589.9341">add(resourceDTO)</text><polygon fill="#181818" points="1008.5,657.1328,998.5,661.1328,1008.5,665.1328,1004.5,661.1328" style="stroke:#181818;stroke-width:1.0;"/><line style="stroke:#181818;stroke-width:1.0;stroke-dasharray:2.0,2.0;" x1="1002.5" x2="1614" y1="661.1328" y2="661.1328"/><text fill="#000000" font-family="sans-serif" font-size="13" font-weight="bold" lengthAdjust="spacing" textLength="18" x="1188.75" y="656.0669">12</text><text fill="#000000" font-family="sans-serif" font-size="13" lengthAdjust="spacing" textLength="213" x="1210.75" y="656.0669">list of human resources in Project</text><polygon fill="#181818" points="664.5,686.2656,654.5,690.2656,664.5,694.2656,660.5,690.2656" style="stroke:#181818;stroke-width:1.0;"/><line style="stroke:#181818;stroke-width:1.0;stroke-dasharray:2.0,2.0;" x1="658.5" x2="991.5" y1="690.2656" y2="690.2656"/><text fill="#000000" font-family="sans-serif" font-size="13" font-weight="bold" lengthAdjust="spacing" textLength="18" x="705.5" y="685.1997">13</text><text fill="#000000" font-family="sans-serif" font-size="13" lengthAdjust="spacing" textLength="213" x="727.5" y="685.1997">list of human resources in Project</text><polygon fill="#181818" points="320.5,715.3984,310.5,719.3984,320.5,723.3984,316.5,719.3984" style="stroke:#181818;stroke-width:1.0;"/><line style="stroke:#181818;stroke-width:1.0;stroke-dasharray:2.0,2.0;" x1="314.5" x2="647.5" y1="719.3984" y2="719.3984"/><text fill="#000000" font-family="sans-serif" font-size="13" font-weight="bold" lengthAdjust="spacing" textLength="18" x="361.5" y="714.3325">14</text><text fill="#000000" font-family="sans-serif" font-size="13" lengthAdjust="spacing" textLength="213" x="383.5" y="714.3325">list of human resources in Project</text><polygon fill="#181818" points="51.5,744.5313,41.5,748.5313,51.5,752.5313,47.5,748.5313" style="stroke:#181818;stroke-width:1.0;"/><line style="stroke:#181818;stroke-width:1.0;stroke-dasharray:2.0,2.0;" x1="45.5" x2="303.5" y1="748.5313" y2="748.5313"/><text fill="#000000" font-family="sans-serif" font-size="13" font-weight="bold" lengthAdjust="spacing" textLength="18" x="55" y="743.4653">15</text><text fill="#000000" font-family="sans-serif" font-size="13" lengthAdjust="spacing" textLength="213" x="77" y="743.4653">list of human resources in Project</text><!--SRC=[nLJ1Rjim3BthAuYU4gG5Dc2d80kGPi1gO4MBTDcf5qLc4YsAv4boY_xzA5kM7STTszDqC4pvlST7KfOxI5rmou_Wy4-9Mk0jEiTtk51ofq6WzcYPIoWklB7NN1nsrfGwNnfbB3plfSSEY9vU2bbmxT-2DbbNk4KRNZvCk46UetqlxJjXYc4muwKtkZnkg63cfLS8wuTFdx_05ImSt79DNR6NaC4prGNUm0uzS53IUJ1Ru4h1lZno3HQTAQr01r8JeB3cDmfF-g5tS36DKXV0aonZdPuHv0U9hXgPJD_N4kkiugopK_HijZJQMwCKslaS7dL5lmbUaaQBg2H42ljI3sYVfC3vd6GQTjohcAv-xzD-SLKYt6s2pSf3h7ffSWoExjkmakbyxakji31EKgjUwc8Q5-r-fM1JsElTUTyMpk5nqzJEc-YKrqpjsy-xJbAAOhOKlqeBNO_DdyNCj3llyyDtnkBWuMfEyvnCO4eGEg9qbiuErACUFb5LyzWw2nhjG2ijDNX-HXrYDR1B4Cg8mvYrz20MPpoPV5m8Q0cBtEE9ox0TLKE2pgTfX9z9ZbcVrKuyEDjAdL-_B2tzkbRoKPtQeYzj-mVMhUx9fFd7hjVGL5lWZBe26INWb3KQYjNr1mfn9VNQyGaerHgbmbB65B2bUm6vs2T2c7CeZ9CI6zPEmRIR1hxIjQI3uH2bEiP9uzp-aFofzwxlTnRAytpKsMppqoKed_xLm1pVXA3E6OkZRlwMWQit3lG_8sdz1G00]--></g></svg>