<?xml version="1.0" encoding="us-ascii" standalone="no"?><svg xmlns="http://www.w3.org/2000/svg" xmlns:xlink="http://www.w3.org/1999/xlink" contentStyleType="text/css" height="609px" preserveAspectRatio="none" style="width:525px;height:609px;background:#FFFFFF;" version="1.1" viewBox="0 0 525 609" width="525px" zoomAndPan="magnify"><defs/><g><!--cluster System--><g id="cluster_System"><rect fill="none" height="596" rx="2.5" ry="2.5" style="stroke:#181818;stroke-width:1.0;" width="357" x="162" y="7"/><text fill="#000000" font-family="sans-serif" font-size="14" font-weight="bold" lengthAdjust="spacing" textLength="58" x="311.5" y="21.9951">System</text></g><g id="elem_UC17"><ellipse cx="340.2527" cy="75.8505" fill="#FFFFFF" rx="154.7527" ry="33.3505" style="stroke:#181818;stroke-width:0.5;"/><text fill="#000000" font-family="sans-serif" font-size="14" lengthAdjust="spacing" textLength="244" x="217.0293" y="70.9332">US017: create a user story and add</text><text fill="#000000" font-family="sans-serif" font-size="14" lengthAdjust="spacing" textLength="169" x="256.5293" y="87.23">it to the product backlog</text></g><g id="elem_UC18"><ellipse cx="340.712" cy="174.8424" fill="#FFFFFF" rx="139.712" ry="30.3424" style="stroke:#181818;stroke-width:0.5;"/><text fill="#000000" font-family="sans-serif" font-size="14" lengthAdjust="spacing" textLength="249" x="216.212" y="177.6891">US018: consult the product backlog</text></g><g id="elem_UC19"><ellipse cx="340.4604" cy="261.9921" fill="#FFFFFF" rx="95.4604" ry="21.4921" style="stroke:#181818;stroke-width:0.5;"/><text fill="#000000" font-family="sans-serif" font-size="14" lengthAdjust="spacing" textLength="154" x="263.4604" y="264.8388">US019: create a sprint</text></g><g id="elem_UC20"><ellipse cx="340.4011" cy="353.8802" fill="#FFFFFF" rx="162.4011" ry="34.8802" style="stroke:#181818;stroke-width:0.5;"/><text fill="#000000" font-family="sans-serif" font-size="14" lengthAdjust="spacing" textLength="209" x="235.9011" y="348.5785">US020: add a user story in the</text><text fill="#000000" font-family="sans-serif" font-size="14" lengthAdjust="spacing" textLength="258" x="213.4011" y="364.8753">product backlog to the sprint backlog</text></g><g id="elem_UC21"><ellipse cx="340.3304" cy="454.0661" fill="#FFFFFF" rx="138.3304" ry="30.0661" style="stroke:#181818;stroke-width:0.5;"/><text fill="#000000" font-family="sans-serif" font-size="14" lengthAdjust="spacing" textLength="199" x="235.8304" y="449.6652">US021: estimate the effort of</text><text fill="#000000" font-family="sans-serif" font-size="14" lengthAdjust="spacing" textLength="152" x="261.3304" y="465.9621">a user story in a sprint</text></g><g id="elem_UC22"><ellipse cx="340.5505" cy="553.1101" fill="#FFFFFF" rx="158.5505" ry="34.1101" style="stroke:#181818;stroke-width:0.5;"/><text fill="#000000" font-family="sans-serif" font-size="14" lengthAdjust="spacing" textLength="249" x="214.0505" y="547.8083">US022: view the Scrum Board of the</text><text fill="#000000" font-family="sans-serif" font-size="14" lengthAdjust="spacing" textLength="93" x="294.0505" y="564.1052">current sprint</text></g><!--entity PO--><g id="elem_PO"><ellipse cx="62" cy="40.5" fill="#FFFFFF" rx="8" ry="8" style="stroke:#181818;stroke-width:0.5;"/><path d="M62,48.5 L62,75.5 M49,56.5 L75,56.5 M62,75.5 L49,90.5 M62,75.5 L75,90.5 " fill="none" style="stroke:#181818;stroke-width:0.5;"/><text fill="#000000" font-family="sans-serif" font-size="14" lengthAdjust="spacing" textLength="103" x="10.5" y="104.9951">Product Owner</text></g><!--entity SM--><g id="elem_SM"><ellipse cx="62" cy="151.5" fill="#FFFFFF" rx="8" ry="8" style="stroke:#181818;stroke-width:0.5;"/><path d="M62,159.5 L62,186.5 M49,167.5 L75,167.5 M62,186.5 L49,201.5 M62,186.5 L75,201.5 " fill="none" style="stroke:#181818;stroke-width:0.5;"/><text fill="#000000" font-family="sans-serif" font-size="14" lengthAdjust="spacing" textLength="95" x="14.5" y="215.9951">Scrum Master</text></g><!--entity PM--><g id="elem_PM"><ellipse cx="62" cy="262.5" fill="#FFFFFF" rx="8" ry="8" style="stroke:#181818;stroke-width:0.5;"/><path d="M62,270.5 L62,297.5 M49,278.5 L75,278.5 M62,297.5 L49,312.5 M62,297.5 L75,312.5 " fill="none" style="stroke:#181818;stroke-width:0.5;"/><text fill="#000000" font-family="sans-serif" font-size="14" lengthAdjust="spacing" textLength="112" x="6" y="326.9951">Project Manager</text></g><!--entity TM--><g id="elem_TM"><ellipse cx="62" cy="395.5" fill="#FFFFFF" rx="8" ry="8" style="stroke:#181818;stroke-width:0.5;"/><path d="M62,403.5 L62,430.5 M49,411.5 L75,411.5 M62,430.5 L49,445.5 M62,430.5 L75,445.5 " fill="none" style="stroke:#181818;stroke-width:0.5;"/><text fill="#000000" font-family="sans-serif" font-size="14" lengthAdjust="spacing" textLength="100" x="12" y="459.9951">Team Member</text></g><!--link PO to UC17--><g id="link_PO_UC17"><path d="M113.71,71.1 C133.22,71.52 156.67,72.03 180.98,72.56 " fill="none" id="PO-to-UC17" style="stroke:#181818;stroke-width:1.0;"/><polygon fill="#181818" points="186.18,72.67,177.2738,68.4654,181.1813,72.5557,177.0909,76.4633,186.18,72.67" style="stroke:#181818;stroke-width:1.0;"/></g><!--link PO to UC18--><g id="link_PO_UC18"><path d="M113.95,105.72 C126.63,113.52 140.47,121.18 154,127 C178.59,137.58 206.06,146.26 232.16,153.18 " fill="none" id="PO-to-UC18" style="stroke:#181818;stroke-width:1.0;"/><polygon fill="#181818" points="237.02,154.45,229.3352,148.2901,232.1848,153.1768,227.2981,156.0264,237.02,154.45" style="stroke:#181818;stroke-width:1.0;"/></g><!--link SM to UC18--><g id="link_SM_UC18"><path d="M109.59,179.99 C133.84,179.46 164.94,178.79 196.38,178.11 " fill="none" id="SM-to-UC18" style="stroke:#181818;stroke-width:1.0;"/><polygon fill="#181818" points="201.43,178,192.3516,174.1813,196.431,178.1003,192.512,182.1797,201.43,178" style="stroke:#181818;stroke-width:1.0;"/></g><!--link TM to UC18--><g id="link_TM_UC18"><path d="M93.66,386.89 C102.43,374.67 111.39,360.74 118,347 C142.88,295.29 112.83,262.98 154,223 C169.58,207.87 189.27,197.34 209.96,190.04 " fill="none" id="TM-to-UC18" style="stroke:#181818;stroke-width:1.0;"/><polygon fill="#181818" points="214.96,188.35,205.1503,187.4722,210.2281,189.9654,207.735,195.0432,214.96,188.35" style="stroke:#181818;stroke-width:1.0;"/></g><!--link PM to UC19--><g id="link_PM_UC19"><path d="M118.29,286 C155.62,281.95 205.76,276.51 248.86,271.83 " fill="none" id="PM-to-UC19" style="stroke:#181818;stroke-width:1.0;"/><polygon fill="#181818" points="254.08,271.27,244.699,268.2706,249.1095,271.8128,245.5674,276.2233,254.08,271.27" style="stroke:#181818;stroke-width:1.0;"/></g><!--link TM to UC20--><g id="link_TM_UC20"><path d="M112.11,412.39 C144.92,403.96 189.4,392.54 230.32,382.03 " fill="none" id="TM-to-UC20" style="stroke:#181818;stroke-width:1.0;"/><polygon fill="#181818" points="235.3,380.76,225.5882,379.1228,230.4569,382.0029,227.5768,386.8717,235.3,380.76" style="stroke:#181818;stroke-width:1.0;"/></g><!--link TM to UC21--><g id="link_TM_UC21"><path d="M112.11,430.15 C139.63,433.04 175.35,436.78 210.29,440.45 " fill="none" id="TM-to-UC21" style="stroke:#181818;stroke-width:1.0;"/><polygon fill="#181818" points="215.44,440.99,206.8994,436.0851,210.4665,440.4755,206.0762,444.0427,215.44,440.99" style="stroke:#181818;stroke-width:1.0;"/></g><!--link TM to UC22--><g id="link_TM_UC22"><path d="M101.11,463.02 C116.49,476.62 135.06,491.03 154,501 C174.72,511.91 197.99,520.74 220.85,527.82 " fill="none" id="TM-to-UC22" style="stroke:#181818;stroke-width:1.0;"/><polygon fill="#181818" points="225.72,529.3,218.2753,522.852,220.9368,527.8436,215.9451,530.5051,225.72,529.3" style="stroke:#181818;stroke-width:1.0;"/></g><!--SRC=[VP4nRuCm48Lt_ufJbavf0aiIXafDPXGaaYsBOnjm0pQoZqPHrVzUEuH0hQeBUkBTU_STl5I8hKqMYxQc2hkcVcMwMNHMp1br3ovfQMX3YBr8rL8duMY5jxQKNKgZEyLtkjO6hfL4CHbxPwZDtqEa5WK2QZ2oh12uD8AXr8eGwaCmoupc7KFONvKmCw0MiltWvSnq3QJKuiFAqqdimpKvKz5o23xTWt1KgMZE3-UG4aByPghAMa1-SuqDV160hhyGPiTy6QqIO4PG542zOS2wjXjGnO5oVb8WxwTW9Q1zO9_TrRKkxrkEksWLLgvTfLQsg_6_s3gCRIOajZLIuJ2w2KRZPUBXVXDBvRSvu63VGDzN1XJnCgoE4X0MPUCvV4mKXJO8ke2J2lS5d74KbiK9V4fnlHVrFtQhgU6-pRywATOP8npLxvwOV1EIxM4-V-i_yAZN94z7VPZexAatutjttwYZYOx93m00]--></g></svg>