<?xml version="1.0" encoding="us-ascii" standalone="no"?><svg xmlns="http://www.w3.org/2000/svg" xmlns:xlink="http://www.w3.org/1999/xlink" contentStyleType="text/css" height="773px" preserveAspectRatio="none" style="width:1953px;height:773px;background:#FFFFFF;" version="1.1" viewBox="0 0 1953 773" width="1953px" zoomAndPan="magnify"><defs/><g><text fill="#000000" font-family="sans-serif" font-size="14" font-weight="bold" lengthAdjust="spacing" textLength="642" x="657.25" y="27.9951">US004 - As Administrator, I want to get a list of all user accounts and their status</text><rect fill="#FFFFFF" height="509.7813" style="stroke:#181818;stroke-width:1.0;" width="10" x="320" y="164.8594"/><rect fill="#FFFFFF" height="451.5156" style="stroke:#181818;stroke-width:1.0;" width="10" x="594" y="193.9922"/><rect fill="#FFFFFF" height="393.25" style="stroke:#181818;stroke-width:1.0;" width="10" x="868" y="223.125"/><rect fill="#FFFFFF" height="29.1328" style="stroke:#181818;stroke-width:1.0;" width="10" x="1018" y="252.2578"/><rect fill="#FFFFFF" height="276.7188" style="stroke:#181818;stroke-width:1.0;" width="10" x="1195.5" y="310.5234"/><rect fill="#FFFFFF" height="34.1328" style="stroke:#181818;stroke-width:1.0;" width="10" x="1200.5" y="429.3828"/><rect fill="#FFFFFF" height="30" style="stroke:#181818;stroke-width:1.0;" width="10" x="1820.5" y="521.1094"/><rect fill="none" height="175.9922" style="stroke:#000000;stroke-width:1.5;" width="849.5" x="1098" y="383.1172"/><line style="stroke:#181818;stroke-width:0.5;stroke-dasharray:5.0,5.0;" x1="56" x2="56" y1="118.5938" y2="692.6406"/><line style="stroke:#181818;stroke-width:0.5;stroke-dasharray:5.0,5.0;" x1="325" x2="325" y1="118.5938" y2="692.6406"/><line style="stroke:#181818;stroke-width:0.5;stroke-dasharray:5.0,5.0;" x1="598.5" x2="598.5" y1="118.5938" y2="692.6406"/><line style="stroke:#181818;stroke-width:0.5;stroke-dasharray:5.0,5.0;" x1="873" x2="873" y1="118.5938" y2="692.6406"/><line style="stroke:#181818;stroke-width:0.5;stroke-dasharray:5.0,5.0;" x1="1023" x2="1023" y1="118.5938" y2="692.6406"/><line style="stroke:#181818;stroke-width:0.5;stroke-dasharray:5.0,5.0;" x1="1200" x2="1200" y1="118.5938" y2="692.6406"/><line style="stroke:#181818;stroke-width:0.5;stroke-dasharray:5.0,5.0;" x1="1614.5" x2="1614.5" y1="481.1797" y2="692.6406"/><line style="stroke:#181818;stroke-width:0.5;stroke-dasharray:5.0,5.0;" x1="1825.5" x2="1825.5" y1="357.3203" y2="692.6406"/><text fill="#000000" font-family="sans-serif" font-size="14" lengthAdjust="spacing" textLength="96" x="5" y="115.292">:Administrator</text><ellipse cx="56" cy="50.7969" fill="#FFFFFF" rx="8" ry="8" style="stroke:#181818;stroke-width:0.5;"/><path d="M56,58.7969 L56,85.7969 M43,66.7969 L69,66.7969 M56,85.7969 L43,100.7969 M56,85.7969 L69,100.7969 " fill="none" style="stroke:#181818;stroke-width:0.5;"/><text fill="#000000" font-family="sans-serif" font-size="14" lengthAdjust="spacing" textLength="96" x="5" y="704.6357">:Administrator</text><ellipse cx="56" cy="716.4375" fill="#FFFFFF" rx="8" ry="8" style="stroke:#181818;stroke-width:0.5;"/><path d="M56,724.4375 L56,751.4375 M43,732.4375 L69,732.4375 M56,751.4375 L43,766.4375 M56,751.4375 L69,766.4375 " fill="none" style="stroke:#181818;stroke-width:0.5;"/><rect fill="#FFFFFF" height="30.2969" rx="2.5" ry="2.5" style="stroke:#181818;stroke-width:0.5;" width="112" x="269" y="87.2969"/><text fill="#000000" font-family="sans-serif" font-size="14" lengthAdjust="spacing" textLength="98" x="276" y="107.292">:ListAccountUI</text><rect fill="#FFFFFF" height="30.2969" rx="2.5" ry="2.5" style="stroke:#181818;stroke-width:0.5;" width="112" x="269" y="691.6406"/><text fill="#000000" font-family="sans-serif" font-size="14" lengthAdjust="spacing" textLength="98" x="276" y="711.6357">:ListAccountUI</text><rect fill="#FFFFFF" height="62.8906" rx="2.5" ry="2.5" style="stroke:#181818;stroke-width:0.5;" width="103" x="547.5" y="54.7031"/><text fill="#000000" font-family="sans-serif" font-size="14" lengthAdjust="spacing" textLength="85" x="556.5" y="74.6982">&#171;Controller&#187;</text><text fill="#000000" font-family="sans-serif" font-size="14" lengthAdjust="spacing" textLength="85" x="558.5" y="90.9951">:ListAccount</text><text fill="#000000" font-family="sans-serif" font-size="14" lengthAdjust="spacing" textLength="67" x="565.5" y="107.292">Controller</text><rect fill="#FFFFFF" height="62.8906" rx="2.5" ry="2.5" style="stroke:#181818;stroke-width:0.5;" width="103" x="547.5" y="691.6406"/><text fill="#000000" font-family="sans-serif" font-size="14" lengthAdjust="spacing" textLength="85" x="556.5" y="711.6357">&#171;Controller&#187;</text><text fill="#000000" font-family="sans-serif" font-size="14" lengthAdjust="spacing" textLength="85" x="558.5" y="727.9326">:ListAccount</text><text fill="#000000" font-family="sans-serif" font-size="14" lengthAdjust="spacing" textLength="67" x="565.5" y="744.2295">Controller</text><rect fill="#FFFFFF" height="46.5938" rx="2.5" ry="2.5" style="stroke:#181818;stroke-width:0.5;" width="130" x="808" y="71"/><text fill="#000000" font-family="sans-serif" font-size="14" lengthAdjust="spacing" textLength="68" x="839" y="90.9951">&#171;Service&#187;</text><text fill="#000000" font-family="sans-serif" font-size="14" lengthAdjust="spacing" textLength="112" x="819" y="107.292">:AccountService</text><rect fill="#FFFFFF" height="46.5938" rx="2.5" ry="2.5" style="stroke:#181818;stroke-width:0.5;" width="130" x="808" y="691.6406"/><text fill="#000000" font-family="sans-serif" font-size="14" lengthAdjust="spacing" textLength="68" x="839" y="711.6357">&#171;Service&#187;</text><text fill="#000000" font-family="sans-serif" font-size="14" lengthAdjust="spacing" textLength="112" x="819" y="727.9326">:AccountService</text><rect fill="#FFFFFF" height="46.5938" rx="2.5" ry="2.5" style="stroke:#181818;stroke-width:0.5;" width="150" x="948" y="71"/><text fill="#000000" font-family="sans-serif" font-size="14" lengthAdjust="spacing" textLength="92" x="977" y="90.9951">&#171;Repository&#187;</text><text fill="#000000" font-family="sans-serif" font-size="14" lengthAdjust="spacing" textLength="136" x="955" y="107.292">:AccountRepository</text><rect fill="#FFFFFF" height="46.5938" rx="2.5" ry="2.5" style="stroke:#181818;stroke-width:0.5;" width="150" x="948" y="691.6406"/><text fill="#000000" font-family="sans-serif" font-size="14" lengthAdjust="spacing" textLength="92" x="977" y="711.6357">&#171;Repository&#187;</text><text fill="#000000" font-family="sans-serif" font-size="14" lengthAdjust="spacing" textLength="136" x="955" y="727.9326">:AccountRepository</text><rect fill="#FFFFFF" height="46.5938" rx="2.5" ry="2.5" style="stroke:#181818;stroke-width:0.5;" width="185" x="1108" y="71"/><text fill="#000000" font-family="sans-serif" font-size="14" lengthAdjust="spacing" textLength="133" x="1134" y="90.9951">createUserAccount</text><text fill="#000000" font-family="sans-serif" font-size="14" lengthAdjust="spacing" textLength="167" x="1119" y="107.292">AndStatusListAssembler</text><rect fill="#FFFFFF" height="46.5938" rx="2.5" ry="2.5" style="stroke:#181818;stroke-width:0.5;" width="185" x="1108" y="691.6406"/><text fill="#000000" font-family="sans-serif" font-size="14" lengthAdjust="spacing" textLength="133" x="1134" y="711.6357">createUserAccount</text><text fill="#000000" font-family="sans-serif" font-size="14" lengthAdjust="spacing" textLength="167" x="1119" y="727.9326">AndStatusListAssembler</text><rect fill="#FFFFFF" height="46.5938" rx="2.5" ry="2.5" style="stroke:#181818;stroke-width:0.5;" width="178" x="1525.5" y="691.6406"/><text fill="#000000" font-family="sans-serif" font-size="14" lengthAdjust="spacing" textLength="158" x="1535.5" y="711.6357">accountAndStatusDTO</text><text fill="#000000" font-family="sans-serif" font-size="14" lengthAdjust="spacing" textLength="164" x="1532.5" y="727.9326">:AccountAndStatusDTO</text><rect fill="#FFFFFF" height="46.5938" rx="2.5" ry="2.5" style="stroke:#181818;stroke-width:0.5;" width="224" x="1713.5" y="691.6406"/><text fill="#000000" font-family="sans-serif" font-size="14" lengthAdjust="spacing" textLength="181" x="1735" y="711.6357">accountAndStatusDTOList</text><text fill="#000000" font-family="sans-serif" font-size="14" lengthAdjust="spacing" textLength="210" x="1720.5" y="727.9326">:List&lt;accountAndStatusDTO&gt;</text><rect fill="#FFFFFF" height="509.7813" style="stroke:#181818;stroke-width:1.0;" width="10" x="320" y="164.8594"/><rect fill="#FFFFFF" height="451.5156" style="stroke:#181818;stroke-width:1.0;" width="10" x="594" y="193.9922"/><rect fill="#FFFFFF" height="393.25" style="stroke:#181818;stroke-width:1.0;" width="10" x="868" y="223.125"/><rect fill="#FFFFFF" height="29.1328" style="stroke:#181818;stroke-width:1.0;" width="10" x="1018" y="252.2578"/><rect fill="#FFFFFF" height="276.7188" style="stroke:#181818;stroke-width:1.0;" width="10" x="1195.5" y="310.5234"/><rect fill="#FFFFFF" height="34.1328" style="stroke:#181818;stroke-width:1.0;" width="10" x="1200.5" y="429.3828"/><rect fill="#FFFFFF" height="30" style="stroke:#181818;stroke-width:1.0;" width="10" x="1820.5" y="521.1094"/><polygon fill="#181818" points="308,160.8594,318,164.8594,308,168.8594,312,164.8594" style="stroke:#181818;stroke-width:1.0;"/><line style="stroke:#181818;stroke-width:1.0;" x1="56" x2="314" y1="164.8594" y2="164.8594"/><text fill="#000000" font-family="sans-serif" font-size="13" font-weight="bold" lengthAdjust="spacing" textLength="9" x="98" y="152.2271">1</text><text fill="#000000" font-family="sans-serif" font-size="13" lengthAdjust="spacing" textLength="144" x="120.5" y="144.6606">request list of all users</text><text fill="#000000" font-family="sans-serif" font-size="13" lengthAdjust="spacing" textLength="163" x="115" y="159.7935">accounts and their status</text><polygon fill="#181818" points="582,189.9922,592,193.9922,582,197.9922,586,193.9922" style="stroke:#181818;stroke-width:1.0;"/><line style="stroke:#181818;stroke-width:1.0;" x1="330" x2="588" y1="193.9922" y2="193.9922"/><text fill="#000000" font-family="sans-serif" font-size="13" font-weight="bold" lengthAdjust="spacing" textLength="9" x="359.5" y="188.9263">2</text><text fill="#000000" font-family="sans-serif" font-size="13" lengthAdjust="spacing" textLength="192" x="372.5" y="188.9263">createAccountAndStatusList()</text><polygon fill="#181818" points="856,219.125,866,223.125,856,227.125,860,223.125" style="stroke:#181818;stroke-width:1.0;"/><line style="stroke:#181818;stroke-width:1.0;" x1="604" x2="862" y1="223.125" y2="223.125"/><text fill="#000000" font-family="sans-serif" font-size="13" font-weight="bold" lengthAdjust="spacing" textLength="9" x="633.5" y="218.0591">3</text><text fill="#000000" font-family="sans-serif" font-size="13" lengthAdjust="spacing" textLength="192" x="646.5" y="218.0591">createAccountAndStatusList()</text><polygon fill="#181818" points="1006,248.2578,1016,252.2578,1006,256.2578,1010,252.2578" style="stroke:#181818;stroke-width:1.0;"/><line style="stroke:#181818;stroke-width:1.0;" x1="878" x2="1012" y1="252.2578" y2="252.2578"/><text fill="#000000" font-family="sans-serif" font-size="13" font-weight="bold" lengthAdjust="spacing" textLength="9" x="917.5" y="247.1919">4</text><text fill="#000000" font-family="sans-serif" font-size="13" lengthAdjust="spacing" textLength="48" x="930.5" y="247.1919">findAll()</text><polygon fill="#181818" points="889,277.3906,879,281.3906,889,285.3906,885,281.3906" style="stroke:#181818;stroke-width:1.0;"/><line style="stroke:#181818;stroke-width:1.0;stroke-dasharray:2.0,2.0;" x1="883" x2="1022" y1="281.3906" y2="281.3906"/><text fill="#000000" font-family="sans-serif" font-size="13" font-weight="bold" lengthAdjust="spacing" textLength="9" x="907.5" y="276.3247">5</text><text fill="#000000" font-family="sans-serif" font-size="13" lengthAdjust="spacing" textLength="73" x="920.5" y="276.3247">accountList</text><polygon fill="#181818" points="1183.5,306.5234,1193.5,310.5234,1183.5,314.5234,1187.5,310.5234" style="stroke:#181818;stroke-width:1.0;"/><line style="stroke:#181818;stroke-width:1.0;" x1="878" x2="1189.5" y1="310.5234" y2="310.5234"/><text fill="#000000" font-family="sans-serif" font-size="13" font-weight="bold" lengthAdjust="spacing" textLength="9" x="897.75" y="305.4575">6</text><text fill="#000000" font-family="sans-serif" font-size="13" lengthAdjust="spacing" textLength="265" x="910.75" y="305.4575">createAccountAndStatusList(accountList)</text><polygon fill="#181818" points="1701.5,335.6563,1711.5,339.6563,1701.5,343.6563,1705.5,339.6563" style="stroke:#181818;stroke-width:1.0;"/><line style="stroke:#181818;stroke-width:1.0;" x1="1205.5" x2="1707.5" y1="339.6563" y2="339.6563"/><text fill="#000000" font-family="sans-serif" font-size="13" font-weight="bold" lengthAdjust="spacing" textLength="9" x="1427.5" y="334.5903">7</text><text fill="#000000" font-family="sans-serif" font-size="13" lengthAdjust="spacing" textLength="51" x="1440.5" y="334.5903">create()</text><rect fill="#FFFFFF" height="46.5938" rx="2.5" ry="2.5" style="stroke:#181818;stroke-width:0.5;" width="224" x="1713.5" y="318.5234"/><text fill="#000000" font-family="sans-serif" font-size="14" lengthAdjust="spacing" textLength="181" x="1735" y="338.5186">accountAndStatusDTOList</text><text fill="#000000" font-family="sans-serif" font-size="14" lengthAdjust="spacing" textLength="210" x="1720.5" y="354.8154">:List&lt;accountAndStatusDTO&gt;</text><path d="M1098,383.1172 L1175,383.1172 L1175,390.25 L1165,400.25 L1098,400.25 L1098,383.1172 " fill="#EEEEEE" style="stroke:#000000;stroke-width:1.5;"/><rect fill="none" height="175.9922" style="stroke:#000000;stroke-width:1.5;" width="849.5" x="1098" y="383.1172"/><text fill="#000000" font-family="sans-serif" font-size="13" font-weight="bold" lengthAdjust="spacing" textLength="32" x="1113" y="396.1841">loop</text><text fill="#000000" font-family="sans-serif" font-size="11" font-weight="bold" lengthAdjust="spacing" textLength="188" x="1190" y="395.3276">[for each account in iterable]</text><line style="stroke:#181818;stroke-width:1.0;" x1="1205.5" x2="1252.5" y1="416.3828" y2="416.3828"/><line style="stroke:#181818;stroke-width:1.0;" x1="1252.5" x2="1252.5" y1="416.3828" y2="429.3828"/><line style="stroke:#181818;stroke-width:1.0;" x1="1211.5" x2="1252.5" y1="429.3828" y2="429.3828"/><polygon fill="#181818" points="1221.5,425.3828,1211.5,429.3828,1221.5,433.3828,1217.5,429.3828" style="stroke:#181818;stroke-width:1.0;"/><text fill="#000000" font-family="sans-serif" font-size="13" font-weight="bold" lengthAdjust="spacing" textLength="9" x="1217.5" y="411.3169">8</text><text fill="#000000" font-family="sans-serif" font-size="13" lengthAdjust="spacing" textLength="377" x="1230.5" y="411.3169">accountAndStatusDTO = generateDTO(accountAndStatus)</text><polygon fill="#181818" points="1513.5,459.5156,1523.5,463.5156,1513.5,467.5156,1517.5,463.5156" style="stroke:#181818;stroke-width:1.0;"/><line style="stroke:#181818;stroke-width:1.0;stroke-dasharray:2.0,2.0;" x1="1205.5" x2="1519.5" y1="463.5156" y2="463.5156"/><text fill="#000000" font-family="sans-serif" font-size="13" font-weight="bold" lengthAdjust="spacing" textLength="9" x="1333.5" y="458.4497">9</text><text fill="#000000" font-family="sans-serif" font-size="13" lengthAdjust="spacing" textLength="51" x="1346.5" y="458.4497">create()</text><rect fill="#FFFFFF" height="46.5938" rx="2.5" ry="2.5" style="stroke:#181818;stroke-width:0.5;" width="178" x="1525.5" y="442.3828"/><text fill="#000000" font-family="sans-serif" font-size="14" lengthAdjust="spacing" textLength="158" x="1535.5" y="462.3779">accountAndStatusDTO</text><text fill="#000000" font-family="sans-serif" font-size="14" lengthAdjust="spacing" textLength="164" x="1532.5" y="478.6748">:AccountAndStatusDTO</text><polygon fill="#181818" points="1808.5,517.1094,1818.5,521.1094,1808.5,525.1094,1812.5,521.1094" style="stroke:#181818;stroke-width:1.0;"/><line style="stroke:#181818;stroke-width:1.0;" x1="1205.5" x2="1814.5" y1="521.1094" y2="521.1094"/><text fill="#000000" font-family="sans-serif" font-size="13" font-weight="bold" lengthAdjust="spacing" textLength="18" x="1412.5" y="516.0435">10</text><text fill="#000000" font-family="sans-serif" font-size="13" lengthAdjust="spacing" textLength="179" x="1434.5" y="516.0435">add(accountAndStatusDTO)</text><polygon fill="#181818" points="889,583.2422,879,587.2422,889,591.2422,885,587.2422" style="stroke:#181818;stroke-width:1.0;"/><line style="stroke:#181818;stroke-width:1.0;stroke-dasharray:2.0,2.0;" x1="883" x2="1199.5" y1="587.2422" y2="587.2422"/><text fill="#000000" font-family="sans-serif" font-size="13" font-weight="bold" lengthAdjust="spacing" textLength="18" x="919.25" y="582.1763">11</text><text fill="#000000" font-family="sans-serif" font-size="13" lengthAdjust="spacing" textLength="218" x="941.25" y="582.1763">list of all user accounts and status</text><polygon fill="#181818" points="615,612.375,605,616.375,615,620.375,611,616.375" style="stroke:#181818;stroke-width:1.0;"/><line style="stroke:#181818;stroke-width:1.0;stroke-dasharray:2.0,2.0;" x1="609" x2="872" y1="616.375" y2="616.375"/><text fill="#000000" font-family="sans-serif" font-size="13" font-weight="bold" lengthAdjust="spacing" textLength="18" x="618.5" y="611.3091">12</text><text fill="#000000" font-family="sans-serif" font-size="13" lengthAdjust="spacing" textLength="218" x="640.5" y="611.3091">list of all user accounts and status</text><polygon fill="#181818" points="341,641.5078,331,645.5078,341,649.5078,337,645.5078" style="stroke:#181818;stroke-width:1.0;"/><line style="stroke:#181818;stroke-width:1.0;stroke-dasharray:2.0,2.0;" x1="335" x2="598" y1="645.5078" y2="645.5078"/><text fill="#000000" font-family="sans-serif" font-size="13" font-weight="bold" lengthAdjust="spacing" textLength="18" x="344.5" y="640.4419">13</text><text fill="#000000" font-family="sans-serif" font-size="13" lengthAdjust="spacing" textLength="218" x="366.5" y="640.4419">list of all user accounts and status</text><polygon fill="#181818" points="67,670.6406,57,674.6406,67,678.6406,63,674.6406" style="stroke:#181818;stroke-width:1.0;"/><line style="stroke:#181818;stroke-width:1.0;stroke-dasharray:2.0,2.0;" x1="61" x2="324" y1="674.6406" y2="674.6406"/><text fill="#000000" font-family="sans-serif" font-size="13" font-weight="bold" lengthAdjust="spacing" textLength="18" x="70.5" y="669.5747">14</text><text fill="#000000" font-family="sans-serif" font-size="13" lengthAdjust="spacing" textLength="218" x="92.5" y="669.5747">list of all user accounts and status</text><!--SRC=[pPGzRzim48Pt_eg3kzX80sJ8P3W6r7GnqA9076rP6Efi4w59bpmboB_lKH8jHQ6ITgiMwSXxd_k4mfEs9-db4GB-hj4g_8aXo3qMHkyjABI4NeHtNdUuGny_ladrjFUkjjMjCyx3oq4J2bcJi_NnaRM2D1c4SdjrTGsNK0GeggEsEf2NvFnNsC2Bj0JaO8y44WnVWTk1D0RgW1waKiod0D9MG0VK7W99geCGKZ42Piito1d8KH3uqgR5DP1M-XJZpPO_-BfesUMc4PMRhETgTUiiUMSC-lNwmS9G-c3xomRIcnEmBVfdhR0bTPJkh05qtnFgEpoveBcermX8-lwqGVHcbg8yIiAIctik0WfRRPkkDhM5WCV7L95CLXRMZUUi_tx_gyzhUDgotf__BJKcnkJuMcMkrrFyA4WnX7Yx69Th7lh5nH9yN6ps6szV0ExDz0QM6oRq4u-ajhdZ-cCIyuKOB0SBkqb_gaeRmP9-ib6rqxOgZ64NZrJxSwPHDrIT9_X9g85y8KJhEDLI0Vpqgn6Zv1rJHCwoqHZdJh3ZvgDKXoG2RO47v2N3H0QTZ6LsWsxuts5PJCZMVEonQ7cAz7DJJs8rnzD5ZhF8LpYeBlfNc8dp3wsILJNFN8vB-60ammmctD1M8ctCnx_RRit_0zy_]--></g></svg>