<?xml version="1.0" encoding="us-ascii" standalone="no"?><svg xmlns="http://www.w3.org/2000/svg" xmlns:xlink="http://www.w3.org/1999/xlink" contentStyleType="text/css" height="495px" preserveAspectRatio="none" style="width:1252px;height:495px;background:#FFFFFF;" version="1.1" viewBox="0 0 1252 495" width="1252px" zoomAndPan="magnify"><defs/><g><text fill="#000000" font-family="sans-serif" font-size="14" font-weight="bold" lengthAdjust="spacing" textLength="765" x="242" y="32.9951">US034 -   As Project Manager, I want to close the current/active sprint of a project in the web UI.</text><rect fill="#F1F1F1" height="36.2969" rx="12.5" ry="12.5" style="stroke:#181818;stroke-width:1.5;" width="106.3333" x="571.8333" y="47.2969"/><path d="M587.5,60.7604 C584.9217,60.7604 582.8333,62.8487 582.8333,65.4271 C582.8333,68.0054 584.9217,70.0938 587.5,70.0938 C590.0783,70.0938 592.1667,68.0054 592.1667,65.4271 C592.1667,62.8487 590.0783,60.7604 587.5,60.7604 M587.5,61.9271 C587.885,61.9271 588.2467,62.0321 588.5967,62.1488 C588.3517,62.3821 588.0717,62.5921 588.1183,62.8021 C588.165,63.0121 588.9233,62.9538 588.9233,63.3854 C588.9233,63.7004 588.4333,63.7937 588.7717,64.1554 C589.18,64.5638 588.025,65.2988 588.0017,65.8354 C587.9667,66.8038 588.9817,66.9671 589.7867,66.9671 C590.2767,66.9671 590.405,67.2004 590.37,67.4804 C589.74,68.3788 588.6667,68.9388 587.4883,68.9388 C587.045,68.9388 586.6367,68.8338 586.2517,68.6821 C586.5083,68.1688 585.925,67.1538 585.3767,66.8271 C585.1083,66.5588 584.5367,66.6638 584.21,66.5354 C584.105,66.2204 584,65.9054 583.9883,65.5554 C584.0233,65.4971 584.0817,65.4504 584.175,65.4504 C584.3967,65.4504 584.7,65.8938 584.8633,65.8471 C585.0733,65.8004 584,64.3188 584.5017,64.0271 C584.735,63.8871 585.2017,64.4821 585.05,63.8404 C584.91,63.2454 585.47,63.5137 585.82,63.3621 C586.1233,63.2338 586.345,62.8838 585.9717,62.6738 C585.9017,62.6387 585.82,62.5571 585.715,62.4521 C586.24,62.1371 586.8467,61.9388 587.5,61.9388 M590.195,63.1988 C590.405,63.4554 590.5683,63.7354 590.7083,64.0388 C590.7083,64.0504 590.7083,64.0621 590.7083,64.0738 C590.6617,64.1554 590.58,64.2021 590.4517,64.3304 C590.125,64.6571 590.0783,64.0854 589.9383,63.9688 C589.7867,63.8288 589.2383,63.9921 589.1683,63.8171 C589.0867,63.6071 589.7517,63.3271 590.195,63.1988 " fill="#000000" style="stroke:;stroke-width:0.0;stroke-dasharray:;"/><text fill="#000000" font-family="sans-serif" font-size="14" lengthAdjust="spacing" textLength="75" x="593.1667" y="70.292">Application</text><rect fill="#F1F1F1" height="36.2969" rx="12.5" ry="12.5" style="stroke:#181818;stroke-width:1.5;" width="67" x="24" y="108.5938"/><text fill="#000000" font-family="sans-serif" font-size="14" lengthAdjust="spacing" textLength="47" x="34" y="131.5889">Navbar</text><rect fill="#F1F1F1" height="36.2969" rx="12.5" ry="12.5" style="stroke:#181818;stroke-width:1.5;" width="75" x="20" y="169.8906"/><text fill="#000000" font-family="sans-serif" font-size="14" lengthAdjust="spacing" textLength="55" x="30" y="192.8857">NavItem</text><path d="M57.5,144.8906 L57.5,147.8906 C57.5,154.8906 57.5,159.8906 57.5,166.8906 L57.5,169.8906 " fill="none" style="stroke:#181818;stroke-width:1.0;"/><path d="M625,83.5938 L625,86.5938 C625,93.5938 57.5,98.5938 57.5,105.5938 L57.5,108.5938 " fill="none" style="stroke:#181818;stroke-width:1.0;"/><rect fill="#F1F1F1" height="36.2969" rx="12.5" ry="12.5" style="stroke:#181818;stroke-width:1.5;" width="94" x="625.5" y="108.5938"/><text fill="#000000" font-family="sans-serif" font-size="14" lengthAdjust="spacing" textLength="74" x="635.5" y="131.5889">MainRoute</text><rect fill="#F1F1F1" height="36.2969" rx="12.5" ry="12.5" style="stroke:#181818;stroke-width:1.5;" width="76" x="634.5" y="169.8906"/><text fill="#000000" font-family="sans-serif" font-size="14" lengthAdjust="spacing" textLength="56" x="644.5" y="192.8857">Projects</text><rect fill="#F1F1F1" height="36.2969" rx="12.5" ry="12.5" style="stroke:#181818;stroke-width:1.5;" width="103" x="621" y="231.1875"/><text fill="#000000" font-family="sans-serif" font-size="14" lengthAdjust="spacing" textLength="83" x="631" y="254.1826">ProjectPage</text><rect fill="#F1F1F1" height="52.5938" rx="12.5" ry="12.5" style="stroke:#181818;stroke-width:1.5;" width="141" x="115" y="292.4844"/><text fill="#000000" font-family="sans-serif" font-size="14" lengthAdjust="spacing" textLength="121" x="125" y="315.4795">ProjectPageTable</text><text fill="#000000" font-family="sans-serif" font-size="14" lengthAdjust="spacing" textLength="87" x="125" y="331.7764">(Project Info)</text><path d="M672.5,267.4844 L672.5,270.4844 C672.5,277.4844 185.5,282.4844 185.5,289.4844 L185.5,292.4844 " fill="none" style="stroke:#181818;stroke-width:1.0;"/><rect fill="#F1F1F1" height="52.5938" rx="12.5" ry="12.5" style="stroke:#181818;stroke-width:1.5;" width="67" x="276" y="292.4844"/><text fill="#000000" font-family="sans-serif" font-size="14" lengthAdjust="spacing" textLength="47" x="286" y="315.4795">Button</text><text fill="#000000" font-family="sans-serif" font-size="14" lengthAdjust="spacing" textLength="44" x="286" y="331.7764">(Back)</text><path d="M672.5,267.4844 L672.5,270.4844 C672.5,277.4844 309.5,282.4844 309.5,289.4844 L309.5,292.4844 " fill="none" style="stroke:#181818;stroke-width:1.0;"/><rect fill="#F1F1F1" height="52.5938" rx="12.5" ry="12.5" style="stroke:#181818;stroke-width:1.5;" width="143" x="363" y="292.4844"/><text fill="#000000" font-family="sans-serif" font-size="14" lengthAdjust="spacing" textLength="47" x="373" y="315.4795">Button</text><text fill="#000000" font-family="sans-serif" font-size="14" lengthAdjust="spacing" textLength="123" x="373" y="331.7764">(Product Backlog)</text><path d="M672.5,267.4844 L672.5,270.4844 C672.5,277.4844 434.5,282.4844 434.5,289.4844 L434.5,292.4844 " fill="none" style="stroke:#181818;stroke-width:1.0;"/><rect fill="#F1F1F1" height="52.5938" rx="12.5" ry="12.5" style="stroke:#181818;stroke-width:1.5;" width="105" x="526" y="292.4844"/><text fill="#000000" font-family="sans-serif" font-size="14" lengthAdjust="spacing" textLength="47" x="536" y="315.4795">Button</text><text fill="#000000" font-family="sans-serif" font-size="14" lengthAdjust="spacing" textLength="85" x="536" y="331.7764">(Resources)</text><path d="M672.5,267.4844 L672.5,270.4844 C672.5,277.4844 578.5,282.4844 578.5,289.4844 L578.5,292.4844 " fill="none" style="stroke:#181818;stroke-width:1.0;"/><rect fill="#F1F1F1" height="52.5938" rx="12.5" ry="12.5" style="stroke:#181818;stroke-width:1.5;" width="78" x="651" y="292.4844"/><text fill="#000000" font-family="sans-serif" font-size="14" lengthAdjust="spacing" textLength="47" x="661" y="315.4795">Button</text><text fill="#000000" font-family="sans-serif" font-size="14" lengthAdjust="spacing" textLength="58" x="661" y="331.7764">(Sprints)</text><rect fill="#F1F1F1" height="36.2969" rx="12.5" ry="12.5" style="stroke:#181818;stroke-width:1.5;" width="99" x="640.5" y="370.0781"/><text fill="#000000" font-family="sans-serif" font-size="14" lengthAdjust="spacing" textLength="79" x="650.5" y="393.0732">Sprint Page</text><rect fill="#F1F1F1" height="52.5938" rx="12.5" ry="12.5" style="stroke:#181818;stroke-width:1.5;" width="120" x="150" y="431.375"/><text fill="#000000" font-family="sans-serif" font-size="14" lengthAdjust="spacing" textLength="47" x="160" y="454.3701">Button</text><text fill="#000000" font-family="sans-serif" font-size="14" lengthAdjust="spacing" textLength="100" x="160" y="470.667">(Create Sprint)</text><path d="M690,406.375 L690,409.375 C690,416.375 210,421.375 210,428.375 L210,431.375 " fill="none" style="stroke:#181818;stroke-width:1.0;"/><rect fill="#F1F1F1" height="52.5938" rx="12.5" ry="12.5" style="stroke:#181818;stroke-width:1.5;" width="97" x="290" y="431.375"/><text fill="#000000" font-family="sans-serif" font-size="14" lengthAdjust="spacing" textLength="47" x="300" y="454.3701">Button</text><text fill="#000000" font-family="sans-serif" font-size="14" lengthAdjust="spacing" textLength="77" x="300" y="470.667">(All Sprints)</text><path d="M690,406.375 L690,409.375 C690,416.375 338.5,421.375 338.5,428.375 L338.5,431.375 " fill="none" style="stroke:#181818;stroke-width:1.0;"/><rect fill="#F1F1F1" height="52.5938" rx="12.5" ry="12.5" style="stroke:#181818;stroke-width:1.5;" width="146" x="407" y="431.375"/><text fill="#000000" font-family="sans-serif" font-size="14" lengthAdjust="spacing" textLength="47" x="417" y="454.3701">Button</text><text fill="#000000" font-family="sans-serif" font-size="14" lengthAdjust="spacing" textLength="126" x="417" y="470.667">(Open next Sprint)</text><path d="M690,406.375 L690,409.375 C690,416.375 480,421.375 480,428.375 L480,431.375 " fill="none" style="stroke:#181818;stroke-width:1.0;"/><rect fill="#F1F1F1" height="36.2969" rx="12.5" ry="12.5" style="stroke:#181818;stroke-width:1.5;" width="160" x="573" y="431.375"/><text fill="#000000" font-family="sans-serif" font-size="14" lengthAdjust="spacing" textLength="140" x="583" y="454.3701">CurrentlyOpenSprint</text><path d="M690,406.375 L690,409.375 C690,416.375 653,421.375 653,428.375 L653,431.375 " fill="none" style="stroke:#181818;stroke-width:1.0;"/><rect fill="#F1F1F1" height="52.5938" rx="12.5" ry="12.5" style="stroke:#181818;stroke-width:1.5;" width="113" x="753" y="431.375"/><text fill="#000000" font-family="sans-serif" font-size="14" lengthAdjust="spacing" textLength="47" x="763" y="454.3701">Button</text><text fill="#000000" font-family="sans-serif" font-size="14" lengthAdjust="spacing" textLength="93" x="763" y="470.667">(Close Sprint)</text><path d="M690,406.375 L690,409.375 C690,416.375 809.5,421.375 809.5,428.375 L809.5,431.375 " fill="none" style="stroke:#181818;stroke-width:1.0;"/><rect fill="#F1F1F1" height="52.5938" rx="12.5" ry="12.5" style="stroke:#181818;stroke-width:1.5;" width="132" x="886" y="431.375"/><text fill="#000000" font-family="sans-serif" font-size="14" lengthAdjust="spacing" textLength="47" x="896" y="454.3701">Button</text><text fill="#000000" font-family="sans-serif" font-size="14" lengthAdjust="spacing" textLength="112" x="896" y="470.667">(Add User Story)</text><path d="M690,406.375 L690,409.375 C690,416.375 952,421.375 952,428.375 L952,431.375 " fill="none" style="stroke:#181818;stroke-width:1.0;"/><rect fill="#F1F1F1" height="52.5938" rx="12.5" ry="12.5" style="stroke:#181818;stroke-width:1.5;" width="67" x="1038" y="431.375"/><text fill="#000000" font-family="sans-serif" font-size="14" lengthAdjust="spacing" textLength="47" x="1048" y="454.3701">Button</text><text fill="#000000" font-family="sans-serif" font-size="14" lengthAdjust="spacing" textLength="44" x="1048" y="470.667">(Back)</text><path d="M690,406.375 L690,409.375 C690,416.375 1071.5,421.375 1071.5,428.375 L1071.5,431.375 " fill="none" style="stroke:#181818;stroke-width:1.0;"/><rect fill="#F1F1F1" height="36.2969" rx="12.5" ry="12.5" style="stroke:#181818;stroke-width:1.5;" width="105" x="1125" y="431.375"/><text fill="#000000" font-family="sans-serif" font-size="14" lengthAdjust="spacing" textLength="85" x="1135" y="454.3701">ScrumBoard</text><path d="M690,406.375 L690,409.375 C690,416.375 1177.5,421.375 1177.5,428.375 L1177.5,431.375 " fill="none" style="stroke:#181818;stroke-width:1.0;"/><path d="M690,345.0781 L690,348.0781 C690,355.0781 690,360.0781 690,367.0781 L690,370.0781 " fill="none" style="stroke:#181818;stroke-width:1.0;"/><path d="M672.5,267.4844 L672.5,270.4844 C672.5,277.4844 690,282.4844 690,289.4844 L690,292.4844 " fill="none" style="stroke:#181818;stroke-width:1.0;"/><path d="M672.5,206.1875 L672.5,209.1875 C672.5,216.1875 672.5,221.1875 672.5,228.1875 L672.5,231.1875 " fill="none" style="stroke:#181818;stroke-width:1.0;"/><path d="M672.5,144.8906 L672.5,147.8906 C672.5,154.8906 672.5,159.8906 672.5,166.8906 L672.5,169.8906 " fill="none" style="stroke:#181818;stroke-width:1.0;"/><path d="M625,83.5938 L625,86.5938 C625,93.5938 672.5,98.5938 672.5,105.5938 L672.5,108.5938 " fill="none" style="stroke:#181818;stroke-width:1.0;"/><!--SRC=[TP9DSzem48Rl-XLxwW1JA8HCatewdG19Er2SCdoabrvaUt7Kof97MZdbttTje24blMdtUNUrNpUUfAD2cQoGfH2aI2DiLltX9NG1OEHXuUnFJ0bYQMIExYrCuKaQ0hAGQkiHw14X3SwXeNSo9LKX-D8fbjWjI2WFySeqoYTCO3Fj2R9bdIAnHBQ0J3dMA6k4wC37Dxcs2NuQbQLMgMpSdGxSoogHZb_DSqfOrDvOAhEqWR01Xs9zRVor5bntutZXMSj4um_JElOtDLlRFiZ6WQio3CSo_NNcv8WiS4GDjStF-1Az3Iv5_v80erKpc2FemDw6vmfFyqmSIiA3fdtEHrh3FmbFwBSI3HZyJMS99ljbwLqjsSDNFczs-_-_imms7XsioBhTAuAJoTLzfYuKOojT9iGDyh4T3swX-POsyHmgT9uN3OFUHVzYs1ksre-1b-kW_m46Lz6m7mskuVlT6chS5gqlYpdinyp7uycf9DI7qXOpMKbO1aEgm0Zg5cUtNuyEk3ELSjOKtB-OFSJFWlUNtR7YMQ7ZIk0X5hUubK4JHwGsKoQFOBF-tBqMSsdomFkA08sOMCxhTinMVm00]--></g></svg>