<?xml version="1.0" encoding="us-ascii" standalone="no"?><svg xmlns="http://www.w3.org/2000/svg" xmlns:xlink="http://www.w3.org/1999/xlink" contentStyleType="text/css" height="546px" preserveAspectRatio="none" style="width:954px;height:546px;background:#FFFFFF;" version="1.1" viewBox="0 0 954 546" width="954px" zoomAndPan="magnify"><defs/><g><!--cluster ValueObject--><g id="cluster_ValueObject"><rect fill="none" height="104" rx="2.5" ry="2.5" style="stroke:#181818;stroke-width:1.0;" width="941" x="7" y="436"/><text fill="#000000" font-family="sans-serif" font-size="14" font-weight="bold" lengthAdjust="spacing" textLength="95" x="430" y="450.9951">ValueObject</text></g><!--cluster ProjectAggregate--><g id="cluster_ProjectAggregate"><path d="M16.5,6 L156.5,6 A3.75,3.75 0 0 1 159,8.5 L166,28.2969 L185.5,28.2969 A2.5,2.5 0 0 1 188,30.7969 L188,281.5 A2.5,2.5 0 0 1 185.5,284 L16.5,284 A2.5,2.5 0 0 1 14,281.5 L14,8.5 A2.5,2.5 0 0 1 16.5,6 " fill="none" style="stroke:#000000;stroke-width:1.5;"/><line style="stroke:#000000;stroke-width:1.5;" x1="14" x2="166" y1="28.2969" y2="28.2969"/><text fill="#000000" font-family="sans-serif" font-size="14" font-weight="bold" lengthAdjust="spacing" textLength="139" x="18" y="20.9951">ProjectAggregate</text></g><!--cluster UserStoryAggregate--><g id="cluster_UserStoryAggregate"><path d="M394.5,308 L557.5,308 A3.75,3.75 0 0 1 560,310.5 L567,330.2969 L567.5,330.2969 A2.5,2.5 0 0 1 570,332.7969 L570,409.5 A2.5,2.5 0 0 1 567.5,412 L394.5,412 A2.5,2.5 0 0 1 392,409.5 L392,310.5 A2.5,2.5 0 0 1 394.5,308 " fill="none" style="stroke:#000000;stroke-width:1.5;"/><line style="stroke:#000000;stroke-width:1.5;" x1="392" x2="567" y1="330.2969" y2="330.2969"/><text fill="#000000" font-family="sans-serif" font-size="14" font-weight="bold" lengthAdjust="spacing" textLength="162" x="396" y="322.9951">UserStoryAggregate</text></g><g id="elem_ProjectCode"><rect fill="#F1F1F1" height="52.5938" style="stroke:#181818;stroke-width:0.5;" width="115" x="176.5" y="471"/><text fill="#000000" font-family="sans-serif" font-size="14" lengthAdjust="spacing" textLength="101" x="183.5" y="485.9951">&#171;ValueObject&#187;</text><text fill="#000000" font-family="sans-serif" font-size="14" lengthAdjust="spacing" textLength="85" x="191.5" y="502.292">ProjectCode</text><line style="stroke:#181818;stroke-width:0.5;" x1="177.5" x2="290.5" y1="507.5938" y2="507.5938"/></g><g id="elem_Description"><rect fill="#F1F1F1" height="52.5938" style="stroke:#181818;stroke-width:0.5;" width="115" x="506.5" y="471"/><text fill="#000000" font-family="sans-serif" font-size="14" lengthAdjust="spacing" textLength="101" x="513.5" y="485.9951">&#171;ValueObject&#187;</text><text fill="#000000" font-family="sans-serif" font-size="14" lengthAdjust="spacing" textLength="79" x="524.5" y="502.292">Description</text><line style="stroke:#181818;stroke-width:0.5;" x1="507.5" x2="620.5" y1="507.5938" y2="507.5938"/></g><g id="elem_UserStoryCode"><rect fill="#F1F1F1" height="52.5938" style="stroke:#181818;stroke-width:0.5;" width="118" x="23" y="471"/><text fill="#000000" font-family="sans-serif" font-size="14" lengthAdjust="spacing" textLength="101" x="31.5" y="485.9951">&#171;ValueObject&#187;</text><text fill="#000000" font-family="sans-serif" font-size="14" lengthAdjust="spacing" textLength="104" x="30" y="502.292">UserStoryCode</text><line style="stroke:#181818;stroke-width:0.5;" x1="24" x2="140" y1="507.5938" y2="507.5938"/></g><g id="elem_AcceptanceCriteria"><rect fill="#F1F1F1" height="52.5938" style="stroke:#181818;stroke-width:0.5;" width="144" x="327" y="471"/><text fill="#000000" font-family="sans-serif" font-size="14" lengthAdjust="spacing" textLength="101" x="348.5" y="485.9951">&#171;ValueObject&#187;</text><text fill="#000000" font-family="sans-serif" font-size="14" lengthAdjust="spacing" textLength="130" x="334" y="502.292">AcceptanceCriteria</text><line style="stroke:#181818;stroke-width:0.5;" x1="328" x2="470" y1="507.5938" y2="507.5938"/></g><g id="elem_UserStoryStatus"><rect fill="#F1F1F1" height="52.5938" style="stroke:#181818;stroke-width:0.5;" width="125" x="806.5" y="471"/><text fill="#000000" font-family="sans-serif" font-size="14" lengthAdjust="spacing" textLength="101" x="818.5" y="485.9951">&#171;ValueObject&#187;</text><text fill="#000000" font-family="sans-serif" font-size="14" lengthAdjust="spacing" textLength="111" x="813.5" y="502.292">UserStoryStatus</text><line style="stroke:#181818;stroke-width:0.5;" x1="807.5" x2="930.5" y1="507.5938" y2="507.5938"/></g><g id="elem_Effort"><rect fill="#F1F1F1" height="52.5938" style="stroke:#181818;stroke-width:0.5;" width="115" x="656.5" y="471"/><text fill="#000000" font-family="sans-serif" font-size="14" lengthAdjust="spacing" textLength="101" x="663.5" y="485.9951">&#171;ValueObject&#187;</text><text fill="#000000" font-family="sans-serif" font-size="14" lengthAdjust="spacing" textLength="36" x="696" y="502.292">Effort</text><line style="stroke:#181818;stroke-width:0.5;" x1="657.5" x2="770.5" y1="507.5938" y2="507.5938"/></g><g id="elem_Project"><rect fill="#F1F1F1" height="52.5938" style="stroke:#181818;stroke-width:0.5;" width="141" x="30.5" y="41"/><text fill="#000000" font-family="sans-serif" font-size="14" lengthAdjust="spacing" textLength="127" x="37.5" y="55.9951">&#171;Aggregate Root&#187;</text><text fill="#000000" font-family="sans-serif" font-size="14" lengthAdjust="spacing" textLength="48" x="77" y="72.292">Project</text><line style="stroke:#181818;stroke-width:0.5;" x1="31.5" x2="170.5" y1="77.5938" y2="77.5938"/></g><g id="elem_ProductBacklog"><rect fill="#F1F1F1" height="52.5938" style="stroke:#181818;stroke-width:0.5;" width="123" x="34.5" y="215"/><text fill="#000000" font-family="sans-serif" font-size="14" lengthAdjust="spacing" textLength="56" x="68" y="229.9951">&#171;Entity&#187;</text><text fill="#000000" font-family="sans-serif" font-size="14" lengthAdjust="spacing" textLength="109" x="41.5" y="246.292">ProductBacklog</text><line style="stroke:#181818;stroke-width:0.5;" x1="35.5" x2="156.5" y1="251.5938" y2="251.5938"/></g><g id="elem_UserStory"><rect fill="#F1F1F1" height="52.5938" style="stroke:#181818;stroke-width:0.5;" width="141" x="410.5" y="343"/><text fill="#000000" font-family="sans-serif" font-size="14" lengthAdjust="spacing" textLength="127" x="417.5" y="357.9951">&#171;Aggregate Root&#187;</text><text fill="#000000" font-family="sans-serif" font-size="14" lengthAdjust="spacing" textLength="67" x="447.5" y="374.292">UserStory</text><line style="stroke:#181818;stroke-width:0.5;" x1="411.5" x2="550.5" y1="379.5938" y2="379.5938"/></g><!--link Project to ProjectCode--><g id="link_Project_ProjectCode"><path codeLine="34" d="M113.89,94.02 C135.09,135.99 175,215 175,215 C175,215 212.14,392.23 227.49,465.43 " fill="none" id="Project-to-ProjectCode" style="stroke:#181818;stroke-width:1.0;"/><polygon fill="#181818" points="228.56,470.52,230.6201,460.889,227.5299,465.6273,222.7917,462.5371,228.56,470.52" style="stroke:#181818;stroke-width:1.0;"/></g><!--link Project to ProductBacklog--><g id="link_Project_ProductBacklog"><path codeLine="35" d="M100.25,94.25 C99.35,125.12 97.85,176.8 96.89,209.74 " fill="none" id="Project-to-ProductBacklog" style="stroke:#181818;stroke-width:1.0;"/><polygon fill="#181818" points="96.75,214.86,101.0054,205.9779,96.8928,209.862,93.0087,205.7494,96.75,214.86" style="stroke:#181818;stroke-width:1.0;"/></g><!--link ProductBacklog to UserStoryCode--><g id="link_ProductBacklog_UserStoryCode"><path codeLine="36" d="M94.58,268.25 C91.99,315.32 86.49,415.03 83.7,465.64 " fill="none" id="ProductBacklog-to-UserStoryCode" style="stroke:#181818;stroke-width:1.0;"/><polygon fill="#181818" points="83.42,470.68,87.902,461.9101,83.691,465.6874,79.9137,461.4764,83.42,470.68" style="stroke:#181818;stroke-width:1.0;"/><text fill="#000000" font-family="sans-serif" font-size="13" lengthAdjust="spacing" textLength="8" x="85.3944" y="287.868">1</text><text fill="#000000" font-family="sans-serif" font-size="13" lengthAdjust="spacing" textLength="7" x="75.939" y="459.8727">*</text></g><!--link UserStory to UserStoryCode--><g id="link_UserStory_UserStoryCode"><path codeLine="42" d="M410.34,383.12 C315.55,400.04 159,428 159,428 C159,428 135.57,448.84 114.56,467.53 " fill="none" id="UserStory-to-UserStoryCode" style="stroke:#181818;stroke-width:1.0;"/><polygon fill="#181818" points="110.67,470.99,120.0534,467.9981,114.4063,467.6673,114.7371,462.0201,110.67,470.99" style="stroke:#181818;stroke-width:1.0;"/></g><!--link UserStory to ProjectCode--><g id="link_UserStory_ProjectCode"><path codeLine="43" d="M410.46,394.22 C363.36,410.06 310,428 310,428 C310,428 286.88,448.84 266.14,467.53 " fill="none" id="UserStory-to-ProjectCode" style="stroke:#181818;stroke-width:1.0;"/><polygon fill="#181818" points="262.3,470.99,271.659,467.9226,266.0094,467.6373,266.2947,461.9876,262.3,470.99" style="stroke:#181818;stroke-width:1.0;"/></g><!--link UserStory to AcceptanceCriteria--><g id="link_UserStory_AcceptanceCriteria"><path codeLine="44" d="M464.21,396.3 C451,416.6 432.56,444.93 418.66,466.29 " fill="none" id="UserStory-to-AcceptanceCriteria" style="stroke:#181818;stroke-width:1.0;"/><polygon fill="#181818" points="415.77,470.73,424.0357,465.3749,418.5005,466.5414,417.3339,461.0061,415.77,470.73" style="stroke:#181818;stroke-width:1.0;"/></g><!--link UserStory to UserStoryStatus--><g id="link_UserStory_UserStoryStatus"><path codeLine="45" d="M551.66,383.69 C642.59,400.67 789,428 789,428 C789,428 813.34,448.84 835.17,467.53 " fill="none" id="UserStory-to-UserStoryStatus" style="stroke:#181818;stroke-width:1.0;"/><polygon fill="#181818" points="839.21,470.99,834.9799,462.0959,835.4137,467.736,829.7735,468.1699,839.21,470.99" style="stroke:#181818;stroke-width:1.0;"/></g><!--link UserStory to Description--><g id="link_UserStory_Description"><path codeLine="46" d="M498,396.3 C511.42,416.69 530.18,445.17 544.27,466.55 " fill="none" id="UserStory-to-Description" style="stroke:#181818;stroke-width:1.0;"/><polygon fill="#181818" points="547.03,470.73,545.4196,461.0137,544.2796,466.5545,538.7388,465.4144,547.03,470.73" style="stroke:#181818;stroke-width:1.0;"/></g><!--link UserStory to Effort--><g id="link_UserStory_Effort"><path codeLine="47" d="M551.22,396.06 C593.42,411.41 639,428 639,428 C639,428 661.82,448.84 682.28,467.53 " fill="none" id="UserStory-to-Effort" style="stroke:#181818;stroke-width:1.0;"/><polygon fill="#181818" points="686.07,470.99,682.129,461.964,682.3807,467.6153,676.7294,467.8669,686.07,470.99" style="stroke:#181818;stroke-width:1.0;"/></g><!--SRC=[jLEnJiCm4Dtz5QSiaP0OsAD8RUaAg04c5fDUZ6aQHxOpM8X_nqvInmwaHK9uojsxTy_FTqdLWJSjbVG8BIqFb66XJOqWiTIqOJMIgQ3c3MhJ8hIYDYuWQOsL1Yr0SlQcOSyTZOk6aFIPrXt2_UkxpIYu_fT3o7XdwDK6CQ0g2hDiT_AIv_11x143acHPK9ZdBys35Evp8_QOk3v1JD9Bh3jwZ5WkNfQwHLLAthhNwab1J2vh5PhgJiqLf-pb3e_6Jb4mC-yHvizqyRHrf-mcA5LOGCYUjMpwIQ4iR9dnBnnbbechiiJM3h74ZUGQ9QSz-tlw5zh3AyNgGswPlAqg8NNF6Jx9fzsZ55QCIMHKunzNVDhaSGo-iTrOi6UwsOJiX0Wd6avnnjascciprkwxKg-jcftoYHAadB6nYREKH__070XvSGZ9JJAK9LV9RChUgq-7RiyvzOHuUkxEFW0d6Wl6M6WeHdvOfuMsuxx4QFWBnyYuCry0]--></g></svg>