<svg version="1.1" xmlns="http://www.w3.org/2000/svg" viewBox="0 0 748 504" width="748" height="504">
  <!-- svg-source:excalidraw -->
  
  <defs>
    <style class="style-fonts">
      @font-face {
        font-family: "Virgil";
        src: url("https://excalidraw.com/Virgil.woff2");
      }
      @font-face {
        font-family: "Cascadia";
        src: url("https://excalidraw.com/Cascadia.woff2");
      }
    </style>
    
  </defs>
  <rect x="0" y="0" width="748" height="504" fill="#ffffff"></rect><g stroke-linecap="round" transform="translate(10 10) rotate(0 364 242)"><path d="M32 0 M32 0 C234.9 0.74, 438.9 1.5, 696 0 M32 0 C203.26 -2.64, 375.43 -2.84, 696 0 M696 0 C717.07 -1.4, 728.25 9.88, 728 32 M696 0 C716.99 -1.98, 728.86 9.2, 728 32 M728 32 C727.34 141.83, 727.36 250.63, 728 452 M728 32 C727.88 172.21, 727.91 312.23, 728 452 M728 452 C726.72 473.5, 717.76 484.86, 696 484 M728 452 C725.87 472.4, 718.2 482.66, 696 484 M696 484 C515.81 482.9, 336.45 482.47, 32 484 M696 484 C432.67 486.71, 169.71 486.65, 32 484 M32 484 C9.54 482.7, 1.08 472.15, 0 452 M32 484 C9.09 483.85, -1.19 473.16, 0 452 M0 452 C1.16 304.96, 1.24 159.03, 0 32 M0 452 C1.32 365.15, 1.14 278.1, 0 32 M0 32 C1.62 10.08, 11.56 0.52, 32 0 M0 32 C1.36 10.42, 11.71 -0.93, 32 0" stroke="#1e1e1e" stroke-width="1" fill="none"></path></g><g stroke-linecap="round" transform="translate(23 24) rotate(0 84.5 227)"><path d="M32 0 M32 0 C58.36 1.45, 85.27 0.04, 137 0 M32 0 C74.21 -0.49, 115.02 -0.46, 137 0 M137 0 C158.58 -0.78, 168.7 8.95, 169 32 M137 0 C159.19 -1.46, 168.07 9.71, 169 32 M169 32 C169.89 137.23, 169.97 241.35, 169 422 M169 32 C167.55 156.73, 167.45 281.87, 169 422 M169 422 C169.42 444.19, 156.48 453.19, 137 454 M169 422 C169.87 442, 157.65 454, 137 454 M137 454 C109.57 454.43, 87.74 456.18, 32 454 M137 454 C95.52 454.43, 52.91 453.64, 32 454 M32 454 C11.75 452.82, -1.37 443.2, 0 422 M32 454 C9.48 453.83, 1.11 441.27, 0 422 M0 422 C0.99 338.67, 0.74 255.31, 0 32 M0 422 C0.86 295.44, 1.89 169.8, 0 32 M0 32 C0.89 11.19, 11.85 -0.21, 32 0 M0 32 C1.05 9.73, 9.56 -1.15, 32 0" stroke="#1e1e1e" stroke-width="1" fill="none"></path></g><g stroke-linecap="round" transform="translate(30 181) rotate(0 76 21.5)"><path d="M10.75 0 M10.75 0 C42.81 -1.08, 78.45 -2.25, 141.25 0 M10.75 0 C46.73 0.26, 83.1 0.57, 141.25 0 M141.25 0 C148.11 -1.72, 152.74 2.31, 152 10.75 M141.25 0 C147.49 -0.96, 151.27 4.16, 152 10.75 M152 10.75 C152.74 18.94, 152.47 25.81, 152 32.25 M152 10.75 C151.26 17.35, 152.11 24.22, 152 32.25 M152 32.25 C150.14 38.61, 149.17 41.84, 141.25 43 M152 32.25 C151.31 39.42, 147.12 40.77, 141.25 43 M141.25 43 C97.64 44.61, 52.13 42.28, 10.75 43 M141.25 43 C97.96 42.54, 56.34 42.6, 10.75 43 M10.75 43 C2.21 42.87, -1.03 39.27, 0 32.25 M10.75 43 C4.69 40.93, -2.01 37.56, 0 32.25 M0 32.25 C-1.72 25.84, 0.62 21.12, 0 10.75 M0 32.25 C1.02 26.1, 0.65 20.8, 0 10.75 M0 10.75 C1.18 3.37, 4.49 -0.81, 10.75 0 M0 10.75 C-1.11 2.44, 1.74 0.49, 10.75 0" stroke="#1e1e1e" stroke-width="1" fill="none"></path></g><g stroke-linecap="round" transform="translate(30 232.5) rotate(0 77 21.5)"><path d="M10.75 0 M10.75 0 C58.68 -1.32, 102.31 1.59, 143.25 0 M10.75 0 C40.91 0.54, 70.66 0.07, 143.25 0 M143.25 0 C151.16 -1.27, 153.19 2.75, 154 10.75 M143.25 0 C149.69 0.58, 155.71 4.22, 154 10.75 M154 10.75 C154.48 17.28, 154.14 24.92, 154 32.25 M154 10.75 C154.08 16.97, 152.94 21.94, 154 32.25 M154 32.25 C154.76 38.25, 149.82 43, 143.25 43 M154 32.25 C152.71 37.18, 151.54 40.9, 143.25 43 M143.25 43 C106 43.43, 65.39 44.66, 10.75 43 M143.25 43 C102.09 41.55, 59.16 42.07, 10.75 43 M10.75 43 C2.55 42.85, 0.97 37.62, 0 32.25 M10.75 43 C1.57 41.15, -1.61 37.75, 0 32.25 M0 32.25 C0.66 25.32, -0.35 18.95, 0 10.75 M0 32.25 C0.27 28.05, 0.42 23.22, 0 10.75 M0 10.75 C0.91 2.77, 2.62 -1, 10.75 0 M0 10.75 C-1.84 4.08, 4.86 0.23, 10.75 0" stroke="#1e1e1e" stroke-width="1" fill="none"></path></g><g transform="translate(64 43) rotate(0 40.784645080566406 11.62070133010883)"><text x="0" y="0" font-family="Helvetica, Segoe UI Emoji" font-size="20.209915356711px" fill="#1e1e1e" text-anchor="start" style="white-space: pre;" direction="ltr" dominant-baseline="text-before-edge">NAVBAR</text></g><g transform="translate(230.1953125 42.37929866989134) rotate(0 43.773216247558594 11.62070133010883)"><text x="0" y="0" font-family="Helvetica, Segoe UI Emoji" font-size="20.209915356711px" fill="#1e1e1e" text-anchor="start" style="white-space: pre;" direction="ltr" dominant-baseline="text-before-edge">SPRINTS</text></g><g stroke-linecap="round"><g transform="translate(660.7777777777778 113.22222222222217) rotate(0 -39.43844791077544 25.990898959194283)"><path d="M-0.16 -0.84 C-13.26 7.9, -64.85 42.9, -77.85 51.53 M-1.7 1.33 C-15.01 10.31, -65.83 44.42, -78.72 52.82" stroke="#2f9e44" stroke-width="1" fill="none"></path></g><g transform="translate(660.7777777777778 113.22222222222217) rotate(0 -39.43844791077544 25.990898959194283)"><path d="M-62.29 28.94 C-68.34 37.15, -75.76 46.97, -79.99 52.01 M-60.15 28.97 C-65.06 35.31, -70.11 41.41, -79.24 52.85" stroke="#2f9e44" stroke-width="1" fill="none"></path></g><g transform="translate(660.7777777777778 113.22222222222217) rotate(0 -39.43844791077544 25.990898959194283)"><path d="M-50.95 46.05 C-61 48.01, -72.55 51.61, -79.99 52.01 M-48.81 46.07 C-56.6 48.02, -64.58 49.7, -79.24 52.85" stroke="#2f9e44" stroke-width="1" fill="none"></path></g></g><mask></mask><g stroke-linecap="round" transform="translate(221.50000000000023 78.63839285714289) rotate(0 47.49999999999977 15.36160714285711)"><path d="M7.68 0 M7.68 0 C29.75 -0.4, 51.66 0.64, 87.32 0 M7.68 0 C26.18 0.58, 46.06 0.61, 87.32 0 M87.32 0 C93.47 0.68, 95.14 2.97, 95 7.68 M87.32 0 C91.25 0.07, 93.92 1.86, 95 7.68 M95 7.68 C95.67 9.88, 94.39 15.52, 95 23.04 M95 7.68 C94.52 10.65, 95.33 14.41, 95 23.04 M95 23.04 C94.92 30.09, 94.1 32.68, 87.32 30.72 M95 23.04 C94.23 28.79, 93.08 31.06, 87.32 30.72 M87.32 30.72 C66.73 29.78, 48.36 30.12, 7.68 30.72 M87.32 30.72 C63.15 29.2, 40.02 29.28, 7.68 30.72 M7.68 30.72 C1.85 28.85, -1.47 28.63, 0 23.04 M7.68 30.72 C1.13 30.09, -2.21 26.03, 0 23.04 M0 23.04 C0.45 18.1, -0.12 12.04, 0 7.68 M0 23.04 C-0.54 19.22, 0.5 15.15, 0 7.68 M0 7.68 C-0.07 3.77, 4.19 -0.82, 7.68 0 M0 7.68 C-1.86 3.95, 1.56 0.53, 7.68 0" stroke="#1e1e1e" stroke-width="1" fill="none"></path></g><g stroke-linecap="round" transform="translate(339.5000000000002 78.63839285714289) rotate(0 47.49999999999977 15.36160714285711)"><path d="M7.68 0 M7.68 0 C30.84 0.86, 56.17 -0.69, 87.32 0 M7.68 0 C29 0.08, 49.35 0.14, 87.32 0 M87.32 0 C92.58 0.41, 93.97 2.62, 95 7.68 M87.32 0 C91.36 -0.7, 93.53 2.76, 95 7.68 M95 7.68 C94.44 13.2, 94.17 17.09, 95 23.04 M95 7.68 C95.29 11.59, 94.88 17.64, 95 23.04 M95 23.04 C96.66 30.12, 91.77 31.27, 87.32 30.72 M95 23.04 C95.64 28.5, 91.15 29.23, 87.32 30.72 M87.32 30.72 C58.98 29.14, 30.76 31.14, 7.68 30.72 M87.32 30.72 C69.89 29.36, 53.51 29.15, 7.68 30.72 M7.68 30.72 C1.09 31.19, -1.24 27.61, 0 23.04 M7.68 30.72 C0.35 28.59, 1.86 27.49, 0 23.04 M0 23.04 C-0.2 18.45, -0.66 11.72, 0 7.68 M0 23.04 C0.55 19.27, 0.09 15.82, 0 7.68 M0 7.68 C1.63 1.74, 0.94 1.21, 7.68 0 M0 7.68 C-1 3.09, 3.67 -1.42, 7.68 0" stroke="#1e1e1e" stroke-width="1" fill="none"></path></g><g stroke-linecap="round" transform="translate(212.8888888888889 140.05555555555554) rotate(0 218.8888888888889 25)"><path d="M12.5 0 M12.5 0 C106.63 0.61, 199.92 -0.41, 425.28 0 M12.5 0 C133.97 0.24, 255.36 0.43, 425.28 0 M425.28 0 C431.79 1.03, 436.06 3.92, 437.78 12.5 M425.28 0 C434.55 1.45, 439.82 4.99, 437.78 12.5 M437.78 12.5 C437.78 20.56, 437.29 29.6, 437.78 37.5 M437.78 12.5 C436.8 23.08, 436.83 32.67, 437.78 37.5 M437.78 37.5 C438.8 47.57, 432.18 48.31, 425.28 50 M437.78 37.5 C439.21 44.03, 433.44 49.32, 425.28 50 M425.28 50 C272.94 51.28, 122.79 51.3, 12.5 50 M425.28 50 C303.2 50.03, 181.96 49.4, 12.5 50 M12.5 50 C3.43 50.78, 1.61 45.41, 0 37.5 M12.5 50 C5.17 52.21, -1.05 46.78, 0 37.5 M0 37.5 C-1.22 29.58, 1.92 24.99, 0 12.5 M0 37.5 C0.7 30.68, 0.5 23.86, 0 12.5 M0 12.5 C0.83 2.71, 4.36 0.53, 12.5 0 M0 12.5 C1.73 3.16, 2.32 0.78, 12.5 0" stroke="#1e1e1e" stroke-width="1" fill="none"></path></g><g stroke-linecap="round" transform="translate(532.0555555555558 149.1383928571429) rotate(0 47.49999999999977 15.36160714285711)"><path d="M7.68 0 M7.68 0 C39.55 1.61, 70.21 -0.48, 87.32 0 M7.68 0 C31.66 0.2, 54.46 -0.16, 87.32 0 M87.32 0 C93.06 -1.55, 96.73 2.06, 95 7.68 M87.32 0 C90.23 -1.96, 94.32 4.26, 95 7.68 M95 7.68 C94.93 12.62, 93.96 20.4, 95 23.04 M95 7.68 C95.18 12.25, 94.58 15.68, 95 23.04 M95 23.04 C94.43 28.85, 93.02 30.57, 87.32 30.72 M95 23.04 C92.84 28.14, 93.3 31.67, 87.32 30.72 M87.32 30.72 C63.05 29.68, 36.54 28.89, 7.68 30.72 M87.32 30.72 C71.04 31.34, 55.25 30.67, 7.68 30.72 M7.68 30.72 C2.99 30, 1.98 29.9, 0 23.04 M7.68 30.72 C4.72 28.74, 1.62 25.97, 0 23.04 M0 23.04 C-0.02 20.79, 1.44 16, 0 7.68 M0 23.04 C-0.25 17.38, 0.62 11.2, 0 7.68 M0 7.68 C0.84 2.34, 4.13 -0.15, 7.68 0 M0 7.68 C1.5 3.82, 2.05 -1.66, 7.68 0" stroke="#1e1e1e" stroke-width="1" fill="none"></path></g><g stroke-linecap="round" transform="translate(593.166666666667 212.47172619047626) rotate(0 47.49999999999977 15.36160714285711)"><path d="M7.68 0 M7.68 0 C29.66 0.04, 51.36 -0.94, 87.32 0 M7.68 0 C38.88 -0.71, 69.02 -0.35, 87.32 0 M87.32 0 C90.8 1.74, 94.04 2.63, 95 7.68 M87.32 0 C91.94 0.95, 94.48 1.81, 95 7.68 M95 7.68 C96.28 11.84, 95.94 19.57, 95 23.04 M95 7.68 C95.83 13.32, 94.52 18.51, 95 23.04 M95 23.04 C93.5 30.15, 93.04 28.95, 87.32 30.72 M95 23.04 C96.7 28.77, 90.54 31.51, 87.32 30.72 M87.32 30.72 C63.3 30.66, 44.62 30.26, 7.68 30.72 M87.32 30.72 C70.95 29.27, 53.92 30.32, 7.68 30.72 M7.68 30.72 C2.24 29.78, -0.35 28.53, 0 23.04 M7.68 30.72 C1.43 28.84, -2.03 30.09, 0 23.04 M0 23.04 C0.59 16.75, -1.44 10.08, 0 7.68 M0 23.04 C-0.76 19.45, -0.6 15.72, 0 7.68 M0 7.68 C0.31 4.53, 1.22 1.02, 7.68 0 M0 7.68 C0.7 0.82, 1.91 0.25, 7.68 0" stroke="#1e1e1e" stroke-width="1" fill="none"></path></g><g stroke-linecap="round" transform="translate(222.8888888888889 288.94444444444434) rotate(0 53.888888888888886 93.33333333333331)"><path d="M26.94 0 M26.94 0 C39.35 -0.56, 54.88 2, 80.83 0 M26.94 0 C38.73 -0.44, 52.14 0.51, 80.83 0 M80.83 0 C98.13 0.07, 107.37 8.49, 107.78 26.94 M80.83 0 C97.37 0.42, 107.79 7.55, 107.78 26.94 M107.78 26.94 C109.77 61.86, 107.01 96.31, 107.78 159.72 M107.78 26.94 C106.96 70.64, 108.23 113.72, 107.78 159.72 M107.78 159.72 C106.65 179.56, 97.12 185.28, 80.83 186.67 M107.78 159.72 C106.37 177.14, 100.5 186.18, 80.83 186.67 M80.83 186.67 C58.53 186.99, 39.6 187.86, 26.94 186.67 M80.83 186.67 C65.21 186.34, 50.82 186.79, 26.94 186.67 M26.94 186.67 C9.23 187.13, -1.62 179.56, 0 159.72 M26.94 186.67 C9.51 188.6, -2.06 176.89, 0 159.72 M0 159.72 C-1.94 130.99, -3.16 102.69, 0 26.94 M0 159.72 C-0.45 115.51, -1.12 71.02, 0 26.94 M0 26.94 C-0.89 7.87, 10.51 -0.32, 26.94 0 M0 26.94 C-0.2 7.14, 9.63 0.66, 26.94 0" stroke="#1e1e1e" stroke-width="1" fill="none"></path></g><g stroke-linecap="round" transform="translate(355.66666666666674 290.05555555555554) rotate(0 53.888888888888886 93.33333333333331)"><path d="M26.94 0 M26.94 0 C39.34 -0.72, 49.24 -1.47, 80.83 0 M26.94 0 C45.84 -0.52, 66.68 -0.1, 80.83 0 M80.83 0 C100.46 1.48, 107.26 9.06, 107.78 26.94 M80.83 0 C99.07 -2.27, 107.32 7.83, 107.78 26.94 M107.78 26.94 C105.88 77.75, 108.76 126.74, 107.78 159.72 M107.78 26.94 C107.44 54.63, 108.5 82.11, 107.78 159.72 M107.78 159.72 C106.73 177.37, 100.77 185.01, 80.83 186.67 M107.78 159.72 C108.22 179.13, 97.43 185.78, 80.83 186.67 M80.83 186.67 C66.18 186.28, 53.89 188.43, 26.94 186.67 M80.83 186.67 C65.18 187.5, 49.78 186.46, 26.94 186.67 M26.94 186.67 C8.23 185.15, -1.75 176.63, 0 159.72 M26.94 186.67 C8.87 187.2, -0.63 179.17, 0 159.72 M0 159.72 C-1.76 129.28, -0.39 102.97, 0 26.94 M0 159.72 C-0.25 118.19, -0.11 74.77, 0 26.94 M0 26.94 C0.56 8.59, 7.74 -1.24, 26.94 0 M0 26.94 C-0.48 8.7, 7.25 0.77, 26.94 0" stroke="#1e1e1e" stroke-width="1" fill="none"></path></g><g stroke-linecap="round" transform="translate(489 288.94444444444446) rotate(0 53.888888888888914 93.33333333333331)"><path d="M26.94 0 M26.94 0 C43.34 -0.9, 55.7 -1.45, 80.83 0 M26.94 0 C45.93 0.11, 64.12 0.83, 80.83 0 M80.83 0 C100.73 -0.05, 108.34 8.59, 107.78 26.94 M80.83 0 C97.37 -1.42, 107.3 8.7, 107.78 26.94 M107.78 26.94 C106.98 55.05, 110 86.39, 107.78 159.72 M107.78 26.94 C109.68 61.97, 108.79 98.09, 107.78 159.72 M107.78 159.72 C108.14 177.75, 99.69 188.66, 80.83 186.67 M107.78 159.72 C106.15 179.1, 100.46 185.72, 80.83 186.67 M80.83 186.67 C68.73 186.93, 56.31 187.84, 26.94 186.67 M80.83 186.67 C63.44 187.1, 44.65 185.65, 26.94 186.67 M26.94 186.67 C8.5 188.01, 1.12 178.62, 0 159.72 M26.94 186.67 C9.3 186.08, -0.47 179.86, 0 159.72 M0 159.72 C-0.11 121.77, 0.22 83.74, 0 26.94 M0 159.72 C0.02 110.77, -0.76 63.13, 0 26.94 M0 26.94 C1.55 8.38, 8.81 -0.85, 26.94 0 M0 26.94 C0.85 8.43, 7.99 1.43, 26.94 0" stroke="#1e1e1e" stroke-width="1" fill="none"></path></g></svg>