<?xml version="1.0" encoding="us-ascii" standalone="no"?><svg xmlns="http://www.w3.org/2000/svg" xmlns:xlink="http://www.w3.org/1999/xlink" contentStyleType="text/css" height="1046px" preserveAspectRatio="none" style="width:1258px;height:1046px;background:#FFFFFF;" version="1.1" viewBox="0 0 1258 1046" width="1258px" zoomAndPan="magnify"><defs/><g><text fill="#000000" font-family="sans-serif" font-size="14" font-weight="bold" lengthAdjust="spacing" textLength="482" x="381.25" y="22.9951">US005 - As Administrator, I want to inactivate a user account</text><!--class InactivateAccountController--><g id="elem_InactivateAccountController"><rect codeLine="4" fill="#F1F1F1" height="80.5938" id="InactivateAccountController" rx="2.5" ry="2.5" style="stroke:#181818;stroke-width:0.5;" width="354" x="616.5" y="44.2969"/><ellipse cx="694.75" cy="60.2969" fill="#ADD1B2" rx="11" ry="11" style="stroke:#181818;stroke-width:1.0;"/><path d="M697.7188,65.9375 Q697.1406,66.2344 696.5,66.375 Q695.8594,66.5313 695.1563,66.5313 Q692.6563,66.5313 691.3281,64.8906 Q690.0156,63.2344 690.0156,60.1094 Q690.0156,56.9844 691.3281,55.3281 Q692.6563,53.6719 695.1563,53.6719 Q695.8594,53.6719 696.5,53.8281 Q697.1563,53.9844 697.7188,54.2813 L697.7188,57 Q697.0938,56.4219 696.5,56.1563 Q695.9063,55.875 695.2813,55.875 Q693.9375,55.875 693.25,56.9531 Q692.5625,58.0156 692.5625,60.1094 Q692.5625,62.2031 693.25,63.2813 Q693.9375,64.3438 695.2813,64.3438 Q695.9063,64.3438 696.5,64.0781 Q697.0938,63.7969 697.7188,63.2188 L697.7188,65.9375 Z " fill="#000000"/><text fill="#000000" font-family="sans-serif" font-size="14" lengthAdjust="spacing" textLength="189" x="715.25" y="65.1436">InactivateAccountController</text><line style="stroke:#181818;stroke-width:0.5;" x1="617.5" x2="969.5" y1="76.2969" y2="76.2969"/><rect fill="none" height="6" style="stroke:#C82930;stroke-width:1.0;" width="6" x="624.5" y="86.9453"/><text fill="#000000" font-family="sans-serif" font-size="14" lengthAdjust="spacing" textLength="309" x="636.5" y="93.292">accountService : AccountService {readOnly}</text><line style="stroke:#181818;stroke-width:0.5;" x1="617.5" x2="969.5" y1="100.5938" y2="100.5938"/><ellipse cx="627.5" cy="114.2422" fill="#84BE84" rx="3" ry="3" style="stroke:#038048;stroke-width:1.0;"/><text fill="#000000" font-family="sans-serif" font-size="14" lengthAdjust="spacing" textLength="328" x="636.5" y="117.5889">inactivateAccount(emailValue : String) : boolean</text></g><!--class AccountService--><g id="elem_AccountService"><rect codeLine="2" fill="#F1F1F1" height="243.5625" id="AccountService" rx="2.5" ry="2.5" style="stroke:#181818;stroke-width:0.5;" width="669" x="459" y="186.2969"/><ellipse cx="735.75" cy="202.2969" fill="#ADD1B2" rx="11" ry="11" style="stroke:#181818;stroke-width:1.0;"/><path d="M738.7188,207.9375 Q738.1406,208.2344 737.5,208.375 Q736.8594,208.5313 736.1563,208.5313 Q733.6563,208.5313 732.3281,206.8906 Q731.0156,205.2344 731.0156,202.1094 Q731.0156,198.9844 732.3281,197.3281 Q733.6563,195.6719 736.1563,195.6719 Q736.8594,195.6719 737.5,195.8281 Q738.1563,195.9844 738.7188,196.2813 L738.7188,199 Q738.0938,198.4219 737.5,198.1563 Q736.9063,197.875 736.2813,197.875 Q734.9375,197.875 734.25,198.9531 Q733.5625,200.0156 733.5625,202.1094 Q733.5625,204.2031 734.25,205.2813 Q734.9375,206.3438 736.2813,206.3438 Q736.9063,206.3438 737.5,206.0781 Q738.0938,205.7969 738.7188,205.2188 L738.7188,207.9375 Z " fill="#000000"/><text fill="#000000" font-family="sans-serif" font-size="14" lengthAdjust="spacing" textLength="107" x="756.25" y="207.1436">AccountService</text><line style="stroke:#181818;stroke-width:0.5;" x1="460" x2="1127" y1="218.2969" y2="218.2969"/><rect fill="none" height="6" style="stroke:#C82930;stroke-width:1.0;" width="6" x="467" y="228.9453"/><text fill="#000000" font-family="sans-serif" font-size="14" lengthAdjust="spacing" textLength="226" x="479" y="235.292">accountFactory : AccountFactory</text><rect fill="none" height="6" style="stroke:#C82930;stroke-width:1.0;" width="6" x="467" y="245.2422"/><text fill="#000000" font-family="sans-serif" font-size="14" lengthAdjust="spacing" textLength="245" x="479" y="251.5889">profileRepository : ProfileRepository</text><rect fill="none" height="6" style="stroke:#C82930;stroke-width:1.0;" width="6" x="467" y="261.5391"/><text fill="#000000" font-family="sans-serif" font-size="14" lengthAdjust="spacing" textLength="274" x="479" y="267.8857">accountRepository : AccountRepository</text><line style="stroke:#181818;stroke-width:0.5;" x1="460" x2="1127" y1="275.1875" y2="275.1875"/><ellipse cx="470" cy="288.8359" fill="#84BE84" rx="3" ry="3" style="stroke:#038048;stroke-width:1.0;"/><text fill="#000000" font-family="sans-serif" font-size="14" lengthAdjust="spacing" textLength="643" x="479" y="292.1826">AccountService(accountRepository : AccountRepository, profileRepository : ProfileRepository,</text><text fill="#000000" font-family="sans-serif" font-size="14" lengthAdjust="spacing" textLength="231" x="479" y="308.4795">accountFactory : AccountFactory)</text><ellipse cx="470" cy="329.5781" fill="#84BE84" rx="3" ry="3" style="stroke:#038048;stroke-width:1.0;"/><text fill="#000000" font-family="sans-serif" font-size="14" lengthAdjust="spacing" textLength="432" x="479" y="324.7764">createAccount(accountNameValue : String, emailValue : String,</text><text fill="#000000" font-family="sans-serif" font-size="14" lengthAdjust="spacing" textLength="346" x="483" y="341.0732">photo : Image, phoneNumberValue : int) : boolean</text><ellipse cx="470" cy="362.1719" fill="#84BE84" rx="3" ry="3" style="stroke:#038048;stroke-width:1.0;"/><text fill="#000000" font-family="sans-serif" font-size="14" lengthAdjust="spacing" textLength="352" x="479" y="357.3701">changeProfileOfUserAccount(accountEmail : String,</text><text fill="#000000" font-family="sans-serif" font-size="14" lengthAdjust="spacing" textLength="209" x="479" y="373.667">profileName : String) : boolean</text><rect fill="#F24D5C" height="6" style="stroke:#C82930;stroke-width:1.0;" width="6" x="467" y="383.6172"/><text fill="#000000" font-family="sans-serif" font-size="14" lengthAdjust="spacing" textLength="221" x="479" y="389.9639">getAccount(id : Email) : Account</text><ellipse cx="470" cy="402.9141" fill="#84BE84" rx="3" ry="3" style="stroke:#038048;stroke-width:1.0;"/><text fill="#000000" font-family="sans-serif" font-size="14" lengthAdjust="spacing" textLength="574" x="479" y="406.2607">changeAccountStatus(emailValue : String, accountStatusValue : boolean) : boolean</text><ellipse cx="470" cy="419.2109" fill="#84BE84" rx="3" ry="3" style="stroke:#038048;stroke-width:1.0;"/><text fill="#000000" font-family="sans-serif" font-size="14" lengthAdjust="spacing" textLength="415" x="479" y="422.5576">createAccountAndStatusList() : AccountAndStatusDTO [0..*]</text></g><!--class Account--><g id="elem_Account"><rect codeLine="2" fill="#F1F1F1" height="414.7969" id="Account" rx="2.5" ry="2.5" style="stroke:#181818;stroke-width:0.5;" width="445" x="9" y="507.2969"/><ellipse cx="174.75" cy="527.4297" fill="#ADD1B2" rx="11" ry="11" style="stroke:#181818;stroke-width:1.0;"/><path d="M177.7188,533.0703 Q177.1406,533.3672 176.5,533.5078 Q175.8594,533.6641 175.1563,533.6641 Q172.6563,533.6641 171.3281,532.0234 Q170.0156,530.3672 170.0156,527.2422 Q170.0156,524.1172 171.3281,522.4609 Q172.6563,520.8047 175.1563,520.8047 Q175.8594,520.8047 176.5,520.9609 Q177.1563,521.1172 177.7188,521.4141 L177.7188,524.1328 Q177.0938,523.5547 176.5,523.2891 Q175.9063,523.0078 175.2813,523.0078 Q173.9375,523.0078 173.25,524.0859 Q172.5625,525.1484 172.5625,527.2422 Q172.5625,529.3359 173.25,530.4141 Q173.9375,531.4766 175.2813,531.4766 Q175.9063,531.4766 176.5,531.2109 Q177.0938,530.9297 177.7188,530.3516 L177.7188,533.0703 Z " fill="#000000"/><text fill="#000000" font-family="sans-serif" font-size="12" font-style="italic" lengthAdjust="spacing" textLength="109" x="193.25" y="523.4355">&#171;AggregateRoot&#187;</text><text fill="#000000" font-family="sans-serif" font-size="14" lengthAdjust="spacing" textLength="57" x="219.25" y="539.2607">Account</text><line style="stroke:#181818;stroke-width:0.5;" x1="10" x2="453" y1="547.5625" y2="547.5625"/><rect fill="none" height="6" style="stroke:#C82930;stroke-width:1.0;" width="6" x="17" y="558.2109"/><text fill="#000000" font-family="sans-serif" font-size="14" lengthAdjust="spacing" textLength="232" x="29" y="564.5576">name : AccountName {readOnly}</text><rect fill="none" height="6" style="stroke:#C82930;stroke-width:1.0;" width="6" x="17" y="574.5078"/><text fill="#000000" font-family="sans-serif" font-size="14" lengthAdjust="spacing" textLength="168" x="29" y="580.8545">email : Email {readOnly}</text><rect fill="none" height="6" style="stroke:#C82930;stroke-width:1.0;" width="6" x="17" y="590.8047"/><text fill="#000000" font-family="sans-serif" font-size="14" lengthAdjust="spacing" textLength="179" x="29" y="597.1514">photo : Image {readOnly}</text><rect fill="none" height="6" style="stroke:#C82930;stroke-width:1.0;" width="6" x="17" y="607.1016"/><text fill="#000000" font-family="sans-serif" font-size="14" lengthAdjust="spacing" textLength="296" x="29" y="613.4482">phoneNumber : PhoneNumber {readOnly}</text><rect fill="none" height="6" style="stroke:#C82930;stroke-width:1.0;" width="6" x="17" y="623.3984"/><text fill="#000000" font-family="sans-serif" font-size="14" lengthAdjust="spacing" textLength="178" x="29" y="629.7451">profileName : ProfileNAme</text><rect fill="none" height="6" style="stroke:#C82930;stroke-width:1.0;" width="6" x="17" y="639.6953"/><text fill="#000000" font-family="sans-serif" font-size="14" lengthAdjust="spacing" textLength="214" x="29" y="646.042">accountStatus : AccountStatus</text><line style="stroke:#181818;stroke-width:0.5;" x1="10" x2="453" y1="653.3438" y2="653.3438"/><polygon fill="#FFFF44" points="20,670.1406,24,674.1406,20,678.1406,16,674.1406" style="stroke:#B38D22;stroke-width:1.0;"/><text fill="#000000" font-family="sans-serif" font-size="14" lengthAdjust="spacing" textLength="412" x="29" y="670.3389">Account(name : AccountName, email : Email, photo : Image,</text><text fill="#000000" font-family="sans-serif" font-size="14" lengthAdjust="spacing" textLength="312" x="33" y="686.6357">phoneNumber : PhoneNumber, profileName :</text><text fill="#000000" font-family="sans-serif" font-size="14" lengthAdjust="spacing" textLength="309" x="29" y="702.9326">ProfileName, accountStatus : AccountStatus)</text><ellipse cx="20" cy="715.8828" fill="#84BE84" rx="3" ry="3" style="stroke:#038048;stroke-width:1.0;"/><text fill="#000000" font-family="sans-serif" font-size="14" lengthAdjust="spacing" textLength="323" x="29" y="719.2295">hasProfile(profileName : ProfileName) : boolean</text><ellipse cx="20" cy="732.1797" fill="#84BE84" rx="3" ry="3" style="stroke:#038048;stroke-width:1.0;"/><text fill="#000000" font-family="sans-serif" font-size="14" lengthAdjust="spacing" textLength="416" x="29" y="735.5264">setAccountStatus(accountStatus : AccountStatus) : boolean</text><ellipse cx="20" cy="748.4766" fill="#84BE84" rx="3" ry="3" style="stroke:#038048;stroke-width:1.0;"/><text fill="#000000" font-family="sans-serif" font-size="14" lengthAdjust="spacing" textLength="419" x="29" y="751.8232">hasAccountStatus(accountStatus : AccountStatus) : boolean</text><ellipse cx="20" cy="764.7734" fill="#84BE84" rx="3" ry="3" style="stroke:#038048;stroke-width:1.0;"/><text fill="#000000" font-family="sans-serif" font-size="14" lengthAdjust="spacing" textLength="248" x="29" y="768.1201">getAccountStatus() : AccountStatus</text><ellipse cx="20" cy="781.0703" fill="#84BE84" rx="3" ry="3" style="stroke:#038048;stroke-width:1.0;"/><text fill="#000000" font-family="sans-serif" font-size="14" lengthAdjust="spacing" textLength="385" x="29" y="784.417">changeProfileOfUserAccount(profileName : ProfileName)</text><ellipse cx="20" cy="797.3672" fill="#84BE84" rx="3" ry="3" style="stroke:#038048;stroke-width:1.0;"/><text fill="#000000" font-family="sans-serif" font-size="14" lengthAdjust="spacing" textLength="240" x="29" y="800.7139">getAccountName() : AccountName</text><ellipse cx="20" cy="813.6641" fill="#84BE84" rx="3" ry="3" style="stroke:#038048;stroke-width:1.0;"/><text fill="#000000" font-family="sans-serif" font-size="14" lengthAdjust="spacing" textLength="170" x="29" y="817.0107">getProfile() : ProfileName</text><ellipse cx="20" cy="829.9609" fill="#84BE84" rx="3" ry="3" style="stroke:#038048;stroke-width:1.0;"/><text fill="#000000" font-family="sans-serif" font-size="14" lengthAdjust="spacing" textLength="118" x="29" y="833.3076">getEmail() : Email</text><ellipse cx="20" cy="846.2578" fill="#84BE84" rx="3" ry="3" style="stroke:#038048;stroke-width:1.0;"/><text fill="#000000" font-family="sans-serif" font-size="14" lengthAdjust="spacing" textLength="246" x="29" y="849.6045">getPhoneNumber() : PhoneNumber</text><ellipse cx="20" cy="862.5547" fill="#84BE84" rx="3" ry="3" style="stroke:#038048;stroke-width:1.0;"/><text fill="#000000" font-family="sans-serif" font-size="14" lengthAdjust="spacing" textLength="109" x="29" y="865.9014">identity() : Email</text><ellipse cx="20" cy="878.8516" fill="#84BE84" rx="3" ry="3" style="stroke:#038048;stroke-width:1.0;"/><text fill="#000000" font-family="sans-serif" font-size="14" lengthAdjust="spacing" textLength="235" x="29" y="882.1982">sameAs(object : Object) : boolean</text><ellipse cx="20" cy="895.1484" fill="#84BE84" rx="3" ry="3" style="stroke:#038048;stroke-width:1.0;"/><text fill="#000000" font-family="sans-serif" font-size="14" lengthAdjust="spacing" textLength="192" x="29" y="898.4951">equals(o : Object) : boolean</text><ellipse cx="20" cy="911.4453" fill="#84BE84" rx="3" ry="3" style="stroke:#038048;stroke-width:1.0;"/><text fill="#000000" font-family="sans-serif" font-size="14" lengthAdjust="spacing" textLength="111" x="29" y="914.792">hashCode() : int</text></g><!--class AccountRepository--><g id="elem_AccountRepository"><rect codeLine="1" fill="#F1F1F1" height="56.2656" id="AccountRepository" rx="2.5" ry="2.5" style="stroke:#181818;stroke-width:0.5;" width="164" x="523.5" y="983.2969"/><ellipse cx="538.5" cy="1003.4297" fill="#B4A7E5" rx="11" ry="11" style="stroke:#181818;stroke-width:1.0;"/><path d="M534.4219,999.1953 L534.4219,997.0391 L541.8125,997.0391 L541.8125,999.1953 L539.3438,999.1953 L539.3438,1007.2734 L541.8125,1007.2734 L541.8125,1009.4297 L534.4219,1009.4297 L534.4219,1007.2734 L536.8906,1007.2734 L536.8906,999.1953 L534.4219,999.1953 Z " fill="#000000"/><text fill="#000000" font-family="sans-serif" font-size="12" font-style="italic" lengthAdjust="spacing" textLength="80" x="578.5" y="999.4355">&#171;Repository&#187;</text><text fill="#000000" font-family="sans-serif" font-size="14" font-style="italic" lengthAdjust="spacing" textLength="132" x="552.5" y="1015.2607">AccountRepository</text><line style="stroke:#181818;stroke-width:0.5;" x1="524.5" x2="686.5" y1="1023.5625" y2="1023.5625"/><line style="stroke:#181818;stroke-width:0.5;" x1="524.5" x2="686.5" y1="1031.5625" y2="1031.5625"/></g><!--class Repository--><g id="elem_Repository"><rect codeLine="4" fill="#F1F1F1" height="154.0469" id="Repository" rx="2.5" ry="2.5" style="stroke:#181818;stroke-width:0.5;" width="232" x="489.5" y="637.7969"/><ellipse cx="563.25" cy="657.9297" fill="#B4A7E5" rx="11" ry="11" style="stroke:#181818;stroke-width:1.0;"/><path d="M559.1719,653.6953 L559.1719,651.5391 L566.5625,651.5391 L566.5625,653.6953 L564.0938,653.6953 L564.0938,661.7734 L566.5625,661.7734 L566.5625,663.9297 L559.1719,663.9297 L559.1719,661.7734 L561.6406,661.7734 L561.6406,653.6953 L559.1719,653.6953 Z " fill="#000000"/><text fill="#000000" font-family="sans-serif" font-size="12" font-style="italic" lengthAdjust="spacing" textLength="80" x="581.75" y="653.9355">&#171;Repository&#187;</text><text fill="#000000" font-family="sans-serif" font-size="14" font-style="italic" lengthAdjust="spacing" textLength="74" x="584.75" y="669.7607">Repository</text><line style="stroke:#181818;stroke-width:0.5;" x1="490.5" x2="720.5" y1="678.0625" y2="678.0625"/><line style="stroke:#181818;stroke-width:0.5;" x1="490.5" x2="720.5" y1="686.0625" y2="686.0625"/><ellipse cx="500.5" cy="699.7109" fill="#84BE84" rx="3" ry="3" style="stroke:#038048;stroke-width:1.0;"/><text fill="#000000" font-family="sans-serif" font-size="14" lengthAdjust="spacing" textLength="124" x="509.5" y="703.0576">save(entity : T) : T</text><ellipse cx="500.5" cy="716.0078" fill="#84BE84" rx="3" ry="3" style="stroke:#038048;stroke-width:1.0;"/><text fill="#000000" font-family="sans-serif" font-size="14" lengthAdjust="spacing" textLength="147" x="509.5" y="719.3545">findAll() : Iterable&lt;T&gt;</text><ellipse cx="500.5" cy="732.3047" fill="#84BE84" rx="3" ry="3" style="stroke:#038048;stroke-width:1.0;"/><text fill="#000000" font-family="sans-serif" font-size="14" lengthAdjust="spacing" textLength="206" x="509.5" y="735.6514">findById(id : ID) : Optional&lt;T&gt;</text><ellipse cx="500.5" cy="748.6016" fill="#84BE84" rx="3" ry="3" style="stroke:#038048;stroke-width:1.0;"/><text fill="#000000" font-family="sans-serif" font-size="14" lengthAdjust="spacing" textLength="187" x="509.5" y="751.9482">existsById(id : ID) : boolean</text><ellipse cx="500.5" cy="764.8984" fill="#84BE84" rx="3" ry="3" style="stroke:#038048;stroke-width:1.0;"/><text fill="#000000" font-family="sans-serif" font-size="14" lengthAdjust="spacing" textLength="69" x="509.5" y="768.2451">deleteAll()</text><ellipse cx="500.5" cy="781.1953" fill="#84BE84" rx="3" ry="3" style="stroke:#038048;stroke-width:1.0;"/><text fill="#000000" font-family="sans-serif" font-size="14" lengthAdjust="spacing" textLength="126" x="509.5" y="784.542">deleteById (id : ID)</text></g><!--class Email--><g id="elem_Email"><rect codeLine="4" fill="#F1F1F1" height="154.0469" id="Email" rx="2.5" ry="2.5" style="stroke:#181818;stroke-width:0.5;" width="218" x="756.5" y="637.7969"/><ellipse cx="826.25" cy="657.9297" fill="#ADD1B2" rx="11" ry="11" style="stroke:#181818;stroke-width:1.0;"/><path d="M829.2188,663.5703 Q828.6406,663.8672 828,664.0078 Q827.3594,664.1641 826.6563,664.1641 Q824.1563,664.1641 822.8281,662.5234 Q821.5156,660.8672 821.5156,657.7422 Q821.5156,654.6172 822.8281,652.9609 Q824.1563,651.3047 826.6563,651.3047 Q827.3594,651.3047 828,651.4609 Q828.6563,651.6172 829.2188,651.9141 L829.2188,654.6328 Q828.5938,654.0547 828,653.7891 Q827.4063,653.5078 826.7813,653.5078 Q825.4375,653.5078 824.75,654.5859 Q824.0625,655.6484 824.0625,657.7422 Q824.0625,659.8359 824.75,660.9141 Q825.4375,661.9766 826.7813,661.9766 Q827.4063,661.9766 828,661.7109 Q828.5938,661.4297 829.2188,660.8516 L829.2188,663.5703 Z " fill="#000000"/><text fill="#000000" font-family="sans-serif" font-size="12" font-style="italic" lengthAdjust="spacing" textLength="74" x="844.75" y="653.9355">&#171;DomainID&#187;</text><text fill="#000000" font-family="sans-serif" font-size="14" lengthAdjust="spacing" textLength="36" x="863.75" y="669.7607">Email</text><line style="stroke:#181818;stroke-width:0.5;" x1="757.5" x2="973.5" y1="678.0625" y2="678.0625"/><rect fill="none" height="6" style="stroke:#C82930;stroke-width:1.0;" width="6" x="764.5" y="688.7109"/><text fill="#000000" font-family="sans-serif" font-size="14" lengthAdjust="spacing" textLength="127" x="776.5" y="695.0576">emailValue : String</text><line style="stroke:#181818;stroke-width:0.5;" x1="757.5" x2="973.5" y1="702.3594" y2="702.3594"/><ellipse cx="767.5" cy="716.0078" fill="#84BE84" rx="3" ry="3" style="stroke:#038048;stroke-width:1.0;"/><text fill="#000000" font-family="sans-serif" font-size="14" lengthAdjust="spacing" textLength="135" x="776.5" y="719.3545">Email(email : String)</text><ellipse cx="767.5" cy="732.3047" fill="#84BE84" rx="3" ry="3" style="stroke:#038048;stroke-width:1.0;"/><text fill="#000000" font-family="sans-serif" font-size="14" lengthAdjust="spacing" textLength="117" x="776.5" y="735.6514">toString() : String</text><ellipse cx="767.5" cy="748.6016" fill="#84BE84" rx="3" ry="3" style="stroke:#038048;stroke-width:1.0;"/><text fill="#000000" font-family="sans-serif" font-size="14" lengthAdjust="spacing" textLength="160" x="776.5" y="751.9482">getEmailValue() : String</text><ellipse cx="767.5" cy="764.8984" fill="#84BE84" rx="3" ry="3" style="stroke:#038048;stroke-width:1.0;"/><text fill="#000000" font-family="sans-serif" font-size="14" lengthAdjust="spacing" textLength="192" x="776.5" y="768.2451">equals(o : Object) : boolean</text><ellipse cx="767.5" cy="781.1953" fill="#84BE84" rx="3" ry="3" style="stroke:#038048;stroke-width:1.0;"/><text fill="#000000" font-family="sans-serif" font-size="14" lengthAdjust="spacing" textLength="111" x="776.5" y="784.542">hashCode() : int</text></g><!--class AccountStatus--><g id="elem_AccountStatus"><rect codeLine="2" fill="#F1F1F1" height="154.0469" id="AccountStatus" rx="2.5" ry="2.5" style="stroke:#181818;stroke-width:0.5;" width="242" x="1009.5" y="637.7969"/><ellipse cx="1075.75" cy="657.9297" fill="#ADD1B2" rx="11" ry="11" style="stroke:#181818;stroke-width:1.0;"/><path d="M1078.7188,663.5703 Q1078.1406,663.8672 1077.5,664.0078 Q1076.8594,664.1641 1076.1563,664.1641 Q1073.6563,664.1641 1072.3281,662.5234 Q1071.0156,660.8672 1071.0156,657.7422 Q1071.0156,654.6172 1072.3281,652.9609 Q1073.6563,651.3047 1076.1563,651.3047 Q1076.8594,651.3047 1077.5,651.4609 Q1078.1563,651.6172 1078.7188,651.9141 L1078.7188,654.6328 Q1078.0938,654.0547 1077.5,653.7891 Q1076.9063,653.5078 1076.2813,653.5078 Q1074.9375,653.5078 1074.25,654.5859 Q1073.5625,655.6484 1073.5625,657.7422 Q1073.5625,659.8359 1074.25,660.9141 Q1074.9375,661.9766 1076.2813,661.9766 Q1076.9063,661.9766 1077.5,661.7109 Q1078.0938,661.4297 1078.7188,660.8516 L1078.7188,663.5703 Z " fill="#000000"/><text fill="#000000" font-family="sans-serif" font-size="12" font-style="italic" lengthAdjust="spacing" textLength="88" x="1102.75" y="653.9355">&#171;ValueObject&#187;</text><text fill="#000000" font-family="sans-serif" font-size="14" lengthAdjust="spacing" textLength="101" x="1096.25" y="669.7607">AccountStatus</text><line style="stroke:#181818;stroke-width:0.5;" x1="1010.5" x2="1250.5" y1="678.0625" y2="678.0625"/><rect fill="none" height="6" style="stroke:#C82930;stroke-width:1.0;" width="6" x="1017.5" y="688.7109"/><text fill="#000000" font-family="sans-serif" font-size="14" lengthAdjust="spacing" textLength="188" x="1029.5" y="695.0576">value : boolean {readOnly}</text><line style="stroke:#181818;stroke-width:0.5;" x1="1010.5" x2="1250.5" y1="702.3594" y2="702.3594"/><ellipse cx="1020.5" cy="716.0078" fill="#84BE84" rx="3" ry="3" style="stroke:#038048;stroke-width:1.0;"/><text fill="#000000" font-family="sans-serif" font-size="14" lengthAdjust="spacing" textLength="216" x="1029.5" y="719.3545">AccountStatus(value : boolean)</text><ellipse cx="1020.5" cy="732.3047" fill="#84BE84" rx="3" ry="3" style="stroke:#038048;stroke-width:1.0;"/><text fill="#000000" font-family="sans-serif" font-size="14" lengthAdjust="spacing" textLength="124" x="1029.5" y="735.6514">getValue() : String</text><ellipse cx="1020.5" cy="748.6016" fill="#84BE84" rx="3" ry="3" style="stroke:#038048;stroke-width:1.0;"/><text fill="#000000" font-family="sans-serif" font-size="14" lengthAdjust="spacing" textLength="192" x="1029.5" y="751.9482">equals(o : Object) : boolean</text><ellipse cx="1020.5" cy="764.8984" fill="#84BE84" rx="3" ry="3" style="stroke:#038048;stroke-width:1.0;"/><text fill="#000000" font-family="sans-serif" font-size="14" lengthAdjust="spacing" textLength="111" x="1029.5" y="768.2451">hashCode() : int</text><ellipse cx="1020.5" cy="781.1953" fill="#84BE84" rx="3" ry="3" style="stroke:#038048;stroke-width:1.0;"/><text fill="#000000" font-family="sans-serif" font-size="14" lengthAdjust="spacing" textLength="175" x="1029.5" y="784.542">isStatusActive() : boolean</text></g><!--link InactivateAccountController to AccountService--><g id="link_InactivateAccountController_AccountService"><path codeLine="17" d="M793.5,125.3969 C793.5,141.3469 793.5,160.6969 793.5,180.7669 " fill="none" id="InactivateAccountController-to-AccountService" style="stroke:#181818;stroke-width:1.0;stroke-dasharray:7.0,7.0;"/><polygon fill="#181818" points="793.5,185.8769,797.5,176.8769,793.5,180.8769,789.5,176.8769,793.5,185.8769" style="stroke:#181818;stroke-width:1.0;"/></g><!--link AccountService to Repository--><g id="link_AccountService_Repository"><path codeLine="21" d="M713.26,430.4669 C701.63,448.0169 693.5,460.2969 693.5,460.2969 C693.5,460.2969 659.34,558.6969 633.59,632.8869 " fill="none" id="AccountService-to-Repository" style="stroke:#181818;stroke-width:1.0;"/><polygon fill="#181818" points="631.9,637.7369,638.6321,630.5481,633.5409,633.0138,631.0752,627.9226,631.9,637.7369" style="stroke:#181818;stroke-width:1.0;"/><text fill="#000000" font-family="sans-serif" font-size="13" lengthAdjust="spacing" textLength="118" x="694.5" y="473.3638">accountRepository</text></g><!--reverse link Repository to AccountRepository--><g id="link_Repository_AccountRepository"><path codeLine="22" d="M605.5,812.1569 C605.5,871.9469 605.5,944.5169 605.5,983.0969 " fill="none" id="Repository-backto-AccountRepository" style="stroke:#181818;stroke-width:1.0;stroke-dasharray:7.0,7.0;"/><polygon fill="none" points="598.5,812.0169,605.5,792.0169,612.5,812.0169,598.5,812.0169" style="stroke:#181818;stroke-width:1.0;"/></g><!--link AccountService to Account--><g id="link_AccountService_Account"><path codeLine="23" d="M596.45,430.4569 C529.61,471.5669 471.5,507.2969 471.5,507.2969 C471.5,507.2969 466.55,511.5569 458.08,518.8369 " fill="none" id="AccountService-to-Account" style="stroke:#181818;stroke-width:1.0;stroke-dasharray:7.0,7.0;"/><polygon fill="#181818" points="454.24,522.1469,463.6765,519.3268,458.0363,518.8929,458.4701,513.2527,454.24,522.1469" style="stroke:#181818;stroke-width:1.0;"/></g><!--link AccountService to Email--><g id="link_AccountService_Email"><path codeLine="24" d="M815.05,430.3869 C826.68,495.6769 840.71,574.5069 851.02,632.4369 " fill="none" id="AccountService-to-Email" style="stroke:#181818;stroke-width:1.0;stroke-dasharray:7.0,7.0;"/><polygon fill="#181818" points="851.94,637.6169,854.285,628.0513,851.0556,632.6957,846.4112,629.4663,851.94,637.6169" style="stroke:#181818;stroke-width:1.0;"/></g><!--link AccountService to AccountStatus--><g id="link_AccountService_AccountStatus"><path codeLine="25" d="M914.66,430.4569 C955.77,471.5669 991.5,507.2969 991.5,507.2969 C991.5,507.2969 1037.47,575.5869 1076.53,633.6269 " fill="none" id="AccountService-to-AccountStatus" style="stroke:#181818;stroke-width:1.0;stroke-dasharray:7.0,7.0;"/><polygon fill="#181818" points="1079.33,637.7869,1077.6044,628.0904,1076.5302,633.6443,1070.9763,632.5701,1079.33,637.7869" style="stroke:#181818;stroke-width:1.0;"/></g><!--SRC=[jPDDIyD048Rl-ol6KnLCqeiNYO4Y2WMzA9xBT7UgevlTi3k91lpnhacrjafF5WBxyUuyxp0pcSn40YzR8OYz4tmxXxBZo4ksB7q5fSEQAaYtqZTfKzQj5Muiwq6-WDBG2jDTfIQt94_UxE70SOCXhK8XinpbP007aZQuREHdSEq3HAxN5Y1F19yI-DMmtoO0Ht1U83QaUSLab8elx8P7ODdH4DfustyUb18MI_1mFvsU9QjPX9cfsILGGF7X5ERmYav0FB13BTnXAWn26oa0QkrR9qeTiTEsDGHvNeoVxoYWjOic-6VIKXYA_EWARJ76XM5yJEcC9ufVwy8OKyo_NMOZ_T8x2TvQ2ddJrlO_lTOEznGwrdGe_A6uTzJuoAb9_Ryx711zLIFRWtLIKDeuqjK4DgC3DzXJK7k6AoLHmVP0Z8WafXZlufgXjXz1bbMmgLVwVN6tFUg7NBxdEVngu2xpHov_IKCDzyICPL0V]--></g></svg>