<?xml version="1.0" encoding="us-ascii" standalone="no"?><svg xmlns="http://www.w3.org/2000/svg" xmlns:xlink="http://www.w3.org/1999/xlink" contentStyleType="text/css" height="550.4px" preserveAspectRatio="none" style="width:1057px;height:550px;background:#FFFFFF;" version="1.1" viewBox="0 0 1057 550" width="1057.2px" zoomAndPan="magnify"><defs/><g><text fill="#000000" font-family="sans-serif" font-size="5.6" font-weight="bold" lengthAdjust="spacing" textLength="245.2" x="404.8" y="11.0695">US033 - As Team Member, I want to update the status (i.e.: the Scrum Board category) of</text><text fill="#000000" font-family="sans-serif" font-size="5.6" font-weight="bold" lengthAdjust="spacing" textLength="210" x="423.2" y="17.3258">a user story in the scope of the current/active sprint backlog in the web UI.</text><rect fill="#FFFFFF" height="98.2594" style="stroke:#181818;stroke-width:0.4000000000000001;" width="4" x="15.8" y="45.425"/><rect fill="#FFFFFF" height="354.8" style="stroke:#181818;stroke-width:0.4000000000000001;" width="4" x="151.2" y="172.0063"/><rect fill="#FFFFFF" height="273.3563" style="stroke:#181818;stroke-width:0.4000000000000001;" width="4" x="384.2" y="238.4406"/><rect fill="#FFFFFF" height="45.6375" style="stroke:#181818;stroke-width:0.4000000000000001;" width="4" x="554.8" y="267.0688"/><rect fill="#FFFFFF" height="113.7875" style="stroke:#181818;stroke-width:0.4000000000000001;" width="4" x="554.8" y="347.525"/><rect fill="#FFFFFF" height="12" style="stroke:#181818;stroke-width:0.4000000000000001;" width="4" x="621.8" y="324.1156"/><rect fill="#FFFFFF" height="27.6656" style="stroke:#181818;stroke-width:0.4000000000000001;" width="4" x="684.4" y="472.7219"/><rect fill="#FFFFFF" height="33.9219" style="stroke:#181818;stroke-width:0.4000000000000001;" width="4" x="836.2" y="358.9344"/><rect fill="#FFFFFF" height="11.4094" style="stroke:#181818;stroke-width:0.4000000000000001;" width="4" x="836.2" y="438.4938"/><rect fill="#FFFFFF" height="22.8188" style="stroke:#181818;stroke-width:0.4000000000000001;" width="4" x="952" y="278.4781"/><rect fill="#FFFFFF" height="22.8188" style="stroke:#181818;stroke-width:0.4000000000000001;" width="4" x="952" y="404.2656"/><line style="stroke:#181818;stroke-width:0.20000000000000004;stroke-dasharray:5.0,5.0;" x1="17.6" x2="17.6" y1="41.425" y2="530.4063"/><line style="stroke:#181818;stroke-width:0.20000000000000004;stroke-dasharray:5.0,5.0;" x1="153" x2="153" y1="150.7313" y2="530.4063"/><line style="stroke:#181818;stroke-width:0.20000000000000004;stroke-dasharray:5.0,5.0;" x1="226.6" x2="226.6" y1="190.4625" y2="530.4063"/><line style="stroke:#181818;stroke-width:0.20000000000000004;stroke-dasharray:5.0,5.0;" x1="279" x2="279" y1="209.8469" y2="530.4063"/><line style="stroke:#181818;stroke-width:0.20000000000000004;stroke-dasharray:5.0,5.0;" x1="325" x2="325" y1="226.1031" y2="530.4063"/><line style="stroke:#181818;stroke-width:0.20000000000000004;stroke-dasharray:5.0,5.0;" x1="386.2" x2="386.2" y1="128.2188" y2="530.4063"/><line style="stroke:#181818;stroke-width:0.20000000000000004;stroke-dasharray:5.0,5.0;" x1="491.8" x2="491.8" y1="254.25" y2="530.4063"/><line style="stroke:#181818;stroke-width:0.20000000000000004;stroke-dasharray:5.0,5.0;" x1="556.6" x2="556.6" y1="105.7063" y2="530.4063"/><line style="stroke:#181818;stroke-width:0.20000000000000004;stroke-dasharray:5.0,5.0;" x1="623.8" x2="623.8" y1="41.425" y2="530.4063"/><line style="stroke:#181818;stroke-width:0.20000000000000004;stroke-dasharray:5.0,5.0;" x1="686.2" x2="686.2" y1="41.425" y2="530.4063"/><line style="stroke:#181818;stroke-width:0.20000000000000004;stroke-dasharray:5.0,5.0;" x1="758.6" x2="758.6" y1="488.05" y2="530.4063"/><line style="stroke:#181818;stroke-width:0.20000000000000004;stroke-dasharray:5.0,5.0;" x1="838.2" x2="838.2" y1="60.6813" y2="530.4063"/><line style="stroke:#181818;stroke-width:0.20000000000000004;stroke-dasharray:5.0,5.0;" x1="906.6" x2="906.6" y1="377.3906" y2="530.4063"/><line style="stroke:#181818;stroke-width:0.20000000000000004;stroke-dasharray:5.0,5.0;" x1="953.8" x2="953.8" y1="83.1938" y2="530.4063"/><line style="stroke:#181818;stroke-width:0.20000000000000004;stroke-dasharray:5.0,5.0;" x1="1032" x2="1032" y1="41.425" y2="530.4063"/><rect fill="#FFFFFF" height="11.8563" rx="1" ry="1" style="stroke:#181818;stroke-width:0.20000000000000004;" width="31.6" x="2" y="29.1688"/><text fill="#000000" font-family="sans-serif" font-size="5.6" lengthAdjust="spacing" textLength="26" x="4.8" y="37.0383">:Bootstrap</text><rect fill="#FFFFFF" height="11.8563" rx="1" ry="1" style="stroke:#181818;stroke-width:0.20000000000000004;" width="31.6" x="2" y="530.0063"/><text fill="#000000" font-family="sans-serif" font-size="5.6" lengthAdjust="spacing" textLength="26" x="4.8" y="537.8758">:Bootstrap</text><rect fill="#FFFFFF" height="18.1125" rx="1" ry="1" style="stroke:#181818;stroke-width:0.20000000000000004;" width="80.4" x="113" y="530.0063"/><text fill="#000000" font-family="sans-serif" font-size="5.6" lengthAdjust="spacing" textLength="45.6" x="130.4" y="537.8758">&#171;Component(c4)&#187;</text><text fill="#000000" font-family="sans-serif" font-size="5.6" lengthAdjust="spacing" textLength="74.8" x="115.8" y="544.132">controller:UserStoryController</text><rect fill="#FFFFFF" height="18.1125" rx="1" ry="1" style="stroke:#181818;stroke-width:0.20000000000000004;" width="58.4" x="197.4" y="530.0063"/><text fill="#000000" font-family="sans-serif" font-size="5.6" lengthAdjust="spacing" textLength="52.8" x="200.2" y="537.8758">inputuserStoryStatus</text><text fill="#000000" font-family="sans-serif" font-size="5.6" lengthAdjust="spacing" textLength="42.4" x="205.4" y="544.132">:UserStoryStatus</text><rect fill="#FFFFFF" height="11.8563" rx="1" ry="1" style="stroke:#181818;stroke-width:0.20000000000000004;" width="38.4" x="259.8" y="530.0063"/><text fill="#000000" font-family="sans-serif" font-size="5.6" lengthAdjust="spacing" textLength="32.8" x="262.6" y="537.8758">:ProjectCode</text><rect fill="#FFFFFF" height="11.8563" rx="1" ry="1" style="stroke:#181818;stroke-width:0.20000000000000004;" width="45.6" x="302.2" y="530.0063"/><text fill="#000000" font-family="sans-serif" font-size="5.6" lengthAdjust="spacing" textLength="40" x="305" y="537.8758">:UserStoryCode</text><rect fill="#FFFFFF" height="18.1125" rx="1" ry="1" style="stroke:#181818;stroke-width:0.20000000000000004;" width="68.8" x="351.8" y="530.0063"/><text fill="#000000" font-family="sans-serif" font-size="5.6" lengthAdjust="spacing" textLength="45.6" x="363.4" y="537.8758">&#171;Component(c4)&#187;</text><text fill="#000000" font-family="sans-serif" font-size="5.6" lengthAdjust="spacing" textLength="63.2" x="354.6" y="544.132">service:UserStoryService</text><rect fill="#FFFFFF" height="11.8563" rx="1" ry="1" style="stroke:#181818;stroke-width:0.20000000000000004;" width="37.2" x="473.4" y="530.0063"/><text fill="#000000" font-family="sans-serif" font-size="5.6" lengthAdjust="spacing" textLength="31.6" x="476.2" y="537.8758">:UserStoryID</text><rect fill="#FFFFFF" height="18.1125" rx="1" ry="1" style="stroke:#181818;stroke-width:0.20000000000000004;" width="84.4" x="514.6" y="530.0063"/><text fill="#000000" font-family="sans-serif" font-size="5.6" lengthAdjust="spacing" textLength="45.6" x="534" y="537.8758">&#171;Component(c4)&#187;</text><text fill="#000000" font-family="sans-serif" font-size="5.6" lengthAdjust="spacing" textLength="78.8" x="517.4" y="544.132">repository:UserStoryRepository</text><rect fill="#FFFFFF" height="18.1125" rx="1" ry="1" style="stroke:#181818;stroke-width:0.20000000000000004;" width="41.6" x="603" y="22.9125"/><text fill="#000000" font-family="sans-serif" font-size="5.6" lengthAdjust="spacing" textLength="24.4" x="611.6" y="30.782">userStory</text><text fill="#000000" font-family="sans-serif" font-size="5.6" lengthAdjust="spacing" textLength="36" x="605.8" y="37.0383">:DomainModel</text><rect fill="#FFFFFF" height="18.1125" rx="1" ry="1" style="stroke:#181818;stroke-width:0.20000000000000004;" width="41.6" x="603" y="530.0063"/><text fill="#000000" font-family="sans-serif" font-size="5.6" lengthAdjust="spacing" textLength="24.4" x="611.6" y="537.8758">userStory</text><text fill="#000000" font-family="sans-serif" font-size="5.6" lengthAdjust="spacing" textLength="36" x="605.8" y="544.132">:DomainModel</text><rect fill="#FFFFFF" height="11.8563" rx="1" ry="1" style="stroke:#181818;stroke-width:0.20000000000000004;" width="75.6" x="648.6" y="29.1688"/><text fill="#000000" font-family="sans-serif" font-size="5.6" lengthAdjust="spacing" textLength="70" x="651.4" y="37.0383">:OutputUserStoryAssembler</text><rect fill="#FFFFFF" height="11.8563" rx="1" ry="1" style="stroke:#181818;stroke-width:0.20000000000000004;" width="75.6" x="648.6" y="530.0063"/><text fill="#000000" font-family="sans-serif" font-size="5.6" lengthAdjust="spacing" textLength="70" x="651.4" y="537.8758">:OutputUserStoryAssembler</text><rect fill="#FFFFFF" height="11.8563" rx="1" ry="1" style="stroke:#181818;stroke-width:0.20000000000000004;" width="61.2" x="728.2" y="530.0063"/><text fill="#000000" font-family="sans-serif" font-size="5.6" lengthAdjust="spacing" textLength="55.6" x="731" y="537.8758">:OutputUserStoryDTO</text><rect fill="#FFFFFF" height="18.1125" rx="1" ry="1" style="stroke:#181818;stroke-width:0.20000000000000004;" width="89.6" x="793.4" y="530.0063"/><text fill="#000000" font-family="sans-serif" font-size="5.6" lengthAdjust="spacing" textLength="56.8" x="809.8" y="537.8758">domainDataAssembler</text><text fill="#000000" font-family="sans-serif" font-size="5.6" lengthAdjust="spacing" textLength="84" x="796.2" y="544.132">:UserStoryDomainDataAssembler</text><rect fill="#FFFFFF" height="18.1125" rx="1" ry="1" style="stroke:#181818;stroke-width:0.20000000000000004;" width="39.6" x="887" y="530.0063"/><text fill="#000000" font-family="sans-serif" font-size="5.6" lengthAdjust="spacing" textLength="24.4" x="894.6" y="537.8758">userStory</text><text fill="#000000" font-family="sans-serif" font-size="5.6" lengthAdjust="spacing" textLength="34" x="889.8" y="544.132">:DataSchema</text><rect fill="#FFFFFF" height="18.1125" rx="1" ry="1" style="stroke:#181818;stroke-width:0.20000000000000004;" width="46.8" x="930.6" y="530.0063"/><text fill="#000000" font-family="sans-serif" font-size="5.6" lengthAdjust="spacing" textLength="34.8" x="936.6" y="537.8758">jpaRepository</text><text fill="#000000" font-family="sans-serif" font-size="5.6" lengthAdjust="spacing" textLength="41.2" x="933.4" y="544.132">:DatabaseDriver</text><rect fill="#FFFFFF" height="18.1125" rx="1" ry="1" style="stroke:#181818;stroke-width:0.20000000000000004;" width="45.6" x="1009.2" y="22.9125"/><text fill="#000000" font-family="sans-serif" font-size="5.6" lengthAdjust="spacing" textLength="40" x="1012" y="30.782">&#171;container(c4)&#187;</text><text fill="#000000" font-family="sans-serif" font-size="5.6" lengthAdjust="spacing" textLength="24.4" x="1019.8" y="37.0383">Database</text><rect fill="#FFFFFF" height="18.1125" rx="1" ry="1" style="stroke:#181818;stroke-width:0.20000000000000004;" width="45.6" x="1009.2" y="530.0063"/><text fill="#000000" font-family="sans-serif" font-size="5.6" lengthAdjust="spacing" textLength="40" x="1012" y="537.8758">&#171;container(c4)&#187;</text><text fill="#000000" font-family="sans-serif" font-size="5.6" lengthAdjust="spacing" textLength="24.4" x="1019.8" y="544.132">Database</text><rect fill="#FFFFFF" height="98.2594" style="stroke:#181818;stroke-width:0.4000000000000001;" width="4" x="15.8" y="45.425"/><rect fill="#FFFFFF" height="354.8" style="stroke:#181818;stroke-width:0.4000000000000001;" width="4" x="151.2" y="172.0063"/><rect fill="#FFFFFF" height="273.3563" style="stroke:#181818;stroke-width:0.4000000000000001;" width="4" x="384.2" y="238.4406"/><rect fill="#FFFFFF" height="45.6375" style="stroke:#181818;stroke-width:0.4000000000000001;" width="4" x="554.8" y="267.0688"/><rect fill="#FFFFFF" height="113.7875" style="stroke:#181818;stroke-width:0.4000000000000001;" width="4" x="554.8" y="347.525"/><rect fill="#FFFFFF" height="12" style="stroke:#181818;stroke-width:0.4000000000000001;" width="4" x="621.8" y="324.1156"/><rect fill="#FFFFFF" height="27.6656" style="stroke:#181818;stroke-width:0.4000000000000001;" width="4" x="684.4" y="472.7219"/><rect fill="#FFFFFF" height="33.9219" style="stroke:#181818;stroke-width:0.4000000000000001;" width="4" x="836.2" y="358.9344"/><rect fill="#FFFFFF" height="11.4094" style="stroke:#181818;stroke-width:0.4000000000000001;" width="4" x="836.2" y="438.4938"/><rect fill="#FFFFFF" height="22.8188" style="stroke:#181818;stroke-width:0.4000000000000001;" width="4" x="952" y="278.4781"/><rect fill="#FFFFFF" height="22.8188" style="stroke:#181818;stroke-width:0.4000000000000001;" width="4" x="952" y="404.2656"/><polygon fill="#181818" points="788.6,52.0344,792.6,53.6344,788.6,55.2344,790.2,53.6344" style="stroke:#181818;stroke-width:0.4000000000000001;"/><line style="stroke:#181818;stroke-width:0.4000000000000001;stroke-dasharray:2.0,2.0;" x1="19.8" x2="791" y1="53.6344" y2="53.6344"/><text fill="#000000" font-family="sans-serif" font-size="5.2" font-weight="bold" lengthAdjust="spacing" textLength="2.8" x="403.6" y="51.7324">1</text><text fill="#000000" font-family="sans-serif" font-size="5.2" lengthAdjust="spacing" textLength="1.6" x="408" y="51.7324">&#160;</text><rect fill="#FFFFFF" height="18.1125" rx="1" ry="1" style="stroke:#181818;stroke-width:0.20000000000000004;" width="89.6" x="793.4" y="45.425"/><text fill="#000000" font-family="sans-serif" font-size="5.6" lengthAdjust="spacing" textLength="56.8" x="809.8" y="53.2945">domainDataAssembler</text><text fill="#000000" font-family="sans-serif" font-size="5.6" lengthAdjust="spacing" textLength="84" x="796.2" y="59.5508">:UserStoryDomainDataAssembler</text><polygon fill="#181818" points="925.8,74.5469,929.8,76.1469,925.8,77.7469,927.4,76.1469" style="stroke:#181818;stroke-width:0.4000000000000001;"/><line style="stroke:#181818;stroke-width:0.4000000000000001;stroke-dasharray:2.0,2.0;" x1="19.8" x2="928.2" y1="76.1469" y2="76.1469"/><text fill="#000000" font-family="sans-serif" font-size="5.2" font-weight="bold" lengthAdjust="spacing" textLength="2.8" x="472.2" y="74.2449">2</text><text fill="#000000" font-family="sans-serif" font-size="5.2" lengthAdjust="spacing" textLength="1.6" x="476.6" y="74.2449">&#160;</text><rect fill="#FFFFFF" height="18.1125" rx="1" ry="1" style="stroke:#181818;stroke-width:0.20000000000000004;" width="46.8" x="930.6" y="67.9375"/><text fill="#000000" font-family="sans-serif" font-size="5.6" lengthAdjust="spacing" textLength="34.8" x="936.6" y="75.807">jpaRepository</text><text fill="#000000" font-family="sans-serif" font-size="5.6" lengthAdjust="spacing" textLength="41.2" x="933.4" y="82.0633">:DatabaseDriver</text><polygon fill="#181818" points="509.8,97.0594,513.8,98.6594,509.8,100.2594,511.4,98.6594" style="stroke:#181818;stroke-width:0.4000000000000001;"/><line style="stroke:#181818;stroke-width:0.4000000000000001;stroke-dasharray:2.0,2.0;" x1="19.8" x2="512.2" y1="98.6594" y2="98.6594"/><text fill="#000000" font-family="sans-serif" font-size="5.2" font-weight="bold" lengthAdjust="spacing" textLength="2.8" x="201.8" y="96.7574">3</text><text fill="#000000" font-family="sans-serif" font-size="5.2" lengthAdjust="spacing" textLength="126.4" x="206.2" y="96.7574">create(userStoryDomainDataAssembler,jpaRepository)</text><rect fill="#FFFFFF" height="18.1125" rx="1" ry="1" style="stroke:#181818;stroke-width:0.20000000000000004;" width="84.4" x="514.6" y="90.45"/><text fill="#000000" font-family="sans-serif" font-size="5.6" lengthAdjust="spacing" textLength="45.6" x="534" y="98.3195">&#171;Component(c4)&#187;</text><text fill="#000000" font-family="sans-serif" font-size="5.6" lengthAdjust="spacing" textLength="78.8" x="517.4" y="104.5758">repository:UserStoryRepository</text><polygon fill="#181818" points="347,119.5719,351,121.1719,347,122.7719,348.6,121.1719" style="stroke:#181818;stroke-width:0.4000000000000001;"/><line style="stroke:#181818;stroke-width:0.4000000000000001;stroke-dasharray:2.0,2.0;" x1="19.8" x2="349.4" y1="121.1719" y2="121.1719"/><text fill="#000000" font-family="sans-serif" font-size="5.2" font-weight="bold" lengthAdjust="spacing" textLength="2.8" x="151.2" y="119.2699">4</text><text fill="#000000" font-family="sans-serif" font-size="5.2" lengthAdjust="spacing" textLength="64.8" x="155.6" y="119.2699">create(userStoryRepository)</text><rect fill="#FFFFFF" height="18.1125" rx="1" ry="1" style="stroke:#181818;stroke-width:0.20000000000000004;" width="68.8" x="351.8" y="112.9625"/><text fill="#000000" font-family="sans-serif" font-size="5.6" lengthAdjust="spacing" textLength="45.6" x="363.4" y="120.832">&#171;Component(c4)&#187;</text><text fill="#000000" font-family="sans-serif" font-size="5.6" lengthAdjust="spacing" textLength="63.2" x="354.6" y="127.0883">service:UserStoryService</text><polygon fill="#181818" points="108.2,142.0844,112.2,143.6844,108.2,145.2844,109.8,143.6844" style="stroke:#181818;stroke-width:0.4000000000000001;"/><line style="stroke:#181818;stroke-width:0.4000000000000001;stroke-dasharray:2.0,2.0;" x1="17.8" x2="110.6" y1="143.6844" y2="143.6844"/><text fill="#000000" font-family="sans-serif" font-size="5.2" font-weight="bold" lengthAdjust="spacing" textLength="2.8" x="34.8" y="141.7824">5</text><text fill="#000000" font-family="sans-serif" font-size="5.2" lengthAdjust="spacing" textLength="56.8" x="39.2" y="141.7824">create(userStoryService)</text><rect fill="#FFFFFF" height="18.1125" rx="1" ry="1" style="stroke:#181818;stroke-width:0.20000000000000004;" width="80.4" x="113" y="135.475"/><text fill="#000000" font-family="sans-serif" font-size="5.6" lengthAdjust="spacing" textLength="45.6" x="130.4" y="143.3445">&#171;Component(c4)&#187;</text><text fill="#000000" font-family="sans-serif" font-size="5.6" lengthAdjust="spacing" textLength="74.8" x="115.8" y="149.6008">controller:UserStoryController</text><polygon fill="#181818" points="146.4,170.4063,150.4,172.0063,146.4,173.6063,148,172.0063" style="stroke:#181818;stroke-width:0.4000000000000001;"/><line style="stroke:#181818;stroke-width:0.4000000000000001;stroke-dasharray:2.0,2.0;" x1="0" x2="148.8" y1="172.0063" y2="172.0063"/><text fill="#000000" font-family="sans-serif" font-size="5.2" font-weight="bold" lengthAdjust="spacing" textLength="2.8" x="3.8" y="167.1996">6</text><text fill="#000000" font-family="sans-serif" font-size="5.2" lengthAdjust="spacing" textLength="139.2" x="8.2" y="164.2949">PATCH /projects/{projectCode}/user-stories/{userStoryCode}</text><text fill="#000000" font-family="sans-serif" font-size="5.2" lengthAdjust="spacing" textLength="51.6" x="52" y="170.1043">(userStoryStatusJson)</text><polygon fill="#181818" points="192.6,181.8156,196.6,183.4156,192.6,185.0156,194.2,183.4156" style="stroke:#181818;stroke-width:0.4000000000000001;"/><line style="stroke:#181818;stroke-width:0.4000000000000001;stroke-dasharray:2.0,2.0;" x1="155.2" x2="195" y1="183.4156" y2="183.4156"/><text fill="#000000" font-family="sans-serif" font-size="5.2" font-weight="bold" lengthAdjust="spacing" textLength="2.8" x="173.3" y="181.5137">7</text><text fill="#000000" font-family="sans-serif" font-size="5.2" lengthAdjust="spacing" textLength="1.6" x="177.7" y="181.5137">&#160;</text><rect fill="#FFFFFF" height="18.1125" rx="1" ry="1" style="stroke:#181818;stroke-width:0.20000000000000004;" width="58.4" x="197.4" y="175.2063"/><text fill="#000000" font-family="sans-serif" font-size="5.6" lengthAdjust="spacing" textLength="52.8" x="200.2" y="183.0758">inputuserStoryStatus</text><text fill="#000000" font-family="sans-serif" font-size="5.6" lengthAdjust="spacing" textLength="42.4" x="205.4" y="189.332">:UserStoryStatus</text><polygon fill="#181818" points="255,204.3281,259,205.9281,255,207.5281,256.6,205.9281" style="stroke:#181818;stroke-width:0.4000000000000001;"/><line style="stroke:#181818;stroke-width:0.4000000000000001;stroke-dasharray:2.0,2.0;" x1="155.2" x2="257.4" y1="205.9281" y2="205.9281"/><text fill="#000000" font-family="sans-serif" font-size="5.2" font-weight="bold" lengthAdjust="spacing" textLength="2.8" x="204.5" y="204.0262">8</text><text fill="#000000" font-family="sans-serif" font-size="5.2" lengthAdjust="spacing" textLength="1.6" x="208.9" y="204.0262">&#160;</text><rect fill="#FFFFFF" height="11.8563" rx="1" ry="1" style="stroke:#181818;stroke-width:0.20000000000000004;" width="38.4" x="259.8" y="197.7188"/><text fill="#000000" font-family="sans-serif" font-size="5.6" lengthAdjust="spacing" textLength="32.8" x="262.6" y="205.5883">:ProjectCode</text><polygon fill="#181818" points="297.4,220.5844,301.4,222.1844,297.4,223.7844,299,222.1844" style="stroke:#181818;stroke-width:0.4000000000000001;"/><line style="stroke:#181818;stroke-width:0.4000000000000001;stroke-dasharray:2.0,2.0;" x1="155.2" x2="299.8" y1="222.1844" y2="222.1844"/><text fill="#000000" font-family="sans-serif" font-size="5.2" font-weight="bold" lengthAdjust="spacing" textLength="2.8" x="225.7" y="220.2824">9</text><text fill="#000000" font-family="sans-serif" font-size="5.2" lengthAdjust="spacing" textLength="1.6" x="230.1" y="220.2824">&#160;</text><rect fill="#FFFFFF" height="11.8563" rx="1" ry="1" style="stroke:#181818;stroke-width:0.20000000000000004;" width="45.6" x="302.2" y="213.975"/><text fill="#000000" font-family="sans-serif" font-size="5.6" lengthAdjust="spacing" textLength="40" x="305" y="221.8445">:UserStoryCode</text><polygon fill="#181818" points="379.4,236.8406,383.4,238.4406,379.4,240.0406,381,238.4406" style="stroke:#181818;stroke-width:0.4000000000000001;"/><line style="stroke:#181818;stroke-width:0.4000000000000001;stroke-dasharray:2.0,2.0;" x1="155.2" x2="381.8" y1="238.4406" y2="238.4406"/><text fill="#000000" font-family="sans-serif" font-size="5.2" font-weight="bold" lengthAdjust="spacing" textLength="5.6" x="183.9" y="236.5387">10</text><text fill="#000000" font-family="sans-serif" font-size="5.2" lengthAdjust="spacing" textLength="164.4" x="191.1" y="236.5387">changeUserStoryStatus(userStoryStatus, userStoryCode, projectCode)</text><polygon fill="#181818" points="468.6,254.0594,472.6,255.6594,468.6,257.2594,470.2,255.6594" style="stroke:#181818;stroke-width:0.4000000000000001;"/><line style="stroke:#181818;stroke-width:0.4000000000000001;stroke-dasharray:2.0,2.0;" x1="388.2" x2="471" y1="255.6594" y2="255.6594"/><text fill="#000000" font-family="sans-serif" font-size="5.2" font-weight="bold" lengthAdjust="spacing" textLength="5.6" x="393" y="250.8527">11</text><text fill="#000000" font-family="sans-serif" font-size="5.2" lengthAdjust="spacing" textLength="14.4" x="427.2" y="247.948">create</text><text fill="#000000" font-family="sans-serif" font-size="5.2" lengthAdjust="spacing" textLength="68.4" x="400.2" y="253.7574">(projectCode, userStoryCode)</text><rect fill="#FFFFFF" height="11.8563" rx="1" ry="1" style="stroke:#181818;stroke-width:0.20000000000000004;" width="37.2" x="473.4" y="242.6031"/><text fill="#000000" font-family="sans-serif" font-size="5.6" lengthAdjust="spacing" textLength="31.6" x="476.2" y="250.4727">:UserStoryID</text><polygon fill="#181818" points="550,265.4688,554,267.0688,550,268.6688,551.6,267.0688" style="stroke:#181818;stroke-width:0.4000000000000001;"/><line style="stroke:#181818;stroke-width:0.4000000000000001;stroke-dasharray:2.0,2.0;" x1="388.2" x2="552.4" y1="267.0688" y2="267.0688"/><text fill="#000000" font-family="sans-serif" font-size="5.2" font-weight="bold" lengthAdjust="spacing" textLength="5.6" x="443.5" y="265.1668">12</text><text fill="#000000" font-family="sans-serif" font-size="5.2" lengthAdjust="spacing" textLength="48.8" x="450.7" y="265.1668">findById(userStoryID)</text><polygon fill="#181818" points="947.2,276.8781,951.2,278.4781,947.2,280.0781,948.8,278.4781" style="stroke:#181818;stroke-width:0.4000000000000001;"/><line style="stroke:#181818;stroke-width:0.4000000000000001;stroke-dasharray:2.0,2.0;" x1="558.8" x2="949.6" y1="278.4781" y2="278.4781"/><text fill="#000000" font-family="sans-serif" font-size="5.2" font-weight="bold" lengthAdjust="spacing" textLength="5.6" x="727.4" y="276.5762">13</text><text fill="#000000" font-family="sans-serif" font-size="5.2" lengthAdjust="spacing" textLength="48.8" x="734.6" y="276.5762">findById(userStoryID)</text><polygon fill="#181818" points="1027.2,288.2875,1031.2,289.8875,1027.2,291.4875,1028.8,289.8875" style="stroke:#181818;stroke-width:0.4000000000000001;"/><line style="stroke:#181818;stroke-width:0.4000000000000001;stroke-dasharray:2.0,2.0;" x1="956" x2="1029.6" y1="289.8875" y2="289.8875"/><text fill="#000000" font-family="sans-serif" font-size="5.2" font-weight="bold" lengthAdjust="spacing" textLength="5.6" x="960.8" y="287.9855">14</text><text fill="#000000" font-family="sans-serif" font-size="5.2" lengthAdjust="spacing" textLength="59.2" x="968" y="287.9855">findByID (userStoryIDJpa)</text><polygon fill="#181818" points="563.2,299.6969,559.2,301.2969,563.2,302.8969,561.6,301.2969" style="stroke:#181818;stroke-width:0.4000000000000001;"/><line style="stroke:#181818;stroke-width:0.4000000000000001;stroke-dasharray:2.0,2.0;" x1="560.8" x2="953.6" y1="301.2969" y2="301.2969"/><text fill="#000000" font-family="sans-serif" font-size="5.2" font-weight="bold" lengthAdjust="spacing" textLength="5.6" x="737.6" y="299.3949">15</text><text fill="#000000" font-family="sans-serif" font-size="5.2" lengthAdjust="spacing" textLength="30.4" x="744.8" y="299.3949">userStoryJpa</text><polygon fill="#181818" points="392.6,311.1063,388.6,312.7063,392.6,314.3063,391,312.7063" style="stroke:#181818;stroke-width:0.4000000000000001;"/><line style="stroke:#181818;stroke-width:0.4000000000000001;stroke-dasharray:2.0,2.0;" x1="390.2" x2="556.4" y1="312.7063" y2="312.7063"/><text fill="#000000" font-family="sans-serif" font-size="5.2" font-weight="bold" lengthAdjust="spacing" textLength="5.6" x="457.7" y="310.8043">16</text><text fill="#000000" font-family="sans-serif" font-size="5.2" lengthAdjust="spacing" textLength="22.4" x="464.9" y="310.8043">userStory</text><polygon fill="#181818" points="617,322.5156,621,324.1156,617,325.7156,618.6,324.1156" style="stroke:#181818;stroke-width:0.4000000000000001;"/><line style="stroke:#181818;stroke-width:0.4000000000000001;stroke-dasharray:2.0,2.0;" x1="388.2" x2="619.4" y1="324.1156" y2="324.1156"/><text fill="#000000" font-family="sans-serif" font-size="5.2" font-weight="bold" lengthAdjust="spacing" textLength="5.6" x="465" y="322.2137">17</text><text fill="#000000" font-family="sans-serif" font-size="5.2" lengthAdjust="spacing" textLength="72.8" x="472.2" y="322.2137">changeStatus(userStoryStatus)</text><polygon fill="#181818" points="550,345.925,554,347.525,550,349.125,551.6,347.525" style="stroke:#181818;stroke-width:0.4000000000000001;"/><line style="stroke:#181818;stroke-width:0.4000000000000001;stroke-dasharray:2.0,2.0;" x1="388.2" x2="552.4" y1="347.525" y2="347.525"/><text fill="#000000" font-family="sans-serif" font-size="5.2" font-weight="bold" lengthAdjust="spacing" textLength="5.6" x="450.1" y="345.623">18</text><text fill="#000000" font-family="sans-serif" font-size="5.2" lengthAdjust="spacing" textLength="35.6" x="457.3" y="345.623">patch(serStory)</text><polygon fill="#181818" points="831.4,357.3344,835.4,358.9344,831.4,360.5344,833,358.9344" style="stroke:#181818;stroke-width:0.4000000000000001;"/><line style="stroke:#181818;stroke-width:0.4000000000000001;stroke-dasharray:2.0,2.0;" x1="558.8" x2="833.8" y1="358.9344" y2="358.9344"/><text fill="#000000" font-family="sans-serif" font-size="5.2" font-weight="bold" lengthAdjust="spacing" textLength="5.6" x="673.5" y="357.0324">19</text><text fill="#000000" font-family="sans-serif" font-size="5.2" lengthAdjust="spacing" textLength="40.8" x="680.7" y="357.0324">toData(userStory)</text><polygon fill="#181818" points="882.2,368.7438,886.2,370.3438,882.2,371.9438,883.8,370.3438" style="stroke:#181818;stroke-width:0.4000000000000001;"/><line style="stroke:#181818;stroke-width:0.4000000000000001;stroke-dasharray:2.0,2.0;" x1="840.2" x2="884.6" y1="370.3438" y2="370.3438"/><text fill="#000000" font-family="sans-serif" font-size="5.2" font-weight="bold" lengthAdjust="spacing" textLength="5.6" x="859.2" y="368.4418">20</text><text fill="#000000" font-family="sans-serif" font-size="5.2" lengthAdjust="spacing" textLength="1.6" x="866.4" y="368.4418">&#160;</text><rect fill="#FFFFFF" height="18.1125" rx="1" ry="1" style="stroke:#181818;stroke-width:0.20000000000000004;" width="39.6" x="887" y="362.1344"/><text fill="#000000" font-family="sans-serif" font-size="5.6" lengthAdjust="spacing" textLength="24.4" x="894.6" y="370.0039">userStory</text><text fill="#000000" font-family="sans-serif" font-size="5.6" lengthAdjust="spacing" textLength="34" x="889.8" y="376.2602">:DataSchema</text><polygon fill="#181818" points="563.2,391.2563,559.2,392.8563,563.2,394.4563,561.6,392.8563" style="stroke:#181818;stroke-width:0.4000000000000001;"/><line style="stroke:#181818;stroke-width:0.4000000000000001;stroke-dasharray:2.0,2.0;" x1="560.8" x2="837.8" y1="392.8563" y2="392.8563"/><text fill="#000000" font-family="sans-serif" font-size="5.2" font-weight="bold" lengthAdjust="spacing" textLength="5.6" x="679.7" y="390.9543">21</text><text fill="#000000" font-family="sans-serif" font-size="5.2" lengthAdjust="spacing" textLength="30.4" x="686.9" y="390.9543">userStoryJpa</text><polygon fill="#181818" points="947.2,402.6656,951.2,404.2656,947.2,405.8656,948.8,404.2656" style="stroke:#181818;stroke-width:0.4000000000000001;"/><line style="stroke:#181818;stroke-width:0.4000000000000001;stroke-dasharray:2.0,2.0;" x1="558.8" x2="949.6" y1="404.2656" y2="404.2656"/><text fill="#000000" font-family="sans-serif" font-size="5.2" font-weight="bold" lengthAdjust="spacing" textLength="5.6" x="729.8" y="402.3637">22</text><text fill="#000000" font-family="sans-serif" font-size="5.2" lengthAdjust="spacing" textLength="44" x="737" y="402.3637">save(userStoryJpa)</text><polygon fill="#181818" points="1027.2,414.075,1031.2,415.675,1027.2,417.275,1028.8,415.675" style="stroke:#181818;stroke-width:0.4000000000000001;"/><line style="stroke:#181818;stroke-width:0.4000000000000001;stroke-dasharray:2.0,2.0;" x1="956" x2="1029.6" y1="415.675" y2="415.675"/><text fill="#000000" font-family="sans-serif" font-size="5.2" font-weight="bold" lengthAdjust="spacing" textLength="5.6" x="968.4" y="413.773">23</text><text fill="#000000" font-family="sans-serif" font-size="5.2" lengthAdjust="spacing" textLength="44" x="975.6" y="413.773">save(userStoryJpa)</text><polygon fill="#181818" points="563.2,425.4844,559.2,427.0844,563.2,428.6844,561.6,427.0844" style="stroke:#181818;stroke-width:0.4000000000000001;"/><line style="stroke:#181818;stroke-width:0.4000000000000001;stroke-dasharray:2.0,2.0;" x1="560.8" x2="953.6" y1="427.0844" y2="427.0844"/><text fill="#000000" font-family="sans-serif" font-size="5.2" font-weight="bold" lengthAdjust="spacing" textLength="5.6" x="737.6" y="425.1824">24</text><text fill="#000000" font-family="sans-serif" font-size="5.2" lengthAdjust="spacing" textLength="30.4" x="744.8" y="425.1824">userStoryJpa</text><polygon fill="#181818" points="831.4,436.8938,835.4,438.4938,831.4,440.0938,833,438.4938" style="stroke:#181818;stroke-width:0.4000000000000001;"/><line style="stroke:#181818;stroke-width:0.4000000000000001;stroke-dasharray:2.0,2.0;" x1="558.8" x2="833.8" y1="438.4938" y2="438.4938"/><text fill="#000000" font-family="sans-serif" font-size="5.2" font-weight="bold" lengthAdjust="spacing" textLength="5.6" x="666.1" y="436.5918">25</text><text fill="#000000" font-family="sans-serif" font-size="5.2" lengthAdjust="spacing" textLength="55.6" x="673.3" y="436.5918">toDomain(userStoryJpa)</text><polygon fill="#181818" points="563.2,448.3031,559.2,449.9031,563.2,451.5031,561.6,449.9031" style="stroke:#181818;stroke-width:0.4000000000000001;"/><line style="stroke:#181818;stroke-width:0.4000000000000001;stroke-dasharray:2.0,2.0;" x1="560.8" x2="837.8" y1="449.9031" y2="449.9031"/><text fill="#000000" font-family="sans-serif" font-size="5.2" font-weight="bold" lengthAdjust="spacing" textLength="5.6" x="683.7" y="448.0012">26</text><text fill="#000000" font-family="sans-serif" font-size="5.2" lengthAdjust="spacing" textLength="22.4" x="690.9" y="448.0012">userStory</text><polygon fill="#181818" points="392.6,459.7125,388.6,461.3125,392.6,462.9125,391,461.3125" style="stroke:#181818;stroke-width:0.4000000000000001;"/><line style="stroke:#181818;stroke-width:0.4000000000000001;stroke-dasharray:2.0,2.0;" x1="390.2" x2="556.4" y1="461.3125" y2="461.3125"/><text fill="#000000" font-family="sans-serif" font-size="5.2" font-weight="bold" lengthAdjust="spacing" textLength="5.6" x="457.7" y="459.4105">27</text><text fill="#000000" font-family="sans-serif" font-size="5.2" lengthAdjust="spacing" textLength="22.4" x="464.9" y="459.4105">userStory</text><polygon fill="#181818" points="679.6,471.1219,683.6,472.7219,679.6,474.3219,681.2,472.7219" style="stroke:#181818;stroke-width:0.4000000000000001;"/><line style="stroke:#181818;stroke-width:0.4000000000000001;stroke-dasharray:2.0,2.0;" x1="388.2" x2="682" y1="472.7219" y2="472.7219"/><text fill="#000000" font-family="sans-serif" font-size="5.2" font-weight="bold" lengthAdjust="spacing" textLength="5.6" x="488.1" y="470.8199">28</text><text fill="#000000" font-family="sans-serif" font-size="5.2" lengthAdjust="spacing" textLength="89.2" x="495.3" y="470.8199">createOutputUserStoryDTO(userStory)</text><polygon fill="#181818" points="723.4,482.5313,727.4,484.1313,723.4,485.7313,725,484.1313" style="stroke:#181818;stroke-width:0.4000000000000001;"/><line style="stroke:#181818;stroke-width:0.4000000000000001;stroke-dasharray:2.0,2.0;" x1="688.4" x2="725.8" y1="484.1313" y2="484.1313"/><text fill="#000000" font-family="sans-serif" font-size="5.2" font-weight="bold" lengthAdjust="spacing" textLength="5.6" x="695.9" y="482.2293">29</text><text fill="#000000" font-family="sans-serif" font-size="5.2" lengthAdjust="spacing" textLength="17.6" x="703.1" y="482.2293">create()</text><rect fill="#FFFFFF" height="11.8563" rx="1" ry="1" style="stroke:#181818;stroke-width:0.20000000000000004;" width="61.2" x="728.2" y="475.9219"/><text fill="#000000" font-family="sans-serif" font-size="5.6" lengthAdjust="spacing" textLength="55.6" x="731" y="483.7914">:OutputUserStoryDTO</text><polygon fill="#181818" points="392.6,498.7875,388.6,500.3875,392.6,501.9875,391,500.3875" style="stroke:#181818;stroke-width:0.4000000000000001;"/><line style="stroke:#181818;stroke-width:0.4000000000000001;stroke-dasharray:2.0,2.0;" x1="390.2" x2="686" y1="500.3875" y2="500.3875"/><text fill="#000000" font-family="sans-serif" font-size="5.2" font-weight="bold" lengthAdjust="spacing" textLength="5.6" x="509.7" y="498.4855">30</text><text fill="#000000" font-family="sans-serif" font-size="5.2" lengthAdjust="spacing" textLength="48" x="516.9" y="498.4855">outputUserStoryDTO</text><polygon fill="#181818" points="159.6,510.1969,155.6,511.7969,159.6,513.3969,158,511.7969" style="stroke:#181818;stroke-width:0.4000000000000001;"/><line style="stroke:#181818;stroke-width:0.4000000000000001;stroke-dasharray:2.0,2.0;" x1="157.2" x2="385.8" y1="511.7969" y2="511.7969"/><text fill="#000000" font-family="sans-serif" font-size="5.2" font-weight="bold" lengthAdjust="spacing" textLength="5.6" x="243.1" y="509.8949">31</text><text fill="#000000" font-family="sans-serif" font-size="5.2" lengthAdjust="spacing" textLength="48" x="250.3" y="509.8949">outputUserStoryDTO</text><polygon fill="#181818" points="4.4,521.6063,0.4,523.2063,4.4,524.8063,2.8,523.2063" style="stroke:#181818;stroke-width:0.4000000000000001;"/><line style="stroke:#181818;stroke-width:0.4000000000000001;stroke-dasharray:2.0,2.0;" x1="2" x2="150.8" y1="523.2063" y2="523.2063"/><text fill="#000000" font-family="sans-serif" font-size="5.2" font-weight="bold" lengthAdjust="spacing" textLength="5.6" x="63.2" y="521.3043">32</text><text fill="#000000" font-family="sans-serif" font-size="5.2" lengthAdjust="spacing" textLength="17.6" x="70.4" y="521.3043">200.OK</text><!--SRC=[bLLDJnin4Btlhx1wIWH9KEafGaX9jYgXGY02jrmSxv0O4dlh3n2g-E_rshlhZon9kKJnp9itRsRiMKNL5j3Zukpy70tGHA87m3jq0xiLY5CqHs-OAQGuqcM15I2r0IGLLbgY7Xt2S6mj2oBq3aqv5WKY1hRcuhsF-1DQCeoq165YZ0bHvWW8Bw5oLmUYXG2cHfWe-cfyfQ0cumgJborVDn5li4AFys66jU9CLzeo-K9PYOKHA-6F1aRW1gJ4QvXiwPeXOZWZbE7dOcferu9hLipubWlqjg4A0f3vLPJGqXHz3DfalOSd4DMVBmTS0Iv0_6_OBuCfky5P81jz6qyvLr89N7v3MA9LSufH5nSplYivCstgaH_zoyib8vmfmRTR4ED7CxD5DR9PQxDa7XAp6R5QwIPeOI_8adaQPx4K5khEYUuxmP-1g1alm29BVqwGWRmQgqFBqKeD-9KI2FGvWwMgdP-bdETnmdb-D9s0aajQWJtDVMkpT1uIixLfJ3TpliEKtPW2jpQciEUVJ56LH8rljJ9TRfDDf3GFkXaYjyxMTZWqVxWDWimfXZiDELQuvGlddk-x0-cH_K3T1hOW6zXX5ziUuv3d4lkcrc4hB24NPg_KQUtVT5xLfJPgG3JpQY9Tp2hBx6wgrfz_J4H0PUWgf0MXmU2o4z44Epa9tXbhI70lOfXte35ou9u-qFRJg3tzXh-vx35vRUrWxg08TaBCuXqTHFMBwsS5T7GtY-DFJWp3tUHXTeL6zLQGex_1VlWOLSI3wYj3mRYYTV2nPBraDrrBplfPKq6uaWBHbOR8vT3XMahGaSkXuyMKu6DdwgsdO8id6ypMaEpJjAhJcF0qrEEh3JTNC-X8p3nlvsKw5t0a_8OoZFStqYf-egoOli-BNi3Rpu9hwo_x0Rm3EEpAet8KmgvBN34hBPXNQ8nxjbXmk3-39dVtDhgeqUOzr8GIAxBfDKocOMdz-m_LnYbUsRo6zh45owyZrd5wI7TFFfk0nA_10xLDJTlV0UdAyOKohUS8vP4v9jypDqhRhlrlMKTB_PSj8Gh8ZTVli5OWtwC_uCak1eDu9Nu_EnlU_lu7]--></g></svg>