<?xml version="1.0" encoding="us-ascii" standalone="no"?><svg xmlns="http://www.w3.org/2000/svg" xmlns:xlink="http://www.w3.org/1999/xlink" contentStyleType="text/css" height="1271px" preserveAspectRatio="none" style="width:683px;height:1271px;background:#FFFFFF;" version="1.1" viewBox="0 0 683 1271" width="683px" zoomAndPan="magnify"><defs/><g><!--class ChangeProfileController--><g id="elem_ChangeProfileController"><rect codeLine="2" fill="#F1F1F1" height="96.8906" id="ChangeProfileController" rx="2.5" ry="2.5" style="stroke:#181818;stroke-width:0.5;" width="477" x="103" y="7"/><ellipse cx="255.75" cy="23" fill="#ADD1B2" rx="11" ry="11" style="stroke:#181818;stroke-width:1.0;"/><path d="M258.7188,28.6406 Q258.1406,28.9375 257.5,29.0781 Q256.8594,29.2344 256.1563,29.2344 Q253.6563,29.2344 252.3281,27.5938 Q251.0156,25.9375 251.0156,22.8125 Q251.0156,19.6875 252.3281,18.0313 Q253.6563,16.375 256.1563,16.375 Q256.8594,16.375 257.5,16.5313 Q258.1563,16.6875 258.7188,16.9844 L258.7188,19.7031 Q258.0938,19.125 257.5,18.8594 Q256.9063,18.5781 256.2813,18.5781 Q254.9375,18.5781 254.25,19.6563 Q253.5625,20.7188 253.5625,22.8125 Q253.5625,24.9063 254.25,25.9844 Q254.9375,27.0469 256.2813,27.0469 Q256.9063,27.0469 257.5,26.7813 Q258.0938,26.5 258.7188,25.9219 L258.7188,28.6406 Z " fill="#000000"/><text fill="#000000" font-family="sans-serif" font-size="14" lengthAdjust="spacing" textLength="163" x="276.25" y="27.8467">ChangeProfileController</text><line style="stroke:#181818;stroke-width:0.5;" x1="104" x2="579" y1="39" y2="39"/><rect fill="none" height="6" style="stroke:#C82930;stroke-width:1.0;" width="6" x="111" y="49.6484"/><text fill="#000000" font-family="sans-serif" font-size="14" lengthAdjust="spacing" textLength="309" x="123" y="55.9951">accountService : AccountService {readOnly}</text><line style="stroke:#181818;stroke-width:0.5;" x1="104" x2="579" y1="63.2969" y2="63.2969"/><ellipse cx="114" cy="76.9453" fill="#84BE84" rx="3" ry="3" style="stroke:#038048;stroke-width:1.0;"/><text fill="#000000" font-family="sans-serif" font-size="14" lengthAdjust="spacing" textLength="399" x="123" y="80.292">ChangeProfileController(accountService : AccountService)</text><ellipse cx="114" cy="93.2422" fill="#84BE84" rx="3" ry="3" style="stroke:#038048;stroke-width:1.0;"/><text fill="#000000" font-family="sans-serif" font-size="14" lengthAdjust="spacing" textLength="451" x="123" y="96.5889">changeProfileOfAccount(userEmail : String, desiredProfile : String)</text></g><!--class AccountService--><g id="elem_AccountService"><rect codeLine="2" fill="#F1F1F1" height="243.5625" id="AccountService" rx="2.5" ry="2.5" style="stroke:#181818;stroke-width:0.5;" width="669" x="7" y="181"/><ellipse cx="283.75" cy="197" fill="#ADD1B2" rx="11" ry="11" style="stroke:#181818;stroke-width:1.0;"/><path d="M286.7188,202.6406 Q286.1406,202.9375 285.5,203.0781 Q284.8594,203.2344 284.1563,203.2344 Q281.6563,203.2344 280.3281,201.5938 Q279.0156,199.9375 279.0156,196.8125 Q279.0156,193.6875 280.3281,192.0313 Q281.6563,190.375 284.1563,190.375 Q284.8594,190.375 285.5,190.5313 Q286.1563,190.6875 286.7188,190.9844 L286.7188,193.7031 Q286.0938,193.125 285.5,192.8594 Q284.9063,192.5781 284.2813,192.5781 Q282.9375,192.5781 282.25,193.6563 Q281.5625,194.7188 281.5625,196.8125 Q281.5625,198.9063 282.25,199.9844 Q282.9375,201.0469 284.2813,201.0469 Q284.9063,201.0469 285.5,200.7813 Q286.0938,200.5 286.7188,199.9219 L286.7188,202.6406 Z " fill="#000000"/><text fill="#000000" font-family="sans-serif" font-size="14" lengthAdjust="spacing" textLength="107" x="304.25" y="201.8467">AccountService</text><line style="stroke:#181818;stroke-width:0.5;" x1="8" x2="675" y1="213" y2="213"/><rect fill="none" height="6" style="stroke:#C82930;stroke-width:1.0;" width="6" x="15" y="223.6484"/><text fill="#000000" font-family="sans-serif" font-size="14" lengthAdjust="spacing" textLength="226" x="27" y="229.9951">accountFactory : AccountFactory</text><rect fill="none" height="6" style="stroke:#C82930;stroke-width:1.0;" width="6" x="15" y="239.9453"/><text fill="#000000" font-family="sans-serif" font-size="14" lengthAdjust="spacing" textLength="245" x="27" y="246.292">profileRepository : ProfileRepository</text><rect fill="none" height="6" style="stroke:#C82930;stroke-width:1.0;" width="6" x="15" y="256.2422"/><text fill="#000000" font-family="sans-serif" font-size="14" lengthAdjust="spacing" textLength="274" x="27" y="262.5889">accountRepository : AccountRepository</text><line style="stroke:#181818;stroke-width:0.5;" x1="8" x2="675" y1="269.8906" y2="269.8906"/><ellipse cx="18" cy="283.5391" fill="#84BE84" rx="3" ry="3" style="stroke:#038048;stroke-width:1.0;"/><text fill="#000000" font-family="sans-serif" font-size="14" lengthAdjust="spacing" textLength="643" x="27" y="286.8857">AccountService(accountRepository : AccountRepository, profileRepository : ProfileRepository,</text><text fill="#000000" font-family="sans-serif" font-size="14" lengthAdjust="spacing" textLength="231" x="27" y="303.1826">accountFactory : AccountFactory)</text><ellipse cx="18" cy="324.2813" fill="#84BE84" rx="3" ry="3" style="stroke:#038048;stroke-width:1.0;"/><text fill="#000000" font-family="sans-serif" font-size="14" lengthAdjust="spacing" textLength="432" x="27" y="319.4795">createAccount(accountNameValue : String, emailValue : String,</text><text fill="#000000" font-family="sans-serif" font-size="14" lengthAdjust="spacing" textLength="346" x="31" y="335.7764">photo : Image, phoneNumberValue : int) : boolean</text><ellipse cx="18" cy="356.875" fill="#84BE84" rx="3" ry="3" style="stroke:#038048;stroke-width:1.0;"/><text fill="#000000" font-family="sans-serif" font-size="14" lengthAdjust="spacing" textLength="352" x="27" y="352.0732">changeProfileOfUserAccount(accountEmail : String,</text><text fill="#000000" font-family="sans-serif" font-size="14" lengthAdjust="spacing" textLength="209" x="27" y="368.3701">profileName : String) : boolean</text><rect fill="#F24D5C" height="6" style="stroke:#C82930;stroke-width:1.0;" width="6" x="15" y="378.3203"/><text fill="#000000" font-family="sans-serif" font-size="14" lengthAdjust="spacing" textLength="221" x="27" y="384.667">getAccount(id : Email) : Account</text><ellipse cx="18" cy="397.6172" fill="#84BE84" rx="3" ry="3" style="stroke:#038048;stroke-width:1.0;"/><text fill="#000000" font-family="sans-serif" font-size="14" lengthAdjust="spacing" textLength="574" x="27" y="400.9639">changeAccountStatus(emailValue : String, accountStatusValue : boolean) : boolean</text><ellipse cx="18" cy="413.9141" fill="#84BE84" rx="3" ry="3" style="stroke:#038048;stroke-width:1.0;"/><text fill="#000000" font-family="sans-serif" font-size="14" lengthAdjust="spacing" textLength="415" x="27" y="417.2607">createAccountAndStatusList() : AccountAndStatusDTO [0..*]</text></g><!--class Repository--><g id="elem_Repository"><rect codeLine="4" fill="#F1F1F1" height="154.0469" id="Repository" rx="2.5" ry="2.5" style="stroke:#181818;stroke-width:0.5;" width="232" x="126.5" y="502"/><ellipse cx="200.25" cy="522.1328" fill="#B4A7E5" rx="11" ry="11" style="stroke:#181818;stroke-width:1.0;"/><path d="M196.1719,517.8984 L196.1719,515.7422 L203.5625,515.7422 L203.5625,517.8984 L201.0938,517.8984 L201.0938,525.9766 L203.5625,525.9766 L203.5625,528.1328 L196.1719,528.1328 L196.1719,525.9766 L198.6406,525.9766 L198.6406,517.8984 L196.1719,517.8984 Z " fill="#000000"/><text fill="#000000" font-family="sans-serif" font-size="12" font-style="italic" lengthAdjust="spacing" textLength="80" x="218.75" y="518.1387">&#171;Repository&#187;</text><text fill="#000000" font-family="sans-serif" font-size="14" font-style="italic" lengthAdjust="spacing" textLength="74" x="221.75" y="533.9639">Repository</text><line style="stroke:#181818;stroke-width:0.5;" x1="127.5" x2="357.5" y1="542.2656" y2="542.2656"/><line style="stroke:#181818;stroke-width:0.5;" x1="127.5" x2="357.5" y1="550.2656" y2="550.2656"/><ellipse cx="137.5" cy="563.9141" fill="#84BE84" rx="3" ry="3" style="stroke:#038048;stroke-width:1.0;"/><text fill="#000000" font-family="sans-serif" font-size="14" lengthAdjust="spacing" textLength="124" x="146.5" y="567.2607">save(entity : T) : T</text><ellipse cx="137.5" cy="580.2109" fill="#84BE84" rx="3" ry="3" style="stroke:#038048;stroke-width:1.0;"/><text fill="#000000" font-family="sans-serif" font-size="14" lengthAdjust="spacing" textLength="147" x="146.5" y="583.5576">findAll() : Iterable&lt;T&gt;</text><ellipse cx="137.5" cy="596.5078" fill="#84BE84" rx="3" ry="3" style="stroke:#038048;stroke-width:1.0;"/><text fill="#000000" font-family="sans-serif" font-size="14" lengthAdjust="spacing" textLength="206" x="146.5" y="599.8545">findById(id : ID) : Optional&lt;T&gt;</text><ellipse cx="137.5" cy="612.8047" fill="#84BE84" rx="3" ry="3" style="stroke:#038048;stroke-width:1.0;"/><text fill="#000000" font-family="sans-serif" font-size="14" lengthAdjust="spacing" textLength="187" x="146.5" y="616.1514">existsById(id : ID) : boolean</text><ellipse cx="137.5" cy="629.1016" fill="#84BE84" rx="3" ry="3" style="stroke:#038048;stroke-width:1.0;"/><text fill="#000000" font-family="sans-serif" font-size="14" lengthAdjust="spacing" textLength="69" x="146.5" y="632.4482">deleteAll()</text><ellipse cx="137.5" cy="645.3984" fill="#84BE84" rx="3" ry="3" style="stroke:#038048;stroke-width:1.0;"/><text fill="#000000" font-family="sans-serif" font-size="14" lengthAdjust="spacing" textLength="126" x="146.5" y="648.7451">deleteById (id : ID)</text></g><!--class ProfileRepository--><g id="elem_ProfileRepository"><rect codeLine="3" fill="#F1F1F1" height="56.2656" id="ProfileRepository" rx="2.5" ry="2.5" style="stroke:#181818;stroke-width:0.5;" width="147" x="73" y="717"/><ellipse cx="88" cy="737.1328" fill="#B4A7E5" rx="11" ry="11" style="stroke:#181818;stroke-width:1.0;"/><path d="M83.9219,732.8984 L83.9219,730.7422 L91.3125,730.7422 L91.3125,732.8984 L88.8438,732.8984 L88.8438,740.9766 L91.3125,740.9766 L91.3125,743.1328 L83.9219,743.1328 L83.9219,740.9766 L86.3906,740.9766 L86.3906,732.8984 L83.9219,732.8984 Z " fill="#000000"/><text fill="#000000" font-family="sans-serif" font-size="12" font-style="italic" lengthAdjust="spacing" textLength="80" x="119.5" y="733.1387">&#171;Repository&#187;</text><text fill="#000000" font-family="sans-serif" font-size="14" font-style="italic" lengthAdjust="spacing" textLength="115" x="102" y="748.9639">ProfileRepository</text><line style="stroke:#181818;stroke-width:0.5;" x1="74" x2="219" y1="757.2656" y2="757.2656"/><line style="stroke:#181818;stroke-width:0.5;" x1="74" x2="219" y1="765.2656" y2="765.2656"/></g><!--class AccountRepository--><g id="elem_AccountRepository"><rect codeLine="1" fill="#F1F1F1" height="56.2656" id="AccountRepository" rx="2.5" ry="2.5" style="stroke:#181818;stroke-width:0.5;" width="164" x="255.5" y="717"/><ellipse cx="270.5" cy="737.1328" fill="#B4A7E5" rx="11" ry="11" style="stroke:#181818;stroke-width:1.0;"/><path d="M266.4219,732.8984 L266.4219,730.7422 L273.8125,730.7422 L273.8125,732.8984 L271.3438,732.8984 L271.3438,740.9766 L273.8125,740.9766 L273.8125,743.1328 L266.4219,743.1328 L266.4219,740.9766 L268.8906,740.9766 L268.8906,732.8984 L266.4219,732.8984 Z " fill="#000000"/><text fill="#000000" font-family="sans-serif" font-size="12" font-style="italic" lengthAdjust="spacing" textLength="80" x="310.5" y="733.1387">&#171;Repository&#187;</text><text fill="#000000" font-family="sans-serif" font-size="14" font-style="italic" lengthAdjust="spacing" textLength="132" x="284.5" y="748.9639">AccountRepository</text><line style="stroke:#181818;stroke-width:0.5;" x1="256.5" x2="418.5" y1="757.2656" y2="757.2656"/><line style="stroke:#181818;stroke-width:0.5;" x1="256.5" x2="418.5" y1="765.2656" y2="765.2656"/></g><!--class Account--><g id="elem_Account"><rect codeLine="2" fill="#F1F1F1" height="414.7969" id="Account" rx="2.5" ry="2.5" style="stroke:#181818;stroke-width:0.5;" width="445" x="183" y="850"/><ellipse cx="348.75" cy="870.1328" fill="#ADD1B2" rx="11" ry="11" style="stroke:#181818;stroke-width:1.0;"/><path d="M351.7188,875.7734 Q351.1406,876.0703 350.5,876.2109 Q349.8594,876.3672 349.1563,876.3672 Q346.6563,876.3672 345.3281,874.7266 Q344.0156,873.0703 344.0156,869.9453 Q344.0156,866.8203 345.3281,865.1641 Q346.6563,863.5078 349.1563,863.5078 Q349.8594,863.5078 350.5,863.6641 Q351.1563,863.8203 351.7188,864.1172 L351.7188,866.8359 Q351.0938,866.2578 350.5,865.9922 Q349.9063,865.7109 349.2813,865.7109 Q347.9375,865.7109 347.25,866.7891 Q346.5625,867.8516 346.5625,869.9453 Q346.5625,872.0391 347.25,873.1172 Q347.9375,874.1797 349.2813,874.1797 Q349.9063,874.1797 350.5,873.9141 Q351.0938,873.6328 351.7188,873.0547 L351.7188,875.7734 Z " fill="#000000"/><text fill="#000000" font-family="sans-serif" font-size="12" font-style="italic" lengthAdjust="spacing" textLength="109" x="367.25" y="866.1387">&#171;AggregateRoot&#187;</text><text fill="#000000" font-family="sans-serif" font-size="14" lengthAdjust="spacing" textLength="57" x="393.25" y="881.9639">Account</text><line style="stroke:#181818;stroke-width:0.5;" x1="184" x2="627" y1="890.2656" y2="890.2656"/><rect fill="none" height="6" style="stroke:#C82930;stroke-width:1.0;" width="6" x="191" y="900.9141"/><text fill="#000000" font-family="sans-serif" font-size="14" lengthAdjust="spacing" textLength="232" x="203" y="907.2607">name : AccountName {readOnly}</text><rect fill="none" height="6" style="stroke:#C82930;stroke-width:1.0;" width="6" x="191" y="917.2109"/><text fill="#000000" font-family="sans-serif" font-size="14" lengthAdjust="spacing" textLength="168" x="203" y="923.5576">email : Email {readOnly}</text><rect fill="none" height="6" style="stroke:#C82930;stroke-width:1.0;" width="6" x="191" y="933.5078"/><text fill="#000000" font-family="sans-serif" font-size="14" lengthAdjust="spacing" textLength="179" x="203" y="939.8545">photo : Image {readOnly}</text><rect fill="none" height="6" style="stroke:#C82930;stroke-width:1.0;" width="6" x="191" y="949.8047"/><text fill="#000000" font-family="sans-serif" font-size="14" lengthAdjust="spacing" textLength="296" x="203" y="956.1514">phoneNumber : PhoneNumber {readOnly}</text><rect fill="none" height="6" style="stroke:#C82930;stroke-width:1.0;" width="6" x="191" y="966.1016"/><text fill="#000000" font-family="sans-serif" font-size="14" lengthAdjust="spacing" textLength="178" x="203" y="972.4482">profileName : ProfileNAme</text><rect fill="none" height="6" style="stroke:#C82930;stroke-width:1.0;" width="6" x="191" y="982.3984"/><text fill="#000000" font-family="sans-serif" font-size="14" lengthAdjust="spacing" textLength="214" x="203" y="988.7451">accountStatus : AccountStatus</text><line style="stroke:#181818;stroke-width:0.5;" x1="184" x2="627" y1="996.0469" y2="996.0469"/><polygon fill="#FFFF44" points="194,1012.8438,198,1016.8438,194,1020.8438,190,1016.8438" style="stroke:#B38D22;stroke-width:1.0;"/><text fill="#000000" font-family="sans-serif" font-size="14" lengthAdjust="spacing" textLength="412" x="203" y="1013.042">Account(name : AccountName, email : Email, photo : Image,</text><text fill="#000000" font-family="sans-serif" font-size="14" lengthAdjust="spacing" textLength="312" x="207" y="1029.3389">phoneNumber : PhoneNumber, profileName :</text><text fill="#000000" font-family="sans-serif" font-size="14" lengthAdjust="spacing" textLength="309" x="203" y="1045.6357">ProfileName, accountStatus : AccountStatus)</text><ellipse cx="194" cy="1058.5859" fill="#84BE84" rx="3" ry="3" style="stroke:#038048;stroke-width:1.0;"/><text fill="#000000" font-family="sans-serif" font-size="14" lengthAdjust="spacing" textLength="323" x="203" y="1061.9326">hasProfile(profileName : ProfileName) : boolean</text><ellipse cx="194" cy="1074.8828" fill="#84BE84" rx="3" ry="3" style="stroke:#038048;stroke-width:1.0;"/><text fill="#000000" font-family="sans-serif" font-size="14" lengthAdjust="spacing" textLength="416" x="203" y="1078.2295">setAccountStatus(accountStatus : AccountStatus) : boolean</text><ellipse cx="194" cy="1091.1797" fill="#84BE84" rx="3" ry="3" style="stroke:#038048;stroke-width:1.0;"/><text fill="#000000" font-family="sans-serif" font-size="14" lengthAdjust="spacing" textLength="419" x="203" y="1094.5264">hasAccountStatus(accountStatus : AccountStatus) : boolean</text><ellipse cx="194" cy="1107.4766" fill="#84BE84" rx="3" ry="3" style="stroke:#038048;stroke-width:1.0;"/><text fill="#000000" font-family="sans-serif" font-size="14" lengthAdjust="spacing" textLength="248" x="203" y="1110.8232">getAccountStatus() : AccountStatus</text><ellipse cx="194" cy="1123.7734" fill="#84BE84" rx="3" ry="3" style="stroke:#038048;stroke-width:1.0;"/><text fill="#000000" font-family="sans-serif" font-size="14" lengthAdjust="spacing" textLength="385" x="203" y="1127.1201">changeProfileOfUserAccount(profileName : ProfileName)</text><ellipse cx="194" cy="1140.0703" fill="#84BE84" rx="3" ry="3" style="stroke:#038048;stroke-width:1.0;"/><text fill="#000000" font-family="sans-serif" font-size="14" lengthAdjust="spacing" textLength="240" x="203" y="1143.417">getAccountName() : AccountName</text><ellipse cx="194" cy="1156.3672" fill="#84BE84" rx="3" ry="3" style="stroke:#038048;stroke-width:1.0;"/><text fill="#000000" font-family="sans-serif" font-size="14" lengthAdjust="spacing" textLength="170" x="203" y="1159.7139">getProfile() : ProfileName</text><ellipse cx="194" cy="1172.6641" fill="#84BE84" rx="3" ry="3" style="stroke:#038048;stroke-width:1.0;"/><text fill="#000000" font-family="sans-serif" font-size="14" lengthAdjust="spacing" textLength="118" x="203" y="1176.0107">getEmail() : Email</text><ellipse cx="194" cy="1188.9609" fill="#84BE84" rx="3" ry="3" style="stroke:#038048;stroke-width:1.0;"/><text fill="#000000" font-family="sans-serif" font-size="14" lengthAdjust="spacing" textLength="246" x="203" y="1192.3076">getPhoneNumber() : PhoneNumber</text><ellipse cx="194" cy="1205.2578" fill="#84BE84" rx="3" ry="3" style="stroke:#038048;stroke-width:1.0;"/><text fill="#000000" font-family="sans-serif" font-size="14" lengthAdjust="spacing" textLength="109" x="203" y="1208.6045">identity() : Email</text><ellipse cx="194" cy="1221.5547" fill="#84BE84" rx="3" ry="3" style="stroke:#038048;stroke-width:1.0;"/><text fill="#000000" font-family="sans-serif" font-size="14" lengthAdjust="spacing" textLength="235" x="203" y="1224.9014">sameAs(object : Object) : boolean</text><ellipse cx="194" cy="1237.8516" fill="#84BE84" rx="3" ry="3" style="stroke:#038048;stroke-width:1.0;"/><text fill="#000000" font-family="sans-serif" font-size="14" lengthAdjust="spacing" textLength="192" x="203" y="1241.1982">equals(o : Object) : boolean</text><ellipse cx="194" cy="1254.1484" fill="#84BE84" rx="3" ry="3" style="stroke:#038048;stroke-width:1.0;"/><text fill="#000000" font-family="sans-serif" font-size="14" lengthAdjust="spacing" textLength="111" x="203" y="1257.4951">hashCode() : int</text></g><!--link ChangeProfileController to AccountService--><g id="link_ChangeProfileController_AccountService"><path codeLine="11" d="M341.5,104.13 C341.5,124.85 341.5,150.21 341.5,175.77 " fill="none" id="ChangeProfileController-to-AccountService" style="stroke:#181818;stroke-width:1.0;"/><polygon fill="#181818" points="341.5,180.88,345.5,171.88,341.5,175.88,337.5,171.88,341.5,180.88" style="stroke:#181818;stroke-width:1.0;"/><text fill="#000000" font-family="sans-serif" font-size="13" lengthAdjust="spacing" textLength="98" x="342.5" y="147.0669">accountService</text></g><!--link AccountService to Repository--><g id="link_AccountService_Repository"><path codeLine="13" d="M210.7,425.17 C191.75,442.72 178.5,455 178.5,455 C178.5,455 178.5,472 178.5,472 C178.5,472 184.92,482.64 193.7,497.18 " fill="none" id="AccountService-to-Repository" style="stroke:#181818;stroke-width:1.0;"/><polygon fill="#181818" points="196.5,501.81,195.2611,492.0394,193.9107,497.5327,188.4174,496.1822,196.5,501.81" style="stroke:#181818;stroke-width:1.0;"/><text fill="#000000" font-family="sans-serif" font-size="13" lengthAdjust="spacing" textLength="118" x="179.5" y="468.0669">accountRepository</text></g><!--link AccountService to Repository--><g id="link_AccountService_Repository"><path codeLine="14" d="M313.36,425.2 C307.21,451.69 302.5,472 302.5,472 C302.5,472 296.48,482.64 288.25,497.18 " fill="none" id="AccountService-to-Repository-1" style="stroke:#181818;stroke-width:1.0;"/><polygon fill="#181818" points="285.63,501.81,293.5433,495.9466,288.0922,497.4583,286.5805,492.0071,285.63,501.81" style="stroke:#181818;stroke-width:1.0;"/><text fill="#000000" font-family="sans-serif" font-size="13" lengthAdjust="spacing" textLength="106" x="307.5" y="468.0669">profileRepository</text></g><!--link AccountService to Account--><g id="link_AccountService_Account"><path codeLine="15" d="M406.5,425.17 C415.91,442.72 422.5,455 422.5,455 C422.5,455 437.5,717 437.5,717 C437.5,717 437.5,773 437.5,773 C437.5,773 435.5,820 435.5,820 C435.5,820 434.3,829.46 432.38,844.61 " fill="none" id="AccountService-to-Account" style="stroke:#181818;stroke-width:1.0;"/><polygon fill="#181818" points="431.7,849.95,436.7973,841.5228,432.3272,844.9895,428.8605,840.5193,431.7,849.95" style="stroke:#181818;stroke-width:1.0;"/></g><!--reverse link Repository to AccountRepository--><g id="link_Repository_AccountRepository"><path codeLine="17" d="M296.7,673.57 C305.89,689.43 314.74,704.71 321.83,716.95 " fill="none" id="Repository-backto-AccountRepository" style="stroke:#181818;stroke-width:1.0;"/><polygon fill="none" points="290.63,677.05,286.66,656.24,302.74,670.04,290.63,677.05" style="stroke:#181818;stroke-width:1.0;"/></g><!--reverse link Repository to ProfileRepository--><g id="link_Repository_ProfileRepository"><path codeLine="18" d="M187.73,673.57 C178.44,689.43 169.5,704.71 162.33,716.95 " fill="none" id="Repository-backto-ProfileRepository" style="stroke:#181818;stroke-width:1.0;"/><polygon fill="none" points="181.73,669.96,197.87,656.24,193.81,677.04,181.73,669.96" style="stroke:#181818;stroke-width:1.0;"/></g><!--link AccountRepository to Account--><g id="link_AccountRepository_Account"><path codeLine="20" d="M346.23,785.87 C349.4,800.36 353.25,817.93 357.45,837.08 " fill="none" id="AccountRepository-Account" style="stroke:#181818;stroke-width:1.0;"/><polygon fill="#181818" points="343.42,773.01,340.7912,779.7249,345.9785,784.7341,348.6073,778.0192,343.42,773.01" style="stroke:#181818;stroke-width:1.0;"/><polygon fill="#181818" points="360.25,849.88,362.2288,840.232,359.1787,844.9961,354.4146,841.946,360.25,849.88" style="stroke:#181818;stroke-width:1.0;"/><line style="stroke:#181818;stroke-width:1.0;" x1="359.1787" x2="357.465" y1="844.9961" y2="837.185"/><text fill="#000000" font-family="sans-serif" font-size="13" lengthAdjust="spacing" textLength="73" x="353.5" y="816.0669">accountList</text><text fill="#000000" font-family="sans-serif" font-size="13" lengthAdjust="spacing" textLength="8" x="335.864" y="793.2732">1</text><text fill="#000000" font-family="sans-serif" font-size="13" lengthAdjust="spacing" textLength="7" x="351.498" y="839.2221">*</text></g><!--SRC=[jL7DQiCm3BxxARGS2qdeTOp1w7M7iZr0y6mjqwPOndOAWJxy4f8kRREnIme68_7zI9_Y5pclWsw0oM7gF88NxeP29V6G1Dua9Md0Ka2JI9nIT-GCjnQXAChnoG63PgvyaCyULLgCLBlIi8wnigJhtc6iC9x-obfRxZwqgt4Vv9qOT-9I46OCXMyRNjFdoHXfNNh5S223gyk_e9T8IKAtklIKpGqTfcnkxp3ggZzk3dd-29TtWdlG5msbhW03Pnvyni-zVnd-Ek3V65DBgJFgmp7FOH7U0h4uuCyIPyXicy5cCCessKbptkQPOc_z3G00]--></g></svg>