<?xml version="1.0" encoding="us-ascii" standalone="no"?><svg xmlns="http://www.w3.org/2000/svg" xmlns:xlink="http://www.w3.org/1999/xlink" contentStyleType="text/css" height="1095px" preserveAspectRatio="none" style="width:2259px;height:1095px;background:#FFFFFF;" version="1.1" viewBox="0 0 2259 1095" width="2259px" zoomAndPan="magnify"><defs/><g><text fill="#000000" font-family="sans-serif" font-size="14" font-weight="bold" lengthAdjust="spacing" textLength="711" x="775.5" y="27.9951">US016 - As Authenticated User, I want to get a list of all projects I'm currently allocated to</text><rect fill="#FFFFFF" height="832" style="stroke:#181818;stroke-width:1.0;" width="10" x="288" y="164.8594"/><rect fill="#FFFFFF" height="773.7344" style="stroke:#181818;stroke-width:1.0;" width="10" x="561" y="193.9922"/><rect fill="#FFFFFF" height="715.4688" style="stroke:#181818;stroke-width:1.0;" width="10" x="834" y="223.125"/><rect fill="#FFFFFF" height="29.1328" style="stroke:#181818;stroke-width:1.0;" width="10" x="1287" y="326.1484"/><rect fill="#FFFFFF" height="29.1328" style="stroke:#181818;stroke-width:1.0;" width="10" x="1558.5" y="466.1406"/><rect fill="#FFFFFF" height="29.1328" style="stroke:#181818;stroke-width:1.0;" width="10" x="1696.5" y="524.4063"/><rect fill="#FFFFFF" height="290.6563" style="stroke:#181818;stroke-width:1.0;" width="10" x="1889" y="618.8047"/><rect fill="#FFFFFF" height="29.1328" style="stroke:#181818;stroke-width:1.0;" width="10" x="2135" y="844.1953"/><rect fill="none" height="162.7969" style="stroke:#000000;stroke-width:1.5;" width="1021" x="761" y="427.875"/><rect fill="none" height="189.9297" style="stroke:#000000;stroke-width:1.5;" width="481" x="1772" y="691.3984"/><line style="stroke:#181818;stroke-width:0.5;stroke-dasharray:5.0,5.0;" x1="77" x2="77" y1="118.5938" y2="1014.8594"/><line style="stroke:#181818;stroke-width:0.5;stroke-dasharray:5.0,5.0;" x1="292.5" x2="292.5" y1="118.5938" y2="1014.8594"/><line style="stroke:#181818;stroke-width:0.5;stroke-dasharray:5.0,5.0;" x1="565.5" x2="565.5" y1="118.5938" y2="1014.8594"/><line style="stroke:#181818;stroke-width:0.5;stroke-dasharray:5.0,5.0;" x1="839" x2="839" y1="118.5938" y2="1014.8594"/><line style="stroke:#181818;stroke-width:0.5;stroke-dasharray:5.0,5.0;" x1="1024" x2="1024" y1="278.0703" y2="1014.8594"/><line style="stroke:#181818;stroke-width:0.5;stroke-dasharray:5.0,5.0;" x1="1292" x2="1292" y1="118.5938" y2="1014.8594"/><line style="stroke:#181818;stroke-width:0.5;stroke-dasharray:5.0,5.0;" x1="1439" x2="1439" y1="402.0781" y2="1014.8594"/><line style="stroke:#181818;stroke-width:0.5;stroke-dasharray:5.0,5.0;" x1="1563" x2="1563" y1="118.5938" y2="1014.8594"/><line style="stroke:#181818;stroke-width:0.5;stroke-dasharray:5.0,5.0;" x1="1701" x2="1701" y1="118.5938" y2="1014.8594"/><line style="stroke:#181818;stroke-width:0.5;stroke-dasharray:5.0,5.0;" x1="1894" x2="1894" y1="118.5938" y2="1014.8594"/><line style="stroke:#181818;stroke-width:0.5;stroke-dasharray:5.0,5.0;" x1="2140" x2="2140" y1="665.6016" y2="1014.8594"/><text fill="#000000" font-family="sans-serif" font-size="14" lengthAdjust="spacing" textLength="138" x="5" y="115.292">:Authenticated User</text><ellipse cx="77" cy="50.7969" fill="#FFFFFF" rx="8" ry="8" style="stroke:#181818;stroke-width:0.5;"/><path d="M77,58.7969 L77,85.7969 M64,66.7969 L90,66.7969 M77,85.7969 L64,100.7969 M77,85.7969 L90,100.7969 " fill="none" style="stroke:#181818;stroke-width:0.5;"/><text fill="#000000" font-family="sans-serif" font-size="14" lengthAdjust="spacing" textLength="138" x="5" y="1026.8545">:Authenticated User</text><ellipse cx="77" cy="1038.6563" fill="#FFFFFF" rx="8" ry="8" style="stroke:#181818;stroke-width:0.5;"/><path d="M77,1046.6563 L77,1073.6563 M64,1054.6563 L90,1054.6563 M77,1073.6563 L64,1088.6563 M77,1073.6563 L90,1088.6563 " fill="none" style="stroke:#181818;stroke-width:0.5;"/><rect fill="#FFFFFF" height="30.2969" rx="2.5" ry="2.5" style="stroke:#181818;stroke-width:0.5;" width="143" x="221.5" y="87.2969"/><text fill="#000000" font-family="sans-serif" font-size="14" lengthAdjust="spacing" textLength="129" x="228.5" y="107.292">:ListUserProjectsUI</text><rect fill="#FFFFFF" height="30.2969" rx="2.5" ry="2.5" style="stroke:#181818;stroke-width:0.5;" width="143" x="221.5" y="1013.8594"/><text fill="#000000" font-family="sans-serif" font-size="14" lengthAdjust="spacing" textLength="129" x="228.5" y="1033.8545">:ListUserProjectsUI</text><rect fill="#FFFFFF" height="30.2969" rx="2.5" ry="2.5" style="stroke:#181818;stroke-width:0.5;" width="197" x="467.5" y="87.2969"/><text fill="#000000" font-family="sans-serif" font-size="14" lengthAdjust="spacing" textLength="183" x="474.5" y="107.292">:ListUserProjectsController</text><rect fill="#FFFFFF" height="30.2969" rx="2.5" ry="2.5" style="stroke:#181818;stroke-width:0.5;" width="197" x="467.5" y="1013.8594"/><text fill="#000000" font-family="sans-serif" font-size="14" lengthAdjust="spacing" textLength="183" x="474.5" y="1033.8545">:ListUserProjectsController</text><rect fill="#FFFFFF" height="46.5938" rx="2.5" ry="2.5" style="stroke:#181818;stroke-width:0.5;" width="136" x="771" y="71"/><text fill="#000000" font-family="sans-serif" font-size="14" lengthAdjust="spacing" textLength="112" x="781" y="90.9951">resourceService</text><text fill="#000000" font-family="sans-serif" font-size="14" lengthAdjust="spacing" textLength="122" x="778" y="107.292">:ResourceService</text><rect fill="#FFFFFF" height="46.5938" rx="2.5" ry="2.5" style="stroke:#181818;stroke-width:0.5;" width="136" x="771" y="1013.8594"/><text fill="#000000" font-family="sans-serif" font-size="14" lengthAdjust="spacing" textLength="112" x="781" y="1033.8545">resourceService</text><text fill="#000000" font-family="sans-serif" font-size="14" lengthAdjust="spacing" textLength="122" x="778" y="1050.1514">:ResourceService</text><rect fill="#FFFFFF" height="62.8906" rx="2.5" ry="2.5" style="stroke:#181818;stroke-width:0.5;" width="115" x="967" y="1013.8594"/><text fill="#000000" font-family="sans-serif" font-size="14" lengthAdjust="spacing" textLength="101" x="974" y="1033.8545">&#171;ValueObject&#187;</text><text fill="#000000" font-family="sans-serif" font-size="14" lengthAdjust="spacing" textLength="92" x="978.5" y="1050.1514">accountEmail</text><text fill="#000000" font-family="sans-serif" font-size="14" lengthAdjust="spacing" textLength="98" x="975.5" y="1066.4482">:AccountEmail</text><rect fill="#FFFFFF" height="46.5938" rx="2.5" ry="2.5" style="stroke:#181818;stroke-width:0.5;" width="160" x="1212" y="71"/><text fill="#000000" font-family="sans-serif" font-size="14" lengthAdjust="spacing" textLength="136" x="1222" y="90.9951">resourceRepository</text><text fill="#000000" font-family="sans-serif" font-size="14" lengthAdjust="spacing" textLength="146" x="1219" y="107.292">:ResourceRepository</text><rect fill="#FFFFFF" height="46.5938" rx="2.5" ry="2.5" style="stroke:#181818;stroke-width:0.5;" width="160" x="1212" y="1013.8594"/><text fill="#000000" font-family="sans-serif" font-size="14" lengthAdjust="spacing" textLength="136" x="1222" y="1033.8545">resourceRepository</text><text fill="#000000" font-family="sans-serif" font-size="14" lengthAdjust="spacing" textLength="146" x="1219" y="1050.1514">:ResourceRepository</text><rect fill="#FFFFFF" height="46.5938" rx="2.5" ry="2.5" style="stroke:#181818;stroke-width:0.5;" width="114" x="1382" y="1013.8594"/><text fill="#000000" font-family="sans-serif" font-size="14" lengthAdjust="spacing" textLength="71" x="1403.5" y="1033.8545">projectList</text><text fill="#000000" font-family="sans-serif" font-size="14" lengthAdjust="spacing" textLength="100" x="1389" y="1050.1514">:List&lt;Project&gt;</text><rect fill="#FFFFFF" height="62.8906" rx="2.5" ry="2.5" style="stroke:#181818;stroke-width:0.5;" width="115" x="1506" y="54.7031"/><text fill="#000000" font-family="sans-serif" font-size="14" lengthAdjust="spacing" textLength="101" x="1513" y="74.6982">&#171;ValueObject&#187;</text><text fill="#000000" font-family="sans-serif" font-size="14" lengthAdjust="spacing" textLength="79" x="1524" y="90.9951">resourceIDl</text><text fill="#000000" font-family="sans-serif" font-size="14" lengthAdjust="spacing" textLength="86" x="1520.5" y="107.292">:ResourceID</text><rect fill="#FFFFFF" height="62.8906" rx="2.5" ry="2.5" style="stroke:#181818;stroke-width:0.5;" width="115" x="1506" y="1013.8594"/><text fill="#000000" font-family="sans-serif" font-size="14" lengthAdjust="spacing" textLength="101" x="1513" y="1033.8545">&#171;ValueObject&#187;</text><text fill="#000000" font-family="sans-serif" font-size="14" lengthAdjust="spacing" textLength="79" x="1524" y="1050.1514">resourceIDl</text><text fill="#000000" font-family="sans-serif" font-size="14" lengthAdjust="spacing" textLength="86" x="1520.5" y="1066.4482">:ResourceID</text><rect fill="#FFFFFF" height="46.5938" rx="2.5" ry="2.5" style="stroke:#181818;stroke-width:0.5;" width="141" x="1631" y="71"/><text fill="#000000" font-family="sans-serif" font-size="14" lengthAdjust="spacing" textLength="122" x="1638.5" y="90.9951">projectRepository</text><text fill="#000000" font-family="sans-serif" font-size="14" lengthAdjust="spacing" textLength="127" x="1638" y="107.292">:ProjectRepository</text><rect fill="#FFFFFF" height="46.5938" rx="2.5" ry="2.5" style="stroke:#181818;stroke-width:0.5;" width="141" x="1631" y="1013.8594"/><text fill="#000000" font-family="sans-serif" font-size="14" lengthAdjust="spacing" textLength="122" x="1638.5" y="1033.8545">projectRepository</text><text fill="#000000" font-family="sans-serif" font-size="14" lengthAdjust="spacing" textLength="127" x="1638" y="1050.1514">:ProjectRepository</text><rect fill="#FFFFFF" height="30.2969" rx="2.5" ry="2.5" style="stroke:#181818;stroke-width:0.5;" width="224" x="1782" y="87.2969"/><text fill="#000000" font-family="sans-serif" font-size="14" lengthAdjust="spacing" textLength="210" x="1789" y="107.292">:ProjectByResourceAssembler</text><rect fill="#FFFFFF" height="30.2969" rx="2.5" ry="2.5" style="stroke:#181818;stroke-width:0.5;" width="224" x="1782" y="1013.8594"/><text fill="#000000" font-family="sans-serif" font-size="14" lengthAdjust="spacing" textLength="210" x="1789" y="1033.8545">:ProjectByResourceAssembler</text><rect fill="#FFFFFF" height="46.5938" rx="2.5" ry="2.5" style="stroke:#181818;stroke-width:0.5;" width="206" x="2037" y="1013.8594"/><text fill="#000000" font-family="sans-serif" font-size="14" lengthAdjust="spacing" textLength="119" x="2078.5" y="1033.8545">userProjectsList :</text><text fill="#000000" font-family="sans-serif" font-size="14" lengthAdjust="spacing" textLength="192" x="2044" y="1050.1514">ArrayList&lt;UserProjectDTO&gt;</text><rect fill="#FFFFFF" height="832" style="stroke:#181818;stroke-width:1.0;" width="10" x="288" y="164.8594"/><rect fill="#FFFFFF" height="773.7344" style="stroke:#181818;stroke-width:1.0;" width="10" x="561" y="193.9922"/><rect fill="#FFFFFF" height="715.4688" style="stroke:#181818;stroke-width:1.0;" width="10" x="834" y="223.125"/><rect fill="#FFFFFF" height="29.1328" style="stroke:#181818;stroke-width:1.0;" width="10" x="1287" y="326.1484"/><rect fill="#FFFFFF" height="29.1328" style="stroke:#181818;stroke-width:1.0;" width="10" x="1558.5" y="466.1406"/><rect fill="#FFFFFF" height="29.1328" style="stroke:#181818;stroke-width:1.0;" width="10" x="1696.5" y="524.4063"/><rect fill="#FFFFFF" height="290.6563" style="stroke:#181818;stroke-width:1.0;" width="10" x="1889" y="618.8047"/><rect fill="#FFFFFF" height="29.1328" style="stroke:#181818;stroke-width:1.0;" width="10" x="2135" y="844.1953"/><polygon fill="#181818" points="276,160.8594,286,164.8594,276,168.8594,280,164.8594" style="stroke:#181818;stroke-width:1.0;"/><line style="stroke:#181818;stroke-width:1.0;" x1="77" x2="282" y1="164.8594" y2="164.8594"/><text fill="#000000" font-family="sans-serif" font-size="13" font-weight="bold" lengthAdjust="spacing" textLength="9" x="99.5" y="152.2271">1</text><text fill="#000000" font-family="sans-serif" font-size="13" lengthAdjust="spacing" textLength="149" x="112.5" y="144.6606">requests list of projects</text><text fill="#000000" font-family="sans-serif" font-size="13" lengthAdjust="spacing" textLength="135" x="121.5" y="159.7935">currently allocated to</text><polygon fill="#181818" points="549,189.9922,559,193.9922,549,197.9922,553,193.9922" style="stroke:#181818;stroke-width:1.0;"/><line style="stroke:#181818;stroke-width:1.0;" x1="298" x2="555" y1="193.9922" y2="193.9922"/><text fill="#000000" font-family="sans-serif" font-size="13" font-weight="bold" lengthAdjust="spacing" textLength="9" x="307.5" y="188.9263">2</text><text fill="#000000" font-family="sans-serif" font-size="13" lengthAdjust="spacing" textLength="231" x="320.5" y="188.9263">userProjectsList(email, currentDate)</text><polygon fill="#181818" points="822,219.125,832,223.125,822,227.125,826,223.125" style="stroke:#181818;stroke-width:1.0;"/><line style="stroke:#181818;stroke-width:1.0;" x1="571" x2="828" y1="223.125" y2="223.125"/><text fill="#000000" font-family="sans-serif" font-size="13" font-weight="bold" lengthAdjust="spacing" textLength="9" x="580.5" y="218.0591">3</text><text fill="#000000" font-family="sans-serif" font-size="13" lengthAdjust="spacing" textLength="231" x="593.5" y="218.0591">userProjectsList(email, currentDate)</text><polygon fill="#181818" points="955,248.2578,965,252.2578,955,256.2578,959,252.2578" style="stroke:#181818;stroke-width:1.0;"/><line style="stroke:#181818;stroke-width:1.0;" x1="844" x2="961" y1="252.2578" y2="252.2578"/><text fill="#000000" font-family="sans-serif" font-size="13" font-weight="bold" lengthAdjust="spacing" textLength="9" x="856" y="247.1919">4</text><text fill="#000000" font-family="sans-serif" font-size="13" lengthAdjust="spacing" textLength="86" x="869" y="247.1919">create(email)</text><rect fill="#FFFFFF" height="62.8906" rx="2.5" ry="2.5" style="stroke:#181818;stroke-width:0.5;" width="115" x="967" y="231.125"/><text fill="#000000" font-family="sans-serif" font-size="14" lengthAdjust="spacing" textLength="101" x="974" y="251.1201">&#171;ValueObject&#187;</text><text fill="#000000" font-family="sans-serif" font-size="14" lengthAdjust="spacing" textLength="92" x="978.5" y="267.417">accountEmail</text><text fill="#000000" font-family="sans-serif" font-size="14" lengthAdjust="spacing" textLength="98" x="975.5" y="283.7139">:AccountEmail</text><polygon fill="#181818" points="1275,322.1484,1285,326.1484,1275,330.1484,1279,326.1484" style="stroke:#181818;stroke-width:1.0;"/><line style="stroke:#181818;stroke-width:1.0;" x1="844" x2="1281" y1="326.1484" y2="326.1484"/><text fill="#000000" font-family="sans-serif" font-size="13" font-weight="bold" lengthAdjust="spacing" textLength="9" x="853.5" y="321.0825">5</text><text fill="#000000" font-family="sans-serif" font-size="13" lengthAdjust="spacing" textLength="411" x="866.5" y="321.0825">findByAccountEmailAndCurrentDate(accountEmail, currentDate)</text><polygon fill="#181818" points="855,351.2813,845,355.2813,855,359.2813,851,355.2813" style="stroke:#181818;stroke-width:1.0;"/><line style="stroke:#181818;stroke-width:1.0;stroke-dasharray:2.0,2.0;" x1="849" x2="1291" y1="355.2813" y2="355.2813"/><text fill="#000000" font-family="sans-serif" font-size="13" font-weight="bold" lengthAdjust="spacing" textLength="9" x="1030" y="350.2153">6</text><text fill="#000000" font-family="sans-serif" font-size="13" lengthAdjust="spacing" textLength="63" x="1043" y="350.2153">resources</text><polygon fill="#181818" points="1370,380.4141,1380,384.4141,1370,388.4141,1374,384.4141" style="stroke:#181818;stroke-width:1.0;"/><line style="stroke:#181818;stroke-width:1.0;" x1="844" x2="1376" y1="384.4141" y2="384.4141"/><text fill="#000000" font-family="sans-serif" font-size="13" font-weight="bold" lengthAdjust="spacing" textLength="9" x="1081" y="379.3481">7</text><text fill="#000000" font-family="sans-serif" font-size="13" lengthAdjust="spacing" textLength="51" x="1094" y="379.3481">create()</text><rect fill="#FFFFFF" height="46.5938" rx="2.5" ry="2.5" style="stroke:#181818;stroke-width:0.5;" width="114" x="1382" y="363.2813"/><text fill="#000000" font-family="sans-serif" font-size="14" lengthAdjust="spacing" textLength="71" x="1403.5" y="383.2764">projectList</text><text fill="#000000" font-family="sans-serif" font-size="14" lengthAdjust="spacing" textLength="100" x="1389" y="399.5732">:List&lt;Project&gt;</text><path d="M761,427.875 L838,427.875 L838,435.0078 L828,445.0078 L761,445.0078 L761,427.875 " fill="#FFFFFF" style="stroke:#000000;stroke-width:1.5;"/><rect fill="none" height="162.7969" style="stroke:#000000;stroke-width:1.5;" width="1021" x="761" y="427.875"/><text fill="#000000" font-family="sans-serif" font-size="13" font-weight="bold" lengthAdjust="spacing" textLength="32" x="776" y="440.9419">loop</text><text fill="#000000" font-family="sans-serif" font-size="11" font-weight="bold" lengthAdjust="spacing" textLength="206" x="853" y="440.0854">[for each resource in resources]</text><polygon fill="#181818" points="1546.5,462.1406,1556.5,466.1406,1546.5,470.1406,1550.5,466.1406" style="stroke:#181818;stroke-width:1.0;"/><line style="stroke:#181818;stroke-width:1.0;" x1="844" x2="1552.5" y1="466.1406" y2="466.1406"/><text fill="#000000" font-family="sans-serif" font-size="13" font-weight="bold" lengthAdjust="spacing" textLength="9" x="1140.75" y="461.0747">8</text><text fill="#000000" font-family="sans-serif" font-size="13" lengthAdjust="spacing" textLength="108" x="1153.75" y="461.0747">getProjectCode()</text><polygon fill="#181818" points="855,491.2734,845,495.2734,855,499.2734,851,495.2734" style="stroke:#181818;stroke-width:1.0;"/><line style="stroke:#181818;stroke-width:1.0;stroke-dasharray:2.0,2.0;" x1="849" x2="1562.5" y1="495.2734" y2="495.2734"/><text fill="#000000" font-family="sans-serif" font-size="13" font-weight="bold" lengthAdjust="spacing" textLength="9" x="1158.75" y="490.2075">9</text><text fill="#000000" font-family="sans-serif" font-size="13" lengthAdjust="spacing" textLength="77" x="1171.75" y="490.2075">projectCode</text><polygon fill="#181818" points="1684.5,520.4063,1694.5,524.4063,1684.5,528.4063,1688.5,524.4063" style="stroke:#181818;stroke-width:1.0;"/><line style="stroke:#181818;stroke-width:1.0;" x1="844" x2="1690.5" y1="524.4063" y2="524.4063"/><text fill="#000000" font-family="sans-serif" font-size="13" font-weight="bold" lengthAdjust="spacing" textLength="18" x="1193.25" y="519.3403">10</text><text fill="#000000" font-family="sans-serif" font-size="13" lengthAdjust="spacing" textLength="132" x="1215.25" y="519.3403">findById(projecCode)</text><polygon fill="#181818" points="855,549.5391,845,553.5391,855,557.5391,851,553.5391" style="stroke:#181818;stroke-width:1.0;"/><line style="stroke:#181818;stroke-width:1.0;stroke-dasharray:2.0,2.0;" x1="849" x2="1700.5" y1="553.5391" y2="553.5391"/><text fill="#000000" font-family="sans-serif" font-size="13" font-weight="bold" lengthAdjust="spacing" textLength="18" x="1239.75" y="548.4731">11</text><text fill="#000000" font-family="sans-serif" font-size="13" lengthAdjust="spacing" textLength="44" x="1261.75" y="548.4731">project</text><polygon fill="#181818" points="1427,578.6719,1437,582.6719,1427,586.6719,1431,582.6719" style="stroke:#181818;stroke-width:1.0;"/><line style="stroke:#181818;stroke-width:1.0;" x1="844" x2="1433" y1="582.6719" y2="582.6719"/><text fill="#000000" font-family="sans-serif" font-size="13" font-weight="bold" lengthAdjust="spacing" textLength="18" x="1089.5" y="577.606">12</text><text fill="#000000" font-family="sans-serif" font-size="13" lengthAdjust="spacing" textLength="82" x="1111.5" y="577.606">add (project)</text><polygon fill="#181818" points="1877,614.8047,1887,618.8047,1877,622.8047,1881,618.8047" style="stroke:#181818;stroke-width:1.0;"/><line style="stroke:#181818;stroke-width:1.0;" x1="844" x2="1883" y1="618.8047" y2="618.8047"/><text fill="#000000" font-family="sans-serif" font-size="13" font-weight="bold" lengthAdjust="spacing" textLength="18" x="1274.5" y="613.7388">13</text><text fill="#000000" font-family="sans-serif" font-size="13" lengthAdjust="spacing" textLength="162" x="1296.5" y="613.7388">userProjectsList(projects)</text><polygon fill="#181818" points="2025,643.9375,2035,647.9375,2025,651.9375,2029,647.9375" style="stroke:#181818;stroke-width:1.0;"/><line style="stroke:#181818;stroke-width:1.0;" x1="1899" x2="2031" y1="647.9375" y2="647.9375"/><text fill="#000000" font-family="sans-serif" font-size="13" font-weight="bold" lengthAdjust="spacing" textLength="18" x="1931.5" y="642.8716">14</text><text fill="#000000" font-family="sans-serif" font-size="13" lengthAdjust="spacing" textLength="51" x="1953.5" y="642.8716">create()</text><rect fill="#FFFFFF" height="46.5938" rx="2.5" ry="2.5" style="stroke:#181818;stroke-width:0.5;" width="206" x="2037" y="626.8047"/><text fill="#000000" font-family="sans-serif" font-size="14" lengthAdjust="spacing" textLength="119" x="2078.5" y="646.7998">userProjectsList :</text><text fill="#000000" font-family="sans-serif" font-size="14" lengthAdjust="spacing" textLength="192" x="2044" y="663.0967">ArrayList&lt;UserProjectDTO&gt;</text><path d="M1772,691.3984 L1849,691.3984 L1849,698.5313 L1839,708.5313 L1772,708.5313 L1772,691.3984 " fill="#FFFFFF" style="stroke:#000000;stroke-width:1.5;"/><rect fill="none" height="189.9297" style="stroke:#000000;stroke-width:1.5;" width="481" x="1772" y="691.3984"/><text fill="#000000" font-family="sans-serif" font-size="13" font-weight="bold" lengthAdjust="spacing" textLength="32" x="1787" y="704.4653">loop</text><text fill="#000000" font-family="sans-serif" font-size="11" font-weight="bold" lengthAdjust="spacing" textLength="180" x="1864" y="703.6089">[resourceIterator.hasNext()]</text><line style="stroke:#181818;stroke-width:1.0;" x1="1899" x2="1941" y1="744.7969" y2="744.7969"/><line style="stroke:#181818;stroke-width:1.0;" x1="1941" x2="1941" y1="744.7969" y2="757.7969"/><line style="stroke:#181818;stroke-width:1.0;" x1="1900" x2="1941" y1="757.7969" y2="757.7969"/><polygon fill="#181818" points="1910,753.7969,1900,757.7969,1910,761.7969,1906,757.7969" style="stroke:#181818;stroke-width:1.0;"/><text fill="#000000" font-family="sans-serif" font-size="13" font-weight="bold" lengthAdjust="spacing" textLength="18" x="1906" y="732.1646">15</text><text fill="#000000" font-family="sans-serif" font-size="13" lengthAdjust="spacing" textLength="120" x="1942.5" y="724.5981">currentResource =</text><text fill="#000000" font-family="sans-serif" font-size="13" lengthAdjust="spacing" textLength="153" x="1928" y="739.731">resourceIterateor.next()</text><line style="stroke:#181818;stroke-width:1.0;" x1="1899" x2="1941" y1="802.0625" y2="802.0625"/><line style="stroke:#181818;stroke-width:1.0;" x1="1941" x2="1941" y1="802.0625" y2="815.0625"/><line style="stroke:#181818;stroke-width:1.0;" x1="1900" x2="1941" y1="815.0625" y2="815.0625"/><polygon fill="#181818" points="1910,811.0625,1900,815.0625,1910,819.0625,1906,815.0625" style="stroke:#181818;stroke-width:1.0;"/><text fill="#000000" font-family="sans-serif" font-size="13" font-weight="bold" lengthAdjust="spacing" textLength="18" x="1906" y="789.4302">16</text><text fill="#000000" font-family="sans-serif" font-size="13" lengthAdjust="spacing" textLength="114" x="1969" y="781.8638">userProjectDTO =</text><text fill="#000000" font-family="sans-serif" font-size="13" lengthAdjust="spacing" textLength="200" x="1928" y="796.9966">generateDTO(currentResource)</text><polygon fill="#181818" points="2123,840.1953,2133,844.1953,2123,848.1953,2127,844.1953" style="stroke:#181818;stroke-width:1.0;"/><line style="stroke:#181818;stroke-width:1.0;" x1="1899" x2="2129" y1="844.1953" y2="844.1953"/><text fill="#000000" font-family="sans-serif" font-size="13" font-weight="bold" lengthAdjust="spacing" textLength="18" x="1939.5" y="839.1294">17</text><text fill="#000000" font-family="sans-serif" font-size="13" lengthAdjust="spacing" textLength="133" x="1961.5" y="839.1294">add(userProjectDTO)</text><polygon fill="#181818" points="1910,869.3281,1900,873.3281,1910,877.3281,1906,873.3281" style="stroke:#181818;stroke-width:1.0;"/><line style="stroke:#181818;stroke-width:1.0;stroke-dasharray:2.0,2.0;" x1="1904" x2="2139" y1="873.3281" y2="873.3281"/><text fill="#000000" font-family="sans-serif" font-size="13" font-weight="bold" lengthAdjust="spacing" textLength="18" x="1995.5" y="868.2622">18</text><text fill="#000000" font-family="sans-serif" font-size="13" lengthAdjust="spacing" textLength="26" x="2017.5" y="868.2622">true</text><polygon fill="#181818" points="855,905.4609,845,909.4609,855,913.4609,851,909.4609" style="stroke:#181818;stroke-width:1.0;"/><line style="stroke:#181818;stroke-width:1.0;stroke-dasharray:2.0,2.0;" x1="849" x2="1893" y1="909.4609" y2="909.4609"/><text fill="#000000" font-family="sans-serif" font-size="13" font-weight="bold" lengthAdjust="spacing" textLength="18" x="1307.5" y="904.395">19</text><text fill="#000000" font-family="sans-serif" font-size="13" lengthAdjust="spacing" textLength="101" x="1329.5" y="904.395">userProjectsList</text><polygon fill="#181818" points="582,934.5938,572,938.5938,582,942.5938,578,938.5938" style="stroke:#181818;stroke-width:1.0;"/><line style="stroke:#181818;stroke-width:1.0;stroke-dasharray:2.0,2.0;" x1="576" x2="838" y1="938.5938" y2="938.5938"/><text fill="#000000" font-family="sans-serif" font-size="13" font-weight="bold" lengthAdjust="spacing" textLength="18" x="643.5" y="933.5278">20</text><text fill="#000000" font-family="sans-serif" font-size="13" lengthAdjust="spacing" textLength="101" x="665.5" y="933.5278">userProjectsList</text><polygon fill="#181818" points="309,963.7266,299,967.7266,309,971.7266,305,967.7266" style="stroke:#181818;stroke-width:1.0;"/><line style="stroke:#181818;stroke-width:1.0;stroke-dasharray:2.0,2.0;" x1="303" x2="565" y1="967.7266" y2="967.7266"/><text fill="#000000" font-family="sans-serif" font-size="13" font-weight="bold" lengthAdjust="spacing" textLength="18" x="370.5" y="962.6606">21</text><text fill="#000000" font-family="sans-serif" font-size="13" lengthAdjust="spacing" textLength="101" x="392.5" y="962.6606">userProjectsList</text><polygon fill="#181818" points="88,992.8594,78,996.8594,88,1000.8594,84,996.8594" style="stroke:#181818;stroke-width:1.0;"/><line style="stroke:#181818;stroke-width:1.0;stroke-dasharray:2.0,2.0;" x1="82" x2="292" y1="996.8594" y2="996.8594"/><text fill="#000000" font-family="sans-serif" font-size="13" font-weight="bold" lengthAdjust="spacing" textLength="18" x="91.5" y="991.7935">22</text><text fill="#000000" font-family="sans-serif" font-size="13" lengthAdjust="spacing" textLength="165" x="113.5" y="991.7935">userProjectList of projects</text><!--SRC=[hLKzRzim4DtrAmxfK1TEYdRf8AG6bBY3WBG9qZfJ5aOwssfaqYMffFxtFLAKH56Iam3rOfEyU- - -tbaz5dpF9Dk1mZyLyWo_er9iWqbPR3Xao3NAI0siRd6DqlouODdZHegAvvUY51AUjuN6Y5LQy6htGBwHBdI9iFhvwVCNE8D4GLBfBU4M6TEOmqgXF8KKdXdNe0LiK0E3ib0Qn1fOMS9UYj-OQGNf-nrabIHUNHxCawWXj8WYbcbYFuc7u2V0bFq1x-hWA1DwB_Q6y2I-8YRpUkDOLcdjaBxE_59mBKLPEfwiFOwwIrIYaXd-HFbKP0ZtFBxjNraKvPx78CxFxrXPuVM3eLyixZdBCYg__hPZHKbuYNUqOFxxtVNHi6vnBrH1XJpuaNMt5c_4U0pJTStKYx3CrxchsSB2c9jZZlrORi9BYp4qVLN5cWpIPUcbcIvxwQNBYMBzZ_Y2eNBU5uScbaGft3qqGyMQqsWybJUDjgWn1PH8oGwswDwmBdzTrxNtNFmsH5ObPmiQ_lcSOAGHkoBXDMfibNZFftG8z27j44WdXVayXZ3A6PfvF6tql2I03xMt-NWo8YGdXxV3M2Y9T1cee6VHg8sO-bQnSwv90bpFQwW84-gwuFd5mPTZGakoYtFcamKP-4GITILvIwB6iZEbc8hElBMPK18zkrA8VTrzMDF-H9PjMoOefbWdyZUIiOD3EzmrwLBaXZHqTZdjEwDZ-0CPTULDyrdzQZ1UuZd6KLU9vJauGDr7GvvFzh_Lv-Y4Dg89viUVpSP_OE0P1PhjcNOBWg893FtMJtI-xH_zrpEgxySjKp_mhnvfN8-fFSJDz3Rx2xw2jsOjB18kVnjerLjT5dE3t8BHUHPmle0RbCMqYhezwtCCCDm0QLaD9hIT26SJDZwQke_yxMQtxN1gefoag8idq_dEF3ARrNYee3nNmOBstLTf5Fq3]--></g></svg>