<?xml version="1.0" encoding="us-ascii" standalone="no"?><svg xmlns="http://www.w3.org/2000/svg" xmlns:xlink="http://www.w3.org/1999/xlink" contentStyleType="text/css" height="1491px" preserveAspectRatio="none" style="width:2869px;height:1491px;background:#FFFFFF;" version="1.1" viewBox="0 0 2869 1491" width="2869px" zoomAndPan="magnify"><defs/><g><text fill="#000000" font-family="sans-serif" font-size="14" font-weight="bold" lengthAdjust="spacing" textLength="477" x="1195.25" y="27.9951">US010 - As Manager, I want to register/create a new project</text><rect fill="#FFFFFF" height="1243.1328" style="stroke:#181818;stroke-width:1.0;" width="10" x="240.5" y="149.7266"/><rect fill="#FFFFFF" height="1126.6016" style="stroke:#181818;stroke-width:1.0;" width="10" x="473.5" y="237.125"/><rect fill="#FFFFFF" height="1068.3359" style="stroke:#181818;stroke-width:1.0;" width="10" x="706.5" y="266.2578"/><rect fill="#FFFFFF" height="29.1328" style="stroke:#181818;stroke-width:1.0;" width="10" x="1101.5" y="295.3906"/><rect fill="#FFFFFF" height="29.1328" style="stroke:#181818;stroke-width:1.0;" width="10" x="1101.5" y="353.6563"/><rect fill="#FFFFFF" height="29.1328" style="stroke:#181818;stroke-width:1.0;" width="10" x="1101.5" y="411.9219"/><rect fill="#FFFFFF" height="29.1328" style="stroke:#181818;stroke-width:1.0;" width="10" x="1101.5" y="470.1875"/><rect fill="#FFFFFF" height="203.9297" style="stroke:#181818;stroke-width:1.0;" width="10" x="1101.5" y="1043.2656"/><rect fill="#FFFFFF" height="485.6797" style="stroke:#181818;stroke-width:1.0;" width="10" x="1271.5" y="528.4531"/><rect fill="#FFFFFF" height="397.1484" style="stroke:#181818;stroke-width:1.0;" width="10" x="1708.5" y="587.8516"/><rect fill="#FFFFFF" height="30" style="stroke:#181818;stroke-width:1.0;" width="10" x="2218.5" y="748.4688"/><rect fill="#FFFFFF" height="30" style="stroke:#181818;stroke-width:1.0;" width="10" x="2218.5" y="807.6016"/><rect fill="#FFFFFF" height="30" style="stroke:#181818;stroke-width:1.0;" width="10" x="2218.5" y="866.7344"/><rect fill="#FFFFFF" height="30" style="stroke:#181818;stroke-width:1.0;" width="10" x="2218.5" y="925.8672"/><rect fill="#FFFFFF" height="29.1328" style="stroke:#181818;stroke-width:1.0;" width="10" x="2376" y="1072.3984"/><rect fill="#FFFFFF" height="29.1328" style="stroke:#181818;stroke-width:1.0;" width="10" x="2376" y="1188.9297"/><rect fill="#FFFFFF" height="29.1328" style="stroke:#181818;stroke-width:1.0;" width="10" x="2579.5" y="1130.6641"/><rect fill="#FFFFFF" height="29.1328" style="stroke:#181818;stroke-width:1.0;" width="10" x="2764.5" y="1276.3281"/><line style="stroke:#181818;stroke-width:0.5;stroke-dasharray:5.0,5.0;" x1="40" x2="40" y1="118.5938" y2="1410.8594"/><line style="stroke:#181818;stroke-width:0.5;stroke-dasharray:5.0,5.0;" x1="245.5" x2="245.5" y1="118.5938" y2="1410.8594"/><line style="stroke:#181818;stroke-width:0.5;stroke-dasharray:5.0,5.0;" x1="478.5" x2="478.5" y1="118.5938" y2="1410.8594"/><line style="stroke:#181818;stroke-width:0.5;stroke-dasharray:5.0,5.0;" x1="711" x2="711" y1="118.5938" y2="1410.8594"/><line style="stroke:#181818;stroke-width:0.5;stroke-dasharray:5.0,5.0;" x1="1106" x2="1106" y1="118.5938" y2="1410.8594"/><line style="stroke:#181818;stroke-width:0.5;stroke-dasharray:5.0,5.0;" x1="1276" x2="1276" y1="118.5938" y2="1410.8594"/><line style="stroke:#181818;stroke-width:0.5;stroke-dasharray:5.0,5.0;" x1="1713" x2="1713" y1="118.5938" y2="1410.8594"/><line style="stroke:#181818;stroke-width:0.5;stroke-dasharray:5.0,5.0;" x1="1879.5" x2="1879.5" y1="634.6484" y2="1410.8594"/><line style="stroke:#181818;stroke-width:0.5;stroke-dasharray:5.0,5.0;" x1="2223.5" x2="2223.5" y1="700.3906" y2="1410.8594"/><line style="stroke:#181818;stroke-width:0.5;stroke-dasharray:5.0,5.0;" x1="2380.5" x2="2380.5" y1="118.5938" y2="1410.8594"/><line style="stroke:#181818;stroke-width:0.5;stroke-dasharray:5.0,5.0;" x1="2584.5" x2="2584.5" y1="118.5938" y2="1410.8594"/><line style="stroke:#181818;stroke-width:0.5;stroke-dasharray:5.0,5.0;" x1="2769.5" x2="2769.5" y1="118.5938" y2="1410.8594"/><text fill="#000000" font-family="sans-serif" font-size="14" lengthAdjust="spacing" textLength="65" x="5" y="115.292">:Manager</text><ellipse cx="40.5" cy="50.7969" fill="#FFFFFF" rx="8" ry="8" style="stroke:#181818;stroke-width:0.5;"/><path d="M40.5,58.7969 L40.5,85.7969 M27.5,66.7969 L53.5,66.7969 M40.5,85.7969 L27.5,100.7969 M40.5,85.7969 L53.5,100.7969 " fill="none" style="stroke:#181818;stroke-width:0.5;"/><text fill="#000000" font-family="sans-serif" font-size="14" lengthAdjust="spacing" textLength="65" x="5" y="1422.8545">:Manager</text><ellipse cx="40.5" cy="1434.6563" fill="#FFFFFF" rx="8" ry="8" style="stroke:#181818;stroke-width:0.5;"/><path d="M40.5,1442.6563 L40.5,1469.6563 M27.5,1450.6563 L53.5,1450.6563 M40.5,1469.6563 L27.5,1484.6563 M40.5,1469.6563 L53.5,1484.6563 " fill="none" style="stroke:#181818;stroke-width:0.5;"/><rect fill="#FFFFFF" height="30.2969" rx="2.5" ry="2.5" style="stroke:#181818;stroke-width:0.5;" width="126" x="182.5" y="87.2969"/><text fill="#000000" font-family="sans-serif" font-size="14" lengthAdjust="spacing" textLength="112" x="189.5" y="107.292">:CreateProjectUI</text><rect fill="#FFFFFF" height="30.2969" rx="2.5" ry="2.5" style="stroke:#181818;stroke-width:0.5;" width="126" x="182.5" y="1409.8594"/><text fill="#000000" font-family="sans-serif" font-size="14" lengthAdjust="spacing" textLength="112" x="189.5" y="1429.8545">:CreateProjectUI</text><rect fill="#FFFFFF" height="46.5938" rx="2.5" ry="2.5" style="stroke:#181818;stroke-width:0.5;" width="134" x="411.5" y="71"/><text fill="#000000" font-family="sans-serif" font-size="14" lengthAdjust="spacing" textLength="85" x="436" y="90.9951">&#171;Controller&#187;</text><text fill="#000000" font-family="sans-serif" font-size="14" lengthAdjust="spacing" textLength="120" x="418.5" y="107.292">:ProjectController</text><rect fill="#FFFFFF" height="46.5938" rx="2.5" ry="2.5" style="stroke:#181818;stroke-width:0.5;" width="134" x="411.5" y="1409.8594"/><text fill="#000000" font-family="sans-serif" font-size="14" lengthAdjust="spacing" textLength="85" x="436" y="1429.8545">&#171;Controller&#187;</text><text fill="#000000" font-family="sans-serif" font-size="14" lengthAdjust="spacing" textLength="120" x="418.5" y="1446.1514">:ProjectController</text><rect fill="#FFFFFF" height="46.5938" rx="2.5" ry="2.5" style="stroke:#181818;stroke-width:0.5;" width="117" x="653" y="71"/><text fill="#000000" font-family="sans-serif" font-size="14" lengthAdjust="spacing" textLength="68" x="677.5" y="90.9951">&#171;Service&#187;</text><text fill="#000000" font-family="sans-serif" font-size="14" lengthAdjust="spacing" textLength="103" x="660" y="107.292">:ProjectService</text><rect fill="#FFFFFF" height="46.5938" rx="2.5" ry="2.5" style="stroke:#181818;stroke-width:0.5;" width="117" x="653" y="1409.8594"/><text fill="#000000" font-family="sans-serif" font-size="14" lengthAdjust="spacing" textLength="68" x="677.5" y="1429.8545">&#171;Service&#187;</text><text fill="#000000" font-family="sans-serif" font-size="14" lengthAdjust="spacing" textLength="103" x="660" y="1446.1514">:ProjectService</text><rect fill="#FFFFFF" height="62.8906" rx="2.5" ry="2.5" style="stroke:#181818;stroke-width:0.5;" width="201" x="1006" y="54.7031"/><text fill="#000000" font-family="sans-serif" font-size="14" lengthAdjust="spacing" textLength="78" x="1067.5" y="74.6982">&#171;Interface&#187;</text><text fill="#000000" font-family="sans-serif" font-size="14" lengthAdjust="spacing" textLength="92" x="1060.5" y="90.9951">&#171;Repository&#187;</text><text fill="#000000" font-family="sans-serif" font-size="14" lengthAdjust="spacing" textLength="187" x="1013" y="107.292">:Repository&lt;Agg.Root, Id&gt;</text><rect fill="#FFFFFF" height="62.8906" rx="2.5" ry="2.5" style="stroke:#181818;stroke-width:0.5;" width="201" x="1006" y="1409.8594"/><text fill="#000000" font-family="sans-serif" font-size="14" lengthAdjust="spacing" textLength="78" x="1067.5" y="1429.8545">&#171;Interface&#187;</text><text fill="#000000" font-family="sans-serif" font-size="14" lengthAdjust="spacing" textLength="92" x="1060.5" y="1446.1514">&#171;Repository&#187;</text><text fill="#000000" font-family="sans-serif" font-size="14" lengthAdjust="spacing" textLength="187" x="1013" y="1462.4482">:Repository&lt;Agg.Root, Id&gt;</text><rect fill="#FFFFFF" height="46.5938" rx="2.5" ry="2.5" style="stroke:#181818;stroke-width:0.5;" width="119" x="1217" y="71"/><text fill="#000000" font-family="sans-serif" font-size="14" lengthAdjust="spacing" textLength="49" x="1252" y="90.9951">&#171;DTO&#187;</text><text fill="#000000" font-family="sans-serif" font-size="14" lengthAdjust="spacing" textLength="105" x="1224" y="107.292">:ProjectMapper</text><rect fill="#FFFFFF" height="46.5938" rx="2.5" ry="2.5" style="stroke:#181818;stroke-width:0.5;" width="119" x="1217" y="1409.8594"/><text fill="#000000" font-family="sans-serif" font-size="14" lengthAdjust="spacing" textLength="49" x="1252" y="1429.8545">&#171;DTO&#187;</text><text fill="#000000" font-family="sans-serif" font-size="14" lengthAdjust="spacing" textLength="105" x="1224" y="1446.1514">:ProjectMapper</text><rect fill="#FFFFFF" height="46.5938" rx="2.5" ry="2.5" style="stroke:#181818;stroke-width:0.5;" width="117" x="1655" y="71"/><text fill="#000000" font-family="sans-serif" font-size="14" lengthAdjust="spacing" textLength="98" x="1664.5" y="90.9951">projectFactory</text><text fill="#000000" font-family="sans-serif" font-size="14" lengthAdjust="spacing" textLength="103" x="1662" y="107.292">:ProjectFactory</text><rect fill="#FFFFFF" height="46.5938" rx="2.5" ry="2.5" style="stroke:#181818;stroke-width:0.5;" width="117" x="1655" y="1409.8594"/><text fill="#000000" font-family="sans-serif" font-size="14" lengthAdjust="spacing" textLength="98" x="1664.5" y="1429.8545">projectFactory</text><text fill="#000000" font-family="sans-serif" font-size="14" lengthAdjust="spacing" textLength="103" x="1662" y="1446.1514">:ProjectFactory</text><rect fill="#FFFFFF" height="46.5938" rx="2.5" ry="2.5" style="stroke:#181818;stroke-width:0.5;" width="128" x="1815.5" y="1409.8594"/><text fill="#000000" font-family="sans-serif" font-size="14" lengthAdjust="spacing" textLength="109" x="1825" y="1429.8545">productBacklog</text><text fill="#000000" font-family="sans-serif" font-size="14" lengthAdjust="spacing" textLength="114" x="1822.5" y="1446.1514">:ProductBacklog</text><rect fill="#FFFFFF" height="62.8906" rx="2.5" ry="2.5" style="stroke:#181818;stroke-width:0.5;" width="70" x="2188.5" y="1409.8594"/><text fill="#000000" font-family="sans-serif" font-size="14" lengthAdjust="spacing" textLength="56" x="2195.5" y="1429.8545">&#171;Entity&#187;</text><text fill="#000000" font-family="sans-serif" font-size="14" lengthAdjust="spacing" textLength="48" x="2199.5" y="1446.1514">project</text><text fill="#000000" font-family="sans-serif" font-size="14" lengthAdjust="spacing" textLength="53" x="2197" y="1462.4482">:Project</text><rect fill="#FFFFFF" height="46.5938" rx="2.5" ry="2.5" style="stroke:#181818;stroke-width:0.5;" width="225" x="2268.5" y="71"/><text fill="#000000" font-family="sans-serif" font-size="14" lengthAdjust="spacing" textLength="92" x="2335" y="90.9951">&#171;DataModel&#187;</text><text fill="#000000" font-family="sans-serif" font-size="14" lengthAdjust="spacing" textLength="211" x="2275.5" y="107.292">:ProjectDomainDataAssembler</text><rect fill="#FFFFFF" height="46.5938" rx="2.5" ry="2.5" style="stroke:#181818;stroke-width:0.5;" width="225" x="2268.5" y="1409.8594"/><text fill="#000000" font-family="sans-serif" font-size="14" lengthAdjust="spacing" textLength="92" x="2335" y="1429.8545">&#171;DataModel&#187;</text><text fill="#000000" font-family="sans-serif" font-size="14" lengthAdjust="spacing" textLength="211" x="2275.5" y="1446.1514">:ProjectDomainDataAssembler</text><rect fill="#FFFFFF" height="62.8906" rx="2.5" ry="2.5" style="stroke:#181818;stroke-width:0.5;" width="162" x="2503.5" y="54.7031"/><text fill="#000000" font-family="sans-serif" font-size="14" lengthAdjust="spacing" textLength="78" x="2545.5" y="74.6982">&#171;Interface&#187;</text><text fill="#000000" font-family="sans-serif" font-size="14" lengthAdjust="spacing" textLength="92" x="2538.5" y="90.9951">&#171;Repository&#187;</text><text fill="#000000" font-family="sans-serif" font-size="14" lengthAdjust="spacing" textLength="148" x="2510.5" y="107.292">:ProjectRepositoryJPA</text><rect fill="#FFFFFF" height="62.8906" rx="2.5" ry="2.5" style="stroke:#181818;stroke-width:0.5;" width="162" x="2503.5" y="1409.8594"/><text fill="#000000" font-family="sans-serif" font-size="14" lengthAdjust="spacing" textLength="78" x="2545.5" y="1429.8545">&#171;Interface&#187;</text><text fill="#000000" font-family="sans-serif" font-size="14" lengthAdjust="spacing" textLength="92" x="2538.5" y="1446.1514">&#171;Repository&#187;</text><text fill="#000000" font-family="sans-serif" font-size="14" lengthAdjust="spacing" textLength="148" x="2510.5" y="1462.4482">:ProjectRepositoryJPA</text><rect fill="#FFFFFF" height="46.5938" rx="2.5" ry="2.5" style="stroke:#181818;stroke-width:0.5;" width="188" x="2675.5" y="71"/><text fill="#000000" font-family="sans-serif" font-size="14" lengthAdjust="spacing" textLength="49" x="2745" y="90.9951">&#171;DTO&#187;</text><text fill="#000000" font-family="sans-serif" font-size="14" lengthAdjust="spacing" textLength="174" x="2682.5" y="107.292">:OutputProjectAssembler</text><rect fill="#FFFFFF" height="46.5938" rx="2.5" ry="2.5" style="stroke:#181818;stroke-width:0.5;" width="188" x="2675.5" y="1409.8594"/><text fill="#000000" font-family="sans-serif" font-size="14" lengthAdjust="spacing" textLength="49" x="2745" y="1429.8545">&#171;DTO&#187;</text><text fill="#000000" font-family="sans-serif" font-size="14" lengthAdjust="spacing" textLength="174" x="2682.5" y="1446.1514">:OutputProjectAssembler</text><rect fill="#FFFFFF" height="1243.1328" style="stroke:#181818;stroke-width:1.0;" width="10" x="240.5" y="149.7266"/><rect fill="#FFFFFF" height="1126.6016" style="stroke:#181818;stroke-width:1.0;" width="10" x="473.5" y="237.125"/><rect fill="#FFFFFF" height="1068.3359" style="stroke:#181818;stroke-width:1.0;" width="10" x="706.5" y="266.2578"/><rect fill="#FFFFFF" height="29.1328" style="stroke:#181818;stroke-width:1.0;" width="10" x="1101.5" y="295.3906"/><rect fill="#FFFFFF" height="29.1328" style="stroke:#181818;stroke-width:1.0;" width="10" x="1101.5" y="353.6563"/><rect fill="#FFFFFF" height="29.1328" style="stroke:#181818;stroke-width:1.0;" width="10" x="1101.5" y="411.9219"/><rect fill="#FFFFFF" height="29.1328" style="stroke:#181818;stroke-width:1.0;" width="10" x="1101.5" y="470.1875"/><rect fill="#FFFFFF" height="203.9297" style="stroke:#181818;stroke-width:1.0;" width="10" x="1101.5" y="1043.2656"/><rect fill="#FFFFFF" height="485.6797" style="stroke:#181818;stroke-width:1.0;" width="10" x="1271.5" y="528.4531"/><rect fill="#FFFFFF" height="397.1484" style="stroke:#181818;stroke-width:1.0;" width="10" x="1708.5" y="587.8516"/><rect fill="#FFFFFF" height="30" style="stroke:#181818;stroke-width:1.0;" width="10" x="2218.5" y="748.4688"/><rect fill="#FFFFFF" height="30" style="stroke:#181818;stroke-width:1.0;" width="10" x="2218.5" y="807.6016"/><rect fill="#FFFFFF" height="30" style="stroke:#181818;stroke-width:1.0;" width="10" x="2218.5" y="866.7344"/><rect fill="#FFFFFF" height="30" style="stroke:#181818;stroke-width:1.0;" width="10" x="2218.5" y="925.8672"/><rect fill="#FFFFFF" height="29.1328" style="stroke:#181818;stroke-width:1.0;" width="10" x="2376" y="1072.3984"/><rect fill="#FFFFFF" height="29.1328" style="stroke:#181818;stroke-width:1.0;" width="10" x="2376" y="1188.9297"/><rect fill="#FFFFFF" height="29.1328" style="stroke:#181818;stroke-width:1.0;" width="10" x="2579.5" y="1130.6641"/><rect fill="#FFFFFF" height="29.1328" style="stroke:#181818;stroke-width:1.0;" width="10" x="2764.5" y="1276.3281"/><polygon fill="#181818" points="228.5,145.7266,238.5,149.7266,228.5,153.7266,232.5,149.7266" style="stroke:#181818;stroke-width:1.0;"/><line style="stroke:#181818;stroke-width:1.0;" x1="40.5" x2="234.5" y1="149.7266" y2="149.7266"/><text fill="#000000" font-family="sans-serif" font-size="13" font-weight="bold" lengthAdjust="spacing" textLength="9" x="50" y="144.6606">1</text><text fill="#000000" font-family="sans-serif" font-size="13" lengthAdjust="spacing" textLength="168" x="63" y="144.6606">asks to create new project</text><polygon fill="#181818" points="51.5,174.8594,41.5,178.8594,51.5,182.8594,47.5,178.8594" style="stroke:#181818;stroke-width:1.0;"/><line style="stroke:#181818;stroke-width:1.0;" x1="45.5" x2="239.5" y1="178.8594" y2="178.8594"/><text fill="#000000" font-family="sans-serif" font-size="13" font-weight="bold" lengthAdjust="spacing" textLength="9" x="62" y="173.7935">2</text><text fill="#000000" font-family="sans-serif" font-size="13" lengthAdjust="spacing" textLength="144" x="75" y="173.7935">asks for project details</text><polygon fill="#181818" points="228.5,203.9922,238.5,207.9922,228.5,211.9922,232.5,207.9922" style="stroke:#181818;stroke-width:1.0;"/><line style="stroke:#181818;stroke-width:1.0;" x1="40.5" x2="234.5" y1="207.9922" y2="207.9922"/><text fill="#000000" font-family="sans-serif" font-size="13" font-weight="bold" lengthAdjust="spacing" textLength="9" x="65.5" y="202.9263">3</text><text fill="#000000" font-family="sans-serif" font-size="13" lengthAdjust="spacing" textLength="137" x="78.5" y="202.9263">inserts project details</text><polygon fill="#181818" points="461.5,233.125,471.5,237.125,461.5,241.125,465.5,237.125" style="stroke:#181818;stroke-width:1.0;"/><line style="stroke:#181818;stroke-width:1.0;" x1="250.5" x2="467.5" y1="237.125" y2="237.125"/><text fill="#000000" font-family="sans-serif" font-size="13" font-weight="bold" lengthAdjust="spacing" textLength="9" x="260" y="232.0591">4</text><text fill="#000000" font-family="sans-serif" font-size="13" lengthAdjust="spacing" textLength="191" x="273" y="232.0591">createProject(newProjectDTO)</text><polygon fill="#181818" points="694.5,262.2578,704.5,266.2578,694.5,270.2578,698.5,266.2578" style="stroke:#181818;stroke-width:1.0;"/><line style="stroke:#181818;stroke-width:1.0;" x1="483.5" x2="700.5" y1="266.2578" y2="266.2578"/><text fill="#000000" font-family="sans-serif" font-size="13" font-weight="bold" lengthAdjust="spacing" textLength="9" x="493" y="261.1919">5</text><text fill="#000000" font-family="sans-serif" font-size="13" lengthAdjust="spacing" textLength="191" x="506" y="261.1919">createProject(newProjectDTO)</text><polygon fill="#181818" points="1089.5,291.3906,1099.5,295.3906,1089.5,299.3906,1093.5,295.3906" style="stroke:#181818;stroke-width:1.0;"/><line style="stroke:#181818;stroke-width:1.0;" x1="716.5" x2="1095.5" y1="295.3906" y2="295.3906"/><text fill="#000000" font-family="sans-serif" font-size="13" font-weight="bold" lengthAdjust="spacing" textLength="9" x="761.5" y="290.3247">6</text><text fill="#000000" font-family="sans-serif" font-size="13" lengthAdjust="spacing" textLength="282" x="774.5" y="290.3247">existsById(newProjectDTO.getProjectCode())</text><polygon fill="#181818" points="727.5,320.5234,717.5,324.5234,727.5,328.5234,723.5,324.5234" style="stroke:#181818;stroke-width:1.0;"/><line style="stroke:#181818;stroke-width:1.0;stroke-dasharray:2.0,2.0;" x1="721.5" x2="1105.5" y1="324.5234" y2="324.5234"/><text fill="#000000" font-family="sans-serif" font-size="13" font-weight="bold" lengthAdjust="spacing" textLength="9" x="890" y="319.4575">7</text><text fill="#000000" font-family="sans-serif" font-size="13" lengthAdjust="spacing" textLength="30" x="903" y="319.4575">false</text><polygon fill="#181818" points="1089.5,349.6563,1099.5,353.6563,1089.5,357.6563,1093.5,353.6563" style="stroke:#181818;stroke-width:1.0;"/><line style="stroke:#181818;stroke-width:1.0;" x1="716.5" x2="1095.5" y1="353.6563" y2="353.6563"/><text fill="#000000" font-family="sans-serif" font-size="13" font-weight="bold" lengthAdjust="spacing" textLength="9" x="762" y="348.5903">8</text><text fill="#000000" font-family="sans-serif" font-size="13" lengthAdjust="spacing" textLength="281" x="775" y="348.5903">existsById(newProjectDTO.getCustomerID())</text><polygon fill="#181818" points="727.5,378.7891,717.5,382.7891,727.5,386.7891,723.5,382.7891" style="stroke:#181818;stroke-width:1.0;"/><line style="stroke:#181818;stroke-width:1.0;stroke-dasharray:2.0,2.0;" x1="721.5" x2="1105.5" y1="382.7891" y2="382.7891"/><text fill="#000000" font-family="sans-serif" font-size="13" font-weight="bold" lengthAdjust="spacing" textLength="9" x="892" y="377.7231">9</text><text fill="#000000" font-family="sans-serif" font-size="13" lengthAdjust="spacing" textLength="26" x="905" y="377.7231">true</text><polygon fill="#181818" points="1089.5,407.9219,1099.5,411.9219,1089.5,415.9219,1093.5,411.9219" style="stroke:#181818;stroke-width:1.0;"/><line style="stroke:#181818;stroke-width:1.0;" x1="716.5" x2="1095.5" y1="411.9219" y2="411.9219"/><text fill="#000000" font-family="sans-serif" font-size="13" font-weight="bold" lengthAdjust="spacing" textLength="18" x="726.5" y="406.856">10</text><text fill="#000000" font-family="sans-serif" font-size="13" lengthAdjust="spacing" textLength="343" x="748.5" y="406.856">existsById(newProjectDTO.getBusinessSectorName())</text><polygon fill="#181818" points="727.5,437.0547,717.5,441.0547,727.5,445.0547,723.5,441.0547" style="stroke:#181818;stroke-width:1.0;"/><line style="stroke:#181818;stroke-width:1.0;stroke-dasharray:2.0,2.0;" x1="721.5" x2="1105.5" y1="441.0547" y2="441.0547"/><text fill="#000000" font-family="sans-serif" font-size="13" font-weight="bold" lengthAdjust="spacing" textLength="18" x="887.5" y="435.9888">11</text><text fill="#000000" font-family="sans-serif" font-size="13" lengthAdjust="spacing" textLength="26" x="909.5" y="435.9888">true</text><polygon fill="#181818" points="1089.5,466.1875,1099.5,470.1875,1089.5,474.1875,1093.5,470.1875" style="stroke:#181818;stroke-width:1.0;"/><line style="stroke:#181818;stroke-width:1.0;" x1="716.5" x2="1095.5" y1="470.1875" y2="470.1875"/><text fill="#000000" font-family="sans-serif" font-size="13" font-weight="bold" lengthAdjust="spacing" textLength="18" x="726" y="465.1216">12</text><text fill="#000000" font-family="sans-serif" font-size="13" lengthAdjust="spacing" textLength="344" x="748" y="465.1216">existsById(newProjectDTO.getProjectTypologyName())</text><polygon fill="#181818" points="727.5,495.3203,717.5,499.3203,727.5,503.3203,723.5,499.3203" style="stroke:#181818;stroke-width:1.0;"/><line style="stroke:#181818;stroke-width:1.0;stroke-dasharray:2.0,2.0;" x1="721.5" x2="1105.5" y1="499.3203" y2="499.3203"/><text fill="#000000" font-family="sans-serif" font-size="13" font-weight="bold" lengthAdjust="spacing" textLength="18" x="887.5" y="494.2544">13</text><text fill="#000000" font-family="sans-serif" font-size="13" lengthAdjust="spacing" textLength="26" x="909.5" y="494.2544">true</text><polygon fill="#181818" points="1259.5,524.4531,1269.5,528.4531,1259.5,532.4531,1263.5,528.4531" style="stroke:#181818;stroke-width:1.0;"/><line style="stroke:#181818;stroke-width:1.0;" x1="716.5" x2="1265.5" y1="528.4531" y2="528.4531"/><text fill="#000000" font-family="sans-serif" font-size="13" font-weight="bold" lengthAdjust="spacing" textLength="18" x="814.5" y="523.3872">14</text><text fill="#000000" font-family="sans-serif" font-size="13" lengthAdjust="spacing" textLength="337" x="836.5" y="523.3872">createDomainObject(projectFactory, newProjectDTO)</text><polygon fill="#181818" points="1696.5,583.8516,1706.5,587.8516,1696.5,591.8516,1700.5,587.8516" style="stroke:#181818;stroke-width:1.0;"/><line style="stroke:#181818;stroke-width:1.0;" x1="1281.5" x2="1702.5" y1="587.8516" y2="587.8516"/><text fill="#000000" font-family="sans-serif" font-size="13" font-weight="bold" lengthAdjust="spacing" textLength="18" x="1291" y="567.6528">15</text><text fill="#000000" font-family="sans-serif" font-size="13" lengthAdjust="spacing" textLength="386" x="1313" y="552.52">createProject(projectCode, projectName, projectDescription,</text><text fill="#000000" font-family="sans-serif" font-size="13" lengthAdjust="spacing" textLength="370" x="1323" y="567.6528">customerID, businessSectorName, projectTypologyName,</text><text fill="#000000" font-family="sans-serif" font-size="13" lengthAdjust="spacing" textLength="365" x="1325.5" y="582.7856">sprintDuration, numberOfPlannedSprints, budget, period)</text><polygon fill="#181818" points="1803.5,612.9844,1813.5,616.9844,1803.5,620.9844,1807.5,616.9844" style="stroke:#181818;stroke-width:1.0;"/><line style="stroke:#181818;stroke-width:1.0;" x1="1718.5" x2="1809.5" y1="616.9844" y2="616.9844"/><text fill="#000000" font-family="sans-serif" font-size="13" font-weight="bold" lengthAdjust="spacing" textLength="18" x="1730.5" y="611.9185">16</text><text fill="#000000" font-family="sans-serif" font-size="13" lengthAdjust="spacing" textLength="51" x="1752.5" y="611.9185">create()</text><rect fill="#FFFFFF" height="46.5938" rx="2.5" ry="2.5" style="stroke:#181818;stroke-width:0.5;" width="128" x="1815.5" y="595.8516"/><text fill="#000000" font-family="sans-serif" font-size="14" lengthAdjust="spacing" textLength="109" x="1825" y="615.8467">productBacklog</text><text fill="#000000" font-family="sans-serif" font-size="14" lengthAdjust="spacing" textLength="114" x="1822.5" y="632.1436">:ProductBacklog</text><polygon fill="#181818" points="2176.5,700.8438,2186.5,704.8438,2176.5,708.8438,2180.5,704.8438" style="stroke:#181818;stroke-width:1.0;"/><line style="stroke:#181818;stroke-width:1.0;" x1="1718.5" x2="2182.5" y1="704.8438" y2="704.8438"/><text fill="#000000" font-family="sans-serif" font-size="13" font-weight="bold" lengthAdjust="spacing" textLength="18" x="1730.5" y="684.645">17</text><text fill="#000000" font-family="sans-serif" font-size="13" lengthAdjust="spacing" textLength="424" x="1752.5" y="669.5122">create(projectCode, projectName, projectDescription, customerID,</text><text fill="#000000" font-family="sans-serif" font-size="13" lengthAdjust="spacing" textLength="369" x="1782" y="684.645">businessSectorID, projectTypologyName, productBacklog,</text><text fill="#000000" font-family="sans-serif" font-size="13" lengthAdjust="spacing" textLength="230" x="1851.5" y="699.7778">projectStatus, projectStatusHistory)</text><rect fill="#FFFFFF" height="62.8906" rx="2.5" ry="2.5" style="stroke:#181818;stroke-width:0.5;" width="70" x="2188.5" y="653.4453"/><text fill="#000000" font-family="sans-serif" font-size="14" lengthAdjust="spacing" textLength="56" x="2195.5" y="673.4404">&#171;Entity&#187;</text><text fill="#000000" font-family="sans-serif" font-size="14" lengthAdjust="spacing" textLength="48" x="2199.5" y="689.7373">project</text><text fill="#000000" font-family="sans-serif" font-size="14" lengthAdjust="spacing" textLength="53" x="2197" y="706.0342">:Project</text><polygon fill="#181818" points="2206.5,744.4688,2216.5,748.4688,2206.5,752.4688,2210.5,748.4688" style="stroke:#181818;stroke-width:1.0;"/><line style="stroke:#181818;stroke-width:1.0;" x1="1718.5" x2="2212.5" y1="748.4688" y2="748.4688"/><text fill="#000000" font-family="sans-serif" font-size="13" font-weight="bold" lengthAdjust="spacing" textLength="18" x="1850.5" y="743.4028">18</text><text fill="#000000" font-family="sans-serif" font-size="13" lengthAdjust="spacing" textLength="214" x="1872.5" y="743.4028">setSprintDuration(sprintDuration)</text><polygon fill="#181818" points="2206.5,803.6016,2216.5,807.6016,2206.5,811.6016,2210.5,807.6016" style="stroke:#181818;stroke-width:1.0;"/><line style="stroke:#181818;stroke-width:1.0;" x1="1718.5" x2="2212.5" y1="807.6016" y2="807.6016"/><text fill="#000000" font-family="sans-serif" font-size="13" font-weight="bold" lengthAdjust="spacing" textLength="18" x="1788.5" y="802.5356">19</text><text fill="#000000" font-family="sans-serif" font-size="13" lengthAdjust="spacing" textLength="338" x="1810.5" y="802.5356">setNumberPlannedSprints(numberOfPlannedSprints)</text><polygon fill="#181818" points="2206.5,862.7344,2216.5,866.7344,2206.5,870.7344,2210.5,866.7344" style="stroke:#181818;stroke-width:1.0;"/><line style="stroke:#181818;stroke-width:1.0;" x1="1718.5" x2="2212.5" y1="866.7344" y2="866.7344"/><text fill="#000000" font-family="sans-serif" font-size="13" font-weight="bold" lengthAdjust="spacing" textLength="18" x="1897" y="861.6685">20</text><text fill="#000000" font-family="sans-serif" font-size="13" lengthAdjust="spacing" textLength="121" x="1919" y="861.6685">setBudget(budget)</text><polygon fill="#181818" points="2206.5,921.8672,2216.5,925.8672,2206.5,929.8672,2210.5,925.8672" style="stroke:#181818;stroke-width:1.0;"/><line style="stroke:#181818;stroke-width:1.0;" x1="1718.5" x2="2212.5" y1="925.8672" y2="925.8672"/><text fill="#000000" font-family="sans-serif" font-size="13" font-weight="bold" lengthAdjust="spacing" textLength="18" x="1902.5" y="920.8013">21</text><text fill="#000000" font-family="sans-serif" font-size="13" lengthAdjust="spacing" textLength="110" x="1924.5" y="920.8013">setPeriod(period)</text><polygon fill="#181818" points="1292.5,981,1282.5,985,1292.5,989,1288.5,985" style="stroke:#181818;stroke-width:1.0;"/><line style="stroke:#181818;stroke-width:1.0;stroke-dasharray:2.0,2.0;" x1="1286.5" x2="1712.5" y1="985" y2="985"/><text fill="#000000" font-family="sans-serif" font-size="13" font-weight="bold" lengthAdjust="spacing" textLength="18" x="1464.5" y="979.9341">22</text><text fill="#000000" font-family="sans-serif" font-size="13" lengthAdjust="spacing" textLength="44" x="1486.5" y="979.9341">project</text><polygon fill="#181818" points="727.5,1010.1328,717.5,1014.1328,727.5,1018.1328,723.5,1014.1328" style="stroke:#181818;stroke-width:1.0;"/><line style="stroke:#181818;stroke-width:1.0;stroke-dasharray:2.0,2.0;" x1="721.5" x2="1275.5" y1="1014.1328" y2="1014.1328"/><text fill="#000000" font-family="sans-serif" font-size="13" font-weight="bold" lengthAdjust="spacing" textLength="18" x="963.5" y="1009.0669">23</text><text fill="#000000" font-family="sans-serif" font-size="13" lengthAdjust="spacing" textLength="44" x="985.5" y="1009.0669">project</text><polygon fill="#181818" points="1089.5,1039.2656,1099.5,1043.2656,1089.5,1047.2656,1093.5,1043.2656" style="stroke:#181818;stroke-width:1.0;"/><line style="stroke:#181818;stroke-width:1.0;" x1="716.5" x2="1095.5" y1="1043.2656" y2="1043.2656"/><text fill="#000000" font-family="sans-serif" font-size="13" font-weight="bold" lengthAdjust="spacing" textLength="18" x="856" y="1038.1997">24</text><text fill="#000000" font-family="sans-serif" font-size="13" lengthAdjust="spacing" textLength="84" x="878" y="1038.1997">save(project)</text><polygon fill="#181818" points="2364,1068.3984,2374,1072.3984,2364,1076.3984,2368,1072.3984" style="stroke:#181818;stroke-width:1.0;"/><line style="stroke:#181818;stroke-width:1.0;" x1="1111.5" x2="2370" y1="1072.3984" y2="1072.3984"/><text fill="#000000" font-family="sans-serif" font-size="13" font-weight="bold" lengthAdjust="spacing" textLength="18" x="1683.75" y="1067.3325">25</text><text fill="#000000" font-family="sans-serif" font-size="13" lengthAdjust="spacing" textLength="98" x="1705.75" y="1067.3325">toData(project)</text><polygon fill="#181818" points="1122.5,1097.5313,1112.5,1101.5313,1122.5,1105.5313,1118.5,1101.5313" style="stroke:#181818;stroke-width:1.0;"/><line style="stroke:#181818;stroke-width:1.0;stroke-dasharray:2.0,2.0;" x1="1116.5" x2="2380" y1="1101.5313" y2="1101.5313"/><text fill="#000000" font-family="sans-serif" font-size="13" font-weight="bold" lengthAdjust="spacing" textLength="18" x="1703.25" y="1096.4653">26</text><text fill="#000000" font-family="sans-serif" font-size="13" lengthAdjust="spacing" textLength="64" x="1725.25" y="1096.4653">projectJPA</text><polygon fill="#181818" points="2567.5,1126.6641,2577.5,1130.6641,2567.5,1134.6641,2571.5,1130.6641" style="stroke:#181818;stroke-width:1.0;"/><line style="stroke:#181818;stroke-width:1.0;" x1="1111.5" x2="2573.5" y1="1130.6641" y2="1130.6641"/><text fill="#000000" font-family="sans-serif" font-size="13" font-weight="bold" lengthAdjust="spacing" textLength="18" x="1782.5" y="1125.5981">27</text><text fill="#000000" font-family="sans-serif" font-size="13" lengthAdjust="spacing" textLength="104" x="1804.5" y="1125.5981">save(projectJPA)</text><polygon fill="#181818" points="1122.5,1155.7969,1112.5,1159.7969,1122.5,1163.7969,1118.5,1159.7969" style="stroke:#181818;stroke-width:1.0;"/><line style="stroke:#181818;stroke-width:1.0;stroke-dasharray:2.0,2.0;" x1="1116.5" x2="2583.5" y1="1159.7969" y2="1159.7969"/><text fill="#000000" font-family="sans-serif" font-size="13" font-weight="bold" lengthAdjust="spacing" textLength="18" x="1805" y="1154.731">28</text><text fill="#000000" font-family="sans-serif" font-size="13" lengthAdjust="spacing" textLength="64" x="1827" y="1154.731">projectJPA</text><polygon fill="#181818" points="2364,1184.9297,2374,1188.9297,2364,1192.9297,2368,1188.9297" style="stroke:#181818;stroke-width:1.0;"/><line style="stroke:#181818;stroke-width:1.0;" x1="1111.5" x2="2370" y1="1188.9297" y2="1188.9297"/><text fill="#000000" font-family="sans-serif" font-size="13" font-weight="bold" lengthAdjust="spacing" textLength="18" x="1664.25" y="1183.8638">29</text><text fill="#000000" font-family="sans-serif" font-size="13" lengthAdjust="spacing" textLength="137" x="1686.25" y="1183.8638">toDomain(projectJPA)</text><polygon fill="#181818" points="1122.5,1214.0625,1112.5,1218.0625,1122.5,1222.0625,1118.5,1218.0625" style="stroke:#181818;stroke-width:1.0;"/><line style="stroke:#181818;stroke-width:1.0;stroke-dasharray:2.0,2.0;" x1="1116.5" x2="2380" y1="1218.0625" y2="1218.0625"/><text fill="#000000" font-family="sans-serif" font-size="13" font-weight="bold" lengthAdjust="spacing" textLength="18" x="1713.25" y="1212.9966">30</text><text fill="#000000" font-family="sans-serif" font-size="13" lengthAdjust="spacing" textLength="44" x="1735.25" y="1212.9966">project</text><polygon fill="#181818" points="727.5,1243.1953,717.5,1247.1953,727.5,1251.1953,723.5,1247.1953" style="stroke:#181818;stroke-width:1.0;"/><line style="stroke:#181818;stroke-width:1.0;stroke-dasharray:2.0,2.0;" x1="721.5" x2="1105.5" y1="1247.1953" y2="1247.1953"/><text fill="#000000" font-family="sans-serif" font-size="13" font-weight="bold" lengthAdjust="spacing" textLength="18" x="878.5" y="1242.1294">31</text><text fill="#000000" font-family="sans-serif" font-size="13" lengthAdjust="spacing" textLength="44" x="900.5" y="1242.1294">project</text><polygon fill="#181818" points="2752.5,1272.3281,2762.5,1276.3281,2752.5,1280.3281,2756.5,1276.3281" style="stroke:#181818;stroke-width:1.0;"/><line style="stroke:#181818;stroke-width:1.0;" x1="716.5" x2="2758.5" y1="1276.3281" y2="1276.3281"/><text fill="#000000" font-family="sans-serif" font-size="13" font-weight="bold" lengthAdjust="spacing" textLength="18" x="1660" y="1271.2622">32</text><text fill="#000000" font-family="sans-serif" font-size="13" lengthAdjust="spacing" textLength="139" x="1682" y="1271.2622">generateDTO(project)</text><polygon fill="#181818" points="727.5,1301.4609,717.5,1305.4609,727.5,1309.4609,723.5,1305.4609" style="stroke:#181818;stroke-width:1.0;"/><line style="stroke:#181818;stroke-width:1.0;stroke-dasharray:2.0,2.0;" x1="721.5" x2="2768.5" y1="1305.4609" y2="1305.4609"/><text fill="#000000" font-family="sans-serif" font-size="13" font-weight="bold" lengthAdjust="spacing" textLength="18" x="1696.5" y="1300.395">33</text><text fill="#000000" font-family="sans-serif" font-size="13" lengthAdjust="spacing" textLength="71" x="1718.5" y="1300.395">projectDTO</text><polygon fill="#181818" points="494.5,1330.5938,484.5,1334.5938,494.5,1338.5938,490.5,1334.5938" style="stroke:#181818;stroke-width:1.0;"/><line style="stroke:#181818;stroke-width:1.0;stroke-dasharray:2.0,2.0;" x1="488.5" x2="710.5" y1="1334.5938" y2="1334.5938"/><text fill="#000000" font-family="sans-serif" font-size="13" font-weight="bold" lengthAdjust="spacing" textLength="18" x="551" y="1329.5278">34</text><text fill="#000000" font-family="sans-serif" font-size="13" lengthAdjust="spacing" textLength="71" x="573" y="1329.5278">projectDTO</text><polygon fill="#181818" points="261.5,1359.7266,251.5,1363.7266,261.5,1367.7266,257.5,1363.7266" style="stroke:#181818;stroke-width:1.0;"/><line style="stroke:#181818;stroke-width:1.0;stroke-dasharray:2.0,2.0;" x1="255.5" x2="477.5" y1="1363.7266" y2="1363.7266"/><text fill="#000000" font-family="sans-serif" font-size="13" font-weight="bold" lengthAdjust="spacing" textLength="18" x="318" y="1358.6606">35</text><text fill="#000000" font-family="sans-serif" font-size="13" lengthAdjust="spacing" textLength="71" x="340" y="1358.6606">projectDTO</text><polygon fill="#181818" points="51.5,1388.8594,41.5,1392.8594,51.5,1396.8594,47.5,1392.8594" style="stroke:#181818;stroke-width:1.0;"/><line style="stroke:#181818;stroke-width:1.0;stroke-dasharray:2.0,2.0;" x1="45.5" x2="244.5" y1="1392.8594" y2="1392.8594"/><text fill="#000000" font-family="sans-serif" font-size="13" font-weight="bold" lengthAdjust="spacing" textLength="18" x="99" y="1387.7935">36</text><text fill="#000000" font-family="sans-serif" font-size="13" lengthAdjust="spacing" textLength="66" x="121" y="1387.7935">successful</text><!--SRC=[jLPDSzem4BtxLsXo8XD8qol3CCD7sz0P0XFWbekm5rUDaLn9Jig_xqeMjcMR9AI93nvBUcztzVGaMJqodb99zqJ1dmnu27DGYiOmIbZCIGXSWmnKWQAX5d9CmyTOYen74v48IPv_CGqL4Bur2rbAkNuDUinw3pkGvkDimYtG2EHRQJyGaxQ30vffmRFz5YSSQAOJ89lLpTSRqYCZHUQKeogoIsRa6UT5j20IOgPGdY-X1Ag1KCBXcQHI_8PGOpWZ5RdeE-O5eKMKeA8G8YQMlyo9cvb5RcO-Q32O2AwbI1AGm-43xpjusMjfPRDENu5yOY5KkQxB4jrtdJKpwx-ZEMymk8TKA8RpEjWuPNCmYkFhUo4q2XGDRSHoi1vqkbvKovZJD2tqCPy-tWdwtUfvA6ckm_BSTuCOPQ6rO2BYd5Zfi4I_grxeDuu-i5DrHPJPZsoxrlNvKKtd8eAaEikfs5F6pT18ATXlZojMjCwJtaKjUtykHpNPiUUKyejCfvbsCKxKWzWWS8OblI4wykggZuX7PSplF5zr_14xw27M8NUu1TmuYK1JbYW_Pfymha1grO0519_DpC1ALviImkfswM05HuNNYykSPPwIOo8uUx-TRXv7ClnILHC2_kB6L-F3BFBvrp7eObz6qBcyzE99q9daP4SJ1H-GQP8fBVOWPzCJYRJCFYBFE5ECuwsm0hF9xkWUFZUVQwqFAPxEyU6z2VEpf5pnV0CkjdRP_KEbIses8BKdZsMYEaRJI6cvxjsZbqtfHMCAAfGirKpmxWDUhSNgTScseN31ggfWQ2gLZEjf9gaDHF8BQx5R9fHpY5PsM9cG4Kg9OK0o4JLdP1wtXsjdO1lIpTe8uAEFAdHgMwUPmXuHhySsi2BeMPfM5KMXV4sDocsA4l-IC4G7MscgCzNrcxVeMgprn6IRCp4sKQ1Ntg9r_3LiNvi8C1XxgeftNiuxQmpV5frsjtnI1MDhmKxkn4_AiRJsxhpayhVaSET9sZR-qjZ9yqtHfyA-pR9Ah64MDwuXQc5-4KvJ_MhC5VzoSEzte5uPTlr_XdhvzfWz8yDxnAx-f9YqCN2GvenVBzgby-FQNvjNXbgwNPVAmX0FbbsM1Fy0]--></g></svg>