<?xml version="1.0" encoding="us-ascii" standalone="no"?><svg xmlns="http://www.w3.org/2000/svg" xmlns:xlink="http://www.w3.org/1999/xlink" contentStyleType="text/css" height="469px" preserveAspectRatio="none" style="width:1063px;height:469px;background:#FFFFFF;" version="1.1" viewBox="0 0 1063 469" width="1063px" zoomAndPan="magnify"><defs/><g><rect fill="none" height="116.2031" style="stroke:#000000;stroke-width:1.5;" width="441" x="615" y="184.6953"/><line style="stroke:#181818;stroke-width:0.5;stroke-dasharray:5.0,5.0;" x1="462" x2="462" y1="81.2969" y2="389.1641"/><line style="stroke:#181818;stroke-width:0.5;stroke-dasharray:5.0,5.0;" x1="660" x2="660" y1="81.2969" y2="389.1641"/><text fill="#000000" font-family="sans-serif" font-size="14" lengthAdjust="spacing" textLength="32" x="443" y="77.9951">User</text><ellipse cx="462" cy="13.5" fill="#E2E2F0" rx="8" ry="8" style="stroke:#181818;stroke-width:0.5;"/><path d="M462,21.5 L462,48.5 M449,29.5 L475,29.5 M462,48.5 L449,63.5 M462,48.5 L475,63.5 " fill="none" style="stroke:#181818;stroke-width:0.5;"/><text fill="#000000" font-family="sans-serif" font-size="14" lengthAdjust="spacing" textLength="32" x="443" y="401.1592">User</text><ellipse cx="462" cy="412.9609" fill="#E2E2F0" rx="8" ry="8" style="stroke:#181818;stroke-width:0.5;"/><path d="M462,420.9609 L462,447.9609 M449,428.9609 L475,428.9609 M462,447.9609 L449,462.9609 M462,447.9609 L475,462.9609 " fill="none" style="stroke:#181818;stroke-width:0.5;"/><rect fill="#E2E2F0" height="30.2969" rx="2.5" ry="2.5" style="stroke:#181818;stroke-width:0.5;" width="70" x="625" y="50"/><text fill="#000000" font-family="sans-serif" font-size="14" lengthAdjust="spacing" textLength="56" x="632" y="69.9951">:System</text><rect fill="#E2E2F0" height="30.2969" rx="2.5" ry="2.5" style="stroke:#181818;stroke-width:0.5;" width="70" x="625" y="388.1641"/><text fill="#000000" font-family="sans-serif" font-size="14" lengthAdjust="spacing" textLength="56" x="632" y="408.1592">:System</text><line style="stroke:#181818;stroke-width:1.0;" x1="420" x2="462" y1="127.5625" y2="127.5625"/><line style="stroke:#181818;stroke-width:1.0;" x1="420" x2="420" y1="127.5625" y2="140.5625"/><line style="stroke:#181818;stroke-width:1.0;" x1="420" x2="461" y1="140.5625" y2="140.5625"/><polygon fill="#181818" points="453,136.5625,463,140.5625,453,144.5625,457,140.5625" style="stroke:#181818;stroke-width:1.0;"/><text fill="#000000" font-family="sans-serif" font-size="13" font-weight="bold" lengthAdjust="spacing" textLength="9" x="14" y="114.9302">1</text><text fill="#000000" font-family="sans-serif" font-size="13" lengthAdjust="spacing" textLength="435" x="27" y="107.3638">selects filters(startDate, endDate, cost per hour of user,list of users,</text><text fill="#000000" font-family="sans-serif" font-size="13" lengthAdjust="spacing" textLength="288" x="102.5" y="122.4966">list of projects, percentage allocation of user)</text><polygon fill="#181818" points="648,165.6953,658,169.6953,648,173.6953,652,169.6953" style="stroke:#181818;stroke-width:1.0;"/><line style="stroke:#181818;stroke-width:1.0;" x1="462" x2="654" y1="169.6953" y2="169.6953"/><text fill="#000000" font-family="sans-serif" font-size="13" font-weight="bold" lengthAdjust="spacing" textLength="9" x="479" y="164.6294">2</text><text fill="#000000" font-family="sans-serif" font-size="13" lengthAdjust="spacing" textLength="151" x="492" y="164.6294">ask for allocation report</text><path d="M615,184.6953 L679,184.6953 L679,191.8281 L669,201.8281 L615,201.8281 L615,184.6953 " fill="#EEEEEE" style="stroke:#000000;stroke-width:1.5;"/><rect fill="none" height="116.2031" style="stroke:#000000;stroke-width:1.5;" width="441" x="615" y="184.6953"/><text fill="#000000" font-family="sans-serif" font-size="13" font-weight="bold" lengthAdjust="spacing" textLength="19" x="630" y="197.7622">alt</text><text fill="#000000" font-family="sans-serif" font-size="11" font-weight="bold" lengthAdjust="spacing" textLength="85" x="694" y="196.9058">[User profile]</text><line style="stroke:#181818;stroke-width:1.0;stroke-dasharray:2.0,2.0;" x1="660" x2="702" y1="222.9609" y2="222.9609"/><line style="stroke:#181818;stroke-width:1.0;stroke-dasharray:2.0,2.0;" x1="702" x2="702" y1="222.9609" y2="235.9609"/><line style="stroke:#181818;stroke-width:1.0;stroke-dasharray:2.0,2.0;" x1="661" x2="702" y1="235.9609" y2="235.9609"/><polygon fill="#181818" points="671,231.9609,661,235.9609,671,239.9609,667,235.9609" style="stroke:#181818;stroke-width:1.0;"/><text fill="#000000" font-family="sans-serif" font-size="13" font-weight="bold" lengthAdjust="spacing" textLength="9" x="667" y="217.895">3</text><text fill="#000000" font-family="sans-serif" font-size="13" lengthAdjust="spacing" textLength="243" x="680" y="217.895">validates only self data was requested</text><line style="stroke:#000000;stroke-width:1.0;stroke-dasharray:2.0,2.0;" x1="615" x2="1056" y1="244.9609" y2="244.9609"/><text fill="#000000" font-family="sans-serif" font-size="11" font-weight="bold" lengthAdjust="spacing" textLength="214" x="620" y="255.1714">[Project Manager, PO, SM profile]</text><line style="stroke:#181818;stroke-width:1.0;stroke-dasharray:2.0,2.0;" x1="660" x2="702" y1="279.8984" y2="279.8984"/><line style="stroke:#181818;stroke-width:1.0;stroke-dasharray:2.0,2.0;" x1="702" x2="702" y1="279.8984" y2="292.8984"/><line style="stroke:#181818;stroke-width:1.0;stroke-dasharray:2.0,2.0;" x1="661" x2="702" y1="292.8984" y2="292.8984"/><polygon fill="#181818" points="671,288.8984,661,292.8984,671,296.8984,667,292.8984" style="stroke:#181818;stroke-width:1.0;"/><text fill="#000000" font-family="sans-serif" font-size="13" font-weight="bold" lengthAdjust="spacing" textLength="9" x="667" y="274.8325">4</text><text fill="#000000" font-family="sans-serif" font-size="13" lengthAdjust="spacing" textLength="364" x="680" y="274.8325">validates user has permissions to access requested data</text><line style="stroke:#181818;stroke-width:1.0;stroke-dasharray:2.0,2.0;" x1="660" x2="702" y1="329.0313" y2="329.0313"/><line style="stroke:#181818;stroke-width:1.0;stroke-dasharray:2.0,2.0;" x1="702" x2="702" y1="329.0313" y2="342.0313"/><line style="stroke:#181818;stroke-width:1.0;stroke-dasharray:2.0,2.0;" x1="661" x2="702" y1="342.0313" y2="342.0313"/><polygon fill="#181818" points="671,338.0313,661,342.0313,671,346.0313,667,342.0313" style="stroke:#181818;stroke-width:1.0;"/><text fill="#000000" font-family="sans-serif" font-size="13" font-weight="bold" lengthAdjust="spacing" textLength="9" x="667" y="323.9653">5</text><text fill="#000000" font-family="sans-serif" font-size="13" lengthAdjust="spacing" textLength="108" x="680" y="323.9653">generates report</text><polygon fill="#181818" points="473,367.1641,463,371.1641,473,375.1641,469,371.1641" style="stroke:#181818;stroke-width:1.0;"/><line style="stroke:#181818;stroke-width:1.0;stroke-dasharray:2.0,2.0;" x1="467" x2="659" y1="371.1641" y2="371.1641"/><text fill="#000000" font-family="sans-serif" font-size="13" font-weight="bold" lengthAdjust="spacing" textLength="9" x="474" y="366.0981">6</text><text fill="#000000" font-family="sans-serif" font-size="13" lengthAdjust="spacing" textLength="161" x="487" y="366.0981">returns allocations report</text><!--SRC=[ZLBBRjim4BppAnOvsO0Ks77Hfa9Hz66tW6iXHcsdbruOQYMpePOg7ovyouUqFvSlwTAounnww6r9pipExj3VQ-gaaosiy6T4KbYYzxB1zqOt10efe1Co1aknlKkb2jR1uyFlZKVt-F07f8TK2bO9MkbEKe2BOhNt0TkBzDgNGYGKlCaFw08y6bJ1GwqDT_037vW_bG4pGAhwGbaVe6FMraO7jeR8rCnelZqUVFQTu7JHEViZQMQ9avpp622DiKe6RUd46VPEyhT7PmMRl8UQftg6TTXP5uGquU0tQRDJ53q5ycVidJIwOhyUB9bz6gm6FalunSExj5N6LGADHrZs5g6KnEPS1ikR35Rb_yadyx1bKHwlrTwpJm_1WbIACpktEdGNlCL_oJL8w0vonn6FiUHF28SXEbO-R-C9AzwnQkGibuPZtfGBs746QL_ZowlHrUHoCbXl8q_dOFGQng-AoQWONyEtsHhIyr0CFYyNu3bDXL1nR4xVnTHXAEPo9-5hfA1RBE2cGvfFlvmkO4OxxIor7AgOtvPdmCiN-GST-FCwTWAtfPXYBIEdDYDbAqrD0Plrf_nQB2GraNTUyFSI7othkZs_hVu2]--></g></svg>