<?xml version="1.0" encoding="us-ascii" standalone="no"?><svg xmlns="http://www.w3.org/2000/svg" xmlns:xlink="http://www.w3.org/1999/xlink" contentStyleType="text/css" height="624px" preserveAspectRatio="none" style="width:853px;height:624px;background:#FFFFFF;" version="1.1" viewBox="0 0 853 624" width="853px" zoomAndPan="magnify"><defs/><g><line style="stroke:#181818;stroke-width:0.5;stroke-dasharray:5.0,5.0;" x1="187" x2="187" y1="81.2969" y2="544.0234"/><line style="stroke:#181818;stroke-width:0.5;stroke-dasharray:5.0,5.0;" x1="634" x2="634" y1="81.2969" y2="544.0234"/><text fill="#000000" font-family="sans-serif" font-size="14" lengthAdjust="spacing" textLength="60" x="154" y="77.9951">Manager</text><ellipse cx="187" cy="13.5" fill="#E2E2F0" rx="8" ry="8" style="stroke:#181818;stroke-width:0.5;"/><path d="M187,21.5 L187,48.5 M174,29.5 L200,29.5 M187,48.5 L174,63.5 M187,48.5 L200,63.5 " fill="none" style="stroke:#181818;stroke-width:0.5;"/><text fill="#000000" font-family="sans-serif" font-size="14" lengthAdjust="spacing" textLength="60" x="154" y="556.0186">Manager</text><ellipse cx="187" cy="567.8203" fill="#E2E2F0" rx="8" ry="8" style="stroke:#181818;stroke-width:0.5;"/><path d="M187,575.8203 L187,602.8203 M174,583.8203 L200,583.8203 M187,602.8203 L174,617.8203 M187,602.8203 L200,617.8203 " fill="none" style="stroke:#181818;stroke-width:0.5;"/><rect fill="#E2E2F0" height="30.2969" rx="2.5" ry="2.5" style="stroke:#181818;stroke-width:0.5;" width="70" x="599" y="50"/><text fill="#000000" font-family="sans-serif" font-size="14" lengthAdjust="spacing" textLength="56" x="606" y="69.9951">:System</text><rect fill="#E2E2F0" height="30.2969" rx="2.5" ry="2.5" style="stroke:#181818;stroke-width:0.5;" width="70" x="599" y="543.0234"/><text fill="#000000" font-family="sans-serif" font-size="14" lengthAdjust="spacing" textLength="56" x="606" y="563.0186">:System</text><polygon fill="#181818" points="622,108.4297,632,112.4297,622,116.4297,626,112.4297" style="stroke:#181818;stroke-width:1.0;"/><line style="stroke:#181818;stroke-width:1.0;" x1="187" x2="628" y1="112.4297" y2="112.4297"/><text fill="#000000" font-family="sans-serif" font-size="13" font-weight="bold" lengthAdjust="spacing" textLength="9" x="334.5" y="107.3638">1</text><text fill="#000000" font-family="sans-serif" font-size="13" lengthAdjust="spacing" textLength="139" x="347.5" y="107.3638">asks for a list of users</text><line style="stroke:#181818;stroke-width:1.0;stroke-dasharray:2.0,2.0;" x1="634" x2="676" y1="141.5625" y2="141.5625"/><line style="stroke:#181818;stroke-width:1.0;stroke-dasharray:2.0,2.0;" x1="676" x2="676" y1="141.5625" y2="154.5625"/><line style="stroke:#181818;stroke-width:1.0;stroke-dasharray:2.0,2.0;" x1="635" x2="676" y1="154.5625" y2="154.5625"/><polygon fill="#181818" points="645,150.5625,635,154.5625,645,158.5625,641,154.5625" style="stroke:#181818;stroke-width:1.0;"/><text fill="#000000" font-family="sans-serif" font-size="13" font-weight="bold" lengthAdjust="spacing" textLength="9" x="641" y="136.4966">2</text><text fill="#000000" font-family="sans-serif" font-size="13" lengthAdjust="spacing" textLength="100" x="654" y="136.4966">validates profile</text><polygon fill="#181818" points="198,179.6953,188,183.6953,198,187.6953,194,183.6953" style="stroke:#181818;stroke-width:1.0;"/><line style="stroke:#181818;stroke-width:1.0;stroke-dasharray:2.0,2.0;" x1="192" x2="633" y1="183.6953" y2="183.6953"/><text fill="#000000" font-family="sans-serif" font-size="13" font-weight="bold" lengthAdjust="spacing" textLength="9" x="342.5" y="178.6294">3</text><text fill="#000000" font-family="sans-serif" font-size="13" lengthAdjust="spacing" textLength="123" x="355.5" y="178.6294">returns list of users</text><line style="stroke:#181818;stroke-width:1.0;" x1="145" x2="187" y1="212.8281" y2="212.8281"/><line style="stroke:#181818;stroke-width:1.0;" x1="145" x2="145" y1="212.8281" y2="225.8281"/><line style="stroke:#181818;stroke-width:1.0;" x1="145" x2="186" y1="225.8281" y2="225.8281"/><polygon fill="#181818" points="178,221.8281,188,225.8281,178,229.8281,182,225.8281" style="stroke:#181818;stroke-width:1.0;"/><text fill="#000000" font-family="sans-serif" font-size="13" font-weight="bold" lengthAdjust="spacing" textLength="9" x="14" y="207.7622">4</text><text fill="#000000" font-family="sans-serif" font-size="13" lengthAdjust="spacing" textLength="160" x="27" y="207.7622">selects a user to allocate</text><polygon fill="#181818" points="622,250.9609,632,254.9609,622,258.9609,626,254.9609" style="stroke:#181818;stroke-width:1.0;"/><line style="stroke:#181818;stroke-width:1.0;" x1="187" x2="628" y1="254.9609" y2="254.9609"/><text fill="#000000" font-family="sans-serif" font-size="13" font-weight="bold" lengthAdjust="spacing" textLength="9" x="326.5" y="249.895">5</text><text fill="#000000" font-family="sans-serif" font-size="13" lengthAdjust="spacing" textLength="155" x="339.5" y="249.895">asks for a list of projects</text><line style="stroke:#181818;stroke-width:1.0;stroke-dasharray:2.0,2.0;" x1="634" x2="676" y1="284.0938" y2="284.0938"/><line style="stroke:#181818;stroke-width:1.0;stroke-dasharray:2.0,2.0;" x1="676" x2="676" y1="284.0938" y2="297.0938"/><line style="stroke:#181818;stroke-width:1.0;stroke-dasharray:2.0,2.0;" x1="635" x2="676" y1="297.0938" y2="297.0938"/><polygon fill="#181818" points="645,293.0938,635,297.0938,645,301.0938,641,297.0938" style="stroke:#181818;stroke-width:1.0;"/><text fill="#000000" font-family="sans-serif" font-size="13" font-weight="bold" lengthAdjust="spacing" textLength="9" x="641" y="279.0278">6</text><text fill="#000000" font-family="sans-serif" font-size="13" lengthAdjust="spacing" textLength="100" x="654" y="279.0278">validates profile</text><polygon fill="#181818" points="198,322.2266,188,326.2266,198,330.2266,194,326.2266" style="stroke:#181818;stroke-width:1.0;"/><line style="stroke:#181818;stroke-width:1.0;stroke-dasharray:2.0,2.0;" x1="192" x2="633" y1="326.2266" y2="326.2266"/><text fill="#000000" font-family="sans-serif" font-size="13" font-weight="bold" lengthAdjust="spacing" textLength="9" x="334.5" y="321.1606">7</text><text fill="#000000" font-family="sans-serif" font-size="13" lengthAdjust="spacing" textLength="139" x="347.5" y="321.1606">returns list of projects</text><line style="stroke:#181818;stroke-width:1.0;" x1="145" x2="187" y1="355.3594" y2="355.3594"/><line style="stroke:#181818;stroke-width:1.0;" x1="145" x2="145" y1="355.3594" y2="368.3594"/><line style="stroke:#181818;stroke-width:1.0;" x1="145" x2="186" y1="368.3594" y2="368.3594"/><polygon fill="#181818" points="178,364.3594,188,368.3594,178,372.3594,182,368.3594" style="stroke:#181818;stroke-width:1.0;"/><text fill="#000000" font-family="sans-serif" font-size="13" font-weight="bold" lengthAdjust="spacing" textLength="9" x="39" y="350.2935">8</text><text fill="#000000" font-family="sans-serif" font-size="13" lengthAdjust="spacing" textLength="135" x="52" y="350.2935">edit allocation details</text><polygon fill="#181818" points="622,408.625,632,412.625,622,416.625,626,412.625" style="stroke:#181818;stroke-width:1.0;"/><line style="stroke:#181818;stroke-width:1.0;" x1="187" x2="628" y1="412.625" y2="412.625"/><text fill="#000000" font-family="sans-serif" font-size="13" font-weight="bold" lengthAdjust="spacing" textLength="9" x="199" y="399.9927">9</text><text fill="#000000" font-family="sans-serif" font-size="13" lengthAdjust="spacing" textLength="406" x="212" y="392.4263">enters user with list of details (startDate, endDate, costPerHour</text><text fill="#000000" font-family="sans-serif" font-size="13" lengthAdjust="spacing" textLength="241" x="298.5" y="407.5591">and percentageAllocation) per project</text><line style="stroke:#181818;stroke-width:1.0;stroke-dasharray:2.0,2.0;" x1="634" x2="676" y1="441.7578" y2="441.7578"/><line style="stroke:#181818;stroke-width:1.0;stroke-dasharray:2.0,2.0;" x1="676" x2="676" y1="441.7578" y2="454.7578"/><line style="stroke:#181818;stroke-width:1.0;stroke-dasharray:2.0,2.0;" x1="635" x2="676" y1="454.7578" y2="454.7578"/><polygon fill="#181818" points="645,450.7578,635,454.7578,645,458.7578,641,454.7578" style="stroke:#181818;stroke-width:1.0;"/><text fill="#000000" font-family="sans-serif" font-size="13" font-weight="bold" lengthAdjust="spacing" textLength="18" x="641" y="436.6919">10</text><text fill="#000000" font-family="sans-serif" font-size="13" lengthAdjust="spacing" textLength="182" x="663" y="436.6919">validates it's Manager profile</text><line style="stroke:#181818;stroke-width:1.0;stroke-dasharray:2.0,2.0;" x1="634" x2="676" y1="483.8906" y2="483.8906"/><line style="stroke:#181818;stroke-width:1.0;stroke-dasharray:2.0,2.0;" x1="676" x2="676" y1="483.8906" y2="496.8906"/><line style="stroke:#181818;stroke-width:1.0;stroke-dasharray:2.0,2.0;" x1="635" x2="676" y1="496.8906" y2="496.8906"/><polygon fill="#181818" points="645,492.8906,635,496.8906,645,500.8906,641,496.8906" style="stroke:#181818;stroke-width:1.0;"/><text fill="#000000" font-family="sans-serif" font-size="13" font-weight="bold" lengthAdjust="spacing" textLength="18" x="641" y="478.8247">11</text><text fill="#000000" font-family="sans-serif" font-size="13" lengthAdjust="spacing" textLength="183" x="663" y="478.8247">validates acceptance criteria</text><polygon fill="#181818" points="198,522.0234,188,526.0234,198,530.0234,194,526.0234" style="stroke:#181818;stroke-width:1.0;"/><line style="stroke:#181818;stroke-width:1.0;stroke-dasharray:2.0,2.0;" x1="192" x2="633" y1="526.0234" y2="526.0234"/><text fill="#000000" font-family="sans-serif" font-size="13" font-weight="bold" lengthAdjust="spacing" textLength="18" x="365.5" y="520.9575">12</text><text fill="#000000" font-family="sans-serif" font-size="13" lengthAdjust="spacing" textLength="68" x="387.5" y="520.9575">returns OK</text><!--SRC=[hL9BJWCn3DtFAQnk08cvm0WX8R50GXL8tR8n6KynpIH3x83OzI1mkPw4fFEXWX5YqPtZFB_t_94Dkmu3jh2YbqZEq994S4rNbjSE33cbK61KxsBxc4EZFi1k-x54bs1Xj_q451XUHU9IDjoXKrXKgtTHQXSPq8T5CG2Xl1nILVhT23I95S6oAFW6eb2GeWT0UO1zHSirAWbqmJTiwH0qS5SGI6DmyeDkbBuelv52benAaiuOK0zehJT9uPzEautdp70yinFZd5-gMKUBx1tKfCXMvipkLoTzNs-iJvF0K0EdecbRrydWUGBNVM2yw3s56ny3F3X0LqD78T_1_YX6uRES7Qt-tJlhoNGVSuFuNO76KAUOZX5CuDG5uy4mogbYdDpTxHS0]--></g></svg>