<?xml version="1.0" encoding="us-ascii" standalone="no"?><svg xmlns="http://www.w3.org/2000/svg" xmlns:xlink="http://www.w3.org/1999/xlink" contentStyleType="text/css" height="567px" preserveAspectRatio="none" style="width:655px;height:567px;background:#FFFFFF;" version="1.1" viewBox="0 0 655 567" width="655px" zoomAndPan="magnify"><defs/><g><line style="stroke:#181818;stroke-width:0.5;stroke-dasharray:5.0,5.0;" x1="244" x2="244" y1="81.2969" y2="486.7578"/><line style="stroke:#181818;stroke-width:0.5;stroke-dasharray:5.0,5.0;" x1="459" x2="459" y1="81.2969" y2="486.7578"/><text fill="#000000" font-family="sans-serif" font-size="14" lengthAdjust="spacing" textLength="60" x="211" y="77.9951">Manager</text><ellipse cx="244" cy="13.5" fill="#E2E2F0" rx="8" ry="8" style="stroke:#181818;stroke-width:0.5;"/><path d="M244,21.5 L244,48.5 M231,29.5 L257,29.5 M244,48.5 L231,63.5 M244,48.5 L257,63.5 " fill="none" style="stroke:#181818;stroke-width:0.5;"/><text fill="#000000" font-family="sans-serif" font-size="14" lengthAdjust="spacing" textLength="60" x="211" y="498.7529">Manager</text><ellipse cx="244" cy="510.5547" fill="#E2E2F0" rx="8" ry="8" style="stroke:#181818;stroke-width:0.5;"/><path d="M244,518.5547 L244,545.5547 M231,526.5547 L257,526.5547 M244,545.5547 L231,560.5547 M244,545.5547 L257,560.5547 " fill="none" style="stroke:#181818;stroke-width:0.5;"/><rect fill="#E2E2F0" height="30.2969" rx="2.5" ry="2.5" style="stroke:#181818;stroke-width:0.5;" width="70" x="424" y="50"/><text fill="#000000" font-family="sans-serif" font-size="14" lengthAdjust="spacing" textLength="56" x="431" y="69.9951">:System</text><rect fill="#E2E2F0" height="30.2969" rx="2.5" ry="2.5" style="stroke:#181818;stroke-width:0.5;" width="70" x="424" y="485.7578"/><text fill="#000000" font-family="sans-serif" font-size="14" lengthAdjust="spacing" textLength="56" x="431" y="505.7529">:System</text><polygon fill="#181818" points="447,108.4297,457,112.4297,447,116.4297,451,112.4297" style="stroke:#181818;stroke-width:1.0;"/><line style="stroke:#181818;stroke-width:1.0;" x1="244" x2="453" y1="112.4297" y2="112.4297"/><text fill="#000000" font-family="sans-serif" font-size="13" font-weight="bold" lengthAdjust="spacing" textLength="9" x="262.5" y="107.3638">1</text><text fill="#000000" font-family="sans-serif" font-size="13" lengthAdjust="spacing" textLength="165" x="275.5" y="107.3638">requests for a list of tasks</text><line style="stroke:#181818;stroke-width:1.0;stroke-dasharray:2.0,2.0;" x1="459" x2="501" y1="141.5625" y2="141.5625"/><line style="stroke:#181818;stroke-width:1.0;stroke-dasharray:2.0,2.0;" x1="501" x2="501" y1="141.5625" y2="154.5625"/><line style="stroke:#181818;stroke-width:1.0;stroke-dasharray:2.0,2.0;" x1="460" x2="501" y1="154.5625" y2="154.5625"/><polygon fill="#181818" points="470,150.5625,460,154.5625,470,158.5625,466,154.5625" style="stroke:#181818;stroke-width:1.0;"/><text fill="#000000" font-family="sans-serif" font-size="13" font-weight="bold" lengthAdjust="spacing" textLength="9" x="466" y="136.4966">2</text><text fill="#000000" font-family="sans-serif" font-size="13" lengthAdjust="spacing" textLength="100" x="479" y="136.4966">validates profile</text><polygon fill="#181818" points="255,179.6953,245,183.6953,255,187.6953,251,183.6953" style="stroke:#181818;stroke-width:1.0;"/><line style="stroke:#181818;stroke-width:1.0;stroke-dasharray:2.0,2.0;" x1="249" x2="458" y1="183.6953" y2="183.6953"/><text fill="#000000" font-family="sans-serif" font-size="13" font-weight="bold" lengthAdjust="spacing" textLength="9" x="284" y="178.6294">3</text><text fill="#000000" font-family="sans-serif" font-size="13" lengthAdjust="spacing" textLength="122" x="297" y="178.6294">returns list of tasks</text><line style="stroke:#181818;stroke-width:1.0;" x1="202" x2="244" y1="212.8281" y2="212.8281"/><line style="stroke:#181818;stroke-width:1.0;" x1="202" x2="202" y1="212.8281" y2="225.8281"/><line style="stroke:#181818;stroke-width:1.0;" x1="202" x2="243" y1="225.8281" y2="225.8281"/><polygon fill="#181818" points="235,221.8281,245,225.8281,235,229.8281,239,225.8281" style="stroke:#181818;stroke-width:1.0;"/><text fill="#000000" font-family="sans-serif" font-size="13" font-weight="bold" lengthAdjust="spacing" textLength="9" x="14" y="207.7622">4</text><text fill="#000000" font-family="sans-serif" font-size="13" lengthAdjust="spacing" textLength="217" x="27" y="207.7622">selects a task to change assignee</text><polygon fill="#181818" points="447,250.9609,457,254.9609,447,258.9609,451,254.9609" style="stroke:#181818;stroke-width:1.0;"/><line style="stroke:#181818;stroke-width:1.0;" x1="244" x2="453" y1="254.9609" y2="254.9609"/><text fill="#000000" font-family="sans-serif" font-size="13" font-weight="bold" lengthAdjust="spacing" textLength="9" x="275.5" y="249.895">5</text><text fill="#000000" font-family="sans-serif" font-size="13" lengthAdjust="spacing" textLength="139" x="288.5" y="249.895">asks for a list of users</text><line style="stroke:#181818;stroke-width:1.0;stroke-dasharray:2.0,2.0;" x1="459" x2="501" y1="284.0938" y2="284.0938"/><line style="stroke:#181818;stroke-width:1.0;stroke-dasharray:2.0,2.0;" x1="501" x2="501" y1="284.0938" y2="297.0938"/><line style="stroke:#181818;stroke-width:1.0;stroke-dasharray:2.0,2.0;" x1="460" x2="501" y1="297.0938" y2="297.0938"/><polygon fill="#181818" points="470,293.0938,460,297.0938,470,301.0938,466,297.0938" style="stroke:#181818;stroke-width:1.0;"/><text fill="#000000" font-family="sans-serif" font-size="13" font-weight="bold" lengthAdjust="spacing" textLength="9" x="466" y="279.0278">6</text><text fill="#000000" font-family="sans-serif" font-size="13" lengthAdjust="spacing" textLength="100" x="479" y="279.0278">validates profile</text><polygon fill="#181818" points="255,322.2266,245,326.2266,255,330.2266,251,326.2266" style="stroke:#181818;stroke-width:1.0;"/><line style="stroke:#181818;stroke-width:1.0;stroke-dasharray:2.0,2.0;" x1="249" x2="458" y1="326.2266" y2="326.2266"/><text fill="#000000" font-family="sans-serif" font-size="13" font-weight="bold" lengthAdjust="spacing" textLength="9" x="283.5" y="321.1606">7</text><text fill="#000000" font-family="sans-serif" font-size="13" lengthAdjust="spacing" textLength="123" x="296.5" y="321.1606">returns list of users</text><line style="stroke:#181818;stroke-width:1.0;" x1="202" x2="244" y1="355.3594" y2="355.3594"/><line style="stroke:#181818;stroke-width:1.0;" x1="202" x2="202" y1="355.3594" y2="368.3594"/><line style="stroke:#181818;stroke-width:1.0;" x1="202" x2="243" y1="368.3594" y2="368.3594"/><polygon fill="#181818" points="235,364.3594,245,368.3594,235,372.3594,239,368.3594" style="stroke:#181818;stroke-width:1.0;"/><text fill="#000000" font-family="sans-serif" font-size="13" font-weight="bold" lengthAdjust="spacing" textLength="9" x="142" y="350.2935">8</text><text fill="#000000" font-family="sans-serif" font-size="13" lengthAdjust="spacing" textLength="89" x="155" y="350.2935">selects a user</text><polygon fill="#181818" points="447,393.4922,457,397.4922,447,401.4922,451,397.4922" style="stroke:#181818;stroke-width:1.0;"/><line style="stroke:#181818;stroke-width:1.0;" x1="244" x2="453" y1="397.4922" y2="397.4922"/><text fill="#000000" font-family="sans-serif" font-size="13" font-weight="bold" lengthAdjust="spacing" textLength="9" x="256" y="392.4263">9</text><text fill="#000000" font-family="sans-serif" font-size="13" lengthAdjust="spacing" textLength="178" x="269" y="392.4263">request task to be assigned</text><line style="stroke:#181818;stroke-width:1.0;stroke-dasharray:2.0,2.0;" x1="459" x2="501" y1="426.625" y2="426.625"/><line style="stroke:#181818;stroke-width:1.0;stroke-dasharray:2.0,2.0;" x1="501" x2="501" y1="426.625" y2="439.625"/><line style="stroke:#181818;stroke-width:1.0;stroke-dasharray:2.0,2.0;" x1="460" x2="501" y1="439.625" y2="439.625"/><polygon fill="#181818" points="470,435.625,460,439.625,470,443.625,466,439.625" style="stroke:#181818;stroke-width:1.0;"/><text fill="#000000" font-family="sans-serif" font-size="13" font-weight="bold" lengthAdjust="spacing" textLength="18" x="466" y="421.5591">10</text><text fill="#000000" font-family="sans-serif" font-size="13" lengthAdjust="spacing" textLength="160" x="488" y="421.5591">validates Manager profile</text><polygon fill="#181818" points="255,464.7578,245,468.7578,255,472.7578,251,468.7578" style="stroke:#181818;stroke-width:1.0;"/><line style="stroke:#181818;stroke-width:1.0;stroke-dasharray:2.0,2.0;" x1="249" x2="458" y1="468.7578" y2="468.7578"/><text fill="#000000" font-family="sans-serif" font-size="13" font-weight="bold" lengthAdjust="spacing" textLength="18" x="308" y="463.6919">11</text><text fill="#000000" font-family="sans-serif" font-size="13" lengthAdjust="spacing" textLength="65" x="330" y="463.6919">returns ok</text><!--SRC=[hP3DRSCm34RlceB8tGiOHO4Ca5CcO1JQ4InJhaWLo2s3jCjbaaZnJuoWyAatIdXutqTAvtZ0Y3qSwIiHMpgG2BQqzwvbiCHAqM3ImAa_bT5gY72__HoGCnRljrz0WUbbiakTTGEomgu-NaMftnLW78sPGAW-fwyQOaaM5MYo6S4xKGWDA4edPeIWMl7VwDqPbGI661hdQGrD_cBL55dUT7FyH_KYXJpP78zF1ZI0lI2tb6jBFWBHNwMBxQrm4eh_M7ZKRHSkpCP9buLEopBdxOApQoxwYgzMyh5ew1u0]--></g></svg>