<?xml version="1.0" encoding="us-ascii" standalone="no"?><svg xmlns="http://www.w3.org/2000/svg" xmlns:xlink="http://www.w3.org/1999/xlink" contentStyleType="text/css" height="674px" preserveAspectRatio="none" style="width:1220px;height:674px;background:#FFFFFF;" version="1.1" viewBox="0 0 1220 674" width="1220px" zoomAndPan="magnify"><defs/><g><text fill="#000000" font-family="sans-serif" font-size="14" font-weight="bold" lengthAdjust="spacing" textLength="1192" x="10" y="22.9951">US032 - As a Team Member, I want to add a user story in the product backlog to the sprint backlog, during the sprint planning ceremony in the web UI</text><!--cluster src--><g id="cluster_src"><path d="M479.5,43.2969 L505.5,43.2969 A3.75,3.75 0 0 1 508,45.7969 L515,65.5938 L745.5,65.5938 A2.5,2.5 0 0 1 748,68.0938 L748,664.5169 A2.5,2.5 0 0 1 745.5,667.0169 L479.5,667.0169 A2.5,2.5 0 0 1 477,664.5169 L477,45.7969 A2.5,2.5 0 0 1 479.5,43.2969 " fill="none" style="stroke:#000000;stroke-width:1.5;"/><line style="stroke:#000000;stroke-width:1.5;" x1="477" x2="515" y1="65.5938" y2="65.5938"/><text fill="#000000" font-family="sans-serif" font-size="14" font-weight="bold" lengthAdjust="spacing" textLength="25" x="481" y="58.292">src</text></g><!--cluster components--><g id="cluster_components"><path d="M529.5,321.0169 L628.5,321.0169 A3.75,3.75 0 0 1 631,323.5169 L638,343.3138 L705.5,343.3138 A2.5,2.5 0 0 1 708,345.8138 L708,438.5169 A2.5,2.5 0 0 1 705.5,441.0169 L529.5,441.0169 A2.5,2.5 0 0 1 527,438.5169 L527,323.5169 A2.5,2.5 0 0 1 529.5,321.0169 " fill="none" style="stroke:#000000;stroke-width:1.5;"/><line style="stroke:#000000;stroke-width:1.5;" x1="527" x2="638" y1="343.3138" y2="343.3138"/><text fill="#000000" font-family="sans-serif" font-size="14" font-weight="bold" lengthAdjust="spacing" textLength="98" x="531" y="336.012">components</text></g><path d="M587,131.0169 L633,131.0169 A3.75,3.75 0 0 1 635.5,133.5169 L642.5,153.3138 L647,153.3138 A2.5,2.5 0 0 1 649.5,155.8138 L649.5,181.1106 A2.5,2.5 0 0 1 647,183.6106 L587,183.6106 A2.5,2.5 0 0 1 584.5,181.1106 L584.5,133.5169 A2.5,2.5 0 0 1 587,131.0169 " fill="#F1F1F1" style="stroke:#181818;stroke-width:0.5;"/><line style="stroke:#181818;stroke-width:0.5;" x1="584.5" x2="642.5" y1="153.3138" y2="153.3138"/><text fill="#000000" font-family="sans-serif" font-size="14" lengthAdjust="spacing" textLength="45" x="588.5" y="146.012">routes</text><path d="M582,244.0169 L626,244.0169 A3.75,3.75 0 0 1 628.5,246.5169 L635.5,266.3138 L640,266.3138 A2.5,2.5 0 0 1 642.5,268.8138 L642.5,294.1106 A2.5,2.5 0 0 1 640,296.6106 L582,296.6106 A2.5,2.5 0 0 1 579.5,294.1106 L579.5,246.5169 A2.5,2.5 0 0 1 582,244.0169 " fill="#F1F1F1" style="stroke:#181818;stroke-width:0.5;"/><line style="stroke:#181818;stroke-width:0.5;" x1="579.5" x2="635.5" y1="266.3138" y2="266.3138"/><text fill="#000000" font-family="sans-serif" font-size="14" lengthAdjust="spacing" textLength="43" x="583.5" y="259.012">pages</text><path d="M553.5,364.0169 L648.5,364.0169 A3.75,3.75 0 0 1 651,366.5169 L658,386.3138 L662.5,386.3138 A2.5,2.5 0 0 1 665,388.8138 L665,414.1106 A2.5,2.5 0 0 1 662.5,416.6106 L553.5,416.6106 A2.5,2.5 0 0 1 551,414.1106 L551,366.5169 A2.5,2.5 0 0 1 553.5,364.0169 " fill="#F1F1F1" style="stroke:#181818;stroke-width:0.5;"/><line style="stroke:#181818;stroke-width:0.5;" x1="551" x2="658" y1="386.3138" y2="386.3138"/><text fill="#000000" font-family="sans-serif" font-size="14" lengthAdjust="spacing" textLength="94" x="555" y="379.012">sprintBacklog</text><path d="M540.5,477.0169 L593.5,477.0169 A3.75,3.75 0 0 1 596,479.5169 L603,499.3138 L607.5,499.3138 A2.5,2.5 0 0 1 610,501.8138 L610,527.1106 A2.5,2.5 0 0 1 607.5,529.6106 L540.5,529.6106 A2.5,2.5 0 0 1 538,527.1106 L538,479.5169 A2.5,2.5 0 0 1 540.5,477.0169 " fill="#F1F1F1" style="stroke:#181818;stroke-width:0.5;"/><line style="stroke:#181818;stroke-width:0.5;" x1="538" x2="603" y1="499.3138" y2="499.3138"/><text fill="#000000" font-family="sans-serif" font-size="14" lengthAdjust="spacing" textLength="52" x="542" y="492.012">context</text><path d="M538,590.0169 L596,590.0169 A3.75,3.75 0 0 1 598.5,592.5169 L605.5,612.3138 L610,612.3138 A2.5,2.5 0 0 1 612.5,614.8138 L612.5,640.1106 A2.5,2.5 0 0 1 610,642.6106 L538,642.6106 A2.5,2.5 0 0 1 535.5,640.1106 L535.5,592.5169 A2.5,2.5 0 0 1 538,590.0169 " fill="#F1F1F1" style="stroke:#181818;stroke-width:0.5;"/><line style="stroke:#181818;stroke-width:0.5;" x1="535.5" x2="605.5" y1="612.3138" y2="612.3138"/><text fill="#000000" font-family="sans-serif" font-size="14" lengthAdjust="spacing" textLength="57" x="539.5" y="605.012">services</text><!--link src to components--><g id="link_src_components"><path codeLine="24" d="M657.08,71.0769 C658.63,72.3069 683.69,92.2869 692,115.0169 C712.63,171.4369 714.89,238.8169 711.865,292.6994 C711.1088,306.17 710.0222,318.797 708.8098,330.1983 C708.6582,331.6235 708.5047,333.0295 708.3496,334.4156 C708.2721,335.1087 708.1941,335.7967 708.1159,336.4797 " fill="none" id="src-to-components" style="stroke:#181818;stroke-width:1.0;stroke-dasharray:7.0,7.0;"/><polygon fill="#181818" points="708.1159,336.4797,713.1146,327.9937,708.6852,331.5123,705.1666,327.0828,708.1159,336.4797" style="stroke:#181818;stroke-width:1.0;"/></g><!--link src to routes--><g id="link_src_routes"><path codeLine="25" d="M656.97,71.0769 C656.26,72.6069 642.49,102.0369 631.31,125.9269 " fill="none" id="src-to-routes" style="stroke:#181818;stroke-width:1.0;stroke-dasharray:7.0,7.0;"/><polygon fill="#181818" points="629.11,130.6269,636.5418,124.1641,631.2252,126.0963,629.2929,120.7797,629.11,130.6269" style="stroke:#181818;stroke-width:1.0;"/></g><!--link routes to pages--><g id="link_routes_pages"><path codeLine="26" d="M615.61,184.2569 C614.73,200.5169 613.59,221.5969 612.66,238.7269 " fill="none" id="routes-to-pages" style="stroke:#181818;stroke-width:1.0;stroke-dasharray:7.0,7.0;"/><polygon fill="#181818" points="612.38,243.9069,616.8633,235.1376,612.6518,238.9143,608.8752,234.7027,612.38,243.9069" style="stroke:#181818;stroke-width:1.0;"/></g><!--link pages to components--><g id="link_pages_components"><path codeLine="27" d="M642.82,294.9669 C644.21,295.6969 645.6,296.3869 647,297.0169 C661.15,303.3969 670.08,293.9869 681,305.0169 C684.28,308.3294 687.0442,312.0788 689.3695,316.1106 C689.9508,317.1186 690.5047,318.1442 691.0323,319.1851 C691.2961,319.7055 691.5534,320.2298 691.8042,320.7575 " fill="none" id="pages-to-components" style="stroke:#181818;stroke-width:1.0;stroke-dasharray:7.0,7.0;"/><polygon fill="#181818" points="691.8042,320.7575,691.5533,310.9119,689.6578,316.2417,684.3279,314.3462,691.8042,320.7575" style="stroke:#181818;stroke-width:1.0;"/></g><!--link pages to sprintBacklog--><g id="link_pages_sprintBacklog"><path codeLine="28" d="M610.35,297.1169 C609.89,315.2169 609.27,339.5469 608.78,358.7069 " fill="none" id="pages-to-sprintBacklog" style="stroke:#181818;stroke-width:1.0;stroke-dasharray:7.0,7.0;"/><polygon fill="#181818" points="608.65,363.9669,612.88,355.0727,608.7785,358.9685,604.8827,354.867,608.65,363.9669" style="stroke:#181818;stroke-width:1.0;"/></g><!--link sprintBacklog to context--><g id="link_sprintBacklog_context"><path codeLine="29" d="M600.11,417.2569 C595.14,433.5169 588.68,454.5969 583.43,471.7269 " fill="none" id="sprintBacklog-to-context" style="stroke:#181818;stroke-width:1.0;stroke-dasharray:7.0,7.0;"/><polygon fill="#181818" points="581.84,476.9069,588.3083,469.4799,583.3094,472.1277,580.6616,467.1288,581.84,476.9069" style="stroke:#181818;stroke-width:1.0;"/></g><!--link pages to context--><g id="link_pages_context"><path codeLine="30" d="M579.4,276.9969 C563.2,281.5769 544.84,289.9169 535,305.0169 C498.1,361.6069 511.56,393.6569 535,457.0169 C537.03,462.5069 540.05,467.7769 543.53,472.6669 " fill="none" id="pages-to-context" style="stroke:#181818;stroke-width:1.0;stroke-dasharray:7.0,7.0;"/><polygon fill="#181818" points="546.55,476.6769,544.3281,467.0819,543.5409,472.6837,537.9391,471.8965,546.55,476.6769" style="stroke:#181818;stroke-width:1.0;"/></g><!--link context to services--><g id="link_context_services"><path codeLine="31" d="M574,530.2569 C574,546.5169 574,567.5969 574,584.7269 " fill="none" id="context-to-services" style="stroke:#181818;stroke-width:1.0;stroke-dasharray:7.0,7.0;"/><polygon fill="#181818" points="574,589.9069,578.0257,580.9183,574.0143,584.9069,570.0257,580.8955,574,589.9069" style="stroke:#181818;stroke-width:1.0;"/></g><!--SRC=[TO_1RiCW44Jl-nMZd9EeQk-HqbiEFJNv08nNZbKR4AoRH5N_lHWSExGg1z2-sHrcfPMESNf_Udd61li0XIEh7c_SL-pNEE2YZ40iL5r7SGZi4SJw6re3EJESj_MW1PNI7vrjnjOH1-TRCzCrwY7MpQFaEcNCo3HxxgsP7IzSuNGWSd5MDOnLy7g5Bq8yC_Ds40vt_4sbwkBzhwXjxwnX8waZQOMUyxtcv7UJ1wE_VaRuAijtfHlxprOlQN9Bz8XRORlTOOapexmSvIUHj12b-_VG0elWL5JJK0fQs6GolTbb2apq0m00]--></g></svg>