<?xml version="1.0" encoding="us-ascii" standalone="no"?><svg xmlns="http://www.w3.org/2000/svg" xmlns:xlink="http://www.w3.org/1999/xlink" contentStyleType="text/css" height="2051px" preserveAspectRatio="none" style="width:969px;height:2051px;background:#FFFFFF;" version="1.1" viewBox="0 0 969 2051" width="969px" zoomAndPan="magnify"><defs/><g><!--cluster System--><g id="cluster_System"><rect fill="none" height="2038" rx="2.5" ry="2.5" style="stroke:#181818;stroke-width:1.0;" width="801" x="162" y="7"/><text fill="#000000" font-family="sans-serif" font-size="14" font-weight="bold" lengthAdjust="spacing" textLength="58" x="533.5" y="21.9951">System</text></g><g id="elem_UC10"><ellipse cx="562.6004" cy="790.8201" fill="#FFFFFF" rx="142.1004" ry="30.8201" style="stroke:#181818;stroke-width:0.5;"/><text fill="#000000" font-family="sans-serif" font-size="14" lengthAdjust="spacing" textLength="254" x="435.6004" y="793.6668">US010: register/create a new project</text></g><g id="elem_UC11"><ellipse cx="562.2643" cy="899.8529" fill="#FFFFFF" rx="199.7643" ry="42.3529" style="stroke:#181818;stroke-width:0.5;"/><text fill="#000000" font-family="sans-serif" font-size="14" lengthAdjust="spacing" textLength="373" x="375.7643" y="902.6995">US011: associate a user as Team Member of a project</text></g><g id="elem_UC12"><ellipse cx="562.5296" cy="1014.0059" fill="#FFFFFF" rx="170.5296" ry="36.5059" style="stroke:#181818;stroke-width:0.5;"/><text fill="#000000" font-family="sans-serif" font-size="14" lengthAdjust="spacing" textLength="313" x="406.0296" y="1016.8526">US012: define the Product Owner of a project</text></g><g id="elem_UC13"><ellipse cx="562.6526" cy="1121.2305" fill="#FFFFFF" rx="166.6526" ry="35.7305" style="stroke:#181818;stroke-width:0.5;"/><text fill="#000000" font-family="sans-serif" font-size="14" lengthAdjust="spacing" textLength="305" x="410.1526" y="1124.0772">US013: define the Scrum Master of a project</text></g><g id="elem_UC15"><ellipse cx="562.3027" cy="1217.9605" fill="#FFFFFF" rx="120.3027" ry="26.4605" style="stroke:#181818;stroke-width:0.5;"/><text fill="#000000" font-family="sans-serif" font-size="14" lengthAdjust="spacing" textLength="208" x="458.3027" y="1220.8072">US015: get a list of all projects</text></g><g id="elem_UC17"><ellipse cx="562.2527" cy="1312.8505" fill="#FFFFFF" rx="154.7527" ry="33.3505" style="stroke:#181818;stroke-width:0.5;"/><text fill="#000000" font-family="sans-serif" font-size="14" lengthAdjust="spacing" textLength="244" x="439.0293" y="1307.9332">US017: create a user story and add</text><text fill="#000000" font-family="sans-serif" font-size="14" lengthAdjust="spacing" textLength="169" x="478.5293" y="1324.23">it to the product backlog</text></g><g id="elem_UC18"><ellipse cx="562.712" cy="1411.8424" fill="#FFFFFF" rx="139.712" ry="30.3424" style="stroke:#181818;stroke-width:0.5;"/><text fill="#000000" font-family="sans-serif" font-size="14" lengthAdjust="spacing" textLength="249" x="438.212" y="1414.6891">US018: consult the product backlog</text></g><g id="elem_UC19"><ellipse cx="562.4604" cy="1498.9921" fill="#FFFFFF" rx="95.4604" ry="21.4921" style="stroke:#181818;stroke-width:0.5;"/><text fill="#000000" font-family="sans-serif" font-size="14" lengthAdjust="spacing" textLength="154" x="485.4604" y="1501.8388">US019: create a sprint</text></g><g id="elem_UC23"><ellipse cx="562.4692" cy="93.1938" fill="#FFFFFF" rx="243.9692" ry="51.1938" style="stroke:#181818;stroke-width:0.5;"/><text fill="#000000" font-family="sans-serif" font-size="14" lengthAdjust="spacing" textLength="463" x="330.9692" y="96.0405">US023: As an Administrator, I want to create a Project in the web UI.</text></g><g id="elem_UC24"><ellipse cx="562.2575" cy="227.0515" fill="#FFFFFF" rx="225.7575" ry="47.5515" style="stroke:#181818;stroke-width:0.5;"/><text fill="#000000" font-family="sans-serif" font-size="14" lengthAdjust="spacing" textLength="426" x="349.2575" y="229.8982">US024: As an Administrator, I want list all Project in the web UI.</text></g><g id="elem_UC25"><ellipse cx="562.6807" cy="1634.8361" fill="#FFFFFF" rx="384.6807" ry="79.3361" style="stroke:#181818;stroke-width:0.5;"/><text fill="#000000" font-family="sans-serif" font-size="14" lengthAdjust="spacing" textLength="747" x="189.1807" y="1637.6828">US025: As a Product Owner, I want to create a user story and add it to the Product Backlog using the web UI.</text></g><g id="elem_UC26"><ellipse cx="562.4794" cy="1820.1959" fill="#FFFFFF" rx="338.9794" ry="70.1959" style="stroke:#181818;stroke-width:0.5;"/><text fill="#000000" font-family="sans-serif" font-size="14" lengthAdjust="spacing" textLength="655" x="234.9794" y="1823.0426">US026: As a PO/SM/Team Member, I want to consult the current Product Backlog in the web UI.</text></g><g id="elem_UC27"><ellipse cx="562.4478" cy="1976.9896" fill="#FFFFFF" rx="245.4478" ry="51.4896" style="stroke:#181818;stroke-width:0.5;"/><text fill="#000000" font-family="sans-serif" font-size="14" lengthAdjust="spacing" textLength="466" x="329.4478" y="1979.8362">US027: As a Project Manager, I want to create a sprint in the web UI.</text></g><g id="elem_UC28"><ellipse cx="562.6115" cy="657.8223" fill="#FFFFFF" rx="322.1115" ry="66.8223" style="stroke:#181818;stroke-width:0.5;"/><text fill="#000000" font-family="sans-serif" font-size="14" lengthAdjust="spacing" textLength="621" x="252.1115" y="660.669">US028: As Manager, I want to associate a user as Team Member of a project in the web UI.</text></g><g id="elem_UC29"><ellipse cx="562.3645" cy="362.1729" fill="#FFFFFF" rx="251.3645" ry="52.6729" style="stroke:#181818;stroke-width:0.5;"/><text fill="#000000" font-family="sans-serif" font-size="14" lengthAdjust="spacing" textLength="478" x="323.3645" y="365.0196">US029: As Manager, I want to define the PO of a project in the web UI.</text></g><g id="elem_UC30"><ellipse cx="562.3577" cy="502.7715" fill="#FFFFFF" rx="251.8577" ry="52.7715" style="stroke:#181818;stroke-width:0.5;"/><text fill="#000000" font-family="sans-serif" font-size="14" lengthAdjust="spacing" textLength="479" x="322.8577" y="505.6182">US030: As Manager, I want to define the SM of a project in the web UI.</text></g><!--entity A--><g id="elem_A"><ellipse cx="62" cy="130.5" fill="#FFFFFF" rx="8" ry="8" style="stroke:#181818;stroke-width:0.5;"/><path d="M62,138.5 L62,165.5 M49,146.5 L75,146.5 M62,165.5 L49,180.5 M62,165.5 L75,180.5 " fill="none" style="stroke:#181818;stroke-width:0.5;"/><text fill="#000000" font-family="sans-serif" font-size="14" lengthAdjust="spacing" textLength="91" x="16.5" y="194.9951">Administrator</text></g><!--entity M--><g id="elem_M"><ellipse cx="62" cy="984.5" fill="#FFFFFF" rx="8" ry="8" style="stroke:#181818;stroke-width:0.5;"/><path d="M62,992.5 L62,1019.5 M49,1000.5 L75,1000.5 M62,1019.5 L49,1034.5 M62,1019.5 L75,1034.5 " fill="none" style="stroke:#181818;stroke-width:0.5;"/><text fill="#000000" font-family="sans-serif" font-size="14" lengthAdjust="spacing" textLength="60" x="32" y="1048.9951">Manager</text></g><!--entity PO--><g id="elem_PO"><ellipse cx="62" cy="1609.5" fill="#FFFFFF" rx="8" ry="8" style="stroke:#181818;stroke-width:0.5;"/><path d="M62,1617.5 L62,1644.5 M49,1625.5 L75,1625.5 M62,1644.5 L49,1659.5 M62,1644.5 L75,1659.5 " fill="none" style="stroke:#181818;stroke-width:0.5;"/><text fill="#000000" font-family="sans-serif" font-size="14" lengthAdjust="spacing" textLength="103" x="10.5" y="1673.9951">Product Owner</text></g><!--entity SM--><g id="elem_SM"><ellipse cx="62" cy="1722.5" fill="#FFFFFF" rx="8" ry="8" style="stroke:#181818;stroke-width:0.5;"/><path d="M62,1730.5 L62,1757.5 M49,1738.5 L75,1738.5 M62,1757.5 L49,1772.5 M62,1757.5 L75,1772.5 " fill="none" style="stroke:#181818;stroke-width:0.5;"/><text fill="#000000" font-family="sans-serif" font-size="14" lengthAdjust="spacing" textLength="95" x="14.5" y="1786.9951">Scrum Master</text></g><!--entity TM--><g id="elem_TM"><ellipse cx="62" cy="1833.5" fill="#FFFFFF" rx="8" ry="8" style="stroke:#181818;stroke-width:0.5;"/><path d="M62,1841.5 L62,1868.5 M49,1849.5 L75,1849.5 M62,1868.5 L49,1883.5 M62,1868.5 L75,1883.5 " fill="none" style="stroke:#181818;stroke-width:0.5;"/><text fill="#000000" font-family="sans-serif" font-size="14" lengthAdjust="spacing" textLength="100" x="12" y="1897.9951">Team Member</text></g><!--entity PM--><g id="elem_PM"><ellipse cx="62" cy="1947.5" fill="#FFFFFF" rx="8" ry="8" style="stroke:#181818;stroke-width:0.5;"/><path d="M62,1955.5 L62,1982.5 M49,1963.5 L75,1963.5 M62,1982.5 L49,1997.5 M62,1982.5 L75,1997.5 " fill="none" style="stroke:#181818;stroke-width:0.5;"/><text fill="#000000" font-family="sans-serif" font-size="14" lengthAdjust="spacing" textLength="112" x="6" y="2011.9951">Project Manager</text></g><!--link M to UC10--><g id="link_M_UC10"><path d="M71.77,975.79 C83.29,935 107.71,871.96 154,840 C234.06,784.72 344.63,774.47 430.39,776.94 " fill="none" id="M-to-UC10" style="stroke:#181818;stroke-width:1.0;"/><polygon fill="#181818" points="435.49,777.1,426.6201,772.8193,430.4925,776.9429,426.3688,780.8153,435.49,777.1" style="stroke:#181818;stroke-width:1.0;"/></g><!--link M to UC11--><g id="link_M_UC11"><path d="M92.28,992.63 C109.44,981.15 132.01,967.8 154,960 C221,936.23 297.41,921.88 365.82,913.21 " fill="none" id="M-to-UC11" style="stroke:#181818;stroke-width:1.0;"/><polygon fill="#181818" points="371.15,912.54,361.7183,909.7039,366.1897,913.169,362.7247,917.6404,371.15,912.54" style="stroke:#181818;stroke-width:1.0;"/></g><!--link M to UC12--><g id="link_M_UC12"><path d="M92.32,1014 C149.18,1014 278.36,1014 386.8,1014 " fill="none" id="M-to-UC12" style="stroke:#181818;stroke-width:1.0;"/><polygon fill="#181818" points="391.95,1014,382.95,1010,386.95,1014,382.95,1018,391.95,1014" style="stroke:#181818;stroke-width:1.0;"/></g><!--link M to UC13--><g id="link_M_UC13"><path d="M92.23,1035.52 C109.38,1047.04 131.95,1060.39 154,1068 C230.06,1094.26 318.21,1107.67 393.02,1114.45 " fill="none" id="M-to-UC13" style="stroke:#181818;stroke-width:1.0;"/><polygon fill="#181818" points="398.38,1114.93,389.7692,1110.1494,393.3996,1114.4876,389.0614,1118.118,398.38,1114.93" style="stroke:#181818;stroke-width:1.0;"/></g><!--link M to UC15--><g id="link_M_UC15"><path d="M73.52,1052.09 C86.08,1089.77 110.98,1145.78 154,1174 C242.52,1232.08 365.8,1237.51 453.52,1231.87 " fill="none" id="M-to-UC15" style="stroke:#181818;stroke-width:1.0;"/><polygon fill="#181818" points="458.72,1231.52,449.4764,1228.1205,453.7308,1231.8488,450.0025,1236.1032,458.72,1231.52" style="stroke:#181818;stroke-width:1.0;"/></g><!--link M to UC17--><g id="link_M_UC17"><path d="M65.13,1052.08 C70.44,1107.75 89.03,1210.33 154,1262 C228.69,1321.39 336.66,1332.62 422.69,1329.82 " fill="none" id="M-to-UC17" style="stroke:#181818;stroke-width:1.0;"/><polygon fill="#181818" points="427.81,1329.63,418.6677,1325.9668,422.8134,1329.8156,418.9647,1333.9613,427.81,1329.63" style="stroke:#181818;stroke-width:1.0;"/></g><!--link M to UC18--><g id="link_M_UC18"><path d="M67.52,1052.22 C78.04,1134.23 106.9,1322.96 154,1364 C232.93,1432.79 355.54,1438.41 445.67,1430.73 " fill="none" id="M-to-UC18" style="stroke:#181818;stroke-width:1.0;"/><polygon fill="#181818" points="450.74,1430.28,441.4206,1427.0943,445.7597,1430.7236,442.1304,1435.0628,450.74,1430.28" style="stroke:#181818;stroke-width:1.0;"/></g><!--link M to UC19--><g id="link_M_UC19"><path d="M65.13,1052.17 C71.43,1149.94 93.48,1405.57 154,1460 C245.54,1542.33 399.78,1531.09 489.95,1515.23 " fill="none" id="M-to-UC19" style="stroke:#181818;stroke-width:1.0;"/><polygon fill="#181818" points="494.99,1514.32,485.4244,1511.975,490.0688,1515.2044,486.8394,1519.8488,494.99,1514.32" style="stroke:#181818;stroke-width:1.0;"/></g><!--link A to UC23--><g id="link_A_UC23"><path d="M107.68,154 C162.97,146.56 260.97,133.39 351.78,121.19 " fill="none" id="A-to-UC23" style="stroke:#181818;stroke-width:1.0;"/><polygon fill="#181818" points="356.92,120.5,347.4724,117.7174,351.9634,121.1571,348.5237,125.648,356.92,120.5" style="stroke:#181818;stroke-width:1.0;"/></g><!--link A to UC24--><g id="link_A_UC24"><path d="M107.68,166 C166.02,173.85 271.9,188.08 366.73,200.82 " fill="none" id="A-to-UC24" style="stroke:#181818;stroke-width:1.0;"/><polygon fill="#181818" points="371.81,201.5,363.4283,196.3282,366.8552,200.8289,362.3546,204.2558,371.81,201.5" style="stroke:#181818;stroke-width:1.0;"/></g><!--link PO to UC25--><g id="link_PO_UC25"><path d="M113.54,1638.59 C130.34,1638.46 150.56,1638.3 172.99,1638.12 " fill="none" id="PO-to-UC25" style="stroke:#181818;stroke-width:1.0;"/><polygon fill="#181818" points="178.12,1638.08,169.086,1634.1573,173.1202,1638.1229,169.1546,1642.157,178.12,1638.08" style="stroke:#181818;stroke-width:1.0;"/></g><!--link PO to UC26--><g id="link_PO_UC26"><path d="M99.76,1677.06 C124.24,1702.32 152.24,1731.03 154,1732 C190.99,1752.42 232.29,1768.11 274.03,1780.15 " fill="none" id="PO-to-UC26" style="stroke:#181818;stroke-width:1.0;"/><polygon fill="#181818" points="278.86,1781.53,271.3002,1775.2173,274.0513,1780.1602,269.1085,1782.9113,278.86,1781.53" style="stroke:#181818;stroke-width:1.0;"/></g><!--link SM to UC26--><g id="link_SM_UC26"><path d="M109.9,1758.4 C149.64,1763.82 210.25,1772.09 274.28,1780.82 " fill="none" id="SM-to-UC26" style="stroke:#181818;stroke-width:1.0;"/><polygon fill="#181818" points="279.29,1781.5,270.923,1776.3045,274.3372,1780.8149,269.8268,1784.2291,279.29,1781.5" style="stroke:#181818;stroke-width:1.0;"/></g><!--link TM to UC26--><g id="link_TM_UC26"><path d="M112.16,1858.76 C145.54,1855.88 192.84,1851.8 244.33,1847.36 " fill="none" id="TM-to-UC26" style="stroke:#181818;stroke-width:1.0;"/><polygon fill="#181818" points="249.32,1846.93,240.0105,1843.7155,244.3384,1847.3582,240.6956,1851.6861,249.32,1846.93" style="stroke:#181818;stroke-width:1.0;"/></g><!--link PM to UC27--><g id="link_PM_UC27"><path d="M118.25,1977 C166.09,1977 238.89,1977 311.74,1977 " fill="none" id="PM-to-UC27" style="stroke:#181818;stroke-width:1.0;"/><polygon fill="#181818" points="316.98,1977,307.98,1973,311.98,1977,307.98,1981,316.98,1977" style="stroke:#181818;stroke-width:1.0;"/></g><!--link M to UC28--><g id="link_M_UC28"><path d="M64.28,975.98 C68.43,916.72 85.46,802.8 154,742 C183.48,715.85 218.9,697.03 256.39,683.61 " fill="none" id="M-to-UC28" style="stroke:#181818;stroke-width:1.0;"/><polygon fill="#181818" points="261.45,681.83,251.6328,681.041,256.7329,683.4881,254.2858,688.5883,261.45,681.83" style="stroke:#181818;stroke-width:1.0;"/></g><!--link M to UC29--><g id="link_M_UC29"><path d="M63.39,975.59 C65.41,858.5 77.83,509.32 154,432 C194.65,390.74 250.16,368.53 307.12,357.47 " fill="none" id="M-to-UC29" style="stroke:#181818;stroke-width:1.0;"/><polygon fill="#181818" points="312.28,356.5,302.6938,354.2406,307.3669,357.4283,304.1792,362.1015,312.28,356.5" style="stroke:#181818;stroke-width:1.0;"/></g><!--link M to UC30--><g id="link_M_UC30"><path d="M65.49,975.81 C72.58,879.2 96.26,628.84 154,573 C195.01,533.34 249.83,511.56 305.94,500.37 " fill="none" id="M-to-UC30" style="stroke:#181818;stroke-width:1.0;"/><polygon fill="#181818" points="311.02,499.39,301.4275,497.1575,306.1096,500.3321,302.9349,505.0142,311.02,499.39" style="stroke:#181818;stroke-width:1.0;"/></g><!--SRC=[bPHDR-8m48Rl_XKZpji5mZU7bTAUUeX02jpsOX8Jl4riP3j2rMh_-mxviga3efnUCfvdtXbFeZ-uE5D52zXhbb3DNcdoaIbPYlHDvbB1vSGD8xex5YP6glv396T70qQ2ujd9GCeLImoNWX1wJO91c1PSS6qKnRy3e1h2DXHHGJDMFupQXribqp8niBc89hJTjB4uKMK14TMc2SLTsewXpuWLXoQoSu5_q1EurROH8LUZL6GvW_WJWGNy9O2_iXu93FRnQ3nQWs8PlzOR9efHmu22O1Surz0AjdyRZ_pKyHfZMYQyJiAOgdnPdo2F6FX26lkaO0qfEtB1m9mOtCod5n7uYCaDmXrZBs7Y4sPho9Z1epbEeqhAypPDjtapFs-nXcvmrGmqNiedK942JTFV0dYrFLTRvwQp0ovQBhCMkl2XIuHAeSlSF4fS-eahnuq-AowwbbVUuG275cfq2ZSh_0FUuK95vRfZjJl6HMNemWwmV__Pi0D_dC7qCRiQydN2Zy5J7pohmRThqklPlmtdBjhqrtgaU9YBhC-2V-N1lBMm6SRHq5du6nlE_IMbKWmVVotQt_JShxYmJRklUc_RzRNVOVkx5YmhTW_nEs_tdNB-XWQhU-NSJy3c6RY_qPFH4_0uUW8-6P5_X4JmylAh_lnrScnbOEN4ofcL2okNLgv8s4XySJev9TXresUEdfCuidhdw6sdRPt0ri7vj1Ax-Gy0]--></g></svg>