<?xml version="1.0" encoding="us-ascii" standalone="no"?><svg xmlns="http://www.w3.org/2000/svg" xmlns:xlink="http://www.w3.org/1999/xlink" contentStyleType="text/css" height="709px" preserveAspectRatio="none" style="width:1526px;height:709px;background:#FFFFFF;" version="1.1" viewBox="0 0 1526 709" width="1526px" zoomAndPan="magnify"><defs/><g><text fill="#000000" font-family="sans-serif" font-size="14" font-weight="bold" lengthAdjust="spacing" textLength="947" x="288" y="27.9951">US021 -  As Team Member, I want to estimate the effort of a user story in a sprint, during the sprint planning ceremony</text><rect fill="#FFFFFF" height="460.8828" style="stroke:#181818;stroke-width:1.0;" width="10" x="383" y="149.7266"/><rect fill="#FFFFFF" height="387.4844" style="stroke:#181818;stroke-width:1.0;" width="10" x="607" y="193.9922"/><rect fill="#FFFFFF" height="314.0859" style="stroke:#181818;stroke-width:1.0;" width="10" x="831" y="238.2578"/><rect fill="#FFFFFF" height="29.1328" style="stroke:#181818;stroke-width:1.0;" width="10" x="1241" y="341.2813"/><rect fill="#FFFFFF" height="29.1328" style="stroke:#181818;stroke-width:1.0;" width="10" x="1241" y="494.0781"/><line style="stroke:#181818;stroke-width:0.5;stroke-dasharray:5.0,5.0;" x1="58" x2="58" y1="118.5938" y2="628.6094"/><line style="stroke:#181818;stroke-width:0.5;stroke-dasharray:5.0,5.0;" x1="387.5" x2="387.5" y1="118.5938" y2="628.6094"/><line style="stroke:#181818;stroke-width:0.5;stroke-dasharray:5.0,5.0;" x1="612" x2="612" y1="118.5938" y2="628.6094"/><line style="stroke:#181818;stroke-width:0.5;stroke-dasharray:5.0,5.0;" x1="836" x2="836" y1="118.5938" y2="628.6094"/><line style="stroke:#181818;stroke-width:0.5;stroke-dasharray:5.0,5.0;" x1="1098" x2="1098" y1="293.2031" y2="628.6094"/><line style="stroke:#181818;stroke-width:0.5;stroke-dasharray:5.0,5.0;" x1="1246" x2="1246" y1="118.5938" y2="628.6094"/><line style="stroke:#181818;stroke-width:0.5;stroke-dasharray:5.0,5.0;" x1="1378" x2="1378" y1="118.5938" y2="628.6094"/><text fill="#000000" font-family="sans-serif" font-size="14" lengthAdjust="spacing" textLength="100" x="5" y="115.292">Team Member</text><ellipse cx="58" cy="50.7969" fill="#FFFFFF" rx="8" ry="8" style="stroke:#181818;stroke-width:0.5;"/><path d="M58,58.7969 L58,85.7969 M45,66.7969 L71,66.7969 M58,85.7969 L45,100.7969 M58,85.7969 L71,100.7969 " fill="none" style="stroke:#181818;stroke-width:0.5;"/><text fill="#000000" font-family="sans-serif" font-size="14" lengthAdjust="spacing" textLength="100" x="5" y="640.6045">Team Member</text><ellipse cx="58" cy="652.4063" fill="#FFFFFF" rx="8" ry="8" style="stroke:#181818;stroke-width:0.5;"/><path d="M58,660.4063 L58,687.4063 M45,668.4063 L71,668.4063 M58,687.4063 L45,702.4063 M58,687.4063 L71,702.4063 " fill="none" style="stroke:#181818;stroke-width:0.5;"/><rect fill="#FFFFFF" height="46.5938" rx="2.5" ry="2.5" style="stroke:#181818;stroke-width:0.5;" width="115" x="330.5" y="71"/><text fill="#000000" font-family="sans-serif" font-size="14" lengthAdjust="spacing" textLength="101" x="337.5" y="90.9951">:EstimateEffort</text><text fill="#000000" font-family="sans-serif" font-size="14" lengthAdjust="spacing" textLength="13" x="381.5" y="107.292">UI</text><rect fill="#FFFFFF" height="46.5938" rx="2.5" ry="2.5" style="stroke:#181818;stroke-width:0.5;" width="115" x="330.5" y="627.6094"/><text fill="#000000" font-family="sans-serif" font-size="14" lengthAdjust="spacing" textLength="101" x="337.5" y="647.6045">:EstimateEffort</text><text fill="#000000" font-family="sans-serif" font-size="14" lengthAdjust="spacing" textLength="13" x="381.5" y="663.9014">UI</text><rect fill="#FFFFFF" height="46.5938" rx="2.5" ry="2.5" style="stroke:#181818;stroke-width:0.5;" width="86" x="569" y="71"/><text fill="#000000" font-family="sans-serif" font-size="14" lengthAdjust="spacing" textLength="72" x="576" y="90.9951">:UserStory</text><text fill="#000000" font-family="sans-serif" font-size="14" lengthAdjust="spacing" textLength="67" x="578.5" y="107.292">Controller</text><rect fill="#FFFFFF" height="46.5938" rx="2.5" ry="2.5" style="stroke:#181818;stroke-width:0.5;" width="86" x="569" y="627.6094"/><text fill="#000000" font-family="sans-serif" font-size="14" lengthAdjust="spacing" textLength="72" x="576" y="647.6045">:UserStory</text><text fill="#000000" font-family="sans-serif" font-size="14" lengthAdjust="spacing" textLength="67" x="578.5" y="663.9014">Controller</text><rect fill="#FFFFFF" height="46.5938" rx="2.5" ry="2.5" style="stroke:#181818;stroke-width:0.5;" width="86" x="793" y="71"/><text fill="#000000" font-family="sans-serif" font-size="14" lengthAdjust="spacing" textLength="72" x="800" y="90.9951">:UserStory</text><text fill="#000000" font-family="sans-serif" font-size="14" lengthAdjust="spacing" textLength="50" x="811" y="107.292">Service</text><rect fill="#FFFFFF" height="46.5938" rx="2.5" ry="2.5" style="stroke:#181818;stroke-width:0.5;" width="86" x="793" y="627.6094"/><text fill="#000000" font-family="sans-serif" font-size="14" lengthAdjust="spacing" textLength="72" x="800" y="647.6045">:UserStory</text><text fill="#000000" font-family="sans-serif" font-size="14" lengthAdjust="spacing" textLength="50" x="811" y="663.9014">Service</text><rect fill="#FFFFFF" height="62.8906" rx="2.5" ry="2.5" style="stroke:#181818;stroke-width:0.5;" width="115" x="1041" y="627.6094"/><text fill="#000000" font-family="sans-serif" font-size="14" lengthAdjust="spacing" textLength="101" x="1048" y="647.6045">&#171;ValueObject&#187;</text><text fill="#000000" font-family="sans-serif" font-size="14" lengthAdjust="spacing" textLength="80" x="1058.5" y="663.9014">userStoryID</text><text fill="#000000" font-family="sans-serif" font-size="14" lengthAdjust="spacing" textLength="86" x="1055.5" y="680.1982">:UserStoryID</text><rect fill="#FFFFFF" height="46.5938" rx="2.5" ry="2.5" style="stroke:#181818;stroke-width:0.5;" width="160" x="1166" y="71"/><text fill="#000000" font-family="sans-serif" font-size="14" lengthAdjust="spacing" textLength="92" x="1200" y="90.9951">&#171;Repository&#187;</text><text fill="#000000" font-family="sans-serif" font-size="14" lengthAdjust="spacing" textLength="146" x="1173" y="107.292">:UserStoryRepository</text><rect fill="#FFFFFF" height="46.5938" rx="2.5" ry="2.5" style="stroke:#181818;stroke-width:0.5;" width="160" x="1166" y="627.6094"/><text fill="#000000" font-family="sans-serif" font-size="14" lengthAdjust="spacing" textLength="92" x="1200" y="647.6045">&#171;Repository&#187;</text><text fill="#000000" font-family="sans-serif" font-size="14" lengthAdjust="spacing" textLength="146" x="1173" y="663.9014">:UserStoryRepository</text><rect fill="#FFFFFF" height="46.5938" rx="2.5" ry="2.5" style="stroke:#181818;stroke-width:0.5;" width="85" x="1336" y="71"/><text fill="#000000" font-family="sans-serif" font-size="14" lengthAdjust="spacing" textLength="71" x="1343" y="90.9951">userStory:</text><text fill="#000000" font-family="sans-serif" font-size="14" lengthAdjust="spacing" textLength="67" x="1345" y="107.292">UserStory</text><rect fill="#FFFFFF" height="46.5938" rx="2.5" ry="2.5" style="stroke:#181818;stroke-width:0.5;" width="85" x="1336" y="627.6094"/><text fill="#000000" font-family="sans-serif" font-size="14" lengthAdjust="spacing" textLength="71" x="1343" y="647.6045">userStory:</text><text fill="#000000" font-family="sans-serif" font-size="14" lengthAdjust="spacing" textLength="67" x="1345" y="663.9014">UserStory</text><rect fill="#FFFFFF" height="460.8828" style="stroke:#181818;stroke-width:1.0;" width="10" x="383" y="149.7266"/><rect fill="#FFFFFF" height="387.4844" style="stroke:#181818;stroke-width:1.0;" width="10" x="607" y="193.9922"/><rect fill="#FFFFFF" height="314.0859" style="stroke:#181818;stroke-width:1.0;" width="10" x="831" y="238.2578"/><rect fill="#FFFFFF" height="29.1328" style="stroke:#181818;stroke-width:1.0;" width="10" x="1241" y="341.2813"/><rect fill="#FFFFFF" height="29.1328" style="stroke:#181818;stroke-width:1.0;" width="10" x="1241" y="494.0781"/><polygon fill="#181818" points="371,145.7266,381,149.7266,371,153.7266,375,149.7266" style="stroke:#181818;stroke-width:1.0;"/><line style="stroke:#181818;stroke-width:1.0;" x1="58" x2="377" y1="149.7266" y2="149.7266"/><text fill="#000000" font-family="sans-serif" font-size="13" font-weight="bold" lengthAdjust="spacing" textLength="9" x="67.5" y="144.6606">1</text><text fill="#000000" font-family="sans-serif" font-size="13" lengthAdjust="spacing" textLength="293" x="80.5" y="144.6606">requests to estimate the effort of a user story</text><polygon fill="#181818" points="595,189.9922,605,193.9922,595,197.9922,599,193.9922" style="stroke:#181818;stroke-width:1.0;"/><line style="stroke:#181818;stroke-width:1.0;" x1="393" x2="601" y1="193.9922" y2="193.9922"/><text fill="#000000" font-family="sans-serif" font-size="13" font-weight="bold" lengthAdjust="spacing" textLength="9" x="402.5" y="181.3599">2</text><text fill="#000000" font-family="sans-serif" font-size="13" lengthAdjust="spacing" textLength="177" x="418" y="173.7935">estimateEffort(projectCode,</text><text fill="#000000" font-family="sans-serif" font-size="13" lengthAdjust="spacing" textLength="178" x="419.5" y="188.9263">userStoryCode, effortValue)</text><polygon fill="#181818" points="819,234.2578,829,238.2578,819,242.2578,823,238.2578" style="stroke:#181818;stroke-width:1.0;"/><line style="stroke:#181818;stroke-width:1.0;" x1="617" x2="825" y1="238.2578" y2="238.2578"/><text fill="#000000" font-family="sans-serif" font-size="13" font-weight="bold" lengthAdjust="spacing" textLength="9" x="626.5" y="225.6255">3</text><text fill="#000000" font-family="sans-serif" font-size="13" lengthAdjust="spacing" textLength="177" x="642" y="218.0591">estimateEffort(projectCode,</text><text fill="#000000" font-family="sans-serif" font-size="13" lengthAdjust="spacing" textLength="178" x="643.5" y="233.1919">userStoryCode, effortValue)</text><polygon fill="#181818" points="1029,278.5234,1039,282.5234,1029,286.5234,1033,282.5234" style="stroke:#181818;stroke-width:1.0;"/><line style="stroke:#181818;stroke-width:1.0;" x1="841" x2="1035" y1="282.5234" y2="282.5234"/><text fill="#000000" font-family="sans-serif" font-size="13" font-weight="bold" lengthAdjust="spacing" textLength="9" x="853" y="269.8911">4</text><text fill="#000000" font-family="sans-serif" font-size="13" lengthAdjust="spacing" textLength="163" x="866" y="262.3247">create(projectCodeValue,</text><text fill="#000000" font-family="sans-serif" font-size="13" lengthAdjust="spacing" textLength="136" x="881.5" y="277.4575">userStoryCodeValue)</text><rect fill="#FFFFFF" height="62.8906" rx="2.5" ry="2.5" style="stroke:#181818;stroke-width:0.5;" width="115" x="1041" y="246.2578"/><text fill="#000000" font-family="sans-serif" font-size="14" lengthAdjust="spacing" textLength="101" x="1048" y="266.2529">&#171;ValueObject&#187;</text><text fill="#000000" font-family="sans-serif" font-size="14" lengthAdjust="spacing" textLength="80" x="1058.5" y="282.5498">userStoryID</text><text fill="#000000" font-family="sans-serif" font-size="14" lengthAdjust="spacing" textLength="86" x="1055.5" y="298.8467">:UserStoryID</text><polygon fill="#181818" points="1229,337.2813,1239,341.2813,1229,345.2813,1233,341.2813" style="stroke:#181818;stroke-width:1.0;"/><line style="stroke:#181818;stroke-width:1.0;" x1="841" x2="1235" y1="341.2813" y2="341.2813"/><text fill="#000000" font-family="sans-serif" font-size="13" font-weight="bold" lengthAdjust="spacing" textLength="9" x="966" y="336.2153">5</text><text fill="#000000" font-family="sans-serif" font-size="13" lengthAdjust="spacing" textLength="137" x="979" y="336.2153">findByID(userStoryID)</text><polygon fill="#181818" points="852,366.4141,842,370.4141,852,374.4141,848,370.4141" style="stroke:#181818;stroke-width:1.0;"/><line style="stroke:#181818;stroke-width:1.0;stroke-dasharray:2.0,2.0;" x1="846" x2="1245" y1="370.4141" y2="370.4141"/><text fill="#000000" font-family="sans-serif" font-size="13" font-weight="bold" lengthAdjust="spacing" textLength="9" x="1006" y="365.3481">6</text><text fill="#000000" font-family="sans-serif" font-size="13" lengthAdjust="spacing" textLength="62" x="1019" y="365.3481">userStory</text><polygon fill="#181818" points="1366.5,395.5469,1376.5,399.5469,1366.5,403.5469,1370.5,399.5469" style="stroke:#181818;stroke-width:1.0;"/><line style="stroke:#181818;stroke-width:1.0;" x1="841" x2="1372.5" y1="399.5469" y2="399.5469"/><text fill="#000000" font-family="sans-serif" font-size="13" font-weight="bold" lengthAdjust="spacing" textLength="9" x="1026.75" y="394.481">7</text><text fill="#000000" font-family="sans-serif" font-size="13" lengthAdjust="spacing" textLength="153" x="1039.75" y="394.481">defineEffort(effortValue)</text><path d="M1383,412.5469 L1383,467.5469 L1519,467.5469 L1519,422.5469 L1509,412.5469 L1383,412.5469 " fill="#FEFFDD" style="stroke:#181818;stroke-width:0.5;"/><path d="M1509,412.5469 L1509,422.5469 L1519,422.5469 L1509,412.5469 " fill="#FEFFDD" style="stroke:#181818;stroke-width:0.5;"/><text fill="#000000" font-family="sans-serif" font-size="13" lengthAdjust="spacing" textLength="115" x="1389" y="429.6138">user story fetches</text><text fill="#000000" font-family="sans-serif" font-size="13" lengthAdjust="spacing" textLength="113" x="1389" y="444.7466">effort values from</text><text fill="#000000" font-family="sans-serif" font-size="13" lengthAdjust="spacing" textLength="93" x="1389" y="459.8794">an enum class</text><polygon fill="#181818" points="1229,490.0781,1239,494.0781,1229,498.0781,1233,494.0781" style="stroke:#181818;stroke-width:1.0;"/><line style="stroke:#181818;stroke-width:1.0;" x1="841" x2="1235" y1="494.0781" y2="494.0781"/><text fill="#000000" font-family="sans-serif" font-size="13" font-weight="bold" lengthAdjust="spacing" textLength="9" x="965" y="489.0122">8</text><text fill="#000000" font-family="sans-serif" font-size="13" lengthAdjust="spacing" textLength="139" x="978" y="489.0122">save(userStoryToSet)</text><polygon fill="#181818" points="852,519.2109,842,523.2109,852,527.2109,848,523.2109" style="stroke:#181818;stroke-width:1.0;"/><line style="stroke:#181818;stroke-width:1.0;stroke-dasharray:2.0,2.0;" x1="846" x2="1245" y1="523.2109" y2="523.2109"/><text fill="#000000" font-family="sans-serif" font-size="13" font-weight="bold" lengthAdjust="spacing" textLength="9" x="1007" y="518.145">9</text><text fill="#000000" font-family="sans-serif" font-size="13" lengthAdjust="spacing" textLength="60" x="1020" y="518.145">true/false</text><polygon fill="#181818" points="628,548.3438,618,552.3438,628,556.3438,624,552.3438" style="stroke:#181818;stroke-width:1.0;"/><line style="stroke:#181818;stroke-width:1.0;stroke-dasharray:2.0,2.0;" x1="622" x2="835" y1="552.3438" y2="552.3438"/><text fill="#000000" font-family="sans-serif" font-size="13" font-weight="bold" lengthAdjust="spacing" textLength="18" x="685.5" y="547.2778">10</text><text fill="#000000" font-family="sans-serif" font-size="13" lengthAdjust="spacing" textLength="60" x="707.5" y="547.2778">true/false</text><polygon fill="#181818" points="404,577.4766,394,581.4766,404,585.4766,400,581.4766" style="stroke:#181818;stroke-width:1.0;"/><line style="stroke:#181818;stroke-width:1.0;stroke-dasharray:2.0,2.0;" x1="398" x2="611" y1="581.4766" y2="581.4766"/><text fill="#000000" font-family="sans-serif" font-size="13" font-weight="bold" lengthAdjust="spacing" textLength="18" x="461.5" y="576.4106">11</text><text fill="#000000" font-family="sans-serif" font-size="13" lengthAdjust="spacing" textLength="60" x="483.5" y="576.4106">true/false</text><polygon fill="#181818" points="69,606.6094,59,610.6094,69,614.6094,65,610.6094" style="stroke:#181818;stroke-width:1.0;"/><line style="stroke:#181818;stroke-width:1.0;stroke-dasharray:2.0,2.0;" x1="63" x2="387" y1="610.6094" y2="610.6094"/><text fill="#000000" font-family="sans-serif" font-size="13" font-weight="bold" lengthAdjust="spacing" textLength="18" x="136" y="605.5435">12</text><text fill="#000000" font-family="sans-serif" font-size="13" lengthAdjust="spacing" textLength="152" x="158" y="605.5435">successful/unsuccessful</text><!--SRC=[pLJBRjj03BplLn3k9K4SfEtH20maTj3g41I8ufvqsQmeUnk9g-x3GVw-NBsDE8-Yb_fWBodES3XSsJrgggML5JZy7P0Ktg9pSejNfTuIA2IFLhYXIYflxBLKZrjh0kKhKneBJpljSLB4truhNKloxvNsNU-mG1iFVmtuZZ97-r7ODwwf_pTHnooNmHiArGCVXTU-HDYadxz-WNE0AmVtoF1RZ8_daC0JEmtU03glA-aH_0u1Yy9O3wO02S6X1SUhUmPD7BlQQl9po0F_RfloDWLrAObYJl4abQ5d8PgTmspISmQorT26yAcTRB9tc2rkEZ4tZOwCDaa3soJ7opSiCOqACrePyjQKPTTe3Dz5fcZtMc43wyv7CPUNFsKPyCV3BrH-kSmez1p9EgEHCLctcjDa_GhF7TR6wLWRQKRac6yOnl0epz1-mJxrvxPr7_Ku8IR6do_PpxEp1TXubPnt7xm5Gl0Q63nQ6qdmO6CdjJNHdfN9SPuH31gRH4VSs7Wgn6H7JDjP_u-SocAS8fel-cN6WJbUGFjmojV0Nf3sP1E2SHTHOA4fl-P5dqokmAcmw8ETK1qG33jPG8wCxuSxa4-6jLkztJNc3n0nUHKBz6g7JdGxsaUWWyAQIaW2vDSVL2aT5r0EaK-yCOUJUnndk3Sf-c4CRmDU5B9qaU5bxjMC2qhnVrCHoej0Oo3Yvmy0]--></g></svg>