<?xml version="1.0" encoding="us-ascii" standalone="no"?><svg xmlns="http://www.w3.org/2000/svg" xmlns:xlink="http://www.w3.org/1999/xlink" contentStyleType="text/css" height="561px" preserveAspectRatio="none" style="width:575px;height:561px;background:#FFFFFF;" version="1.1" viewBox="0 0 575 561" width="575px" zoomAndPan="magnify"><defs/><g><text fill="#000000" font-family="sans-serif" font-size="14" font-weight="bold" lengthAdjust="spacing" textLength="547" x="10" y="22.9951">US023 - As an Administrator, I want to create a Project in the web UI.</text><!--cluster src--><g id="cluster_src"><path d="M180,43.2969 L206,43.2969 A3.75,3.75 0 0 1 208.5,45.7969 L215.5,65.5938 L400,65.5938 A2.5,2.5 0 0 1 402.5,68.0938 L402.5,551.5169 A2.5,2.5 0 0 1 400,554.0169 L180,554.0169 A2.5,2.5 0 0 1 177.5,551.5169 L177.5,45.7969 A2.5,2.5 0 0 1 180,43.2969 " fill="none" style="stroke:#000000;stroke-width:1.5;"/><line style="stroke:#000000;stroke-width:1.5;" x1="177.5" x2="215.5" y1="65.5938" y2="65.5938"/><text fill="#000000" font-family="sans-serif" font-size="14" font-weight="bold" lengthAdjust="spacing" textLength="25" x="181.5" y="58.292">src</text></g><!--cluster components--><g id="cluster_components"><path d="M230,321.0169 L329,321.0169 A3.75,3.75 0 0 1 331.5,323.5169 L338.5,343.3138 L360,343.3138 A2.5,2.5 0 0 1 362.5,345.8138 L362.5,438.5169 A2.5,2.5 0 0 1 360,441.0169 L230,441.0169 A2.5,2.5 0 0 1 227.5,438.5169 L227.5,323.5169 A2.5,2.5 0 0 1 230,321.0169 " fill="none" style="stroke:#000000;stroke-width:1.5;"/><line style="stroke:#000000;stroke-width:1.5;" x1="227.5" x2="338.5" y1="343.3138" y2="343.3138"/><text fill="#000000" font-family="sans-serif" font-size="14" font-weight="bold" lengthAdjust="spacing" textLength="98" x="231.5" y="336.012">components</text></g><path d="M255.5,131.0169 L301.5,131.0169 A3.75,3.75 0 0 1 304,133.5169 L311,153.3138 L315.5,153.3138 A2.5,2.5 0 0 1 318,155.8138 L318,181.1106 A2.5,2.5 0 0 1 315.5,183.6106 L255.5,183.6106 A2.5,2.5 0 0 1 253,181.1106 L253,133.5169 A2.5,2.5 0 0 1 255.5,131.0169 " fill="#F1F1F1" style="stroke:#181818;stroke-width:0.5;"/><line style="stroke:#181818;stroke-width:0.5;" x1="253" x2="311" y1="153.3138" y2="153.3138"/><text fill="#000000" font-family="sans-serif" font-size="14" lengthAdjust="spacing" textLength="45" x="257" y="146.012">routes</text><path d="M256.5,244.0169 L300.5,244.0169 A3.75,3.75 0 0 1 303,246.5169 L310,266.3138 L314.5,266.3138 A2.5,2.5 0 0 1 317,268.8138 L317,294.1106 A2.5,2.5 0 0 1 314.5,296.6106 L256.5,296.6106 A2.5,2.5 0 0 1 254,294.1106 L254,246.5169 A2.5,2.5 0 0 1 256.5,244.0169 " fill="#F1F1F1" style="stroke:#181818;stroke-width:0.5;"/><line style="stroke:#181818;stroke-width:0.5;" x1="254" x2="310" y1="266.3138" y2="266.3138"/><text fill="#000000" font-family="sans-serif" font-size="14" lengthAdjust="spacing" textLength="43" x="258" y="259.012">pages</text><path d="M254,364.0169 L303,364.0169 A3.75,3.75 0 0 1 305.5,366.5169 L312.5,386.3138 L317,386.3138 A2.5,2.5 0 0 1 319.5,388.8138 L319.5,414.1106 A2.5,2.5 0 0 1 317,416.6106 L254,416.6106 A2.5,2.5 0 0 1 251.5,414.1106 L251.5,366.5169 A2.5,2.5 0 0 1 254,364.0169 " fill="#F1F1F1" style="stroke:#181818;stroke-width:0.5;"/><line style="stroke:#181818;stroke-width:0.5;" x1="251.5" x2="312.5" y1="386.3138" y2="386.3138"/><text fill="#000000" font-family="sans-serif" font-size="14" lengthAdjust="spacing" textLength="48" x="255.5" y="379.012">project</text><path d="M228,477.0169 L281,477.0169 A3.75,3.75 0 0 1 283.5,479.5169 L290.5,499.3138 L295,499.3138 A2.5,2.5 0 0 1 297.5,501.8138 L297.5,527.1106 A2.5,2.5 0 0 1 295,529.6106 L228,529.6106 A2.5,2.5 0 0 1 225.5,527.1106 L225.5,479.5169 A2.5,2.5 0 0 1 228,477.0169 " fill="#F1F1F1" style="stroke:#181818;stroke-width:0.5;"/><line style="stroke:#181818;stroke-width:0.5;" x1="225.5" x2="290.5" y1="499.3138" y2="499.3138"/><text fill="#000000" font-family="sans-serif" font-size="14" lengthAdjust="spacing" textLength="52" x="229.5" y="492.012">context</text><!--link src to components--><g id="link_src_components"><path codeLine="23" d="M319.57,71.0769 C320.91,72.3569 342.54,93.1669 349.5,115.0169 C367.725,172.2419 369.22,239.6344 366.0388,293.3219 C365.2434,306.7438 364.1559,319.3091 362.9644,330.6448 C362.8154,332.0618 362.6649,333.4595 362.513,334.8373 " fill="none" id="src-to-components" style="stroke:#181818;stroke-width:1.0;stroke-dasharray:7.0,7.0;"/><polygon fill="#181818" points="362.513,334.8373,367.4747,326.3296,363.0607,329.8674,359.5228,325.4534,362.513,334.8373" style="stroke:#181818;stroke-width:1.0;"/></g><!--link src to routes--><g id="link_src_routes"><path codeLine="24" d="M319.48,71.0769 C318.87,72.6069 307.17,102.0369 297.66,125.9269 " fill="none" id="src-to-routes" style="stroke:#181818;stroke-width:1.0;stroke-dasharray:7.0,7.0;"/><polygon fill="#181818" points="295.8,130.6269,302.8382,123.7374,297.6446,125.9796,295.4025,120.786,295.8,130.6269" style="stroke:#181818;stroke-width:1.0;"/></g><!--link routes to pages--><g id="link_routes_pages"><path codeLine="25" d="M285.5,184.2569 C285.5,200.5169 285.5,221.5969 285.5,238.7269 " fill="none" id="routes-to-pages" style="stroke:#181818;stroke-width:1.0;stroke-dasharray:7.0,7.0;"/><polygon fill="#181818" points="285.5,243.9069,289.5257,234.9183,285.5143,238.9069,281.5257,234.8955,285.5,243.9069" style="stroke:#181818;stroke-width:1.0;"/></g><!--link pages to components--><g id="link_pages_components"><path codeLine="26" d="M317.19,294.2169 C318.64,295.1769 320.08,296.1069 321.5,297.0169 C327.54,300.8669 331.24,299.2569 335.5,305.0169 C338.27,308.7656 340.6478,312.8456 342.6878,317.1217 C343.1978,318.1907 343.6867,319.272 344.1553,320.3634 C344.2139,320.4998 344.2721,320.6364 344.3301,320.7731 " fill="none" id="pages-to-components" style="stroke:#181818;stroke-width:1.0;stroke-dasharray:7.0,7.0;"/><polygon fill="#181818" points="344.3301,320.7731,344.5014,310.9258,342.3792,316.1694,337.1355,314.0472,344.3301,320.7731" style="stroke:#181818;stroke-width:1.0;"/></g><!--link pages to project--><g id="link_pages_project"><path codeLine="27" d="M285.5,297.1169 C285.5,315.2169 285.5,339.5469 285.5,358.7069 " fill="none" id="pages-to-project" style="stroke:#181818;stroke-width:1.0;stroke-dasharray:7.0,7.0;"/><polygon fill="#181818" points="285.5,363.9669,289.5,354.9669,285.5,358.9669,281.5,354.9669,285.5,363.9669" style="stroke:#181818;stroke-width:1.0;"/></g><!--link project to context--><g id="link_project_context"><path codeLine="28" d="M279.93,417.2569 C276.42,433.5169 271.86,454.5969 268.16,471.7269 " fill="none" id="project-to-context" style="stroke:#181818;stroke-width:1.0;stroke-dasharray:7.0,7.0;"/><polygon fill="#181818" points="267.04,476.9069,272.8529,468.9564,268.0974,472.02,265.0338,467.2645,267.04,476.9069" style="stroke:#181818;stroke-width:1.0;"/></g><!--link pages to context--><g id="link_pages_context"><path codeLine="29" d="M253.97,285.8969 C246.6,290.8569 239.68,297.1769 235.5,305.0169 C203.69,364.6169 218.16,391.7269 235.5,457.0169 C236.83,462.0269 238.86,467.0669 241.21,471.8669 " fill="none" id="pages-to-context" style="stroke:#181818;stroke-width:1.0;stroke-dasharray:7.0,7.0;"/><polygon fill="#181818" points="243.65,476.5769,243.0646,466.7454,241.3513,472.1366,235.9602,470.4233,243.65,476.5769" style="stroke:#181818;stroke-width:1.0;"/></g><!--SRC=[TOxD2i8m48JlUOgXPosYTw77tWJf0yIuQDGc9TbIGNntGz9VnH1suTkTdM7D3q9rt6ntMAFma0R5kTP6UtQIhLkXH2SDWosK8ya4YOEpDr8CRS1NGaSdL6KkH2FLNLu8cNSgmqiWl94vspBv0R_5Sjg4-dUeRDrOGuRZHfmjnIdF89-T-Brac9uyCme_f4MUxp7PZ2Y55gb54eEAMBz54-m3YRxtYz5w8Kta0m00]--></g></svg>