<?xml version="1.0" encoding="us-ascii" standalone="no"?><svg xmlns="http://www.w3.org/2000/svg" xmlns:xlink="http://www.w3.org/1999/xlink" contentStyleType="text/css" height="1391px" preserveAspectRatio="none" style="width:2975px;height:1391px;background:#FFFFFF;" version="1.1" viewBox="0 0 2975 1391" width="2975px" zoomAndPan="magnify"><defs/><g><text fill="#000000" font-family="sans-serif" font-size="14" font-weight="bold" lengthAdjust="spacing" textLength="643" x="1167.75" y="27.9951">US022 - As a Team Member, I want to view the Scrum Board of the current sprint</text><rect fill="#FFFFFF" height="1142.5" style="stroke:#181818;stroke-width:1.0;" width="10" x="291.5" y="149.7266"/><rect fill="#FFFFFF" height="1053.9688" style="stroke:#181818;stroke-width:1.0;" width="10" x="572.5" y="193.9922"/><rect fill="#FFFFFF" height="626.7422" style="stroke:#181818;stroke-width:1.0;" width="10" x="1541" y="518.1953"/><rect fill="#FFFFFF" height="29.1328" style="stroke:#181818;stroke-width:1.0;" width="10" x="2010.5" y="621.2188"/><rect fill="#FFFFFF" height="29.1328" style="stroke:#181818;stroke-width:1.0;" width="10" x="2157.5" y="679.4844"/><rect fill="#FFFFFF" height="29.1328" style="stroke:#181818;stroke-width:1.0;" width="10" x="2286" y="737.75"/><rect fill="#FFFFFF" height="29.1328" style="stroke:#181818;stroke-width:1.0;" width="10" x="2428" y="796.0156"/><rect fill="#FFFFFF" height="261.5234" style="stroke:#181818;stroke-width:1.0;" width="10" x="2621.5" y="854.2813"/><rect fill="#FFFFFF" height="160.7969" style="stroke:#000000;stroke-width:1.5;" width="456.5" x="2513" y="926.875"/><line style="stroke:#181818;stroke-width:0.5;stroke-dasharray:5.0,5.0;" x1="60" x2="60" y1="118.5938" y2="1310.2266"/><line style="stroke:#181818;stroke-width:0.5;stroke-dasharray:5.0,5.0;" x1="296" x2="296" y1="118.5938" y2="1310.2266"/><line style="stroke:#181818;stroke-width:0.5;stroke-dasharray:5.0,5.0;" x1="577.5" x2="577.5" y1="118.5938" y2="1310.2266"/><line style="stroke:#181818;stroke-width:0.5;stroke-dasharray:5.0,5.0;" x1="874.5" x2="874.5" y1="248.9375" y2="1310.2266"/><line style="stroke:#181818;stroke-width:0.5;stroke-dasharray:5.0,5.0;" x1="1061.5" x2="1061.5" y1="322.8281" y2="1310.2266"/><line style="stroke:#181818;stroke-width:0.5;stroke-dasharray:5.0,5.0;" x1="1246.5" x2="1246.5" y1="396.7188" y2="1310.2266"/><line style="stroke:#181818;stroke-width:0.5;stroke-dasharray:5.0,5.0;" x1="1413.5" x2="1413.5" y1="1199.8828" y2="1310.2266"/><line style="stroke:#181818;stroke-width:0.5;stroke-dasharray:5.0,5.0;" x1="1545.5" x2="1545.5" y1="118.5938" y2="1310.2266"/><line style="stroke:#181818;stroke-width:0.5;stroke-dasharray:5.0,5.0;" x1="1877" x2="1877" y1="573.1406" y2="1310.2266"/><line style="stroke:#181818;stroke-width:0.5;stroke-dasharray:5.0,5.0;" x1="2015" x2="2015" y1="118.5938" y2="1310.2266"/><line style="stroke:#181818;stroke-width:0.5;stroke-dasharray:5.0,5.0;" x1="2162" x2="2162" y1="118.5938" y2="1310.2266"/><line style="stroke:#181818;stroke-width:0.5;stroke-dasharray:5.0,5.0;" x1="2291" x2="2291" y1="118.5938" y2="1310.2266"/><line style="stroke:#181818;stroke-width:0.5;stroke-dasharray:5.0,5.0;" x1="2433" x2="2433" y1="118.5938" y2="1310.2266"/><line style="stroke:#181818;stroke-width:0.5;stroke-dasharray:5.0,5.0;" x1="2626" x2="2626" y1="118.5938" y2="1310.2266"/><line style="stroke:#181818;stroke-width:0.5;stroke-dasharray:5.0,5.0;" x1="2877.5" x2="2877.5" y1="901.0781" y2="1310.2266"/><text fill="#000000" font-family="sans-serif" font-size="14" lengthAdjust="spacing" textLength="105" x="5" y="115.292">:Team Member</text><ellipse cx="60.5" cy="50.7969" fill="#FFFFFF" rx="8" ry="8" style="stroke:#181818;stroke-width:0.5;"/><path d="M60.5,58.7969 L60.5,85.7969 M47.5,66.7969 L73.5,66.7969 M60.5,85.7969 L47.5,100.7969 M60.5,85.7969 L73.5,100.7969 " fill="none" style="stroke:#181818;stroke-width:0.5;"/><text fill="#000000" font-family="sans-serif" font-size="14" lengthAdjust="spacing" textLength="105" x="5" y="1322.2217">:Team Member</text><ellipse cx="60.5" cy="1334.0234" fill="#FFFFFF" rx="8" ry="8" style="stroke:#181818;stroke-width:0.5;"/><path d="M60.5,1342.0234 L60.5,1369.0234 M47.5,1350.0234 L73.5,1350.0234 M60.5,1369.0234 L47.5,1384.0234 M60.5,1369.0234 L73.5,1384.0234 " fill="none" style="stroke:#181818;stroke-width:0.5;"/><rect fill="#FFFFFF" height="30.2969" rx="2.5" ry="2.5" style="stroke:#181818;stroke-width:0.5;" width="149" x="222" y="87.2969"/><text fill="#000000" font-family="sans-serif" font-size="14" lengthAdjust="spacing" textLength="135" x="229" y="107.292">:ViewScrumBoardUI</text><rect fill="#FFFFFF" height="30.2969" rx="2.5" ry="2.5" style="stroke:#181818;stroke-width:0.5;" width="149" x="222" y="1309.2266"/><text fill="#000000" font-family="sans-serif" font-size="14" lengthAdjust="spacing" textLength="135" x="229" y="1329.2217">:ViewScrumBoardUI</text><rect fill="#FFFFFF" height="46.5938" rx="2.5" ry="2.5" style="stroke:#181818;stroke-width:0.5;" width="114" x="520.5" y="71"/><text fill="#000000" font-family="sans-serif" font-size="14" lengthAdjust="spacing" textLength="100" x="527.5" y="90.9951">:SprintBacklog</text><text fill="#000000" font-family="sans-serif" font-size="14" lengthAdjust="spacing" textLength="67" x="544" y="107.292">Controller</text><rect fill="#FFFFFF" height="46.5938" rx="2.5" ry="2.5" style="stroke:#181818;stroke-width:0.5;" width="114" x="520.5" y="1309.2266"/><text fill="#000000" font-family="sans-serif" font-size="14" lengthAdjust="spacing" textLength="100" x="527.5" y="1329.2217">:SprintBacklog</text><text fill="#000000" font-family="sans-serif" font-size="14" lengthAdjust="spacing" textLength="67" x="544" y="1345.5186">Controller</text><rect fill="#FFFFFF" height="62.8906" rx="2.5" ry="2.5" style="stroke:#181818;stroke-width:0.5;" width="182" x="783.5" y="1309.2266"/><text fill="#000000" font-family="sans-serif" font-size="14" lengthAdjust="spacing" textLength="101" x="824" y="1329.2217">&#171;ValueObject&#187;</text><text fill="#000000" font-family="sans-serif" font-size="14" lengthAdjust="spacing" textLength="168" x="790.5" y="1345.5186">projectCodeValueObject</text><text fill="#000000" font-family="sans-serif" font-size="14" lengthAdjust="spacing" textLength="90" x="829.5" y="1361.8154">:ProjectCode</text><rect fill="#FFFFFF" height="62.8906" rx="2.5" ry="2.5" style="stroke:#181818;stroke-width:0.5;" width="173" x="975.5" y="1309.2266"/><text fill="#000000" font-family="sans-serif" font-size="14" lengthAdjust="spacing" textLength="101" x="1011.5" y="1329.2217">&#171;ValueObject&#187;</text><text fill="#000000" font-family="sans-serif" font-size="14" lengthAdjust="spacing" textLength="159" x="982.5" y="1345.5186">sprintCodeValueObject</text><text fill="#000000" font-family="sans-serif" font-size="14" lengthAdjust="spacing" textLength="82" x="1021" y="1361.8154">:SprintCode</text><rect fill="#FFFFFF" height="62.8906" rx="2.5" ry="2.5" style="stroke:#181818;stroke-width:0.5;" width="177" x="1158.5" y="1309.2266"/><text fill="#000000" font-family="sans-serif" font-size="14" lengthAdjust="spacing" textLength="49" x="1222.5" y="1329.2217">&#171;DTO&#187;</text><text fill="#000000" font-family="sans-serif" font-size="14" lengthAdjust="spacing" textLength="156" x="1169" y="1345.5186">viewSprintBacklogDTO</text><text fill="#000000" font-family="sans-serif" font-size="14" lengthAdjust="spacing" textLength="163" x="1165.5" y="1361.8154">:ViewSprintBacklogDTO</text><rect fill="#FFFFFF" height="62.8906" rx="2.5" ry="2.5" style="stroke:#181818;stroke-width:0.5;" width="136" x="1345.5" y="1309.2266"/><text fill="#000000" font-family="sans-serif" font-size="14" lengthAdjust="spacing" textLength="110" x="1358.5" y="1329.2217">CollectionModel</text><text fill="#000000" font-family="sans-serif" font-size="14" lengthAdjust="spacing" textLength="122" x="1352.5" y="1345.5186">&lt;UserStoryDTO&gt;</text><text fill="#000000" font-family="sans-serif" font-size="14" lengthAdjust="spacing" textLength="108" x="1359.5" y="1361.8154">collectionModel</text><rect fill="#FFFFFF" height="46.5938" rx="2.5" ry="2.5" style="stroke:#181818;stroke-width:0.5;" width="109" x="1491.5" y="71"/><text fill="#000000" font-family="sans-serif" font-size="14" lengthAdjust="spacing" textLength="89" x="1501.5" y="90.9951">sprintService</text><text fill="#000000" font-family="sans-serif" font-size="14" lengthAdjust="spacing" textLength="95" x="1498.5" y="107.292">:SprintService</text><rect fill="#FFFFFF" height="46.5938" rx="2.5" ry="2.5" style="stroke:#181818;stroke-width:0.5;" width="109" x="1491.5" y="1309.2266"/><text fill="#000000" font-family="sans-serif" font-size="14" lengthAdjust="spacing" textLength="89" x="1501.5" y="1329.2217">sprintService</text><text fill="#000000" font-family="sans-serif" font-size="14" lengthAdjust="spacing" textLength="95" x="1498.5" y="1345.5186">:SprintService</text><rect fill="#FFFFFF" height="62.8906" rx="2.5" ry="2.5" style="stroke:#181818;stroke-width:0.5;" width="115" x="1820" y="1309.2266"/><text fill="#000000" font-family="sans-serif" font-size="14" lengthAdjust="spacing" textLength="101" x="1827" y="1329.2217">&#171;ValueObject&#187;</text><text fill="#000000" font-family="sans-serif" font-size="14" lengthAdjust="spacing" textLength="98" x="1828.5" y="1345.5186">sprintIdentifier</text><text fill="#000000" font-family="sans-serif" font-size="14" lengthAdjust="spacing" textLength="59" x="1848" y="1361.8154">:SprintID</text><rect fill="#FFFFFF" height="46.5938" rx="2.5" ry="2.5" style="stroke:#181818;stroke-width:0.5;" width="141" x="1945" y="71"/><text fill="#000000" font-family="sans-serif" font-size="14" lengthAdjust="spacing" textLength="92" x="1969.5" y="90.9951">&#171;Repository&#187;</text><text fill="#000000" font-family="sans-serif" font-size="14" lengthAdjust="spacing" textLength="127" x="1952" y="107.292">:ProjectRepository</text><rect fill="#FFFFFF" height="46.5938" rx="2.5" ry="2.5" style="stroke:#181818;stroke-width:0.5;" width="141" x="1945" y="1309.2266"/><text fill="#000000" font-family="sans-serif" font-size="14" lengthAdjust="spacing" textLength="92" x="1969.5" y="1329.2217">&#171;Repository&#187;</text><text fill="#000000" font-family="sans-serif" font-size="14" lengthAdjust="spacing" textLength="127" x="1952" y="1345.5186">:ProjectRepository</text><rect fill="#FFFFFF" height="46.5938" rx="2.5" ry="2.5" style="stroke:#181818;stroke-width:0.5;" width="133" x="2096" y="71"/><text fill="#000000" font-family="sans-serif" font-size="14" lengthAdjust="spacing" textLength="92" x="2116.5" y="90.9951">&#171;Repository&#187;</text><text fill="#000000" font-family="sans-serif" font-size="14" lengthAdjust="spacing" textLength="119" x="2103" y="107.292">:SprintRepository</text><rect fill="#FFFFFF" height="46.5938" rx="2.5" ry="2.5" style="stroke:#181818;stroke-width:0.5;" width="133" x="2096" y="1309.2266"/><text fill="#000000" font-family="sans-serif" font-size="14" lengthAdjust="spacing" textLength="92" x="2116.5" y="1329.2217">&#171;Repository&#187;</text><text fill="#000000" font-family="sans-serif" font-size="14" lengthAdjust="spacing" textLength="119" x="2103" y="1345.5186">:SprintRepository</text><rect fill="#FFFFFF" height="46.5938" rx="2.5" ry="2.5" style="stroke:#181818;stroke-width:0.5;" width="104" x="2239" y="71"/><text fill="#000000" font-family="sans-serif" font-size="14" lengthAdjust="spacing" textLength="90" x="2246" y="90.9951">currentSprint</text><text fill="#000000" font-family="sans-serif" font-size="14" lengthAdjust="spacing" textLength="45" x="2268.5" y="107.292">:Sprint</text><rect fill="#FFFFFF" height="46.5938" rx="2.5" ry="2.5" style="stroke:#181818;stroke-width:0.5;" width="104" x="2239" y="1309.2266"/><text fill="#000000" font-family="sans-serif" font-size="14" lengthAdjust="spacing" textLength="90" x="2246" y="1329.2217">currentSprint</text><text fill="#000000" font-family="sans-serif" font-size="14" lengthAdjust="spacing" textLength="45" x="2268.5" y="1345.5186">:Sprint</text><rect fill="#FFFFFF" height="46.5938" rx="2.5" ry="2.5" style="stroke:#181818;stroke-width:0.5;" width="160" x="2353" y="71"/><text fill="#000000" font-family="sans-serif" font-size="14" lengthAdjust="spacing" textLength="92" x="2387" y="90.9951">&#171;Repository&#187;</text><text fill="#000000" font-family="sans-serif" font-size="14" lengthAdjust="spacing" textLength="146" x="2360" y="107.292">:UserStoryRepository</text><rect fill="#FFFFFF" height="46.5938" rx="2.5" ry="2.5" style="stroke:#181818;stroke-width:0.5;" width="160" x="2353" y="1309.2266"/><text fill="#000000" font-family="sans-serif" font-size="14" lengthAdjust="spacing" textLength="92" x="2387" y="1329.2217">&#171;Repository&#187;</text><text fill="#000000" font-family="sans-serif" font-size="14" lengthAdjust="spacing" textLength="146" x="2360" y="1345.5186">:UserStoryRepository</text><rect fill="#FFFFFF" height="30.2969" rx="2.5" ry="2.5" style="stroke:#181818;stroke-width:0.5;" width="207" x="2523" y="87.2969"/><text fill="#000000" font-family="sans-serif" font-size="14" lengthAdjust="spacing" textLength="193" x="2530" y="107.292">:OutputUserStoryAssembler</text><rect fill="#FFFFFF" height="30.2969" rx="2.5" ry="2.5" style="stroke:#181818;stroke-width:0.5;" width="207" x="2523" y="1309.2266"/><text fill="#000000" font-family="sans-serif" font-size="14" lengthAdjust="spacing" textLength="193" x="2530" y="1329.2217">:OutputUserStoryAssembler</text><rect fill="#FFFFFF" height="46.5938" rx="2.5" ry="2.5" style="stroke:#181818;stroke-width:0.5;" width="164" x="2795.5" y="1309.2266"/><text fill="#000000" font-family="sans-serif" font-size="14" lengthAdjust="spacing" textLength="89" x="2833" y="1329.2217">userStoryList</text><text fill="#000000" font-family="sans-serif" font-size="14" lengthAdjust="spacing" textLength="150" x="2802.5" y="1345.5186">:List&lt;UserStoryDTO&gt;</text><rect fill="#FFFFFF" height="1142.5" style="stroke:#181818;stroke-width:1.0;" width="10" x="291.5" y="149.7266"/><rect fill="#FFFFFF" height="1053.9688" style="stroke:#181818;stroke-width:1.0;" width="10" x="572.5" y="193.9922"/><rect fill="#FFFFFF" height="626.7422" style="stroke:#181818;stroke-width:1.0;" width="10" x="1541" y="518.1953"/><rect fill="#FFFFFF" height="29.1328" style="stroke:#181818;stroke-width:1.0;" width="10" x="2010.5" y="621.2188"/><rect fill="#FFFFFF" height="29.1328" style="stroke:#181818;stroke-width:1.0;" width="10" x="2157.5" y="679.4844"/><rect fill="#FFFFFF" height="29.1328" style="stroke:#181818;stroke-width:1.0;" width="10" x="2286" y="737.75"/><rect fill="#FFFFFF" height="29.1328" style="stroke:#181818;stroke-width:1.0;" width="10" x="2428" y="796.0156"/><rect fill="#FFFFFF" height="261.5234" style="stroke:#181818;stroke-width:1.0;" width="10" x="2621.5" y="854.2813"/><polygon fill="#181818" points="279.5,145.7266,289.5,149.7266,279.5,153.7266,283.5,149.7266" style="stroke:#181818;stroke-width:1.0;"/><line style="stroke:#181818;stroke-width:1.0;" x1="60.5" x2="285.5" y1="149.7266" y2="149.7266"/><text fill="#000000" font-family="sans-serif" font-size="13" font-weight="bold" lengthAdjust="spacing" textLength="9" x="90.5" y="144.6606">1</text><text fill="#000000" font-family="sans-serif" font-size="13" lengthAdjust="spacing" textLength="158" x="103.5" y="144.6606">ask to view Scrum Board</text><polygon fill="#181818" points="560.5,189.9922,570.5,193.9922,560.5,197.9922,564.5,193.9922" style="stroke:#181818;stroke-width:1.0;"/><line style="stroke:#181818;stroke-width:1.0;" x1="301.5" x2="566.5" y1="193.9922" y2="193.9922"/><text fill="#000000" font-family="sans-serif" font-size="13" font-weight="bold" lengthAdjust="spacing" textLength="9" x="312.5" y="181.3599">2</text><text fill="#000000" font-family="sans-serif" font-size="13" lengthAdjust="spacing" textLength="112" x="387.5" y="173.7935">showScrumBoard</text><text fill="#000000" font-family="sans-serif" font-size="13" lengthAdjust="spacing" textLength="236" x="325.5" y="188.9263">(projectCodeValue, sprintCodeValue)</text><polygon fill="#181818" points="771.5,219.125,781.5,223.125,771.5,227.125,775.5,223.125" style="stroke:#181818;stroke-width:1.0;"/><line style="stroke:#181818;stroke-width:1.0;" x1="582.5" x2="777.5" y1="223.125" y2="223.125"/><text fill="#000000" font-family="sans-serif" font-size="13" font-weight="bold" lengthAdjust="spacing" textLength="9" x="594.5" y="218.0591">3</text><text fill="#000000" font-family="sans-serif" font-size="13" lengthAdjust="spacing" textLength="164" x="607.5" y="218.0591">create(projectCodeValue)</text><rect fill="#FFFFFF" height="62.8906" rx="2.5" ry="2.5" style="stroke:#181818;stroke-width:0.5;" width="182" x="783.5" y="201.9922"/><text fill="#000000" font-family="sans-serif" font-size="14" lengthAdjust="spacing" textLength="101" x="824" y="221.9873">&#171;ValueObject&#187;</text><text fill="#000000" font-family="sans-serif" font-size="14" lengthAdjust="spacing" textLength="168" x="790.5" y="238.2842">projectCodeValueObject</text><text fill="#000000" font-family="sans-serif" font-size="14" lengthAdjust="spacing" textLength="90" x="829.5" y="254.5811">:ProjectCode</text><polygon fill="#181818" points="963.5,293.0156,973.5,297.0156,963.5,301.0156,967.5,297.0156" style="stroke:#181818;stroke-width:1.0;"/><line style="stroke:#181818;stroke-width:1.0;" x1="582.5" x2="969.5" y1="297.0156" y2="297.0156"/><text fill="#000000" font-family="sans-serif" font-size="13" font-weight="bold" lengthAdjust="spacing" textLength="9" x="694.5" y="291.9497">4</text><text fill="#000000" font-family="sans-serif" font-size="13" lengthAdjust="spacing" textLength="156" x="707.5" y="291.9497">create(sprintCodeValue)</text><rect fill="#FFFFFF" height="62.8906" rx="2.5" ry="2.5" style="stroke:#181818;stroke-width:0.5;" width="173" x="975.5" y="275.8828"/><text fill="#000000" font-family="sans-serif" font-size="14" lengthAdjust="spacing" textLength="101" x="1011.5" y="295.8779">&#171;ValueObject&#187;</text><text fill="#000000" font-family="sans-serif" font-size="14" lengthAdjust="spacing" textLength="159" x="982.5" y="312.1748">sprintCodeValueObject</text><text fill="#000000" font-family="sans-serif" font-size="14" lengthAdjust="spacing" textLength="82" x="1021" y="328.4717">:SprintCode</text><polygon fill="#181818" points="1146.5,366.9063,1156.5,370.9063,1146.5,374.9063,1150.5,370.9063" style="stroke:#181818;stroke-width:1.0;"/><line style="stroke:#181818;stroke-width:1.0;" x1="582.5" x2="1152.5" y1="370.9063" y2="370.9063"/><text fill="#000000" font-family="sans-serif" font-size="13" font-weight="bold" lengthAdjust="spacing" textLength="9" x="838.5" y="365.8403">5</text><text fill="#000000" font-family="sans-serif" font-size="13" lengthAdjust="spacing" textLength="51" x="851.5" y="365.8403">create()</text><rect fill="#FFFFFF" height="62.8906" rx="2.5" ry="2.5" style="stroke:#181818;stroke-width:0.5;" width="177" x="1158.5" y="349.7734"/><text fill="#000000" font-family="sans-serif" font-size="14" lengthAdjust="spacing" textLength="49" x="1222.5" y="369.7686">&#171;DTO&#187;</text><text fill="#000000" font-family="sans-serif" font-size="14" lengthAdjust="spacing" textLength="156" x="1169" y="386.0654">viewSprintBacklogDTO</text><text fill="#000000" font-family="sans-serif" font-size="14" lengthAdjust="spacing" textLength="163" x="1165.5" y="402.3623">:ViewSprintBacklogDTO</text><polygon fill="#181818" points="1235,440.7969,1245,444.7969,1235,448.7969,1239,444.7969" style="stroke:#181818;stroke-width:1.0;"/><line style="stroke:#181818;stroke-width:1.0;" x1="582.5" x2="1241" y1="444.7969" y2="444.7969"/><text fill="#000000" font-family="sans-serif" font-size="13" font-weight="bold" lengthAdjust="spacing" textLength="9" x="710.25" y="439.731">6</text><text fill="#000000" font-family="sans-serif" font-size="13" lengthAdjust="spacing" textLength="396" x="723.25" y="439.731">viewSprintBacklogDTO.projectCode = projectCodeValueObject</text><polygon fill="#181818" points="1235,469.9297,1245,473.9297,1235,477.9297,1239,473.9297" style="stroke:#181818;stroke-width:1.0;"/><line style="stroke:#181818;stroke-width:1.0;" x1="582.5" x2="1241" y1="473.9297" y2="473.9297"/><text fill="#000000" font-family="sans-serif" font-size="13" font-weight="bold" lengthAdjust="spacing" textLength="9" x="718.25" y="468.8638">7</text><text fill="#000000" font-family="sans-serif" font-size="13" lengthAdjust="spacing" textLength="380" x="731.25" y="468.8638">viewSprintBacklogDTO.sprintCode = sprintCodeValueObject</text><polygon fill="#181818" points="1529,514.1953,1539,518.1953,1529,522.1953,1533,518.1953" style="stroke:#181818;stroke-width:1.0;"/><line style="stroke:#181818;stroke-width:1.0;" x1="582.5" x2="1535" y1="518.1953" y2="518.1953"/><text fill="#000000" font-family="sans-serif" font-size="13" font-weight="bold" lengthAdjust="spacing" textLength="9" x="979.25" y="505.563">8</text><text fill="#000000" font-family="sans-serif" font-size="13" lengthAdjust="spacing" textLength="112" x="1012.25" y="497.9966">showScrumBoard</text><text fill="#000000" font-family="sans-serif" font-size="13" lengthAdjust="spacing" textLength="152" x="992.25" y="513.1294">(viewSprintBacklogDTO)</text><polygon fill="#181818" points="1808,573.5938,1818,577.5938,1808,581.5938,1812,577.5938" style="stroke:#181818;stroke-width:1.0;"/><line style="stroke:#181818;stroke-width:1.0;" x1="1551" x2="1814" y1="577.5938" y2="577.5938"/><text fill="#000000" font-family="sans-serif" font-size="13" font-weight="bold" lengthAdjust="spacing" textLength="9" x="1563" y="557.395">9</text><text fill="#000000" font-family="sans-serif" font-size="13" lengthAdjust="spacing" textLength="41" x="1671.5" y="542.2622">create</text><text fill="#000000" font-family="sans-serif" font-size="13" lengthAdjust="spacing" textLength="232" x="1576" y="557.395">(viewSprintBacklogDTO.projectCode,</text><text fill="#000000" font-family="sans-serif" font-size="13" lengthAdjust="spacing" textLength="220" x="1582" y="572.5278">viewSprintBacklogDTO.sprintCode)</text><rect fill="#FFFFFF" height="62.8906" rx="2.5" ry="2.5" style="stroke:#181818;stroke-width:0.5;" width="115" x="1820" y="526.1953"/><text fill="#000000" font-family="sans-serif" font-size="14" lengthAdjust="spacing" textLength="101" x="1827" y="546.1904">&#171;ValueObject&#187;</text><text fill="#000000" font-family="sans-serif" font-size="14" lengthAdjust="spacing" textLength="98" x="1828.5" y="562.4873">sprintIdentifier</text><text fill="#000000" font-family="sans-serif" font-size="14" lengthAdjust="spacing" textLength="59" x="1848" y="578.7842">:SprintID</text><polygon fill="#181818" points="1998.5,617.2188,2008.5,621.2188,1998.5,625.2188,2002.5,621.2188" style="stroke:#181818;stroke-width:1.0;"/><line style="stroke:#181818;stroke-width:1.0;" x1="1551" x2="2004.5" y1="621.2188" y2="621.2188"/><text fill="#000000" font-family="sans-serif" font-size="13" font-weight="bold" lengthAdjust="spacing" textLength="18" x="1620.25" y="616.1528">10</text><text fill="#000000" font-family="sans-serif" font-size="13" lengthAdjust="spacing" textLength="299" x="1642.25" y="616.1528">existsByID(viewSprintBacklogDTO.projectCode)</text><polygon fill="#181818" points="1562,646.3516,1552,650.3516,1562,654.3516,1558,650.3516" style="stroke:#181818;stroke-width:1.0;"/><line style="stroke:#181818;stroke-width:1.0;stroke-dasharray:2.0,2.0;" x1="1556" x2="2014.5" y1="650.3516" y2="650.3516"/><text fill="#000000" font-family="sans-serif" font-size="13" font-weight="bold" lengthAdjust="spacing" textLength="18" x="1742.25" y="645.2856">11</text><text fill="#000000" font-family="sans-serif" font-size="13" lengthAdjust="spacing" textLength="60" x="1764.25" y="645.2856">true/false</text><polygon fill="#181818" points="2145.5,675.4844,2155.5,679.4844,2145.5,683.4844,2149.5,679.4844" style="stroke:#181818;stroke-width:1.0;"/><line style="stroke:#181818;stroke-width:1.0;" x1="1551" x2="2151.5" y1="679.4844" y2="679.4844"/><text fill="#000000" font-family="sans-serif" font-size="13" font-weight="bold" lengthAdjust="spacing" textLength="18" x="1764.75" y="674.4185">12</text><text fill="#000000" font-family="sans-serif" font-size="13" lengthAdjust="spacing" textLength="157" x="1786.75" y="674.4185">findByID (sprintIdentifier)</text><polygon fill="#181818" points="1562,704.6172,1552,708.6172,1562,712.6172,1558,708.6172" style="stroke:#181818;stroke-width:1.0;"/><line style="stroke:#181818;stroke-width:1.0;stroke-dasharray:2.0,2.0;" x1="1556" x2="2161.5" y1="708.6172" y2="708.6172"/><text fill="#000000" font-family="sans-serif" font-size="13" font-weight="bold" lengthAdjust="spacing" textLength="18" x="1803.75" y="703.5513">13</text><text fill="#000000" font-family="sans-serif" font-size="13" lengthAdjust="spacing" textLength="84" x="1825.75" y="703.5513">currentSprint</text><polygon fill="#181818" points="2274,733.75,2284,737.75,2274,741.75,2278,737.75" style="stroke:#181818;stroke-width:1.0;"/><line style="stroke:#181818;stroke-width:1.0;" x1="1551" x2="2280" y1="737.75" y2="737.75"/><text fill="#000000" font-family="sans-serif" font-size="13" font-weight="bold" lengthAdjust="spacing" textLength="18" x="1788" y="732.6841">14</text><text fill="#000000" font-family="sans-serif" font-size="13" lengthAdjust="spacing" textLength="239" x="1810" y="732.6841">getIDsOfUserStoriesInSprintBacklog()</text><polygon fill="#181818" points="1562,762.8828,1552,766.8828,1562,770.8828,1558,766.8828" style="stroke:#181818;stroke-width:1.0;"/><line style="stroke:#181818;stroke-width:1.0;stroke-dasharray:2.0,2.0;" x1="1556" x2="2290" y1="766.8828" y2="766.8828"/><text fill="#000000" font-family="sans-serif" font-size="13" font-weight="bold" lengthAdjust="spacing" textLength="18" x="1867" y="761.8169">15</text><text fill="#000000" font-family="sans-serif" font-size="13" lengthAdjust="spacing" textLength="86" x="1889" y="761.8169">sprintBacklog</text><polygon fill="#181818" points="2416,792.0156,2426,796.0156,2416,800.0156,2420,796.0156" style="stroke:#181818;stroke-width:1.0;"/><line style="stroke:#181818;stroke-width:1.0;" x1="1551" x2="2422" y1="796.0156" y2="796.0156"/><text fill="#000000" font-family="sans-serif" font-size="13" font-weight="bold" lengthAdjust="spacing" textLength="18" x="1897" y="790.9497">16</text><text fill="#000000" font-family="sans-serif" font-size="13" lengthAdjust="spacing" textLength="163" x="1919" y="790.9497">findAllByID(sprintBacklog)</text><polygon fill="#181818" points="1562,821.1484,1552,825.1484,1562,829.1484,1558,825.1484" style="stroke:#181818;stroke-width:1.0;"/><line style="stroke:#181818;stroke-width:1.0;stroke-dasharray:2.0,2.0;" x1="1556" x2="2432" y1="825.1484" y2="825.1484"/><text fill="#000000" font-family="sans-serif" font-size="13" font-weight="bold" lengthAdjust="spacing" textLength="18" x="1939" y="820.0825">17</text><text fill="#000000" font-family="sans-serif" font-size="13" lengthAdjust="spacing" textLength="84" x="1961" y="820.0825">userStoryList</text><polygon fill="#181818" points="2609.5,850.2813,2619.5,854.2813,2609.5,858.2813,2613.5,854.2813" style="stroke:#181818;stroke-width:1.0;"/><line style="stroke:#181818;stroke-width:1.0;" x1="1551" x2="2615.5" y1="854.2813" y2="854.2813"/><text fill="#000000" font-family="sans-serif" font-size="13" font-weight="bold" lengthAdjust="spacing" textLength="18" x="1955.75" y="849.2153">18</text><text fill="#000000" font-family="sans-serif" font-size="13" lengthAdjust="spacing" textLength="239" x="1977.75" y="849.2153">userStoryList(userStoryList.iterator())</text><polygon fill="#181818" points="2783.5,879.4141,2793.5,883.4141,2783.5,887.4141,2787.5,883.4141" style="stroke:#181818;stroke-width:1.0;"/><line style="stroke:#181818;stroke-width:1.0;" x1="2631.5" x2="2789.5" y1="883.4141" y2="883.4141"/><text fill="#000000" font-family="sans-serif" font-size="13" font-weight="bold" lengthAdjust="spacing" textLength="18" x="2677" y="878.3481">19</text><text fill="#000000" font-family="sans-serif" font-size="13" lengthAdjust="spacing" textLength="51" x="2699" y="878.3481">create()</text><rect fill="#FFFFFF" height="46.5938" rx="2.5" ry="2.5" style="stroke:#181818;stroke-width:0.5;" width="164" x="2795.5" y="862.2813"/><text fill="#000000" font-family="sans-serif" font-size="14" lengthAdjust="spacing" textLength="89" x="2833" y="882.2764">userStoryList</text><text fill="#000000" font-family="sans-serif" font-size="14" lengthAdjust="spacing" textLength="150" x="2802.5" y="898.5732">:List&lt;UserStoryDTO&gt;</text><path d="M2513,926.875 L2590,926.875 L2590,934.0078 L2580,944.0078 L2513,944.0078 L2513,926.875 " fill="#FFFFFF" style="stroke:#000000;stroke-width:1.5;"/><rect fill="none" height="160.7969" style="stroke:#000000;stroke-width:1.5;" width="456.5" x="2513" y="926.875"/><text fill="#000000" font-family="sans-serif" font-size="13" font-weight="bold" lengthAdjust="spacing" textLength="32" x="2528" y="939.9419">loop</text><text fill="#000000" font-family="sans-serif" font-size="11" font-weight="bold" lengthAdjust="spacing" textLength="185" x="2605" y="939.0854">[userStoryIterator.hasNext()]</text><line style="stroke:#181818;stroke-width:1.0;" x1="2631.5" x2="2673.5" y1="980.2734" y2="980.2734"/><line style="stroke:#181818;stroke-width:1.0;" x1="2673.5" x2="2673.5" y1="980.2734" y2="993.2734"/><line style="stroke:#181818;stroke-width:1.0;" x1="2632.5" x2="2673.5" y1="993.2734" y2="993.2734"/><polygon fill="#181818" points="2642.5,989.2734,2632.5,993.2734,2642.5,997.2734,2638.5,993.2734" style="stroke:#181818;stroke-width:1.0;"/><text fill="#000000" font-family="sans-serif" font-size="13" font-weight="bold" lengthAdjust="spacing" textLength="18" x="2638.5" y="967.6411">20</text><text fill="#000000" font-family="sans-serif" font-size="13" lengthAdjust="spacing" textLength="121" x="2675.5" y="960.0747">currentUserStory=</text><text fill="#000000" font-family="sans-serif" font-size="13" lengthAdjust="spacing" textLength="151" x="2660.5" y="975.2075">userStoryIterator.next()</text><line style="stroke:#181818;stroke-width:1.0;" x1="2631.5" x2="2673.5" y1="1037.5391" y2="1037.5391"/><line style="stroke:#181818;stroke-width:1.0;" x1="2673.5" x2="2673.5" y1="1037.5391" y2="1050.5391"/><line style="stroke:#181818;stroke-width:1.0;" x1="2632.5" x2="2673.5" y1="1050.5391" y2="1050.5391"/><polygon fill="#181818" points="2642.5,1046.5391,2632.5,1050.5391,2642.5,1054.5391,2638.5,1050.5391" style="stroke:#181818;stroke-width:1.0;"/><text fill="#000000" font-family="sans-serif" font-size="13" font-weight="bold" lengthAdjust="spacing" textLength="18" x="2638.5" y="1024.9067">21</text><text fill="#000000" font-family="sans-serif" font-size="13" lengthAdjust="spacing" textLength="100" x="2713" y="1017.3403">userStoryDTO=</text><text fill="#000000" font-family="sans-serif" font-size="13" lengthAdjust="spacing" textLength="205" x="2660.5" y="1032.4731">generateDTO(currentUserStory)</text><polygon fill="#181818" points="2865.5,1075.6719,2875.5,1079.6719,2865.5,1083.6719,2869.5,1079.6719" style="stroke:#181818;stroke-width:1.0;"/><line style="stroke:#181818;stroke-width:1.0;" x1="2631.5" x2="2871.5" y1="1079.6719" y2="1079.6719"/><text fill="#000000" font-family="sans-serif" font-size="13" font-weight="bold" lengthAdjust="spacing" textLength="18" x="2682" y="1074.606">22</text><text fill="#000000" font-family="sans-serif" font-size="13" lengthAdjust="spacing" textLength="123" x="2704" y="1074.606">add(userStoryDTO)</text><polygon fill="#181818" points="1562,1111.8047,1552,1115.8047,1562,1119.8047,1558,1115.8047" style="stroke:#181818;stroke-width:1.0;"/><line style="stroke:#181818;stroke-width:1.0;stroke-dasharray:2.0,2.0;" x1="1556" x2="2625.5" y1="1115.8047" y2="1115.8047"/><text fill="#000000" font-family="sans-serif" font-size="13" font-weight="bold" lengthAdjust="spacing" textLength="18" x="2035.75" y="1110.7388">23</text><text fill="#000000" font-family="sans-serif" font-size="13" lengthAdjust="spacing" textLength="84" x="2057.75" y="1110.7388">userStoryList</text><polygon fill="#181818" points="593.5,1140.9375,583.5,1144.9375,593.5,1148.9375,589.5,1144.9375" style="stroke:#181818;stroke-width:1.0;"/><line style="stroke:#181818;stroke-width:1.0;stroke-dasharray:2.0,2.0;" x1="587.5" x2="1545" y1="1144.9375" y2="1144.9375"/><text fill="#000000" font-family="sans-serif" font-size="13" font-weight="bold" lengthAdjust="spacing" textLength="18" x="953.75" y="1139.8716">24</text><text fill="#000000" font-family="sans-serif" font-size="13" lengthAdjust="spacing" textLength="199" x="975.75" y="1139.8716">listOfUserStoryDTOsWithStatus</text><polygon fill="#181818" points="1333.5,1170.0703,1343.5,1174.0703,1333.5,1178.0703,1337.5,1174.0703" style="stroke:#181818;stroke-width:1.0;"/><line style="stroke:#181818;stroke-width:1.0;" x1="582.5" x2="1339.5" y1="1174.0703" y2="1174.0703"/><text fill="#000000" font-family="sans-serif" font-size="13" font-weight="bold" lengthAdjust="spacing" textLength="18" x="830.5" y="1169.0044">25</text><text fill="#000000" font-family="sans-serif" font-size="13" lengthAdjust="spacing" textLength="245" x="852.5" y="1169.0044">create(lisOfUserStoryDTOsWithStatus)</text><rect fill="#FFFFFF" height="62.8906" rx="2.5" ry="2.5" style="stroke:#181818;stroke-width:0.5;" width="136" x="1345.5" y="1152.9375"/><text fill="#000000" font-family="sans-serif" font-size="14" lengthAdjust="spacing" textLength="110" x="1358.5" y="1172.9326">CollectionModel</text><text fill="#000000" font-family="sans-serif" font-size="14" lengthAdjust="spacing" textLength="122" x="1352.5" y="1189.2295">&lt;UserStoryDTO&gt;</text><text fill="#000000" font-family="sans-serif" font-size="14" lengthAdjust="spacing" textLength="108" x="1359.5" y="1205.5264">collectionModel</text><polygon fill="#181818" points="312.5,1243.9609,302.5,1247.9609,312.5,1251.9609,308.5,1247.9609" style="stroke:#181818;stroke-width:1.0;"/><line style="stroke:#181818;stroke-width:1.0;stroke-dasharray:2.0,2.0;" x1="306.5" x2="576.5" y1="1247.9609" y2="1247.9609"/><text fill="#000000" font-family="sans-serif" font-size="13" font-weight="bold" lengthAdjust="spacing" textLength="18" x="316" y="1242.895">26</text><text fill="#000000" font-family="sans-serif" font-size="13" lengthAdjust="spacing" textLength="225" x="338" y="1242.895">ResponseEntity.ok(collectionModel)</text><polygon fill="#181818" points="71.5,1288.2266,61.5,1292.2266,71.5,1296.2266,67.5,1292.2266" style="stroke:#181818;stroke-width:1.0;"/><line style="stroke:#181818;stroke-width:1.0;stroke-dasharray:2.0,2.0;" x1="65.5" x2="295.5" y1="1292.2266" y2="1292.2266"/><text fill="#000000" font-family="sans-serif" font-size="13" font-weight="bold" lengthAdjust="spacing" textLength="18" x="75" y="1279.5942">27</text><text fill="#000000" font-family="sans-serif" font-size="13" lengthAdjust="spacing" textLength="185" x="97" y="1272.0278">list of user stories and status</text><text fill="#000000" font-family="sans-serif" font-size="13" lengthAdjust="spacing" textLength="127" x="126" y="1287.1606">of the current sprint</text><!--SRC=[bPPDKzim48Rl_XKQUh47I3iSCy1CI3gjPqhf4A0NNuIzITGOoPLaFlvz9TcM9Tcf8GUmLhlFwrrhToJsX5QOuoSau6yDD8Th409lOL6IBKKvK0ay4jOBvvBnAvpljvpLj5Yoad7qiYCI72VrLvASL9ZAATTEzHOsmFN3XmE-0ow0lpVic_AfnfqZN4j6wwT7bN0aYIm1tQ-_d9sXKxGG2ACxK9nhqFidA4KlAZia6Necy8Ba3j0wv_KJkcAO5uXjZ2clkNf7YKJ52PLAGLSF7SqTr172egbgv9HD-Jmeha4Qudrg76iIUAqDMITKicr6bunApigovUPswOUTdp_WieQRnp-GoylBZ5QSwSSbAy3PoUZyLxzXYCvw0jdaF2IkhTq0-sN8MztTQ8wkhvUbiYlCmuZP0DL_dxJK1SWbOVHQgPGPFRyNmDUguczQ8gEvxz1MpZNvm2QpDV1daeFDg5sRQC_ZNNLA2tLEo8O0jy1qvR3ILOYvXOe9ehFGbEv3zLOJN8NM2KgZ7414OFGPxHbl8Yt22PoGj1yZKAs7zk3itzIoggMDNmYXEgex-dRb1rdg3oBqs-f__damqTgi3rBNigUNglMEZz5SRUvjrpiT7zL4E_KDPvp5ZZazdD4uxBCJ5BH94Y7ropbW2Lwp6REbQordLqar8GC1Z-VqsX3NR_Qq_xsSBi-GegnzU7BGOQofPywxemiqFf8-HkpVNm571r8q0lIwT_mxZgarsJeLiftRsJrmhvIkRCaEeDtId8oFH2VNvB3WO1wOzE1L7NTnzPQk9jLxDWTPSueah-7p1fS2fj8CH3U45beInU4476Xu8oQQqZ7qBQYoYfjDrze4H4gznEA1Z72t3wkC32QRqA8iJHazr4386qA7XUm8CtWlAFPMCtLzuLYjuYI9mbFOZRBERAbQejqCMrR_IiOgzCbSZNhjj1MQxR3u2Q_IyVUu_MBUVJqxP2yoEkJHTy9gPrGhq1Qe1e1QnQ5ECfKoBehOvVK1G8kcZgCVh3MMwha_O1eWVXEvMqiiQn6rrG_k4VwWyJVxZw381y599tyBec9Km5VLDV9jnlPnS8z9t1VLDrAT1H9DCo1C2_MiYHaTlQt-0m00]--></g></svg>