<?xml version="1.0" encoding="us-ascii" standalone="no"?><svg xmlns="http://www.w3.org/2000/svg" xmlns:xlink="http://www.w3.org/1999/xlink" contentStyleType="text/css" height="642px" preserveAspectRatio="none" style="width:1531px;height:642px;background:#FFFFFF;" version="1.1" viewBox="0 0 1531 642" width="1531px" zoomAndPan="magnify"><defs/><g><text fill="#000000" font-family="sans-serif" font-size="14" font-weight="bold" lengthAdjust="spacing" textLength="468" x="530.5" y="27.9951">US006 - As Administrator, I want to activate a user account</text><rect fill="#FFFFFF" height="393.6797" style="stroke:#181818;stroke-width:1.0;" width="10" x="254" y="149.7266"/><rect fill="#FFFFFF" height="335.4141" style="stroke:#181818;stroke-width:1.0;" width="10" x="480" y="178.8594"/><rect fill="#FFFFFF" height="277.1484" style="stroke:#181818;stroke-width:1.0;" width="10" x="881" y="207.9922"/><rect fill="#FFFFFF" height="29.1328" style="stroke:#181818;stroke-width:1.0;" width="10" x="1229" y="294.7188"/><rect fill="#FFFFFF" height="29.1328" style="stroke:#181818;stroke-width:1.0;" width="10" x="1482" y="426.875"/><line style="stroke:#181818;stroke-width:0.5;stroke-dasharray:5.0,5.0;" x1="56" x2="56" y1="118.5938" y2="561.4063"/><line style="stroke:#181818;stroke-width:0.5;stroke-dasharray:5.0,5.0;" x1="258.5" x2="258.5" y1="118.5938" y2="561.4063"/><line style="stroke:#181818;stroke-width:0.5;stroke-dasharray:5.0,5.0;" x1="485" x2="485" y1="118.5938" y2="561.4063"/><line style="stroke:#181818;stroke-width:0.5;stroke-dasharray:5.0,5.0;" x1="886" x2="886" y1="118.5938" y2="561.4063"/><line style="stroke:#181818;stroke-width:0.5;stroke-dasharray:5.0,5.0;" x1="1099" x2="1099" y1="254.7891" y2="561.4063"/><line style="stroke:#181818;stroke-width:0.5;stroke-dasharray:5.0,5.0;" x1="1234" x2="1234" y1="118.5938" y2="561.4063"/><line style="stroke:#181818;stroke-width:0.5;stroke-dasharray:5.0,5.0;" x1="1379" x2="1379" y1="378.7969" y2="561.4063"/><line style="stroke:#181818;stroke-width:0.5;stroke-dasharray:5.0,5.0;" x1="1487" x2="1487" y1="118.5938" y2="561.4063"/><text fill="#000000" font-family="sans-serif" font-size="14" lengthAdjust="spacing" textLength="96" x="5" y="115.292">:Administrator</text><ellipse cx="56" cy="50.7969" fill="#FFFFFF" rx="8" ry="8" style="stroke:#181818;stroke-width:0.5;"/><path d="M56,58.7969 L56,85.7969 M43,66.7969 L69,66.7969 M56,85.7969 L43,100.7969 M56,85.7969 L69,100.7969 " fill="none" style="stroke:#181818;stroke-width:0.5;"/><text fill="#000000" font-family="sans-serif" font-size="14" lengthAdjust="spacing" textLength="96" x="5" y="573.4014">:Administrator</text><ellipse cx="56" cy="585.2031" fill="#FFFFFF" rx="8" ry="8" style="stroke:#181818;stroke-width:0.5;"/><path d="M56,593.2031 L56,620.2031 M43,601.2031 L69,601.2031 M56,620.2031 L43,635.2031 M56,620.2031 L69,635.2031 " fill="none" style="stroke:#181818;stroke-width:0.5;"/><rect fill="#FFFFFF" height="30.2969" rx="2.5" ry="2.5" style="stroke:#181818;stroke-width:0.5;" width="143" x="187.5" y="87.2969"/><text fill="#000000" font-family="sans-serif" font-size="14" lengthAdjust="spacing" textLength="129" x="194.5" y="107.292">:ActivateAccountUI</text><rect fill="#FFFFFF" height="30.2969" rx="2.5" ry="2.5" style="stroke:#181818;stroke-width:0.5;" width="143" x="187.5" y="560.4063"/><text fill="#000000" font-family="sans-serif" font-size="14" lengthAdjust="spacing" textLength="129" x="194.5" y="580.4014">:ActivateAccountUI</text><rect fill="#FFFFFF" height="46.5938" rx="2.5" ry="2.5" style="stroke:#181818;stroke-width:0.5;" width="130" x="420" y="71"/><text fill="#000000" font-family="sans-serif" font-size="14" lengthAdjust="spacing" textLength="116" x="427" y="90.9951">:ActivateAccount</text><text fill="#000000" font-family="sans-serif" font-size="14" lengthAdjust="spacing" textLength="67" x="451.5" y="107.292">Controller</text><rect fill="#FFFFFF" height="46.5938" rx="2.5" ry="2.5" style="stroke:#181818;stroke-width:0.5;" width="130" x="420" y="560.4063"/><text fill="#000000" font-family="sans-serif" font-size="14" lengthAdjust="spacing" textLength="116" x="427" y="580.4014">:ActivateAccount</text><text fill="#000000" font-family="sans-serif" font-size="14" lengthAdjust="spacing" textLength="67" x="451.5" y="596.6982">Controller</text><rect fill="#FFFFFF" height="46.5938" rx="2.5" ry="2.5" style="stroke:#181818;stroke-width:0.5;" width="126" x="823" y="71"/><text fill="#000000" font-family="sans-serif" font-size="14" lengthAdjust="spacing" textLength="106" x="833" y="90.9951">accountService</text><text fill="#000000" font-family="sans-serif" font-size="14" lengthAdjust="spacing" textLength="112" x="830" y="107.292">:AccountService</text><rect fill="#FFFFFF" height="46.5938" rx="2.5" ry="2.5" style="stroke:#181818;stroke-width:0.5;" width="126" x="823" y="560.4063"/><text fill="#000000" font-family="sans-serif" font-size="14" lengthAdjust="spacing" textLength="106" x="833" y="580.4014">accountService</text><text fill="#000000" font-family="sans-serif" font-size="14" lengthAdjust="spacing" textLength="112" x="830" y="596.6982">:AccountService</text><rect fill="#FFFFFF" height="46.5938" rx="2.5" ry="2.5" style="stroke:#181818;stroke-width:0.5;" width="99" x="1050" y="560.4063"/><text fill="#000000" font-family="sans-serif" font-size="14" lengthAdjust="spacing" textLength="85" x="1057" y="580.4014">&#171;DomainID&#187;</text><text fill="#000000" font-family="sans-serif" font-size="14" lengthAdjust="spacing" textLength="85" x="1057" y="596.6982">email : Email</text><rect fill="#FFFFFF" height="46.5938" rx="2.5" ry="2.5" style="stroke:#181818;stroke-width:0.5;" width="150" x="1159" y="71"/><text fill="#000000" font-family="sans-serif" font-size="14" lengthAdjust="spacing" textLength="92" x="1188" y="90.9951">&#171;Repository&#187;</text><text fill="#000000" font-family="sans-serif" font-size="14" lengthAdjust="spacing" textLength="136" x="1166" y="107.292">:AccountRepository</text><rect fill="#FFFFFF" height="46.5938" rx="2.5" ry="2.5" style="stroke:#181818;stroke-width:0.5;" width="150" x="1159" y="560.4063"/><text fill="#000000" font-family="sans-serif" font-size="14" lengthAdjust="spacing" textLength="92" x="1188" y="580.4014">&#171;Repository&#187;</text><text fill="#000000" font-family="sans-serif" font-size="14" lengthAdjust="spacing" textLength="136" x="1166" y="596.6982">:AccountRepository</text><rect fill="#FFFFFF" height="62.8906" rx="2.5" ry="2.5" style="stroke:#181818;stroke-width:0.5;" width="120" x="1319" y="560.4063"/><text fill="#000000" font-family="sans-serif" font-size="14" lengthAdjust="spacing" textLength="101" x="1328.5" y="580.4014">&#171;ValueObject&#187;</text><text fill="#000000" font-family="sans-serif" font-size="14" lengthAdjust="spacing" textLength="100" x="1329" y="596.6982">accountStatus</text><text fill="#000000" font-family="sans-serif" font-size="14" lengthAdjust="spacing" textLength="106" x="1326" y="612.9951">:AccountStatus</text><rect fill="#FFFFFF" height="46.5938" rx="2.5" ry="2.5" style="stroke:#181818;stroke-width:0.5;" width="76" x="1449" y="71"/><text fill="#000000" font-family="sans-serif" font-size="14" lengthAdjust="spacing" textLength="56" x="1459" y="90.9951">account</text><text fill="#000000" font-family="sans-serif" font-size="14" lengthAdjust="spacing" textLength="62" x="1456" y="107.292">:Account</text><rect fill="#FFFFFF" height="46.5938" rx="2.5" ry="2.5" style="stroke:#181818;stroke-width:0.5;" width="76" x="1449" y="560.4063"/><text fill="#000000" font-family="sans-serif" font-size="14" lengthAdjust="spacing" textLength="56" x="1459" y="580.4014">account</text><text fill="#000000" font-family="sans-serif" font-size="14" lengthAdjust="spacing" textLength="62" x="1456" y="596.6982">:Account</text><rect fill="#FFFFFF" height="393.6797" style="stroke:#181818;stroke-width:1.0;" width="10" x="254" y="149.7266"/><rect fill="#FFFFFF" height="335.4141" style="stroke:#181818;stroke-width:1.0;" width="10" x="480" y="178.8594"/><rect fill="#FFFFFF" height="277.1484" style="stroke:#181818;stroke-width:1.0;" width="10" x="881" y="207.9922"/><rect fill="#FFFFFF" height="29.1328" style="stroke:#181818;stroke-width:1.0;" width="10" x="1229" y="294.7188"/><rect fill="#FFFFFF" height="29.1328" style="stroke:#181818;stroke-width:1.0;" width="10" x="1482" y="426.875"/><polygon fill="#181818" points="242,145.7266,252,149.7266,242,153.7266,246,149.7266" style="stroke:#181818;stroke-width:1.0;"/><line style="stroke:#181818;stroke-width:1.0;" x1="56" x2="248" y1="149.7266" y2="149.7266"/><text fill="#000000" font-family="sans-serif" font-size="13" font-weight="bold" lengthAdjust="spacing" textLength="9" x="70.5" y="144.6606">1</text><text fill="#000000" font-family="sans-serif" font-size="13" lengthAdjust="spacing" textLength="156" x="83.5" y="144.6606">asks to activate account</text><polygon fill="#181818" points="468,174.8594,478,178.8594,468,182.8594,472,178.8594" style="stroke:#181818;stroke-width:1.0;"/><line style="stroke:#181818;stroke-width:1.0;" x1="264" x2="474" y1="178.8594" y2="178.8594"/><text fill="#000000" font-family="sans-serif" font-size="13" font-weight="bold" lengthAdjust="spacing" textLength="9" x="273.5" y="173.7935">2</text><text fill="#000000" font-family="sans-serif" font-size="13" lengthAdjust="spacing" textLength="184" x="286.5" y="173.7935">activateAccount(emailValue)</text><polygon fill="#181818" points="869,203.9922,879,207.9922,869,211.9922,873,207.9922" style="stroke:#181818;stroke-width:1.0;"/><line style="stroke:#181818;stroke-width:1.0;" x1="490" x2="875" y1="207.9922" y2="207.9922"/><text fill="#000000" font-family="sans-serif" font-size="13" font-weight="bold" lengthAdjust="spacing" textLength="9" x="499.5" y="202.9263">3</text><text fill="#000000" font-family="sans-serif" font-size="13" lengthAdjust="spacing" textLength="359" x="512.5" y="202.9263">changeAccountStatus(emailValue, accountStatusValue)</text><polygon fill="#181818" points="1038,233.125,1048,237.125,1038,241.125,1042,237.125" style="stroke:#181818;stroke-width:1.0;"/><line style="stroke:#181818;stroke-width:1.0;" x1="891" x2="1044" y1="237.125" y2="237.125"/><text fill="#000000" font-family="sans-serif" font-size="13" font-weight="bold" lengthAdjust="spacing" textLength="9" x="903" y="232.0591">4</text><text fill="#000000" font-family="sans-serif" font-size="13" lengthAdjust="spacing" textLength="122" x="916" y="232.0591">create(emailValue)</text><rect fill="#FFFFFF" height="46.5938" rx="2.5" ry="2.5" style="stroke:#181818;stroke-width:0.5;" width="99" x="1050" y="215.9922"/><text fill="#000000" font-family="sans-serif" font-size="14" lengthAdjust="spacing" textLength="85" x="1057" y="235.9873">&#171;DomainID&#187;</text><text fill="#000000" font-family="sans-serif" font-size="14" lengthAdjust="spacing" textLength="85" x="1057" y="252.2842">email : Email</text><polygon fill="#181818" points="1217,290.7188,1227,294.7188,1217,298.7188,1221,294.7188" style="stroke:#181818;stroke-width:1.0;"/><line style="stroke:#181818;stroke-width:1.0;" x1="891" x2="1223" y1="294.7188" y2="294.7188"/><text fill="#000000" font-family="sans-serif" font-size="13" font-weight="bold" lengthAdjust="spacing" textLength="9" x="1005" y="289.6528">5</text><text fill="#000000" font-family="sans-serif" font-size="13" lengthAdjust="spacing" textLength="97" x="1018" y="289.6528">findByID(email)</text><polygon fill="#181818" points="902,319.8516,892,323.8516,902,327.8516,898,323.8516" style="stroke:#181818;stroke-width:1.0;"/><line style="stroke:#181818;stroke-width:1.0;stroke-dasharray:2.0,2.0;" x1="896" x2="1233" y1="323.8516" y2="323.8516"/><text fill="#000000" font-family="sans-serif" font-size="13" font-weight="bold" lengthAdjust="spacing" textLength="9" x="1004" y="318.7856">6</text><text fill="#000000" font-family="sans-serif" font-size="13" lengthAdjust="spacing" textLength="104" x="1017" y="318.7856">accountOptional</text><polygon fill="#181818" points="1307,348.9844,1317,352.9844,1307,356.9844,1311,352.9844" style="stroke:#181818;stroke-width:1.0;"/><line style="stroke:#181818;stroke-width:1.0;" x1="891" x2="1313" y1="352.9844" y2="352.9844"/><text fill="#000000" font-family="sans-serif" font-size="13" font-weight="bold" lengthAdjust="spacing" textLength="9" x="1008.5" y="347.9185">7</text><text fill="#000000" font-family="sans-serif" font-size="13" lengthAdjust="spacing" textLength="180" x="1021.5" y="347.9185">create(accountStatusValue)</text><rect fill="#FFFFFF" height="62.8906" rx="2.5" ry="2.5" style="stroke:#181818;stroke-width:0.5;" width="120" x="1319" y="331.8516"/><text fill="#000000" font-family="sans-serif" font-size="14" lengthAdjust="spacing" textLength="101" x="1328.5" y="351.8467">&#171;ValueObject&#187;</text><text fill="#000000" font-family="sans-serif" font-size="14" lengthAdjust="spacing" textLength="100" x="1329" y="368.1436">accountStatus</text><text fill="#000000" font-family="sans-serif" font-size="14" lengthAdjust="spacing" textLength="106" x="1326" y="384.4404">:AccountStatus</text><polygon fill="#181818" points="1470,422.875,1480,426.875,1470,430.875,1474,426.875" style="stroke:#181818;stroke-width:1.0;"/><line style="stroke:#181818;stroke-width:1.0;" x1="891" x2="1476" y1="426.875" y2="426.875"/><text fill="#000000" font-family="sans-serif" font-size="13" font-weight="bold" lengthAdjust="spacing" textLength="9" x="1071.5" y="421.8091">8</text><text fill="#000000" font-family="sans-serif" font-size="13" lengthAdjust="spacing" textLength="217" x="1084.5" y="421.8091">setAccountStatus(accountStatus)</text><polygon fill="#181818" points="902,452.0078,892,456.0078,902,460.0078,898,456.0078" style="stroke:#181818;stroke-width:1.0;"/><line style="stroke:#181818;stroke-width:1.0;stroke-dasharray:2.0,2.0;" x1="896" x2="1486" y1="456.0078" y2="456.0078"/><text fill="#000000" font-family="sans-serif" font-size="13" font-weight="bold" lengthAdjust="spacing" textLength="9" x="1152.5" y="450.9419">9</text><text fill="#000000" font-family="sans-serif" font-size="13" lengthAdjust="spacing" textLength="60" x="1165.5" y="450.9419">true/false</text><polygon fill="#181818" points="501,481.1406,491,485.1406,501,489.1406,497,485.1406" style="stroke:#181818;stroke-width:1.0;"/><line style="stroke:#181818;stroke-width:1.0;stroke-dasharray:2.0,2.0;" x1="495" x2="885" y1="485.1406" y2="485.1406"/><text fill="#000000" font-family="sans-serif" font-size="13" font-weight="bold" lengthAdjust="spacing" textLength="18" x="647" y="480.0747">10</text><text fill="#000000" font-family="sans-serif" font-size="13" lengthAdjust="spacing" textLength="60" x="669" y="480.0747">true/false</text><polygon fill="#181818" points="275,510.2734,265,514.2734,275,518.2734,271,514.2734" style="stroke:#181818;stroke-width:1.0;"/><line style="stroke:#181818;stroke-width:1.0;stroke-dasharray:2.0,2.0;" x1="269" x2="484" y1="514.2734" y2="514.2734"/><text fill="#000000" font-family="sans-serif" font-size="13" font-weight="bold" lengthAdjust="spacing" textLength="18" x="333.5" y="509.2075">11</text><text fill="#000000" font-family="sans-serif" font-size="13" lengthAdjust="spacing" textLength="60" x="355.5" y="509.2075">true/false</text><polygon fill="#181818" points="67,539.4063,57,543.4063,67,547.4063,63,543.4063" style="stroke:#181818;stroke-width:1.0;"/><line style="stroke:#181818;stroke-width:1.0;stroke-dasharray:2.0,2.0;" x1="61" x2="258" y1="543.4063" y2="543.4063"/><text fill="#000000" font-family="sans-serif" font-size="13" font-weight="bold" lengthAdjust="spacing" textLength="18" x="70.5" y="538.3403">12</text><text fill="#000000" font-family="sans-serif" font-size="13" lengthAdjust="spacing" textLength="152" x="92.5" y="538.3403">successful/unsuccessful</text><!--SRC=[bLHDJnin4BtlhnZHIoD0SEeXGf4MWjezL4YWz9IBSIR1ZMDlxJ68Vrz_RNUzMJxgGsAFtdipRruKknUgPOOTmE8VXuhZJxIMxR2MOgU0eo8qbVs7OfoqkMPylpFQgSsDbjh0ovCW783y9makMgRe8sZNzHwtQCBblma_a6tGV9RstMFQQN3576db3e_UC0cI2Ak7oyjlS0wrXNfp44fOCipxFuC6Nhmv81qM8fuP8J1m5er_SozCNYri2axc1VC4s4WBlgJkWvq5KbQjazggYSHLyodqMjreHKPBYQbX_vpavv4Vq3mBZcirhuj2bCZtadXrjTG79bIpN2pM2lrLmXnkmtSanTkOSe-jji8xVmsahbTVJIiQLySglvXqUFVu6pa5cSu2CN9su22-au5udJJUuoCoLxjLLLMPr_d2vt1wElVGlIr_0Ltqu8_FoYFxpKT6cTFNkB7eP1OvtHdavJNoweC0Vs9gXuMvWSWP56l8meLoEDnWc3Q50s-St3Jqlysv9bunTFKExIZ2O60hrERwjLacbTaHto0vepeVToq9hPYi9iVCFdAmyFOP39N0lPd9XRtdAXE25ujK9b68pQOcolR8EBpOCcd3hwiQDJp6J5TpnJhE_J_sriaBf_f7zHS0]--></g></svg>