<?xml version="1.0" encoding="us-ascii" standalone="no"?><svg xmlns="http://www.w3.org/2000/svg" xmlns:xlink="http://www.w3.org/1999/xlink" contentStyleType="text/css" height="1112px" preserveAspectRatio="none" style="width:2497px;height:1112px;background:#FFFFFF;" version="1.1" viewBox="0 0 2497 1112" width="2497px" zoomAndPan="magnify"><defs/><g><text fill="#000000" font-family="sans-serif" font-size="14" font-weight="bold" lengthAdjust="spacing" textLength="426" x="1034.5" y="27.9951">US019 -  As Project Manager, I want to create a sprint</text><rect fill="#FFFFFF" height="864.0391" style="stroke:#181818;stroke-width:1.0;" width="10" x="285" y="149.7266"/><rect fill="#FFFFFF" height="805.7734" style="stroke:#181818;stroke-width:1.0;" width="10" x="506" y="178.8594"/><rect fill="#FFFFFF" height="747.5078" style="stroke:#181818;stroke-width:1.0;" width="10" x="759" y="207.9922"/><rect fill="#FFFFFF" height="86.7266" style="stroke:#181818;stroke-width:1.0;" width="10" x="1770.5" y="723.1094"/><rect fill="#FFFFFF" height="29.1328" style="stroke:#181818;stroke-width:1.0;" width="10" x="1905.5" y="606.5781"/><rect fill="#FFFFFF" height="29.1328" style="stroke:#181818;stroke-width:1.0;" width="10" x="2052.5" y="664.8438"/><rect fill="#FFFFFF" height="29.1328" style="stroke:#181818;stroke-width:1.0;" width="10" x="2052.5" y="838.9688"/><rect fill="#FFFFFF" height="29.1328" style="stroke:#181818;stroke-width:1.0;" width="10" x="2299.5" y="897.2344"/><line style="stroke:#181818;stroke-width:0.5;stroke-dasharray:5.0,5.0;" x1="67" x2="67" y1="118.5938" y2="1031.7656"/><line style="stroke:#181818;stroke-width:0.5;stroke-dasharray:5.0,5.0;" x1="289.5" x2="289.5" y1="118.5938" y2="1031.7656"/><line style="stroke:#181818;stroke-width:0.5;stroke-dasharray:5.0,5.0;" x1="510.5" x2="510.5" y1="118.5938" y2="1031.7656"/><line style="stroke:#181818;stroke-width:0.5;stroke-dasharray:5.0,5.0;" x1="763.5" x2="763.5" y1="118.5938" y2="1031.7656"/><line style="stroke:#181818;stroke-width:0.5;stroke-dasharray:5.0,5.0;" x1="1150" x2="1150" y1="336.8281" y2="1031.7656"/><line style="stroke:#181818;stroke-width:0.5;stroke-dasharray:5.0,5.0;" x1="1275" x2="1275" y1="262.9375" y2="1031.7656"/><line style="stroke:#181818;stroke-width:0.5;stroke-dasharray:5.0,5.0;" x1="1400" x2="1400" y1="484.6094" y2="1031.7656"/><line style="stroke:#181818;stroke-width:0.5;stroke-dasharray:5.0,5.0;" x1="1527" x2="1527" y1="410.7188" y2="1031.7656"/><line style="stroke:#181818;stroke-width:0.5;stroke-dasharray:5.0,5.0;" x1="1653" x2="1653" y1="558.5" y2="1031.7656"/><line style="stroke:#181818;stroke-width:0.5;stroke-dasharray:5.0,5.0;" x1="1775" x2="1775" y1="118.5938" y2="1031.7656"/><line style="stroke:#181818;stroke-width:0.5;stroke-dasharray:5.0,5.0;" x1="1910" x2="1910" y1="118.5938" y2="1031.7656"/><line style="stroke:#181818;stroke-width:0.5;stroke-dasharray:5.0,5.0;" x1="2057" x2="2057" y1="118.5938" y2="1031.7656"/><line style="stroke:#181818;stroke-width:0.5;stroke-dasharray:5.0,5.0;" x1="2167" x2="2167" y1="118.5938" y2="1031.7656"/><line style="stroke:#181818;stroke-width:0.5;stroke-dasharray:5.0,5.0;" x1="2304" x2="2304" y1="118.5938" y2="1031.7656"/><line style="stroke:#181818;stroke-width:0.5;stroke-dasharray:5.0,5.0;" x1="2449" x2="2449" y1="769.9063" y2="1031.7656"/><text fill="#000000" font-family="sans-serif" font-size="14" lengthAdjust="spacing" textLength="118" x="5" y="115.292">Product Manager</text><ellipse cx="67" cy="50.7969" fill="#FFFFFF" rx="8" ry="8" style="stroke:#181818;stroke-width:0.5;"/><path d="M67,58.7969 L67,85.7969 M54,66.7969 L80,66.7969 M67,85.7969 L54,100.7969 M67,85.7969 L80,100.7969 " fill="none" style="stroke:#181818;stroke-width:0.5;"/><text fill="#000000" font-family="sans-serif" font-size="14" lengthAdjust="spacing" textLength="118" x="5" y="1043.7607">Product Manager</text><ellipse cx="67" cy="1055.5625" fill="#FFFFFF" rx="8" ry="8" style="stroke:#181818;stroke-width:0.5;"/><path d="M67,1063.5625 L67,1090.5625 M54,1071.5625 L80,1071.5625 M67,1090.5625 L54,1105.5625 M67,1090.5625 L80,1105.5625 " fill="none" style="stroke:#181818;stroke-width:0.5;"/><rect fill="#FFFFFF" height="46.5938" rx="2.5" ry="2.5" style="stroke:#181818;stroke-width:0.5;" width="105" x="237.5" y="71"/><text fill="#000000" font-family="sans-serif" font-size="14" lengthAdjust="spacing" textLength="91" x="244.5" y="90.9951">:CreateSprint</text><text fill="#000000" font-family="sans-serif" font-size="14" lengthAdjust="spacing" textLength="13" x="283.5" y="107.292">UI</text><rect fill="#FFFFFF" height="46.5938" rx="2.5" ry="2.5" style="stroke:#181818;stroke-width:0.5;" width="105" x="237.5" y="1030.7656"/><text fill="#000000" font-family="sans-serif" font-size="14" lengthAdjust="spacing" textLength="91" x="244.5" y="1050.7607">:CreateSprint</text><text fill="#000000" font-family="sans-serif" font-size="14" lengthAdjust="spacing" textLength="13" x="283.5" y="1067.0576">UI</text><rect fill="#FFFFFF" height="46.5938" rx="2.5" ry="2.5" style="stroke:#181818;stroke-width:0.5;" width="105" x="458.5" y="71"/><text fill="#000000" font-family="sans-serif" font-size="14" lengthAdjust="spacing" textLength="91" x="465.5" y="90.9951">:CreateSprint</text><text fill="#000000" font-family="sans-serif" font-size="14" lengthAdjust="spacing" textLength="67" x="477.5" y="107.292">Controller</text><rect fill="#FFFFFF" height="46.5938" rx="2.5" ry="2.5" style="stroke:#181818;stroke-width:0.5;" width="105" x="458.5" y="1030.7656"/><text fill="#000000" font-family="sans-serif" font-size="14" lengthAdjust="spacing" textLength="91" x="465.5" y="1050.7607">:CreateSprint</text><text fill="#000000" font-family="sans-serif" font-size="14" lengthAdjust="spacing" textLength="67" x="477.5" y="1067.0576">Controller</text><rect fill="#FFFFFF" height="46.5938" rx="2.5" ry="2.5" style="stroke:#181818;stroke-width:0.5;" width="109" x="709.5" y="71"/><text fill="#000000" font-family="sans-serif" font-size="14" lengthAdjust="spacing" textLength="89" x="719.5" y="90.9951">sprintService</text><text fill="#000000" font-family="sans-serif" font-size="14" lengthAdjust="spacing" textLength="95" x="716.5" y="107.292">:SprintService</text><rect fill="#FFFFFF" height="46.5938" rx="2.5" ry="2.5" style="stroke:#181818;stroke-width:0.5;" width="109" x="709.5" y="1030.7656"/><text fill="#000000" font-family="sans-serif" font-size="14" lengthAdjust="spacing" textLength="89" x="719.5" y="1050.7607">sprintService</text><text fill="#000000" font-family="sans-serif" font-size="14" lengthAdjust="spacing" textLength="95" x="716.5" y="1067.0576">:SprintService</text><rect fill="#FFFFFF" height="62.8906" rx="2.5" ry="2.5" style="stroke:#181818;stroke-width:0.5;" width="115" x="1093" y="1030.7656"/><text fill="#000000" font-family="sans-serif" font-size="14" lengthAdjust="spacing" textLength="101" x="1100" y="1050.7607">&#171;ValueObject&#187;</text><text fill="#000000" font-family="sans-serif" font-size="14" lengthAdjust="spacing" textLength="76" x="1112.5" y="1067.0576">sprintCode</text><text fill="#000000" font-family="sans-serif" font-size="14" lengthAdjust="spacing" textLength="82" x="1109.5" y="1083.3545">:SprintCode</text><rect fill="#FFFFFF" height="62.8906" rx="2.5" ry="2.5" style="stroke:#181818;stroke-width:0.5;" width="115" x="1218" y="1030.7656"/><text fill="#000000" font-family="sans-serif" font-size="14" lengthAdjust="spacing" textLength="101" x="1225" y="1050.7607">&#171;ValueObject&#187;</text><text fill="#000000" font-family="sans-serif" font-size="14" lengthAdjust="spacing" textLength="85" x="1233" y="1067.0576">projectCode</text><text fill="#000000" font-family="sans-serif" font-size="14" lengthAdjust="spacing" textLength="90" x="1230.5" y="1083.3545">:ProjectCode</text><rect fill="#FFFFFF" height="62.8906" rx="2.5" ry="2.5" style="stroke:#181818;stroke-width:0.5;" width="115" x="1343" y="1030.7656"/><text fill="#000000" font-family="sans-serif" font-size="14" lengthAdjust="spacing" textLength="101" x="1350" y="1050.7607">&#171;ValueObject&#187;</text><text fill="#000000" font-family="sans-serif" font-size="14" lengthAdjust="spacing" textLength="64" x="1368.5" y="1067.0576">startDate</text><text fill="#000000" font-family="sans-serif" font-size="14" lengthAdjust="spacing" textLength="73" x="1364" y="1083.3545">:LocalDate</text><rect fill="#FFFFFF" height="62.8906" rx="2.5" ry="2.5" style="stroke:#181818;stroke-width:0.5;" width="118" x="1468" y="1030.7656"/><text fill="#000000" font-family="sans-serif" font-size="14" lengthAdjust="spacing" textLength="101" x="1476.5" y="1050.7607">&#171;ValueObject&#187;</text><text fill="#000000" font-family="sans-serif" font-size="14" lengthAdjust="spacing" textLength="98" x="1478" y="1067.0576">sprintDuration</text><text fill="#000000" font-family="sans-serif" font-size="14" lengthAdjust="spacing" textLength="104" x="1475" y="1083.3545">:SprintDuration</text><rect fill="#FFFFFF" height="62.8906" rx="2.5" ry="2.5" style="stroke:#181818;stroke-width:0.5;" width="115" x="1596" y="1030.7656"/><text fill="#000000" font-family="sans-serif" font-size="14" lengthAdjust="spacing" textLength="101" x="1603" y="1050.7607">&#171;ValueObject&#187;</text><text fill="#000000" font-family="sans-serif" font-size="14" lengthAdjust="spacing" textLength="53" x="1627" y="1067.0576">sprintID</text><text fill="#000000" font-family="sans-serif" font-size="14" lengthAdjust="spacing" textLength="62" x="1622.5" y="1083.3545">:SpriintID</text><rect fill="#FFFFFF" height="46.5938" rx="2.5" ry="2.5" style="stroke:#181818;stroke-width:0.5;" width="109" x="1721" y="71"/><text fill="#000000" font-family="sans-serif" font-size="14" lengthAdjust="spacing" textLength="78" x="1736.5" y="90.9951">&#171;Interface&#187;</text><text fill="#000000" font-family="sans-serif" font-size="14" lengthAdjust="spacing" textLength="95" x="1728" y="107.292">:SprintFactory</text><rect fill="#FFFFFF" height="46.5938" rx="2.5" ry="2.5" style="stroke:#181818;stroke-width:0.5;" width="109" x="1721" y="1030.7656"/><text fill="#000000" font-family="sans-serif" font-size="14" lengthAdjust="spacing" textLength="78" x="1736.5" y="1050.7607">&#171;Interface&#187;</text><text fill="#000000" font-family="sans-serif" font-size="14" lengthAdjust="spacing" textLength="95" x="1728" y="1067.0576">:SprintFactory</text><rect fill="#FFFFFF" height="46.5938" rx="2.5" ry="2.5" style="stroke:#181818;stroke-width:0.5;" width="141" x="1840" y="71"/><text fill="#000000" font-family="sans-serif" font-size="14" lengthAdjust="spacing" textLength="78" x="1871.5" y="90.9951">&#171;Interface&#187;</text><text fill="#000000" font-family="sans-serif" font-size="14" lengthAdjust="spacing" textLength="127" x="1847" y="107.292">:ProjectRepository</text><rect fill="#FFFFFF" height="46.5938" rx="2.5" ry="2.5" style="stroke:#181818;stroke-width:0.5;" width="141" x="1840" y="1030.7656"/><text fill="#000000" font-family="sans-serif" font-size="14" lengthAdjust="spacing" textLength="78" x="1871.5" y="1050.7607">&#171;Interface&#187;</text><text fill="#000000" font-family="sans-serif" font-size="14" lengthAdjust="spacing" textLength="127" x="1847" y="1067.0576">:ProjectRepository</text><rect fill="#FFFFFF" height="46.5938" rx="2.5" ry="2.5" style="stroke:#181818;stroke-width:0.5;" width="133" x="1991" y="71"/><text fill="#000000" font-family="sans-serif" font-size="14" lengthAdjust="spacing" textLength="78" x="2018.5" y="90.9951">&#171;Interface&#187;</text><text fill="#000000" font-family="sans-serif" font-size="14" lengthAdjust="spacing" textLength="119" x="1998" y="107.292">:SprintRepository</text><rect fill="#FFFFFF" height="46.5938" rx="2.5" ry="2.5" style="stroke:#181818;stroke-width:0.5;" width="133" x="1991" y="1030.7656"/><text fill="#000000" font-family="sans-serif" font-size="14" lengthAdjust="spacing" textLength="78" x="2018.5" y="1050.7607">&#171;Interface&#187;</text><text fill="#000000" font-family="sans-serif" font-size="14" lengthAdjust="spacing" textLength="119" x="1998" y="1067.0576">:SprintRepository</text><rect fill="#FFFFFF" height="46.5938" rx="2.5" ry="2.5" style="stroke:#181818;stroke-width:0.5;" width="67" x="2134" y="71"/><text fill="#000000" font-family="sans-serif" font-size="14" lengthAdjust="spacing" textLength="48" x="2143.5" y="90.9951">project</text><text fill="#000000" font-family="sans-serif" font-size="14" lengthAdjust="spacing" textLength="53" x="2141" y="107.292">:Project</text><rect fill="#FFFFFF" height="46.5938" rx="2.5" ry="2.5" style="stroke:#181818;stroke-width:0.5;" width="67" x="2134" y="1030.7656"/><text fill="#000000" font-family="sans-serif" font-size="14" lengthAdjust="spacing" textLength="48" x="2143.5" y="1050.7607">project</text><text fill="#000000" font-family="sans-serif" font-size="14" lengthAdjust="spacing" textLength="53" x="2141" y="1067.0576">:Project</text><rect fill="#FFFFFF" height="30.2969" rx="2.5" ry="2.5" style="stroke:#181818;stroke-width:0.5;" width="187" x="2211" y="87.2969"/><text fill="#000000" font-family="sans-serif" font-size="14" lengthAdjust="spacing" textLength="173" x="2218" y="107.292">:CreatedSprintAssembler</text><rect fill="#FFFFFF" height="30.2969" rx="2.5" ry="2.5" style="stroke:#181818;stroke-width:0.5;" width="187" x="2211" y="1030.7656"/><text fill="#000000" font-family="sans-serif" font-size="14" lengthAdjust="spacing" textLength="173" x="2218" y="1050.7607">:CreatedSprintAssembler</text><rect fill="#FFFFFF" height="46.5938" rx="2.5" ry="2.5" style="stroke:#181818;stroke-width:0.5;" width="83" x="2408" y="1030.7656"/><text fill="#000000" font-family="sans-serif" font-size="14" lengthAdjust="spacing" textLength="69" x="2415" y="1050.7607">newSprint</text><text fill="#000000" font-family="sans-serif" font-size="14" lengthAdjust="spacing" textLength="45" x="2427" y="1067.0576">:Sprint</text><rect fill="#FFFFFF" height="864.0391" style="stroke:#181818;stroke-width:1.0;" width="10" x="285" y="149.7266"/><rect fill="#FFFFFF" height="805.7734" style="stroke:#181818;stroke-width:1.0;" width="10" x="506" y="178.8594"/><rect fill="#FFFFFF" height="747.5078" style="stroke:#181818;stroke-width:1.0;" width="10" x="759" y="207.9922"/><rect fill="#FFFFFF" height="86.7266" style="stroke:#181818;stroke-width:1.0;" width="10" x="1770.5" y="723.1094"/><rect fill="#FFFFFF" height="29.1328" style="stroke:#181818;stroke-width:1.0;" width="10" x="1905.5" y="606.5781"/><rect fill="#FFFFFF" height="29.1328" style="stroke:#181818;stroke-width:1.0;" width="10" x="2052.5" y="664.8438"/><rect fill="#FFFFFF" height="29.1328" style="stroke:#181818;stroke-width:1.0;" width="10" x="2052.5" y="838.9688"/><rect fill="#FFFFFF" height="29.1328" style="stroke:#181818;stroke-width:1.0;" width="10" x="2299.5" y="897.2344"/><polygon fill="#181818" points="273,145.7266,283,149.7266,273,153.7266,277,149.7266" style="stroke:#181818;stroke-width:1.0;"/><line style="stroke:#181818;stroke-width:1.0;" x1="67" x2="279" y1="149.7266" y2="149.7266"/><text fill="#000000" font-family="sans-serif" font-size="13" font-weight="bold" lengthAdjust="spacing" textLength="9" x="98" y="144.6606">1</text><text fill="#000000" font-family="sans-serif" font-size="13" lengthAdjust="spacing" textLength="143" x="111" y="144.6606">asks to create a sprint</text><polygon fill="#181818" points="494,174.8594,504,178.8594,494,182.8594,498,178.8594" style="stroke:#181818;stroke-width:1.0;"/><line style="stroke:#181818;stroke-width:1.0;" x1="295" x2="500" y1="178.8594" y2="178.8594"/><text fill="#000000" font-family="sans-serif" font-size="13" font-weight="bold" lengthAdjust="spacing" textLength="9" x="304.5" y="173.7935">2</text><text fill="#000000" font-family="sans-serif" font-size="13" lengthAdjust="spacing" textLength="179" x="317.5" y="173.7935">createSprint(newSprintDTO)</text><polygon fill="#181818" points="747,203.9922,757,207.9922,747,211.9922,751,207.9922" style="stroke:#181818;stroke-width:1.0;"/><line style="stroke:#181818;stroke-width:1.0;" x1="516" x2="753" y1="207.9922" y2="207.9922"/><text fill="#000000" font-family="sans-serif" font-size="13" font-weight="bold" lengthAdjust="spacing" textLength="9" x="525.5" y="202.9263">3</text><text fill="#000000" font-family="sans-serif" font-size="13" lengthAdjust="spacing" textLength="211" x="538.5" y="202.9263">createSprintREST(newSprintDTO)</text><polygon fill="#181818" points="1206,233.125,1216,237.125,1206,241.125,1210,237.125" style="stroke:#181818;stroke-width:1.0;"/><line style="stroke:#181818;stroke-width:1.0;" x1="769" x2="1212" y1="237.125" y2="237.125"/><text fill="#000000" font-family="sans-serif" font-size="13" font-weight="bold" lengthAdjust="spacing" textLength="9" x="853.5" y="232.0591">4</text><text fill="#000000" font-family="sans-serif" font-size="13" lengthAdjust="spacing" textLength="267" x="866.5" y="232.0591">projectCode = newSprintDTO.projectCode</text><rect fill="#FFFFFF" height="62.8906" rx="2.5" ry="2.5" style="stroke:#181818;stroke-width:0.5;" width="115" x="1218" y="215.9922"/><text fill="#000000" font-family="sans-serif" font-size="14" lengthAdjust="spacing" textLength="101" x="1225" y="235.9873">&#171;ValueObject&#187;</text><text fill="#000000" font-family="sans-serif" font-size="14" lengthAdjust="spacing" textLength="85" x="1233" y="252.2842">projectCode</text><text fill="#000000" font-family="sans-serif" font-size="14" lengthAdjust="spacing" textLength="90" x="1230.5" y="268.5811">:ProjectCode</text><polygon fill="#181818" points="1081,307.0156,1091,311.0156,1081,315.0156,1085,311.0156" style="stroke:#181818;stroke-width:1.0;"/><line style="stroke:#181818;stroke-width:1.0;" x1="769" x2="1087" y1="311.0156" y2="311.0156"/><text fill="#000000" font-family="sans-serif" font-size="13" font-weight="bold" lengthAdjust="spacing" textLength="9" x="781" y="305.9497">5</text><text fill="#000000" font-family="sans-serif" font-size="13" lengthAdjust="spacing" textLength="287" x="794" y="305.9497">sprintCode = createSprintCode(projectCode)</text><rect fill="#FFFFFF" height="62.8906" rx="2.5" ry="2.5" style="stroke:#181818;stroke-width:0.5;" width="115" x="1093" y="289.8828"/><text fill="#000000" font-family="sans-serif" font-size="14" lengthAdjust="spacing" textLength="101" x="1100" y="309.8779">&#171;ValueObject&#187;</text><text fill="#000000" font-family="sans-serif" font-size="14" lengthAdjust="spacing" textLength="76" x="1112.5" y="326.1748">sprintCode</text><text fill="#000000" font-family="sans-serif" font-size="14" lengthAdjust="spacing" textLength="82" x="1109.5" y="342.4717">:SprintCode</text><polygon fill="#181818" points="1456,380.9063,1466,384.9063,1456,388.9063,1460,384.9063" style="stroke:#181818;stroke-width:1.0;"/><line style="stroke:#181818;stroke-width:1.0;" x1="769" x2="1462" y1="384.9063" y2="384.9063"/><text fill="#000000" font-family="sans-serif" font-size="13" font-weight="bold" lengthAdjust="spacing" textLength="9" x="897.5" y="379.8403">6</text><text fill="#000000" font-family="sans-serif" font-size="13" lengthAdjust="spacing" textLength="429" x="910.5" y="379.8403">sprintDuration = findSprintDurationOfASpecificProject(projectCode)</text><rect fill="#FFFFFF" height="62.8906" rx="2.5" ry="2.5" style="stroke:#181818;stroke-width:0.5;" width="118" x="1468" y="363.7734"/><text fill="#000000" font-family="sans-serif" font-size="14" lengthAdjust="spacing" textLength="101" x="1476.5" y="383.7686">&#171;ValueObject&#187;</text><text fill="#000000" font-family="sans-serif" font-size="14" lengthAdjust="spacing" textLength="98" x="1478" y="400.0654">sprintDuration</text><text fill="#000000" font-family="sans-serif" font-size="14" lengthAdjust="spacing" textLength="104" x="1475" y="416.3623">:SprintDuration</text><polygon fill="#181818" points="1331,454.7969,1341,458.7969,1331,462.7969,1335,458.7969" style="stroke:#181818;stroke-width:1.0;"/><line style="stroke:#181818;stroke-width:1.0;" x1="769" x2="1337" y1="458.7969" y2="458.7969"/><text fill="#000000" font-family="sans-serif" font-size="13" font-weight="bold" lengthAdjust="spacing" textLength="9" x="930" y="453.731">7</text><text fill="#000000" font-family="sans-serif" font-size="13" lengthAdjust="spacing" textLength="239" x="943" y="453.731">startDate = newSprintDTO.startDate;</text><rect fill="#FFFFFF" height="62.8906" rx="2.5" ry="2.5" style="stroke:#181818;stroke-width:0.5;" width="115" x="1343" y="437.6641"/><text fill="#000000" font-family="sans-serif" font-size="14" lengthAdjust="spacing" textLength="101" x="1350" y="457.6592">&#171;ValueObject&#187;</text><text fill="#000000" font-family="sans-serif" font-size="14" lengthAdjust="spacing" textLength="64" x="1368.5" y="473.9561">startDate</text><text fill="#000000" font-family="sans-serif" font-size="14" lengthAdjust="spacing" textLength="73" x="1364" y="490.2529">:LocalDate</text><polygon fill="#181818" points="1584,528.6875,1594,532.6875,1584,536.6875,1588,532.6875" style="stroke:#181818;stroke-width:1.0;"/><line style="stroke:#181818;stroke-width:1.0;" x1="769" x2="1590" y1="532.6875" y2="532.6875"/><text fill="#000000" font-family="sans-serif" font-size="13" font-weight="bold" lengthAdjust="spacing" textLength="9" x="1073.5" y="527.6216">8</text><text fill="#000000" font-family="sans-serif" font-size="13" lengthAdjust="spacing" textLength="205" x="1086.5" y="527.6216">create(projectCode, sprintCode)</text><rect fill="#FFFFFF" height="62.8906" rx="2.5" ry="2.5" style="stroke:#181818;stroke-width:0.5;" width="115" x="1596" y="511.5547"/><text fill="#000000" font-family="sans-serif" font-size="14" lengthAdjust="spacing" textLength="101" x="1603" y="531.5498">&#171;ValueObject&#187;</text><text fill="#000000" font-family="sans-serif" font-size="14" lengthAdjust="spacing" textLength="53" x="1627" y="547.8467">sprintID</text><text fill="#000000" font-family="sans-serif" font-size="14" lengthAdjust="spacing" textLength="62" x="1622.5" y="564.1436">:SpriintID</text><polygon fill="#181818" points="1893.5,602.5781,1903.5,606.5781,1893.5,610.5781,1897.5,606.5781" style="stroke:#181818;stroke-width:1.0;"/><line style="stroke:#181818;stroke-width:1.0;" x1="769" x2="1899.5" y1="606.5781" y2="606.5781"/><text fill="#000000" font-family="sans-serif" font-size="13" font-weight="bold" lengthAdjust="spacing" textLength="9" x="1254.25" y="601.5122">9</text><text fill="#000000" font-family="sans-serif" font-size="13" lengthAdjust="spacing" textLength="153" x="1267.25" y="601.5122">existsByID(projectCode)</text><polygon fill="#181818" points="780,631.7109,770,635.7109,780,639.7109,776,635.7109" style="stroke:#181818;stroke-width:1.0;"/><line style="stroke:#181818;stroke-width:1.0;stroke-dasharray:2.0,2.0;" x1="774" x2="1909.5" y1="635.7109" y2="635.7109"/><text fill="#000000" font-family="sans-serif" font-size="13" font-weight="bold" lengthAdjust="spacing" textLength="18" x="1298.75" y="630.645">10</text><text fill="#000000" font-family="sans-serif" font-size="13" lengthAdjust="spacing" textLength="60" x="1320.75" y="630.645">true/false</text><polygon fill="#181818" points="2040.5,660.8438,2050.5,664.8438,2040.5,668.8438,2044.5,664.8438" style="stroke:#181818;stroke-width:1.0;"/><line style="stroke:#181818;stroke-width:1.0;" x1="769" x2="2046.5" y1="664.8438" y2="664.8438"/><text fill="#000000" font-family="sans-serif" font-size="13" font-weight="bold" lengthAdjust="spacing" textLength="18" x="1338.25" y="659.7778">11</text><text fill="#000000" font-family="sans-serif" font-size="13" lengthAdjust="spacing" textLength="123" x="1360.25" y="659.7778">existsById(sprintID)</text><polygon fill="#181818" points="780,689.9766,770,693.9766,780,697.9766,776,693.9766" style="stroke:#181818;stroke-width:1.0;"/><line style="stroke:#181818;stroke-width:1.0;stroke-dasharray:2.0,2.0;" x1="774" x2="2056.5" y1="693.9766" y2="693.9766"/><text fill="#000000" font-family="sans-serif" font-size="13" font-weight="bold" lengthAdjust="spacing" textLength="18" x="1372.25" y="688.9106">12</text><text fill="#000000" font-family="sans-serif" font-size="13" lengthAdjust="spacing" textLength="60" x="1394.25" y="688.9106">true/false</text><polygon fill="#181818" points="1758.5,719.1094,1768.5,723.1094,1758.5,727.1094,1762.5,723.1094" style="stroke:#181818;stroke-width:1.0;"/><line style="stroke:#181818;stroke-width:1.0;" x1="769" x2="1764.5" y1="723.1094" y2="723.1094"/><text fill="#000000" font-family="sans-serif" font-size="13" font-weight="bold" lengthAdjust="spacing" textLength="18" x="1105.75" y="718.0435">13</text><text fill="#000000" font-family="sans-serif" font-size="13" lengthAdjust="spacing" textLength="306" x="1127.75" y="718.0435">createSprint(sprintID, startDate, sprintDuration)</text><polygon fill="#181818" points="2396,748.2422,2406,752.2422,2396,756.2422,2400,752.2422" style="stroke:#181818;stroke-width:1.0;"/><line style="stroke:#181818;stroke-width:1.0;" x1="1780.5" x2="2402" y1="752.2422" y2="752.2422"/><text fill="#000000" font-family="sans-serif" font-size="13" font-weight="bold" lengthAdjust="spacing" textLength="18" x="1930.25" y="747.1763">14</text><text fill="#000000" font-family="sans-serif" font-size="13" lengthAdjust="spacing" textLength="306" x="1952.25" y="747.1763">createSprint(sprintID, startDate, sprintDuration)</text><rect fill="#FFFFFF" height="46.5938" rx="2.5" ry="2.5" style="stroke:#181818;stroke-width:0.5;" width="83" x="2408" y="731.1094"/><text fill="#000000" font-family="sans-serif" font-size="14" lengthAdjust="spacing" textLength="69" x="2415" y="751.1045">newSprint</text><text fill="#000000" font-family="sans-serif" font-size="14" lengthAdjust="spacing" textLength="45" x="2427" y="767.4014">:Sprint</text><polygon fill="#181818" points="780,805.8359,770,809.8359,780,813.8359,776,809.8359" style="stroke:#181818;stroke-width:1.0;"/><line style="stroke:#181818;stroke-width:1.0;stroke-dasharray:2.0,2.0;" x1="774" x2="1774.5" y1="809.8359" y2="809.8359"/><text fill="#000000" font-family="sans-serif" font-size="13" font-weight="bold" lengthAdjust="spacing" textLength="18" x="1229.75" y="804.77">15</text><text fill="#000000" font-family="sans-serif" font-size="13" lengthAdjust="spacing" textLength="63" x="1251.75" y="804.77">newSprint</text><polygon fill="#181818" points="2040.5,834.9688,2050.5,838.9688,2040.5,842.9688,2044.5,838.9688" style="stroke:#181818;stroke-width:1.0;"/><line style="stroke:#181818;stroke-width:1.0;" x1="769" x2="2046.5" y1="838.9688" y2="838.9688"/><text fill="#000000" font-family="sans-serif" font-size="13" font-weight="bold" lengthAdjust="spacing" textLength="18" x="1348.25" y="833.9028">16</text><text fill="#000000" font-family="sans-serif" font-size="13" lengthAdjust="spacing" textLength="103" x="1370.25" y="833.9028">save(newSprint)</text><polygon fill="#181818" points="780,864.1016,770,868.1016,780,872.1016,776,868.1016" style="stroke:#181818;stroke-width:1.0;"/><line style="stroke:#181818;stroke-width:1.0;stroke-dasharray:2.0,2.0;" x1="774" x2="2056.5" y1="868.1016" y2="868.1016"/><text fill="#000000" font-family="sans-serif" font-size="13" font-weight="bold" lengthAdjust="spacing" textLength="18" x="1364.25" y="863.0356">17</text><text fill="#000000" font-family="sans-serif" font-size="13" lengthAdjust="spacing" textLength="76" x="1386.25" y="863.0356">savedSprint</text><polygon fill="#181818" points="2287.5,893.2344,2297.5,897.2344,2287.5,901.2344,2291.5,897.2344" style="stroke:#181818;stroke-width:1.0;"/><line style="stroke:#181818;stroke-width:1.0;" x1="769" x2="2293.5" y1="897.2344" y2="897.2344"/><text fill="#000000" font-family="sans-serif" font-size="13" font-weight="bold" lengthAdjust="spacing" textLength="18" x="1437.75" y="892.1685">18</text><text fill="#000000" font-family="sans-serif" font-size="13" lengthAdjust="spacing" textLength="171" x="1459.75" y="892.1685">generateDTO(savedSprint)</text><polygon fill="#181818" points="780,922.3672,770,926.3672,780,930.3672,776,926.3672" style="stroke:#181818;stroke-width:1.0;"/><line style="stroke:#181818;stroke-width:1.0;stroke-dasharray:2.0,2.0;" x1="774" x2="2303.5" y1="926.3672" y2="926.3672"/><text fill="#000000" font-family="sans-serif" font-size="13" font-weight="bold" lengthAdjust="spacing" textLength="18" x="1468.75" y="921.3013">19</text><text fill="#000000" font-family="sans-serif" font-size="13" lengthAdjust="spacing" textLength="114" x="1490.75" y="921.3013">createdSprintDTO</text><polygon fill="#181818" points="527,951.5,517,955.5,527,959.5,523,955.5" style="stroke:#181818;stroke-width:1.0;"/><line style="stroke:#181818;stroke-width:1.0;stroke-dasharray:2.0,2.0;" x1="521" x2="763" y1="955.5" y2="955.5"/><text fill="#000000" font-family="sans-serif" font-size="13" font-weight="bold" lengthAdjust="spacing" textLength="18" x="572" y="950.4341">20</text><text fill="#000000" font-family="sans-serif" font-size="13" lengthAdjust="spacing" textLength="114" x="594" y="950.4341">createdSprintDTO</text><polygon fill="#181818" points="306,980.6328,296,984.6328,306,988.6328,302,984.6328" style="stroke:#181818;stroke-width:1.0;"/><line style="stroke:#181818;stroke-width:1.0;stroke-dasharray:2.0,2.0;" x1="300" x2="510" y1="984.6328" y2="984.6328"/><text fill="#000000" font-family="sans-serif" font-size="13" font-weight="bold" lengthAdjust="spacing" textLength="18" x="316.5" y="979.5669">21</text><text fill="#000000" font-family="sans-serif" font-size="13" lengthAdjust="spacing" textLength="151" x="338.5" y="979.5669">ResponseEntity.created</text><polygon fill="#181818" points="78,1009.7656,68,1013.7656,78,1017.7656,74,1013.7656" style="stroke:#181818;stroke-width:1.0;"/><line style="stroke:#181818;stroke-width:1.0;stroke-dasharray:2.0,2.0;" x1="72" x2="289" y1="1013.7656" y2="1013.7656"/><text fill="#000000" font-family="sans-serif" font-size="13" font-weight="bold" lengthAdjust="spacing" textLength="18" x="81.5" y="1008.6997">22</text><text fill="#000000" font-family="sans-serif" font-size="13" lengthAdjust="spacing" textLength="172" x="103.5" y="1008.6997">returns success/unsuccess</text><!--SRC=[dPPDKzim48Rl_XKxEOKXG7jiIZCJOjfwffamCU74HSYRLCL8hYIJykyhsR8bEuRGNa1QxVliXxG6zSXuGIHv0eM_I-GKbwWKsU4yPpiE5Bb66QdMYr0jv1MXZpifIfujH2uax7yoZO6J-QaPPGNX-fXh4tMDMvHsyS-2xqWobE-LVJC-nR1pH4ejUFdqO0gEDDCvmYRzyF4Jd07C5Tn8yGkfXYNXfZro0WdiJO6W1L29H2CGK8LaN1kIxHACZ2GhlMG4n62MKHJq1qRJHQLEA-aztoILsoPvqsiXk9OYpntKRxkgEfyKvJEZUC-dQRYlb6xTbLrUtf6ynDM3BNWsk-SrPo4o3x6Rcj1kxrP7C4NTGiUvyRkwCtv_bAIqEOvDGmpdXw0aj-kAqkwECwh4ur8IpGHl2siCGN6DwPt897QmQXrmahYlJ-nuRGb5gtO9VArUpqkbS-ktPQvnQoo4OgtqmFgUs3r6tzX5kElq6OHn1vzlLWFdIk7JG_ju1u-wUexxvkcxJ8FyeYYwMSBPp0pDwUdKs1_Lq5Hk4klZHyNwqc2gncsG-7Pr4db7AtDpqjUihzFRdYvoSRlFsUajgdCmXM0eu0k4hFFWgA5sfYs0XlOf-7aro31VQne7s9CkDtZe1sn_rl0RYucnPJphkgssyxH0ohQCke87uuRZ6eGCp2PQC-pz_hG7dxjbc3axI3-9cviByvW4hJePk2J_zEtDun-cjBfwIU9kBH9rAJbeMUB5bkGA3yE_0ih6pIVZ2CLz20xUR2EV-2vDUjVJk-F8eNnky3zCbsrx7yTALkGP_QIqUclE3Wd3tmJBsI57amEQ-ny7uXP8GwLnCX-7rqwSVOsg45pXDJT_z5_EdLjpMlzIe4fApNz65oLtg-Wl]--></g></svg>