<?xml version="1.0" encoding="us-ascii" standalone="no"?><svg xmlns="http://www.w3.org/2000/svg" xmlns:xlink="http://www.w3.org/1999/xlink" contentStyleType="text/css" height="1023px" preserveAspectRatio="none" style="width:2537px;height:1023px;background:#FFFFFF;" version="1.1" viewBox="0 0 2537 1023" width="2537px" zoomAndPan="magnify"><defs/><g><text fill="#000000" font-family="sans-serif" font-size="14" font-weight="bold" lengthAdjust="spacing" textLength="401" x="1067" y="27.9951">US002 - As Administrator, I want to register a user</text><rect fill="#FFFFFF" height="783.9844" style="stroke:#181818;stroke-width:1.0;" width="10" x="398" y="149.7266"/><rect fill="#FFFFFF" height="672.4531" style="stroke:#181818;stroke-width:1.0;" width="10" x="751" y="252.2578"/><rect fill="#FFFFFF" height="599.0547" style="stroke:#181818;stroke-width:1.0;" width="10" x="1050" y="296.5234"/><rect fill="#FFFFFF" height="29.1328" style="stroke:#181818;stroke-width:1.0;" width="10" x="1829.5" y="604.9219"/><rect fill="#FFFFFF" height="29.1328" style="stroke:#181818;stroke-width:1.0;" width="10" x="1982" y="663.1875"/><rect fill="#FFFFFF" height="29.1328" style="stroke:#181818;stroke-width:1.0;" width="10" x="1982" y="837.3125"/><rect fill="#FFFFFF" height="86.7266" style="stroke:#181818;stroke-width:1.0;" width="10" x="2130" y="721.4531"/><line style="stroke:#181818;stroke-width:0.5;stroke-dasharray:5.0,5.0;" x1="56" x2="56" y1="118.5938" y2="942.7109"/><line style="stroke:#181818;stroke-width:0.5;stroke-dasharray:5.0,5.0;" x1="402.5" x2="402.5" y1="118.5938" y2="942.7109"/><line style="stroke:#181818;stroke-width:0.5;stroke-dasharray:5.0,5.0;" x1="755.5" x2="755.5" y1="118.5938" y2="942.7109"/><line style="stroke:#181818;stroke-width:0.5;stroke-dasharray:5.0,5.0;" x1="1055" x2="1055" y1="118.5938" y2="942.7109"/><line style="stroke:#181818;stroke-width:0.5;stroke-dasharray:5.0,5.0;" x1="1334" x2="1334" y1="351.4688" y2="942.7109"/><line style="stroke:#181818;stroke-width:0.5;stroke-dasharray:5.0,5.0;" x1="1461" x2="1461" y1="425.3594" y2="942.7109"/><line style="stroke:#181818;stroke-width:0.5;stroke-dasharray:5.0,5.0;" x1="1578" x2="1578" y1="491.1016" y2="942.7109"/><line style="stroke:#181818;stroke-width:0.5;stroke-dasharray:5.0,5.0;" x1="1697" x2="1697" y1="556.8438" y2="942.7109"/><line style="stroke:#181818;stroke-width:0.5;stroke-dasharray:5.0,5.0;" x1="1834" x2="1834" y1="118.5938" y2="942.7109"/><line style="stroke:#181818;stroke-width:0.5;stroke-dasharray:5.0,5.0;" x1="1987" x2="1987" y1="118.5938" y2="942.7109"/><line style="stroke:#181818;stroke-width:0.5;stroke-dasharray:5.0,5.0;" x1="2135" x2="2135" y1="118.5938" y2="942.7109"/><line style="stroke:#181818;stroke-width:0.5;stroke-dasharray:5.0,5.0;" x1="2474" x2="2474" y1="768.25" y2="942.7109"/><text fill="#000000" font-family="sans-serif" font-size="14" lengthAdjust="spacing" textLength="96" x="5" y="115.292">:Administrator</text><ellipse cx="56" cy="50.7969" fill="#FFFFFF" rx="8" ry="8" style="stroke:#181818;stroke-width:0.5;"/><path d="M56,58.7969 L56,85.7969 M43,66.7969 L69,66.7969 M56,85.7969 L43,100.7969 M56,85.7969 L69,100.7969 " fill="none" style="stroke:#181818;stroke-width:0.5;"/><text fill="#000000" font-family="sans-serif" font-size="14" lengthAdjust="spacing" textLength="96" x="5" y="954.7061">:Administrator</text><ellipse cx="56" cy="966.5078" fill="#FFFFFF" rx="8" ry="8" style="stroke:#181818;stroke-width:0.5;"/><path d="M56,974.5078 L56,1001.5078 M43,982.5078 L69,982.5078 M56,1001.5078 L43,1016.5078 M56,1001.5078 L69,1016.5078 " fill="none" style="stroke:#181818;stroke-width:0.5;"/><rect fill="#FFFFFF" height="30.2969" rx="2.5" ry="2.5" style="stroke:#181818;stroke-width:0.5;" width="135" x="335.5" y="87.2969"/><text fill="#000000" font-family="sans-serif" font-size="14" lengthAdjust="spacing" textLength="121" x="342.5" y="107.292">:CreateAccountUI</text><rect fill="#FFFFFF" height="30.2969" rx="2.5" ry="2.5" style="stroke:#181818;stroke-width:0.5;" width="135" x="335.5" y="941.7109"/><text fill="#000000" font-family="sans-serif" font-size="14" lengthAdjust="spacing" textLength="121" x="342.5" y="961.7061">:CreateAccountUI</text><rect fill="#FFFFFF" height="30.2969" rx="2.5" ry="2.5" style="stroke:#181818;stroke-width:0.5;" width="189" x="661.5" y="87.2969"/><text fill="#000000" font-family="sans-serif" font-size="14" lengthAdjust="spacing" textLength="175" x="668.5" y="107.292">:CreateAccountController</text><rect fill="#FFFFFF" height="30.2969" rx="2.5" ry="2.5" style="stroke:#181818;stroke-width:0.5;" width="189" x="661.5" y="941.7109"/><text fill="#000000" font-family="sans-serif" font-size="14" lengthAdjust="spacing" textLength="175" x="668.5" y="961.7061">:CreateAccountController</text><rect fill="#FFFFFF" height="46.5938" rx="2.5" ry="2.5" style="stroke:#181818;stroke-width:0.5;" width="126" x="992" y="71"/><text fill="#000000" font-family="sans-serif" font-size="14" lengthAdjust="spacing" textLength="106" x="1002" y="90.9951">accountService</text><text fill="#000000" font-family="sans-serif" font-size="14" lengthAdjust="spacing" textLength="112" x="999" y="107.292">:AccountService</text><rect fill="#FFFFFF" height="46.5938" rx="2.5" ry="2.5" style="stroke:#181818;stroke-width:0.5;" width="126" x="992" y="941.7109"/><text fill="#000000" font-family="sans-serif" font-size="14" lengthAdjust="spacing" textLength="106" x="1002" y="961.7061">accountService</text><text fill="#000000" font-family="sans-serif" font-size="14" lengthAdjust="spacing" textLength="112" x="999" y="978.0029">:AccountService</text><rect fill="#FFFFFF" height="62.8906" rx="2.5" ry="2.5" style="stroke:#181818;stroke-width:0.5;" width="120" x="1274" y="941.7109"/><text fill="#000000" font-family="sans-serif" font-size="14" lengthAdjust="spacing" textLength="101" x="1283.5" y="961.7061">&#171;ValueObject&#187;</text><text fill="#000000" font-family="sans-serif" font-size="14" lengthAdjust="spacing" textLength="96" x="1284" y="978.0029">accountName</text><text fill="#000000" font-family="sans-serif" font-size="14" lengthAdjust="spacing" textLength="106" x="1281" y="994.2998">: AccountName</text><rect fill="#FFFFFF" height="62.8906" rx="2.5" ry="2.5" style="stroke:#181818;stroke-width:0.5;" width="115" x="1404" y="941.7109"/><text fill="#000000" font-family="sans-serif" font-size="14" lengthAdjust="spacing" textLength="101" x="1411" y="961.7061">&#171;ValueObject&#187;</text><text fill="#000000" font-family="sans-serif" font-size="14" lengthAdjust="spacing" textLength="82" x="1418.5" y="978.0029">profileName</text><text fill="#000000" font-family="sans-serif" font-size="14" lengthAdjust="spacing" textLength="91" x="1416" y="994.2998">: ProfileName</text><rect fill="#FFFFFF" height="46.5938" rx="2.5" ry="2.5" style="stroke:#181818;stroke-width:0.5;" width="99" x="1529" y="941.7109"/><text fill="#000000" font-family="sans-serif" font-size="14" lengthAdjust="spacing" textLength="85" x="1536" y="961.7061">&#171;DomainID&#187;</text><text fill="#000000" font-family="sans-serif" font-size="14" lengthAdjust="spacing" textLength="85" x="1536" y="978.0029">email : Email</text><rect fill="#FFFFFF" height="62.8906" rx="2.5" ry="2.5" style="stroke:#181818;stroke-width:0.5;" width="119" x="1638" y="941.7109"/><text fill="#000000" font-family="sans-serif" font-size="14" lengthAdjust="spacing" textLength="101" x="1647" y="961.7061">&#171;ValueObject&#187;</text><text fill="#000000" font-family="sans-serif" font-size="14" lengthAdjust="spacing" textLength="100" x="1647.5" y="978.0029">phoneNumber</text><text fill="#000000" font-family="sans-serif" font-size="14" lengthAdjust="spacing" textLength="105" x="1645" y="994.2998">:PhoneNumber</text><rect fill="#FFFFFF" height="46.5938" rx="2.5" ry="2.5" style="stroke:#181818;stroke-width:0.5;" width="135" x="1767" y="71"/><text fill="#000000" font-family="sans-serif" font-size="14" lengthAdjust="spacing" textLength="92" x="1788.5" y="90.9951">&#171;Repository&#187;</text><text fill="#000000" font-family="sans-serif" font-size="14" lengthAdjust="spacing" textLength="121" x="1774" y="107.292">:ProfileRepository</text><rect fill="#FFFFFF" height="46.5938" rx="2.5" ry="2.5" style="stroke:#181818;stroke-width:0.5;" width="135" x="1767" y="941.7109"/><text fill="#000000" font-family="sans-serif" font-size="14" lengthAdjust="spacing" textLength="92" x="1788.5" y="961.7061">&#171;Repository&#187;</text><text fill="#000000" font-family="sans-serif" font-size="14" lengthAdjust="spacing" textLength="121" x="1774" y="978.0029">:ProfileRepository</text><rect fill="#FFFFFF" height="46.5938" rx="2.5" ry="2.5" style="stroke:#181818;stroke-width:0.5;" width="150" x="1912" y="71"/><text fill="#000000" font-family="sans-serif" font-size="14" lengthAdjust="spacing" textLength="92" x="1941" y="90.9951">&#171;Repository&#187;</text><text fill="#000000" font-family="sans-serif" font-size="14" lengthAdjust="spacing" textLength="136" x="1919" y="107.292">:AccountRepository</text><rect fill="#FFFFFF" height="46.5938" rx="2.5" ry="2.5" style="stroke:#181818;stroke-width:0.5;" width="150" x="1912" y="941.7109"/><text fill="#000000" font-family="sans-serif" font-size="14" lengthAdjust="spacing" textLength="92" x="1941" y="961.7061">&#171;Repository&#187;</text><text fill="#000000" font-family="sans-serif" font-size="14" lengthAdjust="spacing" textLength="136" x="1919" y="978.0029">:AccountRepository</text><rect fill="#FFFFFF" height="46.5938" rx="2.5" ry="2.5" style="stroke:#181818;stroke-width:0.5;" width="126" x="2072" y="71"/><text fill="#000000" font-family="sans-serif" font-size="14" lengthAdjust="spacing" textLength="106" x="2082" y="90.9951">accountFactory</text><text fill="#000000" font-family="sans-serif" font-size="14" lengthAdjust="spacing" textLength="112" x="2079" y="107.292">:AccountFactory</text><rect fill="#FFFFFF" height="46.5938" rx="2.5" ry="2.5" style="stroke:#181818;stroke-width:0.5;" width="126" x="2072" y="941.7109"/><text fill="#000000" font-family="sans-serif" font-size="14" lengthAdjust="spacing" textLength="106" x="2082" y="961.7061">accountFactory</text><text fill="#000000" font-family="sans-serif" font-size="14" lengthAdjust="spacing" textLength="112" x="2079" y="978.0029">:AccountFactory</text><rect fill="#FFFFFF" height="46.5938" rx="2.5" ry="2.5" style="stroke:#181818;stroke-width:0.5;" width="113" x="2418" y="941.7109"/><text fill="#000000" font-family="sans-serif" font-size="14" lengthAdjust="spacing" textLength="95" x="2425" y="961.7061">newAccount :</text><text fill="#000000" font-family="sans-serif" font-size="14" lengthAdjust="spacing" textLength="57" x="2446" y="978.0029">Account</text><rect fill="#FFFFFF" height="783.9844" style="stroke:#181818;stroke-width:1.0;" width="10" x="398" y="149.7266"/><rect fill="#FFFFFF" height="672.4531" style="stroke:#181818;stroke-width:1.0;" width="10" x="751" y="252.2578"/><rect fill="#FFFFFF" height="599.0547" style="stroke:#181818;stroke-width:1.0;" width="10" x="1050" y="296.5234"/><rect fill="#FFFFFF" height="29.1328" style="stroke:#181818;stroke-width:1.0;" width="10" x="1829.5" y="604.9219"/><rect fill="#FFFFFF" height="29.1328" style="stroke:#181818;stroke-width:1.0;" width="10" x="1982" y="663.1875"/><rect fill="#FFFFFF" height="29.1328" style="stroke:#181818;stroke-width:1.0;" width="10" x="1982" y="837.3125"/><rect fill="#FFFFFF" height="86.7266" style="stroke:#181818;stroke-width:1.0;" width="10" x="2130" y="721.4531"/><polygon fill="#181818" points="386,145.7266,396,149.7266,386,153.7266,390,149.7266" style="stroke:#181818;stroke-width:1.0;"/><line style="stroke:#181818;stroke-width:1.0;" x1="56" x2="392" y1="149.7266" y2="149.7266"/><text fill="#000000" font-family="sans-serif" font-size="13" font-weight="bold" lengthAdjust="spacing" textLength="9" x="130" y="144.6606">1</text><text fill="#000000" font-family="sans-serif" font-size="13" lengthAdjust="spacing" textLength="181" x="143" y="144.6606">requests to register account</text><polygon fill="#181818" points="67,174.8594,57,178.8594,67,182.8594,63,178.8594" style="stroke:#181818;stroke-width:1.0;"/><line style="stroke:#181818;stroke-width:1.0;" x1="61" x2="397" y1="178.8594" y2="178.8594"/><text fill="#000000" font-family="sans-serif" font-size="13" font-weight="bold" lengthAdjust="spacing" textLength="9" x="172.5" y="173.7935">2</text><text fill="#000000" font-family="sans-serif" font-size="13" lengthAdjust="spacing" textLength="96" x="185.5" y="173.7935">asks for details</text><polygon fill="#181818" points="386,203.9922,396,207.9922,386,211.9922,390,207.9922" style="stroke:#181818;stroke-width:1.0;"/><line style="stroke:#181818;stroke-width:1.0;" x1="56" x2="392" y1="207.9922" y2="207.9922"/><text fill="#000000" font-family="sans-serif" font-size="13" font-weight="bold" lengthAdjust="spacing" textLength="9" x="68" y="202.9263">3</text><text fill="#000000" font-family="sans-serif" font-size="13" lengthAdjust="spacing" textLength="305" x="81" y="202.9263">fills details (name, email, photo, phoneNumber)</text><polygon fill="#181818" points="739,248.2578,749,252.2578,739,256.2578,743,252.2578" style="stroke:#181818;stroke-width:1.0;"/><line style="stroke:#181818;stroke-width:1.0;" x1="408" x2="745" y1="252.2578" y2="252.2578"/><text fill="#000000" font-family="sans-serif" font-size="13" font-weight="bold" lengthAdjust="spacing" textLength="9" x="417.5" y="239.6255">4</text><text fill="#000000" font-family="sans-serif" font-size="13" lengthAdjust="spacing" textLength="307" x="430.5" y="232.0591">createAccount(accountNameValue, emailValue,</text><text fill="#000000" font-family="sans-serif" font-size="13" lengthAdjust="spacing" textLength="178" x="497" y="247.1919">photo, phoneNumberValue)</text><polygon fill="#181818" points="1038,292.5234,1048,296.5234,1038,300.5234,1042,296.5234" style="stroke:#181818;stroke-width:1.0;"/><line style="stroke:#181818;stroke-width:1.0;" x1="761" x2="1044" y1="296.5234" y2="296.5234"/><text fill="#000000" font-family="sans-serif" font-size="13" font-weight="bold" lengthAdjust="spacing" textLength="9" x="770.5" y="283.8911">5</text><text fill="#000000" font-family="sans-serif" font-size="13" lengthAdjust="spacing" textLength="228" x="796" y="276.3247">createAccount(accountNameValue,</text><text fill="#000000" font-family="sans-serif" font-size="13" lengthAdjust="spacing" textLength="257" x="783.5" y="291.4575">emailValue, photo, phoneNumberValue)</text><polygon fill="#181818" points="1262,321.6563,1272,325.6563,1262,329.6563,1266,325.6563" style="stroke:#181818;stroke-width:1.0;"/><line style="stroke:#181818;stroke-width:1.0;" x1="1060" x2="1268" y1="325.6563" y2="325.6563"/><text fill="#000000" font-family="sans-serif" font-size="13" font-weight="bold" lengthAdjust="spacing" textLength="9" x="1072" y="320.5903">6</text><text fill="#000000" font-family="sans-serif" font-size="13" lengthAdjust="spacing" textLength="177" x="1085" y="320.5903">create(accountNameValue)</text><rect fill="#FFFFFF" height="62.8906" rx="2.5" ry="2.5" style="stroke:#181818;stroke-width:0.5;" width="120" x="1274" y="304.5234"/><text fill="#000000" font-family="sans-serif" font-size="14" lengthAdjust="spacing" textLength="101" x="1283.5" y="324.5186">&#171;ValueObject&#187;</text><text fill="#000000" font-family="sans-serif" font-size="14" lengthAdjust="spacing" textLength="96" x="1284" y="340.8154">accountName</text><text fill="#000000" font-family="sans-serif" font-size="14" lengthAdjust="spacing" textLength="106" x="1281" y="357.1123">: AccountName</text><polygon fill="#181818" points="1392,395.5469,1402,399.5469,1392,403.5469,1396,399.5469" style="stroke:#181818;stroke-width:1.0;"/><line style="stroke:#181818;stroke-width:1.0;" x1="1060" x2="1398" y1="399.5469" y2="399.5469"/><text fill="#000000" font-family="sans-serif" font-size="13" font-weight="bold" lengthAdjust="spacing" textLength="9" x="1181" y="394.481">7</text><text fill="#000000" font-family="sans-serif" font-size="13" lengthAdjust="spacing" textLength="89" x="1194" y="394.481">create("user")</text><rect fill="#FFFFFF" height="62.8906" rx="2.5" ry="2.5" style="stroke:#181818;stroke-width:0.5;" width="115" x="1404" y="378.4141"/><text fill="#000000" font-family="sans-serif" font-size="14" lengthAdjust="spacing" textLength="101" x="1411" y="398.4092">&#171;ValueObject&#187;</text><text fill="#000000" font-family="sans-serif" font-size="14" lengthAdjust="spacing" textLength="82" x="1418.5" y="414.7061">profileName</text><text fill="#000000" font-family="sans-serif" font-size="14" lengthAdjust="spacing" textLength="91" x="1416" y="431.0029">: ProfileName</text><polygon fill="#181818" points="1517,469.4375,1527,473.4375,1517,477.4375,1521,473.4375" style="stroke:#181818;stroke-width:1.0;"/><line style="stroke:#181818;stroke-width:1.0;" x1="1060" x2="1523" y1="473.4375" y2="473.4375"/><text fill="#000000" font-family="sans-serif" font-size="13" font-weight="bold" lengthAdjust="spacing" textLength="9" x="1227" y="468.3716">8</text><text fill="#000000" font-family="sans-serif" font-size="13" lengthAdjust="spacing" textLength="122" x="1240" y="468.3716">create(emailValue)</text><rect fill="#FFFFFF" height="46.5938" rx="2.5" ry="2.5" style="stroke:#181818;stroke-width:0.5;" width="99" x="1529" y="452.3047"/><text fill="#000000" font-family="sans-serif" font-size="14" lengthAdjust="spacing" textLength="85" x="1536" y="472.2998">&#171;DomainID&#187;</text><text fill="#000000" font-family="sans-serif" font-size="14" lengthAdjust="spacing" textLength="85" x="1536" y="488.5967">email : Email</text><polygon fill="#181818" points="1626,527.0313,1636,531.0313,1626,535.0313,1630,531.0313" style="stroke:#181818;stroke-width:1.0;"/><line style="stroke:#181818;stroke-width:1.0;" x1="1060" x2="1632" y1="531.0313" y2="531.0313"/><text fill="#000000" font-family="sans-serif" font-size="13" font-weight="bold" lengthAdjust="spacing" textLength="9" x="1253" y="525.9653">9</text><text fill="#000000" font-family="sans-serif" font-size="13" lengthAdjust="spacing" textLength="179" x="1266" y="525.9653">create(phoneNumberValue)</text><rect fill="#FFFFFF" height="62.8906" rx="2.5" ry="2.5" style="stroke:#181818;stroke-width:0.5;" width="119" x="1638" y="509.8984"/><text fill="#000000" font-family="sans-serif" font-size="14" lengthAdjust="spacing" textLength="101" x="1647" y="529.8936">&#171;ValueObject&#187;</text><text fill="#000000" font-family="sans-serif" font-size="14" lengthAdjust="spacing" textLength="100" x="1647.5" y="546.1904">phoneNumber</text><text fill="#000000" font-family="sans-serif" font-size="14" lengthAdjust="spacing" textLength="105" x="1645" y="562.4873">:PhoneNumber</text><polygon fill="#181818" points="1817.5,600.9219,1827.5,604.9219,1817.5,608.9219,1821.5,604.9219" style="stroke:#181818;stroke-width:1.0;"/><line style="stroke:#181818;stroke-width:1.0;" x1="1060" x2="1823.5" y1="604.9219" y2="604.9219"/><text fill="#000000" font-family="sans-serif" font-size="13" font-weight="bold" lengthAdjust="spacing" textLength="18" x="1356.75" y="599.856">10</text><text fill="#000000" font-family="sans-serif" font-size="13" lengthAdjust="spacing" textLength="154" x="1378.75" y="599.856">existsByID(profileName)</text><polygon fill="#181818" points="1071,630.0547,1061,634.0547,1071,638.0547,1067,634.0547" style="stroke:#181818;stroke-width:1.0;"/><line style="stroke:#181818;stroke-width:1.0;stroke-dasharray:2.0,2.0;" x1="1065" x2="1833.5" y1="634.0547" y2="634.0547"/><text fill="#000000" font-family="sans-serif" font-size="13" font-weight="bold" lengthAdjust="spacing" textLength="18" x="1406.25" y="628.9888">11</text><text fill="#000000" font-family="sans-serif" font-size="13" lengthAdjust="spacing" textLength="60" x="1428.25" y="628.9888">true/false</text><polygon fill="#181818" points="1970,659.1875,1980,663.1875,1970,667.1875,1974,663.1875" style="stroke:#181818;stroke-width:1.0;"/><line style="stroke:#181818;stroke-width:1.0;" x1="1060" x2="1976" y1="663.1875" y2="663.1875"/><text fill="#000000" font-family="sans-serif" font-size="13" font-weight="bold" lengthAdjust="spacing" textLength="18" x="1454.5" y="658.1216">12</text><text fill="#000000" font-family="sans-serif" font-size="13" lengthAdjust="spacing" textLength="111" x="1476.5" y="658.1216">existsByID(email)</text><polygon fill="#181818" points="1071,688.3203,1061,692.3203,1071,696.3203,1067,692.3203" style="stroke:#181818;stroke-width:1.0;"/><line style="stroke:#181818;stroke-width:1.0;stroke-dasharray:2.0,2.0;" x1="1065" x2="1986" y1="692.3203" y2="692.3203"/><text fill="#000000" font-family="sans-serif" font-size="13" font-weight="bold" lengthAdjust="spacing" textLength="18" x="1482.5" y="687.2544">13</text><text fill="#000000" font-family="sans-serif" font-size="13" lengthAdjust="spacing" textLength="60" x="1504.5" y="687.2544">true/false</text><polygon fill="#181818" points="2118,717.4531,2128,721.4531,2118,725.4531,2122,721.4531" style="stroke:#181818;stroke-width:1.0;"/><line style="stroke:#181818;stroke-width:1.0;" x1="1060" x2="2124" y1="721.4531" y2="721.4531"/><text fill="#000000" font-family="sans-serif" font-size="13" font-weight="bold" lengthAdjust="spacing" textLength="18" x="1377" y="716.3872">14</text><text fill="#000000" font-family="sans-serif" font-size="13" lengthAdjust="spacing" textLength="414" x="1399" y="716.3872">createAccount(email, name, profileName, phoneNumber, photo)</text><polygon fill="#181818" points="2406,761.7188,2416,765.7188,2406,769.7188,2410,765.7188" style="stroke:#181818;stroke-width:1.0;"/><line style="stroke:#181818;stroke-width:1.0;" x1="2140" x2="2412" y1="765.7188" y2="765.7188"/><text fill="#000000" font-family="sans-serif" font-size="13" font-weight="bold" lengthAdjust="spacing" textLength="18" x="2152" y="753.0864">15</text><text fill="#000000" font-family="sans-serif" font-size="13" lengthAdjust="spacing" textLength="130" x="2225" y="745.52">create(email, name,</text><text fill="#000000" font-family="sans-serif" font-size="13" lengthAdjust="spacing" textLength="228" x="2178" y="760.6528">profileName, phoneNumber, photo)</text><rect fill="#FFFFFF" height="46.5938" rx="2.5" ry="2.5" style="stroke:#181818;stroke-width:0.5;" width="113" x="2418" y="729.4531"/><text fill="#000000" font-family="sans-serif" font-size="14" lengthAdjust="spacing" textLength="95" x="2425" y="749.4482">newAccount :</text><text fill="#000000" font-family="sans-serif" font-size="14" lengthAdjust="spacing" textLength="57" x="2446" y="765.7451">Account</text><polygon fill="#181818" points="1071,804.1797,1061,808.1797,1071,812.1797,1067,808.1797" style="stroke:#181818;stroke-width:1.0;"/><line style="stroke:#181818;stroke-width:1.0;stroke-dasharray:2.0,2.0;" x1="1065" x2="2134" y1="808.1797" y2="808.1797"/><text fill="#000000" font-family="sans-serif" font-size="13" font-weight="bold" lengthAdjust="spacing" textLength="18" x="1548" y="803.1138">16</text><text fill="#000000" font-family="sans-serif" font-size="13" lengthAdjust="spacing" textLength="77" x="1570" y="803.1138">newAccount</text><polygon fill="#181818" points="1970,833.3125,1980,837.3125,1970,841.3125,1974,837.3125" style="stroke:#181818;stroke-width:1.0;"/><line style="stroke:#181818;stroke-width:1.0;" x1="1060" x2="1976" y1="837.3125" y2="837.3125"/><text fill="#000000" font-family="sans-serif" font-size="13" font-weight="bold" lengthAdjust="spacing" textLength="18" x="1451.5" y="832.2466">17</text><text fill="#000000" font-family="sans-serif" font-size="13" lengthAdjust="spacing" textLength="117" x="1473.5" y="832.2466">save(newAccount)</text><polygon fill="#181818" points="1071,862.4453,1061,866.4453,1071,870.4453,1067,866.4453" style="stroke:#181818;stroke-width:1.0;"/><line style="stroke:#181818;stroke-width:1.0;stroke-dasharray:2.0,2.0;" x1="1065" x2="1986" y1="866.4453" y2="866.4453"/><text fill="#000000" font-family="sans-serif" font-size="13" font-weight="bold" lengthAdjust="spacing" textLength="18" x="1482.5" y="861.3794">18</text><text fill="#000000" font-family="sans-serif" font-size="13" lengthAdjust="spacing" textLength="60" x="1504.5" y="861.3794">true/false</text><polygon fill="#181818" points="772,891.5781,762,895.5781,772,899.5781,768,895.5781" style="stroke:#181818;stroke-width:1.0;"/><line style="stroke:#181818;stroke-width:1.0;stroke-dasharray:2.0,2.0;" x1="766" x2="1054" y1="895.5781" y2="895.5781"/><text fill="#000000" font-family="sans-serif" font-size="13" font-weight="bold" lengthAdjust="spacing" textLength="18" x="867" y="890.5122">19</text><text fill="#000000" font-family="sans-serif" font-size="13" lengthAdjust="spacing" textLength="60" x="889" y="890.5122">true/false</text><polygon fill="#181818" points="419,920.7109,409,924.7109,419,928.7109,415,924.7109" style="stroke:#181818;stroke-width:1.0;"/><line style="stroke:#181818;stroke-width:1.0;stroke-dasharray:2.0,2.0;" x1="413" x2="755" y1="924.7109" y2="924.7109"/><text fill="#000000" font-family="sans-serif" font-size="13" font-weight="bold" lengthAdjust="spacing" textLength="18" x="495" y="919.645">20</text><text fill="#000000" font-family="sans-serif" font-size="13" lengthAdjust="spacing" textLength="152" x="517" y="919.645">successful/unsuccessful</text><!--SRC=[dPRDSjem483lVeeTJcH89faUFHbc2AIj3qqpoT0J5yKinCL8L993UVkkvIMImCIXEc2jjFkjj3yQpAgG6w756Wp-gL3c-0ED4KiSbSLIGexIeaxCkvR8hT9t8byjjQhaVAnAfM7xMbWCbEZN5dcn4T9sgUwzFk42TJqvs-0xYZdgpvfz8vrDkt8YAgjajNwX2zl2bWZJvvkRBt058mEZ-RgGXR5QqFql8OCjNGwi0erBMaOD0Yf3becB4FJIoA87ue2H144YxR56ON6KvtGgEysS_ZJxI6cifDMgBB61Up4s4etsC-gt8iUPJ4VHWhFbUMnuU_jBb1N-VFcDkHqEPv993sADG1mOURcvdfSxI1kj5aM9xwH7BpjI81-I9cej2fbDQWpIj8GKxkklCtIpBkUlIkA3IpFvVlHIuzhBXvmdt2XJKEfsDIRbG_hLyEX-jOF2GJkW7AssvlIhAxMTf_22G_0yDfIuPLKAsqpotEdxhII92XMkXbI9Wq5AfKuzPAo9ovwDfbcj65ccn5qPM11ZZfOoOzh8AL30IhDNWRwaj5-2I-ubKBQiSfzzMYwI16Wq_dpLrmVCm_xe1_NgIe2PF7U5S81sMyolXwVNlhXBFkE8QvEbRaVrQ9XH5uNRxDq5EMZ4_LcE3j5E3plh13rGyVHU_RRrsfbDqvsWtNEFCiU7vSJvWlOxTJwluhaTiJs-dc-jmO0m-9UAqjpjiaa_U9mk8eX6Msa9LbTulH2bmQGZGQTzk33yBvqxsp7ZGkIUQHeek4TKUroFxV4FNe5mbrtMthr6d5HsEvDdEkPxXy_FML4ruWtxthepg3mwmixBfifp-ZkqgChhIdeX-GS0]--></g></svg>