<?xml version="1.0" encoding="us-ascii" standalone="no"?><svg xmlns="http://www.w3.org/2000/svg" xmlns:xlink="http://www.w3.org/1999/xlink" contentStyleType="text/css" height="495px" preserveAspectRatio="none" style="width:896px;height:495px;background:#FFFFFF;" version="1.1" viewBox="0 0 896 495" width="896px" zoomAndPan="magnify"><defs/><g><text fill="#000000" font-family="sans-serif" font-size="14" font-weight="bold" lengthAdjust="spacing" textLength="674" x="109.5" y="32.9951">US031 -  As Project Manager, I want to start the next sprint of a project in the web UI</text><rect fill="#F1F1F1" height="36.2969" rx="12.5" ry="12.5" style="stroke:#181818;stroke-width:1.5;" width="106.3333" x="393.8333" y="47.2969"/><path d="M409.5,60.7604 C406.9217,60.7604 404.8333,62.8487 404.8333,65.4271 C404.8333,68.0054 406.9217,70.0938 409.5,70.0938 C412.0783,70.0938 414.1667,68.0054 414.1667,65.4271 C414.1667,62.8487 412.0783,60.7604 409.5,60.7604 M409.5,61.9271 C409.885,61.9271 410.2467,62.0321 410.5967,62.1488 C410.3517,62.3821 410.0717,62.5921 410.1183,62.8021 C410.165,63.0121 410.9233,62.9538 410.9233,63.3854 C410.9233,63.7004 410.4333,63.7937 410.7717,64.1554 C411.18,64.5638 410.025,65.2988 410.0017,65.8354 C409.9667,66.8038 410.9817,66.9671 411.7867,66.9671 C412.2767,66.9671 412.405,67.2004 412.37,67.4804 C411.74,68.3788 410.6667,68.9388 409.4883,68.9388 C409.045,68.9388 408.6367,68.8338 408.2517,68.6821 C408.5083,68.1688 407.925,67.1538 407.3767,66.8271 C407.1083,66.5588 406.5367,66.6638 406.21,66.5354 C406.105,66.2204 406,65.9054 405.9883,65.5554 C406.0233,65.4971 406.0817,65.4504 406.175,65.4504 C406.3967,65.4504 406.7,65.8938 406.8633,65.8471 C407.0733,65.8004 406,64.3188 406.5017,64.0271 C406.735,63.8871 407.2017,64.4821 407.05,63.8404 C406.91,63.2454 407.47,63.5137 407.82,63.3621 C408.1233,63.2338 408.345,62.8838 407.9717,62.6738 C407.9017,62.6387 407.82,62.5571 407.715,62.4521 C408.24,62.1371 408.8467,61.9388 409.5,61.9388 M412.195,63.1988 C412.405,63.4554 412.5683,63.7354 412.7083,64.0388 C412.7083,64.0504 412.7083,64.0621 412.7083,64.0738 C412.6617,64.1554 412.58,64.2021 412.4517,64.3304 C412.125,64.6571 412.0783,64.0854 411.9383,63.9688 C411.7867,63.8288 411.2383,63.9921 411.1683,63.8171 C411.0867,63.6071 411.7517,63.3271 412.195,63.1988 " fill="#000000" style="stroke:;stroke-width:0.0;stroke-dasharray:;"/><text fill="#000000" font-family="sans-serif" font-size="14" lengthAdjust="spacing" textLength="75" x="415.1667" y="70.292">Application</text><rect fill="#F1F1F1" height="36.2969" rx="12.5" ry="12.5" style="stroke:#181818;stroke-width:1.5;" width="67" x="24" y="108.5938"/><text fill="#000000" font-family="sans-serif" font-size="14" lengthAdjust="spacing" textLength="47" x="34" y="131.5889">Navbar</text><rect fill="#F1F1F1" height="36.2969" rx="12.5" ry="12.5" style="stroke:#181818;stroke-width:1.5;" width="75" x="20" y="169.8906"/><text fill="#000000" font-family="sans-serif" font-size="14" lengthAdjust="spacing" textLength="55" x="30" y="192.8857">NavItem</text><path d="M57.5,144.8906 L57.5,147.8906 C57.5,154.8906 57.5,159.8906 57.5,166.8906 L57.5,169.8906 " fill="none" style="stroke:#181818;stroke-width:1.0;"/><path d="M447,83.5938 L447,86.5938 C447,93.5938 57.5,98.5938 57.5,105.5938 L57.5,108.5938 " fill="none" style="stroke:#181818;stroke-width:1.0;"/><rect fill="#F1F1F1" height="36.2969" rx="12.5" ry="12.5" style="stroke:#181818;stroke-width:1.5;" width="94" x="447.5" y="108.5938"/><text fill="#000000" font-family="sans-serif" font-size="14" lengthAdjust="spacing" textLength="74" x="457.5" y="131.5889">MainRoute</text><rect fill="#F1F1F1" height="36.2969" rx="12.5" ry="12.5" style="stroke:#181818;stroke-width:1.5;" width="76" x="456.5" y="169.8906"/><text fill="#000000" font-family="sans-serif" font-size="14" lengthAdjust="spacing" textLength="56" x="466.5" y="192.8857">Projects</text><rect fill="#F1F1F1" height="36.2969" rx="12.5" ry="12.5" style="stroke:#181818;stroke-width:1.5;" width="103" x="443" y="231.1875"/><text fill="#000000" font-family="sans-serif" font-size="14" lengthAdjust="spacing" textLength="83" x="453" y="254.1826">ProjectPage</text><rect fill="#F1F1F1" height="52.5938" rx="12.5" ry="12.5" style="stroke:#181818;stroke-width:1.5;" width="141" x="115" y="292.4844"/><text fill="#000000" font-family="sans-serif" font-size="14" lengthAdjust="spacing" textLength="121" x="125" y="315.4795">ProjectPageTable</text><text fill="#000000" font-family="sans-serif" font-size="14" lengthAdjust="spacing" textLength="87" x="125" y="331.7764">(Project Info)</text><path d="M494.5,267.4844 L494.5,270.4844 C494.5,277.4844 185.5,282.4844 185.5,289.4844 L185.5,292.4844 " fill="none" style="stroke:#181818;stroke-width:1.0;"/><rect fill="#F1F1F1" height="52.5938" rx="12.5" ry="12.5" style="stroke:#181818;stroke-width:1.5;" width="67" x="276" y="292.4844"/><text fill="#000000" font-family="sans-serif" font-size="14" lengthAdjust="spacing" textLength="47" x="286" y="315.4795">Button</text><text fill="#000000" font-family="sans-serif" font-size="14" lengthAdjust="spacing" textLength="44" x="286" y="331.7764">(Back)</text><path d="M494.5,267.4844 L494.5,270.4844 C494.5,277.4844 309.5,282.4844 309.5,289.4844 L309.5,292.4844 " fill="none" style="stroke:#181818;stroke-width:1.0;"/><rect fill="#F1F1F1" height="52.5938" rx="12.5" ry="12.5" style="stroke:#181818;stroke-width:1.5;" width="143" x="363" y="292.4844"/><text fill="#000000" font-family="sans-serif" font-size="14" lengthAdjust="spacing" textLength="47" x="373" y="315.4795">Button</text><text fill="#000000" font-family="sans-serif" font-size="14" lengthAdjust="spacing" textLength="123" x="373" y="331.7764">(Product Backlog)</text><path d="M494.5,267.4844 L494.5,270.4844 C494.5,277.4844 434.5,282.4844 434.5,289.4844 L434.5,292.4844 " fill="none" style="stroke:#181818;stroke-width:1.0;"/><rect fill="#F1F1F1" height="52.5938" rx="12.5" ry="12.5" style="stroke:#181818;stroke-width:1.5;" width="78" x="526" y="292.4844"/><text fill="#000000" font-family="sans-serif" font-size="14" lengthAdjust="spacing" textLength="47" x="536" y="315.4795">Button</text><text fill="#000000" font-family="sans-serif" font-size="14" lengthAdjust="spacing" textLength="58" x="536" y="331.7764">(Sprints)</text><rect fill="#F1F1F1" height="36.2969" rx="12.5" ry="12.5" style="stroke:#181818;stroke-width:1.5;" width="99" x="515.5" y="370.0781"/><text fill="#000000" font-family="sans-serif" font-size="14" lengthAdjust="spacing" textLength="79" x="525.5" y="393.0732">Sprint Page</text><rect fill="#F1F1F1" height="52.5938" rx="12.5" ry="12.5" style="stroke:#181818;stroke-width:1.5;" width="120" x="320" y="431.375"/><text fill="#000000" font-family="sans-serif" font-size="14" lengthAdjust="spacing" textLength="47" x="330" y="454.3701">Button</text><text fill="#000000" font-family="sans-serif" font-size="14" lengthAdjust="spacing" textLength="100" x="330" y="470.667">(Create Sprint)</text><path d="M565,406.375 L565,409.375 C565,416.375 380,421.375 380,428.375 L380,431.375 " fill="none" style="stroke:#181818;stroke-width:1.0;"/><rect fill="#F1F1F1" height="52.5938" rx="12.5" ry="12.5" style="stroke:#181818;stroke-width:1.5;" width="97" x="460" y="431.375"/><text fill="#000000" font-family="sans-serif" font-size="14" lengthAdjust="spacing" textLength="47" x="470" y="454.3701">Button</text><text fill="#000000" font-family="sans-serif" font-size="14" lengthAdjust="spacing" textLength="77" x="470" y="470.667">(All Sprints)</text><path d="M565,406.375 L565,409.375 C565,416.375 508.5,421.375 508.5,428.375 L508.5,431.375 " fill="none" style="stroke:#181818;stroke-width:1.0;"/><rect fill="#F1F1F1" height="52.5938" rx="12.5" ry="12.5" style="stroke:#181818;stroke-width:1.5;" width="146" x="577" y="431.375"/><text fill="#000000" font-family="sans-serif" font-size="14" lengthAdjust="spacing" textLength="47" x="587" y="454.3701">Button</text><text fill="#000000" font-family="sans-serif" font-size="14" lengthAdjust="spacing" textLength="126" x="587" y="470.667">(Open next Sprint)</text><path d="M565,406.375 L565,409.375 C565,416.375 650,421.375 650,428.375 L650,431.375 " fill="none" style="stroke:#181818;stroke-width:1.0;"/><rect fill="#F1F1F1" height="52.5938" rx="12.5" ry="12.5" style="stroke:#181818;stroke-width:1.5;" width="67" x="743" y="431.375"/><text fill="#000000" font-family="sans-serif" font-size="14" lengthAdjust="spacing" textLength="47" x="753" y="454.3701">Button</text><text fill="#000000" font-family="sans-serif" font-size="14" lengthAdjust="spacing" textLength="44" x="753" y="470.667">(Back)</text><path d="M565,406.375 L565,409.375 C565,416.375 776.5,421.375 776.5,428.375 L776.5,431.375 " fill="none" style="stroke:#181818;stroke-width:1.0;"/><path d="M565,345.0781 L565,348.0781 C565,355.0781 565,360.0781 565,367.0781 L565,370.0781 " fill="none" style="stroke:#181818;stroke-width:1.0;"/><path d="M494.5,267.4844 L494.5,270.4844 C494.5,277.4844 565,282.4844 565,289.4844 L565,292.4844 " fill="none" style="stroke:#181818;stroke-width:1.0;"/><rect fill="#F1F1F1" height="52.5938" rx="12.5" ry="12.5" style="stroke:#181818;stroke-width:1.5;" width="105" x="624" y="292.4844"/><text fill="#000000" font-family="sans-serif" font-size="14" lengthAdjust="spacing" textLength="47" x="634" y="315.4795">Button</text><text fill="#000000" font-family="sans-serif" font-size="14" lengthAdjust="spacing" textLength="85" x="634" y="331.7764">(Resources)</text><path d="M494.5,267.4844 L494.5,270.4844 C494.5,277.4844 676.5,282.4844 676.5,289.4844 L676.5,292.4844 " fill="none" style="stroke:#181818;stroke-width:1.0;"/><rect fill="#F1F1F1" height="52.5938" rx="12.5" ry="12.5" style="stroke:#181818;stroke-width:1.5;" width="125" x="749" y="292.4844"/><text fill="#000000" font-family="sans-serif" font-size="14" lengthAdjust="spacing" textLength="47" x="759" y="315.4795">Button</text><text fill="#000000" font-family="sans-serif" font-size="14" lengthAdjust="spacing" textLength="105" x="759" y="331.7764">(Status History)</text><path d="M494.5,267.4844 L494.5,270.4844 C494.5,277.4844 811.5,282.4844 811.5,289.4844 L811.5,292.4844 " fill="none" style="stroke:#181818;stroke-width:1.0;"/><path d="M494.5,206.1875 L494.5,209.1875 C494.5,216.1875 494.5,221.1875 494.5,228.1875 L494.5,231.1875 " fill="none" style="stroke:#181818;stroke-width:1.0;"/><path d="M494.5,144.8906 L494.5,147.8906 C494.5,154.8906 494.5,159.8906 494.5,166.8906 L494.5,169.8906 " fill="none" style="stroke:#181818;stroke-width:1.0;"/><path d="M447,83.5938 L447,86.5938 C447,93.5938 494.5,98.5938 494.5,105.5938 L494.5,108.5938 " fill="none" style="stroke:#181818;stroke-width:1.0;"/><!--SRC=[TP9DRzim38Rl-XKy3N6m54apR9qn54tQRaiMRq4-sailjCEuwcp9aAXq_VUZ7MTjb-qclWzVYXHruHaTbzfiIgoKOiq5mNhP7mwW1p3oC7VsWJA610tcvDx211xHCB25nWfyJs3e5uEld1PWju1GjIvj6lv8AQmdYcrL-rBBR4lOQ2SfsXgbkl3fJLxObCv7LLNe31kvsuNlk4lHoQavJfZAMarGcuKDJ0reE_Hry2UQIxEDy4fPOLhGdUaSXfgOhOtQj76Ghep0CMO_ZqHnR88uQbZO_3K7ILWsq_iMT64VmtCVBwjTEaAcDYSwvgEYWByAlg0_AZBx9_zlWN_Ei21lWyl87v4b8mSFNxLdwvuYfTG5oOyu_8fv8HjV9pFOaVEo6HYSdFPFXoV3pke-o3OSz3_2u4CyxCU3CxYzNa6D8zNvCf_1_axPjcUdqr1lDb9Jt24iWc5TKWprGDEhRmS1hirEEsjACgocDybpmljtlR6MiSb99t2Jg2lQOYXO79dTQ9F7i5vzxfsf6PeyoDF7G4PTMgdhdeGjVmC0]--></g></svg>