<?xml version="1.0" encoding="us-ascii" standalone="no"?><svg xmlns="http://www.w3.org/2000/svg" xmlns:xlink="http://www.w3.org/1999/xlink" contentStyleType="text/css" height="674px" preserveAspectRatio="none" style="width:788px;height:674px;background:#FFFFFF;" version="1.1" viewBox="0 0 788 674" width="788px" zoomAndPan="magnify"><defs/><g><text fill="#000000" font-family="sans-serif" font-size="14" font-weight="bold" lengthAdjust="spacing" textLength="760" x="10" y="22.9951">US034 -   As Project Manager, I want to close the current/active sprint of a project in the web UI</text><!--cluster src--><g id="cluster_src"><path d="M290.5,43.2969 L316.5,43.2969 A3.75,3.75 0 0 1 319,45.7969 L326,65.5938 L502.5,65.5938 A2.5,2.5 0 0 1 505,68.0938 L505,664.5169 A2.5,2.5 0 0 1 502.5,667.0169 L290.5,667.0169 A2.5,2.5 0 0 1 288,664.5169 L288,45.7969 A2.5,2.5 0 0 1 290.5,43.2969 " fill="none" style="stroke:#000000;stroke-width:1.5;"/><line style="stroke:#000000;stroke-width:1.5;" x1="288" x2="326" y1="65.5938" y2="65.5938"/><text fill="#000000" font-family="sans-serif" font-size="14" font-weight="bold" lengthAdjust="spacing" textLength="25" x="292" y="58.292">src</text></g><!--cluster components--><g id="cluster_components"><path d="M340.5,321.0169 L439.5,321.0169 A3.75,3.75 0 0 1 442,323.5169 L449,343.3138 L462.5,343.3138 A2.5,2.5 0 0 1 465,345.8138 L465,438.5169 A2.5,2.5 0 0 1 462.5,441.0169 L340.5,441.0169 A2.5,2.5 0 0 1 338,438.5169 L338,323.5169 A2.5,2.5 0 0 1 340.5,321.0169 " fill="none" style="stroke:#000000;stroke-width:1.5;"/><line style="stroke:#000000;stroke-width:1.5;" x1="338" x2="449" y1="343.3138" y2="343.3138"/><text fill="#000000" font-family="sans-serif" font-size="14" font-weight="bold" lengthAdjust="spacing" textLength="98" x="342" y="336.012">components</text></g><path d="M360,131.0169 L406,131.0169 A3.75,3.75 0 0 1 408.5,133.5169 L415.5,153.3138 L420,153.3138 A2.5,2.5 0 0 1 422.5,155.8138 L422.5,181.1106 A2.5,2.5 0 0 1 420,183.6106 L360,183.6106 A2.5,2.5 0 0 1 357.5,181.1106 L357.5,133.5169 A2.5,2.5 0 0 1 360,131.0169 " fill="#F1F1F1" style="stroke:#181818;stroke-width:0.5;"/><line style="stroke:#181818;stroke-width:0.5;" x1="357.5" x2="415.5" y1="153.3138" y2="153.3138"/><text fill="#000000" font-family="sans-serif" font-size="14" lengthAdjust="spacing" textLength="45" x="361.5" y="146.012">routes</text><path d="M361,244.0169 L405,244.0169 A3.75,3.75 0 0 1 407.5,246.5169 L414.5,266.3138 L419,266.3138 A2.5,2.5 0 0 1 421.5,268.8138 L421.5,294.1106 A2.5,2.5 0 0 1 419,296.6106 L361,296.6106 A2.5,2.5 0 0 1 358.5,294.1106 L358.5,246.5169 A2.5,2.5 0 0 1 361,244.0169 " fill="#F1F1F1" style="stroke:#181818;stroke-width:0.5;"/><line style="stroke:#181818;stroke-width:0.5;" x1="358.5" x2="414.5" y1="266.3138" y2="266.3138"/><text fill="#000000" font-family="sans-serif" font-size="14" lengthAdjust="spacing" textLength="43" x="362.5" y="259.012">pages</text><path d="M365,364.0169 L405,364.0169 A3.75,3.75 0 0 1 407.5,366.5169 L414.5,386.3138 L419,386.3138 A2.5,2.5 0 0 1 421.5,388.8138 L421.5,414.1106 A2.5,2.5 0 0 1 419,416.6106 L365,416.6106 A2.5,2.5 0 0 1 362.5,414.1106 L362.5,366.5169 A2.5,2.5 0 0 1 365,364.0169 " fill="#F1F1F1" style="stroke:#181818;stroke-width:0.5;"/><line style="stroke:#181818;stroke-width:0.5;" x1="362.5" x2="414.5" y1="386.3138" y2="386.3138"/><text fill="#000000" font-family="sans-serif" font-size="14" lengthAdjust="spacing" textLength="39" x="366.5" y="379.012">sprint</text><path d="M337.5,477.0169 L390.5,477.0169 A3.75,3.75 0 0 1 393,479.5169 L400,499.3138 L404.5,499.3138 A2.5,2.5 0 0 1 407,501.8138 L407,527.1106 A2.5,2.5 0 0 1 404.5,529.6106 L337.5,529.6106 A2.5,2.5 0 0 1 335,527.1106 L335,479.5169 A2.5,2.5 0 0 1 337.5,477.0169 " fill="#F1F1F1" style="stroke:#181818;stroke-width:0.5;"/><line style="stroke:#181818;stroke-width:0.5;" x1="335" x2="400" y1="499.3138" y2="499.3138"/><text fill="#000000" font-family="sans-serif" font-size="14" lengthAdjust="spacing" textLength="52" x="339" y="492.012">context</text><path d="M335,590.0169 L393,590.0169 A3.75,3.75 0 0 1 395.5,592.5169 L402.5,612.3138 L407,612.3138 A2.5,2.5 0 0 1 409.5,614.8138 L409.5,640.1106 A2.5,2.5 0 0 1 407,642.6106 L335,642.6106 A2.5,2.5 0 0 1 332.5,640.1106 L332.5,592.5169 A2.5,2.5 0 0 1 335,590.0169 " fill="#F1F1F1" style="stroke:#181818;stroke-width:0.5;"/><line style="stroke:#181818;stroke-width:0.5;" x1="332.5" x2="402.5" y1="612.3138" y2="612.3138"/><text fill="#000000" font-family="sans-serif" font-size="14" lengthAdjust="spacing" textLength="57" x="336.5" y="605.012">services</text><!--link src to components--><g id="link_src_components"><path codeLine="23" d="M424.07,71.0769 C425.42,72.3569 447.12,93.1469 454,115.0169 C472.015,172.3019 473.0225,239.6944 469.4,293.3669 C468.4944,306.785 467.2994,319.3456 466.0084,330.6764 C465.6857,333.5092 465.3569,336.265 465.0252,338.9382 " fill="none" id="src-to-components" style="stroke:#181818;stroke-width:1.0;stroke-dasharray:7.0,7.0;"/><polygon fill="#181818" points="465.0252,338.9382,470.1031,330.4993,465.6409,333.9762,462.164,329.5141,465.0252,338.9382" style="stroke:#181818;stroke-width:1.0;"/></g><!--link src to routes--><g id="link_src_routes"><path codeLine="24" d="M423.98,71.0769 C423.37,72.6069 411.67,102.0369 402.16,125.9269 " fill="none" id="src-to-routes" style="stroke:#181818;stroke-width:1.0;stroke-dasharray:7.0,7.0;"/><polygon fill="#181818" points="400.3,130.6269,407.3382,123.7374,402.1446,125.9796,399.9025,120.786,400.3,130.6269" style="stroke:#181818;stroke-width:1.0;"/></g><!--link routes to pages--><g id="link_routes_pages"><path codeLine="25" d="M390,184.2569 C390,200.5169 390,221.5969 390,238.7269 " fill="none" id="routes-to-pages" style="stroke:#181818;stroke-width:1.0;stroke-dasharray:7.0,7.0;"/><polygon fill="#181818" points="390,243.9069,394.0257,234.9183,390.0143,238.9069,386.0257,234.8955,390,243.9069" style="stroke:#181818;stroke-width:1.0;"/></g><!--link pages to components--><g id="link_pages_components"><path codeLine="26" d="M421.77,294.0969 C423.2,295.0869 424.61,296.0669 426,297.0169 C431.28,300.6469 434.37,299.7369 438,305.0169 C440.64,308.8594 442.9192,313.0103 444.8863,317.3387 C445.3781,318.4207 445.8504,319.5139 446.3039,320.6161 " fill="none" id="pages-to-components" style="stroke:#181818;stroke-width:1.0;stroke-dasharray:7.0,7.0;"/><polygon fill="#181818" points="446.3039,320.6161,446.5784,310.7711,444.4013,315.9922,439.1802,313.8152,446.3039,320.6161" style="stroke:#181818;stroke-width:1.0;"/></g><!--link pages to sprint--><g id="link_pages_sprint"><path codeLine="27" d="M390.43,297.1169 C390.74,315.2169 391.15,339.5469 391.48,358.7069 " fill="none" id="pages-to-sprint" style="stroke:#181818;stroke-width:1.0;stroke-dasharray:7.0,7.0;"/><polygon fill="#181818" points="391.57,363.9669,395.4151,354.8996,391.4843,358.9676,387.4163,355.0368,391.57,363.9669" style="stroke:#181818;stroke-width:1.0;"/></g><!--link sprint to context--><g id="link_sprint_context"><path codeLine="28" d="M387.13,417.2569 C384.05,433.5169 380.07,454.5969 376.82,471.7269 " fill="none" id="sprint-to-context" style="stroke:#181818;stroke-width:1.0;stroke-dasharray:7.0,7.0;"/><polygon fill="#181818" points="375.84,476.9069,381.4415,468.806,376.7683,471.9938,373.5806,467.3207,375.84,476.9069" style="stroke:#181818;stroke-width:1.0;"/></g><!--link pages to context--><g id="link_pages_context"><path codeLine="29" d="M358.35,289.7169 C353.36,294.0569 348.9,299.1669 346,305.0169 C316.01,365.5469 329.21,391.5769 346,457.0169 C347.34,462.2269 349.41,467.4869 351.81,472.4869 " fill="none" id="pages-to-context" style="stroke:#181818;stroke-width:1.0;stroke-dasharray:7.0,7.0;"/><polygon fill="#181818" points="354.08,476.9869,353.5825,467.1506,351.8211,472.5262,346.4454,470.7649,354.08,476.9869" style="stroke:#181818;stroke-width:1.0;"/></g><!--link context to services--><g id="link_context_services"><path codeLine="30" d="M371,530.2569 C371,546.5169 371,567.5969 371,584.7269 " fill="none" id="context-to-services" style="stroke:#181818;stroke-width:1.0;stroke-dasharray:7.0,7.0;"/><polygon fill="#181818" points="371,589.9069,375.0257,580.9183,371.0143,584.9069,367.0257,580.8955,371,589.9069" style="stroke:#181818;stroke-width:1.0;"/></g><!--SRC=[TL1B2i8m4Dtd50_NMWLT2ovT28Bq036C6gr9IAQj8DxTa5Hh5JSPUBzv4zPS4ShTRBx01C0gOEljcHHZ8uqyaXzZZLOQ1bkeoWO2dmYgzfuCJwLYtH22ypfAx04IhlDhavGjxL6kXPFg4kCm2bwDS1Tn5zwOjpLJUC4FCMHTVF-IobwTDR5AKYHkmETcB_T7mc-GORfnlsSOGxxHgg-H9J4ZdeEYMABlyORoLIAFXAHBH7g_JJsO6ulkIxCiLHiOCzBDxEig2l44]--></g></svg>