<?xml version="1.0" encoding="us-ascii" standalone="no"?><svg xmlns="http://www.w3.org/2000/svg" xmlns:xlink="http://www.w3.org/1999/xlink" contentStyleType="text/css" height="674px" preserveAspectRatio="none" style="width:702px;height:674px;background:#FFFFFF;" version="1.1" viewBox="0 0 702 674" width="702px" zoomAndPan="magnify"><defs/><g><text fill="#000000" font-family="sans-serif" font-size="14" font-weight="bold" lengthAdjust="spacing" textLength="674" x="10" y="22.9951">US031 -  As Project Manager, I want to start the next sprint of a project in the web UI</text><!--cluster src--><g id="cluster_src"><path d="M247.5,43.2969 L273.5,43.2969 A3.75,3.75 0 0 1 276,45.7969 L283,65.5938 L459.5,65.5938 A2.5,2.5 0 0 1 462,68.0938 L462,664.5169 A2.5,2.5 0 0 1 459.5,667.0169 L247.5,667.0169 A2.5,2.5 0 0 1 245,664.5169 L245,45.7969 A2.5,2.5 0 0 1 247.5,43.2969 " fill="none" style="stroke:#000000;stroke-width:1.5;"/><line style="stroke:#000000;stroke-width:1.5;" x1="245" x2="283" y1="65.5938" y2="65.5938"/><text fill="#000000" font-family="sans-serif" font-size="14" font-weight="bold" lengthAdjust="spacing" textLength="25" x="249" y="58.292">src</text></g><!--cluster components--><g id="cluster_components"><path d="M297.5,321.0169 L396.5,321.0169 A3.75,3.75 0 0 1 399,323.5169 L406,343.3138 L419.5,343.3138 A2.5,2.5 0 0 1 422,345.8138 L422,438.5169 A2.5,2.5 0 0 1 419.5,441.0169 L297.5,441.0169 A2.5,2.5 0 0 1 295,438.5169 L295,323.5169 A2.5,2.5 0 0 1 297.5,321.0169 " fill="none" style="stroke:#000000;stroke-width:1.5;"/><line style="stroke:#000000;stroke-width:1.5;" x1="295" x2="406" y1="343.3138" y2="343.3138"/><text fill="#000000" font-family="sans-serif" font-size="14" font-weight="bold" lengthAdjust="spacing" textLength="98" x="299" y="336.012">components</text></g><path d="M317,131.0169 L363,131.0169 A3.75,3.75 0 0 1 365.5,133.5169 L372.5,153.3138 L377,153.3138 A2.5,2.5 0 0 1 379.5,155.8138 L379.5,181.1106 A2.5,2.5 0 0 1 377,183.6106 L317,183.6106 A2.5,2.5 0 0 1 314.5,181.1106 L314.5,133.5169 A2.5,2.5 0 0 1 317,131.0169 " fill="#F1F1F1" style="stroke:#181818;stroke-width:0.5;"/><line style="stroke:#181818;stroke-width:0.5;" x1="314.5" x2="372.5" y1="153.3138" y2="153.3138"/><text fill="#000000" font-family="sans-serif" font-size="14" lengthAdjust="spacing" textLength="45" x="318.5" y="146.012">routes</text><path d="M318,244.0169 L362,244.0169 A3.75,3.75 0 0 1 364.5,246.5169 L371.5,266.3138 L376,266.3138 A2.5,2.5 0 0 1 378.5,268.8138 L378.5,294.1106 A2.5,2.5 0 0 1 376,296.6106 L318,296.6106 A2.5,2.5 0 0 1 315.5,294.1106 L315.5,246.5169 A2.5,2.5 0 0 1 318,244.0169 " fill="#F1F1F1" style="stroke:#181818;stroke-width:0.5;"/><line style="stroke:#181818;stroke-width:0.5;" x1="315.5" x2="371.5" y1="266.3138" y2="266.3138"/><text fill="#000000" font-family="sans-serif" font-size="14" lengthAdjust="spacing" textLength="43" x="319.5" y="259.012">pages</text><path d="M322,364.0169 L362,364.0169 A3.75,3.75 0 0 1 364.5,366.5169 L371.5,386.3138 L376,386.3138 A2.5,2.5 0 0 1 378.5,388.8138 L378.5,414.1106 A2.5,2.5 0 0 1 376,416.6106 L322,416.6106 A2.5,2.5 0 0 1 319.5,414.1106 L319.5,366.5169 A2.5,2.5 0 0 1 322,364.0169 " fill="#F1F1F1" style="stroke:#181818;stroke-width:0.5;"/><line style="stroke:#181818;stroke-width:0.5;" x1="319.5" x2="371.5" y1="386.3138" y2="386.3138"/><text fill="#000000" font-family="sans-serif" font-size="14" lengthAdjust="spacing" textLength="39" x="323.5" y="379.012">sprint</text><path d="M294.5,477.0169 L347.5,477.0169 A3.75,3.75 0 0 1 350,479.5169 L357,499.3138 L361.5,499.3138 A2.5,2.5 0 0 1 364,501.8138 L364,527.1106 A2.5,2.5 0 0 1 361.5,529.6106 L294.5,529.6106 A2.5,2.5 0 0 1 292,527.1106 L292,479.5169 A2.5,2.5 0 0 1 294.5,477.0169 " fill="#F1F1F1" style="stroke:#181818;stroke-width:0.5;"/><line style="stroke:#181818;stroke-width:0.5;" x1="292" x2="357" y1="499.3138" y2="499.3138"/><text fill="#000000" font-family="sans-serif" font-size="14" lengthAdjust="spacing" textLength="52" x="296" y="492.012">context</text><path d="M292,590.0169 L350,590.0169 A3.75,3.75 0 0 1 352.5,592.5169 L359.5,612.3138 L364,612.3138 A2.5,2.5 0 0 1 366.5,614.8138 L366.5,640.1106 A2.5,2.5 0 0 1 364,642.6106 L292,642.6106 A2.5,2.5 0 0 1 289.5,640.1106 L289.5,592.5169 A2.5,2.5 0 0 1 292,590.0169 " fill="#F1F1F1" style="stroke:#181818;stroke-width:0.5;"/><line style="stroke:#181818;stroke-width:0.5;" x1="289.5" x2="359.5" y1="612.3138" y2="612.3138"/><text fill="#000000" font-family="sans-serif" font-size="14" lengthAdjust="spacing" textLength="57" x="293.5" y="605.012">services</text><!--link src to components--><g id="link_src_components"><path codeLine="23" d="M381.07,71.0769 C382.42,72.3569 404.12,93.1469 411,115.0169 C429.015,172.3019 430.0225,239.6944 426.4,293.3669 C425.4944,306.785 424.2994,319.3456 423.0084,330.6764 C422.6857,333.5092 422.3569,336.265 422.0252,338.9382 " fill="none" id="src-to-components" style="stroke:#181818;stroke-width:1.0;stroke-dasharray:7.0,7.0;"/><polygon fill="#181818" points="422.0252,338.9382,427.1031,330.4993,422.6409,333.9762,419.164,329.5141,422.0252,338.9382" style="stroke:#181818;stroke-width:1.0;"/></g><!--link src to routes--><g id="link_src_routes"><path codeLine="24" d="M380.98,71.0769 C380.37,72.6069 368.67,102.0369 359.16,125.9269 " fill="none" id="src-to-routes" style="stroke:#181818;stroke-width:1.0;stroke-dasharray:7.0,7.0;"/><polygon fill="#181818" points="357.3,130.6269,364.3382,123.7374,359.1446,125.9796,356.9025,120.786,357.3,130.6269" style="stroke:#181818;stroke-width:1.0;"/></g><!--link routes to pages--><g id="link_routes_pages"><path codeLine="25" d="M347,184.2569 C347,200.5169 347,221.5969 347,238.7269 " fill="none" id="routes-to-pages" style="stroke:#181818;stroke-width:1.0;stroke-dasharray:7.0,7.0;"/><polygon fill="#181818" points="347,243.9069,351.0257,234.9183,347.0143,238.9069,343.0257,234.8955,347,243.9069" style="stroke:#181818;stroke-width:1.0;"/></g><!--link pages to components--><g id="link_pages_components"><path codeLine="26" d="M378.77,294.0969 C380.2,295.0869 381.61,296.0669 383,297.0169 C388.28,300.6469 391.37,299.7369 395,305.0169 C397.64,308.8594 399.9192,313.0103 401.8863,317.3387 C402.3781,318.4207 402.8504,319.5139 403.3039,320.6161 " fill="none" id="pages-to-components" style="stroke:#181818;stroke-width:1.0;stroke-dasharray:7.0,7.0;"/><polygon fill="#181818" points="403.3039,320.6161,403.5784,310.7711,401.4013,315.9922,396.1802,313.8152,403.3039,320.6161" style="stroke:#181818;stroke-width:1.0;"/></g><!--link pages to sprint--><g id="link_pages_sprint"><path codeLine="27" d="M347.43,297.1169 C347.74,315.2169 348.15,339.5469 348.48,358.7069 " fill="none" id="pages-to-sprint" style="stroke:#181818;stroke-width:1.0;stroke-dasharray:7.0,7.0;"/><polygon fill="#181818" points="348.57,363.9669,352.4151,354.8996,348.4843,358.9676,344.4163,355.0368,348.57,363.9669" style="stroke:#181818;stroke-width:1.0;"/></g><!--link sprint to context--><g id="link_sprint_context"><path codeLine="28" d="M344.13,417.2569 C341.05,433.5169 337.07,454.5969 333.82,471.7269 " fill="none" id="sprint-to-context" style="stroke:#181818;stroke-width:1.0;stroke-dasharray:7.0,7.0;"/><polygon fill="#181818" points="332.84,476.9069,338.4415,468.806,333.7683,471.9938,330.5806,467.3207,332.84,476.9069" style="stroke:#181818;stroke-width:1.0;"/></g><!--link pages to context--><g id="link_pages_context"><path codeLine="29" d="M315.35,289.7169 C310.36,294.0569 305.9,299.1669 303,305.0169 C273.01,365.5469 286.21,391.5769 303,457.0169 C304.34,462.2269 306.41,467.4869 308.81,472.4869 " fill="none" id="pages-to-context" style="stroke:#181818;stroke-width:1.0;stroke-dasharray:7.0,7.0;"/><polygon fill="#181818" points="311.08,476.9869,310.5825,467.1506,308.8211,472.5262,303.4454,470.7649,311.08,476.9869" style="stroke:#181818;stroke-width:1.0;"/></g><!--link context to services--><g id="link_context_services"><path codeLine="30" d="M328,530.2569 C328,546.5169 328,567.5969 328,584.7269 " fill="none" id="context-to-services" style="stroke:#181818;stroke-width:1.0;stroke-dasharray:7.0,7.0;"/><polygon fill="#181818" points="328,589.9069,332.0257,580.9183,328.0143,584.9069,324.0257,580.8955,328,589.9069" style="stroke:#181818;stroke-width:1.0;"/></g><!--SRC=[TL3B2i8m4BpdAuQUjIZU1Oyz28Bq0s9OjJwIaAnM4F_TaAIjLSnXDypiJ6R33Ly8zNQsc6CAh3mspfn8CTPIomEv2IgqKZFOmBDquN8aQ7eml7LD8CmU4ZQh6XtvbdQeAs6bEWSJ5Dwf0a-1S7hCcHkJx-2N6BCsrB-aCbThD6cE4v4RyIbPf_vm-3NI75OPtXdRaBitQeYHHe97M0TbkSIGeuVILYArYCHDHApVeW5CYKN-qZGMeus42SazwN948Tu0]--></g></svg>