<?xml version="1.0" encoding="us-ascii" standalone="no"?><svg xmlns="http://www.w3.org/2000/svg" xmlns:xlink="http://www.w3.org/1999/xlink" contentStyleType="text/css" height="712px" preserveAspectRatio="none" style="width:1509px;height:712px;background:#FFFFFF;" version="1.1" viewBox="0 0 1509 712" width="1509px" zoomAndPan="magnify"><defs/><g><text fill="#000000" font-family="sans-serif" font-size="14" font-weight="bold" lengthAdjust="spacing" textLength="572" x="470.25" y="27.9951">US003 - As Administrator, I want to change the profile of a user account</text><rect fill="#FFFFFF" height="449.3203" style="stroke:#181818;stroke-width:1.0;" width="10" x="254.5" y="164.8594"/><rect fill="#FFFFFF" height="375.9219" style="stroke:#181818;stroke-width:1.0;" width="10" x="497.5" y="209.125"/><rect fill="#FFFFFF" height="317.6563" style="stroke:#181818;stroke-width:1.0;" width="10" x="838.5" y="238.2578"/><rect fill="#FFFFFF" height="29.1328" style="stroke:#181818;stroke-width:1.0;" width="10" x="1175" y="308.6875"/><rect fill="#FFFFFF" height="29.1328" style="stroke:#181818;stroke-width:1.0;" width="10" x="1327.5" y="432.3828"/><rect fill="#FFFFFF" height="29.1328" style="stroke:#181818;stroke-width:1.0;" width="10" x="1450.5" y="490.6484"/><rect fill="none" height="174.9609" style="stroke:#000000;stroke-width:1.5;" width="733" x="770.5" y="352.8203"/><line style="stroke:#181818;stroke-width:0.5;stroke-dasharray:5.0,5.0;" x1="53" x2="53" y1="118.5938" y2="632.1797"/><line style="stroke:#181818;stroke-width:0.5;stroke-dasharray:5.0,5.0;" x1="259.5" x2="259.5" y1="118.5938" y2="632.1797"/><line style="stroke:#181818;stroke-width:0.5;stroke-dasharray:5.0,5.0;" x1="502.5" x2="502.5" y1="118.5938" y2="632.1797"/><line style="stroke:#181818;stroke-width:0.5;stroke-dasharray:5.0,5.0;" x1="843.5" x2="843.5" y1="118.5938" y2="632.1797"/><line style="stroke:#181818;stroke-width:0.5;stroke-dasharray:5.0,5.0;" x1="986.5" x2="986.5" y1="276.9063" y2="632.1797"/><line style="stroke:#181818;stroke-width:0.5;stroke-dasharray:5.0,5.0;" x1="1074.5" x2="1074.5" y1="400.6016" y2="632.1797"/><line style="stroke:#181818;stroke-width:0.5;stroke-dasharray:5.0,5.0;" x1="1179.5" x2="1179.5" y1="118.5938" y2="632.1797"/><line style="stroke:#181818;stroke-width:0.5;stroke-dasharray:5.0,5.0;" x1="1332.5" x2="1332.5" y1="118.5938" y2="632.1797"/><line style="stroke:#181818;stroke-width:0.5;stroke-dasharray:5.0,5.0;" x1="1455.5" x2="1455.5" y1="118.5938" y2="632.1797"/><text fill="#000000" font-family="sans-serif" font-size="14" lengthAdjust="spacing" textLength="91" x="5" y="115.292">Administrator</text><ellipse cx="53.5" cy="50.7969" fill="#FFFFFF" rx="8" ry="8" style="stroke:#181818;stroke-width:0.5;"/><path d="M53.5,58.7969 L53.5,85.7969 M40.5,66.7969 L66.5,66.7969 M53.5,85.7969 L40.5,100.7969 M53.5,85.7969 L66.5,100.7969 " fill="none" style="stroke:#181818;stroke-width:0.5;"/><text fill="#000000" font-family="sans-serif" font-size="14" lengthAdjust="spacing" textLength="91" x="5" y="644.1748">Administrator</text><ellipse cx="53.5" cy="655.9766" fill="#FFFFFF" rx="8" ry="8" style="stroke:#181818;stroke-width:0.5;"/><path d="M53.5,663.9766 L53.5,690.9766 M40.5,671.9766 L66.5,671.9766 M53.5,690.9766 L40.5,705.9766 M53.5,690.9766 L66.5,705.9766 " fill="none" style="stroke:#181818;stroke-width:0.5;"/><rect fill="#FFFFFF" height="30.2969" rx="2.5" ry="2.5" style="stroke:#181818;stroke-width:0.5;" width="128" x="195.5" y="87.2969"/><text fill="#000000" font-family="sans-serif" font-size="14" lengthAdjust="spacing" textLength="114" x="202.5" y="107.292">:ChangeProfileUI</text><rect fill="#FFFFFF" height="30.2969" rx="2.5" ry="2.5" style="stroke:#181818;stroke-width:0.5;" width="128" x="195.5" y="631.1797"/><text fill="#000000" font-family="sans-serif" font-size="14" lengthAdjust="spacing" textLength="114" x="202.5" y="651.1748">:ChangeProfileUI</text><rect fill="#FFFFFF" height="30.2969" rx="2.5" ry="2.5" style="stroke:#181818;stroke-width:0.5;" width="182" x="411.5" y="87.2969"/><text fill="#000000" font-family="sans-serif" font-size="14" lengthAdjust="spacing" textLength="168" x="418.5" y="107.292">:ChangeProfileController</text><rect fill="#FFFFFF" height="30.2969" rx="2.5" ry="2.5" style="stroke:#181818;stroke-width:0.5;" width="182" x="411.5" y="631.1797"/><text fill="#000000" font-family="sans-serif" font-size="14" lengthAdjust="spacing" textLength="168" x="418.5" y="651.1748">:ChangeProfileController</text><rect fill="#FFFFFF" height="30.2969" rx="2.5" ry="2.5" style="stroke:#181818;stroke-width:0.5;" width="126" x="780.5" y="87.2969"/><text fill="#000000" font-family="sans-serif" font-size="14" lengthAdjust="spacing" textLength="112" x="787.5" y="107.292">:AccountService</text><rect fill="#FFFFFF" height="30.2969" rx="2.5" ry="2.5" style="stroke:#181818;stroke-width:0.5;" width="126" x="780.5" y="631.1797"/><text fill="#000000" font-family="sans-serif" font-size="14" lengthAdjust="spacing" textLength="112" x="787.5" y="651.1748">:AccountService</text><rect fill="#FFFFFF" height="30.2969" rx="2.5" ry="2.5" style="stroke:#181818;stroke-width:0.5;" width="101" x="936.5" y="631.1797"/><text fill="#000000" font-family="sans-serif" font-size="14" lengthAdjust="spacing" textLength="87" x="943.5" y="651.1748">:ProfileName</text><rect fill="#FFFFFF" height="30.2969" rx="2.5" ry="2.5" style="stroke:#181818;stroke-width:0.5;" width="55" x="1047.5" y="631.1797"/><text fill="#000000" font-family="sans-serif" font-size="14" lengthAdjust="spacing" textLength="41" x="1054.5" y="651.1748">:Email</text><rect fill="#FFFFFF" height="30.2969" rx="2.5" ry="2.5" style="stroke:#181818;stroke-width:0.5;" width="135" x="1112.5" y="87.2969"/><text fill="#000000" font-family="sans-serif" font-size="14" lengthAdjust="spacing" textLength="121" x="1119.5" y="107.292">:ProfileRepository</text><rect fill="#FFFFFF" height="30.2969" rx="2.5" ry="2.5" style="stroke:#181818;stroke-width:0.5;" width="135" x="1112.5" y="631.1797"/><text fill="#000000" font-family="sans-serif" font-size="14" lengthAdjust="spacing" textLength="121" x="1119.5" y="651.1748">:ProfileRepository</text><rect fill="#FFFFFF" height="30.2969" rx="2.5" ry="2.5" style="stroke:#181818;stroke-width:0.5;" width="150" x="1257.5" y="87.2969"/><text fill="#000000" font-family="sans-serif" font-size="14" lengthAdjust="spacing" textLength="136" x="1264.5" y="107.292">:AccountRepository</text><rect fill="#FFFFFF" height="30.2969" rx="2.5" ry="2.5" style="stroke:#181818;stroke-width:0.5;" width="150" x="1257.5" y="631.1797"/><text fill="#000000" font-family="sans-serif" font-size="14" lengthAdjust="spacing" textLength="136" x="1264.5" y="651.1748">:AccountRepository</text><rect fill="#FFFFFF" height="30.2969" rx="2.5" ry="2.5" style="stroke:#181818;stroke-width:0.5;" width="76" x="1417.5" y="87.2969"/><text fill="#000000" font-family="sans-serif" font-size="14" lengthAdjust="spacing" textLength="62" x="1424.5" y="107.292">:Account</text><rect fill="#FFFFFF" height="30.2969" rx="2.5" ry="2.5" style="stroke:#181818;stroke-width:0.5;" width="76" x="1417.5" y="631.1797"/><text fill="#000000" font-family="sans-serif" font-size="14" lengthAdjust="spacing" textLength="62" x="1424.5" y="651.1748">:Account</text><rect fill="#FFFFFF" height="449.3203" style="stroke:#181818;stroke-width:1.0;" width="10" x="254.5" y="164.8594"/><rect fill="#FFFFFF" height="375.9219" style="stroke:#181818;stroke-width:1.0;" width="10" x="497.5" y="209.125"/><rect fill="#FFFFFF" height="317.6563" style="stroke:#181818;stroke-width:1.0;" width="10" x="838.5" y="238.2578"/><rect fill="#FFFFFF" height="29.1328" style="stroke:#181818;stroke-width:1.0;" width="10" x="1175" y="308.6875"/><rect fill="#FFFFFF" height="29.1328" style="stroke:#181818;stroke-width:1.0;" width="10" x="1327.5" y="432.3828"/><rect fill="#FFFFFF" height="29.1328" style="stroke:#181818;stroke-width:1.0;" width="10" x="1450.5" y="490.6484"/><polygon fill="#181818" points="242.5,160.8594,252.5,164.8594,242.5,168.8594,246.5,164.8594" style="stroke:#181818;stroke-width:1.0;"/><line style="stroke:#181818;stroke-width:1.0;" x1="53.5" x2="248.5" y1="164.8594" y2="164.8594"/><text fill="#000000" font-family="sans-serif" font-size="13" font-weight="bold" lengthAdjust="spacing" textLength="9" x="82.5" y="152.2271">1</text><text fill="#000000" font-family="sans-serif" font-size="13" lengthAdjust="spacing" textLength="98" x="111.5" y="144.6606">Asks to change</text><text fill="#000000" font-family="sans-serif" font-size="13" lengthAdjust="spacing" textLength="130" x="95.5" y="159.7935">profile of an account</text><polygon fill="#181818" points="485.5,205.125,495.5,209.125,485.5,213.125,489.5,209.125" style="stroke:#181818;stroke-width:1.0;"/><line style="stroke:#181818;stroke-width:1.0;" x1="264.5" x2="491.5" y1="209.125" y2="209.125"/><text fill="#000000" font-family="sans-serif" font-size="13" font-weight="bold" lengthAdjust="spacing" textLength="9" x="274" y="196.4927">2</text><text fill="#000000" font-family="sans-serif" font-size="13" lengthAdjust="spacing" textLength="201" x="287" y="188.9263">changeProfileOfExistingAccount</text><text fill="#000000" font-family="sans-serif" font-size="13" lengthAdjust="spacing" textLength="145" x="315" y="204.0591">(userEmail, newProfile)</text><polygon fill="#181818" points="826.5,234.2578,836.5,238.2578,826.5,242.2578,830.5,238.2578" style="stroke:#181818;stroke-width:1.0;"/><line style="stroke:#181818;stroke-width:1.0;" x1="507.5" x2="832.5" y1="238.2578" y2="238.2578"/><text fill="#000000" font-family="sans-serif" font-size="13" font-weight="bold" lengthAdjust="spacing" textLength="9" x="517" y="233.1919">3</text><text fill="#000000" font-family="sans-serif" font-size="13" lengthAdjust="spacing" textLength="299" x="530" y="233.1919">changeProfileOfUserAccount(email, newProfile)</text><polygon fill="#181818" points="924.5,263.3906,934.5,267.3906,924.5,271.3906,928.5,267.3906" style="stroke:#181818;stroke-width:1.0;"/><line style="stroke:#181818;stroke-width:1.0;" x1="848.5" x2="930.5" y1="267.3906" y2="267.3906"/><text fill="#000000" font-family="sans-serif" font-size="13" font-weight="bold" lengthAdjust="spacing" textLength="9" x="860.5" y="262.3247">4</text><text fill="#000000" font-family="sans-serif" font-size="13" lengthAdjust="spacing" textLength="51" x="873.5" y="262.3247">create()</text><rect fill="#FFFFFF" height="30.2969" rx="2.5" ry="2.5" style="stroke:#181818;stroke-width:0.5;" width="101" x="936.5" y="246.2578"/><text fill="#000000" font-family="sans-serif" font-size="14" lengthAdjust="spacing" textLength="87" x="943.5" y="266.2529">:ProfileName</text><polygon fill="#181818" points="1163,304.6875,1173,308.6875,1163,312.6875,1167,308.6875" style="stroke:#181818;stroke-width:1.0;"/><line style="stroke:#181818;stroke-width:1.0;" x1="848.5" x2="1169" y1="308.6875" y2="308.6875"/><text fill="#000000" font-family="sans-serif" font-size="13" font-weight="bold" lengthAdjust="spacing" textLength="9" x="928.25" y="303.6216">5</text><text fill="#000000" font-family="sans-serif" font-size="13" lengthAdjust="spacing" textLength="154" x="941.25" y="303.6216">existsByID(profileName)</text><polygon fill="#181818" points="859.5,333.8203,849.5,337.8203,859.5,341.8203,855.5,337.8203" style="stroke:#181818;stroke-width:1.0;"/><line style="stroke:#181818;stroke-width:1.0;stroke-dasharray:2.0,2.0;" x1="853.5" x2="1179" y1="337.8203" y2="337.8203"/><text fill="#000000" font-family="sans-serif" font-size="13" font-weight="bold" lengthAdjust="spacing" textLength="9" x="977.75" y="332.7544">6</text><text fill="#000000" font-family="sans-serif" font-size="13" lengthAdjust="spacing" textLength="60" x="990.75" y="332.7544">true/false</text><path d="M770.5,352.8203 L840.5,352.8203 L840.5,359.9531 L830.5,369.9531 L770.5,369.9531 L770.5,352.8203 " fill="#FFFFFF" style="stroke:#000000;stroke-width:1.5;"/><rect fill="none" height="174.9609" style="stroke:#000000;stroke-width:1.5;" width="733" x="770.5" y="352.8203"/><text fill="#000000" font-family="sans-serif" font-size="13" font-weight="bold" lengthAdjust="spacing" textLength="25" x="785.5" y="365.8872">opt</text><text fill="#000000" font-family="sans-serif" font-size="11" font-weight="bold" lengthAdjust="spacing" textLength="133" x="855.5" y="365.0308">[profileExists = true]</text><polygon fill="#181818" points="1035.5,387.0859,1045.5,391.0859,1035.5,395.0859,1039.5,391.0859" style="stroke:#181818;stroke-width:1.0;"/><line style="stroke:#181818;stroke-width:1.0;" x1="848.5" x2="1041.5" y1="391.0859" y2="391.0859"/><text fill="#000000" font-family="sans-serif" font-size="13" font-weight="bold" lengthAdjust="spacing" textLength="9" x="916" y="386.02">7</text><text fill="#000000" font-family="sans-serif" font-size="13" lengthAdjust="spacing" textLength="51" x="929" y="386.02">create()</text><rect fill="#FFFFFF" height="30.2969" rx="2.5" ry="2.5" style="stroke:#181818;stroke-width:0.5;" width="55" x="1047.5" y="369.9531"/><text fill="#000000" font-family="sans-serif" font-size="14" lengthAdjust="spacing" textLength="41" x="1054.5" y="389.9482">:Email</text><polygon fill="#181818" points="1315.5,428.3828,1325.5,432.3828,1315.5,436.3828,1319.5,432.3828" style="stroke:#181818;stroke-width:1.0;"/><line style="stroke:#181818;stroke-width:1.0;" x1="848.5" x2="1321.5" y1="432.3828" y2="432.3828"/><text fill="#000000" font-family="sans-serif" font-size="13" font-weight="bold" lengthAdjust="spacing" textLength="9" x="1033" y="427.3169">8</text><text fill="#000000" font-family="sans-serif" font-size="13" lengthAdjust="spacing" textLength="97" x="1046" y="427.3169">findByID(email)</text><polygon fill="#181818" points="859.5,457.5156,849.5,461.5156,859.5,465.5156,855.5,461.5156" style="stroke:#181818;stroke-width:1.0;"/><line style="stroke:#181818;stroke-width:1.0;stroke-dasharray:2.0,2.0;" x1="853.5" x2="1331.5" y1="461.5156" y2="461.5156"/><text fill="#000000" font-family="sans-serif" font-size="13" font-weight="bold" lengthAdjust="spacing" textLength="9" x="1058.5" y="456.4497">9</text><text fill="#000000" font-family="sans-serif" font-size="13" lengthAdjust="spacing" textLength="51" x="1071.5" y="456.4497">account</text><polygon fill="#181818" points="1438.5,486.6484,1448.5,490.6484,1438.5,494.6484,1442.5,490.6484" style="stroke:#181818;stroke-width:1.0;"/><line style="stroke:#181818;stroke-width:1.0;" x1="848.5" x2="1444.5" y1="490.6484" y2="490.6484"/><text fill="#000000" font-family="sans-serif" font-size="13" font-weight="bold" lengthAdjust="spacing" textLength="18" x="1023" y="485.5825">10</text><text fill="#000000" font-family="sans-serif" font-size="13" lengthAdjust="spacing" textLength="231" x="1045" y="485.5825">changeProfileOfUserAccount(profile)</text><polygon fill="#181818" points="859.5,515.7813,849.5,519.7813,859.5,523.7813,855.5,519.7813" style="stroke:#181818;stroke-width:1.0;"/><line style="stroke:#181818;stroke-width:1.0;stroke-dasharray:2.0,2.0;" x1="853.5" x2="1454.5" y1="519.7813" y2="519.7813"/><text fill="#000000" font-family="sans-serif" font-size="13" font-weight="bold" lengthAdjust="spacing" textLength="18" x="1063.5" y="514.7153">11</text><text fill="#000000" font-family="sans-serif" font-size="13" lengthAdjust="spacing" textLength="155" x="1085.5" y="514.7153">successfull/unsuccessful</text><polygon fill="#181818" points="518.5,551.9141,508.5,555.9141,518.5,559.9141,514.5,555.9141" style="stroke:#181818;stroke-width:1.0;"/><line style="stroke:#181818;stroke-width:1.0;stroke-dasharray:2.0,2.0;" x1="512.5" x2="842.5" y1="555.9141" y2="555.9141"/><text fill="#000000" font-family="sans-serif" font-size="13" font-weight="bold" lengthAdjust="spacing" textLength="18" x="587" y="550.8481">12</text><text fill="#000000" font-family="sans-serif" font-size="13" lengthAdjust="spacing" textLength="155" x="609" y="550.8481">successfull/unsuccessful</text><polygon fill="#181818" points="275.5,581.0469,265.5,585.0469,275.5,589.0469,271.5,585.0469" style="stroke:#181818;stroke-width:1.0;"/><line style="stroke:#181818;stroke-width:1.0;stroke-dasharray:2.0,2.0;" x1="269.5" x2="501.5" y1="585.0469" y2="585.0469"/><text fill="#000000" font-family="sans-serif" font-size="13" font-weight="bold" lengthAdjust="spacing" textLength="18" x="295" y="579.981">13</text><text fill="#000000" font-family="sans-serif" font-size="13" lengthAdjust="spacing" textLength="155" x="317" y="579.981">successfull/unsuccessful</text><polygon fill="#181818" points="64.5,610.1797,54.5,614.1797,64.5,618.1797,60.5,614.1797" style="stroke:#181818;stroke-width:1.0;"/><line style="stroke:#181818;stroke-width:1.0;stroke-dasharray:2.0,2.0;" x1="58.5" x2="258.5" y1="614.1797" y2="614.1797"/><text fill="#000000" font-family="sans-serif" font-size="13" font-weight="bold" lengthAdjust="spacing" textLength="18" x="68" y="609.1138">14</text><text fill="#000000" font-family="sans-serif" font-size="13" lengthAdjust="spacing" textLength="155" x="90" y="609.1138">successfull/unsuccessful</text><!--SRC=[fLHDJnin5BpxLpo5Io908753QgKGEEHGg42vSNbrtcwiU9-t_cZWtzThxnAtsOHAlVbZPjxiZBLkgxX5Ymqu-Xc89NqZvx2ckLOrWoJsP8KxG3rJHRPRtA7SrjO4NY-CDXPs6-L9OF26G_CZSeLNNXEiNgwlR-0IvWxcwqQnSjwYD_O2bh13zk0Do0roJU0t1AqrbOeqKm52S6G1fOnJl10e8mqcVwXC01rWTm9dsK6qwvLKRISzkLqavUzPTBLCyA3-0RimxAtHclA88tVZGlFi-8NiBoKfyLrUZ-DxsKTiChZTxyS93mqgdQ3KhKwgFbDhd8fHlPVQtUb9yt_HS7zwabQ21w38_Ln-ZScVdyDjV0fRjw_zbSlE-QFlM5Ea70a-wSZoxgbwU8klGd7TMtdbQVT-KbONmBJhWJDnhCmuhkzfJ7uLxthfAHsAIalegUnE3AL7tRBIg9omqza8eaiuJQVkQzpT-_9-Mf1dmf8Fbi7RG5SLQXVpDQtFKGyYAGa7Nn9gS9OybnFpsnbtK_ITt5IArybB8dsu6BewP7wMO3larYkv86Ny0LL1wwl0-vqWNejFGVzx_ni0]--></g></svg>