<?xml version="1.0" encoding="us-ascii" standalone="no"?><svg xmlns="http://www.w3.org/2000/svg" xmlns:xlink="http://www.w3.org/1999/xlink" contentStyleType="text/css" height="790px" preserveAspectRatio="none" style="width:911px;height:790px;background:#FFFFFF;" version="1.1" viewBox="0 0 911 790" width="911px" zoomAndPan="magnify"><defs/><g><text fill="#000000" font-family="sans-serif" font-size="14" font-weight="bold" lengthAdjust="spacing" textLength="868" x="20" y="32.9951">US025 - As a Product Owner, I want to create a user story and add it to the Product Backlog using the web UI</text><rect fill="#F1F1F1" height="36.2969" rx="12.5" ry="12.5" style="stroke:#181818;stroke-width:1.5;" width="106.3333" x="401.3333" y="47.2969"/><path d="M417,60.7604 C414.4217,60.7604 412.3333,62.8487 412.3333,65.4271 C412.3333,68.0054 414.4217,70.0938 417,70.0938 C419.5783,70.0938 421.6667,68.0054 421.6667,65.4271 C421.6667,62.8487 419.5783,60.7604 417,60.7604 M417,61.9271 C417.385,61.9271 417.7467,62.0321 418.0967,62.1488 C417.8517,62.3821 417.5717,62.5921 417.6183,62.8021 C417.665,63.0121 418.4233,62.9538 418.4233,63.3854 C418.4233,63.7004 417.9333,63.7937 418.2717,64.1554 C418.68,64.5638 417.525,65.2988 417.5017,65.8354 C417.4667,66.8038 418.4817,66.9671 419.2867,66.9671 C419.7767,66.9671 419.905,67.2004 419.87,67.4804 C419.24,68.3788 418.1667,68.9388 416.9883,68.9388 C416.545,68.9388 416.1367,68.8338 415.7517,68.6821 C416.0083,68.1688 415.425,67.1538 414.8767,66.8271 C414.6083,66.5588 414.0367,66.6638 413.71,66.5354 C413.605,66.2204 413.5,65.9054 413.4883,65.5554 C413.5233,65.4971 413.5817,65.4504 413.675,65.4504 C413.8967,65.4504 414.2,65.8938 414.3633,65.8471 C414.5733,65.8004 413.5,64.3188 414.0017,64.0271 C414.235,63.8871 414.7017,64.4821 414.55,63.8404 C414.41,63.2454 414.97,63.5137 415.32,63.3621 C415.6233,63.2338 415.845,62.8838 415.4717,62.6738 C415.4017,62.6387 415.32,62.5571 415.215,62.4521 C415.74,62.1371 416.3467,61.9388 417,61.9388 M419.695,63.1988 C419.905,63.4554 420.0683,63.7354 420.2083,64.0388 C420.2083,64.0504 420.2083,64.0621 420.2083,64.0738 C420.1617,64.1554 420.08,64.2021 419.9517,64.3304 C419.625,64.6571 419.5783,64.0854 419.4383,63.9688 C419.2867,63.8288 418.7383,63.9921 418.6683,63.8171 C418.5867,63.6071 419.2517,63.3271 419.695,63.1988 " fill="#000000" style="stroke:;stroke-width:0.0;stroke-dasharray:;"/><text fill="#000000" font-family="sans-serif" font-size="14" lengthAdjust="spacing" textLength="75" x="422.6667" y="70.292">Application</text><rect fill="#F1F1F1" height="36.2969" rx="12.5" ry="12.5" style="stroke:#181818;stroke-width:1.5;" width="67" x="83.625" y="108.5938"/><text fill="#000000" font-family="sans-serif" font-size="14" lengthAdjust="spacing" textLength="47" x="93.625" y="131.5889">Navbar</text><rect fill="#F1F1F1" height="36.2969" rx="12.5" ry="12.5" style="stroke:#181818;stroke-width:1.5;" width="75" x="79.625" y="169.8906"/><text fill="#000000" font-family="sans-serif" font-size="14" lengthAdjust="spacing" textLength="55" x="89.625" y="192.8857">NavItem</text><path d="M117.125,144.8906 L117.125,147.8906 C117.125,154.8906 117.125,159.8906 117.125,166.8906 L117.125,169.8906 " fill="none" style="stroke:#181818;stroke-width:1.0;"/><path d="M454.5,83.5938 L454.5,86.5938 C454.5,93.5938 117.125,98.5938 117.125,105.5938 L117.125,108.5938 " fill="none" style="stroke:#181818;stroke-width:1.0;"/><rect fill="#F1F1F1" height="36.2969" rx="12.5" ry="12.5" style="stroke:#181818;stroke-width:1.5;" width="62" x="471" y="108.5938"/><text fill="#000000" font-family="sans-serif" font-size="14" lengthAdjust="spacing" textLength="42" x="481" y="131.5889">Route</text><rect fill="#F1F1F1" height="36.2969" rx="12.5" ry="12.5" style="stroke:#181818;stroke-width:1.5;" width="61" x="383" y="169.8906"/><text fill="#000000" font-family="sans-serif" font-size="14" lengthAdjust="spacing" textLength="41" x="393" y="192.8857">Home</text><path d="M502,144.8906 L502,147.8906 C502,154.8906 413.5,159.8906 413.5,166.8906 L413.5,169.8906 " fill="none" style="stroke:#181818;stroke-width:1.0;"/><rect fill="#F1F1F1" height="36.2969" rx="12.5" ry="12.5" style="stroke:#181818;stroke-width:1.5;" width="76" x="464" y="169.8906"/><text fill="#000000" font-family="sans-serif" font-size="14" lengthAdjust="spacing" textLength="56" x="474" y="192.8857">Projects</text><rect fill="#F1F1F1" height="52.5938" rx="12.5" ry="12.5" style="stroke:#181818;stroke-width:1.5;" width="161" x="256" y="231.1875"/><text fill="#000000" font-family="sans-serif" font-size="14" lengthAdjust="spacing" textLength="47" x="266" y="254.1826">Button</text><text fill="#000000" font-family="sans-serif" font-size="14" lengthAdjust="spacing" textLength="141" x="266" y="270.4795">(Create new Project)</text><path d="M502,206.1875 L502,209.1875 C502,216.1875 336.5,221.1875 336.5,228.1875 L336.5,231.1875 " fill="none" style="stroke:#181818;stroke-width:1.0;"/><rect fill="#F1F1F1" height="52.5938" rx="12.5" ry="12.5" style="stroke:#181818;stroke-width:1.5;" width="130" x="437" y="231.1875"/><text fill="#000000" font-family="sans-serif" font-size="14" lengthAdjust="spacing" textLength="38" x="447" y="254.1826">Table</text><text fill="#000000" font-family="sans-serif" font-size="14" lengthAdjust="spacing" textLength="110" x="447" y="270.4795">(List of Projects)</text><rect fill="#F1F1F1" height="36.2969" rx="12.5" ry="12.5" style="stroke:#181818;stroke-width:1.5;" width="164" x="243.5" y="308.7813"/><text fill="#000000" font-family="sans-serif" font-size="14" lengthAdjust="spacing" textLength="144" x="253.5" y="331.7764">TableHeaderProjects</text><path d="M502,283.7813 L502,286.7813 C502,293.7813 325.5,298.7813 325.5,305.7813 L325.5,308.7813 " fill="none" style="stroke:#181818;stroke-width:1.0;"/><rect fill="#F1F1F1" height="36.2969" rx="12.5" ry="12.5" style="stroke:#181818;stroke-width:1.5;" width="149" x="427.5" y="308.7813"/><text fill="#000000" font-family="sans-serif" font-size="14" lengthAdjust="spacing" textLength="129" x="437.5" y="331.7764">TableBodyProjects</text><rect fill="#F1F1F1" height="52.5938" rx="12.5" ry="12.5" style="stroke:#181818;stroke-width:1.5;" width="114" x="445" y="370.0781"/><text fill="#000000" font-family="sans-serif" font-size="14" lengthAdjust="spacing" textLength="47" x="455" y="393.0732">Button</text><text fill="#000000" font-family="sans-serif" font-size="14" lengthAdjust="spacing" textLength="94" x="455" y="409.3701">(View Project)</text><rect fill="#F1F1F1" height="36.2969" rx="12.5" ry="12.5" style="stroke:#181818;stroke-width:1.5;" width="103" x="450.5" y="447.6719"/><text fill="#000000" font-family="sans-serif" font-size="14" lengthAdjust="spacing" textLength="83" x="460.5" y="470.667">ProjectPage</text><rect fill="#F1F1F1" height="52.5938" rx="12.5" ry="12.5" style="stroke:#181818;stroke-width:1.5;" width="141" x="174.625" y="508.9688"/><text fill="#000000" font-family="sans-serif" font-size="14" lengthAdjust="spacing" textLength="121" x="184.625" y="531.9639">ProjectPageTable</text><text fill="#000000" font-family="sans-serif" font-size="14" lengthAdjust="spacing" textLength="87" x="184.625" y="548.2607">(Project Info)</text><path d="M502,483.9688 L502,486.9688 C502,493.9688 245.125,498.9688 245.125,505.9688 L245.125,508.9688 " fill="none" style="stroke:#181818;stroke-width:1.0;"/><rect fill="#F1F1F1" height="52.5938" rx="12.5" ry="12.5" style="stroke:#181818;stroke-width:1.5;" width="67" x="335.625" y="508.9688"/><text fill="#000000" font-family="sans-serif" font-size="14" lengthAdjust="spacing" textLength="47" x="345.625" y="531.9639">Button</text><text fill="#000000" font-family="sans-serif" font-size="14" lengthAdjust="spacing" textLength="44" x="345.625" y="548.2607">(Back)</text><path d="M502,483.9688 L502,486.9688 C502,493.9688 369.125,498.9688 369.125,505.9688 L369.125,508.9688 " fill="none" style="stroke:#181818;stroke-width:1.0;"/><rect fill="#F1F1F1" height="52.5938" rx="12.5" ry="12.5" style="stroke:#181818;stroke-width:1.5;" width="179" x="422.625" y="508.9688"/><text fill="#000000" font-family="sans-serif" font-size="14" lengthAdjust="spacing" textLength="47" x="432.625" y="531.9639">Button</text><text fill="#000000" font-family="sans-serif" font-size="14" lengthAdjust="spacing" textLength="159" x="432.625" y="548.2607">(View Product Backlog)</text><rect fill="#F1F1F1" height="52.5938" rx="12.5" ry="12.5" style="stroke:#181818;stroke-width:1.5;" width="167" x="194.875" y="586.5625"/><text fill="#000000" font-family="sans-serif" font-size="14" lengthAdjust="spacing" textLength="147" x="204.875" y="609.5576">ProductBacklogTable</text><text fill="#000000" font-family="sans-serif" font-size="14" lengthAdjust="spacing" textLength="138" x="204.875" y="625.8545">(List of User Stories)</text><path d="M512.125,561.5625 L512.125,564.5625 C512.125,571.5625 278.375,576.5625 278.375,583.5625 L278.375,586.5625 " fill="none" style="stroke:#181818;stroke-width:1.0;"/><rect fill="#F1F1F1" height="52.5938" rx="12.5" ry="12.5" style="stroke:#181818;stroke-width:1.5;" width="67" x="381.875" y="586.5625"/><text fill="#000000" font-family="sans-serif" font-size="14" lengthAdjust="spacing" textLength="47" x="391.875" y="609.5576">Button</text><text fill="#000000" font-family="sans-serif" font-size="14" lengthAdjust="spacing" textLength="44" x="391.875" y="625.8545">(Back)</text><path d="M512.125,561.5625 L512.125,564.5625 C512.125,571.5625 415.375,576.5625 415.375,583.5625 L415.375,586.5625 " fill="none" style="stroke:#181818;stroke-width:1.0;"/><rect fill="#F1F1F1" height="52.5938" rx="12.5" ry="12.5" style="stroke:#181818;stroke-width:1.5;" width="151" x="468.875" y="586.5625"/><text fill="#000000" font-family="sans-serif" font-size="14" lengthAdjust="spacing" textLength="47" x="478.875" y="609.5576">Button</text><text fill="#000000" font-family="sans-serif" font-size="14" lengthAdjust="spacing" textLength="131" x="478.875" y="625.8545">(Create User Story)</text><rect fill="#F1F1F1" height="36.2969" rx="12.5" ry="12.5" style="stroke:#181818;stroke-width:1.5;" width="130" x="479.375" y="664.1563"/><text fill="#000000" font-family="sans-serif" font-size="14" lengthAdjust="spacing" textLength="110" x="489.375" y="687.1514">User Story Form</text><rect fill="#F1F1F1" height="52.5938" rx="12.5" ry="12.5" style="stroke:#181818;stroke-width:1.5;" width="67" x="259.375" y="725.4531"/><text fill="#000000" font-family="sans-serif" font-size="14" lengthAdjust="spacing" textLength="47" x="269.375" y="748.4482">Button</text><text fill="#000000" font-family="sans-serif" font-size="14" lengthAdjust="spacing" textLength="44" x="269.375" y="764.7451">(Back)</text><path d="M544.375,700.4531 L544.375,703.4531 C544.375,710.4531 292.875,715.4531 292.875,722.4531 L292.875,725.4531 " fill="none" style="stroke:#181818;stroke-width:1.0;"/><rect fill="#F1F1F1" height="52.5938" rx="12.5" ry="12.5" style="stroke:#181818;stroke-width:1.5;" width="192" x="346.375" y="725.4531"/><text fill="#000000" font-family="sans-serif" font-size="14" lengthAdjust="spacing" textLength="47" x="356.375" y="748.4482">Button</text><text fill="#000000" font-family="sans-serif" font-size="14" lengthAdjust="spacing" textLength="172" x="356.375" y="764.7451">(Add to Product Backlog)</text><path d="M544.375,700.4531 L544.375,703.4531 C544.375,710.4531 442.375,715.4531 442.375,722.4531 L442.375,725.4531 " fill="none" style="stroke:#181818;stroke-width:1.0;"/><rect fill="#F1F1F1" height="52.5938" rx="12.5" ry="12.5" style="stroke:#181818;stroke-width:1.5;" width="77" x="558.375" y="725.4531"/><text fill="#000000" font-family="sans-serif" font-size="14" lengthAdjust="spacing" textLength="47" x="568.375" y="748.4482">Button</text><text fill="#000000" font-family="sans-serif" font-size="14" lengthAdjust="spacing" textLength="57" x="568.375" y="764.7451">(Cancel)</text><path d="M544.375,700.4531 L544.375,703.4531 C544.375,710.4531 596.875,715.4531 596.875,722.4531 L596.875,725.4531 " fill="none" style="stroke:#181818;stroke-width:1.0;"/><rect fill="#F1F1F1" height="52.5938" rx="12.5" ry="12.5" style="stroke:#181818;stroke-width:1.5;" width="83" x="655.375" y="725.4531"/><text fill="#000000" font-family="sans-serif" font-size="14" lengthAdjust="spacing" textLength="47" x="665.375" y="748.4482">Button</text><text fill="#000000" font-family="sans-serif" font-size="14" lengthAdjust="spacing" textLength="63" x="665.375" y="764.7451">(Confirm)</text><path d="M544.375,700.4531 L544.375,703.4531 C544.375,710.4531 696.875,715.4531 696.875,722.4531 L696.875,725.4531 " fill="none" style="stroke:#181818;stroke-width:1.0;"/><rect fill="#F1F1F1" height="52.5938" rx="12.5" ry="12.5" style="stroke:#181818;stroke-width:1.5;" width="71" x="758.375" y="725.4531"/><text fill="#000000" font-family="sans-serif" font-size="14" lengthAdjust="spacing" textLength="47" x="768.375" y="748.4482">Button</text><text fill="#000000" font-family="sans-serif" font-size="14" lengthAdjust="spacing" textLength="51" x="768.375" y="764.7451">(Reset)</text><path d="M544.375,700.4531 L544.375,703.4531 C544.375,710.4531 793.875,715.4531 793.875,722.4531 L793.875,725.4531 " fill="none" style="stroke:#181818;stroke-width:1.0;"/><path d="M544.375,639.1563 L544.375,642.1563 C544.375,649.1563 544.375,654.1563 544.375,661.1563 L544.375,664.1563 " fill="none" style="stroke:#181818;stroke-width:1.0;"/><path d="M512.125,561.5625 L512.125,564.5625 C512.125,571.5625 544.375,576.5625 544.375,583.5625 L544.375,586.5625 " fill="none" style="stroke:#181818;stroke-width:1.0;"/><path d="M502,483.9688 L502,486.9688 C502,493.9688 512.125,498.9688 512.125,505.9688 L512.125,508.9688 " fill="none" style="stroke:#181818;stroke-width:1.0;"/><path d="M502,422.6719 L502,425.6719 C502,432.6719 502,437.6719 502,444.6719 L502,447.6719 " fill="none" style="stroke:#181818;stroke-width:1.0;"/><path d="M502,345.0781 L502,348.0781 C502,355.0781 502,360.0781 502,367.0781 L502,370.0781 " fill="none" style="stroke:#181818;stroke-width:1.0;"/><path d="M502,283.7813 L502,286.7813 C502,293.7813 502,298.7813 502,305.7813 L502,308.7813 " fill="none" style="stroke:#181818;stroke-width:1.0;"/><path d="M502,206.1875 L502,209.1875 C502,216.1875 502,221.1875 502,228.1875 L502,231.1875 " fill="none" style="stroke:#181818;stroke-width:1.0;"/><path d="M502,144.8906 L502,147.8906 C502,154.8906 502,159.8906 502,166.8906 L502,169.8906 " fill="none" style="stroke:#181818;stroke-width:1.0;"/><path d="M454.5,83.5938 L454.5,86.5938 C454.5,93.5938 502,98.5938 502,105.5938 L502,108.5938 " fill="none" style="stroke:#181818;stroke-width:1.0;"/><!--SRC=[xLNBajem4BphA-QKW2kyyzXGgHIFtSr284lnoYKNsHwC4bjoIJ8KVv-niS5abyeFS9ExMpsIPhhSCvPh6mdfHpncRxVMngRRQCGXbpQ9mhgdeaRErdp10yqZngom8S9gqMn_W1hq3N2OQUKddeNdlKJz3aQm9mEm2ZoDt28f4eCQZ5Nw05pwm7qVHAQmMpnj7t3lJwW24WiPPCmUNLYDc5LngdMLjIe2NsZqh52ICGU-l0b2vUBNVXo7mkCPx3ZmW-zShccLBKSMenITgyHY1ZwfwBYWsh_9pQGV3WmIgY1_oShmU729-q9HFIgMtANR0v1c8em5jJbP71Mvv0cvZ_h2FMS6oZzSugMwQ_5lnT8XPpp00hi0Cr_QdKCmaXjLFIjFxka3luONLSjTEEkSWigPebfn_rNQsmNrLg0fxxfIzkKhdmmE9PLJWk5HwQX4NVSkKtqQCfgQ5_TwNJtaqiFmYjLGoOtGqHLsZWQfMwo759KyJAntaQrRQcwfkQNc_wcPfR-UrNG2EzI6fX9QzNQptQbtAijj0bEkeVaPMf-wdMQtTGS_7vQGqbLM-JQRW569zf0ctLWjt2ITwYeRyns7UIAjYB0Bpp7AyVtt0e07kHDQoGYbPUFrz2pu-BuseAmjKDD9O3rbzxZXIMXfXwTyIbeNLil7sXsRS1aaD4rTGCc6YdprWRZ5Nm00]--></g></svg>