<?xml version="1.0" encoding="us-ascii" standalone="no"?><svg xmlns="http://www.w3.org/2000/svg" xmlns:xlink="http://www.w3.org/1999/xlink" contentStyleType="text/css" height="1190px" preserveAspectRatio="none" style="width:1210px;height:1190px;background:#FFFFFF;" version="1.1" viewBox="0 0 1210 1190" width="1210px" zoomAndPan="magnify"><defs/><g><text fill="#000000" font-family="sans-serif" font-size="14" font-weight="bold" lengthAdjust="spacing" textLength="642" x="277.25" y="22.9951">US004 - As Administrator, I want to get a list of all user accounts and their status</text><!--class ListAccountController--><g id="elem_ListAccountController"><rect codeLine="4" fill="#F1F1F1" height="64.2969" id="ListAccountController" rx="2.5" ry="2.5" style="stroke:#181818;stroke-width:0.5;" width="557" x="308.5" y="44.2969"/><ellipse cx="509.25" cy="60.2969" fill="#ADD1B2" rx="11" ry="11" style="stroke:#181818;stroke-width:1.0;"/><path d="M512.2188,65.9375 Q511.6406,66.2344 511,66.375 Q510.3594,66.5313 509.6563,66.5313 Q507.1563,66.5313 505.8281,64.8906 Q504.5156,63.2344 504.5156,60.1094 Q504.5156,56.9844 505.8281,55.3281 Q507.1563,53.6719 509.6563,53.6719 Q510.3594,53.6719 511,53.8281 Q511.6563,53.9844 512.2188,54.2813 L512.2188,57 Q511.5938,56.4219 511,56.1563 Q510.4063,55.875 509.7813,55.875 Q508.4375,55.875 507.75,56.9531 Q507.0625,58.0156 507.0625,60.1094 Q507.0625,62.2031 507.75,63.2813 Q508.4375,64.3438 509.7813,64.3438 Q510.4063,64.3438 511,64.0781 Q511.5938,63.7969 512.2188,63.2188 L512.2188,65.9375 Z " fill="#000000"/><text fill="#000000" font-family="sans-serif" font-size="14" lengthAdjust="spacing" textLength="147" x="529.75" y="65.1436">ListAccountController</text><line style="stroke:#181818;stroke-width:0.5;" x1="309.5" x2="864.5" y1="76.2969" y2="76.2969"/><line style="stroke:#181818;stroke-width:0.5;" x1="309.5" x2="864.5" y1="84.2969" y2="84.2969"/><ellipse cx="319.5" cy="97.9453" fill="#84BE84" rx="3" ry="3" style="stroke:#038048;stroke-width:1.0;"/><text fill="#000000" font-family="sans-serif" font-size="14" lengthAdjust="spacing" textLength="531" x="328.5" y="101.292">accountAndStatusList(containers : Containers) : AccountAndStatusDTO [1..*]</text></g><!--class Containers--><g id="elem_Containers"><rect codeLine="4" fill="#F1F1F1" height="341.3438" id="Containers" rx="2.5" ry="2.5" style="stroke:#181818;stroke-width:0.5;" width="476" x="58" y="169.2969"/><ellipse cx="254.25" cy="185.2969" fill="#ADD1B2" rx="11" ry="11" style="stroke:#181818;stroke-width:1.0;"/><path d="M257.2188,190.9375 Q256.6406,191.2344 256,191.375 Q255.3594,191.5313 254.6563,191.5313 Q252.1563,191.5313 250.8281,189.8906 Q249.5156,188.2344 249.5156,185.1094 Q249.5156,181.9844 250.8281,180.3281 Q252.1563,178.6719 254.6563,178.6719 Q255.3594,178.6719 256,178.8281 Q256.6563,178.9844 257.2188,179.2813 L257.2188,182 Q256.5938,181.4219 256,181.1563 Q255.4063,180.875 254.7813,180.875 Q253.4375,180.875 252.75,181.9531 Q252.0625,183.0156 252.0625,185.1094 Q252.0625,187.2031 252.75,188.2813 Q253.4375,189.3438 254.7813,189.3438 Q255.4063,189.3438 256,189.0781 Q256.5938,188.7969 257.2188,188.2188 L257.2188,190.9375 Z " fill="#000000"/><text fill="#000000" font-family="sans-serif" font-size="14" lengthAdjust="spacing" textLength="75" x="274.75" y="190.1436">Containers</text><line style="stroke:#181818;stroke-width:0.5;" x1="59" x2="533" y1="201.2969" y2="201.2969"/><rect fill="none" height="6" style="stroke:#C82930;stroke-width:1.0;" width="6" x="66" y="211.9453"/><text fill="#000000" font-family="sans-serif" font-size="14" lengthAdjust="spacing" textLength="343" x="78" y="218.292">accountContainer : AccountContainer {readOnly}</text><rect fill="none" height="6" style="stroke:#C82930;stroke-width:1.0;" width="6" x="66" y="228.2422"/><text fill="#000000" font-family="sans-serif" font-size="14" lengthAdjust="spacing" textLength="447" x="78" y="234.5889">businessSectorContainer : BusinessSectorContainer {readOnly}</text><rect fill="none" height="6" style="stroke:#C82930;stroke-width:1.0;" width="6" x="66" y="244.5391"/><text fill="#000000" font-family="sans-serif" font-size="14" lengthAdjust="spacing" textLength="364" x="78" y="250.8857">customerContainer : CustomerContainer {readOnly}</text><rect fill="none" height="6" style="stroke:#C82930;stroke-width:1.0;" width="6" x="66" y="260.8359"/><text fill="#000000" font-family="sans-serif" font-size="14" lengthAdjust="spacing" textLength="314" x="78" y="267.1826">profileContainer : ProfileContainer {readOnly}</text><rect fill="none" height="6" style="stroke:#C82930;stroke-width:1.0;" width="6" x="66" y="277.1328"/><text fill="#000000" font-family="sans-serif" font-size="14" lengthAdjust="spacing" textLength="326" x="78" y="283.4795">projectContainer : ProjectContainer {readOnly}</text><rect fill="none" height="6" style="stroke:#C82930;stroke-width:1.0;" width="6" x="66" y="293.4297"/><text fill="#000000" font-family="sans-serif" font-size="14" lengthAdjust="spacing" textLength="359" x="78" y="299.7764">resourceContainer : ResourceContainer {readOnly}</text><rect fill="none" height="6" style="stroke:#C82930;stroke-width:1.0;" width="6" x="66" y="309.7266"/><text fill="#000000" font-family="sans-serif" font-size="14" lengthAdjust="spacing" textLength="450" x="78" y="316.0732">projectTypologyContainer : ProjectTypologyContainer {readOnly}</text><rect fill="none" height="6" style="stroke:#C82930;stroke-width:1.0;" width="6" x="66" y="326.0234"/><text fill="#000000" font-family="sans-serif" font-size="14" lengthAdjust="spacing" textLength="388" x="78" y="332.3701">projectRoleContainer : ProjectRoleContainer {readOnly}</text><rect fill="none" height="6" style="stroke:#C82930;stroke-width:1.0;" width="6" x="66" y="342.3203"/><text fill="#000000" font-family="sans-serif" font-size="14" lengthAdjust="spacing" textLength="414" x="78" y="348.667">projectStatusContainer : ProjectStatusContainer {readOnly}</text><line style="stroke:#181818;stroke-width:0.5;" x1="59" x2="533" y1="355.9688" y2="355.9688"/><ellipse cx="69" cy="369.6172" fill="#84BE84" rx="3" ry="3" style="stroke:#038048;stroke-width:1.0;"/><text fill="#000000" font-family="sans-serif" font-size="14" lengthAdjust="spacing" textLength="294" x="78" y="372.9639">getAccountContainer() : AccountContainer</text><ellipse cx="69" cy="385.9141" fill="#84BE84" rx="3" ry="3" style="stroke:#038048;stroke-width:1.0;"/><text fill="#000000" font-family="sans-serif" font-size="14" lengthAdjust="spacing" textLength="398" x="78" y="389.2607">getBusinessSectorContainer() : BusinessSectorContainer</text><ellipse cx="69" cy="402.2109" fill="#84BE84" rx="3" ry="3" style="stroke:#038048;stroke-width:1.0;"/><text fill="#000000" font-family="sans-serif" font-size="14" lengthAdjust="spacing" textLength="316" x="78" y="405.5576">getCustomerContainer() : CustomerContainer</text><ellipse cx="69" cy="418.5078" fill="#84BE84" rx="3" ry="3" style="stroke:#038048;stroke-width:1.0;"/><text fill="#000000" font-family="sans-serif" font-size="14" lengthAdjust="spacing" textLength="264" x="78" y="421.8545">getProfileContainer() : ProfileContainer</text><ellipse cx="69" cy="434.8047" fill="#84BE84" rx="3" ry="3" style="stroke:#038048;stroke-width:1.0;"/><text fill="#000000" font-family="sans-serif" font-size="14" lengthAdjust="spacing" textLength="276" x="78" y="438.1514">getProjectContainer() : ProjectContainer</text><ellipse cx="69" cy="451.1016" fill="#84BE84" rx="3" ry="3" style="stroke:#038048;stroke-width:1.0;"/><text fill="#000000" font-family="sans-serif" font-size="14" lengthAdjust="spacing" textLength="314" x="78" y="454.4482">getResourceContainer() : ResourceContainer</text><ellipse cx="69" cy="467.3984" fill="#84BE84" rx="3" ry="3" style="stroke:#038048;stroke-width:1.0;"/><text fill="#000000" font-family="sans-serif" font-size="14" lengthAdjust="spacing" textLength="400" x="78" y="470.7451">getProjectTypologyContainer() : ProjectTypologyContainer</text><ellipse cx="69" cy="483.6953" fill="#84BE84" rx="3" ry="3" style="stroke:#038048;stroke-width:1.0;"/><text fill="#000000" font-family="sans-serif" font-size="14" lengthAdjust="spacing" textLength="290" x="78" y="487.042">getRoleContainer() : ProjectRoleContainer</text><ellipse cx="69" cy="499.9922" fill="#84BE84" rx="3" ry="3" style="stroke:#038048;stroke-width:1.0;"/><text fill="#000000" font-family="sans-serif" font-size="14" lengthAdjust="spacing" textLength="364" x="78" y="503.3389">getProjectStatusContainer() : ProjectStatusContainer</text></g><!--class AccountContainer--><g id="elem_AccountContainer"><rect codeLine="4" fill="#F1F1F1" height="178.375" id="AccountContainer" rx="2.5" ry="2.5" style="stroke:#181818;stroke-width:0.5;" width="772" x="7" y="587.2969"/><ellipse cx="326.75" cy="603.2969" fill="#ADD1B2" rx="11" ry="11" style="stroke:#181818;stroke-width:1.0;"/><path d="M329.7188,608.9375 Q329.1406,609.2344 328.5,609.375 Q327.8594,609.5313 327.1563,609.5313 Q324.6563,609.5313 323.3281,607.8906 Q322.0156,606.2344 322.0156,603.1094 Q322.0156,599.9844 323.3281,598.3281 Q324.6563,596.6719 327.1563,596.6719 Q327.8594,596.6719 328.5,596.8281 Q329.1563,596.9844 329.7188,597.2813 L329.7188,600 Q329.0938,599.4219 328.5,599.1563 Q327.9063,598.875 327.2813,598.875 Q325.9375,598.875 325.25,599.9531 Q324.5625,601.0156 324.5625,603.1094 Q324.5625,605.2031 325.25,606.2813 Q325.9375,607.3438 327.2813,607.3438 Q327.9063,607.3438 328.5,607.0781 Q329.0938,606.7969 329.7188,606.2188 L329.7188,608.9375 Z " fill="#000000"/><text fill="#000000" font-family="sans-serif" font-size="14" lengthAdjust="spacing" textLength="124" x="347.25" y="608.1436">AccountContainer</text><line style="stroke:#181818;stroke-width:0.5;" x1="8" x2="778" y1="619.2969" y2="619.2969"/><rect fill="none" height="6" style="stroke:#C82930;stroke-width:1.0;" width="6" x="15" y="629.9453"/><text fill="#000000" font-family="sans-serif" font-size="14" lengthAdjust="spacing" textLength="270" x="27" y="636.292">accountList : Account [1..*] {readOnly}</text><line style="stroke:#181818;stroke-width:0.5;" x1="8" x2="778" y1="643.5938" y2="643.5938"/><ellipse cx="18" cy="657.2422" fill="#84BE84" rx="3" ry="3" style="stroke:#038048;stroke-width:1.0;"/><text fill="#000000" font-family="sans-serif" font-size="14" lengthAdjust="spacing" textLength="746" x="27" y="660.5889">createNewAccount(name : String, email : String, photo : Image, phoneNumber : int, profile : Profile) : boolean</text><rect fill="#F24D5C" height="6" style="stroke:#C82930;stroke-width:1.0;" width="6" x="15" y="670.5391"/><text fill="#000000" font-family="sans-serif" font-size="14" lengthAdjust="spacing" textLength="318" x="27" y="676.8857">addAccount(newAccount : Account) : boolean</text><ellipse cx="18" cy="689.8359" fill="#84BE84" rx="3" ry="3" style="stroke:#038048;stroke-width:1.0;"/><text fill="#000000" font-family="sans-serif" font-size="14" lengthAdjust="spacing" textLength="249" x="27" y="693.1826">getAccount(email : String) : Account</text><ellipse cx="18" cy="706.1328" fill="#84BE84" rx="3" ry="3" style="stroke:#038048;stroke-width:1.0;"/><text fill="#000000" font-family="sans-serif" font-size="14" lengthAdjust="spacing" textLength="290" x="27" y="709.4795">inactivateAccount(email : String) : boolean</text><ellipse cx="18" cy="722.4297" fill="#84BE84" rx="3" ry="3" style="stroke:#038048;stroke-width:1.0;"/><text fill="#000000" font-family="sans-serif" font-size="14" lengthAdjust="spacing" textLength="278" x="27" y="725.7764">activateAccount(email : String) : boolean</text><ellipse cx="18" cy="738.7266" fill="#84BE84" rx="3" ry="3" style="stroke:#038048;stroke-width:1.0;"/><text fill="#000000" font-family="sans-serif" font-size="14" lengthAdjust="spacing" textLength="424" x="27" y="742.0732">changeAccountProfile(email : String, profile : Profile) : boolean</text><ellipse cx="18" cy="755.0234" fill="#84BE84" rx="3" ry="3" style="stroke:#038048;stroke-width:1.0;"/><text fill="#000000" font-family="sans-serif" font-size="14" lengthAdjust="spacing" textLength="144" x="27" y="758.3701">getIterator() : Iterator</text></g><!--class Account--><g id="elem_Account"><rect codeLine="4" fill="#F1F1F1" height="341.3438" id="Account" rx="2.5" ry="2.5" style="stroke:#181818;stroke-width:0.5;" width="629" x="298.5" y="842.2969"/><ellipse cx="580.25" cy="858.2969" fill="#ADD1B2" rx="11" ry="11" style="stroke:#181818;stroke-width:1.0;"/><path d="M583.2188,863.9375 Q582.6406,864.2344 582,864.375 Q581.3594,864.5313 580.6563,864.5313 Q578.1563,864.5313 576.8281,862.8906 Q575.5156,861.2344 575.5156,858.1094 Q575.5156,854.9844 576.8281,853.3281 Q578.1563,851.6719 580.6563,851.6719 Q581.3594,851.6719 582,851.8281 Q582.6563,851.9844 583.2188,852.2813 L583.2188,855 Q582.5938,854.4219 582,854.1563 Q581.4063,853.875 580.7813,853.875 Q579.4375,853.875 578.75,854.9531 Q578.0625,856.0156 578.0625,858.1094 Q578.0625,860.2031 578.75,861.2813 Q579.4375,862.3438 580.7813,862.3438 Q581.4063,862.3438 582,862.0781 Q582.5938,861.7969 583.2188,861.2188 L583.2188,863.9375 Z " fill="#000000"/><text fill="#000000" font-family="sans-serif" font-size="14" lengthAdjust="spacing" textLength="57" x="600.75" y="863.1436">Account</text><line style="stroke:#181818;stroke-width:0.5;" x1="299.5" x2="926.5" y1="874.2969" y2="874.2969"/><rect fill="none" height="6" style="stroke:#C82930;stroke-width:1.0;" width="6" x="306.5" y="884.9453"/><text fill="#000000" font-family="sans-serif" font-size="14" lengthAdjust="spacing" textLength="175" x="318.5" y="891.292">name : Name {readOnly}</text><rect fill="none" height="6" style="stroke:#C82930;stroke-width:1.0;" width="6" x="306.5" y="901.2422"/><text fill="#000000" font-family="sans-serif" font-size="14" lengthAdjust="spacing" textLength="168" x="318.5" y="907.5889">email : Email {readOnly}</text><rect fill="none" height="6" style="stroke:#C82930;stroke-width:1.0;" width="6" x="306.5" y="917.5391"/><text fill="#000000" font-family="sans-serif" font-size="14" lengthAdjust="spacing" textLength="179" x="318.5" y="923.8857">photo : Image {readOnly}</text><rect fill="none" height="6" style="stroke:#C82930;stroke-width:1.0;" width="6" x="306.5" y="933.8359"/><text fill="#000000" font-family="sans-serif" font-size="14" lengthAdjust="spacing" textLength="296" x="318.5" y="940.1826">phoneNumber : PhoneNumber {readOnly}</text><rect fill="none" height="6" style="stroke:#C82930;stroke-width:1.0;" width="6" x="306.5" y="950.1328"/><text fill="#000000" font-family="sans-serif" font-size="14" lengthAdjust="spacing" textLength="97" x="318.5" y="956.4795">profile : Profile</text><rect fill="none" height="6" style="stroke:#C82930;stroke-width:1.0;" width="6" x="306.5" y="966.4297"/><text fill="#000000" font-family="sans-serif" font-size="14" lengthAdjust="spacing" textLength="121" x="318.5" y="972.7764">isActive : boolean</text><line style="stroke:#181818;stroke-width:0.5;" x1="299.5" x2="926.5" y1="980.0781" y2="980.0781"/><ellipse cx="309.5" cy="993.7266" fill="#84BE84" rx="3" ry="3" style="stroke:#038048;stroke-width:1.0;"/><text fill="#000000" font-family="sans-serif" font-size="14" lengthAdjust="spacing" textLength="603" x="318.5" y="997.0732">Account(name : String, email : String, photo : Image, phoneNumber : int, profile : Profile)</text><ellipse cx="309.5" cy="1010.0234" fill="#84BE84" rx="3" ry="3" style="stroke:#038048;stroke-width:1.0;"/><text fill="#000000" font-family="sans-serif" font-size="14" lengthAdjust="spacing" textLength="126" x="318.5" y="1013.3701">getName() : String</text><ellipse cx="309.5" cy="1026.3203" fill="#84BE84" rx="3" ry="3" style="stroke:#038048;stroke-width:1.0;"/><text fill="#000000" font-family="sans-serif" font-size="14" lengthAdjust="spacing" textLength="122" x="318.5" y="1029.667">getEmail() : String</text><ellipse cx="309.5" cy="1042.6172" fill="#84BE84" rx="3" ry="3" style="stroke:#038048;stroke-width:1.0;"/><text fill="#000000" font-family="sans-serif" font-size="14" lengthAdjust="spacing" textLength="131" x="318.5" y="1045.9639">isActive() : boolean</text><ellipse cx="309.5" cy="1058.9141" fill="#84BE84" rx="3" ry="3" style="stroke:#038048;stroke-width:1.0;"/><text fill="#000000" font-family="sans-serif" font-size="14" lengthAdjust="spacing" textLength="128" x="318.5" y="1062.2607">getProfile() : String</text><ellipse cx="309.5" cy="1075.2109" fill="#84BE84" rx="3" ry="3" style="stroke:#038048;stroke-width:1.0;"/><text fill="#000000" font-family="sans-serif" font-size="14" lengthAdjust="spacing" textLength="122" x="318.5" y="1078.5576">isUser() : boolean</text><ellipse cx="309.5" cy="1091.5078" fill="#84BE84" rx="3" ry="3" style="stroke:#038048;stroke-width:1.0;"/><text fill="#000000" font-family="sans-serif" font-size="14" lengthAdjust="spacing" textLength="229" x="318.5" y="1094.8545">hasEmail(email : String) : boolean</text><ellipse cx="309.5" cy="1107.8047" fill="#84BE84" rx="3" ry="3" style="stroke:#038048;stroke-width:1.0;"/><text fill="#000000" font-family="sans-serif" font-size="14" lengthAdjust="spacing" textLength="75" x="318.5" y="1111.1514">inactivate()</text><ellipse cx="309.5" cy="1124.1016" fill="#84BE84" rx="3" ry="3" style="stroke:#038048;stroke-width:1.0;"/><text fill="#000000" font-family="sans-serif" font-size="14" lengthAdjust="spacing" textLength="63" x="318.5" y="1127.4482">activate()</text><ellipse cx="309.5" cy="1140.3984" fill="#84BE84" rx="3" ry="3" style="stroke:#038048;stroke-width:1.0;"/><text fill="#000000" font-family="sans-serif" font-size="14" lengthAdjust="spacing" textLength="270" x="318.5" y="1143.7451">changeProfile(profile : Profile) : boolean</text><ellipse cx="309.5" cy="1156.6953" fill="#84BE84" rx="3" ry="3" style="stroke:#038048;stroke-width:1.0;"/><text fill="#000000" font-family="sans-serif" font-size="14" lengthAdjust="spacing" textLength="226" x="318.5" y="1160.042">equals(object : Object) : boolean</text><ellipse cx="309.5" cy="1172.9922" fill="#84BE84" rx="3" ry="3" style="stroke:#038048;stroke-width:1.0;"/><text fill="#000000" font-family="sans-serif" font-size="14" lengthAdjust="spacing" textLength="111" x="318.5" y="1176.3389">hashCode() : int</text></g><!--class AccountAndStatusListAssembler--><g id="elem_AccountAndStatusListAssembler"><rect codeLine="4" fill="#F1F1F1" height="80.5938" id="AccountAndStatusListAssembler" rx="2.5" ry="2.5" style="stroke:#181818;stroke-width:0.5;" width="563" x="640.5" y="299.2969"/><ellipse cx="805.75" cy="315.2969" fill="#ADD1B2" rx="11" ry="11" style="stroke:#181818;stroke-width:1.0;"/><path d="M808.7188,320.9375 Q808.1406,321.2344 807.5,321.375 Q806.8594,321.5313 806.1563,321.5313 Q803.6563,321.5313 802.3281,319.8906 Q801.0156,318.2344 801.0156,315.1094 Q801.0156,311.9844 802.3281,310.3281 Q803.6563,308.6719 806.1563,308.6719 Q806.8594,308.6719 807.5,308.8281 Q808.1563,308.9844 808.7188,309.2813 L808.7188,312 Q808.0938,311.4219 807.5,311.1563 Q806.9063,310.875 806.2813,310.875 Q804.9375,310.875 804.25,311.9531 Q803.5625,313.0156 803.5625,315.1094 Q803.5625,317.2031 804.25,318.2813 Q804.9375,319.3438 806.2813,319.3438 Q806.9063,319.3438 807.5,319.0781 Q808.0938,318.7969 808.7188,318.2188 L808.7188,320.9375 Z " fill="#000000"/><text fill="#000000" font-family="sans-serif" font-size="14" lengthAdjust="spacing" textLength="224" x="826.25" y="320.1436">AccountAndStatusListAssembler</text><line style="stroke:#181818;stroke-width:0.5;" x1="641.5" x2="1202.5" y1="331.2969" y2="331.2969"/><line style="stroke:#181818;stroke-width:0.5;" x1="641.5" x2="1202.5" y1="339.2969" y2="339.2969"/><ellipse cx="651.5" cy="352.9453" fill="#84BE84" rx="3" ry="3" style="stroke:#038048;stroke-width:1.0;"/><text fill="#000000" font-family="sans-serif" font-size="14" lengthAdjust="spacing" textLength="537" x="660.5" y="356.292">accountAndStatusList(accountIterator : Iterator) : AccountAndStatusDTO [1..*]</text><rect fill="#F24D5C" height="6" style="stroke:#C82930;stroke-width:1.0;" width="6" x="648.5" y="366.2422"/><text fill="#000000" font-family="sans-serif" font-size="14" lengthAdjust="spacing" textLength="402" x="660.5" y="372.5889">generateDTO(account : Account) : AccountAndStatusDTO</text></g><!--class AccountAndStatusDTO--><g id="elem_AccountAndStatusDTO"><rect codeLine="4" fill="#F1F1F1" height="129.4844" id="AccountAndStatusDTO" rx="2.5" ry="2.5" style="stroke:#181818;stroke-width:0.5;" width="252" x="885" y="611.7969"/><ellipse cx="927.45" cy="627.7969" fill="#ADD1B2" rx="11" ry="11" style="stroke:#181818;stroke-width:1.0;"/><path d="M930.4188,633.4375 Q929.8406,633.7344 929.2,633.875 Q928.5594,634.0313 927.8563,634.0313 Q925.3563,634.0313 924.0281,632.3906 Q922.7156,630.7344 922.7156,627.6094 Q922.7156,624.4844 924.0281,622.8281 Q925.3563,621.1719 927.8563,621.1719 Q928.5594,621.1719 929.2,621.3281 Q929.8563,621.4844 930.4188,621.7813 L930.4188,624.5 Q929.7938,623.9219 929.2,623.6563 Q928.6063,623.375 927.9813,623.375 Q926.6375,623.375 925.95,624.4531 Q925.2625,625.5156 925.2625,627.6094 Q925.2625,629.7031 925.95,630.7813 Q926.6375,631.8438 927.9813,631.8438 Q928.6063,631.8438 929.2,631.5781 Q929.7938,631.2969 930.4188,630.7188 L930.4188,633.4375 Z " fill="#000000"/><text fill="#000000" font-family="sans-serif" font-size="14" lengthAdjust="spacing" textLength="159" x="947.55" y="632.6436">AccountAndStatusDTO</text><line style="stroke:#181818;stroke-width:0.5;" x1="886" x2="1136" y1="643.7969" y2="643.7969"/><ellipse cx="896" cy="657.4453" fill="none" rx="3" ry="3" style="stroke:#038048;stroke-width:1.0;"/><text fill="#000000" font-family="sans-serif" font-size="14" lengthAdjust="spacing" textLength="92" x="905" y="660.792">name : String</text><ellipse cx="896" cy="673.7422" fill="none" rx="3" ry="3" style="stroke:#038048;stroke-width:1.0;"/><text fill="#000000" font-family="sans-serif" font-size="14" lengthAdjust="spacing" textLength="89" x="905" y="677.0889">email : String</text><ellipse cx="896" cy="690.0391" fill="none" rx="3" ry="3" style="stroke:#038048;stroke-width:1.0;"/><text fill="#000000" font-family="sans-serif" font-size="14" lengthAdjust="spacing" textLength="121" x="905" y="693.3857">isActive : boolean</text><line style="stroke:#181818;stroke-width:0.5;" x1="886" x2="1136" y1="700.6875" y2="700.6875"/><ellipse cx="896" cy="714.3359" fill="#84BE84" rx="3" ry="3" style="stroke:#038048;stroke-width:1.0;"/><text fill="#000000" font-family="sans-serif" font-size="14" lengthAdjust="spacing" textLength="226" x="905" y="717.6826">equals(object : Object) : boolean</text><ellipse cx="896" cy="730.6328" fill="#84BE84" rx="3" ry="3" style="stroke:#038048;stroke-width:1.0;"/><text fill="#000000" font-family="sans-serif" font-size="14" lengthAdjust="spacing" textLength="111" x="905" y="733.9795">hashCode() : int</text></g><!--link ListAccountController to Containers--><g id="link_ListAccountController_Containers"><path codeLine="18" d="M552.48,108.3169 C535.26,123.7969 512.93,143.8569 488.64,165.6869 " fill="none" id="ListAccountController-to-Containers" style="stroke:#181818;stroke-width:1.0;stroke-dasharray:7.0,7.0;"/><polygon fill="#181818" points="484.72,169.2069,494.0855,166.1594,488.4365,165.8621,488.7338,160.213,484.72,169.2069" style="stroke:#181818;stroke-width:1.0;"/></g><!--link ListAccountController to AccountContainer--><g id="link_ListAccountController_AccountContainer"><path codeLine="19" d="M584.41,108.4369 C576.16,207.7169 551,510.2969 551,510.2969 C551,510.2969 517.32,545.4669 481.07,583.3269 " fill="none" id="ListAccountController-to-AccountContainer" style="stroke:#181818;stroke-width:1.0;stroke-dasharray:7.0,7.0;"/><polygon fill="#181818" points="477.55,586.9969,486.6616,583.258,481.0061,583.3837,480.8804,577.7282,477.55,586.9969" style="stroke:#181818;stroke-width:1.0;"/></g><!--link Containers to AccountContainer--><g id="link_Containers_AccountContainer"><path codeLine="22" d="M345.21,510.4969 C352.36,535.1569 359.49,559.7369 365.98,582.1069 " fill="none" id="Containers-to-AccountContainer" style="stroke:#181818;stroke-width:1.0;"/><polygon fill="#181818" points="367.44,587.1469,368.7678,577.3879,366.0438,582.3458,361.086,579.6218,367.44,587.1469" style="stroke:#181818;stroke-width:1.0;"/><text fill="#000000" font-family="sans-serif" font-size="13" lengthAdjust="spacing" textLength="113" x="358" y="553.3638">accountContainer</text></g><!--link AccountContainer to Account--><g id="link_AccountContainer_Account"><path codeLine="23" d="M458.31,776.5969 C469.67,793.8669 481.8,812.3169 494.08,830.9869 " fill="none" id="AccountContainer-Account" style="stroke:#181818;stroke-width:1.0;"/><polygon fill="#181818" points="451.09,765.6169,451.0483,772.8279,457.6885,775.6398,457.7302,768.4288,451.09,765.6169" style="stroke:#181818;stroke-width:1.0;"/><polygon fill="#181818" points="501.32,841.9969,499.7151,832.2797,498.5719,837.8198,493.0318,836.6766,501.32,841.9969" style="stroke:#181818;stroke-width:1.0;"/><line style="stroke:#181818;stroke-width:1.0;" x1="498.5719" x2="494.18" y1="837.8198" y2="831.1369"/><text fill="#000000" font-family="sans-serif" font-size="13" lengthAdjust="spacing" textLength="73" x="478" y="808.3638">accountList</text><text fill="#000000" font-family="sans-serif" font-size="13" lengthAdjust="spacing" textLength="8" x="447.5693" y="785.6916">1</text><text fill="#000000" font-family="sans-serif" font-size="13" lengthAdjust="spacing" textLength="7" x="489.1009" y="830.9798">*</text></g><!--link ListAccountController to AccountAndStatusListAssembler--><g id="link_ListAccountController_AccountAndStatusListAssembler"><path codeLine="26" d="M626.74,108.3169 C686.56,155.0169 799.89,243.4769 867.41,296.1869 " fill="none" id="ListAccountController-to-AccountAndStatusListAssembler" style="stroke:#181818;stroke-width:1.0;stroke-dasharray:7.0,7.0;"/><polygon fill="#181818" points="871.39,299.2969,866.7481,290.6105,867.4455,296.2242,861.8319,296.9216,871.39,299.2969" style="stroke:#181818;stroke-width:1.0;"/></g><!--link AccountAndStatusListAssembler to AccountAndStatusDTO--><g id="link_AccountAndStatusListAssembler_AccountAndStatusDTO"><path codeLine="27" d="M932.56,380.4869 C947.4,436.2569 974.63,538.6169 992.78,606.8269 " fill="none" id="AccountAndStatusListAssembler-to-AccountAndStatusDTO" style="stroke:#181818;stroke-width:1.0;stroke-dasharray:7.0,7.0;"/><polygon fill="#181818" points="994.07,611.6769,995.6267,601.9518,992.787,606.8443,987.8945,604.0046,994.07,611.6769" style="stroke:#181818;stroke-width:1.0;"/></g><!--link AccountAndStatusListAssembler to Account--><g id="link_AccountAndStatusListAssembler_Account"><path codeLine="28" d="M910.35,380.3469 C879.32,485.7369 797,765.2969 797,765.2969 C797,765.2969 773.29,797.0669 742.89,837.7869 " fill="none" id="AccountAndStatusListAssembler-to-Account" style="stroke:#181818;stroke-width:1.0;stroke-dasharray:7.0,7.0;"/><polygon fill="#181818" points="739.54,842.2769,748.129,837.4572,742.5308,838.27,741.718,832.6719,739.54,842.2769" style="stroke:#181818;stroke-width:1.0;"/></g><!--SRC=[hPDFRzD04CNl-oc6N08L-OF42QMHJ15IfI8EWNErsPsaGzUxriwuO3uzutMfeQa2KYDPijSpytllUUHf9P9fsme2Tr7iZtUmkYEcBGMIRWshQ6jSWxwLhj67LTq6eIQGA-LpM7dSMNstDjDFA3V97-70oyPclGlcMI2MLmMSKTeSPmD_1XzJ1gRwNWBa1g4lGTgLvxy9G0mn2N23ZdQ4tfWftr8iNU22PNu8UEbItD1FXEL1ptlhRlSvjT5VfA3wacrahMCKCxO6YbYiD2bq_S4O8Ga8NpVBvLkrNZ5KlgQenhALb5_39NotKK0Ix570Gl6iIMm8q39ciCwfh33OwFjyfE75Iil6lA3eGkiHvlF5SAKxp3fvtUJq3PqiF3Bjuw94kFPaz-foE24lhbIg6kWNAKfE8M2UDsqTdalkSLRZPpu9xW-JXNfAw2bPLVIRifhoPRLIRyDftJueVFZoUU2QAOpBWolROJPFBbQ5rp0kvaZJuyyzQ6ZP2QN8zo8Z2cQpmo7zR-rZpa7FvCq4plhfoTdaDs4Sx1tssfhrdy6ERi0ShJuvhvh_FsNCBm00]--></g></svg>