<?xml version="1.0" encoding="us-ascii" standalone="no"?><svg xmlns="http://www.w3.org/2000/svg" xmlns:xlink="http://www.w3.org/1999/xlink" contentStyleType="text/css" height="2297px" preserveAspectRatio="none" style="width:1149px;height:2297px;background:#FFFFFF;" version="1.1" viewBox="0 0 1149 2297" width="1149px" zoomAndPan="magnify"><defs/><g><text fill="#000000" font-family="sans-serif" font-size="14" font-weight="bold" lengthAdjust="spacing" textLength="425" x="355.25" y="22.9951">US015 - As Manager, I want to get a list of all projects</text><!--class ProjectController--><g id="elem_ProjectController"><rect codeLine="4" fill="#F1F1F1" height="154.0469" id="ProjectController" rx="2.5" ry="2.5" style="stroke:#181818;stroke-width:0.5;" width="735" x="387" y="44.2969"/><ellipse cx="692.75" cy="64.4297" fill="#ADD1B2" rx="11" ry="11" style="stroke:#181818;stroke-width:1.0;"/><path d="M695.7188,70.0703 Q695.1406,70.3672 694.5,70.5078 Q693.8594,70.6641 693.1563,70.6641 Q690.6563,70.6641 689.3281,69.0234 Q688.0156,67.3672 688.0156,64.2422 Q688.0156,61.1172 689.3281,59.4609 Q690.6563,57.8047 693.1563,57.8047 Q693.8594,57.8047 694.5,57.9609 Q695.1563,58.1172 695.7188,58.4141 L695.7188,61.1328 Q695.0938,60.5547 694.5,60.2891 Q693.9063,60.0078 693.2813,60.0078 Q691.9375,60.0078 691.25,61.0859 Q690.5625,62.1484 690.5625,64.2422 Q690.5625,66.3359 691.25,67.4141 Q691.9375,68.4766 693.2813,68.4766 Q693.9063,68.4766 694.5,68.2109 Q695.0938,67.9297 695.7188,67.3516 L695.7188,70.0703 Z " fill="#000000"/><text fill="#000000" font-family="sans-serif" font-size="12" font-style="italic" lengthAdjust="spacing" textLength="75" x="733.25" y="60.4355">&#171;Controller&#187;</text><text fill="#000000" font-family="sans-serif" font-size="14" lengthAdjust="spacing" textLength="115" x="713.25" y="76.2607">ProjectController</text><line style="stroke:#181818;stroke-width:0.5;" x1="388" x2="1121" y1="84.5625" y2="84.5625"/><rect fill="none" height="6" style="stroke:#C82930;stroke-width:1.0;" width="6" x="395" y="95.2109"/><text fill="#000000" font-family="sans-serif" font-size="14" lengthAdjust="spacing" textLength="292" x="407" y="101.5576">projectService : ProjectService {readOnly}</text><rect fill="none" height="6" style="stroke:#C82930;stroke-width:1.0;" width="6" x="395" y="111.5078"/><text fill="#000000" font-family="sans-serif" font-size="14" lengthAdjust="spacing" text-decoration="underline" textLength="347" x="407" y="117.8545">RESOURCE_NAME : String = "projects" {readOnly}</text><line style="stroke:#181818;stroke-width:0.5;" x1="388" x2="1121" y1="125.1563" y2="125.1563"/><ellipse cx="398" cy="138.8047" fill="#84BE84" rx="3" ry="3" style="stroke:#038048;stroke-width:1.0;"/><text fill="#000000" font-family="sans-serif" font-size="14" lengthAdjust="spacing" textLength="334" x="407" y="142.1514">ProjectController(projectService : ProjectService)</text><ellipse cx="398" cy="155.1016" fill="#84BE84" rx="3" ry="3" style="stroke:#038048;stroke-width:1.0;"/><text fill="#000000" font-family="sans-serif" font-size="14" lengthAdjust="spacing" textLength="709" x="407" y="158.4482">createProject(newProjectDTO : NewProjectDTO) : ResponseEntity&lt;EntityModel&lt;OutputProjectDTO&gt;&gt;</text><ellipse cx="398" cy="171.3984" fill="#84BE84" rx="3" ry="3" style="stroke:#038048;stroke-width:1.0;"/><text fill="#000000" font-family="sans-serif" font-size="14" lengthAdjust="spacing" textLength="678" x="407" y="174.7451">findProjectByID(projectCode : ProjectCode) :  ResponseEntity&lt;EntityModel&lt;OutputProjectDTO&gt;&gt;</text><ellipse cx="398" cy="187.6953" fill="#84BE84" rx="3" ry="3" style="stroke:#038048;stroke-width:1.0;"/><text fill="#000000" font-family="sans-serif" font-size="14" lengthAdjust="spacing" textLength="455" x="407" y="191.042">createProjectList() : CollectionModel&lt;EntityModel&lt;ProjectDTO&gt;&gt;</text></g><!--class ProjectService--><g id="elem_ProjectService"><rect codeLine="2" fill="#F1F1F1" height="365.9063" id="ProjectService" rx="2.5" ry="2.5" style="stroke:#181818;stroke-width:0.5;" width="734" x="387.5" y="275.2969"/><ellipse cx="701.25" cy="295.4297" fill="#ADD1B2" rx="11" ry="11" style="stroke:#181818;stroke-width:1.0;"/><path d="M704.2188,301.0703 Q703.6406,301.3672 703,301.5078 Q702.3594,301.6641 701.6563,301.6641 Q699.1563,301.6641 697.8281,300.0234 Q696.5156,298.3672 696.5156,295.2422 Q696.5156,292.1172 697.8281,290.4609 Q699.1563,288.8047 701.6563,288.8047 Q702.3594,288.8047 703,288.9609 Q703.6563,289.1172 704.2188,289.4141 L704.2188,292.1328 Q703.5938,291.5547 703,291.2891 Q702.4063,291.0078 701.7813,291.0078 Q700.4375,291.0078 699.75,292.0859 Q699.0625,293.1484 699.0625,295.2422 Q699.0625,297.3359 699.75,298.4141 Q700.4375,299.4766 701.7813,299.4766 Q702.4063,299.4766 703,299.2109 Q703.5938,298.9297 704.2188,298.3516 L704.2188,301.0703 Z " fill="#000000"/><text fill="#000000" font-family="sans-serif" font-size="12" font-style="italic" lengthAdjust="spacing" textLength="59" x="741.25" y="291.4355">&#171;Service&#187;</text><text fill="#000000" font-family="sans-serif" font-size="14" lengthAdjust="spacing" textLength="98" x="721.75" y="307.2607">ProjectService</text><line style="stroke:#181818;stroke-width:0.5;" x1="388.5" x2="1120.5" y1="315.5625" y2="315.5625"/><rect fill="none" height="6" style="stroke:#C82930;stroke-width:1.0;" width="6" x="395.5" y="326.2109"/><text fill="#000000" font-family="sans-serif" font-size="14" lengthAdjust="spacing" textLength="292" x="407.5" y="332.5576">projectRepository : Repository {readOnly}</text><rect fill="none" height="6" style="stroke:#C82930;stroke-width:1.0;" width="6" x="395.5" y="342.5078"/><text fill="#000000" font-family="sans-serif" font-size="14" lengthAdjust="spacing" textLength="377" x="407.5" y="348.8545">userStoryRepository : UserStoryRepository {readOnly}</text><rect fill="none" height="6" style="stroke:#C82930;stroke-width:1.0;" width="6" x="395.5" y="358.8047"/><text fill="#000000" font-family="sans-serif" font-size="14" lengthAdjust="spacing" textLength="310" x="407.5" y="365.1514">customerRepository : Repository {readOnly}</text><rect fill="none" height="6" style="stroke:#C82930;stroke-width:1.0;" width="6" x="395.5" y="375.1016"/><text fill="#000000" font-family="sans-serif" font-size="14" lengthAdjust="spacing" textLength="352" x="407.5" y="381.4482">businessSectorRepository : Repository {readOnly}</text><rect fill="none" height="6" style="stroke:#C82930;stroke-width:1.0;" width="6" x="395.5" y="391.3984"/><text fill="#000000" font-family="sans-serif" font-size="14" lengthAdjust="spacing" textLength="354" x="407.5" y="397.7451">projectTypologyRepository : Repository {readOnly}</text><rect fill="none" height="6" style="stroke:#C82930;stroke-width:1.0;" width="6" x="395.5" y="407.6953"/><text fill="#000000" font-family="sans-serif" font-size="14" lengthAdjust="spacing" textLength="292" x="407.5" y="414.042">projectFactory : ProjectFactory {readOnly}</text><line style="stroke:#181818;stroke-width:0.5;" x1="388.5" x2="1120.5" y1="421.3438" y2="421.3438"/><ellipse cx="398.5" cy="451.2891" fill="#84BE84" rx="3" ry="3" style="stroke:#038048;stroke-width:1.0;"/><text fill="#000000" font-family="sans-serif" font-size="14" lengthAdjust="spacing" textLength="618" x="407.5" y="438.3389">ProjectService(projectRepository : Repository, userStoryRepository : UserStoryRepository,</text><text fill="#000000" font-family="sans-serif" font-size="14" lengthAdjust="spacing" textLength="508" x="411.5" y="454.6357">customerRepository : Repository, businessSectorRepository : Repository,</text><text fill="#000000" font-family="sans-serif" font-size="14" lengthAdjust="spacing" textLength="493" x="411.5" y="470.9326">projectTypologyRepository : Repository, projectFactory : ProjectFactory)</text><ellipse cx="398.5" cy="483.8828" fill="#84BE84" rx="3" ry="3" style="stroke:#038048;stroke-width:1.0;"/><text fill="#000000" font-family="sans-serif" font-size="14" lengthAdjust="spacing" textLength="476" x="407.5" y="487.2295">createUserStoryList(projectCode : ProjectCode) : UserStoryDTO [0..*]</text><rect fill="#F24D5C" height="6" style="stroke:#C82930;stroke-width:1.0;" width="6" x="395.5" y="497.1797"/><text fill="#000000" font-family="sans-serif" font-size="14" lengthAdjust="spacing" text-decoration="underline" textLength="649" x="407.5" y="503.5264">sortUserStoryByPriority(userStoryList : UserStory [0..*], userStoryPriorityList : UserStoryID [0..*])</text><ellipse cx="398.5" cy="516.4766" fill="#84BE84" rx="3" ry="3" style="stroke:#038048;stroke-width:1.0;"/><text fill="#000000" font-family="sans-serif" font-size="14" lengthAdjust="spacing" textLength="471" x="407.5" y="519.8232">createProject(newProjectDTO : newProjectDTO) : OutputProjectDTO</text><rect fill="#F24D5C" height="6" style="stroke:#C82930;stroke-width:1.0;" width="6" x="395.5" y="529.7734"/><text fill="#000000" font-family="sans-serif" font-size="14" lengthAdjust="spacing" textLength="372" x="407.5" y="536.1201">validateProjectData(newProjectDTO : NewProjectDTO)</text><ellipse cx="398.5" cy="549.0703" fill="#84BE84" rx="3" ry="3" style="stroke:#038048;stroke-width:1.0;"/><text fill="#000000" font-family="sans-serif" font-size="14" lengthAdjust="spacing" textLength="255" x="407.5" y="552.417">createProjectList() : ProjectDTO [0..*]</text><ellipse cx="398.5" cy="565.3672" fill="#84BE84" rx="3" ry="3" style="stroke:#038048;stroke-width:1.0;"/><text fill="#000000" font-family="sans-serif" font-size="14" lengthAdjust="spacing" textLength="435" x="407.5" y="568.7139">findProjectById(projectCode : ProjectCode) : OutputProjectDTO</text><ellipse cx="398.5" cy="581.6641" fill="#84BE84" rx="3" ry="3" style="stroke:#038048;stroke-width:1.0;"/><text fill="#000000" font-family="sans-serif" font-size="14" lengthAdjust="spacing" textLength="493" x="407.5" y="585.0107">changeProjectStatus(projectCode : ProjectCode, status : ProjectStatus)</text><ellipse cx="398.5" cy="597.9609" fill="#84BE84" rx="3" ry="3" style="stroke:#038048;stroke-width:1.0;"/><text fill="#000000" font-family="sans-serif" font-size="14" lengthAdjust="spacing" textLength="708" x="407.5" y="601.3076">importProjectStatusHistory(projectCode : ProjectCode, statusHistory : Map&lt;ProjectStatus, LocalDate&gt;)</text><ellipse cx="398.5" cy="614.2578" fill="#84BE84" rx="3" ry="3" style="stroke:#038048;stroke-width:1.0;"/><text fill="#000000" font-family="sans-serif" font-size="14" lengthAdjust="spacing" textLength="404" x="407.5" y="617.6045">addUserStoryToProductBacklog(userStoryID : UserStoryID)</text><ellipse cx="398.5" cy="630.5547" fill="#84BE84" rx="3" ry="3" style="stroke:#038048;stroke-width:1.0;"/><text fill="#000000" font-family="sans-serif" font-size="14" lengthAdjust="spacing" textLength="447" x="407.5" y="633.9014">removeUserStoryFromProductBacklog(userStoryID : UserStoryID)</text></g><!--class Repository--><g id="elem_Repository"><rect codeLine="4" fill="#F1F1F1" height="154.0469" id="Repository" rx="2.5" ry="2.5" style="stroke:#181818;stroke-width:0.5;" width="232" x="459.5" y="718.2969"/><ellipse cx="533.25" cy="738.4297" fill="#B4A7E5" rx="11" ry="11" style="stroke:#181818;stroke-width:1.0;"/><path d="M529.1719,734.1953 L529.1719,732.0391 L536.5625,732.0391 L536.5625,734.1953 L534.0938,734.1953 L534.0938,742.2734 L536.5625,742.2734 L536.5625,744.4297 L529.1719,744.4297 L529.1719,742.2734 L531.6406,742.2734 L531.6406,734.1953 L529.1719,734.1953 Z " fill="#000000"/><text fill="#000000" font-family="sans-serif" font-size="12" font-style="italic" lengthAdjust="spacing" textLength="80" x="551.75" y="734.4355">&#171;Repository&#187;</text><text fill="#000000" font-family="sans-serif" font-size="14" font-style="italic" lengthAdjust="spacing" textLength="74" x="554.75" y="750.2607">Repository</text><line style="stroke:#181818;stroke-width:0.5;" x1="460.5" x2="690.5" y1="758.5625" y2="758.5625"/><line style="stroke:#181818;stroke-width:0.5;" x1="460.5" x2="690.5" y1="766.5625" y2="766.5625"/><ellipse cx="470.5" cy="780.2109" fill="#84BE84" rx="3" ry="3" style="stroke:#038048;stroke-width:1.0;"/><text fill="#000000" font-family="sans-serif" font-size="14" lengthAdjust="spacing" textLength="124" x="479.5" y="783.5576">save(entity : T) : T</text><ellipse cx="470.5" cy="796.5078" fill="#84BE84" rx="3" ry="3" style="stroke:#038048;stroke-width:1.0;"/><text fill="#000000" font-family="sans-serif" font-size="14" lengthAdjust="spacing" textLength="147" x="479.5" y="799.8545">findAll() : Iterable&lt;T&gt;</text><ellipse cx="470.5" cy="812.8047" fill="#84BE84" rx="3" ry="3" style="stroke:#038048;stroke-width:1.0;"/><text fill="#000000" font-family="sans-serif" font-size="14" lengthAdjust="spacing" textLength="206" x="479.5" y="816.1514">findById(id : ID) : Optional&lt;T&gt;</text><ellipse cx="470.5" cy="829.1016" fill="#84BE84" rx="3" ry="3" style="stroke:#038048;stroke-width:1.0;"/><text fill="#000000" font-family="sans-serif" font-size="14" lengthAdjust="spacing" textLength="187" x="479.5" y="832.4482">existsById(id : ID) : boolean</text><ellipse cx="470.5" cy="845.3984" fill="#84BE84" rx="3" ry="3" style="stroke:#038048;stroke-width:1.0;"/><text fill="#000000" font-family="sans-serif" font-size="14" lengthAdjust="spacing" textLength="69" x="479.5" y="848.7451">deleteAll()</text><ellipse cx="470.5" cy="861.6953" fill="#84BE84" rx="3" ry="3" style="stroke:#038048;stroke-width:1.0;"/><text fill="#000000" font-family="sans-serif" font-size="14" lengthAdjust="spacing" textLength="126" x="479.5" y="865.042">deleteById (id : ID)</text></g><!--class ProjectRepository--><g id="elem_ProjectRepository"><rect codeLine="2" fill="#F1F1F1" height="56.2656" id="ProjectRepository" rx="2.5" ry="2.5" style="stroke:#181818;stroke-width:0.5;" width="153" x="499" y="986.2969"/><ellipse cx="514" cy="1006.4297" fill="#B4A7E5" rx="11" ry="11" style="stroke:#181818;stroke-width:1.0;"/><path d="M509.9219,1002.1953 L509.9219,1000.0391 L517.3125,1000.0391 L517.3125,1002.1953 L514.8438,1002.1953 L514.8438,1010.2734 L517.3125,1010.2734 L517.3125,1012.4297 L509.9219,1012.4297 L509.9219,1010.2734 L512.3906,1010.2734 L512.3906,1002.1953 L509.9219,1002.1953 Z " fill="#000000"/><text fill="#000000" font-family="sans-serif" font-size="12" font-style="italic" lengthAdjust="spacing" textLength="80" x="548.5" y="1002.4355">&#171;Repository&#187;</text><text fill="#000000" font-family="sans-serif" font-size="14" font-style="italic" lengthAdjust="spacing" textLength="121" x="528" y="1018.2607">ProjectRepository</text><line style="stroke:#181818;stroke-width:0.5;" x1="500" x2="651" y1="1026.5625" y2="1026.5625"/><line style="stroke:#181818;stroke-width:0.5;" x1="500" x2="651" y1="1034.5625" y2="1034.5625"/></g><!--class ProjectRepositoryFake--><g id="elem_ProjectRepositoryFake"><rect codeLine="2" fill="#F1F1F1" height="170.3438" id="ProjectRepositoryFake" rx="2.5" ry="2.5" style="stroke:#181818;stroke-width:0.5;" width="415" x="7" y="1180.7969"/><ellipse cx="132.75" cy="1200.9297" fill="#ADD1B2" rx="11" ry="11" style="stroke:#181818;stroke-width:1.0;"/><path d="M135.7188,1206.5703 Q135.1406,1206.8672 134.5,1207.0078 Q133.8594,1207.1641 133.1563,1207.1641 Q130.6563,1207.1641 129.3281,1205.5234 Q128.0156,1203.8672 128.0156,1200.7422 Q128.0156,1197.6172 129.3281,1195.9609 Q130.6563,1194.3047 133.1563,1194.3047 Q133.8594,1194.3047 134.5,1194.4609 Q135.1563,1194.6172 135.7188,1194.9141 L135.7188,1197.6328 Q135.0938,1197.0547 134.5,1196.7891 Q133.9063,1196.5078 133.2813,1196.5078 Q131.9375,1196.5078 131.25,1197.5859 Q130.5625,1198.6484 130.5625,1200.7422 Q130.5625,1202.8359 131.25,1203.9141 Q131.9375,1204.9766 133.2813,1204.9766 Q133.9063,1204.9766 134.5,1204.7109 Q135.0938,1204.4297 135.7188,1203.8516 L135.7188,1206.5703 Z " fill="#000000"/><text fill="#000000" font-family="sans-serif" font-size="12" font-style="italic" lengthAdjust="spacing" textLength="80" x="190.75" y="1196.9355">&#171;Repository&#187;</text><text fill="#000000" font-family="sans-serif" font-size="14" lengthAdjust="spacing" textLength="155" x="153.25" y="1212.7607">ProjectRepositoryFake</text><line style="stroke:#181818;stroke-width:0.5;" x1="8" x2="421" y1="1221.0625" y2="1221.0625"/><rect fill="none" height="6" style="stroke:#C82930;stroke-width:1.0;" width="6" x="15" y="1231.7109"/><text fill="#000000" font-family="sans-serif" font-size="14" lengthAdjust="spacing" text-decoration="underline" textLength="253" x="27" y="1238.0576">projectList : Project [0..*] {readOnly}</text><line style="stroke:#181818;stroke-width:0.5;" x1="8" x2="421" y1="1245.3594" y2="1245.3594"/><ellipse cx="18" cy="1259.0078" fill="#84BE84" rx="3" ry="3" style="stroke:#038048;stroke-width:1.0;"/><text fill="#000000" font-family="sans-serif" font-size="14" lengthAdjust="spacing" textLength="212" x="27" y="1262.3545">save(project : Project) : Project</text><ellipse cx="18" cy="1275.3047" fill="#84BE84" rx="3" ry="3" style="stroke:#038048;stroke-width:1.0;"/><text fill="#000000" font-family="sans-serif" font-size="14" lengthAdjust="spacing" textLength="186" x="27" y="1278.6514">findAll() : Iterable&lt;Project&gt;</text><ellipse cx="18" cy="1291.6016" fill="#84BE84" rx="3" ry="3" style="stroke:#038048;stroke-width:1.0;"/><text fill="#000000" font-family="sans-serif" font-size="14" lengthAdjust="spacing" textLength="389" x="27" y="1294.9482">findById(projectCode : ProjectCode) : Optional&lt;Project&gt;</text><ellipse cx="18" cy="1307.8984" fill="#84BE84" rx="3" ry="3" style="stroke:#038048;stroke-width:1.0;"/><text fill="#000000" font-family="sans-serif" font-size="14" lengthAdjust="spacing" textLength="331" x="27" y="1311.2451">existsById(projectCode : ProjectCode) : boolean</text><ellipse cx="18" cy="1324.1953" fill="#84BE84" rx="3" ry="3" style="stroke:#038048;stroke-width:1.0;"/><text fill="#000000" font-family="sans-serif" font-size="14" lengthAdjust="spacing" textLength="69" x="27" y="1327.542">deleteAll()</text><ellipse cx="18" cy="1340.4922" fill="#84BE84" rx="3" ry="3" style="stroke:#038048;stroke-width:1.0;"/><text fill="#000000" font-family="sans-serif" font-size="14" lengthAdjust="spacing" textLength="197" x="27" y="1343.8389">deleteById (id : ProjectCode)</text></g><!--class ProjectRepositoryPersistence--><g id="elem_ProjectRepositoryPersistence"><rect codeLine="3" fill="#F1F1F1" height="219.2344" id="ProjectRepositoryPersistence" rx="2.5" ry="2.5" style="stroke:#181818;stroke-width:0.5;" width="542" x="457.5" y="1156.2969"/><ellipse cx="622.25" cy="1176.4297" fill="#ADD1B2" rx="11" ry="11" style="stroke:#181818;stroke-width:1.0;"/><path d="M625.2188,1182.0703 Q624.6406,1182.3672 624,1182.5078 Q623.3594,1182.6641 622.6563,1182.6641 Q620.1563,1182.6641 618.8281,1181.0234 Q617.5156,1179.3672 617.5156,1176.2422 Q617.5156,1173.1172 618.8281,1171.4609 Q620.1563,1169.8047 622.6563,1169.8047 Q623.3594,1169.8047 624,1169.9609 Q624.6563,1170.1172 625.2188,1170.4141 L625.2188,1173.1328 Q624.5938,1172.5547 624,1172.2891 Q623.4063,1172.0078 622.7813,1172.0078 Q621.4375,1172.0078 620.75,1173.0859 Q620.0625,1174.1484 620.0625,1176.2422 Q620.0625,1178.3359 620.75,1179.4141 Q621.4375,1180.4766 622.7813,1180.4766 Q623.4063,1180.4766 624,1180.2109 Q624.5938,1179.9297 625.2188,1179.3516 L625.2188,1182.0703 Z " fill="#000000"/><text fill="#000000" font-family="sans-serif" font-size="12" font-style="italic" lengthAdjust="spacing" textLength="80" x="704.75" y="1172.4355">&#171;Repository&#187;</text><text fill="#000000" font-family="sans-serif" font-size="14" lengthAdjust="spacing" textLength="204" x="642.75" y="1188.2607">ProjectRepositoryPersistence</text><line style="stroke:#181818;stroke-width:0.5;" x1="458.5" x2="998.5" y1="1196.5625" y2="1196.5625"/><rect fill="none" height="6" style="stroke:#C82930;stroke-width:1.0;" width="6" x="465.5" y="1207.2109"/><text fill="#000000" font-family="sans-serif" font-size="14" lengthAdjust="spacing" textLength="382" x="477.5" y="1213.5576">projectRepositoryJPA : ProjectRepositoryJPA {readOnly}</text><rect fill="none" height="6" style="stroke:#C82930;stroke-width:1.0;" width="6" x="465.5" y="1223.5078"/><text fill="#000000" font-family="sans-serif" font-size="14" lengthAdjust="spacing" textLength="508" x="477.5" y="1229.8545">projectDomainDataAssembler : ProjectDomainDataAssembler {readOnly}</text><line style="stroke:#181818;stroke-width:0.5;" x1="458.5" x2="998.5" y1="1237.1563" y2="1237.1563"/><ellipse cx="468.5" cy="1258.9531" fill="#84BE84" rx="3" ry="3" style="stroke:#038048;stroke-width:1.0;"/><text fill="#000000" font-family="sans-serif" font-size="14" lengthAdjust="spacing" textLength="512" x="477.5" y="1254.1514">ProjectRepositoryPersistence(projectRepositoryJPA : ProjectRepositoryJPA,</text><text fill="#000000" font-family="sans-serif" font-size="14" lengthAdjust="spacing" textLength="430" x="481.5" y="1270.4482">projectDomainDataAssembler : ProjectDomainDataAssembler)</text><ellipse cx="468.5" cy="1283.3984" fill="#84BE84" rx="3" ry="3" style="stroke:#038048;stroke-width:1.0;"/><text fill="#000000" font-family="sans-serif" font-size="14" lengthAdjust="spacing" textLength="212" x="477.5" y="1286.7451">save(project : Project) : Project</text><ellipse cx="468.5" cy="1299.6953" fill="#84BE84" rx="3" ry="3" style="stroke:#038048;stroke-width:1.0;"/><text fill="#000000" font-family="sans-serif" font-size="14" lengthAdjust="spacing" textLength="186" x="477.5" y="1303.042">findAll() : Iterable&lt;Project&gt;</text><ellipse cx="468.5" cy="1315.9922" fill="#84BE84" rx="3" ry="3" style="stroke:#038048;stroke-width:1.0;"/><text fill="#000000" font-family="sans-serif" font-size="14" lengthAdjust="spacing" textLength="389" x="477.5" y="1319.3389">findById(projectCode : ProjectCode) : Optional&lt;Project&gt;</text><ellipse cx="468.5" cy="1332.2891" fill="#84BE84" rx="3" ry="3" style="stroke:#038048;stroke-width:1.0;"/><text fill="#000000" font-family="sans-serif" font-size="14" lengthAdjust="spacing" textLength="331" x="477.5" y="1335.6357">existsById(projectCode : ProjectCode) : boolean</text><ellipse cx="468.5" cy="1348.5859" fill="#84BE84" rx="3" ry="3" style="stroke:#038048;stroke-width:1.0;"/><text fill="#000000" font-family="sans-serif" font-size="14" lengthAdjust="spacing" textLength="69" x="477.5" y="1351.9326">deleteAll()</text><ellipse cx="468.5" cy="1364.8828" fill="#84BE84" rx="3" ry="3" style="stroke:#038048;stroke-width:1.0;"/><text fill="#000000" font-family="sans-serif" font-size="14" lengthAdjust="spacing" textLength="197" x="477.5" y="1368.2295">deleteById (id : ProjectCode)</text></g><!--class CreateProjectListAssembler--><g id="elem_CreateProjectListAssembler"><rect codeLine="4" fill="#F1F1F1" height="80.5938" id="CreateProjectListAssembler" rx="2.5" ry="2.5" style="stroke:#181818;stroke-width:0.5;" width="416" x="726.5" y="754.7969"/><ellipse cx="835.25" cy="770.7969" fill="#ADD1B2" rx="11" ry="11" style="stroke:#181818;stroke-width:1.0;"/><path d="M838.2188,776.4375 Q837.6406,776.7344 837,776.875 Q836.3594,777.0313 835.6563,777.0313 Q833.1563,777.0313 831.8281,775.3906 Q830.5156,773.7344 830.5156,770.6094 Q830.5156,767.4844 831.8281,765.8281 Q833.1563,764.1719 835.6563,764.1719 Q836.3594,764.1719 837,764.3281 Q837.6563,764.4844 838.2188,764.7813 L838.2188,767.5 Q837.5938,766.9219 837,766.6563 Q836.4063,766.375 835.7813,766.375 Q834.4375,766.375 833.75,767.4531 Q833.0625,768.5156 833.0625,770.6094 Q833.0625,772.7031 833.75,773.7813 Q834.4375,774.8438 835.7813,774.8438 Q836.4063,774.8438 837,774.5781 Q837.5938,774.2969 838.2188,773.7188 L838.2188,776.4375 Z " fill="#000000"/><text fill="#000000" font-family="sans-serif" font-size="14" lengthAdjust="spacing" textLength="190" x="855.75" y="775.6436">CreateProjectListAssembler</text><line style="stroke:#181818;stroke-width:0.5;" x1="727.5" x2="1141.5" y1="786.7969" y2="786.7969"/><line style="stroke:#181818;stroke-width:0.5;" x1="727.5" x2="1141.5" y1="794.7969" y2="794.7969"/><ellipse cx="737.5" cy="808.4453" fill="#84BE84" rx="3" ry="3" style="stroke:#038048;stroke-width:1.0;"/><text fill="#000000" font-family="sans-serif" font-size="14" lengthAdjust="spacing" text-decoration="underline" textLength="390" x="746.5" y="811.792">createProjectList(projectList : Iterable) : ProjectDTO [1..*]</text><rect fill="#F24D5C" height="6" style="stroke:#C82930;stroke-width:1.0;" width="6" x="734.5" y="821.7422"/><text fill="#000000" font-family="sans-serif" font-size="14" lengthAdjust="spacing" text-decoration="underline" textLength="305" x="746.5" y="828.0889">generateDTO(project : Project) : ProjectDTO</text></g><!--class ProjectDTO--><g id="elem_ProjectDTO"><rect codeLine="4" fill="#F1F1F1" height="162.0781" id="ProjectDTO" rx="2.5" ry="2.5" style="stroke:#181818;stroke-width:0.5;" width="252" x="747.5" y="933.2969"/><ellipse cx="829.75" cy="949.2969" fill="#ADD1B2" rx="11" ry="11" style="stroke:#181818;stroke-width:1.0;"/><path d="M832.7188,954.9375 Q832.1406,955.2344 831.5,955.375 Q830.8594,955.5313 830.1563,955.5313 Q827.6563,955.5313 826.3281,953.8906 Q825.0156,952.2344 825.0156,949.1094 Q825.0156,945.9844 826.3281,944.3281 Q827.6563,942.6719 830.1563,942.6719 Q830.8594,942.6719 831.5,942.8281 Q832.1563,942.9844 832.7188,943.2813 L832.7188,946 Q832.0938,945.4219 831.5,945.1563 Q830.9063,944.875 830.2813,944.875 Q828.9375,944.875 828.25,945.9531 Q827.5625,947.0156 827.5625,949.1094 Q827.5625,951.2031 828.25,952.2813 Q828.9375,953.3438 830.2813,953.3438 Q830.9063,953.3438 831.5,953.0781 Q832.0938,952.7969 832.7188,952.2188 L832.7188,954.9375 Z " fill="#000000"/><text fill="#000000" font-family="sans-serif" font-size="14" lengthAdjust="spacing" textLength="79" x="850.25" y="954.1436">ProjectDTO</text><line style="stroke:#181818;stroke-width:0.5;" x1="748.5" x2="998.5" y1="965.2969" y2="965.2969"/><ellipse cx="758.5" cy="978.9453" fill="none" rx="3" ry="3" style="stroke:#038048;stroke-width:1.0;"/><text fill="#000000" font-family="sans-serif" font-size="14" lengthAdjust="spacing" textLength="138" x="767.5" y="982.292">projectCode : String</text><ellipse cx="758.5" cy="995.2422" fill="none" rx="3" ry="3" style="stroke:#038048;stroke-width:1.0;"/><text fill="#000000" font-family="sans-serif" font-size="14" lengthAdjust="spacing" textLength="141" x="767.5" y="998.5889">projectName : String</text><ellipse cx="758.5" cy="1011.5391" fill="none" rx="3" ry="3" style="stroke:#038048;stroke-width:1.0;"/><text fill="#000000" font-family="sans-serif" font-size="14" lengthAdjust="spacing" textLength="169" x="767.5" y="1014.8857">projectCustomer : String</text><ellipse cx="758.5" cy="1027.8359" fill="none" rx="3" ry="3" style="stroke:#038048;stroke-width:1.0;"/><text fill="#000000" font-family="sans-serif" font-size="14" lengthAdjust="spacing" textLength="145" x="767.5" y="1031.1826">projectStatus : String</text><line style="stroke:#181818;stroke-width:0.5;" x1="748.5" x2="998.5" y1="1038.4844" y2="1038.4844"/><ellipse cx="758.5" cy="1052.1328" fill="#84BE84" rx="3" ry="3" style="stroke:#038048;stroke-width:1.0;"/><text fill="#000000" font-family="sans-serif" font-size="14" lengthAdjust="spacing" textLength="226" x="767.5" y="1055.4795">equals(object : Object) : boolean</text><ellipse cx="758.5" cy="1068.4297" fill="#84BE84" rx="3" ry="3" style="stroke:#038048;stroke-width:1.0;"/><text fill="#000000" font-family="sans-serif" font-size="14" lengthAdjust="spacing" textLength="111" x="767.5" y="1071.7764">hashCode() : int</text><ellipse cx="758.5" cy="1084.7266" fill="#84BE84" rx="3" ry="3" style="stroke:#038048;stroke-width:1.0;"/><text fill="#000000" font-family="sans-serif" font-size="14" lengthAdjust="spacing" textLength="117" x="767.5" y="1088.0732">toString() : String</text></g><!--class Project--><g id="elem_Project"><rect codeLine="2" fill="#F1F1F1" height="838.5156" id="Project" rx="2.5" ry="2.5" style="stroke:#181818;stroke-width:0.5;" width="644" x="406.5" y="1452.2969"/><ellipse cx="671.75" cy="1472.4297" fill="#ADD1B2" rx="11" ry="11" style="stroke:#181818;stroke-width:1.0;"/><path d="M674.7188,1478.0703 Q674.1406,1478.3672 673.5,1478.5078 Q672.8594,1478.6641 672.1563,1478.6641 Q669.6563,1478.6641 668.3281,1477.0234 Q667.0156,1475.3672 667.0156,1472.2422 Q667.0156,1469.1172 668.3281,1467.4609 Q669.6563,1465.8047 672.1563,1465.8047 Q672.8594,1465.8047 673.5,1465.9609 Q674.1563,1466.1172 674.7188,1466.4141 L674.7188,1469.1328 Q674.0938,1468.5547 673.5,1468.2891 Q672.9063,1468.0078 672.2813,1468.0078 Q670.9375,1468.0078 670.25,1469.0859 Q669.5625,1470.1484 669.5625,1472.2422 Q669.5625,1474.3359 670.25,1475.4141 Q670.9375,1476.4766 672.2813,1476.4766 Q672.9063,1476.4766 673.5,1476.2109 Q674.0938,1475.9297 674.7188,1475.3516 L674.7188,1478.0703 Z " fill="#000000"/><text fill="#000000" font-family="sans-serif" font-size="12" font-style="italic" lengthAdjust="spacing" textLength="109" x="690.25" y="1468.4355">&#171;AggregateRoot&#187;</text><text fill="#000000" font-family="sans-serif" font-size="14" lengthAdjust="spacing" textLength="48" x="720.75" y="1484.2607">Project</text><line style="stroke:#181818;stroke-width:0.5;" x1="407.5" x2="1049.5" y1="1492.5625" y2="1492.5625"/><rect fill="none" height="6" style="stroke:#C82930;stroke-width:1.0;" width="6" x="414.5" y="1503.2109"/><text fill="#000000" font-family="sans-serif" font-size="14" lengthAdjust="spacing" textLength="266" x="426.5" y="1509.5576">projectCode : ProjectCode {readOnly}</text><rect fill="none" height="6" style="stroke:#C82930;stroke-width:1.0;" width="6" x="414.5" y="1519.5078"/><text fill="#000000" font-family="sans-serif" font-size="14" lengthAdjust="spacing" textLength="272" x="426.5" y="1525.8545">projectName : ProjectName {readOnly}</text><rect fill="none" height="6" style="stroke:#C82930;stroke-width:1.0;" width="6" x="414.5" y="1535.8047"/><text fill="#000000" font-family="sans-serif" font-size="14" lengthAdjust="spacing" textLength="252" x="426.5" y="1542.1514">description : Description {readOnly}</text><rect fill="none" height="6" style="stroke:#C82930;stroke-width:1.0;" width="6" x="414.5" y="1552.1016"/><text fill="#000000" font-family="sans-serif" font-size="14" lengthAdjust="spacing" textLength="342" x="426.5" y="1558.4482">customerID : TaxIdentificationNumber {readOnly}</text><rect fill="none" height="6" style="stroke:#C82930;stroke-width:1.0;" width="6" x="414.5" y="1568.3984"/><text fill="#000000" font-family="sans-serif" font-size="14" lengthAdjust="spacing" textLength="393" x="426.5" y="1574.7451">businessSectorName : BusinessSectorName {readOnly}</text><rect fill="none" height="6" style="stroke:#C82930;stroke-width:1.0;" width="6" x="414.5" y="1584.6953"/><text fill="#000000" font-family="sans-serif" font-size="14" lengthAdjust="spacing" textLength="396" x="426.5" y="1591.042">projectTypologyName : ProjectTypologyName {readOnly}</text><rect fill="none" height="6" style="stroke:#C82930;stroke-width:1.0;" width="6" x="414.5" y="1600.9922"/><text fill="#000000" font-family="sans-serif" font-size="14" lengthAdjust="spacing" textLength="314" x="426.5" y="1607.3389">productBacklog : ProductBacklog {readOnly}</text><rect fill="none" height="6" style="stroke:#C82930;stroke-width:1.0;" width="6" x="414.5" y="1617.2891"/><text fill="#000000" font-family="sans-serif" font-size="14" lengthAdjust="spacing" textLength="280" x="426.5" y="1623.6357">projectStatus : ProjectStatus {readOnly}</text><rect fill="none" height="6" style="stroke:#C82930;stroke-width:1.0;" width="6" x="414.5" y="1633.5859"/><text fill="#000000" font-family="sans-serif" font-size="14" lengthAdjust="spacing" textLength="194" x="426.5" y="1639.9326">statusHistory : StatusHistory</text><rect fill="none" height="6" style="stroke:#C82930;stroke-width:1.0;" width="6" x="414.5" y="1649.8828"/><text fill="#000000" font-family="sans-serif" font-size="14" lengthAdjust="spacing" textLength="210" x="426.5" y="1656.2295">sprintDuration : SprintDuration</text><rect fill="none" height="6" style="stroke:#C82930;stroke-width:1.0;" width="6" x="414.5" y="1666.1797"/><text fill="#000000" font-family="sans-serif" font-size="14" lengthAdjust="spacing" textLength="345" x="426.5" y="1672.5264">numberPlannedSprints : NumberOfPlannedSprints</text><rect fill="none" height="6" style="stroke:#C82930;stroke-width:1.0;" width="6" x="414.5" y="1682.4766"/><text fill="#000000" font-family="sans-serif" font-size="14" lengthAdjust="spacing" textLength="114" x="426.5" y="1688.8232">budget : Budget</text><rect fill="none" height="6" style="stroke:#C82930;stroke-width:1.0;" width="6" x="414.5" y="1698.7734"/><text fill="#000000" font-family="sans-serif" font-size="14" lengthAdjust="spacing" textLength="135" x="426.5" y="1705.1201">period : TimePeriod</text><line style="stroke:#181818;stroke-width:0.5;" x1="407.5" x2="1049.5" y1="1712.4219" y2="1712.4219"/><polygon fill="#FFFF44" points="417.5,1745.5156,421.5,1749.5156,417.5,1753.5156,413.5,1749.5156" style="stroke:#B38D22;stroke-width:1.0;"/><text fill="#000000" font-family="sans-serif" font-size="14" lengthAdjust="spacing" textLength="614" x="426.5" y="1729.417">Project(projectCode : ProjectCode, projectName : ProjectName, description : Description,</text><text fill="#000000" font-family="sans-serif" font-size="14" lengthAdjust="spacing" textLength="581" x="430.5" y="1745.7139">customerID : TaxIdentificationNumber, businessSectorName : BusinessSectorName,</text><text fill="#000000" font-family="sans-serif" font-size="14" lengthAdjust="spacing" textLength="556" x="430.5" y="1762.0107">projectTypologyName : ProjectTypologyName, productBacklog : ProductBacklog,</text><text fill="#000000" font-family="sans-serif" font-size="14" lengthAdjust="spacing" textLength="469" x="434.5" y="1778.3076">projectStatus : ProjectStatus,  statusHistory : StatusHistory) : Project</text><rect fill="#F24D5C" height="6" style="stroke:#C82930;stroke-width:1.0;" width="6" x="414.5" y="1788.2578"/><text fill="#000000" font-family="sans-serif" font-size="14" lengthAdjust="spacing" text-decoration="underline" textLength="312" x="426.5" y="1794.6045">notNull(parameter : Object, message : String)</text><ellipse cx="417.5" cy="1807.5547" fill="#84BE84" rx="3" ry="3" style="stroke:#038048;stroke-width:1.0;"/><text fill="#000000" font-family="sans-serif" font-size="14" lengthAdjust="spacing" textLength="473" x="426.5" y="1810.9014">addUserStoryToProductBacklog(userStoryID : UserStoryID) : boolean</text><ellipse cx="417.5" cy="1823.8516" fill="#84BE84" rx="3" ry="3" style="stroke:#038048;stroke-width:1.0;"/><text fill="#000000" font-family="sans-serif" font-size="14" lengthAdjust="spacing" textLength="516" x="426.5" y="1827.1982">removeUserStoryFromProductBacklog(userStoryID : UserStoryID) : boolean</text><ellipse cx="417.5" cy="1840.1484" fill="#84BE84" rx="3" ry="3" style="stroke:#038048;stroke-width:1.0;"/><text fill="#000000" font-family="sans-serif" font-size="14" lengthAdjust="spacing" textLength="254" x="426.5" y="1843.4951">changeStatus(status : ProjectStatus)</text><ellipse cx="417.5" cy="1856.4453" fill="#84BE84" rx="3" ry="3" style="stroke:#038048;stroke-width:1.0;"/><text fill="#000000" font-family="sans-serif" font-size="14" lengthAdjust="spacing" textLength="498" x="426.5" y="1859.792">importStatusHistory(statusHistoryMap : Map&lt;ProjectStatus, LocalDate&gt;)</text><ellipse cx="417.5" cy="1872.7422" fill="#84BE84" rx="3" ry="3" style="stroke:#038048;stroke-width:1.0;"/><text fill="#000000" font-family="sans-serif" font-size="14" lengthAdjust="spacing" textLength="394" x="426.5" y="1876.0889">isDateBeforeProjectStartDate(date : LocalDate) : boolean</text><ellipse cx="417.5" cy="1889.0391" fill="#84BE84" rx="3" ry="3" style="stroke:#038048;stroke-width:1.0;"/><text fill="#000000" font-family="sans-serif" font-size="14" lengthAdjust="spacing" textLength="380" x="426.5" y="1892.3857">isDateAfterProjectStartDate(date : LocalDate) : boolean</text><rect fill="#F24D5C" height="6" style="stroke:#C82930;stroke-width:1.0;" width="6" x="414.5" y="1902.3359"/><text fill="#000000" font-family="sans-serif" font-size="14" lengthAdjust="spacing" textLength="159" x="426.5" y="1908.6826">isPeriodNull() : boolean</text><ellipse cx="417.5" cy="1921.6328" fill="#84BE84" rx="3" ry="3" style="stroke:#038048;stroke-width:1.0;"/><text fill="#000000" font-family="sans-serif" font-size="14" lengthAdjust="spacing" textLength="253" x="426.5" y="1924.9795">getProjectCreationDate() : LocalDate</text><ellipse cx="417.5" cy="1937.9297" fill="#84BE84" rx="3" ry="3" style="stroke:#038048;stroke-width:1.0;"/><text fill="#000000" font-family="sans-serif" font-size="14" lengthAdjust="spacing" textLength="301" x="426.5" y="1941.2764">getUserStoryPriorityList() : UserStoryID [0..*]</text><ellipse cx="417.5" cy="1954.2266" fill="#84BE84" rx="3" ry="3" style="stroke:#038048;stroke-width:1.0;"/><text fill="#000000" font-family="sans-serif" font-size="14" lengthAdjust="spacing" textLength="216" x="426.5" y="1957.5732">getProjectCode() : ProjectCode</text><ellipse cx="417.5" cy="1970.5234" fill="#84BE84" rx="3" ry="3" style="stroke:#038048;stroke-width:1.0;"/><text fill="#000000" font-family="sans-serif" font-size="14" lengthAdjust="spacing" textLength="222" x="426.5" y="1973.8701">getProjectName() : ProjectName</text><ellipse cx="417.5" cy="1986.8203" fill="#84BE84" rx="3" ry="3" style="stroke:#038048;stroke-width:1.0;"/><text fill="#000000" font-family="sans-serif" font-size="14" lengthAdjust="spacing" textLength="204" x="426.5" y="1990.167">getDescription() : Description</text><ellipse cx="417.5" cy="2003.1172" fill="#84BE84" rx="3" ry="3" style="stroke:#038048;stroke-width:1.0;"/><text fill="#000000" font-family="sans-serif" font-size="14" lengthAdjust="spacing" textLength="294" x="426.5" y="2006.4639">getCustomerID() : TaxIdentificationNumber</text><ellipse cx="417.5" cy="2019.4141" fill="#84BE84" rx="3" ry="3" style="stroke:#038048;stroke-width:1.0;"/><text fill="#000000" font-family="sans-serif" font-size="14" lengthAdjust="spacing" textLength="346" x="426.5" y="2022.7607">getProjectTypologyName() : ProjectTypologyName</text><ellipse cx="417.5" cy="2035.7109" fill="#84BE84" rx="3" ry="3" style="stroke:#038048;stroke-width:1.0;"/><text fill="#000000" font-family="sans-serif" font-size="14" lengthAdjust="spacing" textLength="344" x="426.5" y="2039.0576">getBusinessSectorName() : BusinessSectorName</text><ellipse cx="417.5" cy="2052.0078" fill="#84BE84" rx="3" ry="3" style="stroke:#038048;stroke-width:1.0;"/><text fill="#000000" font-family="sans-serif" font-size="14" lengthAdjust="spacing" textLength="264" x="426.5" y="2055.3545">getProductBacklog() : ProductBacklog</text><ellipse cx="417.5" cy="2068.3047" fill="#84BE84" rx="3" ry="3" style="stroke:#038048;stroke-width:1.0;"/><text fill="#000000" font-family="sans-serif" font-size="14" lengthAdjust="spacing" textLength="182" x="426.5" y="2071.6514">getProjectStatus() : Status</text><ellipse cx="417.5" cy="2084.6016" fill="#84BE84" rx="3" ry="3" style="stroke:#038048;stroke-width:1.0;"/><text fill="#000000" font-family="sans-serif" font-size="14" lengthAdjust="spacing" textLength="228" x="426.5" y="2087.9482">getStatusHistory() : StatusHistory</text><ellipse cx="417.5" cy="2100.8984" fill="#84BE84" rx="3" ry="3" style="stroke:#038048;stroke-width:1.0;"/><text fill="#000000" font-family="sans-serif" font-size="14" lengthAdjust="spacing" textLength="325" x="426.5" y="2104.2451">getSprintDuration() : Optional&lt;SprintDuration&gt;</text><ellipse cx="417.5" cy="2117.1953" fill="#84BE84" rx="3" ry="3" style="stroke:#038048;stroke-width:1.0;"/><text fill="#000000" font-family="sans-serif" font-size="14" lengthAdjust="spacing" textLength="445" x="426.5" y="2120.542">getNumberPlannedSprints() : Optional&lt;NumberPlannedSprints&gt;</text><ellipse cx="417.5" cy="2133.4922" fill="#84BE84" rx="3" ry="3" style="stroke:#038048;stroke-width:1.0;"/><text fill="#000000" font-family="sans-serif" font-size="14" lengthAdjust="spacing" textLength="229" x="426.5" y="2136.8389">getBudget() : Optional&lt;Budget&gt;</text><ellipse cx="417.5" cy="2149.7891" fill="#84BE84" rx="3" ry="3" style="stroke:#038048;stroke-width:1.0;"/><text fill="#000000" font-family="sans-serif" font-size="14" lengthAdjust="spacing" textLength="249" x="426.5" y="2153.1357">getPeriod() : Optional&lt;TimePeriod&gt;</text><ellipse cx="417.5" cy="2166.0859" fill="#84BE84" rx="3" ry="3" style="stroke:#038048;stroke-width:1.0;"/><text fill="#000000" font-family="sans-serif" font-size="14" lengthAdjust="spacing" textLength="300" x="426.5" y="2169.4326">setSprintDuration(duration : SprintDuration)</text><ellipse cx="417.5" cy="2182.3828" fill="#84BE84" rx="3" ry="3" style="stroke:#038048;stroke-width:1.0;"/><text fill="#000000" font-family="sans-serif" font-size="14" lengthAdjust="spacing" textLength="521" x="426.5" y="2185.7295">setNumberPlannedSprints(numberPlannedSprints : NumberPlannedSprints)</text><ellipse cx="417.5" cy="2198.6797" fill="#84BE84" rx="3" ry="3" style="stroke:#038048;stroke-width:1.0;"/><text fill="#000000" font-family="sans-serif" font-size="14" lengthAdjust="spacing" textLength="197" x="426.5" y="2202.0264">setBudget(budget : Budget)</text><ellipse cx="417.5" cy="2214.9766" fill="#84BE84" rx="3" ry="3" style="stroke:#038048;stroke-width:1.0;"/><text fill="#000000" font-family="sans-serif" font-size="14" lengthAdjust="spacing" textLength="211" x="426.5" y="2218.3232">setPeriod(period : TimePeriod)</text><ellipse cx="417.5" cy="2231.2734" fill="#84BE84" rx="3" ry="3" style="stroke:#038048;stroke-width:1.0;"/><text fill="#000000" font-family="sans-serif" font-size="14" lengthAdjust="spacing" textLength="158" x="426.5" y="2234.6201">identity() : ProjectCode</text><ellipse cx="417.5" cy="2247.5703" fill="#84BE84" rx="3" ry="3" style="stroke:#038048;stroke-width:1.0;"/><text fill="#000000" font-family="sans-serif" font-size="14" lengthAdjust="spacing" textLength="235" x="426.5" y="2250.917">sameAs(object : Object) : boolean</text><ellipse cx="417.5" cy="2263.8672" fill="#84BE84" rx="3" ry="3" style="stroke:#038048;stroke-width:1.0;"/><text fill="#000000" font-family="sans-serif" font-size="14" lengthAdjust="spacing" textLength="196" x="426.5" y="2267.2139">equals (o : Object) : boolean</text><ellipse cx="417.5" cy="2280.1641" fill="#84BE84" rx="3" ry="3" style="stroke:#038048;stroke-width:1.0;"/><text fill="#000000" font-family="sans-serif" font-size="14" lengthAdjust="spacing" textLength="111" x="426.5" y="2283.5107">hashCode() : int</text></g><!--link ProjectController to ProjectService--><g id="link_ProjectController_ProjectService"><path codeLine="16" d="M754.5,198.3169 C754.5,220.0269 754.5,244.7069 754.5,269.9969 " fill="none" id="ProjectController-to-ProjectService" style="stroke:#181818;stroke-width:1.0;"/><polygon fill="#181818" points="754.5,275.0569,758.5,266.0569,754.5,270.0569,750.5,266.0569,754.5,275.0569" style="stroke:#181818;stroke-width:1.0;"/><text fill="#000000" font-family="sans-serif" font-size="13" lengthAdjust="spacing" textLength="91" x="755.5" y="241.3638">projectService</text></g><!--link ProjectService to Repository--><g id="link_ProjectService_Repository"><path codeLine="17" d="M657.14,641.4969 C643.67,666.7169 630.44,691.4869 618.67,713.4969 " fill="none" id="ProjectService-to-Repository" style="stroke:#181818;stroke-width:1.0;"/><polygon fill="#181818" points="616.19,718.1469,623.9578,712.092,618.5452,713.7363,616.9008,708.3237,616.19,718.1469" style="stroke:#181818;stroke-width:1.0;"/><text fill="#000000" font-family="sans-serif" font-size="13" lengthAdjust="spacing" textLength="111" x="640.5" y="684.3638">projectRepository</text></g><!--reverse link ProjectRepository to ProjectRepositoryFake--><g id="link_ProjectRepository_ProjectRepositoryFake"><path codeLine="19" d="M519.66,1053.8869 C470.88,1087.6069 398.35,1137.7369 336.24,1180.6569 " fill="none" id="ProjectRepository-backto-ProjectRepositoryFake" style="stroke:#181818;stroke-width:1.0;stroke-dasharray:7.0,7.0;"/><polygon fill="none" points="515.75,1048.0869,536.18,1042.4769,523.71,1059.6069,515.75,1048.0869" style="stroke:#181818;stroke-width:1.0;"/></g><!--reverse link ProjectRepository to ProjectRepositoryPersistence--><g id="link_ProjectRepository_ProjectRepositoryPersistence"><path codeLine="20" d="M602.65,1059.5669 C619.13,1086.4469 640.95,1122.0369 661.79,1156.0169 " fill="none" id="ProjectRepository-backto-ProjectRepositoryPersistence" style="stroke:#181818;stroke-width:1.0;stroke-dasharray:7.0,7.0;"/><polygon fill="none" points="596.65,1063.1769,592.16,1042.4769,608.59,1055.8669,596.65,1063.1769" style="stroke:#181818;stroke-width:1.0;"/></g><!--reverse link Repository to ProjectRepository--><g id="link_Repository_ProjectRepository"><path codeLine="21" d="M575.5,892.8569 C575.5,926.9769 575.5,962.6969 575.5,986.2869 " fill="none" id="Repository-backto-ProjectRepository" style="stroke:#181818;stroke-width:1.0;"/><polygon fill="none" points="568.5,892.4969,575.5,872.4969,582.5,892.4969,568.5,892.4969" style="stroke:#181818;stroke-width:1.0;"/></g><!--link ProjectService to CreateProjectListAssembler--><g id="link_ProjectService_CreateProjectListAssembler"><path codeLine="22" d="M852.4,641.4969 C874.24,682.1469 895.45,721.6169 910.84,750.2669 " fill="none" id="ProjectService-to-CreateProjectListAssembler" style="stroke:#181818;stroke-width:1.0;stroke-dasharray:7.0,7.0;"/><polygon fill="#181818" points="913.26,754.7669,912.5245,744.9455,910.8938,750.3622,905.477,748.7315,913.26,754.7669" style="stroke:#181818;stroke-width:1.0;"/></g><!--link CreateProjectListAssembler to ProjectDTO--><g id="link_CreateProjectListAssembler_ProjectDTO"><path codeLine="24" d="M923.38,835.8469 C916.14,861.6069 906.41,896.2169 897.47,928.0369 " fill="none" id="CreateProjectListAssembler-to-ProjectDTO" style="stroke:#181818;stroke-width:1.0;stroke-dasharray:7.0,7.0;"/><polygon fill="#181818" points="896.04,933.1169,902.311,925.5225,897.3834,928.3007,894.6052,923.3731,896.04,933.1169" style="stroke:#181818;stroke-width:1.0;"/></g><!--link CreateProjectListAssembler to Project--><g id="link_CreateProjectListAssembler_Project"><path codeLine="25" d="M958.51,835.9269 C983.02,876.3869 1017.5,933.2969 1017.5,933.2969 C1017.5,933.2969 1017.5,1375.2969 1017.5,1375.2969 C1017.5,1375.2969 1000.75,1404.0169 975.31,1447.6269 " fill="none" id="CreateProjectListAssembler-to-Project" style="stroke:#181818;stroke-width:1.0;stroke-dasharray:7.0,7.0;"/><polygon fill="#181818" points="972.66,1452.1769,980.6476,1446.4151,975.1776,1447.8569,973.7357,1442.3869,972.66,1452.1769" style="stroke:#181818;stroke-width:1.0;"/></g><!--link ProjectRepositoryFake to Project--><g id="link_ProjectRepositoryFake_Project"><path codeLine="27" d="M294.99,1361.3769 C324.45,1395.9969 359.89,1437.6469 397.66,1482.0269 " fill="none" id="ProjectRepositoryFake-Project" style="stroke:#181818;stroke-width:1.0;"/><polygon fill="#181818" points="286.24,1351.0969,287.0838,1358.2584,294.0191,1360.234,293.1752,1353.0724,286.24,1351.0969" style="stroke:#181818;stroke-width:1.0;"/><polygon fill="#181818" points="406.27,1492.1469,403.4814,1482.701,403.0287,1488.3398,397.39,1487.8871,406.27,1492.1469" style="stroke:#181818;stroke-width:1.0;"/><line style="stroke:#181818;stroke-width:1.0;" x1="403.0287" x2="397.845" y1="1488.3398" y2="1482.2469"/><text fill="#000000" font-family="sans-serif" font-size="13" lengthAdjust="spacing" textLength="66" x="340.5" y="1418.3638">projectList</text><text fill="#000000" font-family="sans-serif" font-size="13" lengthAdjust="spacing" textLength="8" x="284.0614" y="1371.1297">0</text><text fill="#000000" font-family="sans-serif" font-size="13" lengthAdjust="spacing" textLength="7" x="391.6357" y="1480.1472">*</text></g><!--link ProjectRepositoryPersistence to Project--><g id="link_ProjectRepositoryPersistence_Project"><path codeLine="28" d="M728.5,1388.5469 C728.5,1404.3669 728.5,1421.2269 728.5,1438.8169 " fill="none" id="ProjectRepositoryPersistence-Project" style="stroke:#181818;stroke-width:1.0;"/><polygon fill="#181818" points="728.5,1375.4769,724.5,1381.4769,728.5,1387.4769,732.5,1381.4769,728.5,1375.4769" style="stroke:#181818;stroke-width:1.0;"/><polygon fill="#181818" points="728.5,1452.0769,732.5,1443.0769,728.5,1447.0769,724.5,1443.0769,728.5,1452.0769" style="stroke:#181818;stroke-width:1.0;"/><line style="stroke:#181818;stroke-width:1.0;" x1="728.5" x2="728.5" y1="1447.0769" y2="1439.0769"/><text fill="#000000" font-family="sans-serif" font-size="13" lengthAdjust="spacing" textLength="66" x="729.5" y="1418.3638">projectList</text><text fill="#000000" font-family="sans-serif" font-size="13" lengthAdjust="spacing" textLength="8" x="720.2188" y="1395.7794">0</text><text fill="#000000" font-family="sans-serif" font-size="13" lengthAdjust="spacing" textLength="7" x="721.4398" y="1441.8062">*</text></g><!--SRC=[lLDDIyGm4BtdLumzBZPT3rv45fOLGL1SN3sNs8mbRfg49BjIyCURsgxTJ-d1286Gp7lp9lCcRYcKOPPL88L2Nni4esNT70Znmak4byNuuX9Ic3fuO8gLQC_X3ZwOyk0rbEY11RBpeD-0IGd6wdSil2FaJAX2hZW2fLcxz1fjmEGT9kFeHAcoGZBdSYvO6IffJ-WsUyuvp-OjOQQLjrfAjDIiAXb1OO5sBGhyy_HFQBGJNjiwLkN_gN3BbXXVPOxMXS525S6FcKNciPEy3ohJ4AfU8qxMpVDZhDHjNdBmII1D9x0xs72r-Q3T1TcBDvJUWXxUt_q8RS6kFoc5esCo6BpbDja1f-aXUBzgIYTmsb92JiU-gRr50v57Uj0y5f9n0gEcXSaesM3x7ZRfo6yF7yB_0W00]--></g></svg>