<?xml version="1.0" encoding="us-ascii" standalone="no"?><svg xmlns="http://www.w3.org/2000/svg" xmlns:xlink="http://www.w3.org/1999/xlink" contentStyleType="text/css" height="1699px" preserveAspectRatio="none" style="width:1124px;height:1699px;background:#FFFFFF;" version="1.1" viewBox="0 0 1124 1699" width="1124px" zoomAndPan="magnify"><defs/><g><text fill="#000000" font-family="sans-serif" font-size="14" font-weight="bold" lengthAdjust="spacing" textLength="440" x="335" y="22.9951">US001 - As Administrator, I want to create user profiles</text><!--class ProfileController--><g id="elem_ProfileController"><rect codeLine="4" fill="#F1F1F1" height="105.1563" id="ProfileController" rx="2.5" ry="2.5" style="stroke:#181818;stroke-width:0.5;" width="462" x="251.5" y="44.2969"/><ellipse cx="423.75" cy="64.4297" fill="#ADD1B2" rx="11" ry="11" style="stroke:#181818;stroke-width:1.0;"/><path d="M426.7188,70.0703 Q426.1406,70.3672 425.5,70.5078 Q424.8594,70.6641 424.1563,70.6641 Q421.6563,70.6641 420.3281,69.0234 Q419.0156,67.3672 419.0156,64.2422 Q419.0156,61.1172 420.3281,59.4609 Q421.6563,57.8047 424.1563,57.8047 Q424.8594,57.8047 425.5,57.9609 Q426.1563,58.1172 426.7188,58.4141 L426.7188,61.1328 Q426.0938,60.5547 425.5,60.2891 Q424.9063,60.0078 424.2813,60.0078 Q422.9375,60.0078 422.25,61.0859 Q421.5625,62.1484 421.5625,64.2422 Q421.5625,66.3359 422.25,67.4141 Q422.9375,68.4766 424.2813,68.4766 Q424.9063,68.4766 425.5,68.2109 Q426.0938,67.9297 426.7188,67.3516 L426.7188,70.0703 Z " fill="#000000"/><text fill="#000000" font-family="sans-serif" font-size="12" font-style="italic" lengthAdjust="spacing" textLength="75" x="461.25" y="60.4355">&#171;Controller&#187;</text><text fill="#000000" font-family="sans-serif" font-size="14" lengthAdjust="spacing" textLength="109" x="444.25" y="76.2607">ProfileController</text><line style="stroke:#181818;stroke-width:0.5;" x1="252.5" x2="712.5" y1="84.5625" y2="84.5625"/><line style="stroke:#181818;stroke-width:0.5;" x1="252.5" x2="712.5" y1="92.5625" y2="92.5625"/><ellipse cx="262.5" cy="106.2109" fill="#84BE84" rx="3" ry="3" style="stroke:#038048;stroke-width:1.0;"/><text fill="#000000" font-family="sans-serif" font-size="14" lengthAdjust="spacing" textLength="316" x="271.5" y="109.5576">ProfileController(profileService : ProfileService)</text><ellipse cx="262.5" cy="122.5078" fill="#84BE84" rx="3" ry="3" style="stroke:#038048;stroke-width:1.0;"/><text fill="#000000" font-family="sans-serif" font-size="14" lengthAdjust="spacing" textLength="436" x="271.5" y="125.8545">createProfile(newProfileDTO : NewProfileDTO) : ResponseEntity</text><ellipse cx="262.5" cy="138.8047" fill="#84BE84" rx="3" ry="3" style="stroke:#038048;stroke-width:1.0;"/><text fill="#000000" font-family="sans-serif" font-size="14" lengthAdjust="spacing" textLength="332" x="271.5" y="142.1514">getProfile(profileName : String) : ResponseEntity</text></g><!--class NewProfileDTO--><g id="elem_NewProfileDTO"><rect codeLine="4" fill="#F1F1F1" height="64.2969" id="NewProfileDTO" rx="2.5" ry="2.5" style="stroke:#181818;stroke-width:0.5;" width="203" x="7" y="271.2969"/><ellipse cx="52.75" cy="287.2969" fill="#ADD1B2" rx="11" ry="11" style="stroke:#181818;stroke-width:1.0;"/><path d="M55.7188,292.9375 Q55.1406,293.2344 54.5,293.375 Q53.8594,293.5313 53.1563,293.5313 Q50.6563,293.5313 49.3281,291.8906 Q48.0156,290.2344 48.0156,287.1094 Q48.0156,283.9844 49.3281,282.3281 Q50.6563,280.6719 53.1563,280.6719 Q53.8594,280.6719 54.5,280.8281 Q55.1563,280.9844 55.7188,281.2813 L55.7188,284 Q55.0938,283.4219 54.5,283.1563 Q53.9063,282.875 53.2813,282.875 Q51.9375,282.875 51.25,283.9531 Q50.5625,285.0156 50.5625,287.1094 Q50.5625,289.2031 51.25,290.2813 Q51.9375,291.3438 53.2813,291.3438 Q53.9063,291.3438 54.5,291.0781 Q55.0938,290.7969 55.7188,290.2188 L55.7188,292.9375 Z " fill="#000000"/><text fill="#000000" font-family="sans-serif" font-size="14" lengthAdjust="spacing" textLength="103" x="73.25" y="292.1436">NewProfileDTO</text><line style="stroke:#181818;stroke-width:0.5;" x1="8" x2="209" y1="303.2969" y2="303.2969"/><ellipse cx="18" cy="316.9453" fill="none" rx="3" ry="3" style="stroke:#038048;stroke-width:1.0;"/><text fill="#000000" font-family="sans-serif" font-size="14" lengthAdjust="spacing" textLength="177" x="27" y="320.292">profileName : ProfileName</text><line style="stroke:#181818;stroke-width:0.5;" x1="8" x2="209" y1="327.5938" y2="327.5938"/></g><!--class ProfileService--><g id="elem_ProfileService"><rect codeLine="4" fill="#F1F1F1" height="137.75" id="ProfileService" rx="2.5" ry="2.5" style="stroke:#181818;stroke-width:0.5;" width="474" x="245.5" y="234.2969"/><ellipse cx="432.25" cy="254.4297" fill="#ADD1B2" rx="11" ry="11" style="stroke:#181818;stroke-width:1.0;"/><path d="M435.2188,260.0703 Q434.6406,260.3672 434,260.5078 Q433.3594,260.6641 432.6563,260.6641 Q430.1563,260.6641 428.8281,259.0234 Q427.5156,257.3672 427.5156,254.2422 Q427.5156,251.1172 428.8281,249.4609 Q430.1563,247.8047 432.6563,247.8047 Q433.3594,247.8047 434,247.9609 Q434.6563,248.1172 435.2188,248.4141 L435.2188,251.1328 Q434.5938,250.5547 434,250.2891 Q433.4063,250.0078 432.7813,250.0078 Q431.4375,250.0078 430.75,251.0859 Q430.0625,252.1484 430.0625,254.2422 Q430.0625,256.3359 430.75,257.4141 Q431.4375,258.4766 432.7813,258.4766 Q433.4063,258.4766 434,258.2109 Q434.5938,257.9297 435.2188,257.3516 L435.2188,260.0703 Z " fill="#000000"/><text fill="#000000" font-family="sans-serif" font-size="12" font-style="italic" lengthAdjust="spacing" textLength="59" x="469.25" y="250.4355">&#171;Service&#187;</text><text fill="#000000" font-family="sans-serif" font-size="14" lengthAdjust="spacing" textLength="92" x="452.75" y="266.2607">ProfileService</text><line style="stroke:#181818;stroke-width:0.5;" x1="246.5" x2="718.5" y1="274.5625" y2="274.5625"/><line style="stroke:#181818;stroke-width:0.5;" x1="246.5" x2="718.5" y1="282.5625" y2="282.5625"/><ellipse cx="256.5" cy="304.3594" fill="#84BE84" rx="3" ry="3" style="stroke:#038048;stroke-width:1.0;"/><text fill="#000000" font-family="sans-serif" font-size="14" lengthAdjust="spacing" textLength="346" x="265.5" y="299.5576">ProfileService(profileRepository : ProfileRepository,</text><text fill="#000000" font-family="sans-serif" font-size="14" lengthAdjust="spacing" textLength="202" x="269.5" y="315.8545">profileFactory : ProfileFactory)</text><ellipse cx="256.5" cy="328.8047" fill="#84BE84" rx="3" ry="3" style="stroke:#038048;stroke-width:1.0;"/><text fill="#000000" font-family="sans-serif" font-size="14" lengthAdjust="spacing" textLength="326" x="265.5" y="332.1514">createDefaultProfiles(profileNameValue : String)</text><ellipse cx="256.5" cy="345.1016" fill="#84BE84" rx="3" ry="3" style="stroke:#038048;stroke-width:1.0;"/><text fill="#000000" font-family="sans-serif" font-size="14" lengthAdjust="spacing" textLength="448" x="265.5" y="348.4482">createProfile(newProfileDTO : NewProfileDTO) : OutputProfileDTO</text><ellipse cx="256.5" cy="361.3984" fill="#84BE84" rx="3" ry="3" style="stroke:#038048;stroke-width:1.0;"/><text fill="#000000" font-family="sans-serif" font-size="14" lengthAdjust="spacing" textLength="346" x="265.5" y="364.7451">findProfile(profileName : String) : OutputProfileDTO</text></g><!--class Repository--><g id="elem_Repository"><rect codeLine="4" fill="#F1F1F1" height="154.0469" id="Repository" rx="2.5" ry="2.5" style="stroke:#181818;stroke-width:0.5;" width="232" x="857.5" y="226.2969"/><ellipse cx="931.25" cy="246.4297" fill="#B4A7E5" rx="11" ry="11" style="stroke:#181818;stroke-width:1.0;"/><path d="M927.1719,242.1953 L927.1719,240.0391 L934.5625,240.0391 L934.5625,242.1953 L932.0938,242.1953 L932.0938,250.2734 L934.5625,250.2734 L934.5625,252.4297 L927.1719,252.4297 L927.1719,250.2734 L929.6406,250.2734 L929.6406,242.1953 L927.1719,242.1953 Z " fill="#000000"/><text fill="#000000" font-family="sans-serif" font-size="12" font-style="italic" lengthAdjust="spacing" textLength="80" x="949.75" y="242.4355">&#171;Repository&#187;</text><text fill="#000000" font-family="sans-serif" font-size="14" font-style="italic" lengthAdjust="spacing" textLength="74" x="952.75" y="258.2607">Repository</text><line style="stroke:#181818;stroke-width:0.5;" x1="858.5" x2="1088.5" y1="266.5625" y2="266.5625"/><line style="stroke:#181818;stroke-width:0.5;" x1="858.5" x2="1088.5" y1="274.5625" y2="274.5625"/><ellipse cx="868.5" cy="288.2109" fill="#84BE84" rx="3" ry="3" style="stroke:#038048;stroke-width:1.0;"/><text fill="#000000" font-family="sans-serif" font-size="14" lengthAdjust="spacing" textLength="124" x="877.5" y="291.5576">save(entity : T) : T</text><ellipse cx="868.5" cy="304.5078" fill="#84BE84" rx="3" ry="3" style="stroke:#038048;stroke-width:1.0;"/><text fill="#000000" font-family="sans-serif" font-size="14" lengthAdjust="spacing" textLength="147" x="877.5" y="307.8545">findAll() : Iterable&lt;T&gt;</text><ellipse cx="868.5" cy="320.8047" fill="#84BE84" rx="3" ry="3" style="stroke:#038048;stroke-width:1.0;"/><text fill="#000000" font-family="sans-serif" font-size="14" lengthAdjust="spacing" textLength="206" x="877.5" y="324.1514">findById(id : ID) : Optional&lt;T&gt;</text><ellipse cx="868.5" cy="337.1016" fill="#84BE84" rx="3" ry="3" style="stroke:#038048;stroke-width:1.0;"/><text fill="#000000" font-family="sans-serif" font-size="14" lengthAdjust="spacing" textLength="187" x="877.5" y="340.4482">existsById(id : ID) : boolean</text><ellipse cx="868.5" cy="353.3984" fill="#84BE84" rx="3" ry="3" style="stroke:#038048;stroke-width:1.0;"/><text fill="#000000" font-family="sans-serif" font-size="14" lengthAdjust="spacing" textLength="69" x="877.5" y="356.7451">deleteAll()</text><ellipse cx="868.5" cy="369.6953" fill="#84BE84" rx="3" ry="3" style="stroke:#038048;stroke-width:1.0;"/><text fill="#000000" font-family="sans-serif" font-size="14" lengthAdjust="spacing" textLength="126" x="877.5" y="373.042">deleteById (id : ID)</text></g><!--class ProfileRepository--><g id="elem_ProfileRepository"><rect codeLine="3" fill="#F1F1F1" height="56.2656" id="ProfileRepository" rx="2.5" ry="2.5" style="stroke:#181818;stroke-width:0.5;" width="147" x="868" y="461.2969"/><ellipse cx="883" cy="481.4297" fill="#B4A7E5" rx="11" ry="11" style="stroke:#181818;stroke-width:1.0;"/><path d="M878.9219,477.1953 L878.9219,475.0391 L886.3125,475.0391 L886.3125,477.1953 L883.8438,477.1953 L883.8438,485.2734 L886.3125,485.2734 L886.3125,487.4297 L878.9219,487.4297 L878.9219,485.2734 L881.3906,485.2734 L881.3906,477.1953 L878.9219,477.1953 Z " fill="#000000"/><text fill="#000000" font-family="sans-serif" font-size="12" font-style="italic" lengthAdjust="spacing" textLength="80" x="914.5" y="477.4355">&#171;Repository&#187;</text><text fill="#000000" font-family="sans-serif" font-size="14" font-style="italic" lengthAdjust="spacing" textLength="115" x="897" y="493.2607">ProfileRepository</text><line style="stroke:#181818;stroke-width:0.5;" x1="869" x2="1014" y1="501.5625" y2="501.5625"/><line style="stroke:#181818;stroke-width:0.5;" x1="869" x2="1014" y1="509.5625" y2="509.5625"/></g><!--class ProfileRepositoryPersistence--><g id="elem_ProfileRepositoryPersistence"><rect codeLine="3" fill="#F1F1F1" height="154.0469" id="ProfileRepositoryPersistence" rx="2.5" ry="2.5" style="stroke:#181818;stroke-width:0.5;" width="351" x="766" y="582.2969"/><ellipse cx="838.25" cy="602.4297" fill="#ADD1B2" rx="11" ry="11" style="stroke:#181818;stroke-width:1.0;"/><path d="M841.2188,608.0703 Q840.6406,608.3672 840,608.5078 Q839.3594,608.6641 838.6563,608.6641 Q836.1563,608.6641 834.8281,607.0234 Q833.5156,605.3672 833.5156,602.2422 Q833.5156,599.1172 834.8281,597.4609 Q836.1563,595.8047 838.6563,595.8047 Q839.3594,595.8047 840,595.9609 Q840.6563,596.1172 841.2188,596.4141 L841.2188,599.1328 Q840.5938,598.5547 840,598.2891 Q839.4063,598.0078 838.7813,598.0078 Q837.4375,598.0078 836.75,599.0859 Q836.0625,600.1484 836.0625,602.2422 Q836.0625,604.3359 836.75,605.4141 Q837.4375,606.4766 838.7813,606.4766 Q839.4063,606.4766 840,606.2109 Q840.5938,605.9297 841.2188,605.3516 L841.2188,608.0703 Z " fill="#000000"/><text fill="#000000" font-family="sans-serif" font-size="12" font-style="italic" lengthAdjust="spacing" textLength="80" x="917.75" y="598.4355">&#171;Repository&#187;</text><text fill="#000000" font-family="sans-serif" font-size="14" lengthAdjust="spacing" textLength="198" x="858.75" y="614.2607">ProfileRepositoryPersistence</text><line style="stroke:#181818;stroke-width:0.5;" x1="767" x2="1116" y1="622.5625" y2="622.5625"/><line style="stroke:#181818;stroke-width:0.5;" x1="767" x2="1116" y1="630.5625" y2="630.5625"/><ellipse cx="777" cy="644.2109" fill="#84BE84" rx="3" ry="3" style="stroke:#038048;stroke-width:1.0;"/><text fill="#000000" font-family="sans-serif" font-size="14" lengthAdjust="spacing" textLength="219" x="786" y="647.5576">save(profile : Profile) : UserStory</text><ellipse cx="777" cy="660.5078" fill="#84BE84" rx="3" ry="3" style="stroke:#038048;stroke-width:1.0;"/><text fill="#000000" font-family="sans-serif" font-size="14" lengthAdjust="spacing" textLength="291" x="786" y="663.8545">findAll(profileName : ProfileName) : Iterable</text><ellipse cx="777" cy="676.8047" fill="#84BE84" rx="3" ry="3" style="stroke:#038048;stroke-width:1.0;"/><text fill="#000000" font-family="sans-serif" font-size="14" lengthAdjust="spacing" textLength="311" x="786" y="680.1514">findById(profileName : ProfileName) : Optional</text><ellipse cx="777" cy="693.1016" fill="#84BE84" rx="3" ry="3" style="stroke:#038048;stroke-width:1.0;"/><text fill="#000000" font-family="sans-serif" font-size="14" lengthAdjust="spacing" textLength="325" x="786" y="696.4482">existsById(profileName : ProfileName) : boolean</text><ellipse cx="777" cy="709.3984" fill="#84BE84" rx="3" ry="3" style="stroke:#038048;stroke-width:1.0;"/><text fill="#000000" font-family="sans-serif" font-size="14" lengthAdjust="spacing" textLength="69" x="786" y="712.7451">deleteAll()</text><ellipse cx="777" cy="725.6953" fill="#84BE84" rx="3" ry="3" style="stroke:#038048;stroke-width:1.0;"/><text fill="#000000" font-family="sans-serif" font-size="14" lengthAdjust="spacing" textLength="260" x="786" y="729.042">deleteById(profileName : profileName)</text></g><!--class ProfileRepositoryJPA--><g id="elem_ProfileRepositoryJPA"><rect codeLine="3" fill="#F1F1F1" height="56.2656" id="ProfileRepositoryJPA" rx="2.5" ry="2.5" style="stroke:#181818;stroke-width:0.5;" width="169" x="870" y="833.7969"/><ellipse cx="885" cy="853.9297" fill="#B4A7E5" rx="11" ry="11" style="stroke:#181818;stroke-width:1.0;"/><path d="M880.9219,849.6953 L880.9219,847.5391 L888.3125,847.5391 L888.3125,849.6953 L885.8438,849.6953 L885.8438,857.7734 L888.3125,857.7734 L888.3125,859.9297 L880.9219,859.9297 L880.9219,857.7734 L883.3906,857.7734 L883.3906,849.6953 L880.9219,849.6953 Z " fill="#000000"/><text fill="#000000" font-family="sans-serif" font-size="12" font-style="italic" lengthAdjust="spacing" textLength="80" x="927.5" y="849.9355">&#171;Repository&#187;</text><text fill="#000000" font-family="sans-serif" font-size="14" font-style="italic" lengthAdjust="spacing" textLength="137" x="899" y="865.7607">ProfileRepositoryJPA</text><line style="stroke:#181818;stroke-width:0.5;" x1="871" x2="1038" y1="874.0625" y2="874.0625"/><line style="stroke:#181818;stroke-width:0.5;" x1="871" x2="1038" y1="882.0625" y2="882.0625"/></g><!--class ProfileFactory--><g id="elem_ProfileFactory"><rect codeLine="3" fill="#F1F1F1" height="72.5625" id="ProfileFactory" rx="2.5" ry="2.5" style="stroke:#181818;stroke-width:0.5;" width="354" x="145.5" y="1015.2969"/><ellipse cx="272.25" cy="1035.4297" fill="#B4A7E5" rx="11" ry="11" style="stroke:#181818;stroke-width:1.0;"/><path d="M268.1719,1031.1953 L268.1719,1029.0391 L275.5625,1029.0391 L275.5625,1031.1953 L273.0938,1031.1953 L273.0938,1039.2734 L275.5625,1039.2734 L275.5625,1041.4297 L268.1719,1041.4297 L268.1719,1039.2734 L270.6406,1039.2734 L270.6406,1031.1953 L268.1719,1031.1953 Z " fill="#000000"/><text fill="#000000" font-family="sans-serif" font-size="12" font-style="italic" lengthAdjust="spacing" textLength="61" x="308.25" y="1031.4355">&#171;Factory&#187;</text><text fill="#000000" font-family="sans-serif" font-size="14" font-style="italic" lengthAdjust="spacing" textLength="92" x="292.75" y="1047.2607">ProfileFactory</text><line style="stroke:#181818;stroke-width:0.5;" x1="146.5" x2="498.5" y1="1055.5625" y2="1055.5625"/><line style="stroke:#181818;stroke-width:0.5;" x1="146.5" x2="498.5" y1="1063.5625" y2="1063.5625"/><ellipse cx="156.5" cy="1077.2109" fill="#84BE84" rx="3" ry="3" style="stroke:#038048;stroke-width:1.0;"/><text fill="#000000" font-family="sans-serif" font-size="14" lengthAdjust="spacing" textLength="328" x="165.5" y="1080.5576">createProfile(profileName : ProfileName) : Profile</text></g><!--class ProfileFactoryImplementation--><g id="elem_ProfileFactoryImplementation"><rect codeLine="3" fill="#F1F1F1" height="72.5625" id="ProfileFactoryImplementation" rx="2.5" ry="2.5" style="stroke:#181818;stroke-width:0.5;" width="354" x="145.5" y="1177.2969"/><ellipse cx="218.75" cy="1197.4297" fill="#ADD1B2" rx="11" ry="11" style="stroke:#181818;stroke-width:1.0;"/><path d="M221.7188,1203.0703 Q221.1406,1203.3672 220.5,1203.5078 Q219.8594,1203.6641 219.1563,1203.6641 Q216.6563,1203.6641 215.3281,1202.0234 Q214.0156,1200.3672 214.0156,1197.2422 Q214.0156,1194.1172 215.3281,1192.4609 Q216.6563,1190.8047 219.1563,1190.8047 Q219.8594,1190.8047 220.5,1190.9609 Q221.1563,1191.1172 221.7188,1191.4141 L221.7188,1194.1328 Q221.0938,1193.5547 220.5,1193.2891 Q219.9063,1193.0078 219.2813,1193.0078 Q217.9375,1193.0078 217.25,1194.0859 Q216.5625,1195.1484 216.5625,1197.2422 Q216.5625,1199.3359 217.25,1200.4141 Q217.9375,1201.4766 219.2813,1201.4766 Q219.9063,1201.4766 220.5,1201.2109 Q221.0938,1200.9297 221.7188,1200.3516 L221.7188,1203.0703 Z " fill="#000000"/><text fill="#000000" font-family="sans-serif" font-size="12" font-style="italic" lengthAdjust="spacing" textLength="61" x="308.25" y="1193.4355">&#171;Factory&#187;</text><text fill="#000000" font-family="sans-serif" font-size="14" lengthAdjust="spacing" textLength="199" x="239.25" y="1209.2607">ProfileFactoryImplementation</text><line style="stroke:#181818;stroke-width:0.5;" x1="146.5" x2="498.5" y1="1217.5625" y2="1217.5625"/><line style="stroke:#181818;stroke-width:0.5;" x1="146.5" x2="498.5" y1="1225.5625" y2="1225.5625"/><ellipse cx="156.5" cy="1239.2109" fill="#84BE84" rx="3" ry="3" style="stroke:#038048;stroke-width:1.0;"/><text fill="#000000" font-family="sans-serif" font-size="14" lengthAdjust="spacing" textLength="328" x="165.5" y="1242.5576">createProfile(profileName : ProfileName) : Profile</text></g><!--class Profile--><g id="elem_Profile"><rect codeLine="4" fill="#F1F1F1" height="151.7188" id="Profile" rx="2.5" ry="2.5" style="stroke:#181818;stroke-width:0.5;" width="261" x="364" y="1311.2969"/><ellipse cx="437.75" cy="1338.4141" fill="#ADD1B2" rx="11" ry="11" style="stroke:#181818;stroke-width:1.0;"/><path d="M440.7188,1344.0547 Q440.1406,1344.3516 439.5,1344.4922 Q438.8594,1344.6484 438.1563,1344.6484 Q435.6563,1344.6484 434.3281,1343.0078 Q433.0156,1341.3516 433.0156,1338.2266 Q433.0156,1335.1016 434.3281,1333.4453 Q435.6563,1331.7891 438.1563,1331.7891 Q438.8594,1331.7891 439.5,1331.9453 Q440.1563,1332.1016 440.7188,1332.3984 L440.7188,1335.1172 Q440.0938,1334.5391 439.5,1334.2734 Q438.9063,1333.9922 438.2813,1333.9922 Q436.9375,1333.9922 436.25,1335.0703 Q435.5625,1336.1328 435.5625,1338.2266 Q435.5625,1340.3203 436.25,1341.3984 Q436.9375,1342.4609 438.2813,1342.4609 Q438.9063,1342.4609 439.5,1342.1953 Q440.0938,1341.9141 440.7188,1341.3359 L440.7188,1344.0547 Z " fill="#000000"/><text fill="#000000" font-family="sans-serif" font-size="12" font-style="italic" lengthAdjust="spacing" textLength="50" x="485.75" y="1327.4355">&#171;Entity&#187;</text><text fill="#000000" font-family="sans-serif" font-size="12" font-style="italic" lengthAdjust="spacing" textLength="109" x="456.25" y="1341.4043">&#171;AggregateRoot&#187;</text><text fill="#000000" font-family="sans-serif" font-size="14" lengthAdjust="spacing" textLength="42" x="489.75" y="1357.2295">Profile</text><line style="stroke:#181818;stroke-width:0.5;" x1="365" x2="624" y1="1365.5313" y2="1365.5313"/><line style="stroke:#181818;stroke-width:0.5;" x1="365" x2="624" y1="1373.5313" y2="1373.5313"/><polygon fill="#FFFF44" points="375,1382.1797,379,1386.1797,375,1390.1797,371,1386.1797" style="stroke:#B38D22;stroke-width:1.0;"/><text fill="#000000" font-family="sans-serif" font-size="14" lengthAdjust="spacing" textLength="229" x="384" y="1390.5264">Profile(profileName : ProfileName)</text><ellipse cx="375" cy="1403.4766" fill="#84BE84" rx="3" ry="3" style="stroke:#038048;stroke-width:1.0;"/><text fill="#000000" font-family="sans-serif" font-size="14" lengthAdjust="spacing" textLength="155" x="384" y="1406.8232">identity() : ProfileName</text><ellipse cx="375" cy="1419.7734" fill="#84BE84" rx="3" ry="3" style="stroke:#038048;stroke-width:1.0;"/><text fill="#000000" font-family="sans-serif" font-size="14" lengthAdjust="spacing" textLength="235" x="384" y="1423.1201">sameAs(object : Object) : boolean</text><ellipse cx="375" cy="1436.0703" fill="#84BE84" rx="3" ry="3" style="stroke:#038048;stroke-width:1.0;"/><text fill="#000000" font-family="sans-serif" font-size="14" lengthAdjust="spacing" textLength="226" x="384" y="1439.417">equals(object : Object) : boolean</text><ellipse cx="375" cy="1452.3672" fill="#84BE84" rx="3" ry="3" style="stroke:#038048;stroke-width:1.0;"/><text fill="#000000" font-family="sans-serif" font-size="14" lengthAdjust="spacing" textLength="111" x="384" y="1455.7139">hashCode() : int</text></g><!--class ProfileName--><g id="elem_ProfileName"><rect codeLine="4" fill="#F1F1F1" height="151.7188" id="ProfileName" rx="2.5" ry="2.5" style="stroke:#181818;stroke-width:0.5;" width="291" x="349" y="1540.2969"/><ellipse cx="446.25" cy="1567.4141" fill="#ADD1B2" rx="11" ry="11" style="stroke:#181818;stroke-width:1.0;"/><path d="M449.2188,1573.0547 Q448.6406,1573.3516 448,1573.4922 Q447.3594,1573.6484 446.6563,1573.6484 Q444.1563,1573.6484 442.8281,1572.0078 Q441.5156,1570.3516 441.5156,1567.2266 Q441.5156,1564.1016 442.8281,1562.4453 Q444.1563,1560.7891 446.6563,1560.7891 Q447.3594,1560.7891 448,1560.9453 Q448.6563,1561.1016 449.2188,1561.3984 L449.2188,1564.1172 Q448.5938,1563.5391 448,1563.2734 Q447.4063,1562.9922 446.7813,1562.9922 Q445.4375,1562.9922 444.75,1564.0703 Q444.0625,1565.1328 444.0625,1567.2266 Q444.0625,1569.3203 444.75,1570.3984 Q445.4375,1571.4609 446.7813,1571.4609 Q447.4063,1571.4609 448,1571.1953 Q448.5938,1570.9141 449.2188,1570.3359 L449.2188,1573.0547 Z " fill="#000000"/><text fill="#000000" font-family="sans-serif" font-size="12" font-style="italic" lengthAdjust="spacing" textLength="74" x="473.75" y="1556.4355">&#171;DomainID&#187;</text><text fill="#000000" font-family="sans-serif" font-size="12" font-style="italic" lengthAdjust="spacing" textLength="92" x="464.75" y="1570.4043">&#171;Value Object&#187;</text><text fill="#000000" font-family="sans-serif" font-size="14" lengthAdjust="spacing" textLength="82" x="469.75" y="1586.2295">ProfileName</text><line style="stroke:#181818;stroke-width:0.5;" x1="350" x2="639" y1="1594.5313" y2="1594.5313"/><rect fill="none" height="6" style="stroke:#C82930;stroke-width:1.0;" width="6" x="357" y="1605.1797"/><text fill="#000000" font-family="sans-serif" font-size="14" lengthAdjust="spacing" textLength="256" x="369" y="1611.5264">profileNameValue : String {readOnly}</text><line style="stroke:#181818;stroke-width:0.5;" x1="350" x2="639" y1="1618.8281" y2="1618.8281"/><ellipse cx="360" cy="1632.4766" fill="#84BE84" rx="3" ry="3" style="stroke:#038048;stroke-width:1.0;"/><text fill="#000000" font-family="sans-serif" font-size="14" lengthAdjust="spacing" textLength="265" x="369" y="1635.8232">ProfileName(profileNameValue : String)</text><ellipse cx="360" cy="1648.7734" fill="#84BE84" rx="3" ry="3" style="stroke:#038048;stroke-width:1.0;"/><text fill="#000000" font-family="sans-serif" font-size="14" lengthAdjust="spacing" textLength="206" x="369" y="1652.1201">getProfileNameValue() : String</text><ellipse cx="360" cy="1665.0703" fill="#84BE84" rx="3" ry="3" style="stroke:#038048;stroke-width:1.0;"/><text fill="#000000" font-family="sans-serif" font-size="14" lengthAdjust="spacing" textLength="192" x="369" y="1668.417">equals(o : Object) : boolean</text><ellipse cx="360" cy="1681.3672" fill="#84BE84" rx="3" ry="3" style="stroke:#038048;stroke-width:1.0;"/><text fill="#000000" font-family="sans-serif" font-size="14" lengthAdjust="spacing" textLength="111" x="369" y="1684.7139">hashCode() : int</text></g><!--class OutputProfileDTO--><g id="elem_OutputProfileDTO"><rect codeLine="4" fill="#F1F1F1" height="96.8906" id="OutputProfileDTO" rx="2.5" ry="2.5" style="stroke:#181818;stroke-width:0.5;" width="252" x="478.5" y="610.7969"/><ellipse cx="539.75" cy="626.7969" fill="#ADD1B2" rx="11" ry="11" style="stroke:#181818;stroke-width:1.0;"/><path d="M542.7188,632.4375 Q542.1406,632.7344 541.5,632.875 Q540.8594,633.0313 540.1563,633.0313 Q537.6563,633.0313 536.3281,631.3906 Q535.0156,629.7344 535.0156,626.6094 Q535.0156,623.4844 536.3281,621.8281 Q537.6563,620.1719 540.1563,620.1719 Q540.8594,620.1719 541.5,620.3281 Q542.1563,620.4844 542.7188,620.7813 L542.7188,623.5 Q542.0938,622.9219 541.5,622.6563 Q540.9063,622.375 540.2813,622.375 Q538.9375,622.375 538.25,623.4531 Q537.5625,624.5156 537.5625,626.6094 Q537.5625,628.7031 538.25,629.7813 Q538.9375,630.8438 540.2813,630.8438 Q540.9063,630.8438 541.5,630.5781 Q542.0938,630.2969 542.7188,629.7188 L542.7188,632.4375 Z " fill="#000000"/><text fill="#000000" font-family="sans-serif" font-size="14" lengthAdjust="spacing" textLength="121" x="560.25" y="631.6436">OutputProfileDTO</text><line style="stroke:#181818;stroke-width:0.5;" x1="479.5" x2="729.5" y1="642.7969" y2="642.7969"/><ellipse cx="489.5" cy="656.4453" fill="none" rx="3" ry="3" style="stroke:#038048;stroke-width:1.0;"/><text fill="#000000" font-family="sans-serif" font-size="14" lengthAdjust="spacing" textLength="135" x="498.5" y="659.792">profileName : String</text><line style="stroke:#181818;stroke-width:0.5;" x1="479.5" x2="729.5" y1="667.0938" y2="667.0938"/><ellipse cx="489.5" cy="680.7422" fill="#84BE84" rx="3" ry="3" style="stroke:#038048;stroke-width:1.0;"/><text fill="#000000" font-family="sans-serif" font-size="14" lengthAdjust="spacing" textLength="226" x="498.5" y="684.0889">equals(object : Object) : boolean</text><ellipse cx="489.5" cy="697.0391" fill="#84BE84" rx="3" ry="3" style="stroke:#038048;stroke-width:1.0;"/><text fill="#000000" font-family="sans-serif" font-size="14" lengthAdjust="spacing" textLength="111" x="498.5" y="700.3857">hashCode() : int</text></g><!--class OutputProfileAssembler--><g id="elem_OutputProfileAssembler"><rect codeLine="3" fill="#F1F1F1" height="64.2969" id="OutputProfileAssembler" rx="2.5" ry="2.5" style="stroke:#181818;stroke-width:0.5;" width="432" x="233.5" y="457.2969"/><ellipse cx="363.75" cy="473.2969" fill="#ADD1B2" rx="11" ry="11" style="stroke:#181818;stroke-width:1.0;"/><path d="M366.7188,478.9375 Q366.1406,479.2344 365.5,479.375 Q364.8594,479.5313 364.1563,479.5313 Q361.6563,479.5313 360.3281,477.8906 Q359.0156,476.2344 359.0156,473.1094 Q359.0156,469.9844 360.3281,468.3281 Q361.6563,466.6719 364.1563,466.6719 Q364.8594,466.6719 365.5,466.8281 Q366.1563,466.9844 366.7188,467.2813 L366.7188,470 Q366.0938,469.4219 365.5,469.1563 Q364.9063,468.875 364.2813,468.875 Q362.9375,468.875 362.25,469.9531 Q361.5625,471.0156 361.5625,473.1094 Q361.5625,475.2031 362.25,476.2813 Q362.9375,477.3438 364.2813,477.3438 Q364.9063,477.3438 365.5,477.0781 Q366.0938,476.7969 366.7188,476.2188 L366.7188,478.9375 Z " fill="#000000"/><text fill="#000000" font-family="sans-serif" font-size="14" lengthAdjust="spacing" textLength="163" x="384.25" y="478.1436">OutputProfileAssembler</text><line style="stroke:#181818;stroke-width:0.5;" x1="234.5" x2="664.5" y1="489.2969" y2="489.2969"/><line style="stroke:#181818;stroke-width:0.5;" x1="234.5" x2="664.5" y1="497.2969" y2="497.2969"/><ellipse cx="244.5" cy="510.9453" fill="#84BE84" rx="3" ry="3" style="stroke:#038048;stroke-width:1.0;"/><text fill="#000000" font-family="sans-serif" font-size="14" lengthAdjust="spacing" text-decoration="underline" textLength="406" x="253.5" y="514.292">createOutputProfileDTO(profile : Profile) : OutputProfileDTO</text></g><!--class ProfileDataDomainAssembler--><g id="elem_ProfileDataDomainAssembler"><rect codeLine="4" fill="#F1F1F1" height="96.8906" id="ProfileDataDomainAssembler" rx="2.5" ry="2.5" style="stroke:#181818;stroke-width:0.5;" width="433" x="330" y="813.2969"/><ellipse cx="442.25" cy="829.2969" fill="#ADD1B2" rx="11" ry="11" style="stroke:#181818;stroke-width:1.0;"/><path d="M445.2188,834.9375 Q444.6406,835.2344 444,835.375 Q443.3594,835.5313 442.6563,835.5313 Q440.1563,835.5313 438.8281,833.8906 Q437.5156,832.2344 437.5156,829.1094 Q437.5156,825.9844 438.8281,824.3281 Q440.1563,822.6719 442.6563,822.6719 Q443.3594,822.6719 444,822.8281 Q444.6563,822.9844 445.2188,823.2813 L445.2188,826 Q444.5938,825.4219 444,825.1563 Q443.4063,824.875 442.7813,824.875 Q441.4375,824.875 440.75,825.9531 Q440.0625,827.0156 440.0625,829.1094 Q440.0625,831.2031 440.75,832.2813 Q441.4375,833.3438 442.7813,833.3438 Q443.4063,833.3438 444,833.0781 Q444.5938,832.7969 445.2188,832.2188 L445.2188,834.9375 Z " fill="#000000"/><text fill="#000000" font-family="sans-serif" font-size="14" lengthAdjust="spacing" textLength="200" x="462.75" y="834.1436">ProfileDataDomainAssembler</text><line style="stroke:#181818;stroke-width:0.5;" x1="331" x2="762" y1="845.2969" y2="845.2969"/><line style="stroke:#181818;stroke-width:0.5;" x1="331" x2="762" y1="853.2969" y2="853.2969"/><ellipse cx="341" cy="866.9453" fill="#84BE84" rx="3" ry="3" style="stroke:#038048;stroke-width:1.0;"/><text fill="#000000" font-family="sans-serif" font-size="14" lengthAdjust="spacing" textLength="407" x="350" y="870.292">ProfileDataDomainAssembler(profileFactory : ProfileFactory)</text><ellipse cx="341" cy="883.2422" fill="#84BE84" rx="3" ry="3" style="stroke:#038048;stroke-width:1.0;"/><text fill="#000000" font-family="sans-serif" font-size="14" lengthAdjust="spacing" textLength="229" x="350" y="886.5889">toData(profile : Profile) : ProfileJPA</text><ellipse cx="341" cy="899.5391" fill="#84BE84" rx="3" ry="3" style="stroke:#038048;stroke-width:1.0;"/><text fill="#000000" font-family="sans-serif" font-size="14" lengthAdjust="spacing" textLength="271" x="350" y="902.8857">toDomain(profileJPA : ProfileJPA) : Profile</text></g><!--class ProfileJPA--><g id="elem_ProfileJPA"><rect codeLine="4" fill="#F1F1F1" height="129.4844" id="ProfileJPA" rx="2.5" ry="2.5" style="stroke:#181818;stroke-width:0.5;" width="252" x="609.5" y="987.2969"/><ellipse cx="699.75" cy="1003.2969" fill="#ADD1B2" rx="11" ry="11" style="stroke:#181818;stroke-width:1.0;"/><path d="M702.7188,1008.9375 Q702.1406,1009.2344 701.5,1009.375 Q700.8594,1009.5313 700.1563,1009.5313 Q697.6563,1009.5313 696.3281,1007.8906 Q695.0156,1006.2344 695.0156,1003.1094 Q695.0156,999.9844 696.3281,998.3281 Q697.6563,996.6719 700.1563,996.6719 Q700.8594,996.6719 701.5,996.8281 Q702.1563,996.9844 702.7188,997.2813 L702.7188,1000 Q702.0938,999.4219 701.5,999.1563 Q700.9063,998.875 700.2813,998.875 Q698.9375,998.875 698.25,999.9531 Q697.5625,1001.0156 697.5625,1003.1094 Q697.5625,1005.2031 698.25,1006.2813 Q698.9375,1007.3438 700.2813,1007.3438 Q700.9063,1007.3438 701.5,1007.0781 Q702.0938,1006.7969 702.7188,1006.2188 L702.7188,1008.9375 Z " fill="#000000"/><text fill="#000000" font-family="sans-serif" font-size="14" lengthAdjust="spacing" textLength="63" x="720.25" y="1008.1436">ProfileJPA</text><line style="stroke:#181818;stroke-width:0.5;" x1="610.5" x2="860.5" y1="1019.2969" y2="1019.2969"/><rect fill="none" height="6" style="stroke:#C82930;stroke-width:1.0;" width="6" x="617.5" y="1029.9453"/><text fill="#000000" font-family="sans-serif" font-size="14" lengthAdjust="spacing" textLength="135" x="629.5" y="1036.292">profileName : String</text><line style="stroke:#181818;stroke-width:0.5;" x1="610.5" x2="860.5" y1="1043.5938" y2="1043.5938"/><ellipse cx="620.5" cy="1057.2422" fill="#84BE84" rx="3" ry="3" style="stroke:#038048;stroke-width:1.0;"/><text fill="#000000" font-family="sans-serif" font-size="14" lengthAdjust="spacing" textLength="208" x="629.5" y="1060.5889">ProfileJPA(profileName : String)</text><ellipse cx="620.5" cy="1073.5391" fill="#84BE84" rx="3" ry="3" style="stroke:#038048;stroke-width:1.0;"/><text fill="#000000" font-family="sans-serif" font-size="14" lengthAdjust="spacing" textLength="168" x="629.5" y="1076.8857">getProfileName() : String</text><ellipse cx="620.5" cy="1089.8359" fill="#84BE84" rx="3" ry="3" style="stroke:#038048;stroke-width:1.0;"/><text fill="#000000" font-family="sans-serif" font-size="14" lengthAdjust="spacing" textLength="226" x="629.5" y="1093.1826">equals(object : Object) : boolean</text><ellipse cx="620.5" cy="1106.1328" fill="#84BE84" rx="3" ry="3" style="stroke:#038048;stroke-width:1.0;"/><text fill="#000000" font-family="sans-serif" font-size="14" lengthAdjust="spacing" textLength="111" x="629.5" y="1109.4795">hashCode() : int</text></g><!--class CrudRepository--><g id="elem_CrudRepository"><rect codeLine="1" fill="#F1F1F1" height="56.2656" id="CrudRepository" rx="2.5" ry="2.5" style="stroke:#181818;stroke-width:0.5;" width="139" x="897" y="1023.7969"/><ellipse cx="912" cy="1043.9297" fill="#B4A7E5" rx="11" ry="11" style="stroke:#181818;stroke-width:1.0;"/><path d="M907.9219,1039.6953 L907.9219,1037.5391 L915.3125,1037.5391 L915.3125,1039.6953 L912.8438,1039.6953 L912.8438,1047.7734 L915.3125,1047.7734 L915.3125,1049.9297 L907.9219,1049.9297 L907.9219,1047.7734 L910.3906,1047.7734 L910.3906,1039.6953 L907.9219,1039.6953 Z " fill="#000000"/><text fill="#000000" font-family="sans-serif" font-size="12" font-style="italic" lengthAdjust="spacing" textLength="80" x="939.5" y="1039.9355">&#171;Repository&#187;</text><text fill="#000000" font-family="sans-serif" font-size="14" font-style="italic" lengthAdjust="spacing" textLength="107" x="926" y="1055.7607">CrudRepository</text><line style="stroke:#181818;stroke-width:0.5;" x1="898" x2="1035" y1="1064.0625" y2="1064.0625"/><line style="stroke:#181818;stroke-width:0.5;" x1="898" x2="1035" y1="1072.0625" y2="1072.0625"/></g><!--link ProfileController to ProfileService--><g id="link_ProfileController_ProfileService"><path codeLine="25" d="M482.5,149.3969 C482.5,173.4769 482.5,202.5569 482.5,228.8669 " fill="none" id="ProfileController-to-ProfileService" style="stroke:#181818;stroke-width:1.0;"/><polygon fill="#181818" points="482.5,234.0869,486.5,225.0869,482.5,229.0869,478.5,225.0869,482.5,234.0869" style="stroke:#181818;stroke-width:1.0;"/><text fill="#000000" font-family="sans-serif" font-size="13" lengthAdjust="spacing" textLength="86" x="483.5" y="192.3638">profileService</text></g><!--link ProfileController to NewProfileDTO--><g id="link_ProfileController_NewProfileDTO"><path codeLine="26" d="M380.25,149.3269 C309.31,185.0769 227.5,226.2969 227.5,226.2969 C227.5,226.2969 193.25,248.1669 161.5,268.4469 " fill="none" id="ProfileController-to-NewProfileDTO" style="stroke:#181818;stroke-width:1.0;stroke-dasharray:7.0,7.0;"/><polygon fill="#181818" points="157.25,271.1669,166.9895,269.7032,161.4665,268.4797,162.6901,262.9568,157.25,271.1669" style="stroke:#181818;stroke-width:1.0;"/></g><!--link ProfileController to OutputProfileDTO--><g id="link_ProfileController_OutputProfileDTO"><path codeLine="27" d="M584.75,149.3269 C655.69,185.0769 737.5,226.2969 737.5,226.2969 C737.5,226.2969 782.5,410.2969 782.5,410.2969 C782.5,410.2969 782.5,427.2969 782.5,427.2969 C782.5,427.2969 691.5,552.2969 691.5,552.2969 C691.5,552.2969 669.03,579.6769 646.93,606.6069 " fill="none" id="ProfileController-to-OutputProfileDTO" style="stroke:#181818;stroke-width:1.0;stroke-dasharray:7.0,7.0;"/><polygon fill="#181818" points="643.67,610.5669,652.4676,606.1395,646.8385,606.699,646.279,601.0699,643.67,610.5669" style="stroke:#181818;stroke-width:1.0;"/></g><!--link ProfileService to OutputProfileAssembler--><g id="link_ProfileService_OutputProfileAssembler"><path codeLine="28" d="M470.26,372.5469 C465.42,399.5569 460.05,429.4869 455.98,452.1469 " fill="none" id="ProfileService-to-OutputProfileAssembler" style="stroke:#181818;stroke-width:1.0;stroke-dasharray:7.0,7.0;"/><polygon fill="#181818" points="455.08,457.1569,460.6088,449.0063,455.9644,452.2357,452.735,447.5913,455.08,457.1569" style="stroke:#181818;stroke-width:1.0;"/></g><!--link ProfileService to OutputProfileDTO--><g id="link_ProfileService_OutputProfileDTO"><path codeLine="29" d="M572.12,372.5169 C625.72,413.3169 683.5,457.2969 683.5,457.2969 C683.5,457.2969 683.5,521.2969 683.5,521.2969 C683.5,521.2969 656.93,567.3769 634.61,606.0869 " fill="none" id="ProfileService-to-OutputProfileDTO" style="stroke:#181818;stroke-width:1.0;stroke-dasharray:7.0,7.0;"/><polygon fill="#181818" points="631.91,610.7669,639.875,604.9739,634.4107,606.4371,632.9474,600.9728,631.91,610.7669" style="stroke:#181818;stroke-width:1.0;"/></g><!--link ProfileService to ProfileRepository--><g id="link_ProfileService_ProfileRepository"><path codeLine="31" d="M652.44,372.4169 C727.29,402.4269 811.23,436.0769 869.29,459.3469 " fill="none" id="ProfileService-to-ProfileRepository" style="stroke:#181818;stroke-width:1.0;"/><polygon fill="#181818" points="874.12,461.2869,867.2493,454.2305,869.4776,459.4299,864.2781,461.6583,874.12,461.2869" style="stroke:#181818;stroke-width:1.0;"/><text fill="#000000" font-family="sans-serif" font-size="13" lengthAdjust="spacing" textLength="106" x="780.5" y="423.3638">profileRepository</text></g><!--link ProfileService to ProfileFactory--><g id="link_ProfileService_ProfileFactory"><path codeLine="32" d="M363.45,372.5169 C292.25,413.3169 215.5,457.2969 215.5,457.2969 C215.5,457.2969 180.5,488.2969 180.5,488.2969 C180.5,488.2969 180.5,488.2969 180.5,862.7969 C180.5,862.7969 250.56,955.5469 292.26,1010.7569 " fill="none" id="ProfileService-to-ProfileFactory" style="stroke:#181818;stroke-width:1.0;"/><polygon fill="#181818" points="295.46,1014.9969,293.2216,1005.4058,292.444,1011.0089,286.8409,1010.2313,295.46,1014.9969" style="stroke:#181818;stroke-width:1.0;"/><text fill="#000000" font-family="sans-serif" font-size="13" lengthAdjust="spacing" textLength="86" x="181.5" y="663.8638">profileFactory</text></g><!--link ProfileService to Profile--><g id="link_ProfileService_Profile"><path codeLine="33" d="M338.11,372.4169 C227.07,424.8069 92.5,488.2969 92.5,488.2969 C92.5,488.2969 92.5,488.2969 92.5,1214.7969 C92.5,1214.7969 127.5,1250.2969 127.5,1250.2969 C127.5,1250.2969 254.32,1297.2969 358.86,1336.0269 " fill="none" id="ProfileService-to-Profile" style="stroke:#181818;stroke-width:1.0;stroke-dasharray:7.0,7.0;"/><polygon fill="#181818" points="363.82,1337.8669,356.7722,1330.9873,359.1319,1336.1284,353.9908,1338.4881,363.82,1337.8669" style="stroke:#181818;stroke-width:1.0;"/></g><!--link ProfileDataDomainAssembler to ProfileJPA--><g id="link_ProfileDataDomainAssembler_ProfileJPA"><path codeLine="35" d="M594.68,910.7269 C616.88,932.8069 643.62,959.4069 667.8,983.4569 " fill="none" id="ProfileDataDomainAssembler-to-ProfileJPA" style="stroke:#181818;stroke-width:1.0;"/><polygon fill="#181818" points="671.35,986.9869,667.7774,977.8088,667.8002,983.4656,662.1434,983.4884,671.35,986.9869" style="stroke:#181818;stroke-width:1.0;"/></g><!--link ProfileDataDomainAssembler to Profile--><g id="link_ProfileDataDomainAssembler_Profile"><path codeLine="36" d="M542.82,910.3169 C534.81,1013.7869 516.5,1250.2969 516.5,1250.2969 C516.5,1250.2969 512.25,1276.5569 507.49,1305.9969 " fill="none" id="ProfileDataDomainAssembler-to-Profile" style="stroke:#181818;stroke-width:1.0;stroke-dasharray:7.0,7.0;"/><polygon fill="#181818" points="506.66,1311.1369,512.0503,1302.894,507.4611,1306.2015,504.1537,1301.6123,506.66,1311.1369" style="stroke:#181818;stroke-width:1.0;"/></g><!--link ProfileDataDomainAssembler to ProfileFactory--><g id="link_ProfileDataDomainAssembler_ProfileFactory"><path codeLine="37" d="M480.26,910.3369 C457.9,926.3769 438.5,940.2969 438.5,940.2969 C438.5,940.2969 397.18,979.6569 363.86,1011.3969 " fill="none" id="ProfileDataDomainAssembler-to-ProfileFactory" style="stroke:#181818;stroke-width:1.0;"/><polygon fill="#181818" points="359.84,1015.2269,369.1152,1011.9147,363.46,1011.7779,363.5968,1006.1227,359.84,1015.2269" style="stroke:#181818;stroke-width:1.0;"/><text fill="#000000" font-family="sans-serif" font-size="13" lengthAdjust="spacing" textLength="86" x="439.5" y="953.3638">profileFactory</text></g><!--link OutputProfileAssembler to OutputProfileDTO--><g id="link_OutputProfileAssembler_OutputProfileDTO"><path codeLine="38" d="M478.29,521.5069 C500.41,545.4769 531.43,579.0969 557.19,607.0169 " fill="none" id="OutputProfileAssembler-to-OutputProfileDTO" style="stroke:#181818;stroke-width:1.0;"/><polygon fill="#181818" points="560.62,610.7369,557.4773,601.4029,557.2375,607.0547,551.5857,606.8149,560.62,610.7369" style="stroke:#181818;stroke-width:1.0;"/></g><!--reverse link Repository to ProfileRepository--><g id="link_Repository_ProfileRepository"><path codeLine="40" d="M956.77,400.4869 C952.89,422.8269 949.06,444.8369 946.21,461.2269 " fill="none" id="Repository-backto-ProfileRepository" style="stroke:#181818;stroke-width:1.0;"/><polygon fill="none" points="949.93,398.9669,960.25,380.4669,963.72,401.3669,949.93,398.9669" style="stroke:#181818;stroke-width:1.0;"/></g><!--reverse link ProfileRepository to ProfileRepositoryPersistence--><g id="link_ProfileRepository_ProfileRepositoryPersistence"><path codeLine="41" d="M941.5,537.6969 C941.5,551.4769 941.5,566.8969 941.5,581.9869 " fill="none" id="ProfileRepository-backto-ProfileRepositoryPersistence" style="stroke:#181818;stroke-width:1.0;stroke-dasharray:7.0,7.0;"/><polygon fill="none" points="934.5,537.6669,941.5,517.6669,948.5,537.6669,934.5,537.6669" style="stroke:#181818;stroke-width:1.0;"/></g><!--link ProfileRepositoryJPA to CrudRepository--><g id="link_ProfileRepositoryJPA_CrudRepository"><path codeLine="42" d="M956.24,890.1369 C958.14,919.8069 961.2,967.7369 963.48,1003.5369 " fill="none" id="ProfileRepositoryJPA-to-CrudRepository" style="stroke:#181818;stroke-width:1.0;"/><polygon fill="none" points="970.48,1003.3269,964.77,1023.7369,956.51,1004.2169,970.48,1003.3269" style="stroke:#181818;stroke-width:1.0;"/></g><!--link ProfileRepositoryPersistence to Profile--><g id="link_ProfileRepositoryPersistence_Profile"><path codeLine="43" d="M1034.22,736.4869 C1054.73,753.3369 1070.5,766.2969 1070.5,766.2969 C1070.5,766.2969 1092.5,860.7969 1092.5,860.7969 C1092.5,860.7969 1092.5,860.7969 1092.5,1214.7969 C1092.5,1214.7969 806.73,1296.7469 630.29,1347.3569 " fill="none" id="ProfileRepositoryPersistence-to-Profile" style="stroke:#181818;stroke-width:1.0;stroke-dasharray:7.0,7.0;"/><polygon fill="#181818" points="625.36,1348.7669,635.1126,1350.1405,630.1676,1347.3933,632.9148,1342.4483,625.36,1348.7669" style="stroke:#181818;stroke-width:1.0;"/></g><!--link ProfileRepositoryPersistence to ProfileJPA--><g id="link_ProfileRepositoryPersistence_ProfileJPA"><path codeLine="44" d="M897.26,736.3469 C874.92,774.7469 852.5,813.2969 852.5,813.2969 C852.5,813.2969 803.68,912.3969 769.11,982.5769 " fill="none" id="ProfileRepositoryPersistence-to-ProfileJPA" style="stroke:#181818;stroke-width:1.0;stroke-dasharray:7.0,7.0;"/><polygon fill="#181818" points="766.85,987.1469,774.4044,980.8277,769.0517,982.6577,767.2217,977.305,766.85,987.1469" style="stroke:#181818;stroke-width:1.0;"/></g><!--link ProfileRepositoryPersistence to ProfileDataDomainAssembler--><g id="link_ProfileRepositoryPersistence_ProfileDataDomainAssembler"><path codeLine="46" d="M765.97,729.4169 C755.14,733.6769 748.5,736.2969 748.5,736.2969 C748.5,736.2969 600.5,766.2969 600.5,766.2969 C600.5,766.2969 588.73,786.8969 576.18,808.8669 " fill="none" id="ProfileRepositoryPersistence-to-ProfileDataDomainAssembler" style="stroke:#181818;stroke-width:1.0;"/><polygon fill="#181818" points="573.66,813.2669,581.6023,807.4429,576.1438,808.9274,574.6592,803.4688,573.66,813.2669" style="stroke:#181818;stroke-width:1.0;"/><text fill="#000000" font-family="sans-serif" font-size="13" lengthAdjust="spacing" textLength="188" x="601.5" y="779.3638">profileDomainDataAssembler</text></g><!--link ProfileRepositoryPersistence to ProfileRepositoryJPA--><g id="link_ProfileRepositoryPersistence_ProfileRepositoryJPA"><path codeLine="47" d="M939.34,736.4869 C938.87,753.3369 938.5,766.2969 938.5,766.2969 C938.5,766.2969 938.5,783.2969 938.5,783.2969 C938.5,783.2969 943.46,807.3369 947.86,828.6369 " fill="none" id="ProfileRepositoryPersistence-to-ProfileRepositoryJPA" style="stroke:#181818;stroke-width:1.0;"/><polygon fill="#181818" points="948.9,833.6869,950.9927,824.0629,947.8865,828.7907,943.1587,825.6845,948.9,833.6869" style="stroke:#181818;stroke-width:1.0;"/><text fill="#000000" font-family="sans-serif" font-size="13" lengthAdjust="spacing" textLength="126" x="939.5" y="779.3638">profileRepositoryJPA</text></g><!--reverse link ProfileFactory to ProfileFactoryImplementation--><g id="link_ProfileFactory_ProfileFactoryImplementation"><path codeLine="49" d="M322.5,1108.5569 C322.5,1131.3069 322.5,1156.9469 322.5,1177.1069 " fill="none" id="ProfileFactory-backto-ProfileFactoryImplementation" style="stroke:#181818;stroke-width:1.0;stroke-dasharray:7.0,7.0;"/><polygon fill="none" points="315.5,1108.3069,322.5,1088.3069,329.5,1108.3069,315.5,1108.3069" style="stroke:#181818;stroke-width:1.0;"/></g><!--link Profile to ProfileName--><g id="link_Profile_ProfileName"><path codeLine="50" d="M494.5,1463.5669 C494.5,1486.4869 494.5,1511.7569 494.5,1534.9969 " fill="none" id="Profile-to-ProfileName" style="stroke:#181818;stroke-width:1.0;"/><polygon fill="#181818" points="494.5,1540.2269,498.5,1531.2269,494.5,1535.2269,490.5,1531.2269,494.5,1540.2269" style="stroke:#181818;stroke-width:1.0;"/><text fill="#000000" font-family="sans-serif" font-size="13" lengthAdjust="spacing" textLength="78" x="495.5" y="1506.3638">profileName</text></g><!--link ProfileFactoryImplementation to Profile--><g id="link_ProfileFactoryImplementation_Profile"><path codeLine="51" d="M358.14,1250.3269 C374.74,1266.8869 395.22,1287.2969 415.2,1307.2269 " fill="none" id="ProfileFactoryImplementation-to-Profile" style="stroke:#181818;stroke-width:1.0;"/><polygon fill="#181818" points="419.19,1311.2069,415.6545,1302.0145,415.6545,1307.6713,409.9976,1307.6713,419.19,1311.2069" style="stroke:#181818;stroke-width:1.0;"/></g><!--link ProfileRepositoryJPA to ProfileJPA--><g id="link_ProfileRepositoryJPA_ProfileJPA"><path codeLine="52" d="M922.66,890.1369 C894.15,914.5969 851.19,951.4769 813.62,983.7369 " fill="none" id="ProfileRepositoryJPA-to-ProfileJPA" style="stroke:#181818;stroke-width:1.0;stroke-dasharray:7.0,7.0;"/><polygon fill="#181818" points="809.53,987.2469,818.9665,984.4268,813.3263,983.9929,813.7601,978.3527,809.53,987.2469" style="stroke:#181818;stroke-width:1.0;"/></g><!--SRC=[lLN1Ri8m3BtdAxpJBcjXrmaXeQ59x01eR6UKjHxAbYPLaeAG-FYrewLf6me7CgbI5Sj-ptvs7Ft3H4eLJO0pWMQV8gIIxui38OOPZl2n6WuV8O29XacSCC6qKTH8zG0ps55Xm4Y855A3a6bKa2hvnJXgGkwOY7WM8uJXuFZ9BIhA-Jht-SR836BKR2C64QTQhsD6DtacnnFgwh-EutYmF88-Is6Kv1nLc6O9loN377SboVHzSNFq4dg5QiiYl3dy6wPIixmfUr-P_oV34fNEfmo51wKwPA_BYI-I5nhv5Ao4doKfnmI5eOP9uOlC5-wS9hV7NcGcpOp7wzmWcEJcvDF7Jgega0bbOaeDzKxbupOygonkhmz2xeE0TBOw1C4OchiIdgeNfJGuei9m38tzVSQdFHUaHTNnEUbzqRD0QpjPnTJrr_NKjfx0yfBNKQN1bL1fEkLHJCnnTavrsD1vh_iyRSJh0C_cwjRqBxGheYNLw104NGL9LzFH8GoXxnqXhhsV9t0OGtCyIH-AIvEBZeNC_SwMX2w5Jt8wzi3LmCt27JDefrarqfRL-TfK0JPJiT5hWk94-Y3iK7UNMbh-0W00]--></g></svg>