<?xml version="1.0" encoding="us-ascii" standalone="no"?><svg xmlns="http://www.w3.org/2000/svg" xmlns:xlink="http://www.w3.org/1999/xlink" contentStyleType="text/css" height="557px" preserveAspectRatio="none" style="width:1175px;height:557px;background:#FFFFFF;" version="1.1" viewBox="0 0 1175 557" width="1175px" zoomAndPan="magnify"><defs/><g><text fill="#000000" font-family="sans-serif" font-size="14" font-weight="bold" lengthAdjust="spacing" textLength="721" x="223" y="32.9951">US033 - As Project Member, I want to update the status (i.e.: the Scrum Board category) of</text><text fill="#000000" font-family="sans-serif" font-size="14" font-weight="bold" lengthAdjust="spacing" textLength="598" x="287" y="49.292">a user story in the scope of the current/active sprint backlog in the web UI.</text><rect fill="#F1F1F1" height="36.2969" rx="12.5" ry="12.5" style="stroke:#181818;stroke-width:1.5;" width="106.3333" x="533.3333" y="63.5938"/><path d="M549,77.0573 C546.4217,77.0573 544.3333,79.1456 544.3333,81.724 C544.3333,84.3023 546.4217,86.3906 549,86.3906 C551.5783,86.3906 553.6667,84.3023 553.6667,81.724 C553.6667,79.1456 551.5783,77.0573 549,77.0573 M549,78.224 C549.385,78.224 549.7467,78.329 550.0967,78.4456 C549.8517,78.679 549.5717,78.889 549.6183,79.099 C549.665,79.309 550.4233,79.2506 550.4233,79.6823 C550.4233,79.9973 549.9333,80.0906 550.2717,80.4523 C550.68,80.8606 549.525,81.5956 549.5017,82.1323 C549.4667,83.1006 550.4817,83.264 551.2867,83.264 C551.7767,83.264 551.905,83.4973 551.87,83.7773 C551.24,84.6756 550.1667,85.2356 548.9883,85.2356 C548.545,85.2356 548.1367,85.1306 547.7517,84.979 C548.0083,84.4656 547.425,83.4506 546.8767,83.124 C546.6083,82.8556 546.0367,82.9606 545.71,82.8323 C545.605,82.5173 545.5,82.2023 545.4883,81.8523 C545.5233,81.794 545.5817,81.7473 545.675,81.7473 C545.8967,81.7473 546.2,82.1906 546.3633,82.144 C546.5733,82.0973 545.5,80.6156 546.0017,80.324 C546.235,80.184 546.7017,80.779 546.55,80.1373 C546.41,79.5423 546.97,79.8106 547.32,79.659 C547.6233,79.5306 547.845,79.1806 547.4717,78.9706 C547.4017,78.9356 547.32,78.854 547.215,78.749 C547.74,78.434 548.3467,78.2356 549,78.2356 M551.695,79.4956 C551.905,79.7523 552.0683,80.0323 552.2083,80.3356 C552.2083,80.3473 552.2083,80.359 552.2083,80.3706 C552.1617,80.4523 552.08,80.499 551.9517,80.6273 C551.625,80.954 551.5783,80.3823 551.4383,80.2656 C551.2867,80.1256 550.7383,80.289 550.6683,80.114 C550.5867,79.904 551.2517,79.624 551.695,79.4956 " fill="#000000" style="stroke:;stroke-width:0.0;stroke-dasharray:;"/><text fill="#000000" font-family="sans-serif" font-size="14" lengthAdjust="spacing" textLength="75" x="554.6667" y="86.5889">Application</text><rect fill="#F1F1F1" height="36.2969" rx="12.5" ry="12.5" style="stroke:#181818;stroke-width:1.5;" width="67" x="24" y="124.8906"/><text fill="#000000" font-family="sans-serif" font-size="14" lengthAdjust="spacing" textLength="47" x="34" y="147.8857">Navbar</text><rect fill="#F1F1F1" height="36.2969" rx="12.5" ry="12.5" style="stroke:#181818;stroke-width:1.5;" width="75" x="20" y="186.1875"/><text fill="#000000" font-family="sans-serif" font-size="14" lengthAdjust="spacing" textLength="55" x="30" y="209.1826">NavItem</text><path d="M57.5,161.1875 L57.5,164.1875 C57.5,171.1875 57.5,176.1875 57.5,183.1875 L57.5,186.1875 " fill="none" style="stroke:#181818;stroke-width:1.0;"/><path d="M586.5,99.8906 L586.5,102.8906 C586.5,109.8906 57.5,114.8906 57.5,121.8906 L57.5,124.8906 " fill="none" style="stroke:#181818;stroke-width:1.0;"/><rect fill="#F1F1F1" height="36.2969" rx="12.5" ry="12.5" style="stroke:#181818;stroke-width:1.5;" width="94" x="587" y="124.8906"/><text fill="#000000" font-family="sans-serif" font-size="14" lengthAdjust="spacing" textLength="74" x="597" y="147.8857">MainRoute</text><rect fill="#F1F1F1" height="36.2969" rx="12.5" ry="12.5" style="stroke:#181818;stroke-width:1.5;" width="76" x="596" y="186.1875"/><text fill="#000000" font-family="sans-serif" font-size="14" lengthAdjust="spacing" textLength="56" x="606" y="209.1826">Projects</text><rect fill="#F1F1F1" height="36.2969" rx="12.5" ry="12.5" style="stroke:#181818;stroke-width:1.5;" width="103" x="582.5" y="247.4844"/><text fill="#000000" font-family="sans-serif" font-size="14" lengthAdjust="spacing" textLength="83" x="592.5" y="270.4795">ProjectPage</text><rect fill="#F1F1F1" height="52.5938" rx="12.5" ry="12.5" style="stroke:#181818;stroke-width:1.5;" width="141" x="115" y="308.7813"/><text fill="#000000" font-family="sans-serif" font-size="14" lengthAdjust="spacing" textLength="121" x="125" y="331.7764">ProjectPageTable</text><text fill="#000000" font-family="sans-serif" font-size="14" lengthAdjust="spacing" textLength="87" x="125" y="348.0732">(Project Info)</text><path d="M634,283.7813 L634,286.7813 C634,293.7813 185.5,298.7813 185.5,305.7813 L185.5,308.7813 " fill="none" style="stroke:#181818;stroke-width:1.0;"/><rect fill="#F1F1F1" height="52.5938" rx="12.5" ry="12.5" style="stroke:#181818;stroke-width:1.5;" width="67" x="276" y="308.7813"/><text fill="#000000" font-family="sans-serif" font-size="14" lengthAdjust="spacing" textLength="47" x="286" y="331.7764">Button</text><text fill="#000000" font-family="sans-serif" font-size="14" lengthAdjust="spacing" textLength="44" x="286" y="348.0732">(Back)</text><path d="M634,283.7813 L634,286.7813 C634,293.7813 309.5,298.7813 309.5,305.7813 L309.5,308.7813 " fill="none" style="stroke:#181818;stroke-width:1.0;"/><rect fill="#F1F1F1" height="52.5938" rx="12.5" ry="12.5" style="stroke:#181818;stroke-width:1.5;" width="143" x="363" y="308.7813"/><text fill="#000000" font-family="sans-serif" font-size="14" lengthAdjust="spacing" textLength="47" x="373" y="331.7764">Button</text><text fill="#000000" font-family="sans-serif" font-size="14" lengthAdjust="spacing" textLength="123" x="373" y="348.0732">(Product Backlog)</text><path d="M634,283.7813 L634,286.7813 C634,293.7813 434.5,298.7813 434.5,305.7813 L434.5,308.7813 " fill="none" style="stroke:#181818;stroke-width:1.0;"/><rect fill="#F1F1F1" height="52.5938" rx="12.5" ry="12.5" style="stroke:#181818;stroke-width:1.5;" width="105" x="526" y="308.7813"/><text fill="#000000" font-family="sans-serif" font-size="14" lengthAdjust="spacing" textLength="47" x="536" y="331.7764">Button</text><text fill="#000000" font-family="sans-serif" font-size="14" lengthAdjust="spacing" textLength="85" x="536" y="348.0732">(Resources)</text><path d="M634,283.7813 L634,286.7813 C634,293.7813 578.5,298.7813 578.5,305.7813 L578.5,308.7813 " fill="none" style="stroke:#181818;stroke-width:1.0;"/><rect fill="#F1F1F1" height="52.5938" rx="12.5" ry="12.5" style="stroke:#181818;stroke-width:1.5;" width="78" x="651" y="308.7813"/><text fill="#000000" font-family="sans-serif" font-size="14" lengthAdjust="spacing" textLength="47" x="661" y="331.7764">Button</text><text fill="#000000" font-family="sans-serif" font-size="14" lengthAdjust="spacing" textLength="58" x="661" y="348.0732">(Sprints)</text><rect fill="#F1F1F1" height="36.2969" rx="12.5" ry="12.5" style="stroke:#181818;stroke-width:1.5;" width="99" x="640.5" y="386.375"/><text fill="#000000" font-family="sans-serif" font-size="14" lengthAdjust="spacing" textLength="79" x="650.5" y="409.3701">Sprint Page</text><rect fill="#F1F1F1" height="52.5938" rx="12.5" ry="12.5" style="stroke:#181818;stroke-width:1.5;" width="120" x="227" y="447.6719"/><text fill="#000000" font-family="sans-serif" font-size="14" lengthAdjust="spacing" textLength="47" x="237" y="470.667">Button</text><text fill="#000000" font-family="sans-serif" font-size="14" lengthAdjust="spacing" textLength="100" x="237" y="486.9639">(Create Sprint)</text><path d="M690,422.6719 L690,425.6719 C690,432.6719 287,437.6719 287,444.6719 L287,447.6719 " fill="none" style="stroke:#181818;stroke-width:1.0;"/><rect fill="#F1F1F1" height="52.5938" rx="12.5" ry="12.5" style="stroke:#181818;stroke-width:1.5;" width="97" x="367" y="447.6719"/><text fill="#000000" font-family="sans-serif" font-size="14" lengthAdjust="spacing" textLength="47" x="377" y="470.667">Button</text><text fill="#000000" font-family="sans-serif" font-size="14" lengthAdjust="spacing" textLength="77" x="377" y="486.9639">(All Sprints)</text><path d="M690,422.6719 L690,425.6719 C690,432.6719 415.5,437.6719 415.5,444.6719 L415.5,447.6719 " fill="none" style="stroke:#181818;stroke-width:1.0;"/><rect fill="#F1F1F1" height="36.2969" rx="12.5" ry="12.5" style="stroke:#181818;stroke-width:1.5;" width="160" x="484" y="447.6719"/><text fill="#000000" font-family="sans-serif" font-size="14" lengthAdjust="spacing" textLength="140" x="494" y="470.667">CurrentlyOpenSprint</text><path d="M690,422.6719 L690,425.6719 C690,432.6719 564,437.6719 564,444.6719 L564,447.6719 " fill="none" style="stroke:#181818;stroke-width:1.0;"/><rect fill="#F1F1F1" height="52.5938" rx="12.5" ry="12.5" style="stroke:#181818;stroke-width:1.5;" width="113" x="664" y="447.6719"/><text fill="#000000" font-family="sans-serif" font-size="14" lengthAdjust="spacing" textLength="47" x="674" y="470.667">Button</text><text fill="#000000" font-family="sans-serif" font-size="14" lengthAdjust="spacing" textLength="93" x="674" y="486.9639">(Close Sprint)</text><path d="M690,422.6719 L690,425.6719 C690,432.6719 720.5,437.6719 720.5,444.6719 L720.5,447.6719 " fill="none" style="stroke:#181818;stroke-width:1.0;"/><rect fill="#F1F1F1" height="52.5938" rx="12.5" ry="12.5" style="stroke:#181818;stroke-width:1.5;" width="132" x="797" y="447.6719"/><text fill="#000000" font-family="sans-serif" font-size="14" lengthAdjust="spacing" textLength="47" x="807" y="470.667">Button</text><text fill="#000000" font-family="sans-serif" font-size="14" lengthAdjust="spacing" textLength="112" x="807" y="486.9639">(Add User Story)</text><path d="M690,422.6719 L690,425.6719 C690,432.6719 863,437.6719 863,444.6719 L863,447.6719 " fill="none" style="stroke:#181818;stroke-width:1.0;"/><rect fill="#F1F1F1" height="52.5938" rx="12.5" ry="12.5" style="stroke:#181818;stroke-width:1.5;" width="67" x="949" y="447.6719"/><text fill="#000000" font-family="sans-serif" font-size="14" lengthAdjust="spacing" textLength="47" x="959" y="470.667">Button</text><text fill="#000000" font-family="sans-serif" font-size="14" lengthAdjust="spacing" textLength="44" x="959" y="486.9639">(Back)</text><path d="M690,422.6719 L690,425.6719 C690,432.6719 982.5,437.6719 982.5,444.6719 L982.5,447.6719 " fill="none" style="stroke:#181818;stroke-width:1.0;"/><rect fill="#F1F1F1" height="36.2969" rx="12.5" ry="12.5" style="stroke:#181818;stroke-width:1.5;" width="105" x="1042" y="447.6719"/><text fill="#000000" font-family="sans-serif" font-size="14" lengthAdjust="spacing" textLength="85" x="1052" y="470.667">ScrumBoard</text><rect fill="#F1F1F1" height="36.2969" rx="12.5" ry="12.5" style="stroke:#181818;stroke-width:1.5;" width="117" x="1036" y="508.9688"/><text fill="#000000" font-family="sans-serif" font-size="14" lengthAdjust="spacing" textLength="97" x="1046" y="531.9639">UserStory Box</text><path d="M1094.5,483.9688 L1094.5,486.9688 C1094.5,493.9688 1094.5,498.9688 1094.5,505.9688 L1094.5,508.9688 " fill="none" style="stroke:#181818;stroke-width:1.0;"/><path d="M690,422.6719 L690,425.6719 C690,432.6719 1094.5,437.6719 1094.5,444.6719 L1094.5,447.6719 " fill="none" style="stroke:#181818;stroke-width:1.0;"/><path d="M690,361.375 L690,364.375 C690,371.375 690,376.375 690,383.375 L690,386.375 " fill="none" style="stroke:#181818;stroke-width:1.0;"/><path d="M634,283.7813 L634,286.7813 C634,293.7813 690,298.7813 690,305.7813 L690,308.7813 " fill="none" style="stroke:#181818;stroke-width:1.0;"/><path d="M634,222.4844 L634,225.4844 C634,232.4844 634,237.4844 634,244.4844 L634,247.4844 " fill="none" style="stroke:#181818;stroke-width:1.0;"/><path d="M634,161.1875 L634,164.1875 C634,171.1875 634,176.1875 634,183.1875 L634,186.1875 " fill="none" style="stroke:#181818;stroke-width:1.0;"/><path d="M586.5,99.8906 L586.5,102.8906 C586.5,109.8906 634,114.8906 634,121.8906 L634,124.8906 " fill="none" style="stroke:#181818;stroke-width:1.0;"/><!--SRC=[xLHDRzf04BtlhvXJ2rOn4A8sjQgAZwGL55g48RtaihO7i-rwrrhlakRVTzQ69fIezqgvUTwRDpiVJnvMbXjR29KLl6IlTzQMLTJjbf8hwmePfhhe7jXE9dXkUC6O5LOYREBUO00T65MmDFe7fXOMM2Heti0KxaaFLeChCsuHx0w1NhAkWfO8COng94wDAs2ikSaWfRHScuSsw2tSAGwkGaCQWa2efa2gI_Iq3r9d32hRvQaLU-9A8-Z5XAS_fSwFYdjCO3CDcTMbRoRHrke2Cc6eMQ4LOm5yU9LBdU37KLbAGKruE0ZWAzydtD1N_JcrM7XqmOLQQMUn9WvJLpxu4orvNhEdo9ed4kzKwxYegThgzY5jxAWhHUIOcZy3IP4vKeoRoSxu5LRQcHIhKuPMs8hhdHo909eO7ZjyMcTYq1-goMcVyoCfuQ-20KoQ8yY7RoMgXdscijJLlmfd6MpyhMD_wsSIdgp53-4zKrlc20Mrl5QJbtunneP8XZrOcWrF7FxYtHVl_Z_UNVhVy6OnXpsQYguB_V2YTp481wtrpj553VJUG_zTDEX5_IluVhC6JxTPw_Do3irkoJ6LDI9ntXrjDkDx3Ykdh2Wm0Z_wxFhB4O0RjHT6guBsmcQtYyU4jvUTiR0Gew5Eu7R1hd7BdRIaI7KcL1x1PlsfSyNcNEMEZXG1AZRHLDSy41V_1W00]--></g></svg>