<?xml version="1.0" encoding="us-ascii" standalone="no"?><svg xmlns="http://www.w3.org/2000/svg" xmlns:xlink="http://www.w3.org/1999/xlink" contentStyleType="text/css" height="989px" preserveAspectRatio="none" style="width:2301px;height:989px;background:#FFFFFF;" version="1.1" viewBox="0 0 2301 989" width="2301px" zoomAndPan="magnify"><defs/><g><text fill="#000000" font-family="sans-serif" font-size="14" font-weight="bold" lengthAdjust="spacing" textLength="440" x="929.75" y="27.9951">US001 - As Administrator, I want to create user profiles</text><rect fill="#FFFFFF" height="733.8984" style="stroke:#181818;stroke-width:1.0;" width="10" x="304" y="153.6172"/><rect fill="#FFFFFF" height="675.6328" style="stroke:#181818;stroke-width:1.0;" width="10" x="527" y="182.75"/><rect fill="#FFFFFF" height="617.3672" style="stroke:#181818;stroke-width:1.0;" width="10" x="750" y="211.8828"/><rect fill="#FFFFFF" height="29.1328" style="stroke:#181818;stroke-width:1.0;" width="10" x="1258.5" y="331.2031"/><rect fill="#FFFFFF" height="203.9297" style="stroke:#181818;stroke-width:1.0;" width="10" x="1258.5" y="537.9219"/><rect fill="#FFFFFF" height="119.3203" style="stroke:#181818;stroke-width:1.0;" width="10" x="1391.5" y="389.4688"/><rect fill="#FFFFFF" height="29.1328" style="stroke:#181818;stroke-width:1.0;" width="10" x="1823" y="567.0547"/><rect fill="#FFFFFF" height="29.1328" style="stroke:#181818;stroke-width:1.0;" width="10" x="1823" y="683.5859"/><rect fill="#FFFFFF" height="29.1328" style="stroke:#181818;stroke-width:1.0;" width="10" x="2020.5" y="625.3203"/><rect fill="#FFFFFF" height="29.1328" style="stroke:#181818;stroke-width:1.0;" width="10" x="2199.5" y="770.9844"/><line style="stroke:#181818;stroke-width:0.5;stroke-dasharray:5.0,5.0;" x1="56" x2="56" y1="122.4844" y2="905.5156"/><line style="stroke:#181818;stroke-width:0.5;stroke-dasharray:5.0,5.0;" x1="309" x2="309" y1="122.4844" y2="905.5156"/><line style="stroke:#181818;stroke-width:0.5;stroke-dasharray:5.0,5.0;" x1="532" x2="532" y1="122.4844" y2="905.5156"/><line style="stroke:#181818;stroke-width:0.5;stroke-dasharray:5.0,5.0;" x1="754.5" x2="754.5" y1="122.4844" y2="905.5156"/><line style="stroke:#181818;stroke-width:0.5;stroke-dasharray:5.0,5.0;" x1="1126" x2="1126" y1="274.9766" y2="905.5156"/><line style="stroke:#181818;stroke-width:0.5;stroke-dasharray:5.0,5.0;" x1="1263" x2="1263" y1="122.4844" y2="905.5156"/><line style="stroke:#181818;stroke-width:0.5;stroke-dasharray:5.0,5.0;" x1="1396" x2="1396" y1="122.4844" y2="905.5156"/><line style="stroke:#181818;stroke-width:0.5;stroke-dasharray:5.0,5.0;" x1="1637.5" x2="1637.5" y1="452.5625" y2="905.5156"/><line style="stroke:#181818;stroke-width:0.5;stroke-dasharray:5.0,5.0;" x1="1827.5" x2="1827.5" y1="122.4844" y2="905.5156"/><line style="stroke:#181818;stroke-width:0.5;stroke-dasharray:5.0,5.0;" x1="2025.5" x2="2025.5" y1="122.4844" y2="905.5156"/><line style="stroke:#181818;stroke-width:0.5;stroke-dasharray:5.0,5.0;" x1="2204.5" x2="2204.5" y1="122.4844" y2="905.5156"/><text fill="#000000" font-family="sans-serif" font-size="14" lengthAdjust="spacing" textLength="96" x="5" y="119.1826">:Administrator</text><ellipse cx="56" cy="54.6875" fill="#FFFFFF" rx="8" ry="8" style="stroke:#181818;stroke-width:0.5;"/><path d="M56,62.6875 L56,89.6875 M43,70.6875 L69,70.6875 M56,89.6875 L43,104.6875 M56,89.6875 L69,104.6875 " fill="none" style="stroke:#181818;stroke-width:0.5;"/><text fill="#000000" font-family="sans-serif" font-size="14" lengthAdjust="spacing" textLength="96" x="5" y="917.5107">:Administrator</text><ellipse cx="56" cy="929.3125" fill="#FFFFFF" rx="8" ry="8" style="stroke:#181818;stroke-width:0.5;"/><path d="M56,937.3125 L56,964.3125 M43,945.3125 L69,945.3125 M56,964.3125 L43,979.3125 M56,964.3125 L69,979.3125 " fill="none" style="stroke:#181818;stroke-width:0.5;"/><rect fill="#FFFFFF" height="30.2969" rx="2.5" ry="2.5" style="stroke:#181818;stroke-width:0.5;" width="120" x="249" y="91.1875"/><text fill="#000000" font-family="sans-serif" font-size="14" lengthAdjust="spacing" textLength="106" x="256" y="111.1826">:CreateProfileUI</text><rect fill="#FFFFFF" height="30.2969" rx="2.5" ry="2.5" style="stroke:#181818;stroke-width:0.5;" width="120" x="249" y="904.5156"/><text fill="#000000" font-family="sans-serif" font-size="14" lengthAdjust="spacing" textLength="106" x="256" y="924.5107">:CreateProfileUI</text><rect fill="#FFFFFF" height="46.5938" rx="2.5" ry="2.5" style="stroke:#181818;stroke-width:0.5;" width="128" x="468" y="74.8906"/><text fill="#000000" font-family="sans-serif" font-size="14" lengthAdjust="spacing" textLength="85" x="489.5" y="94.8857">&#171;Controller&#187;</text><text fill="#000000" font-family="sans-serif" font-size="14" lengthAdjust="spacing" textLength="114" x="475" y="111.1826">:ProfileController</text><rect fill="#FFFFFF" height="46.5938" rx="2.5" ry="2.5" style="stroke:#181818;stroke-width:0.5;" width="128" x="468" y="904.5156"/><text fill="#000000" font-family="sans-serif" font-size="14" lengthAdjust="spacing" textLength="85" x="489.5" y="924.5107">&#171;Controller&#187;</text><text fill="#000000" font-family="sans-serif" font-size="14" lengthAdjust="spacing" textLength="114" x="475" y="940.8076">:ProfileController</text><rect fill="#FFFFFF" height="46.5938" rx="2.5" ry="2.5" style="stroke:#181818;stroke-width:0.5;" width="111" x="699.5" y="74.8906"/><text fill="#000000" font-family="sans-serif" font-size="14" lengthAdjust="spacing" textLength="68" x="721" y="94.8857">&#171;Service&#187;</text><text fill="#000000" font-family="sans-serif" font-size="14" lengthAdjust="spacing" textLength="97" x="706.5" y="111.1826">:ProfileService</text><rect fill="#FFFFFF" height="46.5938" rx="2.5" ry="2.5" style="stroke:#181818;stroke-width:0.5;" width="111" x="699.5" y="904.5156"/><text fill="#000000" font-family="sans-serif" font-size="14" lengthAdjust="spacing" textLength="68" x="721" y="924.5107">&#171;Service&#187;</text><text fill="#000000" font-family="sans-serif" font-size="14" lengthAdjust="spacing" textLength="97" x="706.5" y="940.8076">:ProfileService</text><rect fill="#FFFFFF" height="79.1875" rx="2.5" ry="2.5" style="stroke:#181818;stroke-width:0.5;" width="119" x="1067" y="904.5156"/><text fill="#000000" font-family="sans-serif" font-size="14" lengthAdjust="spacing" textLength="105" x="1074" y="924.5107">&#171;Value Object&#187;</text><text fill="#000000" font-family="sans-serif" font-size="14" lengthAdjust="spacing" textLength="85" x="1084" y="940.8076">&#171;DomainID&#187;</text><text fill="#000000" font-family="sans-serif" font-size="14" lengthAdjust="spacing" textLength="82" x="1085.5" y="957.1045">profileName</text><text fill="#000000" font-family="sans-serif" font-size="14" lengthAdjust="spacing" textLength="87" x="1083" y="973.4014">:ProfileName</text><rect fill="#FFFFFF" height="62.8906" rx="2.5" ry="2.5" style="stroke:#181818;stroke-width:0.5;" width="135" x="1196" y="58.5938"/><text fill="#000000" font-family="sans-serif" font-size="14" lengthAdjust="spacing" textLength="78" x="1224.5" y="78.5889">&#171;Interface&#187;</text><text fill="#000000" font-family="sans-serif" font-size="14" lengthAdjust="spacing" textLength="92" x="1217.5" y="94.8857">&#171;Repository&#187;</text><text fill="#000000" font-family="sans-serif" font-size="14" lengthAdjust="spacing" textLength="121" x="1203" y="111.1826">:ProfileRepository</text><rect fill="#FFFFFF" height="62.8906" rx="2.5" ry="2.5" style="stroke:#181818;stroke-width:0.5;" width="135" x="1196" y="904.5156"/><text fill="#000000" font-family="sans-serif" font-size="14" lengthAdjust="spacing" textLength="78" x="1224.5" y="924.5107">&#171;Interface&#187;</text><text fill="#000000" font-family="sans-serif" font-size="14" lengthAdjust="spacing" textLength="92" x="1217.5" y="940.8076">&#171;Repository&#187;</text><text fill="#000000" font-family="sans-serif" font-size="14" lengthAdjust="spacing" textLength="121" x="1203" y="957.1045">:ProfileRepository</text><rect fill="#FFFFFF" height="62.8906" rx="2.5" ry="2.5" style="stroke:#181818;stroke-width:0.5;" width="111" x="1341" y="58.5938"/><text fill="#000000" font-family="sans-serif" font-size="14" lengthAdjust="spacing" textLength="78" x="1357.5" y="78.5889">&#171;Interface&#187;</text><text fill="#000000" font-family="sans-serif" font-size="14" lengthAdjust="spacing" textLength="68" x="1362.5" y="94.8857">&#171;Factory&#187;</text><text fill="#000000" font-family="sans-serif" font-size="14" lengthAdjust="spacing" textLength="97" x="1348" y="111.1826">:ProfileFactory</text><rect fill="#FFFFFF" height="62.8906" rx="2.5" ry="2.5" style="stroke:#181818;stroke-width:0.5;" width="111" x="1341" y="904.5156"/><text fill="#000000" font-family="sans-serif" font-size="14" lengthAdjust="spacing" textLength="78" x="1357.5" y="924.5107">&#171;Interface&#187;</text><text fill="#000000" font-family="sans-serif" font-size="14" lengthAdjust="spacing" textLength="68" x="1362.5" y="940.8076">&#171;Factory&#187;</text><text fill="#000000" font-family="sans-serif" font-size="14" lengthAdjust="spacing" textLength="97" x="1348" y="957.1045">:ProfileFactory</text><rect fill="#FFFFFF" height="79.1875" rx="2.5" ry="2.5" style="stroke:#181818;stroke-width:0.5;" width="141" x="1567.5" y="904.5156"/><text fill="#000000" font-family="sans-serif" font-size="14" lengthAdjust="spacing" textLength="56" x="1610" y="924.5107">&#171;Entity&#187;</text><text fill="#000000" font-family="sans-serif" font-size="14" lengthAdjust="spacing" textLength="127" x="1574.5" y="940.8076">&#171;Aggregate Root&#187;</text><text fill="#000000" font-family="sans-serif" font-size="14" lengthAdjust="spacing" textLength="71" x="1602.5" y="957.1045">newProfile</text><text fill="#000000" font-family="sans-serif" font-size="14" lengthAdjust="spacing" textLength="47" x="1614.5" y="973.4014">:Profile</text><rect fill="#FFFFFF" height="30.2969" rx="2.5" ry="2.5" style="stroke:#181818;stroke-width:0.5;" width="219" x="1718.5" y="91.1875"/><text fill="#000000" font-family="sans-serif" font-size="14" lengthAdjust="spacing" textLength="205" x="1725.5" y="111.1826">:ProfileDomainDataAssembler</text><rect fill="#FFFFFF" height="30.2969" rx="2.5" ry="2.5" style="stroke:#181818;stroke-width:0.5;" width="219" x="1718.5" y="904.5156"/><text fill="#000000" font-family="sans-serif" font-size="14" lengthAdjust="spacing" textLength="205" x="1725.5" y="924.5107">:ProfileDomainDataAssembler</text><rect fill="#FFFFFF" height="62.8906" rx="2.5" ry="2.5" style="stroke:#181818;stroke-width:0.5;" width="156" x="1947.5" y="58.5938"/><text fill="#000000" font-family="sans-serif" font-size="14" lengthAdjust="spacing" textLength="78" x="1986.5" y="78.5889">&#171;Interface&#187;</text><text fill="#000000" font-family="sans-serif" font-size="14" lengthAdjust="spacing" textLength="92" x="1979.5" y="94.8857">&#171;Repository&#187;</text><text fill="#000000" font-family="sans-serif" font-size="14" lengthAdjust="spacing" textLength="142" x="1954.5" y="111.1826">:ProfileRepositoryJPA</text><rect fill="#FFFFFF" height="62.8906" rx="2.5" ry="2.5" style="stroke:#181818;stroke-width:0.5;" width="156" x="1947.5" y="904.5156"/><text fill="#000000" font-family="sans-serif" font-size="14" lengthAdjust="spacing" textLength="78" x="1986.5" y="924.5107">&#171;Interface&#187;</text><text fill="#000000" font-family="sans-serif" font-size="14" lengthAdjust="spacing" textLength="92" x="1979.5" y="940.8076">&#171;Repository&#187;</text><text fill="#000000" font-family="sans-serif" font-size="14" lengthAdjust="spacing" textLength="142" x="1954.5" y="957.1045">:ProfileRepositoryJPA</text><rect fill="#FFFFFF" height="30.2969" rx="2.5" ry="2.5" style="stroke:#181818;stroke-width:0.5;" width="182" x="2113.5" y="91.1875"/><text fill="#000000" font-family="sans-serif" font-size="14" lengthAdjust="spacing" textLength="168" x="2120.5" y="111.1826">:OutputProfileAssembler</text><rect fill="#FFFFFF" height="30.2969" rx="2.5" ry="2.5" style="stroke:#181818;stroke-width:0.5;" width="182" x="2113.5" y="904.5156"/><text fill="#000000" font-family="sans-serif" font-size="14" lengthAdjust="spacing" textLength="168" x="2120.5" y="924.5107">:OutputProfileAssembler</text><rect fill="#FFFFFF" height="733.8984" style="stroke:#181818;stroke-width:1.0;" width="10" x="304" y="153.6172"/><rect fill="#FFFFFF" height="675.6328" style="stroke:#181818;stroke-width:1.0;" width="10" x="527" y="182.75"/><rect fill="#FFFFFF" height="617.3672" style="stroke:#181818;stroke-width:1.0;" width="10" x="750" y="211.8828"/><rect fill="#FFFFFF" height="29.1328" style="stroke:#181818;stroke-width:1.0;" width="10" x="1258.5" y="331.2031"/><rect fill="#FFFFFF" height="203.9297" style="stroke:#181818;stroke-width:1.0;" width="10" x="1258.5" y="537.9219"/><rect fill="#FFFFFF" height="119.3203" style="stroke:#181818;stroke-width:1.0;" width="10" x="1391.5" y="389.4688"/><rect fill="#FFFFFF" height="29.1328" style="stroke:#181818;stroke-width:1.0;" width="10" x="1823" y="567.0547"/><rect fill="#FFFFFF" height="29.1328" style="stroke:#181818;stroke-width:1.0;" width="10" x="1823" y="683.5859"/><rect fill="#FFFFFF" height="29.1328" style="stroke:#181818;stroke-width:1.0;" width="10" x="2020.5" y="625.3203"/><rect fill="#FFFFFF" height="29.1328" style="stroke:#181818;stroke-width:1.0;" width="10" x="2199.5" y="770.9844"/><polygon fill="#181818" points="292,149.6172,302,153.6172,292,157.6172,296,153.6172" style="stroke:#181818;stroke-width:1.0;"/><line style="stroke:#181818;stroke-width:1.0;" x1="56" x2="298" y1="153.6172" y2="153.6172"/><text fill="#000000" font-family="sans-serif" font-size="13" font-weight="bold" lengthAdjust="spacing" textLength="9" x="93" y="148.5513">1</text><text fill="#000000" font-family="sans-serif" font-size="13" lengthAdjust="spacing" textLength="161" x="106" y="148.5513">requests to create profile</text><polygon fill="#181818" points="515,178.75,525,182.75,515,186.75,519,182.75" style="stroke:#181818;stroke-width:1.0;"/><line style="stroke:#181818;stroke-width:1.0;" x1="314" x2="521" y1="182.75" y2="182.75"/><text fill="#000000" font-family="sans-serif" font-size="13" font-weight="bold" lengthAdjust="spacing" textLength="9" x="323.5" y="177.6841">2</text><text fill="#000000" font-family="sans-serif" font-size="13" lengthAdjust="spacing" textLength="181" x="336.5" y="177.6841">createProfile(newProfileDTO)</text><polygon fill="#181818" points="738,207.8828,748,211.8828,738,215.8828,742,211.8828" style="stroke:#181818;stroke-width:1.0;"/><line style="stroke:#181818;stroke-width:1.0;" x1="537" x2="744" y1="211.8828" y2="211.8828"/><text fill="#000000" font-family="sans-serif" font-size="13" font-weight="bold" lengthAdjust="spacing" textLength="9" x="546.5" y="206.8169">3</text><text fill="#000000" font-family="sans-serif" font-size="13" lengthAdjust="spacing" textLength="181" x="559.5" y="206.8169">createProfile(newProfileDTO)</text><polygon fill="#181818" points="1055,237.0156,1065,241.0156,1055,245.0156,1059,241.0156" style="stroke:#181818;stroke-width:1.0;"/><line style="stroke:#181818;stroke-width:1.0;" x1="760" x2="1061" y1="241.0156" y2="241.0156"/><text fill="#000000" font-family="sans-serif" font-size="13" font-weight="bold" lengthAdjust="spacing" textLength="9" x="772" y="235.9497">4</text><text fill="#000000" font-family="sans-serif" font-size="13" lengthAdjust="spacing" textLength="270" x="785" y="235.9497">profileName = newProfileDTO.profileName</text><rect fill="#FFFFFF" height="79.1875" rx="2.5" ry="2.5" style="stroke:#181818;stroke-width:0.5;" width="119" x="1067" y="219.8828"/><text fill="#000000" font-family="sans-serif" font-size="14" lengthAdjust="spacing" textLength="105" x="1074" y="239.8779">&#171;Value Object&#187;</text><text fill="#000000" font-family="sans-serif" font-size="14" lengthAdjust="spacing" textLength="85" x="1084" y="256.1748">&#171;DomainID&#187;</text><text fill="#000000" font-family="sans-serif" font-size="14" lengthAdjust="spacing" textLength="82" x="1085.5" y="272.4717">profileName</text><text fill="#000000" font-family="sans-serif" font-size="14" lengthAdjust="spacing" textLength="87" x="1083" y="288.7686">:ProfileName</text><polygon fill="#181818" points="1246.5,327.2031,1256.5,331.2031,1246.5,335.2031,1250.5,331.2031" style="stroke:#181818;stroke-width:1.0;"/><line style="stroke:#181818;stroke-width:1.0;stroke-dasharray:2.0,2.0;" x1="760" x2="1252.5" y1="331.2031" y2="331.2031"/><text fill="#000000" font-family="sans-serif" font-size="13" font-weight="bold" lengthAdjust="spacing" textLength="9" x="926.75" y="326.1372">5</text><text fill="#000000" font-family="sans-serif" font-size="13" lengthAdjust="spacing" textLength="152" x="939.75" y="326.1372">existsById(profileName)</text><polygon fill="#181818" points="771,356.3359,761,360.3359,771,364.3359,767,360.3359" style="stroke:#181818;stroke-width:1.0;"/><line style="stroke:#181818;stroke-width:1.0;stroke-dasharray:2.0,2.0;" x1="765" x2="1262.5" y1="360.3359" y2="360.3359"/><text fill="#000000" font-family="sans-serif" font-size="13" font-weight="bold" lengthAdjust="spacing" textLength="9" x="975.25" y="355.27">6</text><text fill="#000000" font-family="sans-serif" font-size="13" lengthAdjust="spacing" textLength="60" x="988.25" y="355.27">true/false</text><polygon fill="#181818" points="1379.5,385.4688,1389.5,389.4688,1379.5,393.4688,1383.5,389.4688" style="stroke:#181818;stroke-width:1.0;"/><line style="stroke:#181818;stroke-width:1.0;stroke-dasharray:2.0,2.0;" x1="760" x2="1385.5" y1="389.4688" y2="389.4688"/><text fill="#000000" font-family="sans-serif" font-size="13" font-weight="bold" lengthAdjust="spacing" textLength="9" x="985.25" y="384.4028">7</text><text fill="#000000" font-family="sans-serif" font-size="13" lengthAdjust="spacing" textLength="168" x="998.25" y="384.4028">createProfile(profileName)</text><polygon fill="#181818" points="1555.5,414.6016,1565.5,418.6016,1555.5,422.6016,1559.5,418.6016" style="stroke:#181818;stroke-width:1.0;"/><line style="stroke:#181818;stroke-width:1.0;stroke-dasharray:2.0,2.0;" x1="1401.5" x2="1561.5" y1="418.6016" y2="418.6016"/><text fill="#000000" font-family="sans-serif" font-size="13" font-weight="bold" lengthAdjust="spacing" textLength="9" x="1413.5" y="413.5356">8</text><text fill="#000000" font-family="sans-serif" font-size="13" lengthAdjust="spacing" textLength="129" x="1426.5" y="413.5356">create(profileName)</text><rect fill="#FFFFFF" height="79.1875" rx="2.5" ry="2.5" style="stroke:#181818;stroke-width:0.5;" width="141" x="1567.5" y="397.4688"/><text fill="#000000" font-family="sans-serif" font-size="14" lengthAdjust="spacing" textLength="56" x="1610" y="417.4639">&#171;Entity&#187;</text><text fill="#000000" font-family="sans-serif" font-size="14" lengthAdjust="spacing" textLength="127" x="1574.5" y="433.7607">&#171;Aggregate Root&#187;</text><text fill="#000000" font-family="sans-serif" font-size="14" lengthAdjust="spacing" textLength="71" x="1602.5" y="450.0576">newProfile</text><text fill="#000000" font-family="sans-serif" font-size="14" lengthAdjust="spacing" textLength="47" x="1614.5" y="466.3545">:Profile</text><polygon fill="#181818" points="771,504.7891,761,508.7891,771,512.7891,767,508.7891" style="stroke:#181818;stroke-width:1.0;"/><line style="stroke:#181818;stroke-width:1.0;stroke-dasharray:2.0,2.0;" x1="765" x2="1395.5" y1="508.7891" y2="508.7891"/><text fill="#000000" font-family="sans-serif" font-size="13" font-weight="bold" lengthAdjust="spacing" textLength="9" x="1039.75" y="503.7231">9</text><text fill="#000000" font-family="sans-serif" font-size="13" lengthAdjust="spacing" textLength="64" x="1052.75" y="503.7231">newProfile</text><polygon fill="#181818" points="1246.5,533.9219,1256.5,537.9219,1246.5,541.9219,1250.5,537.9219" style="stroke:#181818;stroke-width:1.0;"/><line style="stroke:#181818;stroke-width:1.0;stroke-dasharray:2.0,2.0;" x1="760" x2="1252.5" y1="537.9219" y2="537.9219"/><text fill="#000000" font-family="sans-serif" font-size="13" font-weight="bold" lengthAdjust="spacing" textLength="18" x="946.25" y="532.856">10</text><text fill="#000000" font-family="sans-serif" font-size="13" lengthAdjust="spacing" textLength="104" x="968.25" y="532.856">save(newProfile)</text><polygon fill="#181818" points="1811,563.0547,1821,567.0547,1811,571.0547,1815,567.0547" style="stroke:#181818;stroke-width:1.0;"/><line style="stroke:#181818;stroke-width:1.0;stroke-dasharray:2.0,2.0;" x1="1268.5" x2="1817" y1="567.0547" y2="567.0547"/><text fill="#000000" font-family="sans-serif" font-size="13" font-weight="bold" lengthAdjust="spacing" textLength="18" x="1475.75" y="561.9888">11</text><text fill="#000000" font-family="sans-serif" font-size="13" lengthAdjust="spacing" textLength="118" x="1497.75" y="561.9888">toData(newProfile)</text><polygon fill="#181818" points="1279.5,592.1875,1269.5,596.1875,1279.5,600.1875,1275.5,596.1875" style="stroke:#181818;stroke-width:1.0;"/><line style="stroke:#181818;stroke-width:1.0;stroke-dasharray:2.0,2.0;" x1="1273.5" x2="1827" y1="596.1875" y2="596.1875"/><text fill="#000000" font-family="sans-serif" font-size="13" font-weight="bold" lengthAdjust="spacing" textLength="18" x="1507.75" y="591.1216">12</text><text fill="#000000" font-family="sans-serif" font-size="13" lengthAdjust="spacing" textLength="59" x="1529.75" y="591.1216">profileJPA</text><polygon fill="#181818" points="2008.5,621.3203,2018.5,625.3203,2008.5,629.3203,2012.5,625.3203" style="stroke:#181818;stroke-width:1.0;"/><line style="stroke:#181818;stroke-width:1.0;stroke-dasharray:2.0,2.0;" x1="1268.5" x2="2014.5" y1="625.3203" y2="625.3203"/><text fill="#000000" font-family="sans-serif" font-size="13" font-weight="bold" lengthAdjust="spacing" textLength="18" x="1584" y="620.2544">13</text><text fill="#000000" font-family="sans-serif" font-size="13" lengthAdjust="spacing" textLength="99" x="1606" y="620.2544">save(profileJPA)</text><polygon fill="#181818" points="1279.5,650.4531,1269.5,654.4531,1279.5,658.4531,1275.5,654.4531" style="stroke:#181818;stroke-width:1.0;"/><line style="stroke:#181818;stroke-width:1.0;stroke-dasharray:2.0,2.0;" x1="1273.5" x2="2024.5" y1="654.4531" y2="654.4531"/><text fill="#000000" font-family="sans-serif" font-size="13" font-weight="bold" lengthAdjust="spacing" textLength="18" x="1587.5" y="649.3872">14</text><text fill="#000000" font-family="sans-serif" font-size="13" lengthAdjust="spacing" textLength="97" x="1609.5" y="649.3872">savedProfileJPA</text><polygon fill="#181818" points="1811,679.5859,1821,683.5859,1811,687.5859,1815,683.5859" style="stroke:#181818;stroke-width:1.0;"/><line style="stroke:#181818;stroke-width:1.0;stroke-dasharray:2.0,2.0;" x1="1268.5" x2="1817" y1="683.5859" y2="683.5859"/><text fill="#000000" font-family="sans-serif" font-size="13" font-weight="bold" lengthAdjust="spacing" textLength="18" x="1449.75" y="678.52">15</text><text fill="#000000" font-family="sans-serif" font-size="13" lengthAdjust="spacing" textLength="170" x="1471.75" y="678.52">toDomain(savedProfileJPA)</text><polygon fill="#181818" points="1279.5,708.7188,1269.5,712.7188,1279.5,716.7188,1275.5,712.7188" style="stroke:#181818;stroke-width:1.0;"/><line style="stroke:#181818;stroke-width:1.0;stroke-dasharray:2.0,2.0;" x1="1273.5" x2="1827" y1="712.7188" y2="712.7188"/><text fill="#000000" font-family="sans-serif" font-size="13" font-weight="bold" lengthAdjust="spacing" textLength="18" x="1493.25" y="707.6528">16</text><text fill="#000000" font-family="sans-serif" font-size="13" lengthAdjust="spacing" textLength="88" x="1515.25" y="707.6528">createdProfile</text><polygon fill="#181818" points="771,737.8516,761,741.8516,771,745.8516,767,741.8516" style="stroke:#181818;stroke-width:1.0;"/><line style="stroke:#181818;stroke-width:1.0;stroke-dasharray:2.0,2.0;" x1="765" x2="1262.5" y1="741.8516" y2="741.8516"/><text fill="#000000" font-family="sans-serif" font-size="13" font-weight="bold" lengthAdjust="spacing" textLength="18" x="956.75" y="736.7856">17</text><text fill="#000000" font-family="sans-serif" font-size="13" lengthAdjust="spacing" textLength="88" x="978.75" y="736.7856">createdProfile</text><polygon fill="#181818" points="2187.5,766.9844,2197.5,770.9844,2187.5,774.9844,2191.5,770.9844" style="stroke:#181818;stroke-width:1.0;"/><line style="stroke:#181818;stroke-width:1.0;stroke-dasharray:2.0,2.0;" x1="760" x2="2193.5" y1="770.9844" y2="770.9844"/><text fill="#000000" font-family="sans-serif" font-size="13" font-weight="bold" lengthAdjust="spacing" textLength="18" x="1344.25" y="765.9185">18</text><text fill="#000000" font-family="sans-serif" font-size="13" lengthAdjust="spacing" textLength="249" x="1366.25" y="765.9185">createOutputProfileDTO(createdProfile)</text><polygon fill="#181818" points="771,796.1172,761,800.1172,771,804.1172,767,800.1172" style="stroke:#181818;stroke-width:1.0;"/><line style="stroke:#181818;stroke-width:1.0;stroke-dasharray:2.0,2.0;" x1="765" x2="2203.5" y1="800.1172" y2="800.1172"/><text fill="#000000" font-family="sans-serif" font-size="13" font-weight="bold" lengthAdjust="spacing" textLength="18" x="1417.25" y="795.0513">19</text><text fill="#000000" font-family="sans-serif" font-size="13" lengthAdjust="spacing" textLength="108" x="1439.25" y="795.0513">outputProfileDTO</text><polygon fill="#181818" points="548,825.25,538,829.25,548,833.25,544,829.25" style="stroke:#181818;stroke-width:1.0;"/><line style="stroke:#181818;stroke-width:1.0;stroke-dasharray:2.0,2.0;" x1="542" x2="754" y1="829.25" y2="829.25"/><text fill="#000000" font-family="sans-serif" font-size="13" font-weight="bold" lengthAdjust="spacing" textLength="18" x="581" y="824.1841">20</text><text fill="#000000" font-family="sans-serif" font-size="13" lengthAdjust="spacing" textLength="108" x="603" y="824.1841">outputProfileDTO</text><polygon fill="#181818" points="325,854.3828,315,858.3828,325,862.3828,321,858.3828" style="stroke:#181818;stroke-width:1.0;"/><line style="stroke:#181818;stroke-width:1.0;stroke-dasharray:2.0,2.0;" x1="319" x2="531" y1="858.3828" y2="858.3828"/><text fill="#000000" font-family="sans-serif" font-size="13" font-weight="bold" lengthAdjust="spacing" textLength="18" x="358" y="853.3169">21</text><text fill="#000000" font-family="sans-serif" font-size="13" lengthAdjust="spacing" textLength="108" x="380" y="853.3169">outputProfileDTO</text><polygon fill="#181818" points="67,883.5156,57,887.5156,67,891.5156,63,887.5156" style="stroke:#181818;stroke-width:1.0;"/><line style="stroke:#181818;stroke-width:1.0;stroke-dasharray:2.0,2.0;" x1="61" x2="308" y1="887.5156" y2="887.5156"/><text fill="#000000" font-family="sans-serif" font-size="13" font-weight="bold" lengthAdjust="spacing" textLength="18" x="70.5" y="882.4497">22</text><text fill="#000000" font-family="sans-serif" font-size="13" lengthAdjust="spacing" textLength="202" x="92.5" y="882.4497">returns successful/unsuccessful</text><!--SRC=[fLNBSjem5DtxA-va1KFJf5k6CkFWFjoP5eQKhBeHvkAwiILNZr3-lf8iBCabfOyDw5wVStGVnsFnMD6MSDA0mEyAQO4VKGXIObfN9OK2gKIUY1v52idu7IaUIyuKtIrOpJWSlbOI0v3-bLLHjOJAIz3JhMlS8pU7loQyHx93_gUqTnhJdWSdH4b6LRFL3IUoaZN2vlxszXLSGoeWtJKLhOJaH0_W1UHmqDs1P51m91912UJGShQlQXHQoym9hgOHxGh8G2X9Wbbf-CAAhJgPJMu9cpm6pMOBHYLdTOryFlz2fmxkivRcmo7z7lbJLM38TIbBTESXwu7K2c6v_OQ5DDJPB6CDgMYUcSXr_eaqw5LDP2LT_B0SYkR6NdlI5JERhR5bej9pEOR5-QmLy-45jRTs2P6KIraTTnwAlA5wzyTE8IrBZgLPxvenspN5WvFoec6BWtswR3UfZ4YI2e7DzhIZBElZ_vpCXrNQ3qUVXxvQAjagwLXn3Rw29B8cNC-rzIQJAN3pxWWf0hUxTIURtC2yrGoy23qyyWFBFY_7YOSQehFQHPQxrTl84Or6dvn2O49u3P76o-2PPskw7w6f0d_eziNTCT-D0i8uuIWLfo2vmfizgKMiuPpqQnkHHjn4uaXMmELEzBDt-tP-KxyWJ-7mneb_RD61uIOJcEgD6bD637UTAy5uQQ3XB6RvzZuFxTaclrizAt6c3Fk6Z0QyNg-Ro-d9CzbmB87-QQhHEw0jCOhf_LriWFlNVFSdGAYYqD_KlQfl5FN1Jm00]--></g></svg>