<?xml version="1.0" encoding="us-ascii" standalone="no"?><svg xmlns="http://www.w3.org/2000/svg" xmlns:xlink="http://www.w3.org/1999/xlink" contentStyleType="text/css" height="1687px" preserveAspectRatio="none" style="width:1707px;height:1687px;background:#FFFFFF;" version="1.1" viewBox="0 0 1707 1687" width="1707px" zoomAndPan="magnify"><defs/><g><!--class ListHumanResourcesController--><g id="elem_ListHumanResourcesController"><rect codeLine="2" fill="#F1F1F1" height="96.8906" id="ListHumanResourcesController" rx="2.5" ry="2.5" style="stroke:#181818;stroke-width:0.5;" width="610" x="601.5" y="7"/><ellipse cx="795.25" cy="23" fill="#ADD1B2" rx="11" ry="11" style="stroke:#181818;stroke-width:1.0;"/><path d="M798.2188,28.6406 Q797.6406,28.9375 797,29.0781 Q796.3594,29.2344 795.6563,29.2344 Q793.1563,29.2344 791.8281,27.5938 Q790.5156,25.9375 790.5156,22.8125 Q790.5156,19.6875 791.8281,18.0313 Q793.1563,16.375 795.6563,16.375 Q796.3594,16.375 797,16.5313 Q797.6563,16.6875 798.2188,16.9844 L798.2188,19.7031 Q797.5938,19.125 797,18.8594 Q796.4063,18.5781 795.7813,18.5781 Q794.4375,18.5781 793.75,19.6563 Q793.0625,20.7188 793.0625,22.8125 Q793.0625,24.9063 793.75,25.9844 Q794.4375,27.0469 795.7813,27.0469 Q796.4063,27.0469 797,26.7813 Q797.5938,26.5 798.2188,25.9219 L798.2188,28.6406 Z " fill="#000000"/><text fill="#000000" font-family="sans-serif" font-size="14" lengthAdjust="spacing" textLength="214" x="815.75" y="27.8467">ListHumanResourcesController</text><line style="stroke:#181818;stroke-width:0.5;" x1="602.5" x2="1210.5" y1="39" y2="39"/><rect fill="none" height="6" style="stroke:#C82930;stroke-width:1.0;" width="6" x="609.5" y="49.6484"/><text fill="#000000" font-family="sans-serif" font-size="14" lengthAdjust="spacing" textLength="242" x="621.5" y="55.9951">resourceService : ResourceService</text><line style="stroke:#181818;stroke-width:0.5;" x1="602.5" x2="1210.5" y1="63.2969" y2="63.2969"/><ellipse cx="612.5" cy="76.9453" fill="#84BE84" rx="3" ry="3" style="stroke:#038048;stroke-width:1.0;"/><text fill="#000000" font-family="sans-serif" font-size="14" lengthAdjust="spacing" textLength="466" x="621.5" y="80.292">ListHumanResourcesController(resourceService : ResourceService)</text><ellipse cx="612.5" cy="93.2422" fill="#84BE84" rx="3" ry="3" style="stroke:#038048;stroke-width:1.0;"/><text fill="#000000" font-family="sans-serif" font-size="14" lengthAdjust="spacing" textLength="584" x="621.5" y="96.5889">listResourcesInProject(projectCodeValue : String, clock : Clock) : ResourceDTO [1..*]</text></g><!--class ResourceService--><g id="elem_ResourceService"><rect codeLine="2" fill="#F1F1F1" height="325.0469" id="ResourceService" rx="2.5" ry="2.5" style="stroke:#181818;stroke-width:0.5;" width="719" x="547" y="181"/><ellipse cx="843.75" cy="197" fill="#ADD1B2" rx="11" ry="11" style="stroke:#181818;stroke-width:1.0;"/><path d="M846.7188,202.6406 Q846.1406,202.9375 845.5,203.0781 Q844.8594,203.2344 844.1563,203.2344 Q841.6563,203.2344 840.3281,201.5938 Q839.0156,199.9375 839.0156,196.8125 Q839.0156,193.6875 840.3281,192.0313 Q841.6563,190.375 844.1563,190.375 Q844.8594,190.375 845.5,190.5313 Q846.1563,190.6875 846.7188,190.9844 L846.7188,193.7031 Q846.0938,193.125 845.5,192.8594 Q844.9063,192.5781 844.2813,192.5781 Q842.9375,192.5781 842.25,193.6563 Q841.5625,194.7188 841.5625,196.8125 Q841.5625,198.9063 842.25,199.9844 Q842.9375,201.0469 844.2813,201.0469 Q844.9063,201.0469 845.5,200.7813 Q846.0938,200.5 846.7188,199.9219 L846.7188,202.6406 Z " fill="#000000"/><text fill="#000000" font-family="sans-serif" font-size="14" lengthAdjust="spacing" textLength="117" x="864.25" y="201.8467">ResourceService</text><line style="stroke:#181818;stroke-width:0.5;" x1="548" x2="1265" y1="213" y2="213"/><rect fill="none" height="6" style="stroke:#C82930;stroke-width:1.0;" width="6" x="555" y="223.6484"/><text fill="#000000" font-family="sans-serif" font-size="14" lengthAdjust="spacing" textLength="290" x="567" y="229.9951">resourceRepository : ResourceRepository</text><rect fill="none" height="6" style="stroke:#C82930;stroke-width:1.0;" width="6" x="555" y="239.9453"/><text fill="#000000" font-family="sans-serif" font-size="14" lengthAdjust="spacing" textLength="209" x="567" y="246.292">projectRepository : Repository</text><rect fill="none" height="6" style="stroke:#C82930;stroke-width:1.0;" width="6" x="555" y="256.2422"/><text fill="#000000" font-family="sans-serif" font-size="14" lengthAdjust="spacing" textLength="274" x="567" y="262.5889">accountRepository : AccountRepository</text><rect fill="none" height="6" style="stroke:#C82930;stroke-width:1.0;" width="6" x="555" y="272.5391"/><text fill="#000000" font-family="sans-serif" font-size="14" lengthAdjust="spacing" textLength="242" x="567" y="278.8857">resourceFactory : ResourceFactory</text><rect fill="none" height="6" style="stroke:#C82930;stroke-width:1.0;" width="6" x="555" y="288.8359"/><text fill="#000000" font-family="sans-serif" font-size="14" lengthAdjust="spacing" textLength="273" x="567" y="295.1826">MAXIMUM_ALLOCATION : int {readOnly}</text><line style="stroke:#181818;stroke-width:0.5;" x1="548" x2="1265" y1="302.4844" y2="302.4844"/><ellipse cx="558" cy="316.1328" fill="#84BE84" rx="3" ry="3" style="stroke:#038048;stroke-width:1.0;"/><text fill="#000000" font-family="sans-serif" font-size="14" lengthAdjust="spacing" textLength="633" x="567" y="319.4795">ResourceService(resourceRepository : ResourceRepository, projectRepository : Repository,</text><text fill="#000000" font-family="sans-serif" font-size="14" lengthAdjust="spacing" textLength="659" x="567" y="335.7764">accountRepository : AccountRepository, resourceFactory : ResourceFactory) : ResourceService</text><ellipse cx="558" cy="348.7266" fill="#84BE84" rx="3" ry="3" style="stroke:#038048;stroke-width:1.0;"/><text fill="#000000" font-family="sans-serif" font-size="14" lengthAdjust="spacing" textLength="596" x="567" y="352.0732">addResourceToProject(newResourceDTO : NewResourceDTO) : OutputResourceDTO</text><rect fill="#F24D5C" height="6" style="stroke:#C82930;stroke-width:1.0;" width="6" x="555" y="362.0234"/><text fill="#000000" font-family="sans-serif" font-size="14" lengthAdjust="spacing" textLength="305" x="567" y="368.3701">validateResource(newResource : Resource)</text><rect fill="#F24D5C" height="6" style="stroke:#C82930;stroke-width:1.0;" width="6" x="555" y="378.3203"/><text fill="#000000" font-family="sans-serif" font-size="14" lengthAdjust="spacing" textLength="306" x="567" y="384.667">isProfileUser(resource : Resource) : boolean</text><rect fill="#F24D5C" height="6" style="stroke:#C82930;stroke-width:1.0;" width="6" x="555" y="394.6172"/><text fill="#000000" font-family="sans-serif" font-size="14" lengthAdjust="spacing" textLength="349" x="567" y="400.9639">validateResourceTimePeriod(resource : Resource)</text><rect fill="#F24D5C" height="6" style="stroke:#C82930;stroke-width:1.0;" width="6" x="555" y="410.9141"/><text fill="#000000" font-family="sans-serif" font-size="14" lengthAdjust="spacing" textLength="415" x="567" y="417.2607">isResourceOverlapping(newResource : Resource) : boolean</text><rect fill="#F24D5C" height="6" style="stroke:#C82930;stroke-width:1.0;" width="6" x="555" y="427.2109"/><text fill="#000000" font-family="sans-serif" font-size="14" lengthAdjust="spacing" textLength="461" x="567" y="433.5576">roleAlreadyExistsInTimePeriod(newResource : Resource) : boolean</text><rect fill="#F24D5C" height="6" style="stroke:#C82930;stroke-width:1.0;" width="6" x="555" y="443.5078"/><text fill="#000000" font-family="sans-serif" font-size="14" lengthAdjust="spacing" textLength="547" x="567" y="449.8545">isAllocationPercentageUnderOneHundred (newResource : Resource) : boolean</text><ellipse cx="558" cy="462.8047" fill="#84BE84" rx="3" ry="3" style="stroke:#038048;stroke-width:1.0;"/><text fill="#000000" font-family="sans-serif" font-size="14" lengthAdjust="spacing" textLength="693" x="567" y="466.1514">createProjectListByResource(email : String, currentDate : LocalDate) : List&lt;ProjectByResourceDTO&gt;</text><ellipse cx="558" cy="479.1016" fill="#84BE84" rx="3" ry="3" style="stroke:#038048;stroke-width:1.0;"/><text fill="#000000" font-family="sans-serif" font-size="14" lengthAdjust="spacing" textLength="677" x="567" y="482.4482">createHumanResourcesInProjectList(projectCode : String, date : LocalDate) : List&lt;ResourceDTO&gt;</text><ellipse cx="558" cy="495.3984" fill="#84BE84" rx="3" ry="3" style="stroke:#038048;stroke-width:1.0;"/><text fill="#000000" font-family="sans-serif" font-size="14" lengthAdjust="spacing" textLength="460" x="567" y="498.7451">findResourceById(resourceID : ResourceID) : OutputResourceDTO</text></g><!--class ResourceRepository--><g id="elem_ResourceRepository"><rect codeLine="3" fill="#F1F1F1" height="154.0469" id="ResourceRepository" rx="2.5" ry="2.5" style="stroke:#181818;stroke-width:0.5;" width="801" x="506" y="802"/><ellipse cx="832.25" cy="822.1328" fill="#B4A7E5" rx="11" ry="11" style="stroke:#181818;stroke-width:1.0;"/><path d="M828.1719,817.8984 L828.1719,815.7422 L835.5625,815.7422 L835.5625,817.8984 L833.0938,817.8984 L833.0938,825.9766 L835.5625,825.9766 L835.5625,828.1328 L828.1719,828.1328 L828.1719,825.9766 L830.6406,825.9766 L830.6406,817.8984 L828.1719,817.8984 Z " fill="#000000"/><text fill="#000000" font-family="sans-serif" font-size="12" font-style="italic" lengthAdjust="spacing" textLength="80" x="882.75" y="818.1387">&#171;Repository&#187;</text><text fill="#000000" font-family="sans-serif" font-size="14" font-style="italic" lengthAdjust="spacing" textLength="140" x="852.75" y="833.9639">ResourceRepository</text><line style="stroke:#181818;stroke-width:0.5;" x1="507" x2="1306" y1="842.2656" y2="842.2656"/><line style="stroke:#181818;stroke-width:0.5;" x1="507" x2="1306" y1="850.2656" y2="850.2656"/><ellipse cx="517" cy="863.9141" fill="#84BE84" rx="3" ry="3" style="stroke:#038048;stroke-width:1.0;"/><text fill="#000000" font-family="sans-serif" font-size="14" lengthAdjust="spacing" textLength="319" x="526" y="867.2607">findByEmail(Email email) : Iterable&lt;Resource&gt;</text><ellipse cx="517" cy="888.3594" fill="#84BE84" rx="3" ry="3" style="stroke:#038048;stroke-width:1.0;"/><text fill="#000000" font-family="sans-serif" font-size="14" lengthAdjust="spacing" textLength="425" x="526" y="883.5576">findByProjectCodeAndProjectRole(projectCode : ProjectCode,</text><text fill="#000000" font-family="sans-serif" font-size="14" lengthAdjust="spacing" textLength="331" x="526" y="899.8545">projectRole : ProjectRole) : Iterable&lt;Resource&gt;</text><ellipse cx="517" cy="912.8047" fill="#84BE84" rx="3" ry="3" style="stroke:#038048;stroke-width:1.0;"/><text fill="#000000" font-family="sans-serif" font-size="14" lengthAdjust="spacing" textLength="475" x="526" y="916.1514">findByProjectCode(projectCode : ProjectCode) : Iterable&lt;Resource&gt;</text><ellipse cx="517" cy="929.1016" fill="#84BE84" rx="3" ry="3" style="stroke:#038048;stroke-width:1.0;"/><text fill="#000000" font-family="sans-serif" font-size="14" lengthAdjust="spacing" textLength="725" x="526" y="932.4482">findByAccountEmailAndCurrentDate(accountEmail : Email, currentDate : LocalDate) : Iterable&lt;Resource&gt;</text><ellipse cx="517" cy="945.3984" fill="#84BE84" rx="3" ry="3" style="stroke:#038048;stroke-width:1.0;"/><text fill="#000000" font-family="sans-serif" font-size="14" lengthAdjust="spacing" textLength="775" x="526" y="948.7451">findByProjectCodeAndIsAllocatedNow(projectCode : ProjectCode, searchDate : LocalDate) : Iterable&lt;Resource&gt;</text></g><!--class ResourcesInProjectAssembler--><g id="elem_ResourcesInProjectAssembler"><rect codeLine="2" fill="#F1F1F1" height="80.5938" id="ResourcesInProjectAssembler" rx="2.5" ry="2.5" style="stroke:#181818;stroke-width:0.5;" width="511" x="197" y="619.5"/><ellipse cx="344.25" cy="635.5" fill="#ADD1B2" rx="11" ry="11" style="stroke:#181818;stroke-width:1.0;"/><path d="M347.2188,641.1406 Q346.6406,641.4375 346,641.5781 Q345.3594,641.7344 344.6563,641.7344 Q342.1563,641.7344 340.8281,640.0938 Q339.5156,638.4375 339.5156,635.3125 Q339.5156,632.1875 340.8281,630.5313 Q342.1563,628.875 344.6563,628.875 Q345.3594,628.875 346,629.0313 Q346.6563,629.1875 347.2188,629.4844 L347.2188,632.2031 Q346.5938,631.625 346,631.3594 Q345.4063,631.0781 344.7813,631.0781 Q343.4375,631.0781 342.75,632.1563 Q342.0625,633.2188 342.0625,635.3125 Q342.0625,637.4063 342.75,638.4844 Q343.4375,639.5469 344.7813,639.5469 Q345.4063,639.5469 346,639.2813 Q346.5938,639 347.2188,638.4219 L347.2188,641.1406 Z " fill="#000000"/><text fill="#000000" font-family="sans-serif" font-size="14" lengthAdjust="spacing" textLength="208" x="364.75" y="640.3467">ResourcesInProjectAssembler</text><line style="stroke:#181818;stroke-width:0.5;" x1="198" x2="707" y1="651.5" y2="651.5"/><line style="stroke:#181818;stroke-width:0.5;" x1="198" x2="707" y1="659.5" y2="659.5"/><ellipse cx="208" cy="673.1484" fill="#84BE84" rx="3" ry="3" style="stroke:#038048;stroke-width:1.0;"/><text fill="#000000" font-family="sans-serif" font-size="14" lengthAdjust="spacing" text-decoration="underline" textLength="485" x="217" y="676.4951">resourcesInProjectList(resourceIterator : Iterator) : ResourceDTO [0..*]</text><rect fill="#F24D5C" height="6" style="stroke:#C82930;stroke-width:1.0;" width="6" x="205" y="686.4453"/><text fill="#000000" font-family="sans-serif" font-size="14" lengthAdjust="spacing" text-decoration="underline" textLength="357" x="217" y="692.792">generateDTO(resource : Resource) : ResourceDTO</text></g><!--class ResourceDTO--><g id="elem_ResourceDTO"><rect codeLine="2" fill="#F1F1F1" height="162.0781" id="ResourceDTO" rx="2.5" ry="2.5" style="stroke:#181818;stroke-width:0.5;" width="218" x="181.5" y="798"/><ellipse cx="237.25" cy="814" fill="#ADD1B2" rx="11" ry="11" style="stroke:#181818;stroke-width:1.0;"/><path d="M240.2188,819.6406 Q239.6406,819.9375 239,820.0781 Q238.3594,820.2344 237.6563,820.2344 Q235.1563,820.2344 233.8281,818.5938 Q232.5156,816.9375 232.5156,813.8125 Q232.5156,810.6875 233.8281,809.0313 Q235.1563,807.375 237.6563,807.375 Q238.3594,807.375 239,807.5313 Q239.6563,807.6875 240.2188,807.9844 L240.2188,810.7031 Q239.5938,810.125 239,809.8594 Q238.4063,809.5781 237.7813,809.5781 Q236.4375,809.5781 235.75,810.6563 Q235.0625,811.7188 235.0625,813.8125 Q235.0625,815.9063 235.75,816.9844 Q236.4375,818.0469 237.7813,818.0469 Q238.4063,818.0469 239,817.7813 Q239.5938,817.5 240.2188,816.9219 L240.2188,819.6406 Z " fill="#000000"/><text fill="#000000" font-family="sans-serif" font-size="14" lengthAdjust="spacing" textLength="98" x="257.75" y="818.8467">ResourceDTO</text><line style="stroke:#181818;stroke-width:0.5;" x1="182.5" x2="398.5" y1="830" y2="830"/><ellipse cx="192.5" cy="843.6484" fill="none" rx="3" ry="3" style="stroke:#038048;stroke-width:1.0;"/><text fill="#000000" font-family="sans-serif" font-size="14" lengthAdjust="spacing" textLength="89" x="201.5" y="846.9951">email : String</text><ellipse cx="192.5" cy="859.9453" fill="none" rx="3" ry="3" style="stroke:#038048;stroke-width:1.0;"/><text fill="#000000" font-family="sans-serif" font-size="14" lengthAdjust="spacing" textLength="138" x="201.5" y="863.292">projectCode : String</text><ellipse cx="192.5" cy="876.2422" fill="none" rx="3" ry="3" style="stroke:#038048;stroke-width:1.0;"/><text fill="#000000" font-family="sans-serif" font-size="14" lengthAdjust="spacing" textLength="117" x="201.5" y="879.5889">startDate : String</text><ellipse cx="192.5" cy="892.5391" fill="none" rx="3" ry="3" style="stroke:#038048;stroke-width:1.0;"/><text fill="#000000" font-family="sans-serif" font-size="14" lengthAdjust="spacing" textLength="113" x="201.5" y="895.8857">endDate : String</text><ellipse cx="192.5" cy="908.8359" fill="none" rx="3" ry="3" style="stroke:#038048;stroke-width:1.0;"/><text fill="#000000" font-family="sans-serif" font-size="14" lengthAdjust="spacing" textLength="132" x="201.5" y="912.1826">projectRole : String</text><line style="stroke:#181818;stroke-width:0.5;" x1="182.5" x2="398.5" y1="919.4844" y2="919.4844"/><ellipse cx="192.5" cy="933.1328" fill="#84BE84" rx="3" ry="3" style="stroke:#038048;stroke-width:1.0;"/><text fill="#000000" font-family="sans-serif" font-size="14" lengthAdjust="spacing" textLength="192" x="201.5" y="936.4795">equals(o : Object) : boolean</text><ellipse cx="192.5" cy="949.4297" fill="#84BE84" rx="3" ry="3" style="stroke:#038048;stroke-width:1.0;"/><text fill="#000000" font-family="sans-serif" font-size="14" lengthAdjust="spacing" textLength="109" x="201.5" y="952.7764">hashcode() : int</text></g><!--class Resource--><g id="elem_Resource"><rect codeLine="2" fill="#F1F1F1" height="317.0156" id="Resource" rx="2.5" ry="2.5" style="stroke:#181818;stroke-width:0.5;" width="997" x="139" y="1037"/><ellipse cx="578.75" cy="1057.1328" fill="#ADD1B2" rx="11" ry="11" style="stroke:#181818;stroke-width:1.0;"/><path d="M581.7188,1062.7734 Q581.1406,1063.0703 580.5,1063.2109 Q579.8594,1063.3672 579.1563,1063.3672 Q576.6563,1063.3672 575.3281,1061.7266 Q574.0156,1060.0703 574.0156,1056.9453 Q574.0156,1053.8203 575.3281,1052.1641 Q576.6563,1050.5078 579.1563,1050.5078 Q579.8594,1050.5078 580.5,1050.6641 Q581.1563,1050.8203 581.7188,1051.1172 L581.7188,1053.8359 Q581.0938,1053.2578 580.5,1052.9922 Q579.9063,1052.7109 579.2813,1052.7109 Q577.9375,1052.7109 577.25,1053.7891 Q576.5625,1054.8516 576.5625,1056.9453 Q576.5625,1059.0391 577.25,1060.1172 Q577.9375,1061.1797 579.2813,1061.1797 Q579.9063,1061.1797 580.5,1060.9141 Q581.0938,1060.6328 581.7188,1060.0547 L581.7188,1062.7734 Z " fill="#000000"/><text fill="#000000" font-family="sans-serif" font-size="12" font-style="italic" lengthAdjust="spacing" textLength="113" x="597.25" y="1053.1387">&#171;Aggregate Root&#187;</text><text fill="#000000" font-family="sans-serif" font-size="14" lengthAdjust="spacing" textLength="67" x="620.25" y="1068.9639">Resource</text><line style="stroke:#181818;stroke-width:0.5;" x1="140" x2="1135" y1="1077.2656" y2="1077.2656"/><rect fill="none" height="6" style="stroke:#C82930;stroke-width:1.0;" width="6" x="147" y="1087.9141"/><text fill="#000000" font-family="sans-serif" font-size="14" lengthAdjust="spacing" textLength="170" x="159" y="1094.2607">resourceID : ResourceID</text><rect fill="none" height="6" style="stroke:#C82930;stroke-width:1.0;" width="6" x="147" y="1104.2109"/><text fill="#000000" font-family="sans-serif" font-size="14" lengthAdjust="spacing" textLength="178" x="159" y="1110.5576">roleInProject : ProjectRole</text><rect fill="none" height="6" style="stroke:#C82930;stroke-width:1.0;" width="6" x="147" y="1120.5078"/><text fill="#000000" font-family="sans-serif" font-size="14" lengthAdjust="spacing" textLength="335" x="159" y="1126.8545">percentageOfAllocation : PercentageOfAllocation</text><rect fill="none" height="6" style="stroke:#C82930;stroke-width:1.0;" width="6" x="147" y="1136.8047"/><text fill="#000000" font-family="sans-serif" font-size="14" lengthAdjust="spacing" textLength="187" x="159" y="1143.1514">costPerHour : CostPerHour</text><line style="stroke:#181818;stroke-width:0.5;" x1="140" x2="1135" y1="1150.4531" y2="1150.4531"/><polygon fill="#FFFF44" points="150,1159.1016,154,1163.1016,150,1167.1016,146,1163.1016" style="stroke:#B38D22;stroke-width:1.0;"/><text fill="#000000" font-family="sans-serif" font-size="14" lengthAdjust="spacing" textLength="971" x="159" y="1167.4482">Resource(resourceID : ResourceID, roleInProject : ProjectRole, percentageOfAllocation : PercentageOfAllocation, costPerHour : CostPerHour)</text><ellipse cx="150" cy="1180.3984" fill="#84BE84" rx="3" ry="3" style="stroke:#038048;stroke-width:1.0;"/><text fill="#000000" font-family="sans-serif" font-size="14" lengthAdjust="spacing" textLength="246" x="159" y="1183.7451">hasAccount(email : Email) : boolean</text><ellipse cx="150" cy="1196.6953" fill="#84BE84" rx="3" ry="3" style="stroke:#038048;stroke-width:1.0;"/><text fill="#000000" font-family="sans-serif" font-size="14" lengthAdjust="spacing" textLength="368" x="159" y="1200.042">getPercentageOfAllocation() : PercentageOfAllocation</text><ellipse cx="150" cy="1212.9922" fill="#84BE84" rx="3" ry="3" style="stroke:#038048;stroke-width:1.0;"/><text fill="#000000" font-family="sans-serif" font-size="14" lengthAdjust="spacing" textLength="528" x="159" y="1216.3389">isPeriodOverlapping(newResourcePeriodOfAllocation : TimePeriod) : boolean</text><ellipse cx="150" cy="1229.2891" fill="#84BE84" rx="3" ry="3" style="stroke:#038048;stroke-width:1.0;"/><text fill="#000000" font-family="sans-serif" font-size="14" lengthAdjust="spacing" textLength="314" x="159" y="1232.6357">isAllocated(searchDate : LocalDate) : boolean</text><ellipse cx="150" cy="1245.5859" fill="#84BE84" rx="3" ry="3" style="stroke:#038048;stroke-width:1.0;"/><text fill="#000000" font-family="sans-serif" font-size="14" lengthAdjust="spacing" textLength="216" x="159" y="1248.9326">getRoleInProject() : ProjectRole</text><ellipse cx="150" cy="1261.8828" fill="#84BE84" rx="3" ry="3" style="stroke:#038048;stroke-width:1.0;"/><text fill="#000000" font-family="sans-serif" font-size="14" lengthAdjust="spacing" textLength="222" x="159" y="1265.2295">getCostPerHour() : CostPerHour</text><ellipse cx="150" cy="1278.1797" fill="#84BE84" rx="3" ry="3" style="stroke:#038048;stroke-width:1.0;"/><text fill="#000000" font-family="sans-serif" font-size="14" lengthAdjust="spacing" textLength="154" x="159" y="1281.5264">identity() : ResourceID</text><ellipse cx="150" cy="1294.4766" fill="#84BE84" rx="3" ry="3" style="stroke:#038048;stroke-width:1.0;"/><text fill="#000000" font-family="sans-serif" font-size="14" lengthAdjust="spacing" textLength="235" x="159" y="1297.8232">sameAs(object : Object) : boolean</text><ellipse cx="150" cy="1310.7734" fill="#84BE84" rx="3" ry="3" style="stroke:#038048;stroke-width:1.0;"/><text fill="#000000" font-family="sans-serif" font-size="14" lengthAdjust="spacing" textLength="192" x="159" y="1314.1201">equals(o : Object) : boolean</text><ellipse cx="150" cy="1327.0703" fill="#84BE84" rx="3" ry="3" style="stroke:#038048;stroke-width:1.0;"/><text fill="#000000" font-family="sans-serif" font-size="14" lengthAdjust="spacing" textLength="111" x="159" y="1330.417">hashCode() : int</text><ellipse cx="150" cy="1343.3672" fill="#84BE84" rx="3" ry="3" style="stroke:#038048;stroke-width:1.0;"/><text fill="#000000" font-family="sans-serif" font-size="14" lengthAdjust="spacing" textLength="376" x="159" y="1346.7139">resourceVerificationOfDate(date : LocalDate) : boolean</text></g><!--class ResourceID--><g id="elem_ResourceID"><rect codeLine="3" fill="#F1F1F1" height="249.5" id="ResourceID" rx="2.5" ry="2.5" style="stroke:#181818;stroke-width:0.5;" width="679" x="1021" y="1431"/><ellipse cx="1312.25" cy="1458.1172" fill="#ADD1B2" rx="11" ry="11" style="stroke:#181818;stroke-width:1.0;"/><path d="M1315.2188,1463.7578 Q1314.6406,1464.0547 1314,1464.1953 Q1313.3594,1464.3516 1312.6563,1464.3516 Q1310.1563,1464.3516 1308.8281,1462.7109 Q1307.5156,1461.0547 1307.5156,1457.9297 Q1307.5156,1454.8047 1308.8281,1453.1484 Q1310.1563,1451.4922 1312.6563,1451.4922 Q1313.3594,1451.4922 1314,1451.6484 Q1314.6563,1451.8047 1315.2188,1452.1016 L1315.2188,1454.8203 Q1314.5938,1454.2422 1314,1453.9766 Q1313.4063,1453.6953 1312.7813,1453.6953 Q1311.4375,1453.6953 1310.75,1454.7734 Q1310.0625,1455.8359 1310.0625,1457.9297 Q1310.0625,1460.0234 1310.75,1461.1016 Q1311.4375,1462.1641 1312.7813,1462.1641 Q1313.4063,1462.1641 1314,1461.8984 Q1314.5938,1461.6172 1315.2188,1461.0391 L1315.2188,1463.7578 Z " fill="#000000"/><text fill="#000000" font-family="sans-serif" font-size="12" font-style="italic" lengthAdjust="spacing" textLength="78" x="1337.75" y="1447.1387">&#171;Domain ID&#187;</text><text fill="#000000" font-family="sans-serif" font-size="12" font-style="italic" lengthAdjust="spacing" textLength="92" x="1330.75" y="1461.1074">&#171;Value Object&#187;</text><text fill="#000000" font-family="sans-serif" font-size="14" lengthAdjust="spacing" textLength="81" x="1336.25" y="1476.9326">ResourceID</text><line style="stroke:#181818;stroke-width:0.5;" x1="1022" x2="1699" y1="1485.2344" y2="1485.2344"/><rect fill="none" height="6" style="stroke:#C82930;stroke-width:1.0;" width="6" x="1029" y="1495.8828"/><text fill="#000000" font-family="sans-serif" font-size="14" lengthAdjust="spacing" textLength="147" x="1041" y="1502.2295">resourceEmail : Email</text><rect fill="none" height="6" style="stroke:#C82930;stroke-width:1.0;" width="6" x="1029" y="1512.1797"/><text fill="#000000" font-family="sans-serif" font-size="14" lengthAdjust="spacing" textLength="183" x="1041" y="1518.5264">projectCode : ProjectCode</text><rect fill="none" height="6" style="stroke:#C82930;stroke-width:1.0;" width="6" x="1029" y="1528.4766"/><text fill="#000000" font-family="sans-serif" font-size="14" lengthAdjust="spacing" textLength="216" x="1041" y="1534.8232">periodOfAllocation : TimePeriod</text><line style="stroke:#181818;stroke-width:0.5;" x1="1022" x2="1699" y1="1542.125" y2="1542.125"/><ellipse cx="1032" cy="1555.7734" fill="#84BE84" rx="3" ry="3" style="stroke:#038048;stroke-width:1.0;"/><text fill="#000000" font-family="sans-serif" font-size="14" lengthAdjust="spacing" textLength="653" x="1041" y="1559.1201">ResourceID(resourceEmail : Email, projectCode : ProjectCode, periodOfAllocation : TimePeriod)</text><ellipse cx="1032" cy="1572.0703" fill="#84BE84" rx="3" ry="3" style="stroke:#038048;stroke-width:1.0;"/><text fill="#000000" font-family="sans-serif" font-size="14" lengthAdjust="spacing" textLength="249" x="1041" y="1575.417">getPeriodOfAllocation() : TimePeriod</text><ellipse cx="1032" cy="1588.3672" fill="#84BE84" rx="3" ry="3" style="stroke:#038048;stroke-width:1.0;"/><text fill="#000000" font-family="sans-serif" font-size="14" lengthAdjust="spacing" textLength="185" x="1041" y="1591.7139">getResourceEmail() : Email</text><ellipse cx="1032" cy="1604.6641" fill="#84BE84" rx="3" ry="3" style="stroke:#038048;stroke-width:1.0;"/><text fill="#000000" font-family="sans-serif" font-size="14" lengthAdjust="spacing" textLength="216" x="1041" y="1608.0107">getProjectCode() : ProjectCode</text><ellipse cx="1032" cy="1620.9609" fill="#84BE84" rx="3" ry="3" style="stroke:#038048;stroke-width:1.0;"/><text fill="#000000" font-family="sans-serif" font-size="14" lengthAdjust="spacing" textLength="225" x="1041" y="1624.3076">hasEmail(email : Email) : boolean</text><ellipse cx="1032" cy="1637.2578" fill="#84BE84" rx="3" ry="3" style="stroke:#038048;stroke-width:1.0;"/><text fill="#000000" font-family="sans-serif" font-size="14" lengthAdjust="spacing" textLength="192" x="1041" y="1640.6045">equals(o : Object) : boolean</text><ellipse cx="1032" cy="1653.5547" fill="#84BE84" rx="3" ry="3" style="stroke:#038048;stroke-width:1.0;"/><text fill="#000000" font-family="sans-serif" font-size="14" lengthAdjust="spacing" textLength="111" x="1041" y="1656.9014">hashCode() : int</text><ellipse cx="1032" cy="1669.8516" fill="#84BE84" rx="3" ry="3" style="stroke:#038048;stroke-width:1.0;"/><text fill="#000000" font-family="sans-serif" font-size="14" lengthAdjust="spacing" textLength="117" x="1041" y="1673.1982">toString() : String</text></g><!--class Repository--><g id="elem_Repository"><rect codeLine="4" fill="#F1F1F1" height="154.0469" id="Repository" rx="2.5" ry="2.5" style="stroke:#181818;stroke-width:0.5;" width="232" x="790.5" y="583"/><ellipse cx="864.25" cy="603.1328" fill="#B4A7E5" rx="11" ry="11" style="stroke:#181818;stroke-width:1.0;"/><path d="M860.1719,598.8984 L860.1719,596.7422 L867.5625,596.7422 L867.5625,598.8984 L865.0938,598.8984 L865.0938,606.9766 L867.5625,606.9766 L867.5625,609.1328 L860.1719,609.1328 L860.1719,606.9766 L862.6406,606.9766 L862.6406,598.8984 L860.1719,598.8984 Z " fill="#000000"/><text fill="#000000" font-family="sans-serif" font-size="12" font-style="italic" lengthAdjust="spacing" textLength="80" x="882.75" y="599.1387">&#171;Repository&#187;</text><text fill="#000000" font-family="sans-serif" font-size="14" font-style="italic" lengthAdjust="spacing" textLength="74" x="885.75" y="614.9639">Repository</text><line style="stroke:#181818;stroke-width:0.5;" x1="791.5" x2="1021.5" y1="623.2656" y2="623.2656"/><line style="stroke:#181818;stroke-width:0.5;" x1="791.5" x2="1021.5" y1="631.2656" y2="631.2656"/><ellipse cx="801.5" cy="644.9141" fill="#84BE84" rx="3" ry="3" style="stroke:#038048;stroke-width:1.0;"/><text fill="#000000" font-family="sans-serif" font-size="14" lengthAdjust="spacing" textLength="124" x="810.5" y="648.2607">save(entity : T) : T</text><ellipse cx="801.5" cy="661.2109" fill="#84BE84" rx="3" ry="3" style="stroke:#038048;stroke-width:1.0;"/><text fill="#000000" font-family="sans-serif" font-size="14" lengthAdjust="spacing" textLength="147" x="810.5" y="664.5576">findAll() : Iterable&lt;T&gt;</text><ellipse cx="801.5" cy="677.5078" fill="#84BE84" rx="3" ry="3" style="stroke:#038048;stroke-width:1.0;"/><text fill="#000000" font-family="sans-serif" font-size="14" lengthAdjust="spacing" textLength="206" x="810.5" y="680.8545">findById(id : ID) : Optional&lt;T&gt;</text><ellipse cx="801.5" cy="693.8047" fill="#84BE84" rx="3" ry="3" style="stroke:#038048;stroke-width:1.0;"/><text fill="#000000" font-family="sans-serif" font-size="14" lengthAdjust="spacing" textLength="187" x="810.5" y="697.1514">existsById(id : ID) : boolean</text><ellipse cx="801.5" cy="710.1016" fill="#84BE84" rx="3" ry="3" style="stroke:#038048;stroke-width:1.0;"/><text fill="#000000" font-family="sans-serif" font-size="14" lengthAdjust="spacing" textLength="69" x="810.5" y="713.4482">deleteAll()</text><ellipse cx="801.5" cy="726.3984" fill="#84BE84" rx="3" ry="3" style="stroke:#038048;stroke-width:1.0;"/><text fill="#000000" font-family="sans-serif" font-size="14" lengthAdjust="spacing" textLength="126" x="810.5" y="729.7451">deleteById (id : ID)</text></g><!--class ProjectRole--><g id="elem_ProjectRole"><rect codeLine="2" fill="#F1F1F1" height="235.5313" id="ProjectRole" rx="2.5" ry="2.5" style="stroke:#181818;stroke-width:0.5;" width="215" x="7" y="1438"/><ellipse cx="66.25" cy="1458.1328" fill="#EB937F" rx="11" ry="11" style="stroke:#181818;stroke-width:1.0;"/><path d="M70.3594,1464.1328 L62.6406,1464.1328 L62.6406,1451.7422 L70.3594,1451.7422 L70.3594,1453.8984 L65.0938,1453.8984 L65.0938,1456.5703 L69.8594,1456.5703 L69.8594,1458.7266 L65.0938,1458.7266 L65.0938,1461.9766 L70.3594,1461.9766 L70.3594,1464.1328 Z " fill="#000000"/><text fill="#000000" font-family="sans-serif" font-size="12" font-style="italic" lengthAdjust="spacing" textLength="92" x="84.75" y="1454.1387">&#171;Value Object&#187;</text><text fill="#000000" font-family="sans-serif" font-size="14" lengthAdjust="spacing" textLength="79" x="91.25" y="1469.9639">ProjectRole</text><line style="stroke:#181818;stroke-width:0.5;" x1="8" x2="221" y1="1478.2656" y2="1478.2656"/><text fill="#000000" font-family="sans-serif" font-size="14" lengthAdjust="spacing" textLength="130" x="27" y="1495.2607">PRODUCT_OWNER</text><text fill="#000000" font-family="sans-serif" font-size="14" lengthAdjust="spacing" textLength="116" x="27" y="1511.5576">SCRUM_MASTER</text><text fill="#000000" font-family="sans-serif" font-size="14" lengthAdjust="spacing" textLength="108" x="27" y="1527.8545">TEAM_MEMBER</text><text fill="#000000" font-family="sans-serif" font-size="14" lengthAdjust="spacing" textLength="138" x="27" y="1544.1514">PROJECT_MANAGER</text><text fill="#000000" font-family="sans-serif" font-size="14" lengthAdjust="spacing" textLength="4" x="27" y="1560.4482">&#160;</text><rect fill="none" height="6" style="stroke:#C82930;stroke-width:1.0;" width="6" x="15" y="1570.3984"/><text fill="#000000" font-family="sans-serif" font-size="14" lengthAdjust="spacing" textLength="162" x="27" y="1576.7451">role : String {readOnly}</text><line style="stroke:#181818;stroke-width:0.5;" x1="8" x2="221" y1="1584.0469" y2="1584.0469"/><ellipse cx="18" cy="1597.6953" fill="#84BE84" rx="3" ry="3" style="stroke:#038048;stroke-width:1.0;"/><text fill="#000000" font-family="sans-serif" font-size="14" lengthAdjust="spacing" textLength="168" x="27" y="1601.042">ProjectRole(role : String)</text><ellipse cx="18" cy="1613.9922" fill="#84BE84" rx="3" ry="3" style="stroke:#038048;stroke-width:1.0;"/><text fill="#000000" font-family="sans-serif" font-size="14" lengthAdjust="spacing" text-decoration="underline" textLength="160" x="27" y="1617.3389">fromString(role : String)</text><ellipse cx="18" cy="1630.2891" fill="#84BE84" rx="3" ry="3" style="stroke:#038048;stroke-width:1.0;"/><text fill="#000000" font-family="sans-serif" font-size="14" lengthAdjust="spacing" textLength="189" x="27" y="1633.6357">isProductOwner() : boolean</text><ellipse cx="18" cy="1646.5859" fill="#84BE84" rx="3" ry="3" style="stroke:#038048;stroke-width:1.0;"/><text fill="#000000" font-family="sans-serif" font-size="14" lengthAdjust="spacing" textLength="181" x="27" y="1649.9326">isScrumMaster() : boolean</text><ellipse cx="18" cy="1662.8828" fill="#84BE84" rx="3" ry="3" style="stroke:#038048;stroke-width:1.0;"/><text fill="#000000" font-family="sans-serif" font-size="14" lengthAdjust="spacing" textLength="186" x="27" y="1666.2295">isTeamMember() : boolean</text></g><!--class PercentageOfAllocation--><g id="elem_PercentageOfAllocation"><rect codeLine="3" fill="#F1F1F1" height="137.75" id="PercentageOfAllocation" rx="2.5" ry="2.5" style="stroke:#181818;stroke-width:0.5;" width="420" x="257.5" y="1487"/><ellipse cx="382.75" cy="1507.1328" fill="#ADD1B2" rx="11" ry="11" style="stroke:#181818;stroke-width:1.0;"/><path d="M385.7188,1512.7734 Q385.1406,1513.0703 384.5,1513.2109 Q383.8594,1513.3672 383.1563,1513.3672 Q380.6563,1513.3672 379.3281,1511.7266 Q378.0156,1510.0703 378.0156,1506.9453 Q378.0156,1503.8203 379.3281,1502.1641 Q380.6563,1500.5078 383.1563,1500.5078 Q383.8594,1500.5078 384.5,1500.6641 Q385.1563,1500.8203 385.7188,1501.1172 L385.7188,1503.8359 Q385.0938,1503.2578 384.5,1502.9922 Q383.9063,1502.7109 383.2813,1502.7109 Q381.9375,1502.7109 381.25,1503.7891 Q380.5625,1504.8516 380.5625,1506.9453 Q380.5625,1509.0391 381.25,1510.1172 Q381.9375,1511.1797 383.2813,1511.1797 Q383.9063,1511.1797 384.5,1510.9141 Q385.0938,1510.6328 385.7188,1510.0547 L385.7188,1512.7734 Z " fill="#000000"/><text fill="#000000" font-family="sans-serif" font-size="12" font-style="italic" lengthAdjust="spacing" textLength="92" x="437.75" y="1503.1387">&#171;Value Object&#187;</text><text fill="#000000" font-family="sans-serif" font-size="14" lengthAdjust="spacing" textLength="161" x="403.25" y="1518.9639">PercentageOfAllocation</text><line style="stroke:#181818;stroke-width:0.5;" x1="258.5" x2="676.5" y1="1527.2656" y2="1527.2656"/><rect fill="none" height="6" style="stroke:#C82930;stroke-width:1.0;" width="6" x="265.5" y="1537.9141"/><text fill="#000000" font-family="sans-serif" font-size="14" lengthAdjust="spacing" textLength="223" x="277.5" y="1544.2607">percentageOfAllocation : Integer</text><line style="stroke:#181818;stroke-width:0.5;" x1="258.5" x2="676.5" y1="1551.5625" y2="1551.5625"/><ellipse cx="268.5" cy="1565.2109" fill="#84BE84" rx="3" ry="3" style="stroke:#038048;stroke-width:1.0;"/><text fill="#000000" font-family="sans-serif" font-size="14" lengthAdjust="spacing" textLength="394" x="277.5" y="1568.5576">PercentageOfAllocation(percentageOfAllocation : Integer)</text><ellipse cx="268.5" cy="1581.5078" fill="#84BE84" rx="3" ry="3" style="stroke:#038048;stroke-width:1.0;"/><text fill="#000000" font-family="sans-serif" font-size="14" lengthAdjust="spacing" textLength="213" x="277.5" y="1584.8545">getPercentageValue() : Integer</text><ellipse cx="268.5" cy="1597.8047" fill="#84BE84" rx="3" ry="3" style="stroke:#038048;stroke-width:1.0;"/><text fill="#000000" font-family="sans-serif" font-size="14" lengthAdjust="spacing" textLength="226" x="277.5" y="1601.1514">equals(object : Object) : boolean</text><ellipse cx="268.5" cy="1614.1016" fill="#84BE84" rx="3" ry="3" style="stroke:#038048;stroke-width:1.0;"/><text fill="#000000" font-family="sans-serif" font-size="14" lengthAdjust="spacing" textLength="111" x="277.5" y="1617.4482">hashCode() : int</text></g><!--class CostPerHour--><g id="elem_CostPerHour"><rect codeLine="2" fill="#F1F1F1" height="121.4531" id="CostPerHour" rx="2.5" ry="2.5" style="stroke:#181818;stroke-width:0.5;" width="273" x="713" y="1495.5"/><ellipse cx="801.25" cy="1515.6328" fill="#ADD1B2" rx="11" ry="11" style="stroke:#181818;stroke-width:1.0;"/><path d="M804.2188,1521.2734 Q803.6406,1521.5703 803,1521.7109 Q802.3594,1521.8672 801.6563,1521.8672 Q799.1563,1521.8672 797.8281,1520.2266 Q796.5156,1518.5703 796.5156,1515.4453 Q796.5156,1512.3203 797.8281,1510.6641 Q799.1563,1509.0078 801.6563,1509.0078 Q802.3594,1509.0078 803,1509.1641 Q803.6563,1509.3203 804.2188,1509.6172 L804.2188,1512.3359 Q803.5938,1511.7578 803,1511.4922 Q802.4063,1511.2109 801.7813,1511.2109 Q800.4375,1511.2109 799.75,1512.2891 Q799.0625,1513.3516 799.0625,1515.4453 Q799.0625,1517.5391 799.75,1518.6172 Q800.4375,1519.6797 801.7813,1519.6797 Q802.4063,1519.6797 803,1519.4141 Q803.5938,1519.1328 804.2188,1518.5547 L804.2188,1521.2734 Z " fill="#000000"/><text fill="#000000" font-family="sans-serif" font-size="12" font-style="italic" lengthAdjust="spacing" textLength="92" x="819.75" y="1511.6387">&#171;Value Object&#187;</text><text fill="#000000" font-family="sans-serif" font-size="14" lengthAdjust="spacing" textLength="88" x="821.75" y="1527.4639">CostPerHour</text><line style="stroke:#181818;stroke-width:0.5;" x1="714" x2="985" y1="1535.7656" y2="1535.7656"/><rect fill="none" height="6" style="stroke:#C82930;stroke-width:1.0;" width="6" x="721" y="1546.4141"/><text fill="#000000" font-family="sans-serif" font-size="14" lengthAdjust="spacing" textLength="149" x="733" y="1552.7607">costPerHour : Double</text><line style="stroke:#181818;stroke-width:0.5;" x1="714" x2="985" y1="1560.0625" y2="1560.0625"/><ellipse cx="724" cy="1573.7109" fill="#84BE84" rx="3" ry="3" style="stroke:#038048;stroke-width:1.0;"/><text fill="#000000" font-family="sans-serif" font-size="14" lengthAdjust="spacing" textLength="247" x="733" y="1577.0576">CostPerHour(costPerHour : Double)</text><ellipse cx="724" cy="1590.0078" fill="#84BE84" rx="3" ry="3" style="stroke:#038048;stroke-width:1.0;"/><text fill="#000000" font-family="sans-serif" font-size="14" lengthAdjust="spacing" textLength="226" x="733" y="1593.3545">equals(object : Object) : boolean</text><ellipse cx="724" cy="1606.3047" fill="#84BE84" rx="3" ry="3" style="stroke:#038048;stroke-width:1.0;"/><text fill="#000000" font-family="sans-serif" font-size="14" lengthAdjust="spacing" textLength="111" x="733" y="1609.6514">hashCode() : int</text></g><!--link ListHumanResourcesController to ResourceService--><g id="link_ListHumanResourcesController_ResourceService"><path codeLine="14" d="M906.5,104.05 C906.5,124.37 906.5,149.44 906.5,175.6 " fill="none" id="ListHumanResourcesController-to-ResourceService" style="stroke:#181818;stroke-width:1.0;"/><polygon fill="#181818" points="906.5,180.84,910.5,171.84,906.5,175.84,902.5,171.84,906.5,180.84" style="stroke:#181818;stroke-width:1.0;"/><text fill="#000000" font-family="sans-serif" font-size="13" lengthAdjust="spacing" textLength="103" x="907.5" y="147.0669">resourceService</text></g><!--link ResourceService to Repository--><g id="link_ResourceService_Repository"><path codeLine="15" d="M906.5,506.36 C906.5,531.02 906.5,555.53 906.5,577.46 " fill="none" id="ResourceService-to-Repository" style="stroke:#181818;stroke-width:1.0;"/><polygon fill="#181818" points="906.5,582.68,910.5,573.68,906.5,577.68,902.5,573.68,906.5,582.68" style="stroke:#181818;stroke-width:1.0;"/><text fill="#000000" font-family="sans-serif" font-size="13" lengthAdjust="spacing" textLength="123" x="907.5" y="549.0669">resourceRepository</text></g><!--reverse link Repository to ResourceRepository--><g id="link_Repository_ResourceRepository"><path codeLine="16" d="M906.5,757.3 C906.5,772.27 906.5,787.55 906.5,801.98 " fill="none" id="Repository-backto-ResourceRepository" style="stroke:#181818;stroke-width:1.0;stroke-dasharray:7.0,7.0;"/><polygon fill="none" points="899.5,757.2,906.5,737.2,913.5,757.2,899.5,757.2" style="stroke:#181818;stroke-width:1.0;"/></g><!--link ResourceService to ResourceID--><g id="link_ResourceService_ResourceID"><path codeLine="17" d="M1266.16,485.77 C1321.4,530.13 1360.5,586.97 1360.5,659 C1360.5,659 1360.5,659 1360.5,1196.5 C1360.5,1272.48 1360.5,1357.51 1360.5,1425.69 " fill="none" id="ResourceService-to-ResourceID" style="stroke:#181818;stroke-width:1.0;stroke-dasharray:7.0,7.0;"/><polygon fill="#181818" points="1360.5,1430.98,1364.5,1421.98,1360.5,1425.98,1356.5,1421.98,1360.5,1430.98" style="stroke:#181818;stroke-width:1.0;"/></g><!--link ResourceService to ResourcesInProjectAssembler--><g id="link_ResourceService_ResourcesInProjectAssembler"><path codeLine="19" d="M673.18,506.13 C614.31,546.91 556,587.3 514.12,616.32 " fill="none" id="ResourceService-to-ResourcesInProjectAssembler" style="stroke:#181818;stroke-width:1.0;stroke-dasharray:7.0,7.0;"/><polygon fill="#181818" points="509.86,619.27,519.5339,617.4219,513.9668,616.418,514.9707,610.851,509.86,619.27" style="stroke:#181818;stroke-width:1.0;"/></g><!--link ResourcesInProjectAssembler to ResourceDTO--><g id="link_ResourcesInProjectAssembler_ResourceDTO"><path codeLine="20" d="M422.98,700.55 C403.59,726.52 377.48,761.49 353.56,793.53 " fill="none" id="ResourcesInProjectAssembler-to-ResourceDTO" style="stroke:#181818;stroke-width:1.0;stroke-dasharray:7.0,7.0;"/><polygon fill="#181818" points="350.36,797.82,358.949,793.0003,353.3508,793.8131,352.538,788.215,350.36,797.82" style="stroke:#181818;stroke-width:1.0;"/></g><!--link ResourcesInProjectAssembler to Resource--><g id="link_ResourcesInProjectAssembler_Resource"><path codeLine="21" d="M451.77,700.98 C451.91,759.55 456.85,871.37 488.5,960 C497.24,984.48 508.91,1009.05 521.88,1032.58 " fill="none" id="ResourcesInProjectAssembler-to-Resource" style="stroke:#181818;stroke-width:1.0;stroke-dasharray:7.0,7.0;"/><polygon fill="#181818" points="524.31,1036.96,523.4358,1027.15,521.8818,1032.5892,516.4426,1031.0352,524.31,1036.96" style="stroke:#181818;stroke-width:1.0;"/></g><!--link ResourceRepository to Resource--><g id="link_ResourceRepository_Resource"><path codeLine="23" d="M832.89,966.06 C816.67,985.03 798.94,1005.76 780.99,1026.73 " fill="none" id="ResourceRepository-Resource" style="stroke:#181818;stroke-width:1.0;"/><polygon fill="#181818" points="841.38,956.13,834.4401,958.089,833.5792,965.2485,840.5191,963.2895,841.38,956.13" style="stroke:#181818;stroke-width:1.0;"/><polygon fill="#181818" points="772.46,1036.71,781.3466,1032.464,775.7072,1032.9079,775.2632,1027.2685,772.46,1036.71" style="stroke:#181818;stroke-width:1.0;"/><line style="stroke:#181818;stroke-width:1.0;" x1="775.7072" x2="780.91" y1="1032.9079" y2="1026.835"/><text fill="#000000" font-family="sans-serif" font-size="13" lengthAdjust="spacing" textLength="78" x="813.5" y="1003.0669">resourceList</text><text fill="#000000" font-family="sans-serif" font-size="13" lengthAdjust="spacing" textLength="8" x="827.008" y="976.0027">1</text><text fill="#000000" font-family="sans-serif" font-size="13" lengthAdjust="spacing" textLength="7" x="771.8276" y="1025.7251">*</text></g><!--link Resource to ResourceID--><g id="link_Resource_ResourceID"><path codeLine="25" d="M955.14,1354 C1005.46,1378.95 1056.93,1404.48 1105.57,1428.59 " fill="none" id="Resource-to-ResourceID" style="stroke:#181818;stroke-width:1.0;"/><polygon fill="#181818" points="1110.27,1430.92,1103.9896,1423.3334,1105.7922,1428.6953,1100.4302,1430.4979,1110.27,1430.92" style="stroke:#181818;stroke-width:1.0;"/><text fill="#000000" font-family="sans-serif" font-size="13" lengthAdjust="spacing" textLength="69" x="1042.5" y="1397.0669">resourceID</text></g><!--link Resource to ProjectRole--><g id="link_Resource_ProjectRole"><path codeLine="26" d="M350.27,1354.03 C312.03,1378.35 274.11,1404.31 239.5,1431 C235.05,1434.43 230.6,1438.01 226.16,1441.69 " fill="none" id="Resource-to-ProjectRole" style="stroke:#181818;stroke-width:1.0;"/><polygon fill="#181818" points="222.1,1445.1,231.5648,1442.3766,225.9294,1441.885,226.4209,1436.2496,222.1,1445.1" style="stroke:#181818;stroke-width:1.0;"/></g><!--link Resource to PercentageOfAllocation--><g id="link_Resource_PercentageOfAllocation"><path codeLine="27" d="M562.81,1354 C541.65,1398.62 519.63,1445.07 502.09,1482.06 " fill="none" id="Resource-to-PercentageOfAllocation" style="stroke:#181818;stroke-width:1.0;"/><polygon fill="#181818" points="499.76,1486.98,507.233,1480.5648,501.9041,1482.4631,500.0059,1477.1342,499.76,1486.98" style="stroke:#181818;stroke-width:1.0;"/></g><!--link Resource to CostPerHour--><g id="link_Resource_CostPerHour"><path codeLine="28" d="M730.64,1354 C759.16,1402.24 788.95,1452.6 811.57,1490.85 " fill="none" id="Resource-to-CostPerHour" style="stroke:#181818;stroke-width:1.0;"/><polygon fill="#181818" points="814.29,1495.46,813.1519,1485.6771,811.7449,1491.1562,806.2658,1489.7493,814.29,1495.46" style="stroke:#181818;stroke-width:1.0;"/></g><!--SRC=[jLF1QeGm5BpdAx8U5pRIQoc5PJsiKDZ5zYvfyYefCP4aBXJwySrYhOc8z61443FpPf9vUJkXcEmvO4BouTKtC5JAkZFw4vZBELZHg9n9QctD1MqCROS_iEEtvfpdByAwSzzILO7LlM5WJrevewK4Gxg-bMYtdTdeyGhc9XWaqw-WqrOuRRwIMTXINOVQeyVQzvHn5M-NPDh9XCiYWNIojlxsij9o-qIkuEDGZZPm-JXAgHbrGglDRKxQEczrzkaFscXjjl7Xy8ndyuWViObNq9mnL8rj20gcHHJWJz-4u6g94iiICcscBD0glZ1vQ0MBQlqa_PixxI8uKFQGuVqzX6oV_J636EwHJuLHo6KHyFmX8r9m_sR0ukM9EK7daNz-0000]--></g></svg>