<?xml version="1.0" encoding="us-ascii" standalone="no"?><svg xmlns="http://www.w3.org/2000/svg" xmlns:xlink="http://www.w3.org/1999/xlink" contentStyleType="text/css" height="696px" preserveAspectRatio="none" style="width:1100px;height:696px;background:#FFFFFF;" version="1.1" viewBox="0 0 1100 696" width="1100px" zoomAndPan="magnify"><defs/><g><text fill="#000000" font-family="sans-serif" font-size="14" font-weight="bold" lengthAdjust="spacing" textLength="827" x="135" y="32.9951">US036 - As a PO/SM/Team Member, I want to consult the Sprint Backlog of a chosen sprint in the web UI.</text><rect fill="#F1F1F1" height="36.2969" rx="12.5" ry="12.5" style="stroke:#181818;stroke-width:1.5;" width="106.3333" x="495.8333" y="47.2969"/><path d="M511.5,60.7604 C508.9217,60.7604 506.8333,62.8487 506.8333,65.4271 C506.8333,68.0054 508.9217,70.0938 511.5,70.0938 C514.0783,70.0938 516.1667,68.0054 516.1667,65.4271 C516.1667,62.8487 514.0783,60.7604 511.5,60.7604 M511.5,61.9271 C511.885,61.9271 512.2467,62.0321 512.5967,62.1488 C512.3517,62.3821 512.0717,62.5921 512.1183,62.8021 C512.165,63.0121 512.9233,62.9538 512.9233,63.3854 C512.9233,63.7004 512.4333,63.7937 512.7717,64.1554 C513.18,64.5638 512.025,65.2988 512.0017,65.8354 C511.9667,66.8038 512.9817,66.9671 513.7867,66.9671 C514.2767,66.9671 514.405,67.2004 514.37,67.4804 C513.74,68.3788 512.6667,68.9388 511.4883,68.9388 C511.045,68.9388 510.6367,68.8338 510.2517,68.6821 C510.5083,68.1688 509.925,67.1538 509.3767,66.8271 C509.1083,66.5588 508.5367,66.6638 508.21,66.5354 C508.105,66.2204 508,65.9054 507.9883,65.5554 C508.0233,65.4971 508.0817,65.4504 508.175,65.4504 C508.3967,65.4504 508.7,65.8938 508.8633,65.8471 C509.0733,65.8004 508,64.3188 508.5017,64.0271 C508.735,63.8871 509.2017,64.4821 509.05,63.8404 C508.91,63.2454 509.47,63.5137 509.82,63.3621 C510.1233,63.2338 510.345,62.8838 509.9717,62.6738 C509.9017,62.6387 509.82,62.5571 509.715,62.4521 C510.24,62.1371 510.8467,61.9388 511.5,61.9388 M514.195,63.1988 C514.405,63.4554 514.5683,63.7354 514.7083,64.0388 C514.7083,64.0504 514.7083,64.0621 514.7083,64.0738 C514.6617,64.1554 514.58,64.2021 514.4517,64.3304 C514.125,64.6571 514.0783,64.0854 513.9383,63.9688 C513.7867,63.8288 513.2383,63.9921 513.1683,63.8171 C513.0867,63.6071 513.7517,63.3271 514.195,63.1988 " fill="#000000" style="stroke:;stroke-width:0.0;stroke-dasharray:;"/><text fill="#000000" font-family="sans-serif" font-size="14" lengthAdjust="spacing" textLength="75" x="517.1667" y="70.292">Application</text><rect fill="#F1F1F1" height="36.2969" rx="12.5" ry="12.5" style="stroke:#181818;stroke-width:1.5;" width="67" x="24" y="108.5938"/><text fill="#000000" font-family="sans-serif" font-size="14" lengthAdjust="spacing" textLength="47" x="34" y="131.5889">Navbar</text><rect fill="#F1F1F1" height="36.2969" rx="12.5" ry="12.5" style="stroke:#181818;stroke-width:1.5;" width="75" x="20" y="169.8906"/><text fill="#000000" font-family="sans-serif" font-size="14" lengthAdjust="spacing" textLength="55" x="30" y="192.8857">NavItem</text><path d="M57.5,144.8906 L57.5,147.8906 C57.5,154.8906 57.5,159.8906 57.5,166.8906 L57.5,169.8906 " fill="none" style="stroke:#181818;stroke-width:1.0;"/><path d="M549,83.5938 L549,86.5938 C549,93.5938 57.5,98.5938 57.5,105.5938 L57.5,108.5938 " fill="none" style="stroke:#181818;stroke-width:1.0;"/><rect fill="#F1F1F1" height="36.2969" rx="12.5" ry="12.5" style="stroke:#181818;stroke-width:1.5;" width="94" x="549.5" y="108.5938"/><text fill="#000000" font-family="sans-serif" font-size="14" lengthAdjust="spacing" textLength="74" x="559.5" y="131.5889">MainRoute</text><rect fill="#F1F1F1" height="36.2969" rx="12.5" ry="12.5" style="stroke:#181818;stroke-width:1.5;" width="76" x="558.5" y="169.8906"/><text fill="#000000" font-family="sans-serif" font-size="14" lengthAdjust="spacing" textLength="56" x="568.5" y="192.8857">Projects</text><rect fill="#F1F1F1" height="36.2969" rx="12.5" ry="12.5" style="stroke:#181818;stroke-width:1.5;" width="103" x="545" y="231.1875"/><text fill="#000000" font-family="sans-serif" font-size="14" lengthAdjust="spacing" textLength="83" x="555" y="254.1826">ProjectPage</text><rect fill="#F1F1F1" height="52.5938" rx="12.5" ry="12.5" style="stroke:#181818;stroke-width:1.5;" width="141" x="115" y="292.4844"/><text fill="#000000" font-family="sans-serif" font-size="14" lengthAdjust="spacing" textLength="121" x="125" y="315.4795">ProjectPageTable</text><text fill="#000000" font-family="sans-serif" font-size="14" lengthAdjust="spacing" textLength="87" x="125" y="331.7764">(Project Info)</text><path d="M596.5,267.4844 L596.5,270.4844 C596.5,277.4844 185.5,282.4844 185.5,289.4844 L185.5,292.4844 " fill="none" style="stroke:#181818;stroke-width:1.0;"/><rect fill="#F1F1F1" height="52.5938" rx="12.5" ry="12.5" style="stroke:#181818;stroke-width:1.5;" width="67" x="276" y="292.4844"/><text fill="#000000" font-family="sans-serif" font-size="14" lengthAdjust="spacing" textLength="47" x="286" y="315.4795">Button</text><text fill="#000000" font-family="sans-serif" font-size="14" lengthAdjust="spacing" textLength="44" x="286" y="331.7764">(Back)</text><path d="M596.5,267.4844 L596.5,270.4844 C596.5,277.4844 309.5,282.4844 309.5,289.4844 L309.5,292.4844 " fill="none" style="stroke:#181818;stroke-width:1.0;"/><rect fill="#F1F1F1" height="52.5938" rx="12.5" ry="12.5" style="stroke:#181818;stroke-width:1.5;" width="143" x="363" y="292.4844"/><text fill="#000000" font-family="sans-serif" font-size="14" lengthAdjust="spacing" textLength="47" x="373" y="315.4795">Button</text><text fill="#000000" font-family="sans-serif" font-size="14" lengthAdjust="spacing" textLength="123" x="373" y="331.7764">(Product Backlog)</text><path d="M596.5,267.4844 L596.5,270.4844 C596.5,277.4844 434.5,282.4844 434.5,289.4844 L434.5,292.4844 " fill="none" style="stroke:#181818;stroke-width:1.0;"/><rect fill="#F1F1F1" height="52.5938" rx="12.5" ry="12.5" style="stroke:#181818;stroke-width:1.5;" width="105" x="526" y="292.4844"/><text fill="#000000" font-family="sans-serif" font-size="14" lengthAdjust="spacing" textLength="47" x="536" y="315.4795">Button</text><text fill="#000000" font-family="sans-serif" font-size="14" lengthAdjust="spacing" textLength="85" x="536" y="331.7764">(Resources)</text><path d="M596.5,267.4844 L596.5,270.4844 C596.5,277.4844 578.5,282.4844 578.5,289.4844 L578.5,292.4844 " fill="none" style="stroke:#181818;stroke-width:1.0;"/><rect fill="#F1F1F1" height="52.5938" rx="12.5" ry="12.5" style="stroke:#181818;stroke-width:1.5;" width="78" x="651" y="292.4844"/><text fill="#000000" font-family="sans-serif" font-size="14" lengthAdjust="spacing" textLength="47" x="661" y="315.4795">Button</text><text fill="#000000" font-family="sans-serif" font-size="14" lengthAdjust="spacing" textLength="58" x="661" y="331.7764">(Sprints)</text><rect fill="#F1F1F1" height="36.2969" rx="12.5" ry="12.5" style="stroke:#181818;stroke-width:1.5;" width="99" x="640.5" y="370.0781"/><text fill="#000000" font-family="sans-serif" font-size="14" lengthAdjust="spacing" textLength="79" x="650.5" y="393.0732">Sprint Page</text><rect fill="#F1F1F1" height="52.5938" rx="12.5" ry="12.5" style="stroke:#181818;stroke-width:1.5;" width="120" x="302" y="431.375"/><text fill="#000000" font-family="sans-serif" font-size="14" lengthAdjust="spacing" textLength="47" x="312" y="454.3701">Button</text><text fill="#000000" font-family="sans-serif" font-size="14" lengthAdjust="spacing" textLength="100" x="312" y="470.667">(Create Sprint)</text><path d="M690,406.375 L690,409.375 C690,416.375 362,421.375 362,428.375 L362,431.375 " fill="none" style="stroke:#181818;stroke-width:1.0;"/><rect fill="#F1F1F1" height="52.5938" rx="12.5" ry="12.5" style="stroke:#181818;stroke-width:1.5;" width="146" x="442" y="431.375"/><text fill="#000000" font-family="sans-serif" font-size="14" lengthAdjust="spacing" textLength="47" x="452" y="454.3701">Button</text><text fill="#000000" font-family="sans-serif" font-size="14" lengthAdjust="spacing" textLength="126" x="452" y="470.667">(Open next Sprint)</text><path d="M690,406.375 L690,409.375 C690,416.375 515,421.375 515,428.375 L515,431.375 " fill="none" style="stroke:#181818;stroke-width:1.0;"/><rect fill="#F1F1F1" height="52.5938" rx="12.5" ry="12.5" style="stroke:#181818;stroke-width:1.5;" width="67" x="608" y="431.375"/><text fill="#000000" font-family="sans-serif" font-size="14" lengthAdjust="spacing" textLength="47" x="618" y="454.3701">Button</text><text fill="#000000" font-family="sans-serif" font-size="14" lengthAdjust="spacing" textLength="44" x="618" y="470.667">(Back)</text><path d="M690,406.375 L690,409.375 C690,416.375 641.5,421.375 641.5,428.375 L641.5,431.375 " fill="none" style="stroke:#181818;stroke-width:1.0;"/><rect fill="#F1F1F1" height="52.5938" rx="12.5" ry="12.5" style="stroke:#181818;stroke-width:1.5;" width="97" x="695" y="431.375"/><text fill="#000000" font-family="sans-serif" font-size="14" lengthAdjust="spacing" textLength="47" x="705" y="454.3701">Button</text><text fill="#000000" font-family="sans-serif" font-size="14" lengthAdjust="spacing" textLength="77" x="705" y="470.667">(All Sprints)</text><rect fill="#F1F1F1" height="36.2969" rx="12.5" ry="12.5" style="stroke:#181818;stroke-width:1.5;" width="148" x="409" y="508.9688"/><text fill="#000000" font-family="sans-serif" font-size="14" lengthAdjust="spacing" textLength="128" x="419" y="531.9639">SprintTableHeader</text><path d="M743.5,483.9688 L743.5,486.9688 C743.5,493.9688 483,498.9688 483,505.9688 L483,508.9688 " fill="none" style="stroke:#181818;stroke-width:1.0;"/><rect fill="#F1F1F1" height="36.2969" rx="12.5" ry="12.5" style="stroke:#181818;stroke-width:1.5;" width="133" x="577" y="508.9688"/><text fill="#000000" font-family="sans-serif" font-size="14" lengthAdjust="spacing" textLength="113" x="587" y="531.9639">SprintTableBody</text><path d="M743.5,483.9688 L743.5,486.9688 C743.5,493.9688 643.5,498.9688 643.5,505.9688 L643.5,508.9688 " fill="none" style="stroke:#181818;stroke-width:1.0;"/><rect fill="#F1F1F1" height="52.5938" rx="12.5" ry="12.5" style="stroke:#181818;stroke-width:1.5;" width="100" x="730" y="508.9688"/><text fill="#000000" font-family="sans-serif" font-size="14" lengthAdjust="spacing" textLength="76" x="740" y="531.9639">Drop down</text><text fill="#000000" font-family="sans-serif" font-size="14" lengthAdjust="spacing" textLength="43" x="740" y="548.2607">(Filter)</text><path d="M743.5,483.9688 L743.5,486.9688 C743.5,493.9688 780,498.9688 780,505.9688 L780,508.9688 " fill="none" style="stroke:#181818;stroke-width:1.0;"/><rect fill="#F1F1F1" height="52.5938" rx="12.5" ry="12.5" style="stroke:#181818;stroke-width:1.5;" width="121" x="850" y="508.9688"/><text fill="#000000" font-family="sans-serif" font-size="14" lengthAdjust="spacing" textLength="47" x="860" y="531.9639">Button</text><text fill="#000000" font-family="sans-serif" font-size="14" lengthAdjust="spacing" textLength="101" x="860" y="548.2607">(View Backlog)</text><rect fill="#F1F1F1" height="36.2969" rx="12.5" ry="12.5" style="stroke:#181818;stroke-width:1.5;" width="153" x="834" y="586.5625"/><text fill="#000000" font-family="sans-serif" font-size="14" lengthAdjust="spacing" textLength="133" x="844" y="609.5576">SprintBacklogTable</text><rect fill="#F1F1F1" height="36.2969" rx="12.5" ry="12.5" style="stroke:#181818;stroke-width:1.5;" width="165" x="743" y="647.8594"/><text fill="#000000" font-family="sans-serif" font-size="14" lengthAdjust="spacing" textLength="145" x="753" y="670.8545">SprintBacklogHeader</text><path d="M910.5,622.8594 L910.5,625.8594 C910.5,632.8594 825.5,637.8594 825.5,644.8594 L825.5,647.8594 " fill="none" style="stroke:#181818;stroke-width:1.0;"/><rect fill="#F1F1F1" height="36.2969" rx="12.5" ry="12.5" style="stroke:#181818;stroke-width:1.5;" width="150" x="928" y="647.8594"/><text fill="#000000" font-family="sans-serif" font-size="14" lengthAdjust="spacing" textLength="130" x="938" y="670.8545">SprintBacklogBody</text><path d="M910.5,622.8594 L910.5,625.8594 C910.5,632.8594 1003,637.8594 1003,644.8594 L1003,647.8594 " fill="none" style="stroke:#181818;stroke-width:1.0;"/><path d="M910.5,561.5625 L910.5,564.5625 C910.5,571.5625 910.5,576.5625 910.5,583.5625 L910.5,586.5625 " fill="none" style="stroke:#181818;stroke-width:1.0;"/><path d="M743.5,483.9688 L743.5,486.9688 C743.5,493.9688 910.5,498.9688 910.5,505.9688 L910.5,508.9688 " fill="none" style="stroke:#181818;stroke-width:1.0;"/><path d="M690,406.375 L690,409.375 C690,416.375 743.5,421.375 743.5,428.375 L743.5,431.375 " fill="none" style="stroke:#181818;stroke-width:1.0;"/><path d="M690,345.0781 L690,348.0781 C690,355.0781 690,360.0781 690,367.0781 L690,370.0781 " fill="none" style="stroke:#181818;stroke-width:1.0;"/><path d="M596.5,267.4844 L596.5,270.4844 C596.5,277.4844 690,282.4844 690,289.4844 L690,292.4844 " fill="none" style="stroke:#181818;stroke-width:1.0;"/><path d="M596.5,206.1875 L596.5,209.1875 C596.5,216.1875 596.5,221.1875 596.5,228.1875 L596.5,231.1875 " fill="none" style="stroke:#181818;stroke-width:1.0;"/><path d="M596.5,144.8906 L596.5,147.8906 C596.5,154.8906 596.5,159.8906 596.5,166.8906 L596.5,169.8906 " fill="none" style="stroke:#181818;stroke-width:1.0;"/><path d="M549,83.5938 L549,86.5938 C549,93.5938 596.5,98.5938 596.5,105.5938 L596.5,108.5938 " fill="none" style="stroke:#181818;stroke-width:1.0;"/><!--SRC=[xPJRSjem48RlzHHxrG9JJg6Jf9vE1mYaWUB6mwatlP7jnQZLmIF9qBnzP7CsxGjqSYVjjzxvT_UNkyPIRGMJiQ0fUR-sDZLUivboAcqcU2DIehcdzPZHH5D1Y6MM8onchSujrA5dW4Bmt9pvpJbI0JwA4FK76C7M5G6h85BIPDmTrmYpL3CNxTFeDrS9g9NxE5ehWnBC3Z5P96unXCMeGQnAyngXibO9Y9d6o38b2Qd1vtS9Lo5-wQKfPn4jmhKQVAURa6ftAeuZYoAF-fJ9gSei5Y3GwfShPFBByHRGfA2NaJaDEVwKbNq8HdAbglkqVkPKIGVpVgw2xeiuYuxDNl4f6fNf2Cqb0OTsOpg0sc5i9uNdTHuqKdiORVMQFwTkkXB_s7-ddEa_3_SuXvAKevXYBaz8OzH_HNqLlvp0GBizncfRTFV8k4LzLl7K-9BXjZImiy9xKDG_mH8jQIhZGXSXNNIktlkUT2-UmPl1tmp-dnayo7_e2ty26zJ6sGZQZPlMJQVHgSpNcREEXjOdQDzvdPRNleSVmpdak4egNuC9x9Reh6ciPc6Msx1AndH3OPf9omHwa6zWFFXs2C1GRfXMKg2qPBpqJmct7-jzvlQ4sYc1fKy6kABvsndAICLC9Xuive_rUpAXCicS6pn0IHwKgwjV79kz0W00]--></g></svg>