<?xml version="1.0" encoding="us-ascii" standalone="no"?><svg xmlns="http://www.w3.org/2000/svg" xmlns:xlink="http://www.w3.org/1999/xlink" contentStyleType="text/css" height="540px" preserveAspectRatio="none" style="width:1175px;height:540px;background:#FFFFFF;" version="1.1" viewBox="0 0 1175 540" width="1175px" zoomAndPan="magnify"><defs/><g><text fill="#000000" font-family="sans-serif" font-size="14" font-weight="bold" lengthAdjust="spacing" textLength="827" x="172.5" y="32.9951">US036 - As a PO/SM/Team Member, I want to consult the Sprint Backlog of a chosen sprint in the web UI.</text><rect fill="#F1F1F1" height="36.2969" rx="12.5" ry="12.5" style="stroke:#181818;stroke-width:1.5;" width="106.3333" x="533.3333" y="47.2969"/><path d="M549,60.7604 C546.4217,60.7604 544.3333,62.8487 544.3333,65.4271 C544.3333,68.0054 546.4217,70.0938 549,70.0938 C551.5783,70.0938 553.6667,68.0054 553.6667,65.4271 C553.6667,62.8487 551.5783,60.7604 549,60.7604 M549,61.9271 C549.385,61.9271 549.7467,62.0321 550.0967,62.1488 C549.8517,62.3821 549.5717,62.5921 549.6183,62.8021 C549.665,63.0121 550.4233,62.9538 550.4233,63.3854 C550.4233,63.7004 549.9333,63.7937 550.2717,64.1554 C550.68,64.5638 549.525,65.2988 549.5017,65.8354 C549.4667,66.8038 550.4817,66.9671 551.2867,66.9671 C551.7767,66.9671 551.905,67.2004 551.87,67.4804 C551.24,68.3788 550.1667,68.9388 548.9883,68.9388 C548.545,68.9388 548.1367,68.8338 547.7517,68.6821 C548.0083,68.1688 547.425,67.1538 546.8767,66.8271 C546.6083,66.5588 546.0367,66.6638 545.71,66.5354 C545.605,66.2204 545.5,65.9054 545.4883,65.5554 C545.5233,65.4971 545.5817,65.4504 545.675,65.4504 C545.8967,65.4504 546.2,65.8938 546.3633,65.8471 C546.5733,65.8004 545.5,64.3188 546.0017,64.0271 C546.235,63.8871 546.7017,64.4821 546.55,63.8404 C546.41,63.2454 546.97,63.5137 547.32,63.3621 C547.6233,63.2338 547.845,62.8838 547.4717,62.6738 C547.4017,62.6387 547.32,62.5571 547.215,62.4521 C547.74,62.1371 548.3467,61.9388 549,61.9388 M551.695,63.1988 C551.905,63.4554 552.0683,63.7354 552.2083,64.0388 C552.2083,64.0504 552.2083,64.0621 552.2083,64.0738 C552.1617,64.1554 552.08,64.2021 551.9517,64.3304 C551.625,64.6571 551.5783,64.0854 551.4383,63.9688 C551.2867,63.8288 550.7383,63.9921 550.6683,63.8171 C550.5867,63.6071 551.2517,63.3271 551.695,63.1988 " fill="#000000" style="stroke:;stroke-width:0.0;stroke-dasharray:;"/><text fill="#000000" font-family="sans-serif" font-size="14" lengthAdjust="spacing" textLength="75" x="554.6667" y="70.292">Application</text><rect fill="#F1F1F1" height="36.2969" rx="12.5" ry="12.5" style="stroke:#181818;stroke-width:1.5;" width="67" x="24" y="108.5938"/><text fill="#000000" font-family="sans-serif" font-size="14" lengthAdjust="spacing" textLength="47" x="34" y="131.5889">Navbar</text><rect fill="#F1F1F1" height="36.2969" rx="12.5" ry="12.5" style="stroke:#181818;stroke-width:1.5;" width="75" x="20" y="169.8906"/><text fill="#000000" font-family="sans-serif" font-size="14" lengthAdjust="spacing" textLength="55" x="30" y="192.8857">NavItem</text><path d="M57.5,144.8906 L57.5,147.8906 C57.5,154.8906 57.5,159.8906 57.5,166.8906 L57.5,169.8906 " fill="none" style="stroke:#181818;stroke-width:1.0;"/><path d="M586.5,83.5938 L586.5,86.5938 C586.5,93.5938 57.5,98.5938 57.5,105.5938 L57.5,108.5938 " fill="none" style="stroke:#181818;stroke-width:1.0;"/><rect fill="#F1F1F1" height="36.2969" rx="12.5" ry="12.5" style="stroke:#181818;stroke-width:1.5;" width="94" x="587" y="108.5938"/><text fill="#000000" font-family="sans-serif" font-size="14" lengthAdjust="spacing" textLength="74" x="597" y="131.5889">MainRoute</text><rect fill="#F1F1F1" height="36.2969" rx="12.5" ry="12.5" style="stroke:#181818;stroke-width:1.5;" width="76" x="596" y="169.8906"/><text fill="#000000" font-family="sans-serif" font-size="14" lengthAdjust="spacing" textLength="56" x="606" y="192.8857">Projects</text><rect fill="#F1F1F1" height="36.2969" rx="12.5" ry="12.5" style="stroke:#181818;stroke-width:1.5;" width="103" x="582.5" y="231.1875"/><text fill="#000000" font-family="sans-serif" font-size="14" lengthAdjust="spacing" textLength="83" x="592.5" y="254.1826">ProjectPage</text><rect fill="#F1F1F1" height="52.5938" rx="12.5" ry="12.5" style="stroke:#181818;stroke-width:1.5;" width="141" x="115" y="292.4844"/><text fill="#000000" font-family="sans-serif" font-size="14" lengthAdjust="spacing" textLength="121" x="125" y="315.4795">ProjectPageTable</text><text fill="#000000" font-family="sans-serif" font-size="14" lengthAdjust="spacing" textLength="87" x="125" y="331.7764">(Project Info)</text><path d="M634,267.4844 L634,270.4844 C634,277.4844 185.5,282.4844 185.5,289.4844 L185.5,292.4844 " fill="none" style="stroke:#181818;stroke-width:1.0;"/><rect fill="#F1F1F1" height="52.5938" rx="12.5" ry="12.5" style="stroke:#181818;stroke-width:1.5;" width="67" x="276" y="292.4844"/><text fill="#000000" font-family="sans-serif" font-size="14" lengthAdjust="spacing" textLength="47" x="286" y="315.4795">Button</text><text fill="#000000" font-family="sans-serif" font-size="14" lengthAdjust="spacing" textLength="44" x="286" y="331.7764">(Back)</text><path d="M634,267.4844 L634,270.4844 C634,277.4844 309.5,282.4844 309.5,289.4844 L309.5,292.4844 " fill="none" style="stroke:#181818;stroke-width:1.0;"/><rect fill="#F1F1F1" height="52.5938" rx="12.5" ry="12.5" style="stroke:#181818;stroke-width:1.5;" width="143" x="363" y="292.4844"/><text fill="#000000" font-family="sans-serif" font-size="14" lengthAdjust="spacing" textLength="47" x="373" y="315.4795">Button</text><text fill="#000000" font-family="sans-serif" font-size="14" lengthAdjust="spacing" textLength="123" x="373" y="331.7764">(Product Backlog)</text><path d="M634,267.4844 L634,270.4844 C634,277.4844 434.5,282.4844 434.5,289.4844 L434.5,292.4844 " fill="none" style="stroke:#181818;stroke-width:1.0;"/><rect fill="#F1F1F1" height="52.5938" rx="12.5" ry="12.5" style="stroke:#181818;stroke-width:1.5;" width="105" x="526" y="292.4844"/><text fill="#000000" font-family="sans-serif" font-size="14" lengthAdjust="spacing" textLength="47" x="536" y="315.4795">Button</text><text fill="#000000" font-family="sans-serif" font-size="14" lengthAdjust="spacing" textLength="85" x="536" y="331.7764">(Resources)</text><path d="M634,267.4844 L634,270.4844 C634,277.4844 578.5,282.4844 578.5,289.4844 L578.5,292.4844 " fill="none" style="stroke:#181818;stroke-width:1.0;"/><rect fill="#F1F1F1" height="52.5938" rx="12.5" ry="12.5" style="stroke:#181818;stroke-width:1.5;" width="78" x="651" y="292.4844"/><text fill="#000000" font-family="sans-serif" font-size="14" lengthAdjust="spacing" textLength="47" x="661" y="315.4795">Button</text><text fill="#000000" font-family="sans-serif" font-size="14" lengthAdjust="spacing" textLength="58" x="661" y="331.7764">(Sprints)</text><rect fill="#F1F1F1" height="36.2969" rx="12.5" ry="12.5" style="stroke:#181818;stroke-width:1.5;" width="99" x="640.5" y="370.0781"/><text fill="#000000" font-family="sans-serif" font-size="14" lengthAdjust="spacing" textLength="79" x="650.5" y="393.0732">Sprint Page</text><rect fill="#F1F1F1" height="52.5938" rx="12.5" ry="12.5" style="stroke:#181818;stroke-width:1.5;" width="120" x="227" y="431.375"/><text fill="#000000" font-family="sans-serif" font-size="14" lengthAdjust="spacing" textLength="47" x="237" y="454.3701">Button</text><text fill="#000000" font-family="sans-serif" font-size="14" lengthAdjust="spacing" textLength="100" x="237" y="470.667">(Create Sprint)</text><path d="M690,406.375 L690,409.375 C690,416.375 287,421.375 287,428.375 L287,431.375 " fill="none" style="stroke:#181818;stroke-width:1.0;"/><rect fill="#F1F1F1" height="52.5938" rx="12.5" ry="12.5" style="stroke:#181818;stroke-width:1.5;" width="97" x="367" y="431.375"/><text fill="#000000" font-family="sans-serif" font-size="14" lengthAdjust="spacing" textLength="47" x="377" y="454.3701">Button</text><text fill="#000000" font-family="sans-serif" font-size="14" lengthAdjust="spacing" textLength="77" x="377" y="470.667">(All Sprints)</text><path d="M690,406.375 L690,409.375 C690,416.375 415.5,421.375 415.5,428.375 L415.5,431.375 " fill="none" style="stroke:#181818;stroke-width:1.0;"/><rect fill="#F1F1F1" height="36.2969" rx="12.5" ry="12.5" style="stroke:#181818;stroke-width:1.5;" width="160" x="484" y="431.375"/><text fill="#000000" font-family="sans-serif" font-size="14" lengthAdjust="spacing" textLength="140" x="494" y="454.3701">CurrentlyOpenSprint</text><path d="M690,406.375 L690,409.375 C690,416.375 564,421.375 564,428.375 L564,431.375 " fill="none" style="stroke:#181818;stroke-width:1.0;"/><rect fill="#F1F1F1" height="52.5938" rx="12.5" ry="12.5" style="stroke:#181818;stroke-width:1.5;" width="113" x="664" y="431.375"/><text fill="#000000" font-family="sans-serif" font-size="14" lengthAdjust="spacing" textLength="47" x="674" y="454.3701">Button</text><text fill="#000000" font-family="sans-serif" font-size="14" lengthAdjust="spacing" textLength="93" x="674" y="470.667">(Close Sprint)</text><path d="M690,406.375 L690,409.375 C690,416.375 720.5,421.375 720.5,428.375 L720.5,431.375 " fill="none" style="stroke:#181818;stroke-width:1.0;"/><rect fill="#F1F1F1" height="52.5938" rx="12.5" ry="12.5" style="stroke:#181818;stroke-width:1.5;" width="132" x="797" y="431.375"/><text fill="#000000" font-family="sans-serif" font-size="14" lengthAdjust="spacing" textLength="47" x="807" y="454.3701">Button</text><text fill="#000000" font-family="sans-serif" font-size="14" lengthAdjust="spacing" textLength="112" x="807" y="470.667">(Add User Story)</text><path d="M690,406.375 L690,409.375 C690,416.375 863,421.375 863,428.375 L863,431.375 " fill="none" style="stroke:#181818;stroke-width:1.0;"/><rect fill="#F1F1F1" height="52.5938" rx="12.5" ry="12.5" style="stroke:#181818;stroke-width:1.5;" width="67" x="949" y="431.375"/><text fill="#000000" font-family="sans-serif" font-size="14" lengthAdjust="spacing" textLength="47" x="959" y="454.3701">Button</text><text fill="#000000" font-family="sans-serif" font-size="14" lengthAdjust="spacing" textLength="44" x="959" y="470.667">(Back)</text><path d="M690,406.375 L690,409.375 C690,416.375 982.5,421.375 982.5,428.375 L982.5,431.375 " fill="none" style="stroke:#181818;stroke-width:1.0;"/><rect fill="#F1F1F1" height="36.2969" rx="12.5" ry="12.5" style="stroke:#181818;stroke-width:1.5;" width="105" x="1042" y="431.375"/><text fill="#000000" font-family="sans-serif" font-size="14" lengthAdjust="spacing" textLength="85" x="1052" y="454.3701">ScrumBoard</text><rect fill="#F1F1F1" height="36.2969" rx="12.5" ry="12.5" style="stroke:#181818;stroke-width:1.5;" width="117" x="1036" y="492.6719"/><text fill="#000000" font-family="sans-serif" font-size="14" lengthAdjust="spacing" textLength="97" x="1046" y="515.667">UserStory Box</text><path d="M1094.5,467.6719 L1094.5,470.6719 C1094.5,477.6719 1094.5,482.6719 1094.5,489.6719 L1094.5,492.6719 " fill="none" style="stroke:#181818;stroke-width:1.0;"/><path d="M690,406.375 L690,409.375 C690,416.375 1094.5,421.375 1094.5,428.375 L1094.5,431.375 " fill="none" style="stroke:#181818;stroke-width:1.0;"/><path d="M690,345.0781 L690,348.0781 C690,355.0781 690,360.0781 690,367.0781 L690,370.0781 " fill="none" style="stroke:#181818;stroke-width:1.0;"/><path d="M634,267.4844 L634,270.4844 C634,277.4844 690,282.4844 690,289.4844 L690,292.4844 " fill="none" style="stroke:#181818;stroke-width:1.0;"/><path d="M634,206.1875 L634,209.1875 C634,216.1875 634,221.1875 634,228.1875 L634,231.1875 " fill="none" style="stroke:#181818;stroke-width:1.0;"/><path d="M634,144.8906 L634,147.8906 C634,154.8906 634,159.8906 634,166.8906 L634,169.8906 " fill="none" style="stroke:#181818;stroke-width:1.0;"/><path d="M586.5,83.5938 L586.5,86.5938 C586.5,93.5938 634,98.5938 634,105.5938 L634,108.5938 " fill="none" style="stroke:#181818;stroke-width:1.0;"/><!--SRC=[xLJ9Sjf04BtFL_Gf1bNOZCjnLAaKYqaAWc8L0kUIoqXgn2Ipg6R1uUyp4c0Ruyen9zzwtkj-rSkh6HXBjHLCveAMv69ZRMd2JgVaL5edU3jJedDWMpcZXQQ24CiiHrWbtVurj61eW49yrqcYpXAfW0X5YlezJE71Yu1La2bf7FVX1Y4fDVFeY6Q_kIf0hNrnjb469PWznMIT-80fhAPjObLPQQJAMYKWPnepovGa981FxmgkKlmyB4lECbh3GG3VwJQbsaTrEBKeAZIYJ2wKirWJiLQ_l92f7e-lc1OrUueiQShnfsmS89ZAjMeUqaREToKzMSrp1lgAt6MFmvxn2pJAwGpDAGEUsg_fI0J7jJrr-5ndh97QusgRv_oGStWX6C3OQOtIyjrTYNBFlgBC_MN-8Ppdi3Ae8R5Axrv9UBQMQeXCEp5ILET7AAZBwseOgJ-4a05wintiI0OdxdpptPll_e_lukhxMqLpsA8s_hhGQrzsB_ljVcEvSVwY6heVeVSXx7V3tWtyc2oXefkayJMUmtwttZ76QfQwoXrDCgDR2WidBHCOGZNwxFRR4O29t3AjfF1x8RFxw2dX-gerOXOIrBuJk8_8BQvfPUc9p5JEP172QlcbTKFcL1RE7oa4b6IilAxUUIxv2m00]--></g></svg>