<?xml version="1.0" encoding="us-ascii" standalone="no"?><svg xmlns="http://www.w3.org/2000/svg" xmlns:xlink="http://www.w3.org/1999/xlink" contentStyleType="text/css" height="811px" preserveAspectRatio="none" style="width:1849px;height:811px;background:#FFFFFF;" version="1.1" viewBox="0 0 1849 811" width="1849px" zoomAndPan="magnify"><defs/><g><text fill="#000000" font-family="sans-serif" font-size="14" font-weight="bold" lengthAdjust="spacing" textLength="750" x="548.75" y="27.9951">US034 - As Project Manager, I want to close the current/active sprint of a project in the web UI</text><rect fill="#FFFFFF" height="564.8047" style="stroke:#181818;stroke-width:1.0;" width="10" x="265" y="153.6172"/><rect fill="#FFFFFF" height="497.5391" style="stroke:#181818;stroke-width:1.0;" width="10" x="581" y="182.75"/><rect fill="#FFFFFF" height="439.2734" style="stroke:#181818;stroke-width:1.0;" width="10" x="865" y="211.8828"/><rect fill="#FFFFFF" height="92.3984" style="stroke:#181818;stroke-width:1.0;" width="10" x="870" y="471.3594"/><rect fill="#FFFFFF" height="29.1328" style="stroke:#181818;stroke-width:1.0;" width="10" x="1424" y="405.0938"/><rect fill="#FFFFFF" height="29.1328" style="stroke:#181818;stroke-width:1.0;" width="10" x="1424" y="534.625"/><rect fill="#FFFFFF" height="29.1328" style="stroke:#181818;stroke-width:1.0;" width="10" x="1594" y="592.8906"/><line style="stroke:#181818;stroke-width:0.5;stroke-dasharray:5.0,5.0;" x1="67" x2="67" y1="122.4844" y2="727.4219"/><line style="stroke:#181818;stroke-width:0.5;stroke-dasharray:5.0,5.0;" x1="269.5" x2="269.5" y1="122.4844" y2="727.4219"/><line style="stroke:#181818;stroke-width:0.5;stroke-dasharray:5.0,5.0;" x1="586" x2="586" y1="122.4844" y2="727.4219"/><line style="stroke:#181818;stroke-width:0.5;stroke-dasharray:5.0,5.0;" x1="869.5" x2="869.5" y1="122.4844" y2="727.4219"/><line style="stroke:#181818;stroke-width:0.5;stroke-dasharray:5.0,5.0;" x1="1169.5" x2="1169.5" y1="274.9766" y2="727.4219"/><line style="stroke:#181818;stroke-width:0.5;stroke-dasharray:5.0,5.0;" x1="1294.5" x2="1294.5" y1="357.0156" y2="727.4219"/><line style="stroke:#181818;stroke-width:0.5;stroke-dasharray:5.0,5.0;" x1="1428.5" x2="1428.5" y1="122.4844" y2="727.4219"/><line style="stroke:#181818;stroke-width:0.5;stroke-dasharray:5.0,5.0;" x1="1598.5" x2="1598.5" y1="122.4844" y2="727.4219"/><line style="stroke:#181818;stroke-width:0.5;stroke-dasharray:5.0,5.0;" x1="1772.5" x2="1772.5" y1="122.4844" y2="727.4219"/><text fill="#000000" font-family="sans-serif" font-size="14" lengthAdjust="spacing" textLength="118" x="5" y="119.1826">Product Manager</text><ellipse cx="67" cy="54.6875" fill="#FFFFFF" rx="8" ry="8" style="stroke:#181818;stroke-width:0.5;"/><path d="M67,62.6875 L67,89.6875 M54,70.6875 L80,70.6875 M67,89.6875 L54,104.6875 M67,89.6875 L80,104.6875 " fill="none" style="stroke:#181818;stroke-width:0.5;"/><text fill="#000000" font-family="sans-serif" font-size="14" lengthAdjust="spacing" textLength="118" x="5" y="739.417">Product Manager</text><ellipse cx="67" cy="751.2188" fill="#FFFFFF" rx="8" ry="8" style="stroke:#181818;stroke-width:0.5;"/><path d="M67,759.2188 L67,786.2188 M54,767.2188 L80,767.2188 M67,786.2188 L54,801.2188 M67,786.2188 L80,801.2188 " fill="none" style="stroke:#181818;stroke-width:0.5;"/><rect fill="#FFFFFF" height="46.5938" rx="2.5" ry="2.5" style="stroke:#181818;stroke-width:0.5;" width="97" x="221.5" y="74.8906"/><text fill="#000000" font-family="sans-serif" font-size="14" lengthAdjust="spacing" textLength="83" x="228.5" y="94.8857">:OpenSprint</text><text fill="#000000" font-family="sans-serif" font-size="14" lengthAdjust="spacing" textLength="13" x="263.5" y="111.1826">UI</text><rect fill="#FFFFFF" height="46.5938" rx="2.5" ry="2.5" style="stroke:#181818;stroke-width:0.5;" width="97" x="221.5" y="726.4219"/><text fill="#000000" font-family="sans-serif" font-size="14" lengthAdjust="spacing" textLength="83" x="228.5" y="746.417">:OpenSprint</text><text fill="#000000" font-family="sans-serif" font-size="14" lengthAdjust="spacing" textLength="13" x="263.5" y="762.7139">UI</text><rect fill="#FFFFFF" height="46.5938" rx="2.5" ry="2.5" style="stroke:#181818;stroke-width:0.5;" width="126" x="523" y="74.8906"/><text fill="#000000" font-family="sans-serif" font-size="14" lengthAdjust="spacing" textLength="103" x="534.5" y="94.8857">&lt;&lt;Controller&gt;</text><text fill="#000000" font-family="sans-serif" font-size="14" lengthAdjust="spacing" textLength="112" x="530" y="111.1826">:SprintController</text><rect fill="#FFFFFF" height="46.5938" rx="2.5" ry="2.5" style="stroke:#181818;stroke-width:0.5;" width="126" x="523" y="726.4219"/><text fill="#000000" font-family="sans-serif" font-size="14" lengthAdjust="spacing" textLength="103" x="534.5" y="746.417">&lt;&lt;Controller&gt;</text><text fill="#000000" font-family="sans-serif" font-size="14" lengthAdjust="spacing" textLength="112" x="530" y="762.7139">:SprintController</text><rect fill="#FFFFFF" height="46.5938" rx="2.5" ry="2.5" style="stroke:#181818;stroke-width:0.5;" width="109" x="815.5" y="74.8906"/><text fill="#000000" font-family="sans-serif" font-size="14" lengthAdjust="spacing" textLength="68" x="836" y="94.8857">&#171;Service&#187;</text><text fill="#000000" font-family="sans-serif" font-size="14" lengthAdjust="spacing" textLength="95" x="822.5" y="111.1826">:SprintService</text><rect fill="#FFFFFF" height="46.5938" rx="2.5" ry="2.5" style="stroke:#181818;stroke-width:0.5;" width="109" x="815.5" y="726.4219"/><text fill="#000000" font-family="sans-serif" font-size="14" lengthAdjust="spacing" textLength="68" x="836" y="746.417">&#171;Service&#187;</text><text fill="#000000" font-family="sans-serif" font-size="14" lengthAdjust="spacing" textLength="95" x="822.5" y="762.7139">:SprintService</text><rect fill="#FFFFFF" height="79.1875" rx="2.5" ry="2.5" style="stroke:#181818;stroke-width:0.5;" width="115" x="1112.5" y="726.4219"/><text fill="#000000" font-family="sans-serif" font-size="14" lengthAdjust="spacing" textLength="85" x="1127.5" y="746.417">&#171;DomainID&#187;</text><text fill="#000000" font-family="sans-serif" font-size="14" lengthAdjust="spacing" textLength="101" x="1119.5" y="762.7139">&#171;ValueObject&#187;</text><text fill="#000000" font-family="sans-serif" font-size="14" lengthAdjust="spacing" textLength="53" x="1143.5" y="779.0107">sprintID</text><text fill="#000000" font-family="sans-serif" font-size="14" lengthAdjust="spacing" textLength="59" x="1140.5" y="795.3076">:SprintID</text><rect fill="#FFFFFF" height="62.8906" rx="2.5" ry="2.5" style="stroke:#181818;stroke-width:0.5;" width="115" x="1237.5" y="726.4219"/><text fill="#000000" font-family="sans-serif" font-size="14" lengthAdjust="spacing" textLength="101" x="1244.5" y="746.417">&#171;ValueObject&#187;</text><text fill="#000000" font-family="sans-serif" font-size="14" lengthAdjust="spacing" textLength="83" x="1253.5" y="762.7139">sprintStatus</text><text fill="#000000" font-family="sans-serif" font-size="14" lengthAdjust="spacing" textLength="89" x="1250.5" y="779.0107">:SprintStatus</text><rect fill="#FFFFFF" height="46.5938" rx="2.5" ry="2.5" style="stroke:#181818;stroke-width:0.5;" width="133" x="1362.5" y="74.8906"/><text fill="#000000" font-family="sans-serif" font-size="14" lengthAdjust="spacing" textLength="92" x="1383" y="94.8857">&#171;Repository&#187;</text><text fill="#000000" font-family="sans-serif" font-size="14" lengthAdjust="spacing" textLength="119" x="1369.5" y="111.1826">:SprintRepository</text><rect fill="#FFFFFF" height="46.5938" rx="2.5" ry="2.5" style="stroke:#181818;stroke-width:0.5;" width="133" x="1362.5" y="726.4219"/><text fill="#000000" font-family="sans-serif" font-size="14" lengthAdjust="spacing" textLength="92" x="1383" y="746.417">&#171;Repository&#187;</text><text fill="#000000" font-family="sans-serif" font-size="14" lengthAdjust="spacing" textLength="119" x="1369.5" y="762.7139">:SprintRepository</text><rect fill="#FFFFFF" height="46.5938" rx="2.5" ry="2.5" style="stroke:#181818;stroke-width:0.5;" width="187" x="1505.5" y="74.8906"/><text fill="#000000" font-family="sans-serif" font-size="14" lengthAdjust="spacing" textLength="91" x="1553.5" y="94.8857">&#171;Assembler&#187;</text><text fill="#000000" font-family="sans-serif" font-size="14" lengthAdjust="spacing" textLength="173" x="1512.5" y="111.1826">:CreatedSprintAssembler</text><rect fill="#FFFFFF" height="46.5938" rx="2.5" ry="2.5" style="stroke:#181818;stroke-width:0.5;" width="187" x="1505.5" y="726.4219"/><text fill="#000000" font-family="sans-serif" font-size="14" lengthAdjust="spacing" textLength="91" x="1553.5" y="746.417">&#171;Assembler&#187;</text><text fill="#000000" font-family="sans-serif" font-size="14" lengthAdjust="spacing" textLength="173" x="1512.5" y="762.7139">:CreatedSprintAssembler</text><rect fill="#FFFFFF" height="62.8906" rx="2.5" ry="2.5" style="stroke:#181818;stroke-width:0.5;" width="141" x="1702.5" y="58.5938"/><text fill="#000000" font-family="sans-serif" font-size="14" lengthAdjust="spacing" textLength="127" x="1709.5" y="78.5889">&#171;Aggregate Root&#187;</text><text fill="#000000" font-family="sans-serif" font-size="14" lengthAdjust="spacing" textLength="44" x="1751" y="94.8857">:sprint</text><text fill="#000000" font-family="sans-serif" font-size="14" lengthAdjust="spacing" textLength="45" x="1750.5" y="111.1826">:Sprint</text><rect fill="#FFFFFF" height="62.8906" rx="2.5" ry="2.5" style="stroke:#181818;stroke-width:0.5;" width="141" x="1702.5" y="726.4219"/><text fill="#000000" font-family="sans-serif" font-size="14" lengthAdjust="spacing" textLength="127" x="1709.5" y="746.417">&#171;Aggregate Root&#187;</text><text fill="#000000" font-family="sans-serif" font-size="14" lengthAdjust="spacing" textLength="44" x="1751" y="762.7139">:sprint</text><text fill="#000000" font-family="sans-serif" font-size="14" lengthAdjust="spacing" textLength="45" x="1750.5" y="779.0107">:Sprint</text><rect fill="#FFFFFF" height="564.8047" style="stroke:#181818;stroke-width:1.0;" width="10" x="265" y="153.6172"/><rect fill="#FFFFFF" height="497.5391" style="stroke:#181818;stroke-width:1.0;" width="10" x="581" y="182.75"/><rect fill="#FFFFFF" height="439.2734" style="stroke:#181818;stroke-width:1.0;" width="10" x="865" y="211.8828"/><rect fill="#FFFFFF" height="92.3984" style="stroke:#181818;stroke-width:1.0;" width="10" x="870" y="471.3594"/><rect fill="#FFFFFF" height="29.1328" style="stroke:#181818;stroke-width:1.0;" width="10" x="1424" y="405.0938"/><rect fill="#FFFFFF" height="29.1328" style="stroke:#181818;stroke-width:1.0;" width="10" x="1424" y="534.625"/><rect fill="#FFFFFF" height="29.1328" style="stroke:#181818;stroke-width:1.0;" width="10" x="1594" y="592.8906"/><polygon fill="#181818" points="253,149.6172,263,153.6172,253,157.6172,257,153.6172" style="stroke:#181818;stroke-width:1.0;"/><line style="stroke:#181818;stroke-width:1.0;" x1="67" x2="259" y1="153.6172" y2="153.6172"/><text fill="#000000" font-family="sans-serif" font-size="13" font-weight="bold" lengthAdjust="spacing" textLength="9" x="92" y="148.5513">1</text><text fill="#000000" font-family="sans-serif" font-size="13" lengthAdjust="spacing" textLength="135" x="105" y="148.5513">asks to close a sprint</text><polygon fill="#181818" points="569,178.75,579,182.75,569,186.75,573,182.75" style="stroke:#181818;stroke-width:1.0;"/><line style="stroke:#181818;stroke-width:1.0;" x1="275" x2="575" y1="182.75" y2="182.75"/><text fill="#000000" font-family="sans-serif" font-size="13" font-weight="bold" lengthAdjust="spacing" textLength="9" x="284.5" y="177.6841">2</text><text fill="#000000" font-family="sans-serif" font-size="13" lengthAdjust="spacing" textLength="274" x="297.5" y="177.6841">changeSprintStatusREST(sprintStatusDTO)</text><polygon fill="#181818" points="853,207.8828,863,211.8828,853,215.8828,857,211.8828" style="stroke:#181818;stroke-width:1.0;"/><line style="stroke:#181818;stroke-width:1.0;" x1="591" x2="859" y1="211.8828" y2="211.8828"/><text fill="#000000" font-family="sans-serif" font-size="13" font-weight="bold" lengthAdjust="spacing" textLength="9" x="600.5" y="206.8169">3</text><text fill="#000000" font-family="sans-serif" font-size="13" lengthAdjust="spacing" textLength="242" x="613.5" y="206.8169">changeSprintStatus(sprintStatusDTO)</text><polygon fill="#181818" points="1100.5,237.0156,1110.5,241.0156,1100.5,245.0156,1104.5,241.0156" style="stroke:#181818;stroke-width:1.0;"/><line style="stroke:#181818;stroke-width:1.0;" x1="875" x2="1106.5" y1="241.0156" y2="241.0156"/><text fill="#000000" font-family="sans-serif" font-size="13" font-weight="bold" lengthAdjust="spacing" textLength="9" x="908.25" y="235.9497">4</text><text fill="#000000" font-family="sans-serif" font-size="13" lengthAdjust="spacing" textLength="158" x="921.25" y="235.9497">sprintStatusDTO.sprintID</text><rect fill="#FFFFFF" height="79.1875" rx="2.5" ry="2.5" style="stroke:#181818;stroke-width:0.5;" width="115" x="1112.5" y="219.8828"/><text fill="#000000" font-family="sans-serif" font-size="14" lengthAdjust="spacing" textLength="85" x="1127.5" y="239.8779">&#171;DomainID&#187;</text><text fill="#000000" font-family="sans-serif" font-size="14" lengthAdjust="spacing" textLength="101" x="1119.5" y="256.1748">&#171;ValueObject&#187;</text><text fill="#000000" font-family="sans-serif" font-size="14" lengthAdjust="spacing" textLength="53" x="1143.5" y="272.4717">sprintID</text><text fill="#000000" font-family="sans-serif" font-size="14" lengthAdjust="spacing" textLength="59" x="1140.5" y="288.7686">:SprintID</text><polygon fill="#181818" points="1225.5,327.2031,1235.5,331.2031,1225.5,335.2031,1229.5,331.2031" style="stroke:#181818;stroke-width:1.0;"/><line style="stroke:#181818;stroke-width:1.0;" x1="875" x2="1231.5" y1="331.2031" y2="331.2031"/><text fill="#000000" font-family="sans-serif" font-size="13" font-weight="bold" lengthAdjust="spacing" textLength="9" x="956.25" y="326.1372">5</text><text fill="#000000" font-family="sans-serif" font-size="13" lengthAdjust="spacing" textLength="187" x="969.25" y="326.1372">sprintStatusDTO.sprintStatus</text><rect fill="#FFFFFF" height="62.8906" rx="2.5" ry="2.5" style="stroke:#181818;stroke-width:0.5;" width="115" x="1237.5" y="310.0703"/><text fill="#000000" font-family="sans-serif" font-size="14" lengthAdjust="spacing" textLength="101" x="1244.5" y="330.0654">&#171;ValueObject&#187;</text><text fill="#000000" font-family="sans-serif" font-size="14" lengthAdjust="spacing" textLength="83" x="1253.5" y="346.3623">sprintStatus</text><text fill="#000000" font-family="sans-serif" font-size="14" lengthAdjust="spacing" textLength="89" x="1250.5" y="362.6592">:SprintStatus</text><polygon fill="#181818" points="1412,401.0938,1422,405.0938,1412,409.0938,1416,405.0938" style="stroke:#181818;stroke-width:1.0;"/><line style="stroke:#181818;stroke-width:1.0;" x1="875" x2="1418" y1="405.0938" y2="405.0938"/><text fill="#000000" font-family="sans-serif" font-size="13" font-weight="bold" lengthAdjust="spacing" textLength="9" x="1088.5" y="400.0278">6</text><text fill="#000000" font-family="sans-serif" font-size="13" lengthAdjust="spacing" textLength="109" x="1101.5" y="400.0278">findById(sprintID)</text><polygon fill="#181818" points="886,430.2266,876,434.2266,886,438.2266,882,434.2266" style="stroke:#181818;stroke-width:1.0;"/><line style="stroke:#181818;stroke-width:1.0;stroke-dasharray:2.0,2.0;" x1="880" x2="1428" y1="434.2266" y2="434.2266"/><text fill="#000000" font-family="sans-serif" font-size="13" font-weight="bold" lengthAdjust="spacing" textLength="9" x="1127.5" y="429.1606">7</text><text fill="#000000" font-family="sans-serif" font-size="13" lengthAdjust="spacing" textLength="36" x="1140.5" y="429.1606">sprint</text><line style="stroke:#181818;stroke-width:1.0;" x1="875" x2="922" y1="458.3594" y2="458.3594"/><line style="stroke:#181818;stroke-width:1.0;" x1="922" x2="922" y1="458.3594" y2="471.3594"/><line style="stroke:#181818;stroke-width:1.0;" x1="881" x2="922" y1="471.3594" y2="471.3594"/><polygon fill="#181818" points="891,467.3594,881,471.3594,891,475.3594,887,471.3594" style="stroke:#181818;stroke-width:1.0;"/><text fill="#000000" font-family="sans-serif" font-size="13" font-weight="bold" lengthAdjust="spacing" textLength="9" x="887" y="453.2935">8</text><text fill="#000000" font-family="sans-serif" font-size="13" lengthAdjust="spacing" textLength="263" x="900" y="453.2935">setSprintInformation(sprint, sprintStatus)</text><polygon fill="#181818" points="1761,501.4922,1771,505.4922,1761,509.4922,1765,505.4922" style="stroke:#181818;stroke-width:1.0;"/><line style="stroke:#181818;stroke-width:1.0;" x1="880" x2="1767" y1="505.4922" y2="505.4922"/><text fill="#000000" font-family="sans-serif" font-size="13" font-weight="bold" lengthAdjust="spacing" textLength="9" x="1216.5" y="500.4263">9</text><text fill="#000000" font-family="sans-serif" font-size="13" lengthAdjust="spacing" textLength="207" x="1229.5" y="500.4263">defineSprintStatus(sprintStatus)</text><polygon fill="#181818" points="1412,530.625,1422,534.625,1412,538.625,1416,534.625" style="stroke:#181818;stroke-width:1.0;"/><line style="stroke:#181818;stroke-width:1.0;" x1="880" x2="1418" y1="534.625" y2="534.625"/><text fill="#000000" font-family="sans-serif" font-size="13" font-weight="bold" lengthAdjust="spacing" textLength="18" x="1103" y="529.5591">10</text><text fill="#000000" font-family="sans-serif" font-size="13" lengthAdjust="spacing" textLength="76" x="1125" y="529.5591">save(sprint)</text><polygon fill="#181818" points="886,559.7578,876,563.7578,886,567.7578,882,563.7578" style="stroke:#181818;stroke-width:1.0;"/><line style="stroke:#181818;stroke-width:1.0;stroke-dasharray:2.0,2.0;" x1="880" x2="1428" y1="563.7578" y2="563.7578"/><text fill="#000000" font-family="sans-serif" font-size="13" font-weight="bold" lengthAdjust="spacing" textLength="18" x="1060" y="558.6919">11</text><text fill="#000000" font-family="sans-serif" font-size="13" lengthAdjust="spacing" textLength="162" x="1082" y="558.6919">sprintWithChangedStatus</text><polygon fill="#181818" points="1582,588.8906,1592,592.8906,1582,596.8906,1586,592.8906" style="stroke:#181818;stroke-width:1.0;"/><line style="stroke:#181818;stroke-width:1.0;" x1="875" x2="1588" y1="592.8906" y2="592.8906"/><text fill="#000000" font-family="sans-serif" font-size="13" font-weight="bold" lengthAdjust="spacing" textLength="18" x="1095" y="587.8247">12</text><text fill="#000000" font-family="sans-serif" font-size="13" lengthAdjust="spacing" textLength="257" x="1117" y="587.8247">generateDTO(sprintWithChangedStatus)</text><polygon fill="#181818" points="886,618.0234,876,622.0234,886,626.0234,882,622.0234" style="stroke:#181818;stroke-width:1.0;"/><line style="stroke:#181818;stroke-width:1.0;stroke-dasharray:2.0,2.0;" x1="880" x2="1598" y1="622.0234" y2="622.0234"/><text fill="#000000" font-family="sans-serif" font-size="13" font-weight="bold" lengthAdjust="spacing" textLength="18" x="1169" y="616.9575">13</text><text fill="#000000" font-family="sans-serif" font-size="13" lengthAdjust="spacing" textLength="114" x="1191" y="616.9575">createdSprintDTO</text><polygon fill="#181818" points="602,647.1563,592,651.1563,602,655.1563,598,651.1563" style="stroke:#181818;stroke-width:1.0;"/><line style="stroke:#181818;stroke-width:1.0;stroke-dasharray:2.0,2.0;" x1="596" x2="869" y1="651.1563" y2="651.1563"/><text fill="#000000" font-family="sans-serif" font-size="13" font-weight="bold" lengthAdjust="spacing" textLength="18" x="662.5" y="646.0903">14</text><text fill="#000000" font-family="sans-serif" font-size="13" lengthAdjust="spacing" textLength="114" x="684.5" y="646.0903">createdSprintDTO</text><polygon fill="#181818" points="286,676.2891,276,680.2891,286,684.2891,282,680.2891" style="stroke:#181818;stroke-width:1.0;"/><line style="stroke:#181818;stroke-width:1.0;stroke-dasharray:2.0,2.0;" x1="280" x2="585" y1="680.2891" y2="680.2891"/><text fill="#000000" font-family="sans-serif" font-size="13" font-weight="bold" lengthAdjust="spacing" textLength="18" x="362.5" y="675.2231">15</text><text fill="#000000" font-family="sans-serif" font-size="13" lengthAdjust="spacing" textLength="114" x="384.5" y="675.2231">createdSprintDTO</text><polygon fill="#181818" points="78,705.4219,68,709.4219,78,713.4219,74,709.4219" style="stroke:#181818;stroke-width:1.0;"/><line style="stroke:#181818;stroke-width:1.0;stroke-dasharray:2.0,2.0;" x1="72" x2="264" y1="709.4219" y2="709.4219"/><text fill="#000000" font-family="sans-serif" font-size="13" font-weight="bold" lengthAdjust="spacing" textLength="18" x="79" y="704.356">16</text><text fill="#000000" font-family="sans-serif" font-size="13" lengthAdjust="spacing" textLength="152" x="101" y="704.356">successful/unsuccessful</text><!--SRC=[bLN1Zjem4BtxAqPx0h7RhTIU449YeMfpGAnWQIzxCSuGN8ATsWve_xuJn-0GGBGN58_VUpFpPXBiLgg26xu3YtzAL0AdQ2tFS9JBJ850vT0mUq9nuRHvuMAR6LsgTAnpRU2maGuR8FfrKiY2AtSFUimwnpMQwk6_2J-GfsZ-bVQTCCLrCEEbqwhShQXXvgJB4PQBpr- -mXECBBmQ_Hk5WobNv8vvX0GEr1yu3IBN5i5j44Hfg2RtJ2x9FO8jZ2I8NWE78l2byiW3hc2PKCxAJtWWzRICwW_0AUEKiOQJyD2V5QWMNlDTBHCF8eqpp60mriePdUTeXk-gNyDZp9FYiKrUeDbBWSD83H7F2yzjqaJlk5J9f68D1ZzvNk9iLJLR1MeFaib9C9dKMk7G5hjANpZkIXjhyiU6J1reIysnq5QIln-DVcAmmO_1jiR8MjojAZChYR51xZ2jIQUhsjEhLnToMMOm8o3CjVODzcqOQAYlKHLZx7KAJqCQSg_Nf_ZMndNZORlOCgaWSQGLL6ouoh3fpVpRugtJD7FoDkkooAeqmdYl2roIcV0jnqa6lfSACUX3Y_Vfk10jVXZXXKOTlwaJQ9UyEDAgdxLKwSj7adQEsRlCe2kDEhfu9X1ziEX2AsgjpOuxgLNGU3ohYEouKaGVKgJKjutitgtSyZq6IglcNz9jndvEQN0XHV_XyQQ6LxKfVtr5UpqoDqE5XYx9sCuDzLDsqPGXGYF7sIAIx0KqLiZEbiyl-Jr2jUa4f7U2R2c5e3-gTPa_boeUs5y0]--></g></svg>