<?xml version="1.0" encoding="us-ascii" standalone="no"?><svg xmlns="http://www.w3.org/2000/svg" xmlns:xlink="http://www.w3.org/1999/xlink" contentStyleType="text/css" height="719px" preserveAspectRatio="none" style="width:896px;height:719px;background:#FFFFFF;" version="1.1" viewBox="0 0 896 719" width="896px" zoomAndPan="magnify"><defs/><g><text fill="#000000" font-family="sans-serif" font-size="14" font-weight="bold" lengthAdjust="spacing" textLength="868" x="10" y="22.9951">US025 - As a Product Owner, I want to create a user story and add it to the Product Backlog using the web UI</text><!--cluster src--><g id="cluster_src"><path d="M323,43.2969 L349,43.2969 A3.75,3.75 0 0 1 351.5,45.7969 L358.5,65.5938 L578,65.5938 A2.5,2.5 0 0 1 580.5,68.0938 L580.5,709.7969 A2.5,2.5 0 0 1 578,712.2969 L323,712.2969 A2.5,2.5 0 0 1 320.5,709.7969 L320.5,45.7969 A2.5,2.5 0 0 1 323,43.2969 " fill="none" style="stroke:#000000;stroke-width:1.5;"/><line style="stroke:#000000;stroke-width:1.5;" x1="320.5" x2="358.5" y1="65.5938" y2="65.5938"/><text fill="#000000" font-family="sans-serif" font-size="14" font-weight="bold" lengthAdjust="spacing" textLength="25" x="324.5" y="58.292">src</text></g><!--cluster components--><g id="cluster_components"><path d="M397,269.2969 L496,269.2969 A3.75,3.75 0 0 1 498.5,271.7969 L505.5,291.5938 L554,291.5938 A2.5,2.5 0 0 1 556.5,294.0938 L556.5,596.7969 A2.5,2.5 0 0 1 554,599.2969 L397,599.2969 A2.5,2.5 0 0 1 394.5,596.7969 L394.5,271.7969 A2.5,2.5 0 0 1 397,269.2969 " fill="none" style="stroke:#000000;stroke-width:1.5;"/><line style="stroke:#000000;stroke-width:1.5;" x1="394.5" x2="505.5" y1="291.5938" y2="291.5938"/><text fill="#000000" font-family="sans-serif" font-size="14" font-weight="bold" lengthAdjust="spacing" textLength="98" x="398.5" y="284.292">components</text></g><path d="M384.5,78.2969 L430.5,78.2969 A3.75,3.75 0 0 1 433,80.7969 L440,100.5938 L444.5,100.5938 A2.5,2.5 0 0 1 447,103.0938 L447,128.3906 A2.5,2.5 0 0 1 444.5,130.8906 L384.5,130.8906 A2.5,2.5 0 0 1 382,128.3906 L382,80.7969 A2.5,2.5 0 0 1 384.5,78.2969 " fill="#F1F1F1" style="stroke:#181818;stroke-width:0.5;"/><line style="stroke:#181818;stroke-width:0.5;" x1="382" x2="440" y1="100.5938" y2="100.5938"/><text fill="#000000" font-family="sans-serif" font-size="14" lengthAdjust="spacing" textLength="45" x="386" y="93.292">routes</text><path d="M385.5,191.2969 L429.5,191.2969 A3.75,3.75 0 0 1 432,193.7969 L439,213.5938 L443.5,213.5938 A2.5,2.5 0 0 1 446,216.0938 L446,241.3906 A2.5,2.5 0 0 1 443.5,243.8906 L385.5,243.8906 A2.5,2.5 0 0 1 383,241.3906 L383,193.7969 A2.5,2.5 0 0 1 385.5,191.2969 " fill="#F1F1F1" style="stroke:#181818;stroke-width:0.5;"/><line style="stroke:#181818;stroke-width:0.5;" x1="383" x2="439" y1="213.5938" y2="213.5938"/><text fill="#000000" font-family="sans-serif" font-size="14" lengthAdjust="spacing" textLength="43" x="387" y="206.292">pages</text><path d="M413,530.2969 L484,530.2969 A3.75,3.75 0 0 1 486.5,532.7969 L493.5,552.5938 L498,552.5938 A2.5,2.5 0 0 1 500.5,555.0938 L500.5,580.3906 A2.5,2.5 0 0 1 498,582.8906 L413,582.8906 A2.5,2.5 0 0 1 410.5,580.3906 L410.5,532.7969 A2.5,2.5 0 0 1 413,530.2969 " fill="#F1F1F1" style="stroke:#181818;stroke-width:0.5;"/><line style="stroke:#181818;stroke-width:0.5;" x1="410.5" x2="493.5" y1="552.5938" y2="552.5938"/><text fill="#000000" font-family="sans-serif" font-size="14" lengthAdjust="spacing" textLength="70" x="414.5" y="545.292">user-story</text><path d="M413.5,304.2969 L493.5,304.2969 A3.75,3.75 0 0 1 496,306.7969 L503,326.5938 L507.5,326.5938 A2.5,2.5 0 0 1 510,329.0938 L510,354.3906 A2.5,2.5 0 0 1 507.5,356.8906 L413.5,356.8906 A2.5,2.5 0 0 1 411,354.3906 L411,306.7969 A2.5,2.5 0 0 1 413.5,304.2969 " fill="#F1F1F1" style="stroke:#181818;stroke-width:0.5;"/><line style="stroke:#181818;stroke-width:0.5;" x1="411" x2="503" y1="326.5938" y2="326.5938"/><text fill="#000000" font-family="sans-serif" font-size="14" lengthAdjust="spacing" textLength="79" x="415" y="319.292">projectsList</text><path d="M413.5,417.2969 L523.5,417.2969 A3.75,3.75 0 0 1 526,419.7969 L533,439.5938 L537.5,439.5938 A2.5,2.5 0 0 1 540,442.0938 L540,467.3906 A2.5,2.5 0 0 1 537.5,469.8906 L413.5,469.8906 A2.5,2.5 0 0 1 411,467.3906 L411,419.7969 A2.5,2.5 0 0 1 413.5,417.2969 " fill="#F1F1F1" style="stroke:#181818;stroke-width:0.5;"/><line style="stroke:#181818;stroke-width:0.5;" x1="411" x2="533" y1="439.5938" y2="439.5938"/><text fill="#000000" font-family="sans-serif" font-size="14" lengthAdjust="spacing" textLength="109" x="415" y="432.292">productBacklog</text><path d="M381,643.2969 L434,643.2969 A3.75,3.75 0 0 1 436.5,645.7969 L443.5,665.5938 L448,665.5938 A2.5,2.5 0 0 1 450.5,668.0938 L450.5,693.3906 A2.5,2.5 0 0 1 448,695.8906 L381,695.8906 A2.5,2.5 0 0 1 378.5,693.3906 L378.5,645.7969 A2.5,2.5 0 0 1 381,643.2969 " fill="#F1F1F1" style="stroke:#181818;stroke-width:0.5;"/><line style="stroke:#181818;stroke-width:0.5;" x1="378.5" x2="443.5" y1="665.5938" y2="665.5938"/><text fill="#000000" font-family="sans-serif" font-size="14" lengthAdjust="spacing" textLength="52" x="382.5" y="658.292">context</text><!--link routes to pages--><g id="link_routes_pages"><path codeLine="23" d="M414.5,131.5369 C414.5,147.7969 414.5,168.8769 414.5,186.0069 " fill="none" id="routes-to-pages" style="stroke:#181818;stroke-width:1.0;stroke-dasharray:7.0,7.0;"/><polygon fill="#181818" points="414.5,191.1869,418.5257,182.1983,414.5143,186.1869,410.5257,182.1755,414.5,191.1869" style="stroke:#181818;stroke-width:1.0;"/></g><!--link productBacklog to user-story--><g id="link_productBacklog_user-story"><path codeLine="24" d="M470.86,470.5369 C467.93,486.7969 464.13,507.8769 461.05,525.0069 " fill="none" id="productBacklog-to-user-story" style="stroke:#181818;stroke-width:1.0;stroke-dasharray:7.0,7.0;"/><polygon fill="#181818" points="460.11,530.1869,465.6429,522.0391,460.9969,525.2662,457.7698,520.6201,460.11,530.1869" style="stroke:#181818;stroke-width:1.0;"/></g><!--link pages to projectsList--><g id="link_pages_projectsList"><path codeLine="25" d="M425.17,244.5369 C431.96,260.9369 440.79,282.2369 447.93,299.4569 " fill="none" id="pages-to-projectsList" style="stroke:#181818;stroke-width:1.0;stroke-dasharray:7.0,7.0;"/><polygon fill="#181818" points="449.89,304.1869,450.1359,294.3411,447.974,299.5685,442.7466,297.4066,449.89,304.1869" style="stroke:#181818;stroke-width:1.0;"/></g><!--link projectsList to productBacklog--><g id="link_projectsList_productBacklog"><path codeLine="26" d="M463.98,357.5369 C466.18,373.7969 469.02,394.8769 471.34,412.0069 " fill="none" id="projectsList-to-productBacklog" style="stroke:#181818;stroke-width:1.0;stroke-dasharray:7.0,7.0;"/><polygon fill="#181818" points="472.04,417.1869,474.819,407.7382,471.3811,412.2305,466.8888,408.7925,472.04,417.1869" style="stroke:#181818;stroke-width:1.0;"/></g><!--link user-story to context--><g id="link_user-story_context"><path codeLine="27" d="M445.99,583.5369 C439.94,599.9369 432.07,621.2369 425.71,638.4569 " fill="none" id="user-story-to-context" style="stroke:#181818;stroke-width:1.0;stroke-dasharray:7.0,7.0;"/><polygon fill="#181818" points="423.96,643.1869,430.8277,636.1275,425.6905,638.4959,423.3221,633.3587,423.96,643.1869" style="stroke:#181818;stroke-width:1.0;"/></g><!--link projectsList to context--><g id="link_projectsList_context"><path codeLine="28" d="M432.91,357.4369 C418.13,373.1069 401.38,394.4769 393.5,417.2969 C365.95,497.1169 379.67,523.9969 393.5,607.2969 C395.23,617.7269 398.51,628.7569 401.97,638.5469 " fill="none" id="projectsList-to-context" style="stroke:#181818;stroke-width:1.0;stroke-dasharray:7.0,7.0;"/><polygon fill="#181818" points="403.67,643.2469,404.3703,633.4229,401.9693,638.545,396.8473,636.144,403.67,643.2469" style="stroke:#181818;stroke-width:1.0;"/></g><!--link productBacklog to context--><g id="link_productBacklog_context"><path codeLine="29" d="M493.65,470.5569 C514.75,503.9669 543.66,563.1869 518.5,607.2969 C504.96,631.0269 478.28,646.5269 455.34,656.0369 " fill="none" id="productBacklog-to-context" style="stroke:#181818;stroke-width:1.0;stroke-dasharray:7.0,7.0;"/><polygon fill="#181818" points="450.5,657.9669,460.3428,658.3122,455.1374,656.0976,457.352,650.8923,450.5,657.9669" style="stroke:#181818;stroke-width:1.0;"/></g><!--link pages to context--><g id="link_pages_context"><path codeLine="30" d="M400.99,244.3869 C398.52,249.8569 396.2,255.6769 394.5,261.2969 C349.97,408.8369 325.21,460.2969 371.5,607.2969 C375.03,618.5069 381.41,629.4469 388.19,638.9269 " fill="none" id="pages-to-context" style="stroke:#181818;stroke-width:1.0;stroke-dasharray:7.0,7.0;"/><polygon fill="#181818" points="391.33,643.1669,389.2068,633.5496,388.3621,639.143,382.7686,638.2983,391.33,643.1669" style="stroke:#181818;stroke-width:1.0;"/></g><!--SRC=[XP11IyGm48Nlyok6lNYnhGXUF0XwMn0KP7z0jXcwqJOJaYbLfF_TjDgOMiL2UfZtpV3UEpk9k71TLQvLLlgkBMlkglWSMx9IQACQhpeG8otXuUdYyWeBl0seyD6pxcl1Xy6IFySz3l422cFjIGb5eW_aCGZxDrHMez8QpKp8YTBwdQfVMcuYR6mpAmCTyR0747OJV6GHxb0RJxKOjW0khgY6S1TylSDtmFYbcUTUA2pZSIsw-FzBIw4Ji9AdCCKS9fV7BUWyFqUduTu4-H-TElYgO0jl75gXL_dsFmAal6Lvi-I3pU5Pp1B0qiJdLkuOVWHOYFmUhDgOYSNRh-ihSMiiapDNQVe1]--></g></svg>