<?xml version="1.0" encoding="us-ascii" standalone="no"?><svg xmlns="http://www.w3.org/2000/svg" xmlns:xlink="http://www.w3.org/1999/xlink" contentStyleType="text/css" height="758px" preserveAspectRatio="none" style="width:2191px;height:758px;background:#FFFFFF;" version="1.1" viewBox="0 0 2191 758" width="2191px" zoomAndPan="magnify"><defs/><g><text fill="#000000" font-family="sans-serif" font-size="14" font-weight="bold" lengthAdjust="spacing" textLength="458" x="865.5" y="27.9951">US008 - As Administrator, I want to add a business sector</text><rect fill="#FFFFFF" height="510.2109" style="stroke:#181818;stroke-width:1.0;" width="10" x="294" y="149.7266"/><rect fill="#FFFFFF" height="393.6797" style="stroke:#181818;stroke-width:1.0;" width="10" x="659" y="237.125"/><rect fill="#FFFFFF" height="335.4141" style="stroke:#181818;stroke-width:1.0;" width="10" x="1024" y="266.2578"/><rect fill="#FFFFFF" height="29.1328" style="stroke:#181818;stroke-width:1.0;" width="10" x="1576" y="369.2813"/><rect fill="#FFFFFF" height="29.1328" style="stroke:#181818;stroke-width:1.0;" width="10" x="1576" y="543.4063"/><rect fill="#FFFFFF" height="86.7266" style="stroke:#181818;stroke-width:1.0;" width="10" x="1776" y="427.5469"/><line style="stroke:#181818;stroke-width:0.5;stroke-dasharray:5.0,5.0;" x1="56" x2="56" y1="118.5938" y2="677.9375"/><line style="stroke:#181818;stroke-width:0.5;stroke-dasharray:5.0,5.0;" x1="298.5" x2="298.5" y1="118.5938" y2="677.9375"/><line style="stroke:#181818;stroke-width:0.5;stroke-dasharray:5.0,5.0;" x1="663.5" x2="663.5" y1="118.5938" y2="677.9375"/><line style="stroke:#181818;stroke-width:0.5;stroke-dasharray:5.0,5.0;" x1="1029" x2="1029" y1="118.5938" y2="677.9375"/><line style="stroke:#181818;stroke-width:0.5;stroke-dasharray:5.0,5.0;" x1="1382" x2="1382" y1="321.2031" y2="677.9375"/><line style="stroke:#181818;stroke-width:0.5;stroke-dasharray:5.0,5.0;" x1="1581" x2="1581" y1="118.5938" y2="677.9375"/><line style="stroke:#181818;stroke-width:0.5;stroke-dasharray:5.0,5.0;" x1="1781" x2="1781" y1="118.5938" y2="677.9375"/><line style="stroke:#181818;stroke-width:0.5;stroke-dasharray:5.0,5.0;" x1="2102" x2="2102" y1="474.3438" y2="677.9375"/><text fill="#000000" font-family="sans-serif" font-size="14" lengthAdjust="spacing" textLength="96" x="5" y="115.292">:Administrator</text><ellipse cx="56" cy="50.7969" fill="#FFFFFF" rx="8" ry="8" style="stroke:#181818;stroke-width:0.5;"/><path d="M56,58.7969 L56,85.7969 M43,66.7969 L69,66.7969 M56,85.7969 L43,100.7969 M56,85.7969 L69,100.7969 " fill="none" style="stroke:#181818;stroke-width:0.5;"/><text fill="#000000" font-family="sans-serif" font-size="14" lengthAdjust="spacing" textLength="96" x="5" y="689.9326">:Administrator</text><ellipse cx="56" cy="701.7344" fill="#FFFFFF" rx="8" ry="8" style="stroke:#181818;stroke-width:0.5;"/><path d="M56,709.7344 L56,736.7344 M43,717.7344 L69,717.7344 M56,736.7344 L43,751.7344 M56,736.7344 L69,751.7344 " fill="none" style="stroke:#181818;stroke-width:0.5;"/><rect fill="#FFFFFF" height="30.2969" rx="2.5" ry="2.5" style="stroke:#181818;stroke-width:0.5;" width="187" x="205.5" y="87.2969"/><text fill="#000000" font-family="sans-serif" font-size="14" lengthAdjust="spacing" textLength="173" x="212.5" y="107.292">:CreateBusinessSectorUI</text><rect fill="#FFFFFF" height="30.2969" rx="2.5" ry="2.5" style="stroke:#181818;stroke-width:0.5;" width="187" x="205.5" y="676.9375"/><text fill="#000000" font-family="sans-serif" font-size="14" lengthAdjust="spacing" textLength="173" x="212.5" y="696.9326">:CreateBusinessSectorUI</text><rect fill="#FFFFFF" height="30.2969" rx="2.5" ry="2.5" style="stroke:#181818;stroke-width:0.5;" width="241" x="543.5" y="87.2969"/><text fill="#000000" font-family="sans-serif" font-size="14" lengthAdjust="spacing" textLength="227" x="550.5" y="107.292">:CreateBusinessSectorController</text><rect fill="#FFFFFF" height="30.2969" rx="2.5" ry="2.5" style="stroke:#181818;stroke-width:0.5;" width="241" x="543.5" y="676.9375"/><text fill="#000000" font-family="sans-serif" font-size="14" lengthAdjust="spacing" textLength="227" x="550.5" y="696.9326">:CreateBusinessSectorController</text><rect fill="#FFFFFF" height="30.2969" rx="2.5" ry="2.5" style="stroke:#181818;stroke-width:0.5;" width="178" x="940" y="87.2969"/><text fill="#000000" font-family="sans-serif" font-size="14" lengthAdjust="spacing" textLength="164" x="947" y="107.292">:BusinessSectorService</text><rect fill="#FFFFFF" height="30.2969" rx="2.5" ry="2.5" style="stroke:#181818;stroke-width:0.5;" width="178" x="940" y="676.9375"/><text fill="#000000" font-family="sans-serif" font-size="14" lengthAdjust="spacing" textLength="164" x="947" y="696.9326">:BusinessSectorService</text><rect fill="#FFFFFF" height="62.8906" rx="2.5" ry="2.5" style="stroke:#181818;stroke-width:0.5;" width="175" x="1295" y="676.9375"/><text fill="#000000" font-family="sans-serif" font-size="14" lengthAdjust="spacing" textLength="101" x="1332" y="696.9326">&#171;ValueObject&#187;</text><text fill="#000000" font-family="sans-serif" font-size="14" lengthAdjust="spacing" textLength="157" x="1302" y="713.2295">businessSectorName :</text><text fill="#000000" font-family="sans-serif" font-size="14" lengthAdjust="spacing" textLength="40" x="1364.5" y="729.5264">Name</text><rect fill="#FFFFFF" height="46.5938" rx="2.5" ry="2.5" style="stroke:#181818;stroke-width:0.5;" width="202" x="1480" y="71"/><text fill="#000000" font-family="sans-serif" font-size="14" lengthAdjust="spacing" textLength="92" x="1535" y="90.9951">&#171;Repository&#187;</text><text fill="#000000" font-family="sans-serif" font-size="14" lengthAdjust="spacing" textLength="188" x="1487" y="107.292">:BusinessSectorRepository</text><rect fill="#FFFFFF" height="46.5938" rx="2.5" ry="2.5" style="stroke:#181818;stroke-width:0.5;" width="202" x="1480" y="676.9375"/><text fill="#000000" font-family="sans-serif" font-size="14" lengthAdjust="spacing" textLength="92" x="1535" y="696.9326">&#171;Repository&#187;</text><text fill="#000000" font-family="sans-serif" font-size="14" lengthAdjust="spacing" textLength="188" x="1487" y="713.2295">:BusinessSectorRepository</text><rect fill="#FFFFFF" height="46.5938" rx="2.5" ry="2.5" style="stroke:#181818;stroke-width:0.5;" width="178" x="1692" y="71"/><text fill="#000000" font-family="sans-serif" font-size="14" lengthAdjust="spacing" textLength="78" x="1742" y="90.9951">&#171;Interface&#187;</text><text fill="#000000" font-family="sans-serif" font-size="14" lengthAdjust="spacing" textLength="164" x="1699" y="107.292">:BusinessSectorFactory</text><rect fill="#FFFFFF" height="46.5938" rx="2.5" ry="2.5" style="stroke:#181818;stroke-width:0.5;" width="178" x="1692" y="676.9375"/><text fill="#000000" font-family="sans-serif" font-size="14" lengthAdjust="spacing" textLength="78" x="1742" y="696.9326">&#171;Interface&#187;</text><text fill="#000000" font-family="sans-serif" font-size="14" lengthAdjust="spacing" textLength="164" x="1699" y="713.2295">:BusinessSectorFactory</text><rect fill="#FFFFFF" height="46.5938" rx="2.5" ry="2.5" style="stroke:#181818;stroke-width:0.5;" width="165" x="2020" y="676.9375"/><text fill="#000000" font-family="sans-serif" font-size="14" lengthAdjust="spacing" textLength="147" x="2027" y="696.9326">newBusinessSector :</text><text fill="#000000" font-family="sans-serif" font-size="14" lengthAdjust="spacing" textLength="109" x="2048" y="713.2295">BusinessSector</text><rect fill="#FFFFFF" height="510.2109" style="stroke:#181818;stroke-width:1.0;" width="10" x="294" y="149.7266"/><rect fill="#FFFFFF" height="393.6797" style="stroke:#181818;stroke-width:1.0;" width="10" x="659" y="237.125"/><rect fill="#FFFFFF" height="335.4141" style="stroke:#181818;stroke-width:1.0;" width="10" x="1024" y="266.2578"/><rect fill="#FFFFFF" height="29.1328" style="stroke:#181818;stroke-width:1.0;" width="10" x="1576" y="369.2813"/><rect fill="#FFFFFF" height="29.1328" style="stroke:#181818;stroke-width:1.0;" width="10" x="1576" y="543.4063"/><rect fill="#FFFFFF" height="86.7266" style="stroke:#181818;stroke-width:1.0;" width="10" x="1776" y="427.5469"/><polygon fill="#181818" points="282,145.7266,292,149.7266,282,153.7266,286,149.7266" style="stroke:#181818;stroke-width:1.0;"/><line style="stroke:#181818;stroke-width:1.0;" x1="56" x2="288" y1="149.7266" y2="149.7266"/><text fill="#000000" font-family="sans-serif" font-size="13" font-weight="bold" lengthAdjust="spacing" textLength="9" x="66" y="144.6606">1</text><text fill="#000000" font-family="sans-serif" font-size="13" lengthAdjust="spacing" textLength="205" x="79" y="144.6606">requests to add business sector</text><polygon fill="#181818" points="67,174.8594,57,178.8594,67,182.8594,63,178.8594" style="stroke:#181818;stroke-width:1.0;"/><line style="stroke:#181818;stroke-width:1.0;stroke-dasharray:2.0,2.0;" x1="61" x2="293" y1="178.8594" y2="178.8594"/><text fill="#000000" font-family="sans-serif" font-size="13" font-weight="bold" lengthAdjust="spacing" textLength="9" x="68" y="173.7935">2</text><text fill="#000000" font-family="sans-serif" font-size="13" lengthAdjust="spacing" textLength="201" x="81" y="173.7935">requests business sector name</text><polygon fill="#181818" points="282,203.9922,292,207.9922,282,211.9922,286,207.9922" style="stroke:#181818;stroke-width:1.0;"/><line style="stroke:#181818;stroke-width:1.0;" x1="56" x2="288" y1="207.9922" y2="207.9922"/><text fill="#000000" font-family="sans-serif" font-size="13" font-weight="bold" lengthAdjust="spacing" textLength="9" x="75.5" y="202.9263">3</text><text fill="#000000" font-family="sans-serif" font-size="13" lengthAdjust="spacing" textLength="186" x="88.5" y="202.9263">enters business sector name</text><polygon fill="#181818" points="647,233.125,657,237.125,647,241.125,651,237.125" style="stroke:#181818;stroke-width:1.0;"/><line style="stroke:#181818;stroke-width:1.0;" x1="304" x2="653" y1="237.125" y2="237.125"/><text fill="#000000" font-family="sans-serif" font-size="13" font-weight="bold" lengthAdjust="spacing" textLength="9" x="313.5" y="232.0591">4</text><text fill="#000000" font-family="sans-serif" font-size="13" lengthAdjust="spacing" textLength="323" x="326.5" y="232.0591">createBusinessSector(businessSectorNameValue)</text><polygon fill="#181818" points="1012,262.2578,1022,266.2578,1012,270.2578,1016,266.2578" style="stroke:#181818;stroke-width:1.0;"/><line style="stroke:#181818;stroke-width:1.0;" x1="669" x2="1018" y1="266.2578" y2="266.2578"/><text fill="#000000" font-family="sans-serif" font-size="13" font-weight="bold" lengthAdjust="spacing" textLength="9" x="678.5" y="261.1919">5</text><text fill="#000000" font-family="sans-serif" font-size="13" lengthAdjust="spacing" textLength="323" x="691.5" y="261.1919">createBusinessSector(businessSectorNameValue)</text><polygon fill="#181818" points="1283,291.3906,1293,295.3906,1283,299.3906,1287,295.3906" style="stroke:#181818;stroke-width:1.0;"/><line style="stroke:#181818;stroke-width:1.0;" x1="1034" x2="1289" y1="295.3906" y2="295.3906"/><text fill="#000000" font-family="sans-serif" font-size="13" font-weight="bold" lengthAdjust="spacing" textLength="9" x="1046" y="290.3247">6</text><text fill="#000000" font-family="sans-serif" font-size="13" lengthAdjust="spacing" textLength="224" x="1059" y="290.3247">create(businessSectorNameValue)</text><rect fill="#FFFFFF" height="62.8906" rx="2.5" ry="2.5" style="stroke:#181818;stroke-width:0.5;" width="175" x="1295" y="274.2578"/><text fill="#000000" font-family="sans-serif" font-size="14" lengthAdjust="spacing" textLength="101" x="1332" y="294.2529">&#171;ValueObject&#187;</text><text fill="#000000" font-family="sans-serif" font-size="14" lengthAdjust="spacing" textLength="157" x="1302" y="310.5498">businessSectorName :</text><text fill="#000000" font-family="sans-serif" font-size="14" lengthAdjust="spacing" textLength="40" x="1364.5" y="326.8467">Name</text><polygon fill="#181818" points="1564,365.2813,1574,369.2813,1564,373.2813,1568,369.2813" style="stroke:#181818;stroke-width:1.0;"/><line style="stroke:#181818;stroke-width:1.0;" x1="1034" x2="1570" y1="369.2813" y2="369.2813"/><text fill="#000000" font-family="sans-serif" font-size="13" font-weight="bold" lengthAdjust="spacing" textLength="9" x="1192" y="364.2153">7</text><text fill="#000000" font-family="sans-serif" font-size="13" lengthAdjust="spacing" textLength="213" x="1205" y="364.2153">existsByID(businessSectorName)</text><polygon fill="#181818" points="1045,394.4141,1035,398.4141,1045,402.4141,1041,398.4141" style="stroke:#181818;stroke-width:1.0;"/><line style="stroke:#181818;stroke-width:1.0;stroke-dasharray:2.0,2.0;" x1="1039" x2="1580" y1="398.4141" y2="398.4141"/><text fill="#000000" font-family="sans-serif" font-size="13" font-weight="bold" lengthAdjust="spacing" textLength="9" x="1271" y="393.3481">8</text><text fill="#000000" font-family="sans-serif" font-size="13" lengthAdjust="spacing" textLength="60" x="1284" y="393.3481">true/false</text><polygon fill="#181818" points="1764,423.5469,1774,427.5469,1764,431.5469,1768,427.5469" style="stroke:#181818;stroke-width:1.0;"/><line style="stroke:#181818;stroke-width:1.0;" x1="1034" x2="1770" y1="427.5469" y2="427.5469"/><text fill="#000000" font-family="sans-serif" font-size="13" font-weight="bold" lengthAdjust="spacing" textLength="9" x="1255" y="422.481">9</text><text fill="#000000" font-family="sans-serif" font-size="13" lengthAdjust="spacing" textLength="287" x="1268" y="422.481">createBusinessSector(businessSectorName)</text><polygon fill="#181818" points="2008,452.6797,2018,456.6797,2008,460.6797,2012,456.6797" style="stroke:#181818;stroke-width:1.0;"/><line style="stroke:#181818;stroke-width:1.0;" x1="1786" x2="2014" y1="456.6797" y2="456.6797"/><text fill="#000000" font-family="sans-serif" font-size="13" font-weight="bold" lengthAdjust="spacing" textLength="18" x="1798" y="451.6138">10</text><text fill="#000000" font-family="sans-serif" font-size="13" lengthAdjust="spacing" textLength="188" x="1820" y="451.6138">create(businessSectorName)</text><rect fill="#FFFFFF" height="46.5938" rx="2.5" ry="2.5" style="stroke:#181818;stroke-width:0.5;" width="165" x="2020" y="435.5469"/><text fill="#000000" font-family="sans-serif" font-size="14" lengthAdjust="spacing" textLength="147" x="2027" y="455.542">newBusinessSector :</text><text fill="#000000" font-family="sans-serif" font-size="14" lengthAdjust="spacing" textLength="109" x="2048" y="471.8389">BusinessSector</text><polygon fill="#181818" points="1045,510.2734,1035,514.2734,1045,518.2734,1041,514.2734" style="stroke:#181818;stroke-width:1.0;"/><line style="stroke:#181818;stroke-width:1.0;stroke-dasharray:2.0,2.0;" x1="1039" x2="1780" y1="514.2734" y2="514.2734"/><text fill="#000000" font-family="sans-serif" font-size="13" font-weight="bold" lengthAdjust="spacing" textLength="18" x="1334.5" y="509.2075">11</text><text fill="#000000" font-family="sans-serif" font-size="13" lengthAdjust="spacing" textLength="124" x="1356.5" y="509.2075">newBusinessSector</text><polygon fill="#181818" points="1564,539.4063,1574,543.4063,1564,547.4063,1568,543.4063" style="stroke:#181818;stroke-width:1.0;"/><line style="stroke:#181818;stroke-width:1.0;" x1="1034" x2="1570" y1="543.4063" y2="543.4063"/><text fill="#000000" font-family="sans-serif" font-size="13" font-weight="bold" lengthAdjust="spacing" textLength="18" x="1212" y="538.3403">12</text><text fill="#000000" font-family="sans-serif" font-size="13" lengthAdjust="spacing" textLength="164" x="1234" y="538.3403">save(newBusinessSector)</text><polygon fill="#181818" points="1045,568.5391,1035,572.5391,1045,576.5391,1041,572.5391" style="stroke:#181818;stroke-width:1.0;"/><line style="stroke:#181818;stroke-width:1.0;stroke-dasharray:2.0,2.0;" x1="1039" x2="1580" y1="572.5391" y2="572.5391"/><text fill="#000000" font-family="sans-serif" font-size="13" font-weight="bold" lengthAdjust="spacing" textLength="18" x="1266.5" y="567.4731">13</text><text fill="#000000" font-family="sans-serif" font-size="13" lengthAdjust="spacing" textLength="60" x="1288.5" y="567.4731">true/false</text><polygon fill="#181818" points="680,597.6719,670,601.6719,680,605.6719,676,601.6719" style="stroke:#181818;stroke-width:1.0;"/><line style="stroke:#181818;stroke-width:1.0;stroke-dasharray:2.0,2.0;" x1="674" x2="1028" y1="601.6719" y2="601.6719"/><text fill="#000000" font-family="sans-serif" font-size="13" font-weight="bold" lengthAdjust="spacing" textLength="18" x="808" y="596.606">14</text><text fill="#000000" font-family="sans-serif" font-size="13" lengthAdjust="spacing" textLength="60" x="830" y="596.606">true/false</text><polygon fill="#181818" points="315,626.8047,305,630.8047,315,634.8047,311,630.8047" style="stroke:#181818;stroke-width:1.0;"/><line style="stroke:#181818;stroke-width:1.0;stroke-dasharray:2.0,2.0;" x1="309" x2="663" y1="630.8047" y2="630.8047"/><text fill="#000000" font-family="sans-serif" font-size="13" font-weight="bold" lengthAdjust="spacing" textLength="18" x="443" y="625.7388">15</text><text fill="#000000" font-family="sans-serif" font-size="13" lengthAdjust="spacing" textLength="60" x="465" y="625.7388">true/false</text><polygon fill="#181818" points="67,655.9375,57,659.9375,67,663.9375,63,659.9375" style="stroke:#181818;stroke-width:1.0;"/><line style="stroke:#181818;stroke-width:1.0;stroke-dasharray:2.0,2.0;" x1="61" x2="298" y1="659.9375" y2="659.9375"/><text fill="#000000" font-family="sans-serif" font-size="13" font-weight="bold" lengthAdjust="spacing" textLength="18" x="90.5" y="654.8716">16</text><text fill="#000000" font-family="sans-serif" font-size="13" lengthAdjust="spacing" textLength="152" x="112.5" y="654.8716">successful/unsuccessful</text><!--SRC=[fLF9Rjim4BthAmRf9K9g9CV220pOBjBga1Q8uPvoeQcnoqGc7Ivny_STKbIrsebG7WHAV0jdviay2tbWckt1u8j3oV4UZM4xd1TY9u6ZjAWJym_5k5LwmVZpJYidywKgb8RZRs6n0QAd5LmScBJlGIlN1zoYzflHXE_8SjGVfNqZp64Op9nLqkqtL6zYXIqGrgkRcoymWRc1URuNKXYh6TN_6J8uKd5W5R0y1mORPuIanf6FRr2IX3x1nRJ5km0MbU1JwTde586N6fd5HTHQ1Qbr5bZhxEEKfP9MgwB0qh1-7PPearUeNmN7m8pxDlxszXSh7FxSF15-DdkKcnR_1ziZJE5HWjy56KcRhiO37fGHX7_p4fqxr8U1V-gmgvdvh6uPnm79kp2GKY_kstI9npOZ5D7-L5RJ0yQk9kLa9pCQrjNL5BIFdB6cIaat8q2BnZeXGibiK3hOieMUqF0WVFWxJw03lFAODLBWxyO7OdFP7sIOT5fB-TM84yd6YFodfbyblQwqkQABD_JdbTS8zOR2gJZv6l0F_QjcyPPz7T1EUweQhTCIh7PulMM5mRvnnpncRqI_qa79gblTC0vVmA_e77hOPPrfQ7fIC1O_uWeZ1c7OArxsfDEpqkzCuypnm57yP1pdPBzrnRMJzKlo5m00]--></g></svg>