<?xml version="1.0" encoding="us-ascii" standalone="no"?><svg xmlns="http://www.w3.org/2000/svg" xmlns:xlink="http://www.w3.org/1999/xlink" contentStyleType="text/css" height="540px" preserveAspectRatio="none" style="width:1161px;height:540px;background:#FFFFFF;" version="1.1" viewBox="0 0 1161 540" width="1161px" zoomAndPan="magnify"><defs/><g><text fill="#000000" font-family="sans-serif" font-size="14" font-weight="bold" lengthAdjust="spacing" textLength="547" x="305.75" y="32.9951">US023 - As an Administrator, I want to create a Project in the web UI.</text><rect fill="#F1F1F1" height="36.2969" rx="12.5" ry="12.5" style="stroke:#181818;stroke-width:1.5;" width="58.3333" x="550.5833" y="47.2969"/><path d="M566.25,60.7604 C563.6717,60.7604 561.5833,62.8487 561.5833,65.4271 C561.5833,68.0054 563.6717,70.0938 566.25,70.0938 C568.8283,70.0938 570.9167,68.0054 570.9167,65.4271 C570.9167,62.8487 568.8283,60.7604 566.25,60.7604 M566.25,61.9271 C566.635,61.9271 566.9967,62.0321 567.3467,62.1488 C567.1017,62.3821 566.8217,62.5921 566.8683,62.8021 C566.915,63.0121 567.6733,62.9538 567.6733,63.3854 C567.6733,63.7004 567.1833,63.7937 567.5217,64.1554 C567.93,64.5638 566.775,65.2988 566.7517,65.8354 C566.7167,66.8038 567.7317,66.9671 568.5367,66.9671 C569.0267,66.9671 569.155,67.2004 569.12,67.4804 C568.49,68.3788 567.4167,68.9388 566.2383,68.9388 C565.795,68.9388 565.3867,68.8338 565.0017,68.6821 C565.2583,68.1688 564.675,67.1538 564.1267,66.8271 C563.8583,66.5588 563.2867,66.6638 562.96,66.5354 C562.855,66.2204 562.75,65.9054 562.7383,65.5554 C562.7733,65.4971 562.8317,65.4504 562.925,65.4504 C563.1467,65.4504 563.45,65.8938 563.6133,65.8471 C563.8233,65.8004 562.75,64.3188 563.2517,64.0271 C563.485,63.8871 563.9517,64.4821 563.8,63.8404 C563.66,63.2454 564.22,63.5137 564.57,63.3621 C564.8733,63.2338 565.095,62.8838 564.7217,62.6738 C564.6517,62.6387 564.57,62.5571 564.465,62.4521 C564.99,62.1371 565.5967,61.9388 566.25,61.9388 M568.945,63.1988 C569.155,63.4554 569.3183,63.7354 569.4583,64.0388 C569.4583,64.0504 569.4583,64.0621 569.4583,64.0738 C569.4117,64.1554 569.33,64.2021 569.2017,64.3304 C568.875,64.6571 568.8283,64.0854 568.6883,63.9688 C568.5367,63.8288 567.9883,63.9921 567.9183,63.8171 C567.8367,63.6071 568.5017,63.3271 568.945,63.1988 " fill="#000000" style="stroke:;stroke-width:0.0;stroke-dasharray:;"/><text fill="#000000" font-family="sans-serif" font-size="14" lengthAdjust="spacing" textLength="27" x="571.9167" y="70.292">App</text><rect fill="#F1F1F1" height="36.2969" rx="12.5" ry="12.5" style="stroke:#181818;stroke-width:1.5;" width="67" x="24" y="108.5938"/><text fill="#000000" font-family="sans-serif" font-size="14" lengthAdjust="spacing" textLength="47" x="34" y="131.5889">Navbar</text><rect fill="#F1F1F1" height="36.2969" rx="12.5" ry="12.5" style="stroke:#181818;stroke-width:1.5;" width="75" x="20" y="169.8906"/><text fill="#000000" font-family="sans-serif" font-size="14" lengthAdjust="spacing" textLength="55" x="30" y="192.8857">NavItem</text><path d="M57.5,144.8906 L57.5,147.8906 C57.5,154.8906 57.5,159.8906 57.5,166.8906 L57.5,169.8906 " fill="none" style="stroke:#181818;stroke-width:1.0;"/><path d="M579.75,83.5938 L579.75,86.5938 C579.75,93.5938 57.5,98.5938 57.5,105.5938 L57.5,108.5938 " fill="none" style="stroke:#181818;stroke-width:1.0;"/><rect fill="#F1F1F1" height="36.2969" rx="12.5" ry="12.5" style="stroke:#181818;stroke-width:1.5;" width="94" x="580.25" y="108.5938"/><text fill="#000000" font-family="sans-serif" font-size="14" lengthAdjust="spacing" textLength="74" x="590.25" y="131.5889">MainRoute</text><rect fill="#F1F1F1" height="36.2969" rx="12.5" ry="12.5" style="stroke:#181818;stroke-width:1.5;" width="76" x="589.25" y="169.8906"/><text fill="#000000" font-family="sans-serif" font-size="14" lengthAdjust="spacing" textLength="56" x="599.25" y="192.8857">Projects</text><rect fill="#F1F1F1" height="36.2969" rx="12.5" ry="12.5" style="stroke:#181818;stroke-width:1.5;" width="183" x="132" y="231.1875"/><text fill="#000000" font-family="sans-serif" font-size="14" lengthAdjust="spacing" textLength="163" x="142" y="254.1826">SuccessMessageModal</text><rect fill="#F1F1F1" height="36.2969" rx="12.5" ry="12.5" style="stroke:#181818;stroke-width:1.5;" width="86" x="115" y="292.4844"/><text fill="#000000" font-family="sans-serif" font-size="14" lengthAdjust="spacing" textLength="66" x="125" y="315.4795">Backdrop</text><path d="M223.5,267.4844 L223.5,270.4844 C223.5,277.4844 158,282.4844 158,289.4844 L158,292.4844 " fill="none" style="stroke:#181818;stroke-width:1.0;"/><rect fill="#F1F1F1" height="36.2969" rx="12.5" ry="12.5" style="stroke:#181818;stroke-width:1.5;" width="111" x="221" y="292.4844"/><text fill="#000000" font-family="sans-serif" font-size="14" lengthAdjust="spacing" textLength="91" x="231" y="315.4795">ModalOverlay</text><rect fill="#F1F1F1" height="36.2969" rx="12.5" ry="12.5" style="stroke:#181818;stroke-width:1.5;" width="52" x="250.5" y="353.7813"/><text fill="#000000" font-family="sans-serif" font-size="14" lengthAdjust="spacing" textLength="32" x="260.5" y="376.7764">Card</text><rect fill="#F1F1F1" height="52.5938" rx="12.5" ry="12.5" style="stroke:#181818;stroke-width:1.5;" width="67" x="243" y="415.0781"/><text fill="#000000" font-family="sans-serif" font-size="14" lengthAdjust="spacing" textLength="47" x="253" y="438.0732">Button</text><text fill="#000000" font-family="sans-serif" font-size="14" lengthAdjust="spacing" textLength="44" x="253" y="454.3701">(Okay)</text><path d="M276.5,390.0781 L276.5,393.0781 C276.5,400.0781 276.5,405.0781 276.5,412.0781 L276.5,415.0781 " fill="none" style="stroke:#181818;stroke-width:1.0;"/><path d="M276.5,328.7813 L276.5,331.7813 C276.5,338.7813 276.5,343.7813 276.5,350.7813 L276.5,353.7813 " fill="none" style="stroke:#181818;stroke-width:1.0;"/><path d="M223.5,267.4844 L223.5,270.4844 C223.5,277.4844 276.5,282.4844 276.5,289.4844 L276.5,292.4844 " fill="none" style="stroke:#181818;stroke-width:1.0;"/><path d="M627.25,206.1875 L627.25,209.1875 C627.25,216.1875 223.5,221.1875 223.5,228.1875 L223.5,231.1875 " fill="none" style="stroke:#181818;stroke-width:1.0;"/><rect fill="#F1F1F1" height="36.2969" rx="12.5" ry="12.5" style="stroke:#181818;stroke-width:1.5;" width="70" x="335" y="231.1875"/><text fill="#000000" font-family="sans-serif" font-size="14" lengthAdjust="spacing" textLength="50" x="345" y="254.1826">Header</text><path d="M627.25,206.1875 L627.25,209.1875 C627.25,216.1875 370,221.1875 370,228.1875 L370,231.1875 " fill="none" style="stroke:#181818;stroke-width:1.0;"/><rect fill="#F1F1F1" height="36.2969" rx="12.5" ry="12.5" style="stroke:#181818;stroke-width:1.5;" width="103" x="694.25" y="231.1875"/><text fill="#000000" font-family="sans-serif" font-size="14" lengthAdjust="spacing" textLength="83" x="704.25" y="254.1826">ProjectForm</text><rect fill="#F1F1F1" height="52.5938" rx="12.5" ry="12.5" style="stroke:#181818;stroke-width:1.5;" width="67" x="352" y="292.4844"/><text fill="#000000" font-family="sans-serif" font-size="14" lengthAdjust="spacing" textLength="47" x="362" y="315.4795">Button</text><text fill="#000000" font-family="sans-serif" font-size="14" lengthAdjust="spacing" textLength="44" x="362" y="331.7764">(Back)</text><path d="M745.75,267.4844 L745.75,270.4844 C745.75,277.4844 385.5,282.4844 385.5,289.4844 L385.5,292.4844 " fill="none" style="stroke:#181818;stroke-width:1.0;"/><rect fill="#F1F1F1" height="52.5938" rx="12.5" ry="12.5" style="stroke:#181818;stroke-width:1.5;" width="109" x="439" y="292.4844"/><text fill="#000000" font-family="sans-serif" font-size="14" lengthAdjust="spacing" textLength="47" x="449" y="315.4795">Button</text><text fill="#000000" font-family="sans-serif" font-size="14" lengthAdjust="spacing" textLength="89" x="449" y="331.7764">(Add project)</text><path d="M745.75,267.4844 L745.75,270.4844 C745.75,277.4844 493.5,282.4844 493.5,289.4844 L493.5,292.4844 " fill="none" style="stroke:#181818;stroke-width:1.0;"/><rect fill="#F1F1F1" height="52.5938" rx="12.5" ry="12.5" style="stroke:#181818;stroke-width:1.5;" width="71" x="568" y="292.4844"/><text fill="#000000" font-family="sans-serif" font-size="14" lengthAdjust="spacing" textLength="47" x="578" y="315.4795">Button</text><text fill="#000000" font-family="sans-serif" font-size="14" lengthAdjust="spacing" textLength="51" x="578" y="331.7764">(Reset)</text><path d="M745.75,267.4844 L745.75,270.4844 C745.75,277.4844 603.5,282.4844 603.5,289.4844 L603.5,292.4844 " fill="none" style="stroke:#181818;stroke-width:1.0;"/><rect fill="#F1F1F1" height="36.2969" rx="12.5" ry="12.5" style="stroke:#181818;stroke-width:1.5;" width="162" x="699.75" y="292.4844"/><text fill="#000000" font-family="sans-serif" font-size="14" lengthAdjust="spacing" textLength="142" x="709.75" y="315.4795">ConfirmProjectModal</text><rect fill="#F1F1F1" height="36.2969" rx="12.5" ry="12.5" style="stroke:#181818;stroke-width:1.5;" width="86" x="659" y="353.7813"/><text fill="#000000" font-family="sans-serif" font-size="14" lengthAdjust="spacing" textLength="66" x="669" y="376.7764">Backdrop</text><path d="M780.75,328.7813 L780.75,331.7813 C780.75,338.7813 702,343.7813 702,350.7813 L702,353.7813 " fill="none" style="stroke:#181818;stroke-width:1.0;"/><rect fill="#F1F1F1" height="36.2969" rx="12.5" ry="12.5" style="stroke:#181818;stroke-width:1.5;" width="111" x="765" y="353.7813"/><text fill="#000000" font-family="sans-serif" font-size="14" lengthAdjust="spacing" textLength="91" x="775" y="376.7764">ModalOverlay</text><rect fill="#F1F1F1" height="36.2969" rx="12.5" ry="12.5" style="stroke:#181818;stroke-width:1.5;" width="52" x="794.5" y="415.0781"/><text fill="#000000" font-family="sans-serif" font-size="14" lengthAdjust="spacing" textLength="32" x="804.5" y="438.0732">Card</text><rect fill="#F1F1F1" height="52.5938" rx="12.5" ry="12.5" style="stroke:#181818;stroke-width:1.5;" width="67" x="738.5" y="476.375"/><text fill="#000000" font-family="sans-serif" font-size="14" lengthAdjust="spacing" textLength="47" x="748.5" y="499.3701">Button</text><text fill="#000000" font-family="sans-serif" font-size="14" lengthAdjust="spacing" textLength="43" x="748.5" y="515.667">(Save)</text><path d="M820.5,451.375 L820.5,454.375 C820.5,461.375 772,466.375 772,473.375 L772,476.375 " fill="none" style="stroke:#181818;stroke-width:1.0;"/><rect fill="#F1F1F1" height="52.5938" rx="12.5" ry="12.5" style="stroke:#181818;stroke-width:1.5;" width="77" x="825.5" y="476.375"/><text fill="#000000" font-family="sans-serif" font-size="14" lengthAdjust="spacing" textLength="47" x="835.5" y="499.3701">Button</text><text fill="#000000" font-family="sans-serif" font-size="14" lengthAdjust="spacing" textLength="57" x="835.5" y="515.667">(Cancel)</text><path d="M820.5,451.375 L820.5,454.375 C820.5,461.375 864,466.375 864,473.375 L864,476.375 " fill="none" style="stroke:#181818;stroke-width:1.0;"/><path d="M820.5,390.0781 L820.5,393.0781 C820.5,400.0781 820.5,405.0781 820.5,412.0781 L820.5,415.0781 " fill="none" style="stroke:#181818;stroke-width:1.0;"/><path d="M780.75,328.7813 L780.75,331.7813 C780.75,338.7813 820.5,343.7813 820.5,350.7813 L820.5,353.7813 " fill="none" style="stroke:#181818;stroke-width:1.0;"/><path d="M745.75,267.4844 L745.75,270.4844 C745.75,277.4844 780.75,282.4844 780.75,289.4844 L780.75,292.4844 " fill="none" style="stroke:#181818;stroke-width:1.0;"/><rect fill="#F1F1F1" height="36.2969" rx="12.5" ry="12.5" style="stroke:#181818;stroke-width:1.5;" width="142" x="960" y="292.4844"/><text fill="#000000" font-family="sans-serif" font-size="14" lengthAdjust="spacing" textLength="122" x="970" y="315.4795">ErrorProjectModal</text><rect fill="#F1F1F1" height="36.2969" rx="12.5" ry="12.5" style="stroke:#181818;stroke-width:1.5;" width="86" x="922.5" y="353.7813"/><text fill="#000000" font-family="sans-serif" font-size="14" lengthAdjust="spacing" textLength="66" x="932.5" y="376.7764">Backdrop</text><path d="M1031,328.7813 L1031,331.7813 C1031,338.7813 965.5,343.7813 965.5,350.7813 L965.5,353.7813 " fill="none" style="stroke:#181818;stroke-width:1.0;"/><rect fill="#F1F1F1" height="36.2969" rx="12.5" ry="12.5" style="stroke:#181818;stroke-width:1.5;" width="111" x="1028.5" y="353.7813"/><text fill="#000000" font-family="sans-serif" font-size="14" lengthAdjust="spacing" textLength="91" x="1038.5" y="376.7764">ModalOverlay</text><rect fill="#F1F1F1" height="36.2969" rx="12.5" ry="12.5" style="stroke:#181818;stroke-width:1.5;" width="52" x="1058" y="415.0781"/><text fill="#000000" font-family="sans-serif" font-size="14" lengthAdjust="spacing" textLength="32" x="1068" y="438.0732">Card</text><rect fill="#F1F1F1" height="52.5938" rx="12.5" ry="12.5" style="stroke:#181818;stroke-width:1.5;" width="67" x="1050.5" y="476.375"/><text fill="#000000" font-family="sans-serif" font-size="14" lengthAdjust="spacing" textLength="47" x="1060.5" y="499.3701">Button</text><text fill="#000000" font-family="sans-serif" font-size="14" lengthAdjust="spacing" textLength="44" x="1060.5" y="515.667">(Okay)</text><path d="M1084,451.375 L1084,454.375 C1084,461.375 1084,466.375 1084,473.375 L1084,476.375 " fill="none" style="stroke:#181818;stroke-width:1.0;"/><path d="M1084,390.0781 L1084,393.0781 C1084,400.0781 1084,405.0781 1084,412.0781 L1084,415.0781 " fill="none" style="stroke:#181818;stroke-width:1.0;"/><path d="M1031,328.7813 L1031,331.7813 C1031,338.7813 1084,343.7813 1084,350.7813 L1084,353.7813 " fill="none" style="stroke:#181818;stroke-width:1.0;"/><path d="M745.75,267.4844 L745.75,270.4844 C745.75,277.4844 1031,282.4844 1031,289.4844 L1031,292.4844 " fill="none" style="stroke:#181818;stroke-width:1.0;"/><path d="M627.25,206.1875 L627.25,209.1875 C627.25,216.1875 745.75,221.1875 745.75,228.1875 L745.75,231.1875 " fill="none" style="stroke:#181818;stroke-width:1.0;"/><path d="M627.25,144.8906 L627.25,147.8906 C627.25,154.8906 627.25,159.8906 627.25,166.8906 L627.25,169.8906 " fill="none" style="stroke:#181818;stroke-width:1.0;"/><path d="M579.75,83.5938 L579.75,86.5938 C579.75,93.5938 627.25,98.5938 627.25,105.5938 L627.25,108.5938 " fill="none" style="stroke:#181818;stroke-width:1.0;"/><!--SRC=[hL9DRzf04BtlhvXJXQs285HjObLL224j51U48RtqClPEo3RshZMxTiI_xnex7wKvzc1fzhsPztQyxz8wP5SeBGiiXN3AvGIxP7WsXZvCBA26YVIqiexH6NuFStX4xS0Po9ZG4I2isVocp87IuEu97Yc5tNpWrKpPzAN6ELE0LEoRbD52XF3vtJutANsPbAK8G_Y1TOhigsCvTrGqQ8nARqpbw4XqBhOvX91KMKRMnlx3FSL6OduaGhZ2x46oARlZaLhLn3aUMYY4ARBiQjzV-UlfNxgtUi13qAf_8vJ4RTtvtXWknCb4OnMSWXCfeMnd_k4sPEaPdHfzfxZez5-jSBh3cqlylSKhZmHh2jx0fwWpof_CPyo6_xTr-mV59Mdv7AbrxkEoYvVW9Qn_VHWDpdoy1kFUzhxoJymml83HfsWyZ4Rdy7EsXOOEHE_hUWdML9oHZuwFdqgh9Zs1M62DiAcqKmL5i2f9Bww_Fm4mqxLYemlIJYnkuvU6Zn_wLyf1Gknl0hUnkAOxh7Bd9p8ZbTv7iDlUzC_54lM-yg6AWBIO6g_B1yybVm00]--></g></svg>