<?xml version="1.0" encoding="us-ascii" standalone="no"?><svg xmlns="http://www.w3.org/2000/svg" xmlns:xlink="http://www.w3.org/1999/xlink" contentStyleType="text/css" height="758px" preserveAspectRatio="none" style="width:1391px;height:758px;background:#FFFFFF;" version="1.1" viewBox="0 0 1391 758" width="1391px" zoomAndPan="magnify"><defs/><g><text fill="#000000" font-family="sans-serif" font-size="14" font-weight="bold" lengthAdjust="spacing" textLength="439" x="477.75" y="27.9951">US015 - As a Manager, I want to get a list of all projects</text><rect fill="#FFFFFF" height="509.7813" style="stroke:#181818;stroke-width:1.0;" width="10" x="239.5" y="149.7266"/><rect fill="#FFFFFF" height="451.5156" style="stroke:#181818;stroke-width:1.0;" width="10" x="406.5" y="178.8594"/><rect fill="#FFFFFF" height="393.25" style="stroke:#181818;stroke-width:1.0;" width="10" x="576.5" y="207.9922"/><rect fill="#FFFFFF" height="29.1328" style="stroke:#181818;stroke-width:1.0;" width="10" x="715.5" y="237.125"/><rect fill="#FFFFFF" height="276.7188" style="stroke:#181818;stroke-width:1.0;" width="10" x="900.5" y="295.3906"/><rect fill="#FFFFFF" height="34.1328" style="stroke:#181818;stroke-width:1.0;" width="10" x="905.5" y="414.25"/><rect fill="#FFFFFF" height="30" style="stroke:#181818;stroke-width:1.0;" width="10" x="1298" y="505.9766"/><rect fill="none" height="175.9922" style="stroke:#000000;stroke-width:1.5;" width="594.5" x="791" y="367.9844"/><line style="stroke:#181818;stroke-width:0.5;stroke-dasharray:5.0,5.0;" x1="40" x2="40" y1="118.5938" y2="677.5078"/><line style="stroke:#181818;stroke-width:0.5;stroke-dasharray:5.0,5.0;" x1="244" x2="244" y1="118.5938" y2="677.5078"/><line style="stroke:#181818;stroke-width:0.5;stroke-dasharray:5.0,5.0;" x1="411" x2="411" y1="118.5938" y2="677.5078"/><line style="stroke:#181818;stroke-width:0.5;stroke-dasharray:5.0,5.0;" x1="581" x2="581" y1="118.5938" y2="677.5078"/><line style="stroke:#181818;stroke-width:0.5;stroke-dasharray:5.0,5.0;" x1="720" x2="720" y1="118.5938" y2="677.5078"/><line style="stroke:#181818;stroke-width:0.5;stroke-dasharray:5.0,5.0;" x1="905" x2="905" y1="118.5938" y2="677.5078"/><line style="stroke:#181818;stroke-width:0.5;stroke-dasharray:5.0,5.0;" x1="1171.5" x2="1171.5" y1="466.0469" y2="677.5078"/><line style="stroke:#181818;stroke-width:0.5;stroke-dasharray:5.0,5.0;" x1="1302.5" x2="1302.5" y1="342.1875" y2="677.5078"/><text fill="#000000" font-family="sans-serif" font-size="14" lengthAdjust="spacing" textLength="65" x="5" y="115.292">:Manager</text><ellipse cx="40.5" cy="50.7969" fill="#FFFFFF" rx="8" ry="8" style="stroke:#181818;stroke-width:0.5;"/><path d="M40.5,58.7969 L40.5,85.7969 M27.5,66.7969 L53.5,66.7969 M40.5,85.7969 L27.5,100.7969 M40.5,85.7969 L53.5,100.7969 " fill="none" style="stroke:#181818;stroke-width:0.5;"/><text fill="#000000" font-family="sans-serif" font-size="14" lengthAdjust="spacing" textLength="65" x="5" y="689.5029">:Manager</text><ellipse cx="40.5" cy="701.3047" fill="#FFFFFF" rx="8" ry="8" style="stroke:#181818;stroke-width:0.5;"/><path d="M40.5,709.3047 L40.5,736.3047 M27.5,717.3047 L53.5,717.3047 M40.5,736.3047 L27.5,751.3047 M40.5,736.3047 L53.5,751.3047 " fill="none" style="stroke:#181818;stroke-width:0.5;"/><rect fill="#FFFFFF" height="30.2969" rx="2.5" ry="2.5" style="stroke:#181818;stroke-width:0.5;" width="111" x="189" y="87.2969"/><text fill="#000000" font-family="sans-serif" font-size="14" lengthAdjust="spacing" textLength="97" x="196" y="107.292">:ListProjectsUI</text><rect fill="#FFFFFF" height="30.2969" rx="2.5" ry="2.5" style="stroke:#181818;stroke-width:0.5;" width="111" x="189" y="676.5078"/><text fill="#000000" font-family="sans-serif" font-size="14" lengthAdjust="spacing" textLength="97" x="196" y="696.5029">:ListProjectsUI</text><rect fill="#FFFFFF" height="46.5938" rx="2.5" ry="2.5" style="stroke:#181818;stroke-width:0.5;" width="203" x="310" y="71"/><text fill="#000000" font-family="sans-serif" font-size="14" lengthAdjust="spacing" textLength="85" x="369" y="90.9951">&#171;Controller&#187;</text><text fill="#000000" font-family="sans-serif" font-size="14" lengthAdjust="spacing" textLength="189" x="317" y="107.292">:CreateProjectListController</text><rect fill="#FFFFFF" height="46.5938" rx="2.5" ry="2.5" style="stroke:#181818;stroke-width:0.5;" width="203" x="310" y="676.5078"/><text fill="#000000" font-family="sans-serif" font-size="14" lengthAdjust="spacing" textLength="85" x="369" y="696.5029">&#171;Controller&#187;</text><text fill="#000000" font-family="sans-serif" font-size="14" lengthAdjust="spacing" textLength="189" x="317" y="712.7998">:CreateProjectListController</text><rect fill="#FFFFFF" height="46.5938" rx="2.5" ry="2.5" style="stroke:#181818;stroke-width:0.5;" width="117" x="523" y="71"/><text fill="#000000" font-family="sans-serif" font-size="14" lengthAdjust="spacing" textLength="68" x="547.5" y="90.9951">&#171;Service&#187;</text><text fill="#000000" font-family="sans-serif" font-size="14" lengthAdjust="spacing" textLength="103" x="530" y="107.292">:ProjectService</text><rect fill="#FFFFFF" height="46.5938" rx="2.5" ry="2.5" style="stroke:#181818;stroke-width:0.5;" width="117" x="523" y="676.5078"/><text fill="#000000" font-family="sans-serif" font-size="14" lengthAdjust="spacing" textLength="68" x="547.5" y="696.5029">&#171;Service&#187;</text><text fill="#000000" font-family="sans-serif" font-size="14" lengthAdjust="spacing" textLength="103" x="530" y="712.7998">:ProjectService</text><rect fill="#FFFFFF" height="46.5938" rx="2.5" ry="2.5" style="stroke:#181818;stroke-width:0.5;" width="141" x="650" y="71"/><text fill="#000000" font-family="sans-serif" font-size="14" lengthAdjust="spacing" textLength="92" x="674.5" y="90.9951">&#171;Repository&#187;</text><text fill="#000000" font-family="sans-serif" font-size="14" lengthAdjust="spacing" textLength="127" x="657" y="107.292">:ProjectRepository</text><rect fill="#FFFFFF" height="46.5938" rx="2.5" ry="2.5" style="stroke:#181818;stroke-width:0.5;" width="141" x="650" y="676.5078"/><text fill="#000000" font-family="sans-serif" font-size="14" lengthAdjust="spacing" textLength="92" x="674.5" y="696.5029">&#171;Repository&#187;</text><text fill="#000000" font-family="sans-serif" font-size="14" lengthAdjust="spacing" textLength="127" x="657" y="712.7998">:ProjectRepository</text><rect fill="#FFFFFF" height="30.2969" rx="2.5" ry="2.5" style="stroke:#181818;stroke-width:0.5;" width="209" x="801" y="87.2969"/><text fill="#000000" font-family="sans-serif" font-size="14" lengthAdjust="spacing" textLength="195" x="808" y="107.292">:CreateProjectListAssembler</text><rect fill="#FFFFFF" height="30.2969" rx="2.5" ry="2.5" style="stroke:#181818;stroke-width:0.5;" width="209" x="801" y="676.5078"/><text fill="#000000" font-family="sans-serif" font-size="14" lengthAdjust="spacing" textLength="195" x="808" y="696.5029">:CreateProjectListAssembler</text><rect fill="#FFFFFF" height="46.5938" rx="2.5" ry="2.5" style="stroke:#181818;stroke-width:0.5;" width="98" x="1122.5" y="676.5078"/><text fill="#000000" font-family="sans-serif" font-size="14" lengthAdjust="spacing" textLength="79" x="1132" y="696.5029">projectDTO</text><text fill="#000000" font-family="sans-serif" font-size="14" lengthAdjust="spacing" textLength="84" x="1129.5" y="712.7998">:ProjectDTO</text><rect fill="#FFFFFF" height="46.5938" rx="2.5" ry="2.5" style="stroke:#181818;stroke-width:0.5;" width="145" x="1230.5" y="676.5078"/><text fill="#000000" font-family="sans-serif" font-size="14" lengthAdjust="spacing" textLength="102" x="1252" y="696.5029">projectDTOList</text><text fill="#000000" font-family="sans-serif" font-size="14" lengthAdjust="spacing" textLength="131" x="1237.5" y="712.7998">:List&lt;ProjectDTO&gt;</text><rect fill="#FFFFFF" height="509.7813" style="stroke:#181818;stroke-width:1.0;" width="10" x="239.5" y="149.7266"/><rect fill="#FFFFFF" height="451.5156" style="stroke:#181818;stroke-width:1.0;" width="10" x="406.5" y="178.8594"/><rect fill="#FFFFFF" height="393.25" style="stroke:#181818;stroke-width:1.0;" width="10" x="576.5" y="207.9922"/><rect fill="#FFFFFF" height="29.1328" style="stroke:#181818;stroke-width:1.0;" width="10" x="715.5" y="237.125"/><rect fill="#FFFFFF" height="276.7188" style="stroke:#181818;stroke-width:1.0;" width="10" x="900.5" y="295.3906"/><rect fill="#FFFFFF" height="34.1328" style="stroke:#181818;stroke-width:1.0;" width="10" x="905.5" y="414.25"/><rect fill="#FFFFFF" height="30" style="stroke:#181818;stroke-width:1.0;" width="10" x="1298" y="505.9766"/><polygon fill="#181818" points="227.5,145.7266,237.5,149.7266,227.5,153.7266,231.5,149.7266" style="stroke:#181818;stroke-width:1.0;"/><line style="stroke:#181818;stroke-width:1.0;" x1="40.5" x2="233.5" y1="149.7266" y2="149.7266"/><text fill="#000000" font-family="sans-serif" font-size="13" font-weight="bold" lengthAdjust="spacing" textLength="9" x="50" y="144.6606">1</text><text fill="#000000" font-family="sans-serif" font-size="13" lengthAdjust="spacing" textLength="167" x="63" y="144.6606">requests list of all projects</text><polygon fill="#181818" points="394.5,174.8594,404.5,178.8594,394.5,182.8594,398.5,178.8594" style="stroke:#181818;stroke-width:1.0;"/><line style="stroke:#181818;stroke-width:1.0;" x1="249.5" x2="400.5" y1="178.8594" y2="178.8594"/><text fill="#000000" font-family="sans-serif" font-size="13" font-weight="bold" lengthAdjust="spacing" textLength="9" x="263" y="173.7935">2</text><text fill="#000000" font-family="sans-serif" font-size="13" lengthAdjust="spacing" textLength="117" x="276" y="173.7935">createProjectList()</text><polygon fill="#181818" points="564.5,203.9922,574.5,207.9922,564.5,211.9922,568.5,207.9922" style="stroke:#181818;stroke-width:1.0;"/><line style="stroke:#181818;stroke-width:1.0;" x1="416.5" x2="570.5" y1="207.9922" y2="207.9922"/><text fill="#000000" font-family="sans-serif" font-size="13" font-weight="bold" lengthAdjust="spacing" textLength="9" x="431.5" y="202.9263">3</text><text fill="#000000" font-family="sans-serif" font-size="13" lengthAdjust="spacing" textLength="117" x="444.5" y="202.9263">createProjectList()</text><polygon fill="#181818" points="703.5,233.125,713.5,237.125,703.5,241.125,707.5,237.125" style="stroke:#181818;stroke-width:1.0;"/><line style="stroke:#181818;stroke-width:1.0;" x1="586.5" x2="709.5" y1="237.125" y2="237.125"/><text fill="#000000" font-family="sans-serif" font-size="13" font-weight="bold" lengthAdjust="spacing" textLength="9" x="620.5" y="232.0591">4</text><text fill="#000000" font-family="sans-serif" font-size="13" lengthAdjust="spacing" textLength="48" x="633.5" y="232.0591">findAll()</text><polygon fill="#181818" points="597.5,262.2578,587.5,266.2578,597.5,270.2578,593.5,266.2578" style="stroke:#181818;stroke-width:1.0;"/><line style="stroke:#181818;stroke-width:1.0;stroke-dasharray:2.0,2.0;" x1="591.5" x2="719.5" y1="266.2578" y2="266.2578"/><text fill="#000000" font-family="sans-serif" font-size="13" font-weight="bold" lengthAdjust="spacing" textLength="9" x="614" y="261.1919">5</text><text fill="#000000" font-family="sans-serif" font-size="13" lengthAdjust="spacing" textLength="66" x="627" y="261.1919">projectList</text><polygon fill="#181818" points="888.5,291.3906,898.5,295.3906,888.5,299.3906,892.5,295.3906" style="stroke:#181818;stroke-width:1.0;"/><line style="stroke:#181818;stroke-width:1.0;" x1="586.5" x2="894.5" y1="295.3906" y2="295.3906"/><text fill="#000000" font-family="sans-serif" font-size="13" font-weight="bold" lengthAdjust="spacing" textLength="9" x="645.5" y="290.3247">6</text><text fill="#000000" font-family="sans-serif" font-size="13" lengthAdjust="spacing" textLength="183" x="658.5" y="290.3247">createProjectList(projectList)</text><polygon fill="#181818" points="1218.5,320.5234,1228.5,324.5234,1218.5,328.5234,1222.5,324.5234" style="stroke:#181818;stroke-width:1.0;"/><line style="stroke:#181818;stroke-width:1.0;" x1="910.5" x2="1224.5" y1="324.5234" y2="324.5234"/><text fill="#000000" font-family="sans-serif" font-size="13" font-weight="bold" lengthAdjust="spacing" textLength="9" x="1038.5" y="319.4575">7</text><text fill="#000000" font-family="sans-serif" font-size="13" lengthAdjust="spacing" textLength="51" x="1051.5" y="319.4575">create()</text><rect fill="#FFFFFF" height="46.5938" rx="2.5" ry="2.5" style="stroke:#181818;stroke-width:0.5;" width="145" x="1230.5" y="303.3906"/><text fill="#000000" font-family="sans-serif" font-size="14" lengthAdjust="spacing" textLength="102" x="1252" y="323.3857">projectDTOList</text><text fill="#000000" font-family="sans-serif" font-size="14" lengthAdjust="spacing" textLength="131" x="1237.5" y="339.6826">:List&lt;ProjectDTO&gt;</text><path d="M791,367.9844 L868,367.9844 L868,375.1172 L858,385.1172 L791,385.1172 L791,367.9844 " fill="#FFFFFF" style="stroke:#000000;stroke-width:1.5;"/><rect fill="none" height="175.9922" style="stroke:#000000;stroke-width:1.5;" width="594.5" x="791" y="367.9844"/><text fill="#000000" font-family="sans-serif" font-size="13" font-weight="bold" lengthAdjust="spacing" textLength="32" x="806" y="381.0513">loop</text><text fill="#000000" font-family="sans-serif" font-size="11" font-weight="bold" lengthAdjust="spacing" textLength="200" x="883" y="380.1948">[for each project in projectList]</text><line style="stroke:#181818;stroke-width:1.0;" x1="910.5" x2="957.5" y1="401.25" y2="401.25"/><line style="stroke:#181818;stroke-width:1.0;" x1="957.5" x2="957.5" y1="401.25" y2="414.25"/><line style="stroke:#181818;stroke-width:1.0;" x1="916.5" x2="957.5" y1="414.25" y2="414.25"/><polygon fill="#181818" points="926.5,410.25,916.5,414.25,926.5,418.25,922.5,414.25" style="stroke:#181818;stroke-width:1.0;"/><text fill="#000000" font-family="sans-serif" font-size="13" font-weight="bold" lengthAdjust="spacing" textLength="9" x="922.5" y="396.1841">8</text><text fill="#000000" font-family="sans-serif" font-size="13" lengthAdjust="spacing" textLength="229" x="935.5" y="396.1841">projectDTO = generateDTO(project)</text><polygon fill="#181818" points="1110.5,444.3828,1120.5,448.3828,1110.5,452.3828,1114.5,448.3828" style="stroke:#181818;stroke-width:1.0;"/><line style="stroke:#181818;stroke-width:1.0;stroke-dasharray:2.0,2.0;" x1="910.5" x2="1116.5" y1="448.3828" y2="448.3828"/><text fill="#000000" font-family="sans-serif" font-size="13" font-weight="bold" lengthAdjust="spacing" textLength="9" x="984.5" y="443.3169">9</text><text fill="#000000" font-family="sans-serif" font-size="13" lengthAdjust="spacing" textLength="51" x="997.5" y="443.3169">create()</text><rect fill="#FFFFFF" height="46.5938" rx="2.5" ry="2.5" style="stroke:#181818;stroke-width:0.5;" width="98" x="1122.5" y="427.25"/><text fill="#000000" font-family="sans-serif" font-size="14" lengthAdjust="spacing" textLength="79" x="1132" y="447.2451">projectDTO</text><text fill="#000000" font-family="sans-serif" font-size="14" lengthAdjust="spacing" textLength="84" x="1129.5" y="463.542">:ProjectDTO</text><polygon fill="#181818" points="1286,501.9766,1296,505.9766,1286,509.9766,1290,505.9766" style="stroke:#181818;stroke-width:1.0;"/><line style="stroke:#181818;stroke-width:1.0;" x1="910.5" x2="1292" y1="505.9766" y2="505.9766"/><text fill="#000000" font-family="sans-serif" font-size="13" font-weight="bold" lengthAdjust="spacing" textLength="18" x="1040.75" y="500.9106">10</text><text fill="#000000" font-family="sans-serif" font-size="13" lengthAdjust="spacing" textLength="105" x="1062.75" y="500.9106">add(projectDTO)</text><polygon fill="#181818" points="597.5,568.1094,587.5,572.1094,597.5,576.1094,593.5,572.1094" style="stroke:#181818;stroke-width:1.0;"/><line style="stroke:#181818;stroke-width:1.0;stroke-dasharray:2.0,2.0;" x1="591.5" x2="904.5" y1="572.1094" y2="572.1094"/><text fill="#000000" font-family="sans-serif" font-size="13" font-weight="bold" lengthAdjust="spacing" textLength="18" x="688.5" y="567.0435">11</text><text fill="#000000" font-family="sans-serif" font-size="13" lengthAdjust="spacing" textLength="93" x="710.5" y="567.0435">projectDTOList</text><polygon fill="#181818" points="427.5,597.2422,417.5,601.2422,427.5,605.2422,423.5,601.2422" style="stroke:#181818;stroke-width:1.0;"/><line style="stroke:#181818;stroke-width:1.0;stroke-dasharray:2.0,2.0;" x1="421.5" x2="580.5" y1="601.2422" y2="601.2422"/><text fill="#000000" font-family="sans-serif" font-size="13" font-weight="bold" lengthAdjust="spacing" textLength="18" x="441.5" y="596.1763">12</text><text fill="#000000" font-family="sans-serif" font-size="13" lengthAdjust="spacing" textLength="93" x="463.5" y="596.1763">projectDTOList</text><polygon fill="#181818" points="260.5,626.375,250.5,630.375,260.5,634.375,256.5,630.375" style="stroke:#181818;stroke-width:1.0;"/><line style="stroke:#181818;stroke-width:1.0;stroke-dasharray:2.0,2.0;" x1="254.5" x2="410.5" y1="630.375" y2="630.375"/><text fill="#000000" font-family="sans-serif" font-size="13" font-weight="bold" lengthAdjust="spacing" textLength="18" x="273" y="625.3091">13</text><text fill="#000000" font-family="sans-serif" font-size="13" lengthAdjust="spacing" textLength="93" x="295" y="625.3091">projectDTOList</text><polygon fill="#181818" points="51.5,655.5078,41.5,659.5078,51.5,663.5078,47.5,659.5078" style="stroke:#181818;stroke-width:1.0;"/><line style="stroke:#181818;stroke-width:1.0;stroke-dasharray:2.0,2.0;" x1="45.5" x2="243.5" y1="659.5078" y2="659.5078"/><text fill="#000000" font-family="sans-serif" font-size="13" font-weight="bold" lengthAdjust="spacing" textLength="18" x="62" y="654.4419">14</text><text fill="#000000" font-family="sans-serif" font-size="13" lengthAdjust="spacing" textLength="139" x="84" y="654.4419">returns list of projects</text><!--SRC=[fLDDRzim3BthLn0zTSWAT8TTZ2n0bW9RW1KBukMsYoepgLP5yYYvnVxzA7_9zXnqmtA8JV6znqUAza_QbfBa6Jp-hD0gl4VlvGdNHfyiABG1IVWU9LLmz56gfnEvoXORPnp1owCEE03nVz1AbzA6rw1TrJqUaUBBFnC-eooG_fRsYJ7bF5Z8AZXRdH-uOH5qC0Y7_FRTUxY1jGS9zzBoNEWjRE65EuFWu8I14qRx0Eu8qXWeoVr05JohnKd1LTRIha3wJaA8mOGOyeK5TYtniAsHX-qOirnkd0taZ45QhRxRR4Ce0xQiA93ojK0Afq8vqhDMMAkq_FQe9kxoAM6FfVEQk_arvAJJXhQVDFM7mRNtU7xe_Cak6jFQ-Trz-vegSL1JKkuI9vPXNdmi4tarOSUq4AAz3BXPyRGNYmmexeWF_iA50lyEsmXFirqi80CrxVJwJGrEi4ZQvR769Umkhp7xY3bgMwoDQJE4eIBR-MYy9qO_nddn0QjHQo3JOSHChnHbn_bEcHtLKEDS2KVURfJgiSE2dZ4v4ks3RA0F7_WhiaWipr5dk37Bdv1-ZdRJiipsC2qrQc1WFi8Ad55zVG2oAAxJsSJUp3G7PMQoQ0inSxb3o7zacaTQutw5VmC0]--></g></svg>