<?xml version="1.0" encoding="us-ascii" standalone="no"?><svg xmlns="http://www.w3.org/2000/svg" xmlns:xlink="http://www.w3.org/1999/xlink" contentStyleType="text/css" height="787px" preserveAspectRatio="none" style="width:780px;height:787px;background:#FFFFFF;" version="1.1" viewBox="0 0 780 787" width="780px" zoomAndPan="magnify"><defs/><g><text fill="#000000" font-family="sans-serif" font-size="14" font-weight="bold" lengthAdjust="spacing" textLength="752" x="10" y="22.9951">US026 - As a PO/SM/Team Member, I want to consult the current Product Backlog in the web UI</text><!--cluster src--><g id="cluster_src"><path d="M253,43.2969 L279,43.2969 A3.75,3.75 0 0 1 281.5,45.7969 L288.5,65.5938 L532,65.5938 A2.5,2.5 0 0 1 534.5,68.0938 L534.5,777.7969 A2.5,2.5 0 0 1 532,780.2969 L253,780.2969 A2.5,2.5 0 0 1 250.5,777.7969 L250.5,45.7969 A2.5,2.5 0 0 1 253,43.2969 " fill="none" style="stroke:#000000;stroke-width:1.5;"/><line style="stroke:#000000;stroke-width:1.5;" x1="250.5" x2="288.5" y1="65.5938" y2="65.5938"/><text fill="#000000" font-family="sans-serif" font-size="14" font-weight="bold" lengthAdjust="spacing" textLength="25" x="254.5" y="58.292">src</text></g><!--cluster components--><g id="cluster_components"><path d="M319,268.2969 L418,268.2969 A3.75,3.75 0 0 1 420.5,270.7969 L427.5,290.5938 L500,290.5938 A2.5,2.5 0 0 1 502.5,293.0938 L502.5,611.7969 A2.5,2.5 0 0 1 500,614.2969 L319,614.2969 A2.5,2.5 0 0 1 316.5,611.7969 L316.5,270.7969 A2.5,2.5 0 0 1 319,268.2969 " fill="none" style="stroke:#000000;stroke-width:1.5;"/><line style="stroke:#000000;stroke-width:1.5;" x1="316.5" x2="427.5" y1="290.5938" y2="290.5938"/><text fill="#000000" font-family="sans-serif" font-size="14" font-weight="bold" lengthAdjust="spacing" textLength="98" x="320.5" y="283.292">components</text></g><path d="M414.5,78.2969 L460.5,78.2969 A3.75,3.75 0 0 1 463,80.7969 L470,100.5938 L474.5,100.5938 A2.5,2.5 0 0 1 477,103.0938 L477,128.3906 A2.5,2.5 0 0 1 474.5,130.8906 L414.5,130.8906 A2.5,2.5 0 0 1 412,128.3906 L412,80.7969 A2.5,2.5 0 0 1 414.5,78.2969 " fill="#F1F1F1" style="stroke:#181818;stroke-width:0.5;"/><line style="stroke:#181818;stroke-width:0.5;" x1="412" x2="470" y1="100.5938" y2="100.5938"/><text fill="#000000" font-family="sans-serif" font-size="14" lengthAdjust="spacing" textLength="45" x="416" y="93.292">routes</text><path d="M381.5,191.2969 L425.5,191.2969 A3.75,3.75 0 0 1 428,193.7969 L435,213.5938 L439.5,213.5938 A2.5,2.5 0 0 1 442,216.0938 L442,241.3906 A2.5,2.5 0 0 1 439.5,243.8906 L381.5,243.8906 A2.5,2.5 0 0 1 379,241.3906 L379,193.7969 A2.5,2.5 0 0 1 381.5,191.2969 " fill="#F1F1F1" style="stroke:#181818;stroke-width:0.5;"/><line style="stroke:#181818;stroke-width:0.5;" x1="379" x2="435" y1="213.5938" y2="213.5938"/><text fill="#000000" font-family="sans-serif" font-size="14" lengthAdjust="spacing" textLength="43" x="383" y="206.292">pages</text><path d="M358.5,311.2969 L438.5,311.2969 A3.75,3.75 0 0 1 441,313.7969 L448,333.5938 L452.5,333.5938 A2.5,2.5 0 0 1 455,336.0938 L455,361.3906 A2.5,2.5 0 0 1 452.5,363.8906 L358.5,363.8906 A2.5,2.5 0 0 1 356,361.3906 L356,313.7969 A2.5,2.5 0 0 1 358.5,311.2969 " fill="#F1F1F1" style="stroke:#181818;stroke-width:0.5;"/><line style="stroke:#181818;stroke-width:0.5;" x1="356" x2="448" y1="333.5938" y2="333.5938"/><text fill="#000000" font-family="sans-serif" font-size="14" lengthAdjust="spacing" textLength="79" x="360" y="326.292">projectsList</text><path d="M343.5,424.2969 L453.5,424.2969 A3.75,3.75 0 0 1 456,426.7969 L463,446.5938 L467.5,446.5938 A2.5,2.5 0 0 1 470,449.0938 L470,474.3906 A2.5,2.5 0 0 1 467.5,476.8906 L343.5,476.8906 A2.5,2.5 0 0 1 341,474.3906 L341,426.7969 A2.5,2.5 0 0 1 343.5,424.2969 " fill="#F1F1F1" style="stroke:#181818;stroke-width:0.5;"/><line style="stroke:#181818;stroke-width:0.5;" x1="341" x2="463" y1="446.5938" y2="446.5938"/><text fill="#000000" font-family="sans-serif" font-size="14" lengthAdjust="spacing" textLength="109" x="345" y="439.292">productBacklog</text><path d="M343,537.2969 L410,537.2969 A3.75,3.75 0 0 1 412.5,539.7969 L419.5,559.5938 L424,559.5938 A2.5,2.5 0 0 1 426.5,562.0938 L426.5,587.3906 A2.5,2.5 0 0 1 424,589.8906 L343,589.8906 A2.5,2.5 0 0 1 340.5,587.3906 L340.5,539.7969 A2.5,2.5 0 0 1 343,537.2969 " fill="#F1F1F1" style="stroke:#181818;stroke-width:0.5;"/><line style="stroke:#181818;stroke-width:0.5;" x1="340.5" x2="419.5" y1="559.5938" y2="559.5938"/><text fill="#000000" font-family="sans-serif" font-size="14" lengthAdjust="spacing" textLength="66" x="344.5" y="552.292">userStory</text><path d="M300,711.2969 L353,711.2969 A3.75,3.75 0 0 1 355.5,713.7969 L362.5,733.5938 L367,733.5938 A2.5,2.5 0 0 1 369.5,736.0938 L369.5,761.3906 A2.5,2.5 0 0 1 367,763.8906 L300,763.8906 A2.5,2.5 0 0 1 297.5,761.3906 L297.5,713.7969 A2.5,2.5 0 0 1 300,711.2969 " fill="#F1F1F1" style="stroke:#181818;stroke-width:0.5;"/><line style="stroke:#181818;stroke-width:0.5;" x1="297.5" x2="362.5" y1="733.5938" y2="733.5938"/><text fill="#000000" font-family="sans-serif" font-size="14" lengthAdjust="spacing" textLength="52" x="301.5" y="726.292">context</text><!--link routes to pages--><g id="link_routes_pages"><path codeLine="23" d="M436.61,131.5369 C431.64,147.7969 425.18,168.8769 419.93,186.0069 " fill="none" id="routes-to-pages" style="stroke:#181818;stroke-width:1.0;stroke-dasharray:7.0,7.0;"/><polygon fill="#181818" points="418.34,191.1869,424.8083,183.7599,419.8094,186.4077,417.1616,181.4088,418.34,191.1869" style="stroke:#181818;stroke-width:1.0;"/></g><!--link routes to components--><g id="link_routes_components"><path codeLine="24" d="M453.4,131.3869 C463.11,160.3569 478.34,209.1369 486.5,252.2969 C487.3488,256.7856 488.1092,261.4264 488.7904,266.1166 C488.8755,266.7028 488.9594,267.2899 489.0421,267.8775 " fill="none" id="routes-to-components" style="stroke:#181818;stroke-width:1.0;stroke-dasharray:7.0,7.0;"/><polygon fill="#181818" points="489.0421,267.8775,491.7491,258.4079,488.3454,262.9263,483.8271,259.5226,489.0421,267.8775" style="stroke:#181818;stroke-width:1.0;"/></g><!--link pages to projectsList--><g id="link_pages_projectsList"><path codeLine="25" d="M409.42,244.3969 C408.65,262.4969 407.62,286.8269 406.81,305.9869 " fill="none" id="pages-to-projectsList" style="stroke:#181818;stroke-width:1.0;stroke-dasharray:7.0,7.0;"/><polygon fill="#181818" points="406.58,311.2469,410.9375,302.4144,406.7804,306.2509,402.944,302.0938,406.58,311.2469" style="stroke:#181818;stroke-width:1.0;"/></g><!--link pages to components--><g id="link_pages_components"><path codeLine="26" d="M442.32,224.8769 C458.17,229.6169 476.12,237.9169 486.5,252.2969 C489.1725,256.0019 491.315,260.0486 493.0167,264.2999 C493.4421,265.3628 493.84,266.4384 494.2117,267.5247 C494.2581,267.6605 494.3042,267.7964 494.3498,267.9325 " fill="none" id="pages-to-components" style="stroke:#181818;stroke-width:1.0;stroke-dasharray:7.0,7.0;"/><polygon fill="#181818" points="494.3498,267.9325,495.2805,258.1277,492.76,263.192,487.6957,260.6715,494.3498,267.9325" style="stroke:#181818;stroke-width:1.0;"/></g><!--link projectsList to productBacklog--><g id="link_projectsList_productBacklog"><path codeLine="27" d="M405.5,364.5369 C405.5,380.7969 405.5,401.8769 405.5,419.0069 " fill="none" id="projectsList-to-productBacklog" style="stroke:#181818;stroke-width:1.0;stroke-dasharray:7.0,7.0;"/><polygon fill="#181818" points="405.5,424.1869,409.5257,415.1983,405.5143,419.1869,401.5257,415.1755,405.5,424.1869" style="stroke:#181818;stroke-width:1.0;"/></g><!--link projectsList to context--><g id="link_projectsList_context"><path codeLine="28" d="M370.59,364.3069 C352.86,379.4969 333.09,400.4469 323.5,424.2969 C284.68,520.8469 309.61,648.0469 324.58,705.8369 " fill="none" id="projectsList-to-context" style="stroke:#181818;stroke-width:1.0;stroke-dasharray:7.0,7.0;"/><polygon fill="#181818" points="325.91,710.8769,327.4935,701.1561,324.6403,706.0408,319.7557,703.1876,325.91,710.8769" style="stroke:#181818;stroke-width:1.0;"/></g><!--link productBacklog to context--><g id="link_productBacklog_context"><path codeLine="29" d="M420.64,477.5469 C439.45,513.0869 466.52,578.6469 444.5,630.2969 C430.13,663.9969 399.3,692.1569 373.76,711.0369 " fill="none" id="productBacklog-to-context" style="stroke:#181818;stroke-width:1.0;stroke-dasharray:7.0,7.0;"/><polygon fill="#181818" points="369.71,713.9869,379.3357,711.902,373.7456,711.035,374.6127,705.445,369.71,713.9869" style="stroke:#181818;stroke-width:1.0;"/></g><!--link pages to context--><g id="link_pages_context"><path codeLine="30" d="M378.72,223.9769 C360.51,228.5169 338.55,236.9169 324.5,252.2969 C262.89,319.7569 267.5,358.4369 267.5,449.7969 C267.5,449.7969 267.5,449.7969 267.5,564.7969 C267.5,617.4469 294.79,673.5069 314.27,706.8169 " fill="none" id="pages-to-context" style="stroke:#181818;stroke-width:1.0;stroke-dasharray:7.0,7.0;"/><polygon fill="#181818" points="316.85,711.1669,315.6878,701.3868,314.2943,706.8694,308.8118,705.4759,316.85,711.1669" style="stroke:#181818;stroke-width:1.0;"/></g><!--link productBacklog to userStory--><g id="link_productBacklog_userStory"><path codeLine="31" d="M400.4,477.5369 C397.18,493.7969 393,514.8769 389.6,532.0069 " fill="none" id="productBacklog-to-userStory" style="stroke:#181818;stroke-width:1.0;stroke-dasharray:7.0,7.0;"/><polygon fill="#181818" points="388.57,537.1869,394.2438,529.1366,389.5423,532.2823,386.3966,527.5808,388.57,537.1869" style="stroke:#181818;stroke-width:1.0;"/></g><!--link userStory to context--><g id="link_userStory_context"><path codeLine="32" d="M376.01,590.5469 C367.04,621.4169 352.02,673.0969 342.44,706.0369 " fill="none" id="userStory-to-context" style="stroke:#181818;stroke-width:1.0;stroke-dasharray:7.0,7.0;"/><polygon fill="#181818" points="340.95,711.1569,347.2893,703.6194,342.3368,706.3531,339.6032,701.4005,340.95,711.1569" style="stroke:#181818;stroke-width:1.0;"/></g><!--SRC=[XP11JiCm44NtFiMe6pQqGInOi422NIKgAeKUm756gI7sMFPO1Q7S7GT86ZT5jMJBcl-_FM-kzimkt1U5QwNbQDgL8bEaxSYYvMMjPUEb4QovHTYLDxTti8J701AsBqMvALvH6jYWgT1VmneEwHLW0aKsn3PTzmWgUf_UWgsdEYg69wdUMsf0sn_vW1Nira8mkJvP4JCPgBL7nPgi42xvPOEm25uju4j0McFDKsGCGxdBHPVE_xIHSJJaKKzlgO7mh0DF3TrPQy_rXtN170Fwaib_pdsp1YtZ1n_RxuGOSLUhXm7lf3ZX4iC0VjrJebpACndv49qIdlKCxOhPF4xbuUD-NGuU1oQcmykZtm00]--></g></svg>