<?xml version="1.0" encoding="us-ascii" standalone="no"?><svg xmlns="http://www.w3.org/2000/svg" xmlns:xlink="http://www.w3.org/1999/xlink" contentStyleType="text/css" height="417px" preserveAspectRatio="none" style="width:929px;height:417px;background:#FFFFFF;" version="1.1" viewBox="0 0 929 417" width="929px" zoomAndPan="magnify"><defs/><g><rect fill="#FFFFFF" height="396.0391" style="stroke:#181818;stroke-width:1.5;" width="918" x="5" y="15"/><path d="M208,15 L208,24.2969 L198,34.2969 L5,34.2969 " fill="none" style="stroke:#181818;stroke-width:1.5;"/><text fill="#000000" font-family="sans-serif" font-size="14" font-weight="bold" lengthAdjust="spacing" textLength="193" x="8" y="28.9951">sd Add User Story Event</text><rect fill="#FFFFFF" height="176.5313" style="stroke:#181818;stroke-width:1.0;" width="10" x="353" y="138.3203"/><rect fill="#FFFFFF" height="29.1328" style="stroke:#181818;stroke-width:1.0;" width="10" x="640" y="167.4531"/><rect fill="#FFFFFF" height="30" style="stroke:#181818;stroke-width:1.0;" width="10" x="640" y="284.8516"/><rect fill="#FFFFFF" height="30" style="stroke:#181818;stroke-width:1.0;" width="10" x="840.5" y="225.7188"/><line style="stroke:#181818;stroke-width:0.5;stroke-dasharray:5.0,5.0;" x1="357.5" x2="357.5" y1="107.1875" y2="332.8516"/><line style="stroke:#181818;stroke-width:0.5;stroke-dasharray:5.0,5.0;" x1="645" x2="645" y1="107.1875" y2="332.8516"/><line style="stroke:#181818;stroke-width:0.5;stroke-dasharray:5.0,5.0;" x1="845" x2="845" y1="107.1875" y2="332.8516"/><rect fill="#FFFFFF" height="46.5938" rx="2.5" ry="2.5" style="stroke:#181818;stroke-width:0.5;" width="117" x="299.5" y="59.5938"/><text fill="#000000" font-family="sans-serif" font-size="14" lengthAdjust="spacing" textLength="68" x="324" y="79.5889">&#171;Service&#187;</text><text fill="#000000" font-family="sans-serif" font-size="14" lengthAdjust="spacing" textLength="103" x="306.5" y="95.8857">:ProjectService</text><rect fill="#FFFFFF" height="46.5938" rx="2.5" ry="2.5" style="stroke:#181818;stroke-width:0.5;" width="117" x="299.5" y="331.8516"/><text fill="#000000" font-family="sans-serif" font-size="14" lengthAdjust="spacing" textLength="68" x="324" y="351.8467">&#171;Service&#187;</text><text fill="#000000" font-family="sans-serif" font-size="14" lengthAdjust="spacing" textLength="103" x="306.5" y="368.1436">:ProjectService</text><rect fill="#FFFFFF" height="62.8906" rx="2.5" ry="2.5" style="stroke:#181818;stroke-width:0.5;" width="258" x="516" y="43.2969"/><text fill="#000000" font-family="sans-serif" font-size="14" lengthAdjust="spacing" textLength="78" x="606" y="63.292">&#171;Interface&#187;</text><text fill="#000000" font-family="sans-serif" font-size="14" lengthAdjust="spacing" textLength="92" x="599" y="79.5889">&#171;Repository&#187;</text><text fill="#000000" font-family="sans-serif" font-size="14" lengthAdjust="spacing" textLength="244" x="523" y="95.8857">:Repository&lt;Project, ProjectCode&gt;</text><rect fill="#FFFFFF" height="62.8906" rx="2.5" ry="2.5" style="stroke:#181818;stroke-width:0.5;" width="258" x="516" y="331.8516"/><text fill="#000000" font-family="sans-serif" font-size="14" lengthAdjust="spacing" textLength="78" x="606" y="351.8467">&#171;Interface&#187;</text><text fill="#000000" font-family="sans-serif" font-size="14" lengthAdjust="spacing" textLength="92" x="599" y="368.1436">&#171;Repository&#187;</text><text fill="#000000" font-family="sans-serif" font-size="14" lengthAdjust="spacing" textLength="244" x="523" y="384.4404">:Repository&lt;Project, ProjectCode&gt;</text><rect fill="#FFFFFF" height="46.5938" rx="2.5" ry="2.5" style="stroke:#181818;stroke-width:0.5;" width="123" x="784" y="59.5938"/><text fill="#000000" font-family="sans-serif" font-size="14" lengthAdjust="spacing" textLength="56" x="817.5" y="79.5889">&#171;Entity&#187;</text><text fill="#000000" font-family="sans-serif" font-size="14" lengthAdjust="spacing" textLength="109" x="791" y="95.8857">project : Project</text><rect fill="#FFFFFF" height="46.5938" rx="2.5" ry="2.5" style="stroke:#181818;stroke-width:0.5;" width="123" x="784" y="331.8516"/><text fill="#000000" font-family="sans-serif" font-size="14" lengthAdjust="spacing" textLength="56" x="817.5" y="351.8467">&#171;Entity&#187;</text><text fill="#000000" font-family="sans-serif" font-size="14" lengthAdjust="spacing" textLength="109" x="791" y="368.1436">project : Project</text><rect fill="#FFFFFF" height="176.5313" style="stroke:#181818;stroke-width:1.0;" width="10" x="353" y="138.3203"/><rect fill="#FFFFFF" height="29.1328" style="stroke:#181818;stroke-width:1.0;" width="10" x="640" y="167.4531"/><rect fill="#FFFFFF" height="30" style="stroke:#181818;stroke-width:1.0;" width="10" x="640" y="284.8516"/><rect fill="#FFFFFF" height="30" style="stroke:#181818;stroke-width:1.0;" width="10" x="840.5" y="225.7188"/><ellipse cx="17.5" cy="137.5703" fill="none" rx="4" ry="4" style="stroke:#181818;stroke-width:1.5;"/><polygon fill="#181818" points="341,134.3203,351,138.3203,341,142.3203,345,138.3203" style="stroke:#181818;stroke-width:1.0;"/><line style="stroke:#181818;stroke-width:1.0;" x1="22" x2="347" y1="138.3203" y2="138.3203"/><text fill="#000000" font-family="sans-serif" font-size="13" font-weight="bold" lengthAdjust="spacing" textLength="9" x="27.5" y="133.2544">1</text><text fill="#000000" font-family="sans-serif" font-size="13" lengthAdjust="spacing" textLength="303" x="40.5" y="133.2544">addUserStoryFromProductBacklog(userStoryId)</text><polygon fill="#181818" points="628,163.4531,638,167.4531,628,171.4531,632,167.4531" style="stroke:#181818;stroke-width:1.0;"/><line style="stroke:#181818;stroke-width:1.0;" x1="363" x2="634" y1="167.4531" y2="167.4531"/><text fill="#000000" font-family="sans-serif" font-size="13" font-weight="bold" lengthAdjust="spacing" textLength="9" x="372.5" y="162.3872">2</text><text fill="#000000" font-family="sans-serif" font-size="13" lengthAdjust="spacing" textLength="245" x="385.5" y="162.3872">findById(userStoryId.getProjectCode())</text><polygon fill="#181818" points="374,192.5859,364,196.5859,374,200.5859,370,196.5859" style="stroke:#181818;stroke-width:1.0;"/><line style="stroke:#181818;stroke-width:1.0;stroke-dasharray:2.0,2.0;" x1="368" x2="644" y1="196.5859" y2="196.5859"/><text fill="#000000" font-family="sans-serif" font-size="13" font-weight="bold" lengthAdjust="spacing" textLength="9" x="475.5" y="191.52">3</text><text fill="#000000" font-family="sans-serif" font-size="13" lengthAdjust="spacing" textLength="44" x="488.5" y="191.52">project</text><polygon fill="#181818" points="828.5,221.7188,838.5,225.7188,828.5,229.7188,832.5,225.7188" style="stroke:#181818;stroke-width:1.0;"/><line style="stroke:#181818;stroke-width:1.0;" x1="363" x2="834.5" y1="225.7188" y2="225.7188"/><text fill="#000000" font-family="sans-serif" font-size="13" font-weight="bold" lengthAdjust="spacing" textLength="9" x="443.75" y="220.6528">4</text><text fill="#000000" font-family="sans-serif" font-size="13" lengthAdjust="spacing" textLength="303" x="456.75" y="220.6528">addUserStoryFromProductBacklog(userStoryId)</text><polygon fill="#181818" points="628,280.8516,638,284.8516,628,288.8516,632,284.8516" style="stroke:#181818;stroke-width:1.0;"/><line style="stroke:#181818;stroke-width:1.0;" x1="363" x2="634" y1="284.8516" y2="284.8516"/><text fill="#000000" font-family="sans-serif" font-size="13" font-weight="bold" lengthAdjust="spacing" textLength="9" x="453" y="279.7856">5</text><text fill="#000000" font-family="sans-serif" font-size="13" lengthAdjust="spacing" textLength="84" x="466" y="279.7856">save(project)</text><!--SRC=[bP9TJy8m58Rl-ojEk1f3_G5aMG84bGiJ0_5ARuxjsQomTlPZndzlEpPPW4JOHNFQlk_Jyp6xbQf6WnLO-lAaE3sHjLZIR2TB1PoK8yFidmgvqsQEV5iQxPLOw9qsyFqX7Gr4ONMIongL-q_QlxgcWamChZOy4WeobzeUWgO-BsRedLQ-UWy5iq49CCgo3Pb6SihpDpLzDlgJkEkEHe0MklZOjOhDAt3lox8rrThAqB-VbdFOPXto1hfWeGNbBRaxE6YFtrWg9rqBhFTIcFQc8O2n2gKgGYi8qjGAc0a1BvOCR28LbasOT9eozgflyxwUoMGAA4IKjQfxewl04vwtSztfCl7ztKgC6OFmTLu8c9Fa8x2GIio3V6YzAyaDIa_6unPbo7cZeEvBE8-_Dij84HH-PDbW7FibILjiAEdoE2KCuby0]--></g></svg>