<?xml version="1.0" encoding="us-ascii" standalone="no"?><svg xmlns="http://www.w3.org/2000/svg" xmlns:xlink="http://www.w3.org/1999/xlink" contentStyleType="text/css" height="735px" preserveAspectRatio="none" style="width:1733px;height:735px;background:#FFFFFF;" version="1.1" viewBox="0 0 1733 735" width="1733px" zoomAndPan="magnify"><defs/><g><text fill="#000000" font-family="sans-serif" font-size="14" font-weight="bold" lengthAdjust="spacing" textLength="716" x="507.25" y="27.9951">US017 - As Product Owner, I want to create a user story and add it to the Product Backlog</text><rect fill="#FFFFFF" height="471.4531" style="stroke:#181818;stroke-width:1.0;" width="10" x="290.5" y="164.8594"/><rect fill="#FFFFFF" height="413.1875" style="stroke:#181818;stroke-width:1.0;" width="10" x="563.5" y="193.9922"/><rect fill="#FFFFFF" height="354.9219" style="stroke:#181818;stroke-width:1.0;" width="10" x="836.5" y="223.125"/><rect fill="#FFFFFF" height="86.7266" style="stroke:#181818;stroke-width:1.0;" width="10" x="1146.5" y="310.5234"/><rect fill="#FFFFFF" height="29.1328" style="stroke:#181818;stroke-width:1.0;" width="10" x="1304.5" y="252.2578"/><rect fill="#FFFFFF" height="29.1328" style="stroke:#181818;stroke-width:1.0;" width="10" x="1304.5" y="426.3828"/><rect fill="#FFFFFF" height="29.1328" style="stroke:#181818;stroke-width:1.0;" width="10" x="1498" y="484.6484"/><line style="stroke:#181818;stroke-width:0.5;stroke-dasharray:5.0,5.0;" x1="59" x2="59" y1="118.5938" y2="654.3125"/><line style="stroke:#181818;stroke-width:0.5;stroke-dasharray:5.0,5.0;" x1="295.5" x2="295.5" y1="118.5938" y2="654.3125"/><line style="stroke:#181818;stroke-width:0.5;stroke-dasharray:5.0,5.0;" x1="568" x2="568" y1="118.5938" y2="654.3125"/><line style="stroke:#181818;stroke-width:0.5;stroke-dasharray:5.0,5.0;" x1="841.5" x2="841.5" y1="118.5938" y2="654.3125"/><line style="stroke:#181818;stroke-width:0.5;stroke-dasharray:5.0,5.0;" x1="1151.5" x2="1151.5" y1="118.5938" y2="654.3125"/><line style="stroke:#181818;stroke-width:0.5;stroke-dasharray:5.0,5.0;" x1="1309.5" x2="1309.5" y1="118.5938" y2="654.3125"/><line style="stroke:#181818;stroke-width:0.5;stroke-dasharray:5.0,5.0;" x1="1502.5" x2="1502.5" y1="118.5938" y2="654.3125"/><line style="stroke:#181818;stroke-width:0.5;stroke-dasharray:5.0,5.0;" x1="1671.5" x2="1671.5" y1="357.3203" y2="654.3125"/><text fill="#000000" font-family="sans-serif" font-size="14" lengthAdjust="spacing" textLength="103" x="5" y="115.292">Product Owner</text><ellipse cx="59.5" cy="50.7969" fill="#FFFFFF" rx="8" ry="8" style="stroke:#181818;stroke-width:0.5;"/><path d="M59.5,58.7969 L59.5,85.7969 M46.5,66.7969 L72.5,66.7969 M59.5,85.7969 L46.5,100.7969 M59.5,85.7969 L72.5,100.7969 " fill="none" style="stroke:#181818;stroke-width:0.5;"/><text fill="#000000" font-family="sans-serif" font-size="14" lengthAdjust="spacing" textLength="103" x="5" y="666.3076">Product Owner</text><ellipse cx="59.5" cy="678.1094" fill="#FFFFFF" rx="8" ry="8" style="stroke:#181818;stroke-width:0.5;"/><path d="M59.5,686.1094 L59.5,713.1094 M46.5,694.1094 L72.5,694.1094 M59.5,713.1094 L46.5,728.1094 M59.5,713.1094 L72.5,728.1094 " fill="none" style="stroke:#181818;stroke-width:0.5;"/><rect fill="#FFFFFF" height="46.5938" rx="2.5" ry="2.5" style="stroke:#181818;stroke-width:0.5;" width="132" x="229.5" y="71"/><text fill="#000000" font-family="sans-serif" font-size="14" lengthAdjust="spacing" textLength="118" x="236.5" y="90.9951">:CreateUserStory</text><text fill="#000000" font-family="sans-serif" font-size="14" lengthAdjust="spacing" textLength="13" x="289" y="107.292">UI</text><rect fill="#FFFFFF" height="46.5938" rx="2.5" ry="2.5" style="stroke:#181818;stroke-width:0.5;" width="132" x="229.5" y="653.3125"/><text fill="#000000" font-family="sans-serif" font-size="14" lengthAdjust="spacing" textLength="118" x="236.5" y="673.3076">:CreateUserStory</text><text fill="#000000" font-family="sans-serif" font-size="14" lengthAdjust="spacing" textLength="13" x="289" y="689.6045">UI</text><rect fill="#FFFFFF" height="46.5938" rx="2.5" ry="2.5" style="stroke:#181818;stroke-width:0.5;" width="153" x="492" y="71"/><text fill="#000000" font-family="sans-serif" font-size="14" lengthAdjust="spacing" textLength="85" x="526" y="90.9951">&#171;Controller&#187;</text><text fill="#000000" font-family="sans-serif" font-size="14" lengthAdjust="spacing" textLength="139" x="499" y="107.292">:UserStoryController</text><rect fill="#FFFFFF" height="46.5938" rx="2.5" ry="2.5" style="stroke:#181818;stroke-width:0.5;" width="153" x="492" y="653.3125"/><text fill="#000000" font-family="sans-serif" font-size="14" lengthAdjust="spacing" textLength="85" x="526" y="673.3076">&#171;Controller&#187;</text><text fill="#000000" font-family="sans-serif" font-size="14" lengthAdjust="spacing" textLength="139" x="499" y="689.6045">:UserStoryController</text><rect fill="#FFFFFF" height="46.5938" rx="2.5" ry="2.5" style="stroke:#181818;stroke-width:0.5;" width="136" x="773.5" y="71"/><text fill="#000000" font-family="sans-serif" font-size="14" lengthAdjust="spacing" textLength="68" x="807.5" y="90.9951">&#171;Service&#187;</text><text fill="#000000" font-family="sans-serif" font-size="14" lengthAdjust="spacing" textLength="122" x="780.5" y="107.292">:UserStoryService</text><rect fill="#FFFFFF" height="46.5938" rx="2.5" ry="2.5" style="stroke:#181818;stroke-width:0.5;" width="136" x="773.5" y="653.3125"/><text fill="#000000" font-family="sans-serif" font-size="14" lengthAdjust="spacing" textLength="68" x="807.5" y="673.3076">&#171;Service&#187;</text><text fill="#000000" font-family="sans-serif" font-size="14" lengthAdjust="spacing" textLength="122" x="780.5" y="689.6045">:UserStoryService</text><rect fill="#FFFFFF" height="46.5938" rx="2.5" ry="2.5" style="stroke:#181818;stroke-width:0.5;" width="136" x="1083.5" y="71"/><text fill="#000000" font-family="sans-serif" font-size="14" lengthAdjust="spacing" textLength="78" x="1112.5" y="90.9951">&#171;Interface&#187;</text><text fill="#000000" font-family="sans-serif" font-size="14" lengthAdjust="spacing" textLength="122" x="1090.5" y="107.292">:UserStoryFactory</text><rect fill="#FFFFFF" height="46.5938" rx="2.5" ry="2.5" style="stroke:#181818;stroke-width:0.5;" width="136" x="1083.5" y="653.3125"/><text fill="#000000" font-family="sans-serif" font-size="14" lengthAdjust="spacing" textLength="78" x="1112.5" y="673.3076">&#171;Interface&#187;</text><text fill="#000000" font-family="sans-serif" font-size="14" lengthAdjust="spacing" textLength="122" x="1090.5" y="689.6045">:UserStoryFactory</text><rect fill="#FFFFFF" height="46.5938" rx="2.5" ry="2.5" style="stroke:#181818;stroke-width:0.5;" width="160" x="1229.5" y="71"/><text fill="#000000" font-family="sans-serif" font-size="14" lengthAdjust="spacing" textLength="78" x="1270.5" y="90.9951">&#171;Interface&#187;</text><text fill="#000000" font-family="sans-serif" font-size="14" lengthAdjust="spacing" textLength="146" x="1236.5" y="107.292">:UserStoryRepository</text><rect fill="#FFFFFF" height="46.5938" rx="2.5" ry="2.5" style="stroke:#181818;stroke-width:0.5;" width="160" x="1229.5" y="653.3125"/><text fill="#000000" font-family="sans-serif" font-size="14" lengthAdjust="spacing" textLength="78" x="1270.5" y="673.3076">&#171;Interface&#187;</text><text fill="#000000" font-family="sans-serif" font-size="14" lengthAdjust="spacing" textLength="146" x="1236.5" y="689.6045">:UserStoryRepository</text><rect fill="#FFFFFF" height="30.2969" rx="2.5" ry="2.5" style="stroke:#181818;stroke-width:0.5;" width="207" x="1399.5" y="87.2969"/><text fill="#000000" font-family="sans-serif" font-size="14" lengthAdjust="spacing" textLength="193" x="1406.5" y="107.292">:OutputUserStoryAssembler</text><rect fill="#FFFFFF" height="30.2969" rx="2.5" ry="2.5" style="stroke:#181818;stroke-width:0.5;" width="207" x="1399.5" y="653.3125"/><text fill="#000000" font-family="sans-serif" font-size="14" lengthAdjust="spacing" textLength="193" x="1406.5" y="673.3076">:OutputUserStoryAssembler</text><rect fill="#FFFFFF" height="46.5938" rx="2.5" ry="2.5" style="stroke:#181818;stroke-width:0.5;" width="110" x="1616.5" y="653.3125"/><text fill="#000000" font-family="sans-serif" font-size="14" lengthAdjust="spacing" textLength="96" x="1623.5" y="673.3076">newUserStory</text><text fill="#000000" font-family="sans-serif" font-size="14" lengthAdjust="spacing" textLength="72" x="1635.5" y="689.6045">:UserStory</text><rect fill="#FFFFFF" height="471.4531" style="stroke:#181818;stroke-width:1.0;" width="10" x="290.5" y="164.8594"/><rect fill="#FFFFFF" height="413.1875" style="stroke:#181818;stroke-width:1.0;" width="10" x="563.5" y="193.9922"/><rect fill="#FFFFFF" height="354.9219" style="stroke:#181818;stroke-width:1.0;" width="10" x="836.5" y="223.125"/><rect fill="#FFFFFF" height="86.7266" style="stroke:#181818;stroke-width:1.0;" width="10" x="1146.5" y="310.5234"/><rect fill="#FFFFFF" height="29.1328" style="stroke:#181818;stroke-width:1.0;" width="10" x="1304.5" y="252.2578"/><rect fill="#FFFFFF" height="29.1328" style="stroke:#181818;stroke-width:1.0;" width="10" x="1304.5" y="426.3828"/><rect fill="#FFFFFF" height="29.1328" style="stroke:#181818;stroke-width:1.0;" width="10" x="1498" y="484.6484"/><polygon fill="#181818" points="278.5,160.8594,288.5,164.8594,278.5,168.8594,282.5,164.8594" style="stroke:#181818;stroke-width:1.0;"/><line style="stroke:#181818;stroke-width:1.0;" x1="59.5" x2="284.5" y1="164.8594" y2="164.8594"/><text fill="#000000" font-family="sans-serif" font-size="13" font-weight="bold" lengthAdjust="spacing" textLength="9" x="69" y="152.2271">1</text><text fill="#000000" font-family="sans-serif" font-size="13" lengthAdjust="spacing" textLength="199" x="82" y="144.6606">asks to create a user story and</text><text fill="#000000" font-family="sans-serif" font-size="13" lengthAdjust="spacing" textLength="160" x="101.5" y="159.7935">add it to Product Backlog</text><polygon fill="#181818" points="551.5,189.9922,561.5,193.9922,551.5,197.9922,555.5,193.9922" style="stroke:#181818;stroke-width:1.0;"/><line style="stroke:#181818;stroke-width:1.0;" x1="300.5" x2="557.5" y1="193.9922" y2="193.9922"/><text fill="#000000" font-family="sans-serif" font-size="13" font-weight="bold" lengthAdjust="spacing" textLength="9" x="310" y="188.9263">2</text><text fill="#000000" font-family="sans-serif" font-size="13" lengthAdjust="spacing" textLength="231" x="323" y="188.9263">createUserStory(newUserStoryDTO)</text><polygon fill="#181818" points="824.5,219.125,834.5,223.125,824.5,227.125,828.5,223.125" style="stroke:#181818;stroke-width:1.0;"/><line style="stroke:#181818;stroke-width:1.0;" x1="573.5" x2="830.5" y1="223.125" y2="223.125"/><text fill="#000000" font-family="sans-serif" font-size="13" font-weight="bold" lengthAdjust="spacing" textLength="9" x="583" y="218.0591">3</text><text fill="#000000" font-family="sans-serif" font-size="13" lengthAdjust="spacing" textLength="231" x="596" y="218.0591">createUserStory(newUserStoryDTO)</text><polygon fill="#181818" points="1292.5,248.2578,1302.5,252.2578,1292.5,256.2578,1296.5,252.2578" style="stroke:#181818;stroke-width:1.0;"/><line style="stroke:#181818;stroke-width:1.0;" x1="846.5" x2="1298.5" y1="252.2578" y2="252.2578"/><text fill="#000000" font-family="sans-serif" font-size="13" font-weight="bold" lengthAdjust="spacing" textLength="9" x="933.5" y="247.1919">4</text><text fill="#000000" font-family="sans-serif" font-size="13" lengthAdjust="spacing" textLength="271" x="946.5" y="247.1919">existsByID(newUserStoryDTO.userStoryID)</text><polygon fill="#181818" points="857.5,277.3906,847.5,281.3906,857.5,285.3906,853.5,281.3906" style="stroke:#181818;stroke-width:1.0;"/><line style="stroke:#181818;stroke-width:1.0;stroke-dasharray:2.0,2.0;" x1="851.5" x2="1308.5" y1="281.3906" y2="281.3906"/><text fill="#000000" font-family="sans-serif" font-size="13" font-weight="bold" lengthAdjust="spacing" textLength="9" x="1058.5" y="276.3247">5</text><text fill="#000000" font-family="sans-serif" font-size="13" lengthAdjust="spacing" textLength="26" x="1071.5" y="276.3247">true</text><polygon fill="#181818" points="1134.5,306.5234,1144.5,310.5234,1134.5,314.5234,1138.5,310.5234" style="stroke:#181818;stroke-width:1.0;"/><line style="stroke:#181818;stroke-width:1.0;" x1="846.5" x2="1140.5" y1="310.5234" y2="310.5234"/><text fill="#000000" font-family="sans-serif" font-size="13" font-weight="bold" lengthAdjust="spacing" textLength="9" x="856" y="305.4575">6</text><text fill="#000000" font-family="sans-serif" font-size="13" lengthAdjust="spacing" textLength="268" x="869" y="305.4575">createUserStory(userStoryID, description)</text><polygon fill="#181818" points="1604.5,335.6563,1614.5,339.6563,1604.5,343.6563,1608.5,339.6563" style="stroke:#181818;stroke-width:1.0;"/><line style="stroke:#181818;stroke-width:1.0;" x1="1156.5" x2="1610.5" y1="339.6563" y2="339.6563"/><text fill="#000000" font-family="sans-serif" font-size="13" font-weight="bold" lengthAdjust="spacing" textLength="9" x="1276" y="334.5903">7</text><text fill="#000000" font-family="sans-serif" font-size="13" lengthAdjust="spacing" textLength="208" x="1289" y="334.5903">create (userStoryID, description)</text><rect fill="#FFFFFF" height="46.5938" rx="2.5" ry="2.5" style="stroke:#181818;stroke-width:0.5;" width="110" x="1616.5" y="318.5234"/><text fill="#000000" font-family="sans-serif" font-size="14" lengthAdjust="spacing" textLength="96" x="1623.5" y="338.5186">newUserStory</text><text fill="#000000" font-family="sans-serif" font-size="14" lengthAdjust="spacing" textLength="72" x="1635.5" y="354.8154">:UserStory</text><polygon fill="#181818" points="857.5,393.25,847.5,397.25,857.5,401.25,853.5,397.25" style="stroke:#181818;stroke-width:1.0;"/><line style="stroke:#181818;stroke-width:1.0;stroke-dasharray:2.0,2.0;" x1="851.5" x2="1150.5" y1="397.25" y2="397.25"/><text fill="#000000" font-family="sans-serif" font-size="13" font-weight="bold" lengthAdjust="spacing" textLength="9" x="948" y="392.1841">8</text><text fill="#000000" font-family="sans-serif" font-size="13" lengthAdjust="spacing" textLength="89" x="961" y="392.1841">newUserStory</text><polygon fill="#181818" points="1292.5,422.3828,1302.5,426.3828,1292.5,430.3828,1296.5,426.3828" style="stroke:#181818;stroke-width:1.0;"/><line style="stroke:#181818;stroke-width:1.0;" x1="846.5" x2="1298.5" y1="426.3828" y2="426.3828"/><text fill="#000000" font-family="sans-serif" font-size="13" font-weight="bold" lengthAdjust="spacing" textLength="9" x="1004.5" y="421.3169">9</text><text fill="#000000" font-family="sans-serif" font-size="13" lengthAdjust="spacing" textLength="129" x="1017.5" y="421.3169">save(newUserStory)</text><polygon fill="#181818" points="857.5,451.5156,847.5,455.5156,857.5,459.5156,853.5,455.5156" style="stroke:#181818;stroke-width:1.0;"/><line style="stroke:#181818;stroke-width:1.0;stroke-dasharray:2.0,2.0;" x1="851.5" x2="1308.5" y1="455.5156" y2="455.5156"/><text fill="#000000" font-family="sans-serif" font-size="13" font-weight="bold" lengthAdjust="spacing" textLength="18" x="1016" y="450.4497">10</text><text fill="#000000" font-family="sans-serif" font-size="13" lengthAdjust="spacing" textLength="102" x="1038" y="450.4497">savedUserStory</text><polygon fill="#181818" points="1486,480.6484,1496,484.6484,1486,488.6484,1490,484.6484" style="stroke:#181818;stroke-width:1.0;"/><line style="stroke:#181818;stroke-width:1.0;" x1="846.5" x2="1492" y1="484.6484" y2="484.6484"/><text fill="#000000" font-family="sans-serif" font-size="13" font-weight="bold" lengthAdjust="spacing" textLength="18" x="1039.25" y="479.5825">11</text><text fill="#000000" font-family="sans-serif" font-size="13" lengthAdjust="spacing" textLength="244" x="1061.25" y="479.5825">createUserStoryDTO(savedUserStory)</text><polygon fill="#181818" points="857.5,509.7813,847.5,513.7813,857.5,517.7813,853.5,513.7813" style="stroke:#181818;stroke-width:1.0;"/><line style="stroke:#181818;stroke-width:1.0;stroke-dasharray:2.0,2.0;" x1="851.5" x2="1502" y1="513.7813" y2="513.7813"/><text fill="#000000" font-family="sans-serif" font-size="13" font-weight="bold" lengthAdjust="spacing" textLength="18" x="1119.25" y="508.7153">12</text><text fill="#000000" font-family="sans-serif" font-size="13" lengthAdjust="spacing" textLength="89" x="1141.25" y="508.7153">userStoryDTO</text><ellipse cx="1723" cy="545.1641" fill="none" rx="4" ry="4" style="stroke:#181818;stroke-width:1.5;"/><polygon fill="#181818" points="1706,541.9141,1716,545.9141,1706,549.9141,1710,545.9141" style="stroke:#181818;stroke-width:1.0;"/><line style="stroke:#181818;stroke-width:1.0;" x1="846.5" x2="1712" y1="545.9141" y2="545.9141"/><text fill="#000000" font-family="sans-serif" font-size="13" font-weight="bold" lengthAdjust="spacing" textLength="18" x="1146.5" y="540.8481">13</text><text fill="#000000" font-family="sans-serif" font-size="13" lengthAdjust="spacing" textLength="255" x="1168.5" y="540.8481">publishAddUserStoryEvent(userStoryID)</text><path d="M611,526.7813 L611,551.7813 L831,551.7813 L831,536.7813 L821,526.7813 L611,526.7813 " fill="#FEFFDD" style="stroke:#181818;stroke-width:0.5;"/><path d="M821,526.7813 L821,536.7813 L831,536.7813 L821,526.7813 " fill="#FEFFDD" style="stroke:#181818;stroke-width:0.5;"/><text fill="#000000" font-family="sans-serif" font-size="13" lengthAdjust="spacing" textLength="199" x="617" y="543.8481">see "Add User Story Event" ref.</text><polygon fill="#181818" points="584.5,574.0469,574.5,578.0469,584.5,582.0469,580.5,578.0469" style="stroke:#181818;stroke-width:1.0;"/><line style="stroke:#181818;stroke-width:1.0;stroke-dasharray:2.0,2.0;" x1="578.5" x2="840.5" y1="578.0469" y2="578.0469"/><text fill="#000000" font-family="sans-serif" font-size="13" font-weight="bold" lengthAdjust="spacing" textLength="18" x="652" y="572.981">14</text><text fill="#000000" font-family="sans-serif" font-size="13" lengthAdjust="spacing" textLength="89" x="674" y="572.981">userStoryDTO</text><polygon fill="#181818" points="311.5,603.1797,301.5,607.1797,311.5,611.1797,307.5,607.1797" style="stroke:#181818;stroke-width:1.0;"/><line style="stroke:#181818;stroke-width:1.0;stroke-dasharray:2.0,2.0;" x1="305.5" x2="567.5" y1="607.1797" y2="607.1797"/><text fill="#000000" font-family="sans-serif" font-size="13" font-weight="bold" lengthAdjust="spacing" textLength="18" x="379" y="602.1138">15</text><text fill="#000000" font-family="sans-serif" font-size="13" lengthAdjust="spacing" textLength="89" x="401" y="602.1138">userStoryDTO</text><polygon fill="#181818" points="70.5,632.3125,60.5,636.3125,70.5,640.3125,66.5,636.3125" style="stroke:#181818;stroke-width:1.0;"/><line style="stroke:#181818;stroke-width:1.0;stroke-dasharray:2.0,2.0;" x1="64.5" x2="294.5" y1="636.3125" y2="636.3125"/><text fill="#000000" font-family="sans-serif" font-size="13" font-weight="bold" lengthAdjust="spacing" textLength="18" x="133.5" y="631.2466">16</text><text fill="#000000" font-family="sans-serif" font-size="13" lengthAdjust="spacing" textLength="66" x="155.5" y="631.2466">successful</text><!--SRC=[bLL9Zzem5BxdLppbn6WMjQTAQ8J4G9SSgeo6vaOFnda4Ys2dNg3y-zec-oHJo26AdMzvxtkMhFQC5qII0oZyOv1J_8bAaGpdESiuKEGQPQ1g5A5Qo1T2zvaKXgSBaGi9fntJs0BPjsQK5OJh_q4hrpVSedGVDnD-84bHNalxRZ75C3WWHWjk3XlRSA2PpX6IrQVFN-0HvWfUfKWDrH2VECe7YE1akmCjW4ea6e60KIX1sNZEG7WA94s1UOJUOKrtrhd8h9aB4iAER0Z46iL1q0eGmkd2EoHMVkNKrpo9F3A9ki3dvuNWMeeyHpcRhVcqfZJxdjWi-m8hb4T6iSikDo-UgtBLPqRke6n9d_lDztdstFBxIkOR5aAncZomtuifDhemkiRDbSB3fcfPZFpiQd0yjM9kQYbR3uBN61vdDlZx-wdTsgiF3i2QDoVWtVJ1Fadaj9fPE4tQ7VMaNT3oLtntORgduVcAgh7S9kBBgAXUvttAJX7_CgNLopbQziMUJBM8bdSTNOdQI0vQ6lp0i3mJGsMtb1yWHKKbApGJl6jJfc-7qzujPI_HGAKDLsgMfRTRlJqpHOxOIMlGmw7IQrp63l10SdOiawxkeBLfuSUDnUyf56QJCxMRfutYrwEz6IQZm-V2fYrPjjCs24G8BTS71HuEdXxQIhPFZVLeNOC_gW0DfVR6sfey-0S0]--></g></svg>