<?xml version="1.0" encoding="us-ascii" standalone="no"?><svg xmlns="http://www.w3.org/2000/svg" xmlns:xlink="http://www.w3.org/1999/xlink" contentStyleType="text/css" height="716px" preserveAspectRatio="none" style="width:1956px;height:716px;background:#FFFFFF;" version="1.1" viewBox="0 0 1956 716" width="1956px" zoomAndPan="magnify"><defs/><g><text fill="#000000" font-family="sans-serif" font-size="14" font-weight="bold" lengthAdjust="spacing" textLength="521" x="716.5" y="27.9951">US007 - As Administrator, I want to create a new project typology</text><rect fill="#FFFFFF" height="468.2422" style="stroke:#181818;stroke-width:1.0;" width="10" x="312" y="149.7266"/><rect fill="#FFFFFF" height="351.7109" style="stroke:#181818;stroke-width:1.0;" width="10" x="641" y="237.125"/><rect fill="#FFFFFF" height="293.4453" style="stroke:#181818;stroke-width:1.0;" width="10" x="970" y="266.2578"/><rect fill="#FFFFFF" height="103.0234" style="stroke:#181818;stroke-width:1.0;" width="10" x="1467" y="369.2813"/><rect fill="#FFFFFF" height="29.1328" style="stroke:#181818;stroke-width:1.0;" width="10" x="1667.5" y="501.4375"/><line style="stroke:#181818;stroke-width:0.5;stroke-dasharray:5.0,5.0;" x1="56" x2="56" y1="118.5938" y2="635.9688"/><line style="stroke:#181818;stroke-width:0.5;stroke-dasharray:5.0,5.0;" x1="317" x2="317" y1="118.5938" y2="635.9688"/><line style="stroke:#181818;stroke-width:0.5;stroke-dasharray:5.0,5.0;" x1="645.5" x2="645.5" y1="118.5938" y2="635.9688"/><line style="stroke:#181818;stroke-width:0.5;stroke-dasharray:5.0,5.0;" x1="974.5" x2="974.5" y1="118.5938" y2="635.9688"/><line style="stroke:#181818;stroke-width:0.5;stroke-dasharray:5.0,5.0;" x1="1288" x2="1288" y1="321.2031" y2="635.9688"/><line style="stroke:#181818;stroke-width:0.5;stroke-dasharray:5.0,5.0;" x1="1472" x2="1472" y1="118.5938" y2="635.9688"/><line style="stroke:#181818;stroke-width:0.5;stroke-dasharray:5.0,5.0;" x1="1672" x2="1672" y1="118.5938" y2="635.9688"/><line style="stroke:#181818;stroke-width:0.5;stroke-dasharray:5.0,5.0;" x1="1867" x2="1867" y1="424.2266" y2="635.9688"/><text fill="#000000" font-family="sans-serif" font-size="14" lengthAdjust="spacing" textLength="96" x="5" y="115.292">:Administrator</text><ellipse cx="56" cy="50.7969" fill="#FFFFFF" rx="8" ry="8" style="stroke:#181818;stroke-width:0.5;"/><path d="M56,58.7969 L56,85.7969 M43,66.7969 L69,66.7969 M56,85.7969 L43,100.7969 M56,85.7969 L69,100.7969 " fill="none" style="stroke:#181818;stroke-width:0.5;"/><text fill="#000000" font-family="sans-serif" font-size="14" lengthAdjust="spacing" textLength="96" x="5" y="647.9639">:Administrator</text><ellipse cx="56" cy="659.7656" fill="#FFFFFF" rx="8" ry="8" style="stroke:#181818;stroke-width:0.5;"/><path d="M56,667.7656 L56,694.7656 M43,675.7656 L69,675.7656 M56,694.7656 L43,709.7656 M56,694.7656 L69,709.7656 " fill="none" style="stroke:#181818;stroke-width:0.5;"/><rect fill="#FFFFFF" height="30.2969" rx="2.5" ry="2.5" style="stroke:#181818;stroke-width:0.5;" width="188" x="223" y="87.2969"/><text fill="#000000" font-family="sans-serif" font-size="14" lengthAdjust="spacing" textLength="174" x="230" y="107.292">:CreateProjectTypologyUI</text><rect fill="#FFFFFF" height="30.2969" rx="2.5" ry="2.5" style="stroke:#181818;stroke-width:0.5;" width="188" x="223" y="634.9688"/><text fill="#000000" font-family="sans-serif" font-size="14" lengthAdjust="spacing" textLength="174" x="230" y="654.9639">:CreateProjectTypologyUI</text><rect fill="#FFFFFF" height="46.5938" rx="2.5" ry="2.5" style="stroke:#181818;stroke-width:0.5;" width="175" x="558.5" y="71"/><text fill="#000000" font-family="sans-serif" font-size="14" lengthAdjust="spacing" textLength="161" x="565.5" y="90.9951">:CreateProjectTypology</text><text fill="#000000" font-family="sans-serif" font-size="14" lengthAdjust="spacing" textLength="67" x="612.5" y="107.292">Controller</text><rect fill="#FFFFFF" height="46.5938" rx="2.5" ry="2.5" style="stroke:#181818;stroke-width:0.5;" width="175" x="558.5" y="634.9688"/><text fill="#000000" font-family="sans-serif" font-size="14" lengthAdjust="spacing" textLength="161" x="565.5" y="654.9639">:CreateProjectTypology</text><text fill="#000000" font-family="sans-serif" font-size="14" lengthAdjust="spacing" textLength="67" x="612.5" y="671.2607">Controller</text><rect fill="#FFFFFF" height="30.2969" rx="2.5" ry="2.5" style="stroke:#181818;stroke-width:0.5;" width="179" x="885.5" y="87.2969"/><text fill="#000000" font-family="sans-serif" font-size="14" lengthAdjust="spacing" textLength="165" x="892.5" y="107.292">:ProjectTypologyService</text><rect fill="#FFFFFF" height="30.2969" rx="2.5" ry="2.5" style="stroke:#181818;stroke-width:0.5;" width="179" x="885.5" y="634.9688"/><text fill="#000000" font-family="sans-serif" font-size="14" lengthAdjust="spacing" textLength="165" x="892.5" y="654.9639">:ProjectTypologyService</text><rect fill="#FFFFFF" height="62.8906" rx="2.5" ry="2.5" style="stroke:#181818;stroke-width:0.5;" width="169" x="1204" y="634.9688"/><text fill="#000000" font-family="sans-serif" font-size="14" lengthAdjust="spacing" textLength="101" x="1236" y="654.9639">&#171;ValueObject&#187;</text><text fill="#000000" font-family="sans-serif" font-size="14" lengthAdjust="spacing" textLength="39" x="1271" y="671.2607">name</text><text fill="#000000" font-family="sans-serif" font-size="14" lengthAdjust="spacing" textLength="155" x="1211" y="687.5576">:ProjectTypologyName</text><rect fill="#FFFFFF" height="46.5938" rx="2.5" ry="2.5" style="stroke:#181818;stroke-width:0.5;" width="178" x="1383" y="71"/><text fill="#000000" font-family="sans-serif" font-size="14" lengthAdjust="spacing" textLength="78" x="1433" y="90.9951">&#171;Interface&#187;</text><text fill="#000000" font-family="sans-serif" font-size="14" lengthAdjust="spacing" textLength="160" x="1394" y="107.292">ProjectTypologyFactory</text><rect fill="#FFFFFF" height="46.5938" rx="2.5" ry="2.5" style="stroke:#181818;stroke-width:0.5;" width="178" x="1383" y="634.9688"/><text fill="#000000" font-family="sans-serif" font-size="14" lengthAdjust="spacing" textLength="78" x="1433" y="654.9639">&#171;Interface&#187;</text><text fill="#000000" font-family="sans-serif" font-size="14" lengthAdjust="spacing" textLength="160" x="1394" y="671.2607">ProjectTypologyFactory</text><rect fill="#FFFFFF" height="30.2969" rx="2.5" ry="2.5" style="stroke:#181818;stroke-width:0.5;" width="203" x="1571" y="87.2969"/><text fill="#000000" font-family="sans-serif" font-size="14" lengthAdjust="spacing" textLength="189" x="1578" y="107.292">:ProjectTypologyRepository</text><rect fill="#FFFFFF" height="30.2969" rx="2.5" ry="2.5" style="stroke:#181818;stroke-width:0.5;" width="203" x="1571" y="634.9688"/><text fill="#000000" font-family="sans-serif" font-size="14" lengthAdjust="spacing" textLength="189" x="1578" y="654.9639">:ProjectTypologyRepository</text><rect fill="#FFFFFF" height="62.8906" rx="2.5" ry="2.5" style="stroke:#181818;stroke-width:0.5;" width="166" x="1784" y="634.9688"/><text fill="#000000" font-family="sans-serif" font-size="14" lengthAdjust="spacing" textLength="101" x="1814.5" y="654.9639">&#171;ValueObject&#187;</text><text fill="#000000" font-family="sans-serif" font-size="14" lengthAdjust="spacing" textLength="148" x="1791" y="671.2607">newProjectTypology :</text><text fill="#000000" font-family="sans-serif" font-size="14" lengthAdjust="spacing" textLength="110" x="1812" y="687.5576">ProjectTypology</text><rect fill="#FFFFFF" height="468.2422" style="stroke:#181818;stroke-width:1.0;" width="10" x="312" y="149.7266"/><rect fill="#FFFFFF" height="351.7109" style="stroke:#181818;stroke-width:1.0;" width="10" x="641" y="237.125"/><rect fill="#FFFFFF" height="293.4453" style="stroke:#181818;stroke-width:1.0;" width="10" x="970" y="266.2578"/><rect fill="#FFFFFF" height="103.0234" style="stroke:#181818;stroke-width:1.0;" width="10" x="1467" y="369.2813"/><rect fill="#FFFFFF" height="29.1328" style="stroke:#181818;stroke-width:1.0;" width="10" x="1667.5" y="501.4375"/><polygon fill="#181818" points="300,145.7266,310,149.7266,300,153.7266,304,149.7266" style="stroke:#181818;stroke-width:1.0;"/><line style="stroke:#181818;stroke-width:1.0;" x1="56" x2="306" y1="149.7266" y2="149.7266"/><text fill="#000000" font-family="sans-serif" font-size="13" font-weight="bold" lengthAdjust="spacing" textLength="9" x="65.5" y="144.6606">1</text><text fill="#000000" font-family="sans-serif" font-size="13" lengthAdjust="spacing" textLength="224" x="78.5" y="144.6606">requests to create project typology</text><polygon fill="#181818" points="67,174.8594,57,178.8594,67,182.8594,63,178.8594" style="stroke:#181818;stroke-width:1.0;"/><line style="stroke:#181818;stroke-width:1.0;" x1="61" x2="311" y1="178.8594" y2="178.8594"/><text fill="#000000" font-family="sans-serif" font-size="13" font-weight="bold" lengthAdjust="spacing" textLength="9" x="76" y="173.7935">2</text><text fill="#000000" font-family="sans-serif" font-size="13" lengthAdjust="spacing" textLength="203" x="89" y="173.7935">requests project typology name</text><polygon fill="#181818" points="300,203.9922,310,207.9922,300,211.9922,304,207.9922" style="stroke:#181818;stroke-width:1.0;"/><line style="stroke:#181818;stroke-width:1.0;" x1="56" x2="306" y1="207.9922" y2="207.9922"/><text fill="#000000" font-family="sans-serif" font-size="13" font-weight="bold" lengthAdjust="spacing" textLength="9" x="83.5" y="202.9263">3</text><text fill="#000000" font-family="sans-serif" font-size="13" lengthAdjust="spacing" textLength="188" x="96.5" y="202.9263">enters project typology name</text><polygon fill="#181818" points="629,233.125,639,237.125,629,241.125,633,237.125" style="stroke:#181818;stroke-width:1.0;"/><line style="stroke:#181818;stroke-width:1.0;" x1="322" x2="635" y1="237.125" y2="237.125"/><text fill="#000000" font-family="sans-serif" font-size="13" font-weight="bold" lengthAdjust="spacing" textLength="9" x="331.5" y="232.0591">4</text><text fill="#000000" font-family="sans-serif" font-size="13" lengthAdjust="spacing" textLength="287" x="344.5" y="232.0591">createProjectTypology(projectTypologyValue)</text><polygon fill="#181818" points="958,262.2578,968,266.2578,958,270.2578,962,266.2578" style="stroke:#181818;stroke-width:1.0;"/><line style="stroke:#181818;stroke-width:1.0;" x1="651" x2="964" y1="266.2578" y2="266.2578"/><text fill="#000000" font-family="sans-serif" font-size="13" font-weight="bold" lengthAdjust="spacing" textLength="9" x="660.5" y="261.1919">5</text><text fill="#000000" font-family="sans-serif" font-size="13" lengthAdjust="spacing" textLength="287" x="673.5" y="261.1919">createProjectTypology(projectTypologyValue)</text><polygon fill="#181818" points="1192,291.3906,1202,295.3906,1192,299.3906,1196,295.3906" style="stroke:#181818;stroke-width:1.0;"/><line style="stroke:#181818;stroke-width:1.0;" x1="980" x2="1198" y1="295.3906" y2="295.3906"/><text fill="#000000" font-family="sans-serif" font-size="13" font-weight="bold" lengthAdjust="spacing" textLength="9" x="992" y="290.3247">6</text><text fill="#000000" font-family="sans-serif" font-size="13" lengthAdjust="spacing" textLength="187" x="1005" y="290.3247">create(projectTypologyValue)</text><rect fill="#FFFFFF" height="62.8906" rx="2.5" ry="2.5" style="stroke:#181818;stroke-width:0.5;" width="169" x="1204" y="274.2578"/><text fill="#000000" font-family="sans-serif" font-size="14" lengthAdjust="spacing" textLength="101" x="1236" y="294.2529">&#171;ValueObject&#187;</text><text fill="#000000" font-family="sans-serif" font-size="14" lengthAdjust="spacing" textLength="39" x="1271" y="310.5498">name</text><text fill="#000000" font-family="sans-serif" font-size="14" lengthAdjust="spacing" textLength="155" x="1211" y="326.8467">:ProjectTypologyName</text><polygon fill="#181818" points="1455,365.2813,1465,369.2813,1455,373.2813,1459,369.2813" style="stroke:#181818;stroke-width:1.0;"/><line style="stroke:#181818;stroke-width:1.0;" x1="980" x2="1461" y1="369.2813" y2="369.2813"/><text fill="#000000" font-family="sans-serif" font-size="13" font-weight="bold" lengthAdjust="spacing" textLength="9" x="1122" y="364.2153">7</text><text fill="#000000" font-family="sans-serif" font-size="13" lengthAdjust="spacing" textLength="190" x="1135" y="364.2153">create(projectTypologyName)</text><polygon fill="#181818" points="1772,394.4141,1782,398.4141,1772,402.4141,1776,398.4141" style="stroke:#181818;stroke-width:1.0;"/><line style="stroke:#181818;stroke-width:1.0;" x1="1477" x2="1778" y1="398.4141" y2="398.4141"/><text fill="#000000" font-family="sans-serif" font-size="13" font-weight="bold" lengthAdjust="spacing" textLength="9" x="1622" y="393.3481">8</text><text fill="#000000" font-family="sans-serif" font-size="13" lengthAdjust="spacing" textLength="4" x="1635" y="393.3481">&#160;</text><rect fill="#FFFFFF" height="62.8906" rx="2.5" ry="2.5" style="stroke:#181818;stroke-width:0.5;" width="166" x="1784" y="377.2813"/><text fill="#000000" font-family="sans-serif" font-size="14" lengthAdjust="spacing" textLength="101" x="1814.5" y="397.2764">&#171;ValueObject&#187;</text><text fill="#000000" font-family="sans-serif" font-size="14" lengthAdjust="spacing" textLength="148" x="1791" y="413.5732">newProjectTypology :</text><text fill="#000000" font-family="sans-serif" font-size="14" lengthAdjust="spacing" textLength="110" x="1812" y="429.8701">ProjectTypology</text><polygon fill="#181818" points="991,468.3047,981,472.3047,991,476.3047,987,472.3047" style="stroke:#181818;stroke-width:1.0;"/><line style="stroke:#181818;stroke-width:1.0;stroke-dasharray:2.0,2.0;" x1="985" x2="1471" y1="472.3047" y2="472.3047"/><text fill="#000000" font-family="sans-serif" font-size="13" font-weight="bold" lengthAdjust="spacing" textLength="9" x="1157" y="467.2388">9</text><text fill="#000000" font-family="sans-serif" font-size="13" lengthAdjust="spacing" textLength="125" x="1170" y="467.2388">newProjectTypology</text><polygon fill="#181818" points="1655.5,497.4375,1665.5,501.4375,1655.5,505.4375,1659.5,501.4375" style="stroke:#181818;stroke-width:1.0;"/><line style="stroke:#181818;stroke-width:1.0;" x1="980" x2="1661.5" y1="501.4375" y2="501.4375"/><text fill="#000000" font-family="sans-serif" font-size="13" font-weight="bold" lengthAdjust="spacing" textLength="18" x="1230.25" y="496.3716">10</text><text fill="#000000" font-family="sans-serif" font-size="13" lengthAdjust="spacing" textLength="165" x="1252.25" y="496.3716">save(newProjectTypology)</text><polygon fill="#181818" points="991,526.5703,981,530.5703,991,534.5703,987,530.5703" style="stroke:#181818;stroke-width:1.0;"/><line style="stroke:#181818;stroke-width:1.0;stroke-dasharray:2.0,2.0;" x1="985" x2="1671.5" y1="530.5703" y2="530.5703"/><text fill="#000000" font-family="sans-serif" font-size="13" font-weight="bold" lengthAdjust="spacing" textLength="18" x="1285.25" y="525.5044">11</text><text fill="#000000" font-family="sans-serif" font-size="13" lengthAdjust="spacing" textLength="60" x="1307.25" y="525.5044">true/false</text><polygon fill="#181818" points="662,555.7031,652,559.7031,662,563.7031,658,559.7031" style="stroke:#181818;stroke-width:1.0;"/><line style="stroke:#181818;stroke-width:1.0;stroke-dasharray:2.0,2.0;" x1="656" x2="974" y1="559.7031" y2="559.7031"/><text fill="#000000" font-family="sans-serif" font-size="13" font-weight="bold" lengthAdjust="spacing" textLength="18" x="772" y="554.6372">12</text><text fill="#000000" font-family="sans-serif" font-size="13" lengthAdjust="spacing" textLength="60" x="794" y="554.6372">true/false</text><polygon fill="#181818" points="333,584.8359,323,588.8359,333,592.8359,329,588.8359" style="stroke:#181818;stroke-width:1.0;"/><line style="stroke:#181818;stroke-width:1.0;stroke-dasharray:2.0,2.0;" x1="327" x2="645" y1="588.8359" y2="588.8359"/><text fill="#000000" font-family="sans-serif" font-size="13" font-weight="bold" lengthAdjust="spacing" textLength="18" x="443" y="583.77">13</text><text fill="#000000" font-family="sans-serif" font-size="13" lengthAdjust="spacing" textLength="60" x="465" y="583.77">true/false</text><polygon fill="#181818" points="67,613.9688,57,617.9688,67,621.9688,63,617.9688" style="stroke:#181818;stroke-width:1.0;"/><line style="stroke:#181818;stroke-width:1.0;stroke-dasharray:2.0,2.0;" x1="61" x2="316" y1="617.9688" y2="617.9688"/><text fill="#000000" font-family="sans-serif" font-size="13" font-weight="bold" lengthAdjust="spacing" textLength="18" x="102" y="612.9028">14</text><text fill="#000000" font-family="sans-serif" font-size="13" lengthAdjust="spacing" textLength="147" x="124" y="612.9028">successful/insuccessful</text><!--SRC=[bPHDRy8m38Rl_HKMku0OWjiaX2eXf4aSzg4nTkAIPOPbQvCkIK7y-xcXK1hI2d9A7B-F4-TjpQ-G6TCi1OD_EKgEJsWCs-0q4Hi97AL57R7SAfcddpIDhB09md8n6Zt00AO6fb-faC9OpQpIzp277PCMh0AkaLa41X9ta6drWvpY-qmbQhEF8iOf7phZchu3p2F2tUvRM8peb5PmaHNmpdZcsAy7w7l9NCwTV3c_GREICoMjLac2X-BLCapnz0lKMy7HISjvK3UPVB0anvVFGXp7i98WMOehwGEVAUfeWNW3ULuyqffnZ6F2Uhf7r-Tz25bkNNNFDyoK4ITIjRpojkG1ZmXZ2dinnmwabZMYg6wDGKoFtU-FGHVcDTQSsUxIS423l46YEkLCxelS6nsKWSgaTDz7g-vGiN9LSLmUSc8tgwzT1tkESUP9OfKsknNaICKe6nJmrodbw6Ig5aWxrcqhr4meNTVlGnEdg75vtajRd38QV4srMqGQRQvbA2FKXihmHTyDssBtKjdpuLRdE5opn63KidNrZiavfz_pEa-6GbOB-Yx-0G00]--></g></svg>