<?xml version="1.0" encoding="us-ascii" standalone="no"?><svg xmlns="http://www.w3.org/2000/svg" xmlns:xlink="http://www.w3.org/1999/xlink" contentStyleType="text/css" height="353px" preserveAspectRatio="none" style="width:537px;height:353px;background:#FFFFFF;" version="1.1" viewBox="0 0 537 353" width="537px" zoomAndPan="magnify"><defs/><g><text fill="#000000" font-family="sans-serif" font-size="14" font-weight="bold" lengthAdjust="spacing" textLength="344" x="95.75" y="28.5352">US024 - As an Admin, I want to list all projects</text><rect fill="#FFFFFF" height="161.8633" style="stroke:#181818;stroke-width:1.0;" width="10" x="199" y="121.7754"/><rect fill="#FFFFFF" height="103.2422" style="stroke:#181818;stroke-width:1.0;" width="10" x="335" y="151.0859"/><rect fill="#FFFFFF" height="29.3105" style="stroke:#181818;stroke-width:1.0;" width="10" x="467" y="180.3965"/><line style="stroke:#181818;stroke-width:0.5;stroke-dasharray:5.0,5.0;" x1="203.5" x2="203.5" y1="90.4648" y2="301.6387"/><line style="stroke:#181818;stroke-width:0.5;stroke-dasharray:5.0,5.0;" x1="339.5" x2="339.5" y1="90.4648" y2="301.6387"/><line style="stroke:#181818;stroke-width:0.5;stroke-dasharray:5.0,5.0;" x1="471.5" x2="471.5" y1="90.4648" y2="301.6387"/><rect fill="#FFFFFF" height="46.9766" rx="2.5" ry="2.5" style="stroke:#181818;stroke-width:0.5;" width="119" x="144.5" y="42.4883"/><text fill="#000000" font-family="sans-serif" font-size="14" lengthAdjust="spacing" textLength="105" x="151.5" y="63.0234">&#171;container(c4)&#187;</text><text fill="#000000" font-family="sans-serif" font-size="14" lengthAdjust="spacing" textLength="75" x="166.5" y="79.5117">:Front-end</text><rect fill="#FFFFFF" height="46.9766" rx="2.5" ry="2.5" style="stroke:#181818;stroke-width:0.5;" width="119" x="144.5" y="300.6387"/><text fill="#000000" font-family="sans-serif" font-size="14" lengthAdjust="spacing" textLength="105" x="151.5" y="321.1738">&#171;container(c4)&#187;</text><text fill="#000000" font-family="sans-serif" font-size="14" lengthAdjust="spacing" textLength="75" x="166.5" y="337.6621">:Front-end</text><rect fill="#FFFFFF" height="46.9766" rx="2.5" ry="2.5" style="stroke:#181818;stroke-width:0.5;" width="119" x="280.5" y="42.4883"/><text fill="#000000" font-family="sans-serif" font-size="14" lengthAdjust="spacing" textLength="105" x="287.5" y="63.0234">&#171;container(c4)&#187;</text><text fill="#000000" font-family="sans-serif" font-size="14" lengthAdjust="spacing" textLength="69" x="305.5" y="79.5117">:Back-end</text><rect fill="#FFFFFF" height="46.9766" rx="2.5" ry="2.5" style="stroke:#181818;stroke-width:0.5;" width="119" x="280.5" y="300.6387"/><text fill="#000000" font-family="sans-serif" font-size="14" lengthAdjust="spacing" textLength="105" x="287.5" y="321.1738">&#171;container(c4)&#187;</text><text fill="#000000" font-family="sans-serif" font-size="14" lengthAdjust="spacing" textLength="69" x="305.5" y="337.6621">:Back-end</text><rect fill="#FFFFFF" height="46.9766" rx="2.5" ry="2.5" style="stroke:#181818;stroke-width:0.5;" width="119" x="412.5" y="42.4883"/><text fill="#000000" font-family="sans-serif" font-size="14" lengthAdjust="spacing" textLength="105" x="419.5" y="63.0234">&#171;container(c4)&#187;</text><text fill="#000000" font-family="sans-serif" font-size="14" lengthAdjust="spacing" textLength="67" x="438.5" y="79.5117">:Database</text><rect fill="#FFFFFF" height="46.9766" rx="2.5" ry="2.5" style="stroke:#181818;stroke-width:0.5;" width="119" x="412.5" y="300.6387"/><text fill="#000000" font-family="sans-serif" font-size="14" lengthAdjust="spacing" textLength="105" x="419.5" y="321.1738">&#171;container(c4)&#187;</text><text fill="#000000" font-family="sans-serif" font-size="14" lengthAdjust="spacing" textLength="67" x="438.5" y="337.6621">:Database</text><rect fill="#FFFFFF" height="161.8633" style="stroke:#181818;stroke-width:1.0;" width="10" x="199" y="121.7754"/><rect fill="#FFFFFF" height="103.2422" style="stroke:#181818;stroke-width:1.0;" width="10" x="335" y="151.0859"/><rect fill="#FFFFFF" height="29.3105" style="stroke:#181818;stroke-width:1.0;" width="10" x="467" y="180.3965"/><ellipse cx="7.5" cy="121.0254" fill="none" rx="4" ry="4" style="stroke:#181818;stroke-width:1.5;"/><polygon fill="#181818" points="187,117.7754,197,121.7754,187,125.7754,191,121.7754" style="stroke:#181818;stroke-width:1.0;"/><line style="stroke:#181818;stroke-width:1.0;" x1="12" x2="193" y1="121.7754" y2="121.7754"/><text fill="#000000" font-family="sans-serif" font-size="13" font-weight="bold" lengthAdjust="spacing" textLength="9" x="17.5" y="117.0332">1</text><text fill="#000000" font-family="sans-serif" font-size="13" lengthAdjust="spacing" textLength="159" x="30.5" y="117.0332">ask for list of all projects</text><polygon fill="#181818" points="323,147.0859,333,151.0859,323,155.0859,327,151.0859" style="stroke:#181818;stroke-width:1.0;"/><line style="stroke:#181818;stroke-width:1.0;stroke-dasharray:2.0,2.0;" x1="209" x2="329" y1="151.0859" y2="151.0859"/><text fill="#000000" font-family="sans-serif" font-size="13" font-weight="bold" lengthAdjust="spacing" textLength="9" x="222.5" y="146.3438">2</text><text fill="#000000" font-family="sans-serif" font-size="13" lengthAdjust="spacing" textLength="86" x="235.5" y="146.3438">GET /projects</text><polygon fill="#181818" points="455,176.3965,465,180.3965,455,184.3965,459,180.3965" style="stroke:#181818;stroke-width:1.0;"/><line style="stroke:#181818;stroke-width:1.0;stroke-dasharray:2.0,2.0;" x1="345" x2="461" y1="180.3965" y2="180.3965"/><text fill="#000000" font-family="sans-serif" font-size="13" font-weight="bold" lengthAdjust="spacing" textLength="9" x="374.5" y="175.6543">3</text><text fill="#000000" font-family="sans-serif" font-size="13" lengthAdjust="spacing" textLength="50" x="387.5" y="175.6543">findAll()</text><polygon fill="#181818" points="356,205.707,346,209.707,356,213.707,352,209.707" style="stroke:#181818;stroke-width:1.0;"/><line style="stroke:#181818;stroke-width:1.0;stroke-dasharray:2.0,2.0;" x1="350" x2="471" y1="209.707" y2="209.707"/><text fill="#000000" font-family="sans-serif" font-size="13" font-weight="bold" lengthAdjust="spacing" textLength="9" x="359.5" y="204.9648">4</text><text fill="#000000" font-family="sans-serif" font-size="13" lengthAdjust="spacing" textLength="85" x="372.5" y="204.9648">listOfProjects</text><polygon fill="#181818" points="220,250.3281,210,254.3281,220,258.3281,216,254.3281" style="stroke:#181818;stroke-width:1.0;"/><line style="stroke:#181818;stroke-width:1.0;stroke-dasharray:2.0,2.0;" x1="214" x2="339" y1="254.3281" y2="254.3281"/><text fill="#000000" font-family="sans-serif" font-size="13" font-weight="bold" lengthAdjust="spacing" textLength="9" x="223.5" y="241.9307">5</text><text fill="#000000" font-family="sans-serif" font-size="13" lengthAdjust="spacing" textLength="28" x="265" y="234.2754">200,</text><text fill="#000000" font-family="sans-serif" font-size="13" lengthAdjust="spacing" textLength="85" x="240.5" y="249.5859">listOfProjects</text><ellipse cx="7.5" cy="282.8887" fill="none" rx="4" ry="4" style="stroke:#181818;stroke-width:1.5;"/><polygon fill="#181818" points="24.5,279.6387,14.5,283.6387,24.5,287.6387,20.5,283.6387" style="stroke:#181818;stroke-width:1.0;"/><line style="stroke:#181818;stroke-width:1.0;stroke-dasharray:2.0,2.0;" x1="22.5" x2="203" y1="283.6387" y2="283.6387"/><text fill="#000000" font-family="sans-serif" font-size="13" font-weight="bold" lengthAdjust="spacing" textLength="9" x="53.5" y="278.8965">6</text><text fill="#000000" font-family="sans-serif" font-size="13" lengthAdjust="spacing" textLength="92" x="66.5" y="278.8965">list of projects</text><!--SRC=[bP5DQm8n48Rl-HM39sLTAk9f4M7xPNieBVquwMMIJ6pgEjacsVht6pzHa6el8MIUP-Ob4ssi23xUUlq1v506G8PIBontuH6Mo16YWyg625XLK7ltHIe68R29Zfk592_2t7AD7XSGwBiXLlH48U2CoihE61HnFA9GHUUlKSrdtZMiRrpbF2m_RQG3A9tHAbkd1EVGtTHNCkHNbtyB3uIQ_ANQE37rQLY8WzpG6WwLuuYMoRVLe3CQJRcuz-af9zOjm026pXkhKNj1NY3SOaI9WTQ2ba9CN3vAex8CYlGq1vC2htVgpF5Q3K6UKBb1ntVlSBMloKrDoomhm5ZMPLMrEqBBhLAiMpwRbvsWAMtQ_c3wbwrh4jJlzRemvJ_WYHlckTdsMqMiJq2_]--></g></svg>