<?xml version="1.0" encoding="us-ascii" standalone="no"?><svg xmlns="http://www.w3.org/2000/svg" xmlns:xlink="http://www.w3.org/1999/xlink" contentStyleType="text/css" height="240px" preserveAspectRatio="none" style="width:399px;height:240px;background:#FFFFFF;" version="1.1" viewBox="0 0 399 240" width="399px" zoomAndPan="magnify"><defs/><g><line style="stroke:#181818;stroke-width:0.5;stroke-dasharray:5.0,5.0;" x1="29" x2="29" y1="81.2969" y2="159.5625"/><line style="stroke:#181818;stroke-width:0.5;stroke-dasharray:5.0,5.0;" x1="358.5" x2="358.5" y1="81.2969" y2="159.5625"/><text fill="#000000" font-family="sans-serif" font-size="14" lengthAdjust="spacing" textLength="43" x="5" y="77.9951">Admin</text><ellipse cx="29.5" cy="13.5" fill="#E2E2F0" rx="8" ry="8" style="stroke:#181818;stroke-width:0.5;"/><path d="M29.5,21.5 L29.5,48.5 M16.5,29.5 L42.5,29.5 M29.5,48.5 L16.5,63.5 M29.5,48.5 L42.5,63.5 " fill="none" style="stroke:#181818;stroke-width:0.5;"/><text fill="#000000" font-family="sans-serif" font-size="14" lengthAdjust="spacing" textLength="43" x="5" y="171.5576">Admin</text><ellipse cx="29.5" cy="183.3594" fill="#E2E2F0" rx="8" ry="8" style="stroke:#181818;stroke-width:0.5;"/><path d="M29.5,191.3594 L29.5,218.3594 M16.5,199.3594 L42.5,199.3594 M29.5,218.3594 L16.5,233.3594 M29.5,218.3594 L42.5,233.3594 " fill="none" style="stroke:#181818;stroke-width:0.5;"/><rect fill="#E2E2F0" height="30.2969" rx="2.5" ry="2.5" style="stroke:#181818;stroke-width:0.5;" width="70" x="323.5" y="50"/><text fill="#000000" font-family="sans-serif" font-size="14" lengthAdjust="spacing" textLength="56" x="330.5" y="69.9951">:System</text><rect fill="#E2E2F0" height="30.2969" rx="2.5" ry="2.5" style="stroke:#181818;stroke-width:0.5;" width="70" x="323.5" y="158.5625"/><text fill="#000000" font-family="sans-serif" font-size="14" lengthAdjust="spacing" textLength="56" x="330.5" y="178.5576">:System</text><polygon fill="#181818" points="346.5,108.4297,356.5,112.4297,346.5,116.4297,350.5,112.4297" style="stroke:#181818;stroke-width:1.0;"/><line style="stroke:#181818;stroke-width:1.0;" x1="29.5" x2="352.5" y1="112.4297" y2="112.4297"/><text fill="#000000" font-family="sans-serif" font-size="13" font-weight="bold" lengthAdjust="spacing" textLength="9" x="41.5" y="107.3638">1</text><text fill="#000000" font-family="sans-serif" font-size="13" lengthAdjust="spacing" textLength="292" x="54.5" y="107.3638">Associates user account into existing account</text><polygon fill="#181818" points="40.5,137.5625,30.5,141.5625,40.5,145.5625,36.5,141.5625" style="stroke:#181818;stroke-width:1.0;"/><line style="stroke:#181818;stroke-width:1.0;stroke-dasharray:2.0,2.0;" x1="34.5" x2="357.5" y1="141.5625" y2="141.5625"/><text fill="#000000" font-family="sans-serif" font-size="13" font-weight="bold" lengthAdjust="spacing" textLength="9" x="121" y="136.4966">2</text><text fill="#000000" font-family="sans-serif" font-size="13" lengthAdjust="spacing" textLength="133" x="134" y="136.4966">Confirms association</text><!--SRC=[DOqn3i9030Hxly9Adm-aG8gegNY1CIQouEnmzadm-vmIw5QhdTbuggrKgM38kucnN2I25fbVkXYoM4e5QkdMogr784wlED-B6dGobNKbInocwpTIoe0KU4I0VORZwLTCE4SuAwK4jf2AnEojqshfA1-DL5l-BHmKZbsmcoOykpsqbkWdXqZT03O0]--></g></svg>