<?xml version="1.0" encoding="us-ascii" standalone="no"?><svg xmlns="http://www.w3.org/2000/svg" xmlns:xlink="http://www.w3.org/1999/xlink" contentStyleType="text/css" height="2300px" preserveAspectRatio="none" style="width:975px;height:2300px;background:#FFFFFF;" version="1.1" viewBox="0 0 975 2300" width="975px" zoomAndPan="magnify"><defs/><g><text fill="#000000" font-family="sans-serif" font-size="14" font-weight="bold" lengthAdjust="spacing" textLength="947" x="10" y="22.9951">US021 -  As Team Member, I want to estimate the effort of a user story in a sprint, during the sprint planning ceremony</text><!--class UserStory--><g id="elem_UserStory"><rect codeLine="4" fill="#F1F1F1" height="308.75" id="UserStory" rx="2.5" ry="2.5" style="stroke:#181818;stroke-width:0.5;" width="397" x="377" y="1696.2969"/><ellipse cx="537.75" cy="1712.2969" fill="#ADD1B2" rx="11" ry="11" style="stroke:#181818;stroke-width:1.0;"/><path d="M540.7188,1717.9375 Q540.1406,1718.2344 539.5,1718.375 Q538.8594,1718.5313 538.1563,1718.5313 Q535.6563,1718.5313 534.3281,1716.8906 Q533.0156,1715.2344 533.0156,1712.1094 Q533.0156,1708.9844 534.3281,1707.3281 Q535.6563,1705.6719 538.1563,1705.6719 Q538.8594,1705.6719 539.5,1705.8281 Q540.1563,1705.9844 540.7188,1706.2813 L540.7188,1709 Q540.0938,1708.4219 539.5,1708.1563 Q538.9063,1707.875 538.2813,1707.875 Q536.9375,1707.875 536.25,1708.9531 Q535.5625,1710.0156 535.5625,1712.1094 Q535.5625,1714.2031 536.25,1715.2813 Q536.9375,1716.3438 538.2813,1716.3438 Q538.9063,1716.3438 539.5,1716.0781 Q540.0938,1715.7969 540.7188,1715.2188 L540.7188,1717.9375 Z " fill="#000000"/><text fill="#000000" font-family="sans-serif" font-size="14" lengthAdjust="spacing" textLength="67" x="558.25" y="1717.1436">UserStory</text><line style="stroke:#181818;stroke-width:0.5;" x1="378" x2="773" y1="1728.2969" y2="1728.2969"/><rect fill="none" height="6" style="stroke:#C82930;stroke-width:1.0;" width="6" x="385" y="1738.9453"/><text fill="#000000" font-family="sans-serif" font-size="14" lengthAdjust="spacing" textLength="239" x="397" y="1745.292">userStoryCode : String {readOnly}</text><rect fill="none" height="6" style="stroke:#C82930;stroke-width:1.0;" width="6" x="385" y="1755.2422"/><text fill="#000000" font-family="sans-serif" font-size="14" lengthAdjust="spacing" textLength="213" x="397" y="1761.5889">description : String {readOnly}</text><rect fill="none" height="6" style="stroke:#C82930;stroke-width:1.0;" width="6" x="385" y="1771.5391"/><text fill="#000000" font-family="sans-serif" font-size="14" lengthAdjust="spacing" textLength="182" x="397" y="1777.8857">acceptanceCriteria : String</text><rect fill="none" height="6" style="stroke:#C82930;stroke-width:1.0;" width="6" x="385" y="1787.8359"/><text fill="#000000" font-family="sans-serif" font-size="14" lengthAdjust="spacing" textLength="100" x="397" y="1794.1826">status : Status</text><rect fill="none" height="6" style="stroke:#C82930;stroke-width:1.0;" width="6" x="385" y="1804.1328"/><text fill="#000000" font-family="sans-serif" font-size="14" lengthAdjust="spacing" textLength="85" x="397" y="1810.4795">effort : Effort</text><rect fill="none" height="6" style="stroke:#C82930;stroke-width:1.0;" width="6" x="385" y="1820.4297"/><text fill="#000000" font-family="sans-serif" font-size="14" lengthAdjust="spacing" textLength="257" x="397" y="1826.7764">isAssignedToSprintBacklog : boolean</text><line style="stroke:#181818;stroke-width:0.5;" x1="378" x2="773" y1="1834.0781" y2="1834.0781"/><polygon fill="#FFFF44" points="388,1842.7266,392,1846.7266,388,1850.7266,384,1846.7266" style="stroke:#B38D22;stroke-width:1.0;"/><text fill="#000000" font-family="sans-serif" font-size="14" lengthAdjust="spacing" textLength="371" x="397" y="1851.0732">UserStory(userStoryCode : String, description : String)</text><ellipse cx="388" cy="1864.0234" fill="#84BE84" rx="3" ry="3" style="stroke:#038048;stroke-width:1.0;"/><text fill="#000000" font-family="sans-serif" font-size="14" lengthAdjust="spacing" textLength="123" x="397" y="1867.3701">getCode() : String</text><ellipse cx="388" cy="1880.3203" fill="#84BE84" rx="3" ry="3" style="stroke:#038048;stroke-width:1.0;"/><text fill="#000000" font-family="sans-serif" font-size="14" lengthAdjust="spacing" textLength="165" x="397" y="1883.667">getDescription() : String</text><ellipse cx="388" cy="1896.6172" fill="#84BE84" rx="3" ry="3" style="stroke:#038048;stroke-width:1.0;"/><text fill="#000000" font-family="sans-serif" font-size="14" lengthAdjust="spacing" textLength="130" x="397" y="1899.9639">getStatus() : String</text><ellipse cx="388" cy="1912.9141" fill="#84BE84" rx="3" ry="3" style="stroke:#038048;stroke-width:1.0;"/><text fill="#000000" font-family="sans-serif" font-size="14" lengthAdjust="spacing" textLength="248" x="397" y="1916.2607">hasStatus(status : Status) : boolean</text><ellipse cx="388" cy="1929.2109" fill="#84BE84" rx="3" ry="3" style="stroke:#038048;stroke-width:1.0;"/><text fill="#000000" font-family="sans-serif" font-size="14" lengthAdjust="spacing" textLength="364" x="397" y="1932.5576">hasUserStoryCode(userStoryCode : String) : boolean</text><ellipse cx="388" cy="1945.5078" fill="#84BE84" rx="3" ry="3" style="stroke:#038048;stroke-width:1.0;"/><text fill="#000000" font-family="sans-serif" font-size="14" lengthAdjust="spacing" textLength="226" x="397" y="1948.8545">equals(object : Object) : boolean</text><ellipse cx="388" cy="1961.8047" fill="#84BE84" rx="3" ry="3" style="stroke:#038048;stroke-width:1.0;"/><text fill="#000000" font-family="sans-serif" font-size="14" lengthAdjust="spacing" textLength="111" x="397" y="1965.1514">hashCode() : int</text><ellipse cx="388" cy="1978.1016" fill="#84BE84" rx="3" ry="3" style="stroke:#038048;stroke-width:1.0;"/><text fill="#000000" font-family="sans-serif" font-size="14" lengthAdjust="spacing" textLength="267" x="397" y="1981.4482">isAssignedToSprintBacklog() : boolean</text><ellipse cx="388" cy="1994.3984" fill="#84BE84" rx="3" ry="3" style="stroke:#038048;stroke-width:1.0;"/><text fill="#000000" font-family="sans-serif" font-size="14" lengthAdjust="spacing" textLength="209" x="397" y="1997.7451">setAssignedToSprintBacklog()</text></g><!--class EstimateEffortController--><g id="elem_EstimateEffortController"><rect codeLine="4" fill="#F1F1F1" height="96.8906" id="EstimateEffortController" rx="2.5" ry="2.5" style="stroke:#181818;stroke-width:0.5;" width="680" x="234.5" y="44.2969"/><ellipse cx="488.75" cy="60.2969" fill="#ADD1B2" rx="11" ry="11" style="stroke:#181818;stroke-width:1.0;"/><path d="M491.7188,65.9375 Q491.1406,66.2344 490.5,66.375 Q489.8594,66.5313 489.1563,66.5313 Q486.6563,66.5313 485.3281,64.8906 Q484.0156,63.2344 484.0156,60.1094 Q484.0156,56.9844 485.3281,55.3281 Q486.6563,53.6719 489.1563,53.6719 Q489.8594,53.6719 490.5,53.8281 Q491.1563,53.9844 491.7188,54.2813 L491.7188,57 Q491.0938,56.4219 490.5,56.1563 Q489.9063,55.875 489.2813,55.875 Q487.9375,55.875 487.25,56.9531 Q486.5625,58.0156 486.5625,60.1094 Q486.5625,62.2031 487.25,63.2813 Q487.9375,64.3438 489.2813,64.3438 Q489.9063,64.3438 490.5,64.0781 Q491.0938,63.7969 491.7188,63.2188 L491.7188,65.9375 Z " fill="#000000"/><text fill="#000000" font-family="sans-serif" font-size="14" lengthAdjust="spacing" textLength="163" x="509.25" y="65.1436">EstimateEffortController</text><line style="stroke:#181818;stroke-width:0.5;" x1="235.5" x2="913.5" y1="76.2969" y2="76.2969"/><rect fill="none" height="6" style="stroke:#C82930;stroke-width:1.0;" width="6" x="242.5" y="86.9453"/><text fill="#000000" font-family="sans-serif" font-size="14" lengthAdjust="spacing" textLength="244" x="254.5" y="93.292">containers : Containers {readOnly}</text><line style="stroke:#181818;stroke-width:0.5;" x1="235.5" x2="913.5" y1="100.5938" y2="100.5938"/><ellipse cx="245.5" cy="114.2422" fill="#84BE84" rx="3" ry="3" style="stroke:#038048;stroke-width:1.0;"/><text fill="#000000" font-family="sans-serif" font-size="14" lengthAdjust="spacing" textLength="334" x="254.5" y="117.5889">EstimateEffortController(containers : Containers)</text><ellipse cx="245.5" cy="130.5391" fill="#84BE84" rx="3" ry="3" style="stroke:#038048;stroke-width:1.0;"/><text fill="#000000" font-family="sans-serif" font-size="14" lengthAdjust="spacing" textLength="654" x="254.5" y="133.8857">estimateEffort(projectCode : String ,USER_STORY_CODE :  String, effortValue :  Effort) : boolean</text></g><!--class Project--><g id="elem_Project"><rect codeLine="4" fill="#F1F1F1" height="488.0156" id="Project" rx="2.5" ry="2.5" style="stroke:#181818;stroke-width:0.5;" width="599" x="94" y="908.2969"/><ellipse cx="365.25" cy="924.2969" fill="#ADD1B2" rx="11" ry="11" style="stroke:#181818;stroke-width:1.0;"/><path d="M368.2188,929.9375 Q367.6406,930.2344 367,930.375 Q366.3594,930.5313 365.6563,930.5313 Q363.1563,930.5313 361.8281,928.8906 Q360.5156,927.2344 360.5156,924.1094 Q360.5156,920.9844 361.8281,919.3281 Q363.1563,917.6719 365.6563,917.6719 Q366.3594,917.6719 367,917.8281 Q367.6563,917.9844 368.2188,918.2813 L368.2188,921 Q367.5938,920.4219 367,920.1563 Q366.4063,919.875 365.7813,919.875 Q364.4375,919.875 363.75,920.9531 Q363.0625,922.0156 363.0625,924.1094 Q363.0625,926.2031 363.75,927.2813 Q364.4375,928.3438 365.7813,928.3438 Q366.4063,928.3438 367,928.0781 Q367.5938,927.7969 368.2188,927.2188 L368.2188,929.9375 Z " fill="#000000"/><text fill="#000000" font-family="sans-serif" font-size="14" lengthAdjust="spacing" textLength="48" x="385.75" y="929.1436">Project</text><line style="stroke:#181818;stroke-width:0.5;" x1="95" x2="692" y1="940.2969" y2="940.2969"/><rect fill="none" height="6" style="stroke:#C82930;stroke-width:1.0;" width="6" x="102" y="950.9453"/><text fill="#000000" font-family="sans-serif" font-size="14" lengthAdjust="spacing" textLength="221" x="114" y="957.292">projectCode : String {readOnly}</text><rect fill="none" height="6" style="stroke:#C82930;stroke-width:1.0;" width="6" x="102" y="967.2422"/><text fill="#000000" font-family="sans-serif" font-size="14" lengthAdjust="spacing" textLength="224" x="114" y="973.5889">projectName : String {readOnly}</text><rect fill="none" height="6" style="stroke:#C82930;stroke-width:1.0;" width="6" x="102" y="983.5391"/><text fill="#000000" font-family="sans-serif" font-size="14" lengthAdjust="spacing" textLength="263" x="114" y="989.8857">projectDescription : String {readOnly}</text><rect fill="none" height="6" style="stroke:#C82930;stroke-width:1.0;" width="6" x="102" y="999.8359"/><text fill="#000000" font-family="sans-serif" font-size="14" lengthAdjust="spacing" textLength="230" x="114" y="1006.1826">customer : Customer {readOnly}</text><rect fill="none" height="6" style="stroke:#C82930;stroke-width:1.0;" width="6" x="102" y="1016.1328"/><text fill="#000000" font-family="sans-serif" font-size="14" lengthAdjust="spacing" textLength="316" x="114" y="1022.4795">projectTypology : ProjectTypology {readOnly}</text><rect fill="none" height="6" style="stroke:#C82930;stroke-width:1.0;" width="6" x="102" y="1032.4297"/><text fill="#000000" font-family="sans-serif" font-size="14" lengthAdjust="spacing" textLength="313" x="114" y="1038.7764">businessSector : BusinessSector {readOnly}</text><rect fill="none" height="6" style="stroke:#C82930;stroke-width:1.0;" width="6" x="102" y="1048.7266"/><text fill="#000000" font-family="sans-serif" font-size="14" lengthAdjust="spacing" textLength="145" x="114" y="1055.0732">startDate : LocalDate</text><rect fill="none" height="6" style="stroke:#C82930;stroke-width:1.0;" width="6" x="102" y="1065.0234"/><text fill="#000000" font-family="sans-serif" font-size="14" lengthAdjust="spacing" textLength="141" x="114" y="1071.3701">endDate : LocalDate</text><rect fill="none" height="6" style="stroke:#C82930;stroke-width:1.0;" width="6" x="102" y="1081.3203"/><text fill="#000000" font-family="sans-serif" font-size="14" lengthAdjust="spacing" textLength="280" x="114" y="1087.667">projectStatus : ProjectStatus {readOnly}</text><rect fill="none" height="6" style="stroke:#C82930;stroke-width:1.0;" width="6" x="102" y="1097.6172"/><text fill="#000000" font-family="sans-serif" font-size="14" lengthAdjust="spacing" textLength="231" x="114" y="1103.9639">productBacklog : ProductBacklog</text><rect fill="none" height="6" style="stroke:#C82930;stroke-width:1.0;" width="6" x="102" y="1113.9141"/><text fill="#000000" font-family="sans-serif" font-size="14" lengthAdjust="spacing" textLength="138" x="114" y="1120.2607">sprintList : SprintList</text><rect fill="none" height="6" style="stroke:#C82930;stroke-width:1.0;" width="6" x="102" y="1130.2109"/><text fill="#000000" font-family="sans-serif" font-size="14" lengthAdjust="spacing" textLength="230" x="114" y="1136.5576">sprintDuration : TemporalAmount</text><line style="stroke:#181818;stroke-width:0.5;" x1="95" x2="692" y1="1143.8594" y2="1143.8594"/><ellipse cx="105" cy="1173.8047" fill="#84BE84" rx="3" ry="3" style="stroke:#038048;stroke-width:1.0;"/><text fill="#000000" font-family="sans-serif" font-size="14" lengthAdjust="spacing" textLength="528" x="114" y="1160.8545">Project(businessSector : BusinessSector, projectTypology : ProjectTypology,</text><text fill="#000000" font-family="sans-serif" font-size="14" lengthAdjust="spacing" textLength="502" x="114" y="1177.1514">customer : Customer, projectStatus : ProjectStatus, projectCode : String,</text><text fill="#000000" font-family="sans-serif" font-size="14" lengthAdjust="spacing" textLength="573" x="114" y="1193.4482">projectName : String, projectDescription : String, productBacklog : ProductBacklog)</text><ellipse cx="105" cy="1206.3984" fill="#84BE84" rx="3" ry="3" style="stroke:#038048;stroke-width:1.0;"/><text fill="#000000" font-family="sans-serif" font-size="14" lengthAdjust="spacing" textLength="327" x="114" y="1209.7451">hasProjectCode(projectCode : String) : boolean</text><ellipse cx="105" cy="1222.6953" fill="#84BE84" rx="3" ry="3" style="stroke:#038048;stroke-width:1.0;"/><text fill="#000000" font-family="sans-serif" font-size="14" lengthAdjust="spacing" textLength="171" x="114" y="1226.042">getProjectCode() : String</text><ellipse cx="105" cy="1238.9922" fill="#84BE84" rx="3" ry="3" style="stroke:#038048;stroke-width:1.0;"/><text fill="#000000" font-family="sans-serif" font-size="14" lengthAdjust="spacing" textLength="126" x="114" y="1242.3389">getName() : String</text><ellipse cx="105" cy="1255.2891" fill="#84BE84" rx="3" ry="3" style="stroke:#038048;stroke-width:1.0;"/><text fill="#000000" font-family="sans-serif" font-size="14" lengthAdjust="spacing" textLength="165" x="114" y="1258.6357">getDescription() : String</text><ellipse cx="105" cy="1271.5859" fill="#84BE84" rx="3" ry="3" style="stroke:#038048;stroke-width:1.0;"/><text fill="#000000" font-family="sans-serif" font-size="14" lengthAdjust="spacing" textLength="182" x="114" y="1274.9326">getCustomer() : Customer</text><ellipse cx="105" cy="1287.8828" fill="#84BE84" rx="3" ry="3" style="stroke:#038048;stroke-width:1.0;"/><text fill="#000000" font-family="sans-serif" font-size="14" lengthAdjust="spacing" textLength="230" x="114" y="1291.2295">getProjectStatus() : ProjectStatus</text><ellipse cx="105" cy="1304.1797" fill="#84BE84" rx="3" ry="3" style="stroke:#038048;stroke-width:1.0;"/><text fill="#000000" font-family="sans-serif" font-size="14" lengthAdjust="spacing" textLength="264" x="114" y="1307.5264">getProductBacklog() : ProductBacklog</text><ellipse cx="105" cy="1320.4766" fill="#84BE84" rx="3" ry="3" style="stroke:#038048;stroke-width:1.0;"/><text fill="#000000" font-family="sans-serif" font-size="14" lengthAdjust="spacing" textLength="172" x="114" y="1323.8232">getSprintList() : SprintList</text><ellipse cx="105" cy="1336.7734" fill="#84BE84" rx="3" ry="3" style="stroke:#038048;stroke-width:1.0;"/><text fill="#000000" font-family="sans-serif" font-size="14" lengthAdjust="spacing" textLength="264" x="114" y="1340.1201">getSprintDuration() : TemporalAmount</text><ellipse cx="105" cy="1353.0703" fill="#84BE84" rx="3" ry="3" style="stroke:#038048;stroke-width:1.0;"/><text fill="#000000" font-family="sans-serif" font-size="14" lengthAdjust="spacing" textLength="484" x="114" y="1356.417">createUserStory(userStoryCode : String, description : String) : boolean</text><ellipse cx="105" cy="1369.3672" fill="#84BE84" rx="3" ry="3" style="stroke:#038048;stroke-width:1.0;"/><text fill="#000000" font-family="sans-serif" font-size="14" lengthAdjust="spacing" textLength="226" x="114" y="1372.7139">equals(object : Object) : boolean</text><ellipse cx="105" cy="1385.6641" fill="#84BE84" rx="3" ry="3" style="stroke:#038048;stroke-width:1.0;"/><text fill="#000000" font-family="sans-serif" font-size="14" lengthAdjust="spacing" textLength="111" x="114" y="1389.0107">hashCode() : int</text></g><!--class Containers--><g id="elem_Containers"><rect codeLine="4" fill="#F1F1F1" height="341.3438" id="Containers" rx="2.5" ry="2.5" style="stroke:#181818;stroke-width:0.5;" width="476" x="118.5" y="218.2969"/><ellipse cx="314.75" cy="234.2969" fill="#ADD1B2" rx="11" ry="11" style="stroke:#181818;stroke-width:1.0;"/><path d="M317.7188,239.9375 Q317.1406,240.2344 316.5,240.375 Q315.8594,240.5313 315.1563,240.5313 Q312.6563,240.5313 311.3281,238.8906 Q310.0156,237.2344 310.0156,234.1094 Q310.0156,230.9844 311.3281,229.3281 Q312.6563,227.6719 315.1563,227.6719 Q315.8594,227.6719 316.5,227.8281 Q317.1563,227.9844 317.7188,228.2813 L317.7188,231 Q317.0938,230.4219 316.5,230.1563 Q315.9063,229.875 315.2813,229.875 Q313.9375,229.875 313.25,230.9531 Q312.5625,232.0156 312.5625,234.1094 Q312.5625,236.2031 313.25,237.2813 Q313.9375,238.3438 315.2813,238.3438 Q315.9063,238.3438 316.5,238.0781 Q317.0938,237.7969 317.7188,237.2188 L317.7188,239.9375 Z " fill="#000000"/><text fill="#000000" font-family="sans-serif" font-size="14" lengthAdjust="spacing" textLength="75" x="335.25" y="239.1436">Containers</text><line style="stroke:#181818;stroke-width:0.5;" x1="119.5" x2="593.5" y1="250.2969" y2="250.2969"/><rect fill="none" height="6" style="stroke:#C82930;stroke-width:1.0;" width="6" x="126.5" y="260.9453"/><text fill="#000000" font-family="sans-serif" font-size="14" lengthAdjust="spacing" textLength="343" x="138.5" y="267.292">accountContainer : AccountContainer {readOnly}</text><rect fill="none" height="6" style="stroke:#C82930;stroke-width:1.0;" width="6" x="126.5" y="277.2422"/><text fill="#000000" font-family="sans-serif" font-size="14" lengthAdjust="spacing" textLength="447" x="138.5" y="283.5889">businessSectorContainer : BusinessSectorContainer {readOnly}</text><rect fill="none" height="6" style="stroke:#C82930;stroke-width:1.0;" width="6" x="126.5" y="293.5391"/><text fill="#000000" font-family="sans-serif" font-size="14" lengthAdjust="spacing" textLength="364" x="138.5" y="299.8857">customerContainer : CustomerContainer {readOnly}</text><rect fill="none" height="6" style="stroke:#C82930;stroke-width:1.0;" width="6" x="126.5" y="309.8359"/><text fill="#000000" font-family="sans-serif" font-size="14" lengthAdjust="spacing" textLength="314" x="138.5" y="316.1826">profileContainer : ProfileContainer {readOnly}</text><rect fill="none" height="6" style="stroke:#C82930;stroke-width:1.0;" width="6" x="126.5" y="326.1328"/><text fill="#000000" font-family="sans-serif" font-size="14" lengthAdjust="spacing" textLength="326" x="138.5" y="332.4795">projectContainer : ProjectContainer {readOnly}</text><rect fill="none" height="6" style="stroke:#C82930;stroke-width:1.0;" width="6" x="126.5" y="342.4297"/><text fill="#000000" font-family="sans-serif" font-size="14" lengthAdjust="spacing" textLength="359" x="138.5" y="348.7764">resourceContainer : ResourceContainer {readOnly}</text><rect fill="none" height="6" style="stroke:#C82930;stroke-width:1.0;" width="6" x="126.5" y="358.7266"/><text fill="#000000" font-family="sans-serif" font-size="14" lengthAdjust="spacing" textLength="450" x="138.5" y="365.0732">projectTypologyContainer : ProjectTypologyContainer {readOnly}</text><rect fill="none" height="6" style="stroke:#C82930;stroke-width:1.0;" width="6" x="126.5" y="375.0234"/><text fill="#000000" font-family="sans-serif" font-size="14" lengthAdjust="spacing" textLength="388" x="138.5" y="381.3701">projectRoleContainer : ProjectRoleContainer {readOnly}</text><rect fill="none" height="6" style="stroke:#C82930;stroke-width:1.0;" width="6" x="126.5" y="391.3203"/><text fill="#000000" font-family="sans-serif" font-size="14" lengthAdjust="spacing" textLength="414" x="138.5" y="397.667">projectStatusContainer : ProjectStatusContainer {readOnly}</text><line style="stroke:#181818;stroke-width:0.5;" x1="119.5" x2="593.5" y1="404.9688" y2="404.9688"/><ellipse cx="129.5" cy="418.6172" fill="#84BE84" rx="3" ry="3" style="stroke:#038048;stroke-width:1.0;"/><text fill="#000000" font-family="sans-serif" font-size="14" lengthAdjust="spacing" textLength="294" x="138.5" y="421.9639">getAccountContainer() : AccountContainer</text><ellipse cx="129.5" cy="434.9141" fill="#84BE84" rx="3" ry="3" style="stroke:#038048;stroke-width:1.0;"/><text fill="#000000" font-family="sans-serif" font-size="14" lengthAdjust="spacing" textLength="398" x="138.5" y="438.2607">getBusinessSectorContainer() : BusinessSectorContainer</text><ellipse cx="129.5" cy="451.2109" fill="#84BE84" rx="3" ry="3" style="stroke:#038048;stroke-width:1.0;"/><text fill="#000000" font-family="sans-serif" font-size="14" lengthAdjust="spacing" textLength="316" x="138.5" y="454.5576">getCustomerContainer() : CustomerContainer</text><ellipse cx="129.5" cy="467.5078" fill="#84BE84" rx="3" ry="3" style="stroke:#038048;stroke-width:1.0;"/><text fill="#000000" font-family="sans-serif" font-size="14" lengthAdjust="spacing" textLength="264" x="138.5" y="470.8545">getProfileContainer() : ProfileContainer</text><ellipse cx="129.5" cy="483.8047" fill="#84BE84" rx="3" ry="3" style="stroke:#038048;stroke-width:1.0;"/><text fill="#000000" font-family="sans-serif" font-size="14" lengthAdjust="spacing" textLength="276" x="138.5" y="487.1514">getProjectContainer() : ProjectContainer</text><ellipse cx="129.5" cy="500.1016" fill="#84BE84" rx="3" ry="3" style="stroke:#038048;stroke-width:1.0;"/><text fill="#000000" font-family="sans-serif" font-size="14" lengthAdjust="spacing" textLength="314" x="138.5" y="503.4482">getResourceContainer() : ResourceContainer</text><ellipse cx="129.5" cy="516.3984" fill="#84BE84" rx="3" ry="3" style="stroke:#038048;stroke-width:1.0;"/><text fill="#000000" font-family="sans-serif" font-size="14" lengthAdjust="spacing" textLength="400" x="138.5" y="519.7451">getProjectTypologyContainer() : ProjectTypologyContainer</text><ellipse cx="129.5" cy="532.6953" fill="#84BE84" rx="3" ry="3" style="stroke:#038048;stroke-width:1.0;"/><text fill="#000000" font-family="sans-serif" font-size="14" lengthAdjust="spacing" textLength="290" x="138.5" y="536.042">getRoleContainer() : ProjectRoleContainer</text><ellipse cx="129.5" cy="548.9922" fill="#84BE84" rx="3" ry="3" style="stroke:#038048;stroke-width:1.0;"/><text fill="#000000" font-family="sans-serif" font-size="14" lengthAdjust="spacing" textLength="364" x="138.5" y="552.3389">getProjectStatusContainer() : ProjectStatusContainer</text></g><!--class ProjectContainer--><g id="elem_ProjectContainer"><rect codeLine="4" fill="#F1F1F1" height="194.6719" id="ProjectContainer" rx="2.5" ry="2.5" style="stroke:#181818;stroke-width:0.5;" width="621" x="83" y="636.2969"/><ellipse cx="331.75" cy="652.2969" fill="#ADD1B2" rx="11" ry="11" style="stroke:#181818;stroke-width:1.0;"/><path d="M334.7188,657.9375 Q334.1406,658.2344 333.5,658.375 Q332.8594,658.5313 332.1563,658.5313 Q329.6563,658.5313 328.3281,656.8906 Q327.0156,655.2344 327.0156,652.1094 Q327.0156,648.9844 328.3281,647.3281 Q329.6563,645.6719 332.1563,645.6719 Q332.8594,645.6719 333.5,645.8281 Q334.1563,645.9844 334.7188,646.2813 L334.7188,649 Q334.0938,648.4219 333.5,648.1563 Q332.9063,647.875 332.2813,647.875 Q330.9375,647.875 330.25,648.9531 Q329.5625,650.0156 329.5625,652.1094 Q329.5625,654.2031 330.25,655.2813 Q330.9375,656.3438 332.2813,656.3438 Q332.9063,656.3438 333.5,656.0781 Q334.0938,655.7969 334.7188,655.2188 L334.7188,657.9375 Z " fill="#000000"/><text fill="#000000" font-family="sans-serif" font-size="14" lengthAdjust="spacing" textLength="115" x="352.25" y="657.1436">ProjectContainer</text><line style="stroke:#181818;stroke-width:0.5;" x1="84" x2="703" y1="668.2969" y2="668.2969"/><rect fill="none" height="6" style="stroke:#C82930;stroke-width:1.0;" width="6" x="91" y="678.9453"/><text fill="#000000" font-family="sans-serif" font-size="14" lengthAdjust="spacing" textLength="253" x="103" y="685.292">projectList : Project [1..*] {readOnly}</text><line style="stroke:#181818;stroke-width:0.5;" x1="84" x2="703" y1="692.5938" y2="692.5938"/><ellipse cx="94" cy="722.5391" fill="#84BE84" rx="3" ry="3" style="stroke:#038048;stroke-width:1.0;"/><text fill="#000000" font-family="sans-serif" font-size="14" lengthAdjust="spacing" textLength="572" x="103" y="709.5889">createProject(businessSector : BusinessSector, projectTypology : ProjectTypology,</text><text fill="#000000" font-family="sans-serif" font-size="14" lengthAdjust="spacing" textLength="502" x="103" y="725.8857">customer : Customer, projectStatus : ProjectStatus, projectCode : String,</text><text fill="#000000" font-family="sans-serif" font-size="14" lengthAdjust="spacing" textLength="403" x="103" y="742.1826">projectName : String, projectDescription : String) : boolean</text><rect fill="#F24D5C" height="6" style="stroke:#C82930;stroke-width:1.0;" width="6" x="91" y="752.1328"/><text fill="#000000" font-family="sans-serif" font-size="14" lengthAdjust="spacing" textLength="193" x="103" y="758.4795">addProject(project : Project)</text><ellipse cx="94" cy="771.4297" fill="#84BE84" rx="3" ry="3" style="stroke:#038048;stroke-width:1.0;"/><text fill="#000000" font-family="sans-serif" font-size="14" lengthAdjust="spacing" textLength="280" x="103" y="774.7764">getProject(projectCode : String) : Project</text><ellipse cx="94" cy="787.7266" fill="#84BE84" rx="3" ry="3" style="stroke:#038048;stroke-width:1.0;"/><text fill="#000000" font-family="sans-serif" font-size="14" lengthAdjust="spacing" textLength="404" x="103" y="791.0732">getMaybeProject(projectCode : String) : Project {Optional}</text><ellipse cx="94" cy="804.0234" fill="#84BE84" rx="3" ry="3" style="stroke:#038048;stroke-width:1.0;"/><text fill="#000000" font-family="sans-serif" font-size="14" lengthAdjust="spacing" textLength="144" x="103" y="807.3701">getIterator() : Iterator</text><ellipse cx="94" cy="820.3203" fill="#84BE84" rx="3" ry="3" style="stroke:#038048;stroke-width:1.0;"/><text fill="#000000" font-family="sans-serif" font-size="14" lengthAdjust="spacing" textLength="595" x="103" y="823.667">getUserStoryFromProductBacklog(projectCode : String, usNumber : String) : UserStory</text></g><!--class Effort--><g id="elem_Effort"><rect codeLine="4" fill="#F1F1F1" height="210.9688" id="Effort" rx="2.5" ry="2.5" style="stroke:#181818;stroke-width:0.5;" width="138" x="506.5" y="2082.2969"/><ellipse cx="553.25" cy="2098.2969" fill="#EB937F" rx="11" ry="11" style="stroke:#181818;stroke-width:1.0;"/><path d="M557.3594,2104.2969 L549.6406,2104.2969 L549.6406,2091.9063 L557.3594,2091.9063 L557.3594,2094.0625 L552.0938,2094.0625 L552.0938,2096.7344 L556.8594,2096.7344 L556.8594,2098.8906 L552.0938,2098.8906 L552.0938,2102.1406 L557.3594,2102.1406 L557.3594,2104.2969 Z " fill="#000000"/><text fill="#000000" font-family="sans-serif" font-size="14" lengthAdjust="spacing" textLength="36" x="573.75" y="2103.1436">Effort</text><line style="stroke:#181818;stroke-width:0.5;" x1="507.5" x2="643.5" y1="2114.2969" y2="2114.2969"/><text fill="#000000" font-family="sans-serif" font-size="14" lengthAdjust="spacing" textLength="33" x="512.5" y="2131.292">One,</text><text fill="#000000" font-family="sans-serif" font-size="14" lengthAdjust="spacing" textLength="33" x="512.5" y="2147.5889">Two,</text><text fill="#000000" font-family="sans-serif" font-size="14" lengthAdjust="spacing" textLength="45" x="512.5" y="2163.8857">Three,</text><text fill="#000000" font-family="sans-serif" font-size="14" lengthAdjust="spacing" textLength="31" x="512.5" y="2180.1826">Five,</text><text fill="#000000" font-family="sans-serif" font-size="14" lengthAdjust="spacing" textLength="39" x="512.5" y="2196.4795">Eight,</text><text fill="#000000" font-family="sans-serif" font-size="14" lengthAdjust="spacing" textLength="62" x="512.5" y="2212.7764">Thirteen,</text><text fill="#000000" font-family="sans-serif" font-size="14" lengthAdjust="spacing" textLength="54" x="512.5" y="2229.0732">Twenty,</text><text fill="#000000" font-family="sans-serif" font-size="14" lengthAdjust="spacing" textLength="34" x="512.5" y="2245.3701">Forty</text><line style="stroke:#181818;stroke-width:0.5;" x1="507.5" x2="643.5" y1="2252.6719" y2="2252.6719"/><ellipse cx="517.5" cy="2266.3203" fill="#84BE84" rx="3" ry="3" style="stroke:#038048;stroke-width:1.0;"/><text fill="#000000" font-family="sans-serif" font-size="14" lengthAdjust="spacing" textLength="112" x="526.5" y="2269.667">Effort(value : int)</text><ellipse cx="517.5" cy="2282.6172" fill="#84BE84" rx="3" ry="3" style="stroke:#038048;stroke-width:1.0;"/><text fill="#000000" font-family="sans-serif" font-size="14" lengthAdjust="spacing" textLength="101" x="526.5" y="2285.9639">getValue() : int</text></g><!--class ProductBacklog--><g id="elem_ProductBacklog"><rect codeLine="4" fill="#F1F1F1" height="162.0781" id="ProductBacklog" rx="2.5" ry="2.5" style="stroke:#181818;stroke-width:0.5;" width="510" x="320.5" y="1473.2969"/><ellipse cx="516.75" cy="1489.2969" fill="#ADD1B2" rx="11" ry="11" style="stroke:#181818;stroke-width:1.0;"/><path d="M519.7188,1494.9375 Q519.1406,1495.2344 518.5,1495.375 Q517.8594,1495.5313 517.1563,1495.5313 Q514.6563,1495.5313 513.3281,1493.8906 Q512.0156,1492.2344 512.0156,1489.1094 Q512.0156,1485.9844 513.3281,1484.3281 Q514.6563,1482.6719 517.1563,1482.6719 Q517.8594,1482.6719 518.5,1482.8281 Q519.1563,1482.9844 519.7188,1483.2813 L519.7188,1486 Q519.0938,1485.4219 518.5,1485.1563 Q517.9063,1484.875 517.2813,1484.875 Q515.9375,1484.875 515.25,1485.9531 Q514.5625,1487.0156 514.5625,1489.1094 Q514.5625,1491.2031 515.25,1492.2813 Q515.9375,1493.3438 517.2813,1493.3438 Q517.9063,1493.3438 518.5,1493.0781 Q519.0938,1492.7969 519.7188,1492.2188 L519.7188,1494.9375 Z " fill="#000000"/><text fill="#000000" font-family="sans-serif" font-size="14" lengthAdjust="spacing" textLength="109" x="537.25" y="1494.1436">ProductBacklog</text><line style="stroke:#181818;stroke-width:0.5;" x1="321.5" x2="829.5" y1="1505.2969" y2="1505.2969"/><rect fill="none" height="6" style="stroke:#C82930;stroke-width:1.0;" width="6" x="328.5" y="1515.9453"/><text fill="#000000" font-family="sans-serif" font-size="14" lengthAdjust="spacing" textLength="326" x="340.5" y="1522.292">factoryUserStory : FactoryUserStory {readOnly}</text><rect fill="none" height="6" style="stroke:#C82930;stroke-width:1.0;" width="6" x="328.5" y="1532.2422"/><text fill="#000000" font-family="sans-serif" font-size="14" lengthAdjust="spacing" textLength="290" x="340.5" y="1538.5889">userStoryList : UserStory [1..*] {readOnly}</text><line style="stroke:#181818;stroke-width:0.5;" x1="321.5" x2="829.5" y1="1545.8906" y2="1545.8906"/><polygon fill="#FFFF44" points="331.5,1554.5391,335.5,1558.5391,331.5,1562.5391,327.5,1558.5391" style="stroke:#B38D22;stroke-width:1.0;"/><text fill="#000000" font-family="sans-serif" font-size="14" lengthAdjust="spacing" textLength="362" x="340.5" y="1562.8857">ProductBacklog(factoryUserStory : FactoryUserStory)</text><ellipse cx="331.5" cy="1575.8359" fill="#84BE84" rx="3" ry="3" style="stroke:#038048;stroke-width:1.0;"/><text fill="#000000" font-family="sans-serif" font-size="14" lengthAdjust="spacing" textLength="284" x="340.5" y="1579.1826">getUnfinishedUserStoryIterator() : Iterator</text><ellipse cx="331.5" cy="1592.1328" fill="#84BE84" rx="3" ry="3" style="stroke:#038048;stroke-width:1.0;"/><text fill="#000000" font-family="sans-serif" font-size="14" lengthAdjust="spacing" textLength="484" x="340.5" y="1595.4795">createUserStory(userStoryCode : String, description : String) : boolean</text><rect fill="#F24D5C" height="6" style="stroke:#C82930;stroke-width:1.0;" width="6" x="328.5" y="1605.4297"/><text fill="#000000" font-family="sans-serif" font-size="14" lengthAdjust="spacing" textLength="445" x="340.5" y="1611.7764">addUserStoryToProductBacklog(userStory : UserStory) : boolean</text><ellipse cx="331.5" cy="1624.7266" fill="#84BE84" rx="3" ry="3" style="stroke:#038048;stroke-width:1.0;"/><text fill="#000000" font-family="sans-serif" font-size="14" lengthAdjust="spacing" textLength="336" x="340.5" y="1628.0732">getUserStory(userStoryCode : String) : UserStory</text></g><!--link EstimateEffortController to Containers--><g id="link_EstimateEffortController_Containers"><path codeLine="15" d="M539.23,141.3569 C524.02,161.8769 505.2,187.2569 485.47,213.8569 " fill="none" id="EstimateEffortController-to-Containers" style="stroke:#181818;stroke-width:1.0;"/><polygon fill="#181818" points="482.3,218.1369,490.8807,213.3025,485.284,214.1249,484.4616,208.5282,482.3,218.1369" style="stroke:#181818;stroke-width:1.0;"/><text fill="#000000" font-family="sans-serif" font-size="13" lengthAdjust="spacing" textLength="67" x="516.5" y="184.3638">containers</text></g><!--link EstimateEffortController to ProjectContainer--><g id="link_EstimateEffortController_ProjectContainer"><path codeLine="16" d="M589.08,141.5769 C599.8,176.6869 612.5,218.2969 612.5,218.2969 C612.5,218.2969 612.5,559.2969 612.5,559.2969 C612.5,559.2969 568.29,594.3169 519.6,632.8969 " fill="none" id="EstimateEffortController-to-ProjectContainer" style="stroke:#181818;stroke-width:1.0;stroke-dasharray:7.0,7.0;"/><polygon fill="#181818" points="515.49,636.1569,525.0288,633.7049,519.4096,633.0526,520.062,627.4335,515.49,636.1569" style="stroke:#181818;stroke-width:1.0;"/></g><!--link EstimateEffortController to Project--><g id="link_EstimateEffortController_Project"><path codeLine="17" d="M393.61,141.3069 C259.73,176.4769 100.5,218.2969 100.5,218.2969 C100.5,218.2969 65.5,636.2969 65.5,636.2969 C65.5,636.2969 65.5,831.2969 65.5,831.2969 C65.5,831.2969 96.95,861.9769 140.37,904.3469 " fill="none" id="EstimateEffortController-to-Project" style="stroke:#181818;stroke-width:1.0;stroke-dasharray:7.0,7.0;"/><polygon fill="#181818" points="144.06,907.9469,140.4135,898.7979,140.482,904.4544,134.8255,904.5228,144.06,907.9469" style="stroke:#181818;stroke-width:1.0;"/></g><!--link ProjectContainer to Project--><g id="link_ProjectContainer_Project"><path codeLine="18" d="M393.5,844.6269 C393.5,860.6369 393.5,877.6469 393.5,895.1369 " fill="none" id="ProjectContainer-Project" style="stroke:#181818;stroke-width:1.0;"/><polygon fill="#181818" points="393.5,831.3969,389.5,837.3969,393.5,843.3969,397.5,837.3969,393.5,831.3969" style="stroke:#181818;stroke-width:1.0;"/><polygon fill="#181818" points="393.5,908.2669,397.5,899.2669,393.5,903.2669,389.5,899.2669,393.5,908.2669" style="stroke:#181818;stroke-width:1.0;"/><line style="stroke:#181818;stroke-width:1.0;" x1="393.5" x2="393.5" y1="903.2669" y2="895.2669"/><text fill="#000000" font-family="sans-serif" font-size="13" lengthAdjust="spacing" textLength="66" x="394.5" y="874.3638">projectList</text><text fill="#000000" font-family="sans-serif" font-size="13" lengthAdjust="spacing" textLength="8" x="385.2063" y="851.199">1</text><text fill="#000000" font-family="sans-serif" font-size="13" lengthAdjust="spacing" textLength="7" x="386.3852" y="897.0824">*</text></g><!--link Containers to ProjectContainer--><g id="link_Containers_ProjectContainer"><path codeLine="19" d="M374.81,559.5369 C377.45,583.9969 380.09,608.4969 382.53,631.0569 " fill="none" id="Containers-to-ProjectContainer" style="stroke:#181818;stroke-width:1.0;"/><polygon fill="#181818" points="383.07,636.1369,386.096,626.7644,382.5414,631.1649,378.1409,627.6102,383.07,636.1369" style="stroke:#181818;stroke-width:1.0;"/><text fill="#000000" font-family="sans-serif" font-size="13" lengthAdjust="spacing" textLength="106" x="379.5" y="602.3638">projectContainer</text></g><!--link Project to ProductBacklog--><g id="link_Project_ProductBacklog"><path codeLine="20" d="M504.09,1396.3569 C515.77,1422.0169 526.99,1446.6769 536.94,1468.5569 " fill="none" id="Project-to-ProductBacklog" style="stroke:#181818;stroke-width:1.0;"/><polygon fill="#181818" points="539.05,1473.1769,538.9672,1463.3284,536.981,1468.625,531.6843,1466.6388,539.05,1473.1769" style="stroke:#181818;stroke-width:1.0;"/><text fill="#000000" font-family="sans-serif" font-size="13" lengthAdjust="spacing" textLength="99" x="522.5" y="1439.3638">productBacklog</text></g><!--link ProductBacklog to UserStory--><g id="link_ProductBacklog_UserStory"><path codeLine="21" d="M575.5,1648.4969 C575.5,1659.5569 575.5,1671.0769 575.5,1682.7769 " fill="none" id="ProductBacklog-UserStory" style="stroke:#181818;stroke-width:1.0;"/><polygon fill="#181818" points="575.5,1635.3769,571.5,1641.3769,575.5,1647.3769,579.5,1641.3769,575.5,1635.3769" style="stroke:#181818;stroke-width:1.0;"/><polygon fill="#181818" points="575.5,1696.0369,579.5,1687.0369,575.5,1691.0369,571.5,1687.0369,575.5,1696.0369" style="stroke:#181818;stroke-width:1.0;"/><line style="stroke:#181818;stroke-width:1.0;" x1="575.5" x2="575.5" y1="1691.0369" y2="1683.0369"/><text fill="#000000" font-family="sans-serif" font-size="13" lengthAdjust="spacing" textLength="8" x="567.1438" y="1655.3354">1</text><text fill="#000000" font-family="sans-serif" font-size="13" lengthAdjust="spacing" textLength="7" x="568.3305" y="1685.2536">*</text></g><!--link UserStory to Effort--><g id="link_UserStory_Effort"><path codeLine="22" d="M575.5,2005.5669 C575.5,2029.5569 575.5,2053.9169 575.5,2076.6769 " fill="none" id="UserStory-to-Effort" style="stroke:#181818;stroke-width:1.0;"/><polygon fill="#181818" points="575.5,2081.8169,579.5,2072.8169,575.5,2076.8169,571.5,2072.8169,575.5,2081.8169" style="stroke:#181818;stroke-width:1.0;"/><text fill="#000000" font-family="sans-serif" font-size="13" lengthAdjust="spacing" textLength="34" x="576.5" y="2048.3638">effort</text></g><!--link EstimateEffortController to ProductBacklog--><g id="link_EstimateEffortController_ProductBacklog"><path codeLine="23" d="M606.54,141.5569 C617.25,157.5069 626.5,171.2969 626.5,171.2969 C626.5,171.2969 757.5,387.7969 757.5,387.7969 C757.5,387.7969 757.5,387.7969 757.5,1153.2969 C757.5,1153.2969 710.5,1396.2969 710.5,1396.2969 C710.5,1396.2969 680.06,1431.7069 648.08,1468.8869 " fill="none" id="EstimateEffortController-to-ProductBacklog" style="stroke:#181818;stroke-width:1.0;stroke-dasharray:7.0,7.0;"/><polygon fill="#181818" points="644.58,1472.9569,653.4741,1468.7267,647.834,1469.1606,647.4001,1463.5204,644.58,1472.9569" style="stroke:#181818;stroke-width:1.0;"/></g><!--SRC=[hPDHIyCm58NVyokkVH76sZeVzp1GsOEW8CmzZvZUTN5f4f9RfV_UTEcwEXaA5Wh9JK- -d7D3hdT4ri_pt2gkgQvK9aoL2yMzJml9IyShnlnUQil359JKI8r5i4OrRS4OIL88wzNDxGnIW3iFhnYKprYzePl28tm6C901z2GhJWYqGy3jrZW2imKEjKS7denhGEfGU-kafYaKTHZBWpmkGMjIjsi27LP6DunTIIrKNI1aMHu_yu6EAxMnphoZeBn0BqiTCsswJB52dw_3sQlswCo6yF-bBRk8oqEw1wF96QNGZG9_YQ9HMAqr7gxF-J6jzTHHeDsuAOeYZmqTosjH2xhdOgzC6P7iqiL1cYxWr2oOW-YBovkoR07dBVcJcftlWcIMmAGraKoIeoguw98-IKziOAyL_a3qwfEN8wZJ3_eHrOC5TlR_cw7-zR1-Tc36Z84Ld_clsOVdVG40]--></g></svg>