<?xml version="1.0" encoding="us-ascii" standalone="no"?><svg xmlns="http://www.w3.org/2000/svg" xmlns:xlink="http://www.w3.org/1999/xlink" contentStyleType="text/css" height="606px" preserveAspectRatio="none" style="width:266px;height:606px;background:#FFFFFF;" version="1.1" viewBox="0 0 266 606" width="266px" zoomAndPan="magnify"><defs/><g><text fill="#000000" font-family="sans-serif" font-size="14" font-weight="bold" lengthAdjust="spacing" textLength="238" x="10" y="22.9951">Implementation View - Level 3</text><!--cluster Backend--><g id="cluster_Backend"><path d="M17.5,43.2969 L85.5,43.2969 A3.75,3.75 0 0 1 88,45.7969 L95,65.5938 L253.5,65.5938 A2.5,2.5 0 0 1 256,68.0938 L256,596.7969 A2.5,2.5 0 0 1 253.5,599.2969 L17.5,599.2969 A2.5,2.5 0 0 1 15,596.7969 L15,45.7969 A2.5,2.5 0 0 1 17.5,43.2969 " fill="none" style="stroke:#000000;stroke-width:1.5;"/><line style="stroke:#000000;stroke-width:1.5;" x1="15" x2="95" y1="65.5938" y2="65.5938"/><text fill="#000000" font-family="sans-serif" font-size="14" font-weight="bold" lengthAdjust="spacing" textLength="67" x="19" y="58.292">Backend</text></g><path d="M136,78.2969 L202,78.2969 A3.75,3.75 0 0 1 204.5,80.7969 L211.5,100.5938 L216,100.5938 A2.5,2.5 0 0 1 218.5,103.0938 L218.5,128.3906 A2.5,2.5 0 0 1 216,130.8906 L136,130.8906 A2.5,2.5 0 0 1 133.5,128.3906 L133.5,80.7969 A2.5,2.5 0 0 1 136,78.2969 " fill="#FFFFFF" style="stroke:#181818;stroke-width:0.5;"/><line style="stroke:#181818;stroke-width:0.5;" x1="133.5" x2="211.5" y1="100.5938" y2="100.5938"/><text fill="#000000" font-family="sans-serif" font-size="14" lengthAdjust="spacing" textLength="65" x="137.5" y="93.292">controller</text><path d="M118,191.2969 L168,191.2969 A3.75,3.75 0 0 1 170.5,193.7969 L177.5,213.5938 L182,213.5938 A2.5,2.5 0 0 1 184.5,216.0938 L184.5,241.3906 A2.5,2.5 0 0 1 182,243.8906 L118,243.8906 A2.5,2.5 0 0 1 115.5,241.3906 L115.5,193.7969 A2.5,2.5 0 0 1 118,191.2969 " fill="#FFFFFF" style="stroke:#181818;stroke-width:0.5;"/><line style="stroke:#181818;stroke-width:0.5;" x1="115.5" x2="177.5" y1="213.5938" y2="213.5938"/><text fill="#000000" font-family="sans-serif" font-size="14" lengthAdjust="spacing" textLength="49" x="119.5" y="206.292">service</text><path d="M33,304.2969 L103,304.2969 A3.75,3.75 0 0 1 105.5,306.7969 L112.5,326.5938 L117,326.5938 A2.5,2.5 0 0 1 119.5,329.0938 L119.5,354.3906 A2.5,2.5 0 0 1 117,356.8906 L33,356.8906 A2.5,2.5 0 0 1 30.5,354.3906 L30.5,306.7969 A2.5,2.5 0 0 1 33,304.2969 " fill="#FFFFFF" style="stroke:#181818;stroke-width:0.5;"/><line style="stroke:#181818;stroke-width:0.5;" x1="30.5" x2="112.5" y1="326.5938" y2="326.5938"/><text fill="#000000" font-family="sans-serif" font-size="14" lengthAdjust="spacing" textLength="69" x="34.5" y="319.292">repository</text><path d="M33,417.2969 L107,417.2969 A3.75,3.75 0 0 1 109.5,419.7969 L116.5,439.5938 L121,439.5938 A2.5,2.5 0 0 1 123.5,442.0938 L123.5,467.3906 A2.5,2.5 0 0 1 121,469.8906 L33,469.8906 A2.5,2.5 0 0 1 30.5,467.3906 L30.5,419.7969 A2.5,2.5 0 0 1 33,417.2969 " fill="#FFFFFF" style="stroke:#181818;stroke-width:0.5;"/><line style="stroke:#181818;stroke-width:0.5;" x1="30.5" x2="116.5" y1="439.5938" y2="439.5938"/><text fill="#000000" font-family="sans-serif" font-size="14" lengthAdjust="spacing" textLength="73" x="34.5" y="432.292">datamodel</text><path d="M127,530.2969 L179,530.2969 A3.75,3.75 0 0 1 181.5,532.7969 L188.5,552.5938 L193,552.5938 A2.5,2.5 0 0 1 195.5,555.0938 L195.5,580.3906 A2.5,2.5 0 0 1 193,582.8906 L127,582.8906 A2.5,2.5 0 0 1 124.5,580.3906 L124.5,532.7969 A2.5,2.5 0 0 1 127,530.2969 " fill="#FFFFFF" style="stroke:#181818;stroke-width:0.5;"/><line style="stroke:#181818;stroke-width:0.5;" x1="124.5" x2="188.5" y1="552.5938" y2="552.5938"/><text fill="#000000" font-family="sans-serif" font-size="14" lengthAdjust="spacing" textLength="51" x="128.5" y="545.292">domain</text><path d="M194.5,304.2969 L223.5,304.2969 A3.75,3.75 0 0 1 226,306.7969 L233,326.5938 L237.5,326.5938 A2.5,2.5 0 0 1 240,329.0938 L240,354.3906 A2.5,2.5 0 0 1 237.5,356.8906 L194.5,356.8906 A2.5,2.5 0 0 1 192,354.3906 L192,306.7969 A2.5,2.5 0 0 1 194.5,304.2969 " fill="#FFFFFF" style="stroke:#181818;stroke-width:0.5;"/><line style="stroke:#181818;stroke-width:0.5;" x1="192" x2="233" y1="326.5938" y2="326.5938"/><text fill="#000000" font-family="sans-serif" font-size="14" lengthAdjust="spacing" textLength="28" x="196" y="319.292">utils</text><!--link controller to service--><g id="link_controller_service"><path codeLine="26" d="M169.97,131.5369 C166.16,147.7969 161.22,168.8769 157.21,186.0069 " fill="none" id="controller-to-service" style="stroke:#181818;stroke-width:1.0;stroke-dasharray:7.0,7.0;"/><polygon fill="#181818" points="156,191.1869,161.9499,183.3384,157.142,186.319,154.1614,181.5112,156,191.1869" style="stroke:#181818;stroke-width:1.0;"/></g><!--link controller to utils--><g id="link_controller_utils"><path codeLine="27" d="M185.3,131.6569 C190.98,148.4469 197.91,170.9169 202,191.2969 C209.34,227.8769 212.92,270.7169 214.6,298.9469 " fill="none" id="controller-to-utils" style="stroke:#181818;stroke-width:1.0;stroke-dasharray:7.0,7.0;"/><polygon fill="#181818" points="214.9,304.0469,218.38,294.8333,214.6148,299.055,210.3931,295.2897,214.9,304.0469" style="stroke:#181818;stroke-width:1.0;"/></g><!--link service to utils--><g id="link_service_utils"><path codeLine="29" d="M165.31,244.5369 C175.14,261.0769 187.94,282.6069 198.22,299.8969 " fill="none" id="service-to-utils" style="stroke:#181818;stroke-width:1.0;stroke-dasharray:7.0,7.0;"/><polygon fill="#181818" points="200.78,304.1869,199.6035,294.4085,198.2181,299.8931,192.7335,298.5077,200.78,304.1869" style="stroke:#181818;stroke-width:1.0;"/></g><!--link service to repository--><g id="link_service_repository"><path codeLine="30" d="M132.6,244.5369 C121.44,261.0769 106.89,282.6069 95.2,299.8969 " fill="none" id="service-to-repository" style="stroke:#181818;stroke-width:1.0;stroke-dasharray:7.0,7.0;"/><polygon fill="#181818" points="92.3,304.1869,100.6537,298.9701,95.0998,300.0443,94.0256,294.4904,92.3,304.1869" style="stroke:#181818;stroke-width:1.0;"/></g><!--link service to domain--><g id="link_service_domain"><path codeLine="31" d="M151.02,244.4869 C152.49,282.3269 155.23,355.2569 157,417.2969 C158.06,454.4169 158.93,497.1369 159.46,525.2069 " fill="none" id="service-to-domain" style="stroke:#181818;stroke-width:1.0;stroke-dasharray:7.0,7.0;"/><polygon fill="#181818" points="159.55,530.2669,163.3951,521.1996,159.4643,525.2676,155.3963,521.3368,159.55,530.2669" style="stroke:#181818;stroke-width:1.0;"/></g><!--link repository to datamodel--><g id="link_repository_datamodel"><path codeLine="33" d="M75.46,357.5369 C75.76,373.7969 76.14,394.8769 76.45,412.0069 " fill="none" id="repository-to-datamodel" style="stroke:#181818;stroke-width:1.0;stroke-dasharray:7.0,7.0;"/><polygon fill="#181818" points="76.54,417.1869,80.3592,408.1087,76.44,412.1879,72.3608,408.2687,76.54,417.1869" style="stroke:#181818;stroke-width:1.0;"/></g><!--link repository to domain--><g id="link_repository_domain"><path codeLine="34" d="M100.71,357.5769 C114.96,373.4469 131.65,394.9869 141,417.2969 C155.66,452.2769 159.5,496.1569 160.27,525.0469 " fill="none" id="repository-to-domain" style="stroke:#181818;stroke-width:1.0;stroke-dasharray:7.0,7.0;"/><polygon fill="#181818" points="160.38,530.2569,164.1727,521.1676,160.2654,525.2582,156.1748,521.3509,160.38,530.2569" style="stroke:#181818;stroke-width:1.0;"/></g><!--link datamodel to domain--><g id="link_datamodel_domain"><path codeLine="36" d="M96.25,470.5369 C108.61,487.0769 124.71,508.6069 137.64,525.8969 " fill="none" id="datamodel-to-domain" style="stroke:#181818;stroke-width:1.0;stroke-dasharray:7.0,7.0;"/><polygon fill="#181818" points="140.85,530.1869,138.65,520.5869,137.85,526.1869,132.25,525.3869,140.85,530.1869" style="stroke:#181818;stroke-width:1.0;"/></g><!--SRC=[VOyz2y8m443t-nK73avsSNTm4vpTGtgsX_aewMaHyRyRMqFJ2iboyEu5xcqDNGN5O-2c5Qmva1Rs3a1O3E79TeOiEL5VYXUc0NTufWSPt0DqIjzKGtYCaroDBy3u4jNUIV36KC3DqBBGj7x3mkefF5XJIGdK-Px5XsV9gfKew-juMKdoLh4h6NTXqw-4g6GnLNL8Lw_n-1aWDSqe9tFE0a-d0MIr8qvPVukVFtTdz0C0]--></g></svg>