<?xml version="1.0" encoding="us-ascii" standalone="no"?><svg xmlns="http://www.w3.org/2000/svg" xmlns:xlink="http://www.w3.org/1999/xlink" contentStyleType="text/css" height="155px" preserveAspectRatio="none" style="width:266px;height:155px;background:#FFFFFF;" version="1.1" viewBox="0 0 266 155" width="266px" zoomAndPan="magnify"><defs/><g><text fill="#000000" font-family="sans-serif" font-size="14" font-weight="bold" lengthAdjust="spacing" textLength="238" x="10" y="22.9951">Implementation View - Level 2</text><!--cluster system--><g id="cluster_system"><path d="M55,43.2969 L113,43.2969 A3.75,3.75 0 0 1 115.5,45.7969 L122.5,65.5938 L216,65.5938 A2.5,2.5 0 0 1 218.5,68.0938 L218.5,145.7969 A2.5,2.5 0 0 1 216,148.2969 L55,148.2969 A2.5,2.5 0 0 1 52.5,145.7969 L52.5,45.7969 A2.5,2.5 0 0 1 55,43.2969 " fill="none" style="stroke:#000000;stroke-width:1.5;"/><line style="stroke:#000000;stroke-width:1.5;" x1="52.5" x2="122.5" y1="65.5938" y2="65.5938"/><text fill="#000000" font-family="sans-serif" font-size="14" font-weight="bold" lengthAdjust="spacing" textLength="57" x="56.5" y="58.292">system</text></g><path d="M71,78.7969 L85,78.7969 A3.75,3.75 0 0 1 87.5,81.2969 L94.5,101.0938 L99,101.0938 A2.5,2.5 0 0 1 101.5,103.5938 L101.5,128.8906 A2.5,2.5 0 0 1 99,131.3906 L71,131.3906 A2.5,2.5 0 0 1 68.5,128.8906 L68.5,81.2969 A2.5,2.5 0 0 1 71,78.7969 " fill="#FFFFFF" style="stroke:#181818;stroke-width:0.5;"/><line style="stroke:#181818;stroke-width:0.5;" x1="68.5" x2="94.5" y1="101.0938" y2="101.0938"/><text fill="#000000" font-family="sans-serif" font-size="14" lengthAdjust="spacing" textLength="13" x="72.5" y="93.792">UI</text><path d="M164,78.7969 L186,78.7969 A3.75,3.75 0 0 1 188.5,81.2969 L195.5,101.0938 L200,101.0938 A2.5,2.5 0 0 1 202.5,103.5938 L202.5,128.8906 A2.5,2.5 0 0 1 200,131.3906 L164,131.3906 A2.5,2.5 0 0 1 161.5,128.8906 L161.5,81.2969 A2.5,2.5 0 0 1 164,78.7969 " fill="#FFFFFF" style="stroke:#181818;stroke-width:0.5;"/><line style="stroke:#181818;stroke-width:0.5;" x1="161.5" x2="195.5" y1="101.0938" y2="101.0938"/><text fill="#000000" font-family="sans-serif" font-size="14" lengthAdjust="spacing" textLength="21" x="165.5" y="93.792">src</text><!--link UI to src--><g id="link_UI_src"><path codeLine="14" d="M101.69,105.2969 C116.49,105.2969 138.93,105.2969 156.17,105.2969 " fill="none" id="UI-to-src" style="stroke:#181818;stroke-width:1.0;stroke-dasharray:7.0,7.0;"/><polygon fill="#181818" points="161.33,105.2969,152.33,101.2969,156.33,105.2969,152.33,109.2969,161.33,105.2969" style="stroke:#181818;stroke-width:1.0;"/></g><!--SRC=[NOin3eCm40JxUyLAgQ7W0UcHQ4DlEHiunGPadu8YbB_7A4e1MyxC1ZuCDYFfC1hkckXDvqd4r0BHnYKmSZAtK_JA5HKwlXZGY2pEFzr0v7SsHco2iZ-yjRYienf_-2C7cvC_wHAKIrrVToTV]--></g></svg>