<svg version="1.1" xmlns="http://www.w3.org/2000/svg" viewBox="0 0 957 607" width="957" height="607">
  <!-- svg-source:excalidraw -->
  
  <defs>
    <style class="style-fonts">
      @font-face {
        font-family: "Virgil";
        src: url("https://excalidraw.com/Virgil.woff2");
      }
      @font-face {
        font-family: "Cascadia";
        src: url("https://excalidraw.com/Cascadia.woff2");
      }
    </style>
  </defs>
  <rect x="0" y="0" width="957" height="607" fill="#ffffff"></rect><g stroke-linecap="round" transform="translate(10 10) rotate(0 468.5 293.5)"><path d="M32 0 M32 0 C277.7 -1.79, 522.6 -1.75, 905 0 M32 0 C265.22 3.3, 498.82 3.8, 905 0 M905 0 C924.6 -0.9, 936 10.09, 937 32 M905 0 C927.52 -0.87, 937.79 10.19, 937 32 M937 32 C937.45 167.13, 936.4 300.87, 937 555 M937 32 C938.16 137.88, 938.33 243.66, 937 555 M937 555 C937.58 577.36, 925.52 585.87, 905 587 M937 555 C937.37 576, 924.05 588.46, 905 587 M905 587 C608.51 585.41, 310.73 585.68, 32 587 M905 587 C603.54 584.68, 301.04 584.83, 32 587 M32 587 C10.83 585.47, 1.98 576.27, 0 555 M32 587 C11.86 589.17, 1.87 575.42, 0 555 M0 555 C-2.5 444.3, -2.39 332.31, 0 32 M0 555 C-0.5 369.02, 0.18 183.23, 0 32 M0 32 C-1.9 10.78, 12.38 -0.78, 32 0 M0 32 C-1.2 11.96, 9.44 0.29, 32 0" stroke="#1e1e1e" stroke-width="1" fill="none"></path></g><g stroke-linecap="round" transform="translate(31 27) rotate(0 87.5 277.5)"><path d="M32 0 M32 0 C58.49 -2.92, 81.66 0.69, 143 0 M32 0 C60.45 -0.49, 89.3 -0.93, 143 0 M143 0 C162.44 -0.47, 176.29 10.55, 175 32 M143 0 C163.54 -0.25, 174.34 9.08, 175 32 M175 32 C177.08 182.32, 176.14 330.9, 175 523 M175 32 C177.3 228.17, 176.88 424.12, 175 523 M175 523 C173.62 542.53, 165.76 556.92, 143 555 M175 523 C173.97 542.41, 162.89 554.3, 143 555 M143 555 C109.87 552.96, 74.56 555.21, 32 555 M143 555 C107.97 554.11, 70.72 553.9, 32 555 M32 555 C11.4 556.83, 0.27 542.42, 0 523 M32 555 C10.18 555.89, -2.16 543.04, 0 523 M0 523 C-0.69 377.15, 0.28 229.99, 0 32 M0 523 C-1.59 420.52, -1.24 318.93, 0 32 M0 32 C0.63 11.64, 11.03 -0.3, 32 0 M0 32 C2.1 8.4, 9.99 0.47, 32 0" stroke="#1e1e1e" stroke-width="1" fill="none"></path></g><g stroke-linecap="round" transform="translate(228 70) rotate(0 55 18)"><path d="M9 0 M9 0 C37.01 1.31, 64.71 -0.07, 101 0 M9 0 C40.65 0.32, 71.06 1.11, 101 0 M101 0 C108.47 -0.72, 111.66 4.16, 110 9 M101 0 C108.85 -0.4, 111.42 1.78, 110 9 M110 9 C110.69 14.91, 110.76 21.64, 110 27 M110 9 C109.13 15.86, 109.5 20.96, 110 27 M110 27 C110.04 32.08, 107.38 37.04, 101 36 M110 27 C112.15 31.43, 107.81 36.98, 101 36 M101 36 C68.3 35, 32.29 35.78, 9 36 M101 36 C80.8 36.09, 59.08 36.02, 9 36 M9 36 C1.84 37.92, 0.16 33.74, 0 27 M9 36 C2.07 33.76, -1.32 33.27, 0 27 M0 27 C-0.39 23.27, 1.61 16.35, 0 9 M0 27 C0.79 21.85, 0.51 18.3, 0 9 M0 9 C-0.27 4.2, 4.82 1.01, 9 0 M0 9 C-2.08 0.96, 1.72 -0.96, 9 0" stroke="#1e1e1e" stroke-width="1" fill="none"></path></g><g stroke-linecap="round" transform="translate(357 73) rotate(0 53 17)"><path d="M8.5 0 M8.5 0 C35.71 1.01, 61.86 0.57, 97.5 0 M8.5 0 C27.66 0.59, 45.27 0.11, 97.5 0 M97.5 0 C101.22 -1.15, 106.24 2.56, 106 8.5 M97.5 0 C104.6 -2.25, 105.64 4.65, 106 8.5 M106 8.5 C105.05 16.87, 107.28 20.72, 106 25.5 M106 8.5 C106.57 15.16, 106.49 19.49, 106 25.5 M106 25.5 C104.23 30.05, 102.34 32.96, 97.5 34 M106 25.5 C105.35 29.32, 101.96 34.08, 97.5 34 M97.5 34 C76.59 36.55, 51.5 34.47, 8.5 34 M97.5 34 C71.86 34.24, 46.55 33.35, 8.5 34 M8.5 34 C1.81 32.22, -0.73 32.08, 0 25.5 M8.5 34 C3.69 35.15, 1.38 32.2, 0 25.5 M0 25.5 C0.1 20.34, 0.62 15.96, 0 8.5 M0 25.5 C0.09 18.37, -0.76 12.13, 0 8.5 M0 8.5 C-1.69 3.66, 1.26 0.83, 8.5 0 M0 8.5 C-1.02 1.93, 1.26 0.38, 8.5 0" stroke="#1e1e1e" stroke-width="1" fill="none"></path></g><g stroke-linecap="round" transform="translate(233 128) rotate(0 246.5 23.5)"><path d="M11.75 0 M11.75 0 C126.19 0.38, 240.68 1.14, 481.25 0 M11.75 0 C130.98 -1.26, 249.26 -1.73, 481.25 0 M481.25 0 C488.81 0.95, 492.95 3.61, 493 11.75 M481.25 0 C489.7 0.06, 491.56 2.74, 493 11.75 M493 11.75 C493.66 17.72, 494.12 22.58, 493 35.25 M493 11.75 C493.25 18.04, 493.55 24.79, 493 35.25 M493 35.25 C494.45 43.13, 487.55 47.23, 481.25 47 M493 35.25 C490.83 41.03, 487.18 45.06, 481.25 47 M481.25 47 C320.68 47.53, 160.29 48.03, 11.75 47 M481.25 47 C386.42 46.98, 292.08 46.77, 11.75 47 M11.75 47 C2.03 47.2, 0.29 41.47, 0 35.25 M11.75 47 C5.46 47.7, 0.42 44.37, 0 35.25 M0 35.25 C1.3 27.9, 0.3 22.63, 0 11.75 M0 35.25 C0.3 28.71, 0.46 19.91, 0 11.75 M0 11.75 C-0.85 2.9, 2.68 1.19, 11.75 0 M0 11.75 C-1.96 6.08, 4.41 2.11, 11.75 0" stroke="#1e1e1e" stroke-width="1" fill="none"></path></g><g stroke-linecap="round" transform="translate(229 210) rotate(0 294.5 186)"><path d="M32 0 M32 0 C198.27 -0.25, 363.96 0.34, 557 0 M32 0 C137.47 -0.53, 243.09 -0.09, 557 0 M557 0 C578.7 1.12, 588.49 12.11, 589 32 M557 0 C578.05 1.69, 587.96 11.21, 589 32 M589 32 C590.58 129.15, 590.27 225.99, 589 340 M589 32 C587.61 100.51, 587.44 168.83, 589 340 M589 340 C589.43 363.16, 578.5 372.76, 557 372 M589 340 C587.61 359.54, 578.04 373.97, 557 372 M557 372 C436.13 370.44, 315.15 371.4, 32 372 M557 372 C413.51 372.01, 270.2 372.23, 32 372 M32 372 C9.33 373.14, 0.31 360.46, 0 340 M32 372 C10.07 373.16, -0.46 363.37, 0 340 M0 340 C-0.15 223.63, 0.61 107.92, 0 32 M0 340 C1.34 244.96, 1.09 150.3, 0 32 M0 32 C-1.92 11.35, 11.78 -1.72, 32 0 M0 32 C-2.22 9.77, 11.53 1.38, 32 0" stroke="#1e1e1e" stroke-width="1" fill="none"></path></g><g stroke-linecap="round" transform="translate(245 225) rotate(0 84 172)"><path d="M32 0 M32 0 C68.63 1.46, 105.9 2.23, 136 0 M32 0 C71.12 -1.28, 110.69 -1.35, 136 0 M136 0 C157.51 -0.99, 169.8 11.34, 168 32 M136 0 C157.43 -0.03, 169.4 8.46, 168 32 M168 32 C167.71 124.94, 169.77 220, 168 312 M168 32 C168.04 139.52, 167.95 248.43, 168 312 M168 312 C168.94 331.9, 157.37 345.34, 136 344 M168 312 C167.5 331.11, 155.3 344.93, 136 344 M136 344 C108.25 343.74, 76.1 345.21, 32 344 M136 344 C109.71 344.63, 83.62 344.75, 32 344 M32 344 C8.89 342.57, 0.74 333.1, 0 312 M32 344 C12.81 343.15, -0.7 331.58, 0 312 M0 312 C-0.84 203.94, 0.8 95.58, 0 32 M0 312 C-0.12 255.19, -0.6 198.52, 0 32 M0 32 C1.23 8.87, 9.31 -0.29, 32 0 M0 32 C1.7 11.51, 9.67 0.55, 32 0" stroke="#1e1e1e" stroke-width="1" fill="none"></path></g><g stroke-linecap="round" transform="translate(445 226) rotate(0 84 172)"><path d="M32 0 M32 0 C69.33 2.18, 107.98 -0.16, 136 0 M32 0 C66.33 1.09, 98.66 -0.22, 136 0 M136 0 C157.75 1.47, 166.46 11.61, 168 32 M136 0 C157.48 0.49, 167.48 12.88, 168 32 M168 32 C170.91 95.32, 170.67 160.61, 168 312 M168 32 C169.3 120.8, 168.58 209.48, 168 312 M168 312 C169.29 332.8, 159.02 343.28, 136 344 M168 312 C165.85 332.22, 158.19 344.14, 136 344 M136 344 C110.07 342.82, 84.24 344.59, 32 344 M136 344 C105.1 344, 75.63 344.5, 32 344 M32 344 C11.82 342.47, 1.4 332.47, 0 312 M32 344 C9.54 345.39, -1.49 333.24, 0 312 M0 312 C-0.56 250.81, -1.8 190.49, 0 32 M0 312 C-1.4 230.87, -1.24 149.07, 0 32 M0 32 C1.75 10.06, 11.04 -1.5, 32 0 M0 32 C0.93 9.35, 9.39 2.24, 32 0" stroke="#1e1e1e" stroke-width="1" fill="none"></path></g><g stroke-linecap="round" transform="translate(636 228) rotate(0 84 172)"><path d="M32 0 M32 0 C68.83 1.88, 107.63 -1.83, 136 0 M32 0 C71.19 0.1, 111.48 -1.09, 136 0 M136 0 C158.54 -1.3, 167.92 8.97, 168 32 M136 0 C159.13 -0.13, 169.68 9.29, 168 32 M168 32 C167.2 113.26, 165.43 196.36, 168 312 M168 32 C168.24 100.46, 167.9 168.95, 168 312 M168 312 C166.85 332.22, 159.28 343.28, 136 344 M168 312 C167.62 333.97, 155.28 341.99, 136 344 M136 344 C102.9 342.11, 73.33 342.06, 32 344 M136 344 C97.81 344.02, 58.27 344.13, 32 344 M32 344 C9.21 344.88, 0.45 332.62, 0 312 M32 344 C11.48 342.23, -1.3 331.86, 0 312 M0 312 C3.08 228.49, 1.36 142.11, 0 32 M0 312 C-0.26 215.98, 0.47 118.59, 0 32 M0 32 C-0.18 11.72, 10.22 -1.55, 32 0 M0 32 C-2.02 12.6, 12.05 -1.88, 32 0" stroke="#1e1e1e" stroke-width="1" fill="none"></path></g><g transform="translate(80 30) rotate(0 35.15625 12)"><text x="0" y="0" font-family="Cascadia, Segoe UI Emoji" font-size="20px" fill="#1e1e1e" text-anchor="start" style="white-space: pre;" direction="ltr" dominant-baseline="text-before-edge">NavBar</text></g><g transform="translate(226 26) rotate(0 41.015625 12)"><text x="0" y="0" font-family="Cascadia, Segoe UI Emoji" font-size="20px" fill="#1e1e1e" text-anchor="start" style="white-space: pre;" direction="ltr" dominant-baseline="text-before-edge">Sprints</text></g><g transform="translate(286 232) rotate(0 41.015625 12)"><text x="0" y="0" font-family="Cascadia, Segoe UI Emoji" font-size="20px" fill="#1e1e1e" text-anchor="start" style="white-space: pre;" direction="ltr" dominant-baseline="text-before-edge">Planned</text></g><g transform="translate(465.984375 234) rotate(0 64.453125 12)"><text x="0" y="0" font-family="Cascadia, Segoe UI Emoji" font-size="20px" fill="#1e1e1e" text-anchor="start" style="white-space: pre;" direction="ltr" dominant-baseline="text-before-edge">In Progress</text></g><g transform="translate(700.984375 234) rotate(0 23.4375 12)"><text x="0" y="0" font-family="Cascadia, Segoe UI Emoji" font-size="20px" fill="#1e1e1e" text-anchor="start" style="white-space: pre;" direction="ltr" dominant-baseline="text-before-edge">Done</text></g><g stroke-linecap="round" transform="translate(262 297) rotate(0 67.5 35)"><path d="M17.5 0 M17.5 0 C51.76 -2.04, 88.38 -0.12, 117.5 0 M17.5 0 C49.95 -0.36, 84.14 -0.77, 117.5 0 M117.5 0 C131.01 -1.87, 133.18 5.01, 135 17.5 M117.5 0 C130.77 -0.46, 136.32 3.94, 135 17.5 M135 17.5 C136.32 28.3, 134.64 37.48, 135 52.5 M135 17.5 C134.97 28.4, 135.76 40.11, 135 52.5 M135 52.5 C136.27 64.81, 128.97 71.11, 117.5 70 M135 52.5 C133.87 63.85, 128.58 69.6, 117.5 70 M117.5 70 C98.67 69.39, 78.98 68.72, 17.5 70 M117.5 70 C81.83 70.59, 45.14 69.66, 17.5 70 M17.5 70 C5.34 69.01, -1.97 62.91, 0 52.5 M17.5 70 C4.8 70.45, 0.71 64.03, 0 52.5 M0 52.5 C1.91 45.43, -1.06 37.07, 0 17.5 M0 52.5 C-0.34 44.27, 0.46 35.52, 0 17.5 M0 17.5 C1.22 4.31, 3.98 1.09, 17.5 0 M0 17.5 C0.37 4.15, 5.2 -2.21, 17.5 0" stroke="#1e1e1e" stroke-width="1" fill="none"></path></g><g stroke-linecap="round" transform="translate(262.5 381) rotate(0 67.5 35)"><path d="M17.5 0 M17.5 0 C45.45 2.29, 73.61 2.77, 117.5 0 M17.5 0 C41.6 0.89, 67.16 0.19, 117.5 0 M117.5 0 C129.07 -0.49, 134.01 3.87, 135 17.5 M117.5 0 C127.73 -1.03, 135.45 6.54, 135 17.5 M135 17.5 C133.04 29.49, 134.68 36.81, 135 52.5 M135 17.5 C135.82 25.44, 135.56 34.58, 135 52.5 M135 52.5 C136.8 65.39, 127.64 68.14, 117.5 70 M135 52.5 C136.25 64.54, 127.49 69.36, 117.5 70 M117.5 70 C96.65 69.69, 74.74 70.35, 17.5 70 M117.5 70 C95.25 69.23, 74.33 70.49, 17.5 70 M17.5 70 C6.78 70.37, 1.81 65.78, 0 52.5 M17.5 70 C4.34 68.3, -1.47 62.98, 0 52.5 M0 52.5 C-1.24 41.66, -1.24 27.51, 0 17.5 M0 52.5 C-0.01 40.65, 0.58 26.95, 0 17.5 M0 17.5 C0.61 4.32, 5.79 -1.53, 17.5 0 M0 17.5 C0.46 6.97, 5.61 -1.63, 17.5 0" stroke="#1e1e1e" stroke-width="1" fill="none"></path></g><g stroke-linecap="round"><g transform="translate(366 331) rotate(0 62.509155360236775 -16.57359491302327)"><path d="M-0.61 -1.72 C9.38 -7.53, 39.16 -36.92, 60.2 -36.67 C81.24 -36.42, 114.46 -6.09, 125.63 -0.21 M4.25 3.52 C15.13 -1.7, 45.73 -32.02, 65.63 -33.4 C85.52 -34.79, 113.15 -10.59, 123.62 -4.76" stroke="#1e1e1e" stroke-width="1" fill="none"></path></g><g transform="translate(366 331) rotate(0 62.509155360236775 -16.57359491302327)"><path d="M92.06 -14.57 C102.45 -10.17, 114.96 -5.65, 124.51 -5.53 M94.73 -10.02 C103.19 -7.79, 110.43 -7.83, 123.4 -5.32" stroke="#1e1e1e" stroke-width="1" fill="none"></path></g><g transform="translate(366 331) rotate(0 62.509155360236775 -16.57359491302327)"><path d="M103.52 -31.59 C110.15 -21.98, 119.12 -12.2, 124.51 -5.53 M106.19 -27.04 C111.84 -20.37, 115.98 -15.8, 123.4 -5.32" stroke="#1e1e1e" stroke-width="1" fill="none"></path></g></g><mask></mask><g stroke-linecap="round"><g transform="translate(382.4908446397633 415.57359491302293) rotate(0 143.369252740182 -18.99970496216139)"><path d="M0.8 -1.76 C25 -9.08, 96.62 -41.25, 144.65 -41.46 C192.67 -41.66, 264.49 -9.44, 288.95 -2.98 M-2.21 3.46 C21.73 -2.21, 94.63 -37.43, 142.76 -38.08 C190.89 -38.72, 261.57 -6.66, 286.57 -0.4" stroke="#1e1e1e" stroke-width="1" fill="none"></path></g><g transform="translate(382.4908446397633 415.57359491302293) rotate(0 143.369252740182 -18.99970496216139)"><path d="M254.07 1.32 C264.3 -1.5, 271.94 1.77, 285.54 -2.55 M254.97 1.99 C269.02 1.61, 278.94 1.29, 287.46 -1.61" stroke="#1e1e1e" stroke-width="1" fill="none"></path></g><g transform="translate(382.4908446397633 415.57359491302293) rotate(0 143.369252740182 -18.99970496216139)"><path d="M260.57 -18.14 C269.33 -15.48, 275.15 -6.77, 285.54 -2.55 M261.48 -17.48 C272.91 -11, 280.49 -4.37, 287.46 -1.61" stroke="#1e1e1e" stroke-width="1" fill="none"></path></g></g><mask></mask><g stroke-linecap="round" transform="translate(622 137) rotate(0 44.5 17)"><path d="M8.5 0 M8.5 0 C27.08 -1.08, 46.88 1.8, 80.5 0 M8.5 0 C31.42 -2.11, 49.15 -1.88, 80.5 0 M80.5 0 C88.76 -0.92, 86.21 1.37, 89 8.5 M80.5 0 C84.68 4.12, 90.98 0.9, 89 8.5 M89 8.5 C91.23 12.72, 90.05 21.33, 89 25.5 M89 8.5 C87.51 15.53, 88.33 20.21, 89 25.5 M89 25.5 C86.99 31.16, 86.58 33.46, 80.5 34 M89 25.5 C86.7 27, 88.94 30.15, 80.5 34 M80.5 34 C54.38 37.55, 25.14 32.28, 8.5 34 M80.5 34 C58.26 34.56, 36.36 34.31, 8.5 34 M8.5 34 C-0.12 34.07, -0.61 33.05, 0 25.5 M8.5 34 C0.57 35.3, 3.17 29.29, 0 25.5 M0 25.5 C0.76 21.67, 1.85 15.51, 0 8.5 M0 25.5 C-1.54 20.58, -0.13 15.76, 0 8.5 M0 8.5 C0.91 5.73, 1.24 2.61, 8.5 0 M0 8.5 C2.94 4.49, 0.99 4.04, 8.5 0" stroke="#1e1e1e" stroke-width="1" fill="none"></path></g><g transform="translate(235 182) rotate(0 82.03125 12)"><text x="0" y="0" font-family="Cascadia, Segoe UI Emoji" font-size="20px" fill="#1e1e1e" text-anchor="start" style="white-space: pre;" direction="ltr" dominant-baseline="text-before-edge">Sprint Backlog</text></g></svg>