<?xml version="1.0" encoding="us-ascii" standalone="no"?><svg xmlns="http://www.w3.org/2000/svg" xmlns:xlink="http://www.w3.org/1999/xlink" contentStyleType="text/css" height="851px" preserveAspectRatio="none" style="width:1228px;height:851px;background:#FFFFFF;" version="1.1" viewBox="0 0 1228 851" width="1228px" zoomAndPan="magnify"><defs/><g><text fill="#000000" font-family="sans-serif" font-size="14" font-weight="bold" lengthAdjust="spacing" textLength="724" x="250.75" y="32.9951">US028 - As Manager, I want to associate a user as Team Member of a project in the web UI.</text><text fill="#000000" font-family="sans-serif" font-size="14" font-weight="bold" lengthAdjust="spacing" textLength="562" x="331.75" y="49.292">US029 - As Manager, I want to define the PO of a project in the web UI.</text><text fill="#000000" font-family="sans-serif" font-size="14" font-weight="bold" lengthAdjust="spacing" textLength="563" x="331.25" y="65.5889">US030 - As Manager, I want to define the SM of a project in the web UI.</text><rect fill="#F1F1F1" height="36.2969" rx="12.5" ry="12.5" style="stroke:#181818;stroke-width:1.5;" width="106.3333" x="560.0833" y="79.8906"/><path d="M575.75,93.3542 C573.1717,93.3542 571.0833,95.4425 571.0833,98.0208 C571.0833,100.5992 573.1717,102.6875 575.75,102.6875 C578.3283,102.6875 580.4167,100.5992 580.4167,98.0208 C580.4167,95.4425 578.3283,93.3542 575.75,93.3542 M575.75,94.5208 C576.135,94.5208 576.4967,94.6258 576.8467,94.7425 C576.6017,94.9758 576.3217,95.1858 576.3683,95.3958 C576.415,95.6058 577.1733,95.5475 577.1733,95.9792 C577.1733,96.2942 576.6833,96.3875 577.0217,96.7492 C577.43,97.1575 576.275,97.8925 576.2517,98.4292 C576.2167,99.3975 577.2317,99.5608 578.0367,99.5608 C578.5267,99.5608 578.655,99.7942 578.62,100.0742 C577.99,100.9725 576.9167,101.5325 575.7383,101.5325 C575.295,101.5325 574.8867,101.4275 574.5017,101.2758 C574.7583,100.7625 574.175,99.7475 573.6267,99.4208 C573.3583,99.1525 572.7867,99.2575 572.46,99.1292 C572.355,98.8142 572.25,98.4992 572.2383,98.1492 C572.2733,98.0908 572.3317,98.0442 572.425,98.0442 C572.6467,98.0442 572.95,98.4875 573.1133,98.4408 C573.3233,98.3942 572.25,96.9125 572.7517,96.6208 C572.985,96.4808 573.4517,97.0758 573.3,96.4342 C573.16,95.8392 573.72,96.1075 574.07,95.9558 C574.3733,95.8275 574.595,95.4775 574.2217,95.2675 C574.1517,95.2325 574.07,95.1508 573.965,95.0458 C574.49,94.7308 575.0967,94.5325 575.75,94.5325 M578.445,95.7925 C578.655,96.0492 578.8183,96.3292 578.9583,96.6325 C578.9583,96.6442 578.9583,96.6558 578.9583,96.6675 C578.9117,96.7492 578.83,96.7958 578.7017,96.9242 C578.375,97.2508 578.3283,96.6792 578.1883,96.5625 C578.0367,96.4225 577.4883,96.5858 577.4183,96.4108 C577.3367,96.2008 578.0017,95.9208 578.445,95.7925 " fill="#000000" style="stroke:;stroke-width:0.0;stroke-dasharray:;"/><text fill="#000000" font-family="sans-serif" font-size="14" lengthAdjust="spacing" textLength="75" x="581.4167" y="102.8857">Application</text><rect fill="#F1F1F1" height="36.2969" rx="12.5" ry="12.5" style="stroke:#181818;stroke-width:1.5;" width="67" x="24" y="141.1875"/><text fill="#000000" font-family="sans-serif" font-size="14" lengthAdjust="spacing" textLength="47" x="34" y="164.1826">Navbar</text><rect fill="#F1F1F1" height="36.2969" rx="12.5" ry="12.5" style="stroke:#181818;stroke-width:1.5;" width="75" x="20" y="202.4844"/><text fill="#000000" font-family="sans-serif" font-size="14" lengthAdjust="spacing" textLength="55" x="30" y="225.4795">NavItem</text><path d="M57.5,177.4844 L57.5,180.4844 C57.5,187.4844 57.5,192.4844 57.5,199.4844 L57.5,202.4844 " fill="none" style="stroke:#181818;stroke-width:1.0;"/><path d="M613.25,116.1875 L613.25,119.1875 C613.25,126.1875 57.5,131.1875 57.5,138.1875 L57.5,141.1875 " fill="none" style="stroke:#181818;stroke-width:1.0;"/><rect fill="#F1F1F1" height="36.2969" rx="12.5" ry="12.5" style="stroke:#181818;stroke-width:1.5;" width="94" x="613.75" y="141.1875"/><text fill="#000000" font-family="sans-serif" font-size="14" lengthAdjust="spacing" textLength="74" x="623.75" y="164.1826">MainRoute</text><rect fill="#F1F1F1" height="36.2969" rx="12.5" ry="12.5" style="stroke:#181818;stroke-width:1.5;" width="76" x="622.75" y="202.4844"/><text fill="#000000" font-family="sans-serif" font-size="14" lengthAdjust="spacing" textLength="56" x="632.75" y="225.4795">Projects</text><rect fill="#F1F1F1" height="36.2969" rx="12.5" ry="12.5" style="stroke:#181818;stroke-width:1.5;" width="103" x="609.25" y="263.7813"/><text fill="#000000" font-family="sans-serif" font-size="14" lengthAdjust="spacing" textLength="83" x="619.25" y="286.7764">ProjectPage</text><rect fill="#F1F1F1" height="52.5938" rx="12.5" ry="12.5" style="stroke:#181818;stroke-width:1.5;" width="141" x="115" y="325.0781"/><text fill="#000000" font-family="sans-serif" font-size="14" lengthAdjust="spacing" textLength="121" x="125" y="348.0732">ProjectPageTable</text><text fill="#000000" font-family="sans-serif" font-size="14" lengthAdjust="spacing" textLength="87" x="125" y="364.3701">(Project Info)</text><path d="M660.75,300.0781 L660.75,303.0781 C660.75,310.0781 185.5,315.0781 185.5,322.0781 L185.5,325.0781 " fill="none" style="stroke:#181818;stroke-width:1.0;"/><rect fill="#F1F1F1" height="52.5938" rx="12.5" ry="12.5" style="stroke:#181818;stroke-width:1.5;" width="67" x="276" y="325.0781"/><text fill="#000000" font-family="sans-serif" font-size="14" lengthAdjust="spacing" textLength="47" x="286" y="348.0732">Button</text><text fill="#000000" font-family="sans-serif" font-size="14" lengthAdjust="spacing" textLength="44" x="286" y="364.3701">(Back)</text><path d="M660.75,300.0781 L660.75,303.0781 C660.75,310.0781 309.5,315.0781 309.5,322.0781 L309.5,325.0781 " fill="none" style="stroke:#181818;stroke-width:1.0;"/><rect fill="#F1F1F1" height="52.5938" rx="12.5" ry="12.5" style="stroke:#181818;stroke-width:1.5;" width="143" x="363" y="325.0781"/><text fill="#000000" font-family="sans-serif" font-size="14" lengthAdjust="spacing" textLength="47" x="373" y="348.0732">Button</text><text fill="#000000" font-family="sans-serif" font-size="14" lengthAdjust="spacing" textLength="123" x="373" y="364.3701">(Product Backlog)</text><path d="M660.75,300.0781 L660.75,303.0781 C660.75,310.0781 434.5,315.0781 434.5,322.0781 L434.5,325.0781 " fill="none" style="stroke:#181818;stroke-width:1.0;"/><rect fill="#F1F1F1" height="52.5938" rx="12.5" ry="12.5" style="stroke:#181818;stroke-width:1.5;" width="78" x="526" y="325.0781"/><text fill="#000000" font-family="sans-serif" font-size="14" lengthAdjust="spacing" textLength="47" x="536" y="348.0732">Button</text><text fill="#000000" font-family="sans-serif" font-size="14" lengthAdjust="spacing" textLength="58" x="536" y="364.3701">(Sprints)</text><path d="M660.75,300.0781 L660.75,303.0781 C660.75,310.0781 565,315.0781 565,322.0781 L565,325.0781 " fill="none" style="stroke:#181818;stroke-width:1.0;"/><rect fill="#F1F1F1" height="52.5938" rx="12.5" ry="12.5" style="stroke:#181818;stroke-width:1.5;" width="105" x="624" y="325.0781"/><text fill="#000000" font-family="sans-serif" font-size="14" lengthAdjust="spacing" textLength="47" x="634" y="348.0732">Button</text><text fill="#000000" font-family="sans-serif" font-size="14" lengthAdjust="spacing" textLength="85" x="634" y="364.3701">(Resources)</text><rect fill="#F1F1F1" height="36.2969" rx="12.5" ry="12.5" style="stroke:#181818;stroke-width:1.5;" width="95" x="629" y="402.6719"/><text fill="#000000" font-family="sans-serif" font-size="14" lengthAdjust="spacing" textLength="75" x="639" y="425.667">Resources</text><rect fill="#F1F1F1" height="36.2969" rx="12.5" ry="12.5" style="stroke:#181818;stroke-width:1.5;" width="250" x="146.5" y="463.9688"/><text fill="#000000" font-family="sans-serif" font-size="14" lengthAdjust="spacing" textLength="230" x="156.5" y="486.9639">ResourceSuccessMessageModal</text><rect fill="#F1F1F1" height="36.2969" rx="12.5" ry="12.5" style="stroke:#181818;stroke-width:1.5;" width="86" x="163" y="525.2656"/><text fill="#000000" font-family="sans-serif" font-size="14" lengthAdjust="spacing" textLength="66" x="173" y="548.2607">Backdrop</text><path d="M271.5,500.2656 L271.5,503.2656 C271.5,510.2656 206,515.2656 206,522.2656 L206,525.2656 " fill="none" style="stroke:#181818;stroke-width:1.0;"/><rect fill="#F1F1F1" height="36.2969" rx="12.5" ry="12.5" style="stroke:#181818;stroke-width:1.5;" width="111" x="269" y="525.2656"/><text fill="#000000" font-family="sans-serif" font-size="14" lengthAdjust="spacing" textLength="91" x="279" y="548.2607">ModalOverlay</text><rect fill="#F1F1F1" height="36.2969" rx="12.5" ry="12.5" style="stroke:#181818;stroke-width:1.5;" width="52" x="298.5" y="586.5625"/><text fill="#000000" font-family="sans-serif" font-size="14" lengthAdjust="spacing" textLength="32" x="308.5" y="609.5576">Card</text><rect fill="#F1F1F1" height="52.5938" rx="12.5" ry="12.5" style="stroke:#181818;stroke-width:1.5;" width="71" x="289" y="647.8594"/><text fill="#000000" font-family="sans-serif" font-size="14" lengthAdjust="spacing" textLength="47" x="299" y="670.8545">Button</text><text fill="#000000" font-family="sans-serif" font-size="14" lengthAdjust="spacing" textLength="44" x="299" y="687.1514">(Okay)</text><path d="M324.5,622.8594 L324.5,625.8594 C324.5,632.8594 324.5,637.8594 324.5,644.8594 L324.5,647.8594 " fill="none" style="stroke:#181818;stroke-width:1.0;"/><path d="M324.5,561.5625 L324.5,564.5625 C324.5,571.5625 324.5,576.5625 324.5,583.5625 L324.5,586.5625 " fill="none" style="stroke:#181818;stroke-width:1.0;"/><path d="M271.5,500.2656 L271.5,503.2656 C271.5,510.2656 324.5,515.2656 324.5,522.2656 L324.5,525.2656 " fill="none" style="stroke:#181818;stroke-width:1.0;"/><path d="M676.5,438.9688 L676.5,441.9688 C676.5,448.9688 271.5,453.9688 271.5,460.9688 L271.5,463.9688 " fill="none" style="stroke:#181818;stroke-width:1.0;"/><rect fill="#F1F1F1" height="36.2969" rx="12.5" ry="12.5" style="stroke:#181818;stroke-width:1.5;" width="70" x="416.5" y="463.9688"/><text fill="#000000" font-family="sans-serif" font-size="14" lengthAdjust="spacing" textLength="50" x="426.5" y="486.9639">Header</text><path d="M676.5,438.9688 L676.5,441.9688 C676.5,448.9688 451.5,453.9688 451.5,460.9688 L451.5,463.9688 " fill="none" style="stroke:#181818;stroke-width:1.0;"/><rect fill="#F1F1F1" height="52.5938" rx="12.5" ry="12.5" style="stroke:#181818;stroke-width:1.5;" width="67" x="506.5" y="463.9688"/><text fill="#000000" font-family="sans-serif" font-size="14" lengthAdjust="spacing" textLength="47" x="516.5" y="486.9639">Button</text><text fill="#000000" font-family="sans-serif" font-size="14" lengthAdjust="spacing" textLength="44" x="516.5" y="503.2607">(Back)</text><path d="M676.5,438.9688 L676.5,441.9688 C676.5,448.9688 540,453.9688 540,460.9688 L540,463.9688 " fill="none" style="stroke:#181818;stroke-width:1.0;"/><rect fill="#F1F1F1" height="52.5938" rx="12.5" ry="12.5" style="stroke:#181818;stroke-width:1.5;" width="128" x="739.25" y="463.9688"/><text fill="#000000" font-family="sans-serif" font-size="14" lengthAdjust="spacing" textLength="47" x="749.25" y="486.9639">Button</text><text fill="#000000" font-family="sans-serif" font-size="14" lengthAdjust="spacing" textLength="108" x="749.25" y="503.2607">(Add Resource)</text><rect fill="#F1F1F1" height="36.2969" rx="12.5" ry="12.5" style="stroke:#181818;stroke-width:1.5;" width="122" x="742.25" y="541.5625"/><text fill="#000000" font-family="sans-serif" font-size="14" lengthAdjust="spacing" textLength="102" x="752.25" y="564.5576">ResourceForm</text><rect fill="#F1F1F1" height="52.5938" rx="12.5" ry="12.5" style="stroke:#181818;stroke-width:1.5;" width="67" x="400" y="602.8594"/><text fill="#000000" font-family="sans-serif" font-size="14" lengthAdjust="spacing" textLength="47" x="410" y="625.8545">Button</text><text fill="#000000" font-family="sans-serif" font-size="14" lengthAdjust="spacing" textLength="44" x="410" y="642.1514">(Back)</text><path d="M803.25,577.8594 L803.25,580.8594 C803.25,587.8594 433.5,592.8594 433.5,599.8594 L433.5,602.8594 " fill="none" style="stroke:#181818;stroke-width:1.0;"/><rect fill="#F1F1F1" height="52.5938" rx="12.5" ry="12.5" style="stroke:#181818;stroke-width:1.5;" width="71" x="487" y="602.8594"/><text fill="#000000" font-family="sans-serif" font-size="14" lengthAdjust="spacing" textLength="47" x="497" y="625.8545">Button</text><text fill="#000000" font-family="sans-serif" font-size="14" lengthAdjust="spacing" textLength="51" x="497" y="642.1514">(Reset)</text><path d="M803.25,577.8594 L803.25,580.8594 C803.25,587.8594 522.5,592.8594 522.5,599.8594 L522.5,602.8594 " fill="none" style="stroke:#181818;stroke-width:1.0;"/><rect fill="#F1F1F1" height="52.5938" rx="12.5" ry="12.5" style="stroke:#181818;stroke-width:1.5;" width="128" x="578" y="602.8594"/><text fill="#000000" font-family="sans-serif" font-size="14" lengthAdjust="spacing" textLength="47" x="588" y="625.8545">Button</text><text fill="#000000" font-family="sans-serif" font-size="14" lengthAdjust="spacing" textLength="108" x="588" y="642.1514">(Add Resource)</text><path d="M803.25,577.8594 L803.25,580.8594 C803.25,587.8594 642,592.8594 642,599.8594 L642,602.8594 " fill="none" style="stroke:#181818;stroke-width:1.0;"/><rect fill="#F1F1F1" height="36.2969" rx="12.5" ry="12.5" style="stroke:#181818;stroke-width:1.5;" width="181" x="757.25" y="602.8594"/><text fill="#000000" font-family="sans-serif" font-size="14" lengthAdjust="spacing" textLength="161" x="767.25" y="625.8545">ConfirmResourceModal</text><rect fill="#F1F1F1" height="36.2969" rx="12.5" ry="12.5" style="stroke:#181818;stroke-width:1.5;" width="86" x="726" y="664.1563"/><text fill="#000000" font-family="sans-serif" font-size="14" lengthAdjust="spacing" textLength="66" x="736" y="687.1514">Backdrop</text><path d="M847.75,639.1563 L847.75,642.1563 C847.75,649.1563 769,654.1563 769,661.1563 L769,664.1563 " fill="none" style="stroke:#181818;stroke-width:1.0;"/><rect fill="#F1F1F1" height="36.2969" rx="12.5" ry="12.5" style="stroke:#181818;stroke-width:1.5;" width="111" x="832" y="664.1563"/><text fill="#000000" font-family="sans-serif" font-size="14" lengthAdjust="spacing" textLength="91" x="842" y="687.1514">ModalOverlay</text><rect fill="#F1F1F1" height="36.2969" rx="12.5" ry="12.5" style="stroke:#181818;stroke-width:1.5;" width="52" x="861.5" y="725.4531"/><text fill="#000000" font-family="sans-serif" font-size="14" lengthAdjust="spacing" textLength="32" x="871.5" y="748.4482">Card</text><rect fill="#F1F1F1" height="52.5938" rx="12.5" ry="12.5" style="stroke:#181818;stroke-width:1.5;" width="67" x="805.5" y="786.75"/><text fill="#000000" font-family="sans-serif" font-size="14" lengthAdjust="spacing" textLength="47" x="815.5" y="809.7451">Button</text><text fill="#000000" font-family="sans-serif" font-size="14" lengthAdjust="spacing" textLength="43" x="815.5" y="826.042">(Save)</text><path d="M887.5,761.75 L887.5,764.75 C887.5,771.75 839,776.75 839,783.75 L839,786.75 " fill="none" style="stroke:#181818;stroke-width:1.0;"/><rect fill="#F1F1F1" height="52.5938" rx="12.5" ry="12.5" style="stroke:#181818;stroke-width:1.5;" width="77" x="892.5" y="786.75"/><text fill="#000000" font-family="sans-serif" font-size="14" lengthAdjust="spacing" textLength="47" x="902.5" y="809.7451">Button</text><text fill="#000000" font-family="sans-serif" font-size="14" lengthAdjust="spacing" textLength="57" x="902.5" y="826.042">(Cancel)</text><path d="M887.5,761.75 L887.5,764.75 C887.5,771.75 931,776.75 931,783.75 L931,786.75 " fill="none" style="stroke:#181818;stroke-width:1.0;"/><path d="M887.5,700.4531 L887.5,703.4531 C887.5,710.4531 887.5,715.4531 887.5,722.4531 L887.5,725.4531 " fill="none" style="stroke:#181818;stroke-width:1.0;"/><path d="M847.75,639.1563 L847.75,642.1563 C847.75,649.1563 887.5,654.1563 887.5,661.1563 L887.5,664.1563 " fill="none" style="stroke:#181818;stroke-width:1.0;"/><path d="M803.25,577.8594 L803.25,580.8594 C803.25,587.8594 847.75,592.8594 847.75,599.8594 L847.75,602.8594 " fill="none" style="stroke:#181818;stroke-width:1.0;"/><rect fill="#F1F1F1" height="36.2969" rx="12.5" ry="12.5" style="stroke:#181818;stroke-width:1.5;" width="161" x="1017.5" y="602.8594"/><text fill="#000000" font-family="sans-serif" font-size="14" lengthAdjust="spacing" textLength="141" x="1027.5" y="625.8545">ErrorResourceModal</text><rect fill="#F1F1F1" height="36.2969" rx="12.5" ry="12.5" style="stroke:#181818;stroke-width:1.5;" width="86" x="989.5" y="664.1563"/><text fill="#000000" font-family="sans-serif" font-size="14" lengthAdjust="spacing" textLength="66" x="999.5" y="687.1514">Backdrop</text><path d="M1098,639.1563 L1098,642.1563 C1098,649.1563 1032.5,654.1563 1032.5,661.1563 L1032.5,664.1563 " fill="none" style="stroke:#181818;stroke-width:1.0;"/><rect fill="#F1F1F1" height="36.2969" rx="12.5" ry="12.5" style="stroke:#181818;stroke-width:1.5;" width="111" x="1095.5" y="664.1563"/><text fill="#000000" font-family="sans-serif" font-size="14" lengthAdjust="spacing" textLength="91" x="1105.5" y="687.1514">ModalOverlay</text><rect fill="#F1F1F1" height="36.2969" rx="12.5" ry="12.5" style="stroke:#181818;stroke-width:1.5;" width="52" x="1125" y="725.4531"/><text fill="#000000" font-family="sans-serif" font-size="14" lengthAdjust="spacing" textLength="32" x="1135" y="748.4482">Card</text><rect fill="#F1F1F1" height="52.5938" rx="12.5" ry="12.5" style="stroke:#181818;stroke-width:1.5;" width="71" x="1115.5" y="786.75"/><text fill="#000000" font-family="sans-serif" font-size="14" lengthAdjust="spacing" textLength="47" x="1125.5" y="809.7451">Button</text><text fill="#000000" font-family="sans-serif" font-size="14" lengthAdjust="spacing" textLength="44" x="1125.5" y="826.042">(Okay)</text><path d="M1151,761.75 L1151,764.75 C1151,771.75 1151,776.75 1151,783.75 L1151,786.75 " fill="none" style="stroke:#181818;stroke-width:1.0;"/><path d="M1151,700.4531 L1151,703.4531 C1151,710.4531 1151,715.4531 1151,722.4531 L1151,725.4531 " fill="none" style="stroke:#181818;stroke-width:1.0;"/><path d="M1098,639.1563 L1098,642.1563 C1098,649.1563 1151,654.1563 1151,661.1563 L1151,664.1563 " fill="none" style="stroke:#181818;stroke-width:1.0;"/><path d="M803.25,577.8594 L803.25,580.8594 C803.25,587.8594 1098,592.8594 1098,599.8594 L1098,602.8594 " fill="none" style="stroke:#181818;stroke-width:1.0;"/><path d="M803.25,516.5625 L803.25,519.5625 C803.25,526.5625 803.25,531.5625 803.25,538.5625 L803.25,541.5625 " fill="none" style="stroke:#181818;stroke-width:1.0;"/><path d="M676.5,438.9688 L676.5,441.9688 C676.5,448.9688 803.25,453.9688 803.25,460.9688 L803.25,463.9688 " fill="none" style="stroke:#181818;stroke-width:1.0;"/><path d="M676.5,377.6719 L676.5,380.6719 C676.5,387.6719 676.5,392.6719 676.5,399.6719 L676.5,402.6719 " fill="none" style="stroke:#181818;stroke-width:1.0;"/><path d="M660.75,300.0781 L660.75,303.0781 C660.75,310.0781 676.5,315.0781 676.5,322.0781 L676.5,325.0781 " fill="none" style="stroke:#181818;stroke-width:1.0;"/><path d="M660.75,238.7813 L660.75,241.7813 C660.75,248.7813 660.75,253.7813 660.75,260.7813 L660.75,263.7813 " fill="none" style="stroke:#181818;stroke-width:1.0;"/><path d="M660.75,177.4844 L660.75,180.4844 C660.75,187.4844 660.75,192.4844 660.75,199.4844 L660.75,202.4844 " fill="none" style="stroke:#181818;stroke-width:1.0;"/><path d="M613.25,116.1875 L613.25,119.1875 C613.25,126.1875 660.75,131.1875 660.75,138.1875 L660.75,141.1875 " fill="none" style="stroke:#181818;stroke-width:1.0;"/><!--SRC=[xLPDRzf04BtlhvXJ6r3v25GjGLMLa90MYWkA8RtaChO7sCQxQwtNHFdt7JjyEI5jfQet3fQyxysyUHvxHZvF7Lgdf8uK9kBjqhaaxJOQIOpQPIgkXqOrrcmjahYmg8HmqiK4Cx_Pwa0DBbBmKEE2x3iOm0CdWZE0QMf2YOu08Kl9CW1JGWKUgO2FPiv4OirF2Xr83Mv9y401p0RrEvrBdxqg7T5SQYeo9kC_2hMRVoFaUxyJ4iuaUK9Wd3CA8cavHXejH1K-lLd49g3F5qaIon0Bk5g5xxWAqF9TSJjmf7BKGwblJEQe82PFnTByi3rDs6K1b90f1Z7TwPCr10CzDvLrM2zZLvh97eRtBq3EY3BEoCdOBCeyS82VMAbT-fAueTHaDgGDLOKjiWPsY9-53ASUN-pMCn76cvXgKJgo9jaXHS1uHJR6norQXKkqqUwuxsLyZu-LRTMlX15PKGuhDs0VleYYhT7ApiG6kZPMYUT5dwlj4vn8xY1pk18_cD5pQTM6AlVdK8TUxT7BBktNzt6rNxV4NQ8EATvtrRVMsF_hQVVkX3WdtYFhJIFEIuldk5AEA-MuKeuhvPzMoYJ_QPbv8s2nb6S6JkkjPgjTRvzCbndFYONc6Pn-xBQRtTCE_EXF8QShukJBP0HFZdaEKsTbaEKpLn53N27SPDf9HLqO9wI7Lzys0FJrIbgZ5MadXhVUBk33-rfFEl39iXEuzSGLpJ6B7MU49f9wqONPzBhM4IFKYum_xYwG5fU6TUqZS_ul]--></g></svg>