<?xml version="1.0" encoding="us-ascii" standalone="no"?><svg xmlns="http://www.w3.org/2000/svg" xmlns:xlink="http://www.w3.org/1999/xlink" contentStyleType="text/css" height="434px" preserveAspectRatio="none" style="width:549px;height:434px;background:#FFFFFF;" version="1.1" viewBox="0 0 549 434" width="549px" zoomAndPan="magnify"><defs/><g><text fill="#000000" font-family="sans-serif" font-size="14" font-weight="bold" lengthAdjust="spacing" textLength="364" x="91" y="32.9951">US024 - As an Admin, I want to list all projects</text><rect fill="#F1F1F1" height="36.2969" rx="12.5" ry="12.5" style="stroke:#181818;stroke-width:1.5;" width="106.3333" x="220.3333" y="47.2969"/><path d="M236,60.7604 C233.4217,60.7604 231.3333,62.8487 231.3333,65.4271 C231.3333,68.0054 233.4217,70.0938 236,70.0938 C238.5783,70.0938 240.6667,68.0054 240.6667,65.4271 C240.6667,62.8487 238.5783,60.7604 236,60.7604 M236,61.9271 C236.385,61.9271 236.7467,62.0321 237.0967,62.1488 C236.8517,62.3821 236.5717,62.5921 236.6183,62.8021 C236.665,63.0121 237.4233,62.9538 237.4233,63.3854 C237.4233,63.7004 236.9333,63.7937 237.2717,64.1554 C237.68,64.5638 236.525,65.2988 236.5017,65.8354 C236.4667,66.8038 237.4817,66.9671 238.2867,66.9671 C238.7767,66.9671 238.905,67.2004 238.87,67.4804 C238.24,68.3788 237.1667,68.9388 235.9883,68.9388 C235.545,68.9388 235.1367,68.8338 234.7517,68.6821 C235.0083,68.1688 234.425,67.1538 233.8767,66.8271 C233.6083,66.5588 233.0367,66.6638 232.71,66.5354 C232.605,66.2204 232.5,65.9054 232.4883,65.5554 C232.5233,65.4971 232.5817,65.4504 232.675,65.4504 C232.8967,65.4504 233.2,65.8938 233.3633,65.8471 C233.5733,65.8004 232.5,64.3188 233.0017,64.0271 C233.235,63.8871 233.7017,64.4821 233.55,63.8404 C233.41,63.2454 233.97,63.5137 234.32,63.3621 C234.6233,63.2338 234.845,62.8838 234.4717,62.6738 C234.4017,62.6387 234.32,62.5571 234.215,62.4521 C234.74,62.1371 235.3467,61.9388 236,61.9388 M238.695,63.1988 C238.905,63.4554 239.0683,63.7354 239.2083,64.0388 C239.2083,64.0504 239.2083,64.0621 239.2083,64.0738 C239.1617,64.1554 239.08,64.2021 238.9517,64.3304 C238.625,64.6571 238.5783,64.0854 238.4383,63.9688 C238.2867,63.8288 237.7383,63.9921 237.6683,63.8171 C237.5867,63.6071 238.2517,63.3271 238.695,63.1988 " fill="#000000" style="stroke:;stroke-width:0.0;stroke-dasharray:;"/><text fill="#000000" font-family="sans-serif" font-size="14" lengthAdjust="spacing" textLength="75" x="241.6667" y="70.292">Application</text><rect fill="#F1F1F1" height="36.2969" rx="12.5" ry="12.5" style="stroke:#181818;stroke-width:1.5;" width="67" x="24" y="108.5938"/><text fill="#000000" font-family="sans-serif" font-size="14" lengthAdjust="spacing" textLength="47" x="34" y="131.5889">Navbar</text><rect fill="#F1F1F1" height="36.2969" rx="12.5" ry="12.5" style="stroke:#181818;stroke-width:1.5;" width="75" x="20" y="169.8906"/><text fill="#000000" font-family="sans-serif" font-size="14" lengthAdjust="spacing" textLength="55" x="30" y="192.8857">NavItem</text><path d="M57.5,144.8906 L57.5,147.8906 C57.5,154.8906 57.5,159.8906 57.5,166.8906 L57.5,169.8906 " fill="none" style="stroke:#181818;stroke-width:1.0;"/><path d="M273.5,83.5938 L273.5,86.5938 C273.5,93.5938 57.5,98.5938 57.5,105.5938 L57.5,108.5938 " fill="none" style="stroke:#181818;stroke-width:1.0;"/><rect fill="#F1F1F1" height="36.2969" rx="12.5" ry="12.5" style="stroke:#181818;stroke-width:1.5;" width="94" x="274" y="108.5938"/><text fill="#000000" font-family="sans-serif" font-size="14" lengthAdjust="spacing" textLength="74" x="284" y="131.5889">MainRoute</text><rect fill="#F1F1F1" height="36.2969" rx="12.5" ry="12.5" style="stroke:#181818;stroke-width:1.5;" width="76" x="283" y="169.8906"/><text fill="#000000" font-family="sans-serif" font-size="14" lengthAdjust="spacing" textLength="56" x="293" y="192.8857">Projects</text><rect fill="#F1F1F1" height="52.5938" rx="12.5" ry="12.5" style="stroke:#181818;stroke-width:1.5;" width="173" x="115" y="231.1875"/><text fill="#000000" font-family="sans-serif" font-size="14" lengthAdjust="spacing" textLength="47" x="125" y="254.1826">Button</text><text fill="#000000" font-family="sans-serif" font-size="14" lengthAdjust="spacing" textLength="153" x="125" y="270.4795">(Create a new Project)</text><path d="M321,206.1875 L321,209.1875 C321,216.1875 201.5,221.1875 201.5,228.1875 L201.5,231.1875 " fill="none" style="stroke:#181818;stroke-width:1.0;"/><rect fill="#F1F1F1" height="52.5938" rx="12.5" ry="12.5" style="stroke:#181818;stroke-width:1.5;" width="105" x="308" y="231.1875"/><text fill="#000000" font-family="sans-serif" font-size="14" lengthAdjust="spacing" textLength="38" x="318" y="254.1826">Table</text><text fill="#000000" font-family="sans-serif" font-size="14" lengthAdjust="spacing" textLength="85" x="318" y="270.4795">(Project List)</text><rect fill="#F1F1F1" height="36.2969" rx="12.5" ry="12.5" style="stroke:#181818;stroke-width:1.5;" width="164" x="194" y="308.7813"/><text fill="#000000" font-family="sans-serif" font-size="14" lengthAdjust="spacing" textLength="144" x="204" y="331.7764">TableHeaderProjects</text><path d="M360.5,283.7813 L360.5,286.7813 C360.5,293.7813 276,298.7813 276,305.7813 L276,308.7813 " fill="none" style="stroke:#181818;stroke-width:1.0;"/><rect fill="#F1F1F1" height="36.2969" rx="12.5" ry="12.5" style="stroke:#181818;stroke-width:1.5;" width="149" x="378" y="308.7813"/><text fill="#000000" font-family="sans-serif" font-size="14" lengthAdjust="spacing" textLength="129" x="388" y="331.7764">TableBodyProjects</text><rect fill="#F1F1F1" height="52.5938" rx="12.5" ry="12.5" style="stroke:#181818;stroke-width:1.5;" width="114" x="395.5" y="370.0781"/><text fill="#000000" font-family="sans-serif" font-size="14" lengthAdjust="spacing" textLength="47" x="405.5" y="393.0732">Button</text><text fill="#000000" font-family="sans-serif" font-size="14" lengthAdjust="spacing" textLength="94" x="405.5" y="409.3701">(View Project)</text><path d="M452.5,345.0781 L452.5,348.0781 C452.5,355.0781 452.5,360.0781 452.5,367.0781 L452.5,370.0781 " fill="none" style="stroke:#181818;stroke-width:1.0;"/><path d="M360.5,283.7813 L360.5,286.7813 C360.5,293.7813 452.5,298.7813 452.5,305.7813 L452.5,308.7813 " fill="none" style="stroke:#181818;stroke-width:1.0;"/><path d="M321,206.1875 L321,209.1875 C321,216.1875 360.5,221.1875 360.5,228.1875 L360.5,231.1875 " fill="none" style="stroke:#181818;stroke-width:1.0;"/><path d="M321,144.8906 L321,147.8906 C321,154.8906 321,159.8906 321,166.8906 L321,169.8906 " fill="none" style="stroke:#181818;stroke-width:1.0;"/><path d="M273.5,83.5938 L273.5,86.5938 C273.5,93.5938 321,98.5938 321,105.5938 L321,108.5938 " fill="none" style="stroke:#181818;stroke-width:1.0;"/><!--SRC=[xPBDJnin4CNl_YlcH9E8V2EWgmeb0Ke92Ot8Ho-zpEuEYojxlFAEW_Zlwms98DUUUxFVx_bv_EHH9UZ5QiujbkhBYqXP9TrkQP0bMDF9dEtkQJlNM7YqIYdHOWZMozxW3DemhW0PnddqdS8zlCQZ80wChWJG62Yz-qEPL4fSMOFKYJWBkVPHrOwLQi6tayAubAx6PMbqXZkvrO97tAReusgtl1UojJf7pKyk2Et0uX3VgdUJ4CCPVdFZsXCA0GBJwy7KV3UjC8tpG-tQ0vZ5QT_f7lyWpCaVXU_9nELln_hdQpVwytLAZOZpGxzgT5Jt_oB_kSX5_K7NynbioLVnZT3l37g3OMVOMBs4-2uFlQ_GlqY6lQH_2RzkLr3ZfchSBMPGkU0pYhrLudKQwewQQefRXAV0eYqbyBCadjuy70IuvQtsZYsngEbc_c4uFsjFjC2IV9m4DdDrGyyOZCGJcSir5mciLz_Rbsg6N0GiOZQnkdOnrxz5jlmB]--></g></svg>