<svg version="1.1" xmlns="http://www.w3.org/2000/svg" viewBox="0 0 581.5999755859375 365.5999755859375" width="581.5999755859375" height="365.5999755859375">
  <!-- svg-source:excalidraw -->
  
  <defs>
    <style class="style-fonts">
      @font-face {
        font-family: "Virgil";
        src: url("https://excalidraw.com/Virgil.woff2");
      }
      @font-face {
        font-family: "Cascadia";
        src: url("https://excalidraw.com/Cascadia.woff2");
      }
    </style>
  </defs>
  <g stroke-linecap="round" transform="translate(10 10) rotate(0 280.79998779296875 172.79998779296875)"><path d="M32 0 M32 0 C198.03 0.54, 363.28 1.45, 529.6 0 M32 0 C208.94 0.85, 386.4 0.85, 529.6 0 M529.6 0 C552.77 1.97, 562.94 11.01, 561.6 32 M529.6 0 C548.67 0.18, 563.19 10.15, 561.6 32 M561.6 32 C563.53 107.12, 561.43 185.28, 561.6 313.6 M561.6 32 C562.07 130.19, 561.25 227.92, 561.6 313.6 M561.6 313.6 C562.71 336.6, 552.22 346.64, 529.6 345.6 M561.6 313.6 C561.48 333.53, 553.23 343.68, 529.6 345.6 M529.6 345.6 C383.47 346.45, 235.37 346.71, 32 345.6 M529.6 345.6 C390.79 346.64, 252.04 347.09, 32 345.6 M32 345.6 C11.91 346.87, -0.68 335.96, 0 313.6 M32 345.6 C11.26 345.12, -1.09 336.23, 0 313.6 M0 313.6 C-1.62 242.12, -1.52 170.2, 0 32 M0 313.6 C-1.38 201.7, -1.03 89.53, 0 32 M0 32 C-0.73 9.25, 9.03 -0.15, 32 0 M0 32 C-0.13 10.31, 9.31 0.54, 32 0" stroke="#415a77" stroke-width="1" fill="none"></path></g><g stroke-linecap="round" transform="translate(143.99996948242188 36.19995880126953) rotate(0 208.00001525878906 154.00000762939453)"><path d="M32 0 M32 0 C117.74 2.25, 201.93 1.18, 384 0 M32 0 C116.26 1.5, 200.76 2.74, 384 0 M384 0 C406.67 0.34, 414.03 10.82, 416 32 M384 0 C406.92 -0.51, 415.31 11.62, 416 32 M416 32 C416.23 115.59, 418.16 196.6, 416 276 M416 32 C417.42 113.87, 418.09 195.81, 416 276 M416 276 C417.29 298.38, 405.23 306.78, 384 308 M416 276 C418.3 295.41, 405.22 309.83, 384 308 M384 308 C255.8 306.65, 128.73 307.58, 32 308 M384 308 C259.89 308.35, 134.94 308.12, 32 308 M32 308 C9.99 309.02, 0.52 296.91, 0 276 M32 308 C9.58 309.3, -1.03 298.06, 0 276 M0 276 C0.33 192.96, 2.85 110.2, 0 32 M0 276 C0.8 209.91, 0.41 143.49, 0 32 M0 32 C-1.64 10.52, 10.56 -0.31, 32 0 M0 32 C-1.36 11.21, 11.51 1.89, 32 0" stroke="#343a40" stroke-width="1" fill="none"></path></g><g stroke-linecap="round" transform="translate(20.79998779296875 32.999977111816406) rotate(0 58 156.0000228881836)"><path d="M29 0 M29 0 C42.78 -1.22, 53.1 -1.19, 87 0 M29 0 C41.95 1.53, 53.73 0.72, 87 0 M87 0 C104.37 0.16, 117.38 9.22, 116 29 M87 0 C105.65 0.95, 116.86 11.24, 116 29 M116 29 C115.34 89.27, 115.13 151.08, 116 283 M116 29 C115.9 118.26, 115.98 206.59, 116 283 M116 283 C115.9 301.12, 108.33 310.33, 87 312 M116 283 C115.89 304.17, 107.76 314.18, 87 312 M87 312 C72.04 312.98, 59 312.7, 29 312 M87 312 C70.96 313.21, 53.33 313.09, 29 312 M29 312 C10.18 311.58, -0.95 303.46, 0 283 M29 312 C8.63 312.72, 0.95 300.92, 0 283 M0 283 C2.71 201.74, 0.65 118.23, 0 29 M0 283 C-0.51 203.64, -0.88 125.36, 0 29 M0 29 C-0.11 9.36, 8.48 0.47, 29 0 M0 29 C0.84 11.56, 11.84 0.81, 29 0" stroke="#343a40" stroke-width="1" fill="none"></path></g><g stroke-linecap="round" transform="translate(31.999969482421875 86.5999984741211) rotate(0 47.19999694824219 15.20001220703125)"><path d="M7.6 0 M7.6 0 C32.56 -0.6, 58.11 0.98, 86.8 0 M7.6 0 C24.57 -0.61, 39.21 -0.7, 86.8 0 M86.8 0 C93.25 -0.45, 93.8 3.36, 94.4 7.6 M86.8 0 C92.73 1.57, 92.97 0.94, 94.4 7.6 M94.4 7.6 C94.99 14.53, 95.21 18.59, 94.4 22.8 M94.4 7.6 C94.97 13.13, 94.44 17.4, 94.4 22.8 M94.4 22.8 C96.4 26.19, 91.77 31.99, 86.8 30.4 M94.4 22.8 C95.83 30.05, 90.73 29.15, 86.8 30.4 M86.8 30.4 C65.52 31.63, 41.8 32.75, 7.6 30.4 M86.8 30.4 C54.83 31.41, 23.79 30.69, 7.6 30.4 M7.6 30.4 C1.59 31.53, -0.9 28.5, 0 22.8 M7.6 30.4 C3.49 28.99, 0.53 26.6, 0 22.8 M0 22.8 C-0.6 17.43, 0.01 13.3, 0 7.6 M0 22.8 C-0.57 18.41, 0.01 14.02, 0 7.6 M0 7.6 C-1.18 3.01, 3.26 1.65, 7.6 0 M0 7.6 C2.18 3.34, 1.76 0.12, 7.6 0" stroke="#000000" stroke-width="1" fill="none"></path></g><g stroke-linecap="round" transform="translate(32.39997863769531 126.39995574951172) rotate(0 47.19999694824219 15.20001220703125)"><path d="M7.6 0 M7.6 0 C25.36 0.97, 44.94 2.24, 86.8 0 M7.6 0 C38.17 -0.06, 71.4 -0.36, 86.8 0 M86.8 0 C91.27 0.83, 95.15 3.9, 94.4 7.6 M86.8 0 C90.43 -1.6, 96.12 3.62, 94.4 7.6 M94.4 7.6 C95.19 11.65, 95.02 17.35, 94.4 22.8 M94.4 7.6 C94.46 12.97, 95.26 18.62, 94.4 22.8 M94.4 22.8 C94.3 29.46, 93.11 32.3, 86.8 30.4 M94.4 22.8 C93.27 26.62, 91.46 29.92, 86.8 30.4 M86.8 30.4 C58.51 32.64, 32.72 31.96, 7.6 30.4 M86.8 30.4 C58.27 30.6, 28.74 31.37, 7.6 30.4 M7.6 30.4 C1.64 31.03, 0.83 26.64, 0 22.8 M7.6 30.4 C3.07 29.13, 0.41 30.11, 0 22.8 M0 22.8 C0.2 17.61, -0.18 11.55, 0 7.6 M0 22.8 C0.08 19.2, -0.32 16.01, 0 7.6 M0 7.6 C0.73 4.18, 4.43 0.7, 7.6 0 M0 7.6 C-0.78 2.66, 1.22 0.25, 7.6 0" stroke="#000000" stroke-width="1" fill="none"></path></g><g stroke-linecap="round" transform="translate(31.599990844726562 164.59996795654297) rotate(0 47.19999694824219 15.20001220703125)"><path d="M7.6 0 M7.6 0 C25.47 1.62, 49.09 1.12, 86.8 0 M7.6 0 C33.41 -0.29, 57.54 0.35, 86.8 0 M86.8 0 C92.62 1.37, 93.15 1.14, 94.4 7.6 M86.8 0 C93.59 1.09, 94.24 3.32, 94.4 7.6 M94.4 7.6 C95.05 14.23, 95.74 20.16, 94.4 22.8 M94.4 7.6 C95.15 12.32, 94.36 18.91, 94.4 22.8 M94.4 22.8 C95.64 29.77, 90.88 29.31, 86.8 30.4 M94.4 22.8 C94 27.39, 93.11 31.65, 86.8 30.4 M86.8 30.4 C61.87 32.41, 34.23 30.48, 7.6 30.4 M86.8 30.4 C58.52 30.8, 30.73 30.55, 7.6 30.4 M7.6 30.4 C3.36 29.17, 0.46 26.77, 0 22.8 M7.6 30.4 C2.94 32.65, 1.19 27.18, 0 22.8 M0 22.8 C-0.25 18.22, -1.09 13.51, 0 7.6 M0 22.8 C-0.44 18.53, 0.29 14.53, 0 7.6 M0 7.6 C1.89 3.24, 1.86 0.11, 7.6 0 M0 7.6 C-1.32 2.79, 3.9 -2, 7.6 0" stroke="#000000" stroke-width="1" fill="none"></path></g><g stroke-linecap="round" transform="translate(31.399978637695312 206.5999984741211) rotate(0 47.19999694824219 15.20001220703125)"><path d="M7.6 0 M7.6 0 C35.57 0.61, 59.95 -2.7, 86.8 0 M7.6 0 C31.69 0.59, 56.75 0.86, 86.8 0 M86.8 0 C90.62 -1.39, 95.9 3.48, 94.4 7.6 M86.8 0 C91.71 0.79, 96.26 3.65, 94.4 7.6 M94.4 7.6 C95.73 12.74, 95.25 15.84, 94.4 22.8 M94.4 7.6 C94.52 11.84, 95.02 15.59, 94.4 22.8 M94.4 22.8 C93.41 26.78, 91.52 29.99, 86.8 30.4 M94.4 22.8 C95.64 29.12, 92.78 30.11, 86.8 30.4 M86.8 30.4 C56.71 30.22, 25.1 31.41, 7.6 30.4 M86.8 30.4 C64.25 31.16, 43.02 30.23, 7.6 30.4 M7.6 30.4 C3 29.3, 0.35 29.82, 0 22.8 M7.6 30.4 C3.72 29.72, -0.82 28.1, 0 22.8 M0 22.8 C-1.05 16.83, -0.09 13.28, 0 7.6 M0 22.8 C0.37 19.1, 0.81 14.42, 0 7.6 M0 7.6 C-0.67 2.64, 1.39 0.22, 7.6 0 M0 7.6 C1.36 0.53, 4.78 1.4, 7.6 0" stroke="#000000" stroke-width="1" fill="none"></path></g><g transform="translate(56 11.400007629394537) rotate(0 28.149999618530273 9.599999999999994)"><text x="0" y="0" font-family="Cascadia, Segoe UI Emoji" font-size="16px" fill="#000000" text-anchor="start" style="white-space: pre;" direction="ltr" dominant-baseline="text-before-edge">NavBar</text></g><g transform="translate(191.99993896484375 12.199974060058594) rotate(0 37.53333282470703 9.599999999999994)"><text x="0" y="0" font-family="Cascadia, Segoe UI Emoji" font-size="16px" fill="#000000" text-anchor="start" style="white-space: pre;" direction="ltr" dominant-baseline="text-before-edge">Projects</text></g><g stroke-linecap="round" transform="translate(170.60003662109375 121.9999771118164) rotate(0 54.899993896484375 8.399986267089844)"><path d="M4.2 0 M4.2 0 C24.2 -1.3, 45.92 0.05, 105.6 0 M4.2 0 C42.31 1.18, 78.85 1.05, 105.6 0 M105.6 0 C110.02 0.98, 109.27 2.15, 109.8 4.2 M105.6 0 C109.67 1.92, 111.28 2.6, 109.8 4.2 M109.8 4.2 C109.05 6.64, 110.42 9.68, 109.8 12.6 M109.8 4.2 C109.68 7.43, 109.99 11.06, 109.8 12.6 M109.8 12.6 C110.6 15.15, 110.32 18.79, 105.6 16.8 M109.8 12.6 C111.23 16.86, 107.62 17.98, 105.6 16.8 M105.6 16.8 C73.69 15.42, 40.16 17.15, 4.2 16.8 M105.6 16.8 C81.59 17.22, 57.74 15.95, 4.2 16.8 M4.2 16.8 C0.69 17, 0.21 15.1, 0 12.6 M4.2 16.8 C0.56 15.17, -1.89 15.23, 0 12.6 M0 12.6 C0.21 10.43, 0.7 8.45, 0 4.2 M0 12.6 C-0.21 9.83, 0.28 6.6, 0 4.2 M0 4.2 C1.95 2.62, 3.19 0.82, 4.2 0 M0 4.2 C-1.85 -0.4, 2.06 0.04, 4.2 0" stroke="#000000" stroke-width="1" fill="none"></path></g><g stroke-linecap="round"><g transform="translate(175.20001220703125 111.20000457763672) rotate(0 25.245960812643204 0.008049695629637199)"><path d="M-0.36 0.5 C7.98 0.68, 42.52 1.04, 50.85 0.82 M1.65 -0.29 C9.8 -0.42, 41.72 -0.93, 50.14 -0.87" stroke="#000000" stroke-width="1" fill="none"></path></g></g><mask></mask><g stroke-linecap="round" transform="translate(163.39999389648438 74.4000015258789) rotate(0 131.39999389648438 113.39998626708984)"><path d="M32 0 M32 0 C87.07 -1.99, 138.02 0.75, 230.8 0 M32 0 C101.87 -0.19, 169.85 -0.31, 230.8 0 M230.8 0 C253.24 1.67, 264.09 11.71, 262.8 32 M230.8 0 C252.01 -1.4, 265.1 8.74, 262.8 32 M262.8 32 C266 79.07, 263.01 127.77, 262.8 194.8 M262.8 32 C264.08 77.34, 264.64 123.93, 262.8 194.8 M262.8 194.8 C264.05 217.4, 251.46 227.82, 230.8 226.8 M262.8 194.8 C263.39 215.65, 251.04 228.1, 230.8 226.8 M230.8 226.8 C178.86 228.09, 128.27 227.98, 32 226.8 M230.8 226.8 C151.39 226.31, 72.8 226.06, 32 226.8 M32 226.8 C9.93 225.39, -1.64 215.98, 0 194.8 M32 226.8 C10.54 226.45, -1.36 216.68, 0 194.8 M0 194.8 C-0.64 139.35, -1.23 84.1, 0 32 M0 194.8 C0.01 144.79, -0.07 93.96, 0 32 M0 32 C-1.61 9.1, 11.24 0.04, 32 0 M0 32 C0.41 11.97, 9.48 1.95, 32 0" stroke="#000000" stroke-width="1" fill="none"></path></g><g stroke-linecap="round" transform="translate(295.8999938964844 120.23281387364636) rotate(0 54.899993896484375 8.399986267089844)"><path d="M4.2 0 M4.2 0 C37.04 2.13, 73.6 0.49, 105.6 0 M4.2 0 C37.83 -0.12, 72.54 0.34, 105.6 0 M105.6 0 C109.69 1.04, 109.7 0.18, 109.8 4.2 M105.6 0 C110.7 -1.92, 109.69 3.23, 109.8 4.2 M109.8 4.2 C109.42 7.1, 109.71 10.74, 109.8 12.6 M109.8 4.2 C110.24 7.59, 110.1 10.42, 109.8 12.6 M109.8 12.6 C109.12 16.42, 108.92 16.38, 105.6 16.8 M109.8 12.6 C108.71 16.7, 107.37 17.52, 105.6 16.8 M105.6 16.8 C69.87 17.39, 38.29 18.07, 4.2 16.8 M105.6 16.8 C78.29 16.75, 50.41 16.2, 4.2 16.8 M4.2 16.8 C-0.24 16.65, -0.11 15.09, 0 12.6 M4.2 16.8 C0.04 17.34, 0.84 17.29, 0 12.6 M0 12.6 C0.01 8.8, 0.06 6.47, 0 4.2 M0 12.6 C0.29 10.98, -0.42 8.7, 0 4.2 M0 4.2 C0.58 1.44, 1.75 1.13, 4.2 0 M0 4.2 C-1.19 3.35, 0.24 -1.02, 4.2 0" stroke="#000000" stroke-width="1" fill="none"></path></g><g stroke-linecap="round"><g transform="translate(300.4999694824219 109.43284133946668) rotate(0 25.11337308635001 -0.4319194630460572)"><path d="M0.9 0.57 C9.41 0.78, 41.91 0.41, 50.32 0.41 M-0.09 -0.18 C8.32 -0.27, 40.79 -1.28, 49.33 -1.5" stroke="#000000" stroke-width="1" fill="none"></path></g></g><mask></mask><g stroke-linecap="round" transform="translate(172.25001525878906 160.04492199050947) rotate(0 54.899993896484375 8.399986267089844)"><path d="M4.2 0 M4.2 0 C42.89 1.69, 81.18 -0.46, 105.6 0 M4.2 0 C39.08 -0.32, 72.61 -1.46, 105.6 0 M105.6 0 C110.4 -1.67, 109.7 2.99, 109.8 4.2 M105.6 0 C109.83 2.18, 108.67 0.15, 109.8 4.2 M109.8 4.2 C110.24 6.91, 109.68 9.75, 109.8 12.6 M109.8 4.2 C109.71 7.77, 109.96 10.82, 109.8 12.6 M109.8 12.6 C108.85 16.53, 107.5 17.43, 105.6 16.8 M109.8 12.6 C110.75 13.99, 108.93 15.53, 105.6 16.8 M105.6 16.8 C72.79 16.61, 41.37 17.53, 4.2 16.8 M105.6 16.8 C75.89 16.01, 47.77 15.93, 4.2 16.8 M4.2 16.8 C0.22 17.27, 0.73 17.05, 0 12.6 M4.2 16.8 C3.58 17.61, -0.78 15.52, 0 12.6 M0 12.6 C-0.74 11.38, 0.5 9.27, 0 4.2 M0 12.6 C0.19 9.74, 0.14 7.11, 0 4.2 M0 4.2 C-1.03 3.1, 0.39 -0.89, 4.2 0 M0 4.2 C-1.9 0.38, -0.43 0.81, 4.2 0" stroke="#000000" stroke-width="1" fill="none"></path></g><g stroke-linecap="round"><g transform="translate(176.84999084472656 149.24494945632978) rotate(0 25.053340203361586 -0.42475062619678283)"><path d="M0.97 0.59 C9.33 0.59, 41.73 0.38, 50.08 0.45 M0.02 -0.15 C8.21 -0.55, 40.53 -1.32, 48.97 -1.43" stroke="#000000" stroke-width="1" fill="none"></path></g></g><mask></mask><g stroke-linecap="round" transform="translate(297.5499725341797 158.27775875233942) rotate(0 54.899993896484375 8.399986267089844)"><path d="M4.2 0 M4.2 0 C43.59 1.38, 83.15 1.56, 105.6 0 M4.2 0 C40.91 -0.22, 75.58 1.41, 105.6 0 M105.6 0 C109.64 1.9, 108.81 0.31, 109.8 4.2 M105.6 0 C108 -0.48, 111.04 2.65, 109.8 4.2 M109.8 4.2 C110.62 7.58, 110.32 9.63, 109.8 12.6 M109.8 4.2 C109.62 7.39, 109.63 10.23, 109.8 12.6 M109.8 12.6 C110.63 14.17, 108.86 15.7, 105.6 16.8 M109.8 12.6 C110.21 17.65, 109.59 16.12, 105.6 16.8 M105.6 16.8 C78.49 16.17, 50.57 15.27, 4.2 16.8 M105.6 16.8 C75.35 16.88, 46.65 17.47, 4.2 16.8 M4.2 16.8 C3.29 17.5, -0.67 15.51, 0 12.6 M4.2 16.8 C0.08 17.05, 1.36 13.4, 0 12.6 M0 12.6 C0.29 8.58, -0.71 6.16, 0 4.2 M0 12.6 C-0.23 10.42, -0.23 7.34, 0 4.2 M0 4.2 C-1.66 0.51, -0.19 0.7, 4.2 0 M0 4.2 C-2.23 0.39, 3.37 -1.43, 4.2 0" stroke="#000000" stroke-width="1" fill="none"></path></g><g stroke-linecap="round"><g transform="translate(302.1499481201172 147.47778621815974) rotate(0 25.36301528622397 -0.08013427204846835)"><path d="M0.66 1 C9.25 1.03, 42.89 0.92, 51.17 0.63 M-0.45 0.48 C8.07 0.12, 42.3 -1.12, 50.63 -1.17" stroke="#000000" stroke-width="1" fill="none"></path></g></g><mask></mask><g stroke-linecap="round" transform="translate(173.25001525878906 204.04492199050947) rotate(0 54.899993896484375 8.399986267089844)"><path d="M4.2 0 M4.2 0 C41.27 -0.76, 75.04 1.34, 105.6 0 M4.2 0 C26.77 0.14, 47.6 -1.35, 105.6 0 M105.6 0 C108.05 -0.41, 110.88 2.49, 109.8 4.2 M105.6 0 C109.32 -0.29, 112.01 3.69, 109.8 4.2 M109.8 4.2 C110.28 7.46, 109.68 9.89, 109.8 12.6 M109.8 4.2 C109.94 6.94, 109.86 9.96, 109.8 12.6 M109.8 12.6 C110.15 17.35, 109.43 16.21, 105.6 16.8 M109.8 12.6 C108.98 15.63, 108.64 16.45, 105.6 16.8 M105.6 16.8 C78.75 15.86, 51.9 14.79, 4.2 16.8 M105.6 16.8 C73.73 17.99, 39.63 17.69, 4.2 16.8 M4.2 16.8 C0.26 17.02, 1.19 13.66, 0 12.6 M4.2 16.8 C3.64 18.2, 2.06 16.34, 0 12.6 M0 12.6 C0.08 10.9, 0.54 8.48, 0 4.2 M0 12.6 C-0.31 9.18, -0.29 6.28, 0 4.2 M0 4.2 C-1.94 0.52, 3.11 -1.25, 4.2 0 M0 4.2 C1.64 1.51, 2.49 0.76, 4.2 0" stroke="#000000" stroke-width="1" fill="none"></path></g><g stroke-linecap="round"><g transform="translate(177.84999084472656 193.24494945632978) rotate(0 25.021654926734072 0.19063924173963187)"><path d="M-0.06 -0.73 C8.41 -1, 43.2 -1.28, 51.6 -1 M-1.55 1.5 C6.8 1.29, 42.76 0.41, 51.28 0.01" stroke="#000000" stroke-width="1" fill="none"></path></g></g><mask></mask><g stroke-linecap="round" transform="translate(298.5499725341797 202.27775875233942) rotate(0 54.899993896484375 8.399986267089844)"><path d="M4.2 0 M4.2 0 C32.42 -1.11, 65.58 0.23, 105.6 0 M4.2 0 C44.07 0.34, 84.84 1.09, 105.6 0 M105.6 0 C109.2 -0.25, 111.72 3.39, 109.8 4.2 M105.6 0 C109.83 1.46, 109.02 2.58, 109.8 4.2 M109.8 4.2 C110.26 6.56, 110.05 10.02, 109.8 12.6 M109.8 4.2 C109.89 6.61, 110.04 8.08, 109.8 12.6 M109.8 12.6 C109.09 15.6, 108.61 16.5, 105.6 16.8 M109.8 12.6 C108.96 13.77, 106.51 16.63, 105.6 16.8 M105.6 16.8 C76.21 16.93, 47.53 18.09, 4.2 16.8 M105.6 16.8 C71.03 16.96, 38.21 15.98, 4.2 16.8 M4.2 16.8 C3.35 18.02, 1.79 16.22, 0 12.6 M4.2 16.8 C-0.45 15, 0.66 15.44, 0 12.6 M0 12.6 C0.67 9.51, -0.42 6.57, 0 4.2 M0 12.6 C-0.34 10.27, 0.43 8.05, 0 4.2 M0 4.2 C1.43 1.49, 2.35 0.66, 4.2 0 M0 4.2 C2.01 3.64, 0.4 -1.9, 4.2 0" stroke="#000000" stroke-width="1" fill="none"></path></g><g stroke-linecap="round"><g transform="translate(303.1499481201172 191.47778621815974) rotate(0 24.7998438416887 0.4545470352041434)"><path d="M-0.06 0.96 C8.27 1.31, 42.84 1.41, 51.15 1.14 M-1.55 0.41 C6.58 0.55, 42.21 -0.37, 50.59 -0.38" stroke="#000000" stroke-width="1" fill="none"></path></g></g><mask></mask><g stroke-linecap="round" transform="translate(183.0216452090134 236.80535942583242) rotate(0 25.673709349674823 10.227720145245343)"><path d="M5.11 0 M5.11 0 C19.15 -1.24, 28.31 -0.61, 46.23 0 M5.11 0 C17 -0.35, 29.04 0.77, 46.23 0 M46.23 0 C50.89 1.27, 50.67 2.73, 51.35 5.11 M46.23 0 C50.24 -0.48, 50.26 3, 51.35 5.11 M51.35 5.11 C50.75 7.96, 50.82 10.51, 51.35 15.34 M51.35 5.11 C51.22 9.23, 51.45 13.17, 51.35 15.34 M51.35 15.34 C50.61 17.34, 48 20.31, 46.23 20.46 M51.35 15.34 C51.22 18.4, 48.28 21, 46.23 20.46 M46.23 20.46 C33.1 20.17, 18.67 19.7, 5.11 20.46 M46.23 20.46 C34.42 20.71, 21.56 20.51, 5.11 20.46 M5.11 20.46 C0.1 18.89, 0.58 18.79, 0 15.34 M5.11 20.46 C2.11 21.76, -1.19 20.7, 0 15.34 M0 15.34 C-0.41 11.98, 0.4 9.25, 0 5.11 M0 15.34 C0.28 12.75, 0.15 10.28, 0 5.11 M0 5.11 C1.75 3.65, 0.84 -1.65, 5.11 0 M0 5.11 C0.31 1.84, 2.01 -1.99, 5.11 0" stroke="#000000" stroke-width="1" fill="none"></path></g><g transform="translate(186.71215292422164 53.19998779296873) rotate(0 51.608333587646484 9.599999999999994)"><text x="0" y="0" font-family="Cascadia, Segoe UI Emoji" font-size="16px" fill="#000000" text-anchor="start" style="white-space: pre;" direction="ltr" dominant-baseline="text-before-edge">ProjectForm</text></g><g stroke-linecap="round" transform="translate(244.55213250856696 235.36607707651376) rotate(0 25.673709349674823 10.227720145245343)"><path d="M5.11 0 M5.11 0 C20.48 0, 39.07 1.7, 46.23 0 M5.11 0 C17.72 0.58, 32.29 -0.25, 46.23 0 M46.23 0 C51.14 -1.72, 50.92 2.36, 51.35 5.11 M46.23 0 C48.76 -1.4, 50.2 2.33, 51.35 5.11 M51.35 5.11 C51.39 8.13, 52.16 13.17, 51.35 15.34 M51.35 5.11 C51.59 7.85, 51.81 11.57, 51.35 15.34 M51.35 15.34 C52.63 17.67, 50.57 18.51, 46.23 20.46 M51.35 15.34 C51.21 18.45, 50.18 22.33, 46.23 20.46 M46.23 20.46 C37.84 20.76, 26.57 20.71, 5.11 20.46 M46.23 20.46 C34.55 19.96, 23.65 21.08, 5.11 20.46 M5.11 20.46 C1.27 20.32, -1.58 19.17, 0 15.34 M5.11 20.46 C3.23 20.24, 2.12 20, 0 15.34 M0 15.34 C-0.02 11.7, 0.16 8.94, 0 5.11 M0 15.34 C0.2 13.25, -0.36 11.31, 0 5.11 M0 5.11 C-0.43 1.07, 1.24 0.56, 5.11 0 M0 5.11 C-1.02 1.27, 2.35 -1.75, 5.11 0" stroke="#000000" stroke-width="1" fill="none"></path></g><g stroke-linecap="round" transform="translate(308.4377278527678 235.77824220776677) rotate(0 25.673709349674823 10.227720145245343)"><path d="M5.11 0 M5.11 0 C16.73 0.3, 31.45 -0.17, 46.23 0 M5.11 0 C20.78 1.09, 36.13 -0.21, 46.23 0 M46.23 0 C50.87 -0.11, 51.95 0.26, 51.35 5.11 M46.23 0 C51.77 2.04, 52.89 3.49, 51.35 5.11 M51.35 5.11 C51.7 9.59, 50.9 12.66, 51.35 15.34 M51.35 5.11 C51.12 7.82, 50.93 11.05, 51.35 15.34 M51.35 15.34 C53.04 18.25, 51.5 19.15, 46.23 20.46 M51.35 15.34 C52.12 20.38, 50.15 20.05, 46.23 20.46 M46.23 20.46 C34.96 21.67, 22.23 18.73, 5.11 20.46 M46.23 20.46 C36.78 20.96, 29.16 19.88, 5.11 20.46 M5.11 20.46 C2.84 22.03, -0.44 19.7, 0 15.34 M5.11 20.46 C2.08 22.62, -0.93 20.84, 0 15.34 M0 15.34 C-0.29 12.64, 0.03 8.82, 0 5.11 M0 15.34 C0.24 11.84, 0.3 7.61, 0 5.11 M0 5.11 C-1.43 2.47, 0.17 -1.09, 5.11 0 M0 5.11 C0.51 3.48, 0.92 -1.19, 5.11 0" stroke="#000000" stroke-width="1" fill="none"></path></g><g transform="translate(35.04905239341923 70.89980365575227) rotate(0 20.66650000257556 7.047900629246399)"><text x="0" y="0" font-family="Cascadia, Segoe UI Emoji" font-size="11.746501048743996px" fill="#000000" text-anchor="start" style="white-space: pre;" direction="ltr" dominant-baseline="text-before-edge">Button</text></g><g transform="translate(183.5374395099941 258.1922734897442) rotate(0 20.66650000257556 7.0479006292464135)"><text x="0" y="0" font-family="Cascadia, Segoe UI Emoji" font-size="11.746501048743996px" fill="#000000" text-anchor="start" style="white-space: pre;" direction="ltr" dominant-baseline="text-before-edge">Button</text></g></svg>