<svg version="1.1" xmlns="http://www.w3.org/2000/svg" viewBox="0 0 581.5999755859375 365.5999755859375" width="581.5999755859375" height="365.5999755859375">
  <!-- svg-source:excalidraw -->
  
  <defs>
    <style class="style-fonts">
      @font-face {
        font-family: "Virgil";
        src: url("https://excalidraw.com/Virgil.woff2");
      }
      @font-face {
        font-family: "Cascadia";
        src: url("https://excalidraw.com/Cascadia.woff2");
      }
    </style>
  </defs>
  <g stroke-linecap="round" transform="translate(10 10) rotate(0 280.79998779296875 172.79998779296875)"><path d="M32 0 M32 0 C150.58 -0.92, 269.57 -1.85, 529.6 0 M32 0 C185.43 0.42, 338.08 0.4, 529.6 0 M529.6 0 C551.63 -1.72, 561.91 11.77, 561.6 32 M529.6 0 C550.71 -0.21, 563.43 11.01, 561.6 32 M561.6 32 C562.65 110.86, 564.16 190.71, 561.6 313.6 M561.6 32 C559.44 120.26, 560.36 208.85, 561.6 313.6 M561.6 313.6 C561.44 333.74, 552.59 344.02, 529.6 345.6 M561.6 313.6 C562.64 336.09, 548.78 345.37, 529.6 345.6 M529.6 345.6 C330.9 347.04, 131.18 347.22, 32 345.6 M529.6 345.6 C334.2 344.21, 139.51 344.02, 32 345.6 M32 345.6 C9.49 345.62, 0.82 334.21, 0 313.6 M32 345.6 C12.91 345.15, 1.19 335.43, 0 313.6 M0 313.6 C-0.13 233.78, 0.18 156.65, 0 32 M0 313.6 C-0.31 226.14, -0.64 139.19, 0 32 M0 32 C1.11 10.93, 9.59 0.09, 32 0 M0 32 C2 9.61, 11.66 -0.43, 32 0" stroke="#415a77" stroke-width="1" fill="none"></path></g><g stroke-linecap="round" transform="translate(144.8242997449277 36.19995880126953) rotate(0 208.00001525878906 154.00000762939453)"><path d="M32 0 M32 0 C103.26 1.56, 176.91 1.38, 384 0 M32 0 C123.8 -1.23, 214.65 -0.75, 384 0 M384 0 C404.53 1.81, 417.66 8.86, 416 32 M384 0 C403.41 0.69, 414.17 9.44, 416 32 M416 32 C416.17 122.53, 415.9 213.17, 416 276 M416 32 C417.39 118.06, 417 203.57, 416 276 M416 276 C414.67 299.08, 407.14 307.02, 384 308 M416 276 C417.53 295.77, 403.38 308.78, 384 308 M384 308 C269.8 305.72, 154.18 304.76, 32 308 M384 308 C251.46 307.9, 118.39 306.98, 32 308 M32 308 C9.61 308.73, -0.7 297.91, 0 276 M32 308 C9.23 310.16, 1.2 298.59, 0 276 M0 276 C-0.62 212.2, -3.2 152.18, 0 32 M0 276 C0.55 224.1, -0.36 171.59, 0 32 M0 32 C-0.43 11.08, 10.95 1.67, 32 0 M0 32 C0.32 11.1, 9.28 1.77, 32 0" stroke="#343a40" stroke-width="1" fill="none"></path></g><g stroke-linecap="round" transform="translate(21.62431805547459 32.999977111816406) rotate(0 58 156.0000228881836)"><path d="M29 0 M29 0 C49.44 0.8, 67.69 1.54, 87 0 M29 0 C47.44 0.54, 67.17 -0.94, 87 0 M87 0 C106.01 1.87, 114.1 8.94, 116 29 M87 0 C105.84 -1.57, 117.87 7.86, 116 29 M116 29 C116.21 114.66, 115.47 203.54, 116 283 M116 29 C116.3 121.75, 116.71 216.23, 116 283 M116 283 C117.92 302.74, 105.44 310.09, 87 312 M116 283 C117.39 303.85, 105.42 309.91, 87 312 M87 312 C67.06 310.03, 42.17 310.31, 29 312 M87 312 C72.78 311.43, 56.28 311.62, 29 312 M29 312 C10.92 310.15, -1.61 303.12, 0 283 M29 312 C7.42 311.05, 1.66 301.41, 0 283 M0 283 C-0.49 211.1, 1.58 137.23, 0 29 M0 283 C0.95 202.81, 1.11 120.65, 0 29 M0 29 C1.72 11.15, 9.32 -1.13, 29 0 M0 29 C0.43 10.7, 7.54 1.64, 29 0" stroke="#343a40" stroke-width="1" fill="none"></path></g><g stroke-linecap="round" transform="translate(32.824299744927714 86.5999984741211) rotate(0 47.19999694824219 15.20001220703125)"><path d="M7.6 0 M7.6 0 C34.17 -1.31, 61.26 -0.6, 86.8 0 M7.6 0 C31.8 1.14, 56 -0.44, 86.8 0 M86.8 0 C92.55 0.32, 95.3 2.87, 94.4 7.6 M86.8 0 C91.75 0.75, 92.77 2.09, 94.4 7.6 M94.4 7.6 C94.99 14.31, 93.11 20.19, 94.4 22.8 M94.4 7.6 C93.68 10.51, 94.48 14.32, 94.4 22.8 M94.4 22.8 C93.26 27.04, 90.07 30.49, 86.8 30.4 M94.4 22.8 C93.72 25.68, 90.13 28.64, 86.8 30.4 M86.8 30.4 C63.04 31.3, 38.58 30.12, 7.6 30.4 M86.8 30.4 C69.44 28.89, 52.89 29.44, 7.6 30.4 M7.6 30.4 C1.05 29.46, -1.84 28.89, 0 22.8 M7.6 30.4 C1.42 30.33, -1.07 25.77, 0 22.8 M0 22.8 C-0.34 18.72, 1.36 13.97, 0 7.6 M0 22.8 C0.21 19.75, -0.43 15.92, 0 7.6 M0 7.6 C0.42 1.29, 3.92 1.87, 7.6 0 M0 7.6 C0.2 1.28, 4.21 1.76, 7.6 0" stroke="#000000" stroke-width="1" fill="none"></path></g><g stroke-linecap="round" transform="translate(33.22430890020115 126.39995574951172) rotate(0 47.19999694824219 15.20001220703125)"><path d="M7.6 0 M7.6 0 C34.75 0.94, 56.86 1.91, 86.8 0 M7.6 0 C39.51 1.2, 70.62 0.99, 86.8 0 M86.8 0 C90.35 -1.6, 94.2 1.75, 94.4 7.6 M86.8 0 C91.15 0.18, 94.41 2.8, 94.4 7.6 M94.4 7.6 C93.02 13.41, 94.15 17.89, 94.4 22.8 M94.4 7.6 C94.9 12.04, 94.78 18.31, 94.4 22.8 M94.4 22.8 C95.4 29.81, 90.31 32.24, 86.8 30.4 M94.4 22.8 C93.27 26.77, 91.01 29.11, 86.8 30.4 M86.8 30.4 C61.72 28.49, 38.81 30.11, 7.6 30.4 M86.8 30.4 C68.25 30.03, 48.37 29.31, 7.6 30.4 M7.6 30.4 C2.25 31.5, -1.44 26.06, 0 22.8 M7.6 30.4 C0.89 32.67, 0.95 25.84, 0 22.8 M0 22.8 C-0.43 17.34, 0.79 10.49, 0 7.6 M0 22.8 C-0.16 16.32, -0.49 10.65, 0 7.6 M0 7.6 C0.61 0.68, 2.13 -1.12, 7.6 0 M0 7.6 C-0.13 4.73, 2.43 1.97, 7.6 0" stroke="#000000" stroke-width="1" fill="none"></path></g><g stroke-linecap="round" transform="translate(32.4243211072324 164.59996795654297) rotate(0 47.19999694824219 15.20001220703125)"><path d="M7.6 0 M7.6 0 C29.79 -1.97, 48.16 -1.16, 86.8 0 M7.6 0 C30.66 0.06, 55.99 0.37, 86.8 0 M86.8 0 C92.37 -1.57, 94.11 3.63, 94.4 7.6 M86.8 0 C90.21 -2.07, 92.76 4.8, 94.4 7.6 M94.4 7.6 C94.31 12.62, 93.84 17.99, 94.4 22.8 M94.4 7.6 C93.79 13.26, 94.01 17.78, 94.4 22.8 M94.4 22.8 C92.87 27.22, 92.48 28.55, 86.8 30.4 M94.4 22.8 C93.94 26.58, 91.74 32.6, 86.8 30.4 M86.8 30.4 C61.98 31.46, 40.32 32.51, 7.6 30.4 M86.8 30.4 C54.87 30.71, 23.46 31.03, 7.6 30.4 M7.6 30.4 C0.55 28.4, -0.6 26.1, 0 22.8 M7.6 30.4 C1.45 28.14, 1.36 25.63, 0 22.8 M0 22.8 C-1.13 16.64, 0.32 14.58, 0 7.6 M0 22.8 C0.15 18.67, 0.07 15.93, 0 7.6 M0 7.6 C0.9 2.83, 1.51 -1.1, 7.6 0 M0 7.6 C-0.09 3.56, 0.79 1.6, 7.6 0" stroke="#000000" stroke-width="1" fill="none"></path></g><g stroke-linecap="round" transform="translate(32.22430890020115 206.5999984741211) rotate(0 47.19999694824219 15.20001220703125)"><path d="M7.6 0 M7.6 0 C26.51 -1.6, 43.8 -0.86, 86.8 0 M7.6 0 C31.78 0.72, 53.53 0.3, 86.8 0 M86.8 0 C92.21 1.57, 96.38 2.42, 94.4 7.6 M86.8 0 C91.19 -0.71, 95.64 2.3, 94.4 7.6 M94.4 7.6 C93.79 12.12, 93.53 17.84, 94.4 22.8 M94.4 7.6 C94.11 13.43, 93.67 17.87, 94.4 22.8 M94.4 22.8 C94.78 29.83, 90.77 31.73, 86.8 30.4 M94.4 22.8 C93.3 28.61, 90.63 30.93, 86.8 30.4 M86.8 30.4 C55.98 29.42, 27.12 31.41, 7.6 30.4 M86.8 30.4 C69.43 30.19, 51.47 30.62, 7.6 30.4 M7.6 30.4 C2.69 29.14, -1.6 27.68, 0 22.8 M7.6 30.4 C4.14 30.93, -0.99 26.54, 0 22.8 M0 22.8 C0.55 20.27, -0.01 16.21, 0 7.6 M0 22.8 C0.89 16.72, 0.02 12.1, 0 7.6 M0 7.6 C-0.31 2.46, 3.71 -0.61, 7.6 0 M0 7.6 C2.21 4.66, 2.51 2.16, 7.6 0" stroke="#000000" stroke-width="1" fill="none"></path></g><g transform="translate(56.82433026250584 11.400007629394537) rotate(0 28.149999618530273 9.599999999999994)"><text x="0" y="0" font-family="Cascadia, Segoe UI Emoji" font-size="16px" fill="#000000" text-anchor="start" style="white-space: pre;" direction="ltr" dominant-baseline="text-before-edge">NavBar</text></g><g transform="translate(192.8242692273496 12.199974060058594) rotate(0 37.53333282470703 9.599999999999994)"><text x="0" y="0" font-family="Cascadia, Segoe UI Emoji" font-size="16px" fill="#000000" text-anchor="start" style="white-space: pre;" direction="ltr" dominant-baseline="text-before-edge">Projects</text></g><g stroke-linecap="round" transform="translate(163.2242936414121 93.79998016357422) rotate(0 189.20001220703125 19.20001220703125)"><path d="M9.6 0 M9.6 0 C127.59 -0.67, 248.39 -0.71, 368.8 0 M9.6 0 C83.52 0.92, 156.38 0.83, 368.8 0 M368.8 0 C376.73 1.89, 376.88 1.36, 378.4 9.6 M368.8 0 C374.42 0.91, 380.47 1.5, 378.4 9.6 M378.4 9.6 C380.21 15.55, 378.66 23.4, 378.4 28.8 M378.4 9.6 C377.55 15.11, 378.88 20.65, 378.4 28.8 M378.4 28.8 C378.56 35.72, 373.58 37.95, 368.8 38.4 M378.4 28.8 C379.27 32.95, 376.56 37.29, 368.8 38.4 M368.8 38.4 C226.1 36.58, 84.48 36.21, 9.6 38.4 M368.8 38.4 C243.35 36.49, 118.27 36.36, 9.6 38.4 M9.6 38.4 C3.75 40.28, -0.98 35.63, 0 28.8 M9.6 38.4 C1.72 39.43, -0.14 36.85, 0 28.8 M0 28.8 C1.04 23.55, -1.55 16.82, 0 9.6 M0 28.8 C0.05 22.65, -1.08 15.22, 0 9.6 M0 9.6 C0.78 1.88, 4.87 -0.95, 9.6 0 M0 9.6 C-0.34 3.3, 5.15 2.13, 9.6 0" stroke="#000000" stroke-width="1" fill="none"></path></g><g stroke-linecap="round" transform="translate(164.0243424695371 137.79998016357422) rotate(0 187.5999755859375 66.80000305175781)"><path d="M32 0 M32 0 C112.29 1.35, 194.94 1.15, 343.2 0 M32 0 C144.67 0.41, 255.89 0.53, 343.2 0 M343.2 0 C364.62 1.39, 376.19 12.45, 375.2 32 M343.2 0 C365.66 -0.23, 374.41 11.05, 375.2 32 M375.2 32 C375.31 56.6, 375.6 78.67, 375.2 101.6 M375.2 32 C374.3 45.62, 375.49 61.01, 375.2 101.6 M375.2 101.6 C374.82 124, 362.75 135.13, 343.2 133.6 M375.2 101.6 C375.38 124.42, 365.38 135.5, 343.2 133.6 M343.2 133.6 C261.77 132.98, 180.47 133.17, 32 133.6 M343.2 133.6 C261.18 133.55, 178.3 134.14, 32 133.6 M32 133.6 C11.74 132.91, 1.49 122.58, 0 101.6 M32 133.6 C11.77 135.5, 1.14 122.8, 0 101.6 M0 101.6 C1.15 81.49, -1.02 60.92, 0 32 M0 101.6 C-0.85 83.1, 0.13 64.77, 0 32 M0 32 C-0.28 10.37, 8.85 -1.66, 32 0 M0 32 C1.01 11.47, 10.37 1.59, 32 0" stroke="#000000" stroke-width="1" fill="none"></path></g><g stroke-linecap="round" transform="translate(478.42430584844334 152.20000457763672) rotate(0 26.800018310546875 12.399993896484375)"><path d="M6.2 0 M6.2 0 C20.39 0.21, 32.44 -0.28, 47.4 0 M6.2 0 C15.17 -0.31, 24.13 0.71, 47.4 0 M47.4 0 C51.88 -1.21, 53.77 1.03, 53.6 6.2 M47.4 0 C53.16 0.75, 53.47 2.12, 53.6 6.2 M53.6 6.2 C54.82 9.67, 53.01 10.3, 53.6 18.6 M53.6 6.2 C54.06 10.43, 52.99 14.31, 53.6 18.6 M53.6 18.6 C55.49 22.06, 50.49 26.71, 47.4 24.8 M53.6 18.6 C51.47 24.36, 53.72 26.47, 47.4 24.8 M47.4 24.8 C37.21 24.76, 23.83 25.24, 6.2 24.8 M47.4 24.8 C32.93 24.45, 20.62 23.98, 6.2 24.8 M6.2 24.8 C1.88 24.34, 1.83 23.62, 0 18.6 M6.2 24.8 C3.77 23.8, -1.57 22.12, 0 18.6 M0 18.6 C-0.05 16.62, 0.33 12.88, 0 6.2 M0 18.6 C-0.66 14.41, 0.44 9.36, 0 6.2 M0 6.2 C0.39 1.03, 0.49 -0.12, 6.2 0 M0 6.2 C1.53 2.37, 1.15 -1.01, 6.2 0" stroke="#000000" stroke-width="1" fill="none"></path></g><g stroke-linecap="round" transform="translate(168.4243668835996 58.999977111816406) rotate(0 80.39999389648438 10.399986267089844)"><path d="M5.2 0 M5.2 0 C38.42 1.47, 70.02 -0.71, 155.6 0 M5.2 0 C43.44 -0.38, 80.08 -0.42, 155.6 0 M155.6 0 C158.01 -1.28, 159.88 0.28, 160.8 5.2 M155.6 0 C161.06 1.86, 161.57 -0.29, 160.8 5.2 M160.8 5.2 C160.41 9.83, 161.22 12.48, 160.8 15.6 M160.8 5.2 C160.91 8.08, 160.77 11.46, 160.8 15.6 M160.8 15.6 C161.18 18.17, 157.14 18.89, 155.6 20.8 M160.8 15.6 C159.33 19.09, 158.1 22.16, 155.6 20.8 M155.6 20.8 C122.23 20.99, 86.65 19.26, 5.2 20.8 M155.6 20.8 C116.97 19.85, 78.49 20.08, 5.2 20.8 M5.2 20.8 C1.01 19.27, 1.39 18.23, 0 15.6 M5.2 20.8 C2.34 22.23, 1.57 18.11, 0 15.6 M0 15.6 C0.81 13.06, -0.28 10.1, 0 5.2 M0 15.6 C-0.07 11.45, 0.53 8.02, 0 5.2 M0 5.2 C1.39 0.4, 0.83 -1.9, 5.2 0 M0 5.2 C0.48 1.94, 2.54 -0.33, 5.2 0" stroke="#000000" stroke-width="1" fill="none"></path></g><g stroke-linecap="round"><g transform="translate(176.0243424695371 111.20000457763672) rotate(0 24.417282494176163 -0.0009695464294736666)"><path d="M0.03 0.56 C8.5 0.53, 42.01 0.94, 50.25 0.85 M-1.42 -0.2 C6.94 -0.03, 40.34 -1.08, 49.22 -0.83" stroke="#000000" stroke-width="1" fill="none"></path></g></g><mask></mask><g stroke-linecap="round"><g transform="translate(243.80701114723598 110.20094360648807) rotate(0 24.84733346141877 0.14422567927732644)"><path d="M-0.56 -0.91 C7.66 -1.08, 41.65 -0.45, 50.25 -0.46 M1.35 1.23 C9.31 1.17, 41.01 1.06, 49.23 0.84" stroke="#000000" stroke-width="1" fill="none"></path></g></g><mask></mask><g stroke-linecap="round"><g transform="translate(314.4069867331735 111.20097412406619) rotate(0 25.393302599955348 -0.24277467356552052)"><path d="M-0.52 0.9 C7.87 0.98, 40.84 0.45, 49.21 0.48 M1.41 0.33 C10.25 0.04, 43.44 -1.22, 51.3 -1.4" stroke="#000000" stroke-width="1" fill="none"></path></g></g><mask></mask><g stroke-linecap="round"><g transform="translate(381.4069867331735 111.80094971000369) rotate(0 24.695313740512404 0.1945842739194461)"><path d="M-0.18 0.84 C8.16 0.79, 42.68 -0.27, 51.12 -0.46 M-1.73 0.24 C6.42 0.36, 41.98 0.73, 50.55 0.84" stroke="#000000" stroke-width="1" fill="none"></path></g></g><mask></mask><g stroke-linecap="round"><g transform="translate(177.6243180554746 157.5999984741211) rotate(0 23.844987875595677 -0.20034575345178496)"><path d="M-0.68 -1.17 C7.52 -1.37, 40.24 -0.9, 48.37 -1.02 M1.16 0.82 C9.25 0.8, 38.96 0.73, 47.2 0.41" stroke="#000000" stroke-width="1" fill="none"></path></g></g><mask></mask><g stroke-linecap="round"><g transform="translate(242.37930576581635 157.20033812405728) rotate(0 23.533183501381416 -0.790170294959097)"><path d="M-0.05 1.03 C7.89 0.82, 40.44 -0.43, 48.61 -0.6 M-1.54 0.53 C6.15 -0.13, 39.26 -2.21, 47.56 -2.61" stroke="#000000" stroke-width="1" fill="none"></path></g></g><mask></mask><g stroke-linecap="round"><g transform="translate(314.37930576581635 155.40035033108853) rotate(0 24.238568996479728 -0.6618017176531339)"><path d="M0.2 0.15 C8.3 0.2, 41.42 0.11, 49.63 0.14 M-1.15 -0.82 C6.77 -1.07, 40.75 -1.39, 49.11 -1.49" stroke="#000000" stroke-width="1" fill="none"></path></g></g><mask></mask><g stroke-linecap="round"><g transform="translate(384.97928135175385 155.80031370999478) rotate(0 24.951795890796916 -0.7764671130664453)"><path d="M0.94 0.64 C9.24 0.45, 41.82 0.08, 49.93 -0.32 M-0.02 -0.07 C8.2 -0.7, 41.36 -2.05, 49.57 -2.19" stroke="#000000" stroke-width="1" fill="none"></path></g></g><mask></mask><g transform="translate(388.59998703002935 72.877395531064) rotate(0 73.46666717529297 7.922592261904754)"><text x="0" y="0" font-family="Cascadia, Segoe UI Emoji" font-size="13.204320436507938px" fill="#000000" text-anchor="start" style="white-space: pre;" direction="ltr" dominant-baseline="text-before-edge">TableHeaderProjects</text></g><g transform="translate(186.33332061767584 275.877395531064) rotate(0 65.73332977294922 7.922592261904754)"><text x="0" y="0" font-family="Cascadia, Segoe UI Emoji" font-size="13.204320436507938px" fill="#000000" text-anchor="start" style="white-space: pre;" direction="ltr" dominant-baseline="text-before-edge">TableBodyProjects</text></g><g transform="translate(171.33332061767584 42.877395531063996) rotate(0 23.200000762939453 7.922592261904768)"><text x="0" y="0" font-family="Cascadia, Segoe UI Emoji" font-size="13.204320436507938px" fill="#000000" text-anchor="start" style="white-space: pre;" direction="ltr" dominant-baseline="text-before-edge">Button</text></g><g transform="translate(36.599987030029354 69.877395531064) rotate(0 23.200000762939453 7.922592261904754)"><text x="0" y="0" font-family="Cascadia, Segoe UI Emoji" font-size="13.204320436507938px" fill="#000000" text-anchor="start" style="white-space: pre;" direction="ltr" dominant-baseline="text-before-edge">Button</text></g><g transform="translate(482.59998703002935 176.877395531064) rotate(0 23.200000762939453 7.922592261904754)"><text x="0" y="0" font-family="Cascadia, Segoe UI Emoji" font-size="13.204320436507938px" fill="#000000" text-anchor="start" style="white-space: pre;" direction="ltr" dominant-baseline="text-before-edge">Button</text></g></svg>