<?xml version="1.0" encoding="us-ascii" standalone="no"?><svg xmlns="http://www.w3.org/2000/svg" xmlns:xlink="http://www.w3.org/1999/xlink" contentStyleType="text/css" height="1156px" preserveAspectRatio="none" style="width:2479px;height:1156px;background:#FFFFFF;" version="1.1" viewBox="0 0 2479 1156" width="2479px" zoomAndPan="magnify"><defs/><g><text fill="#000000" font-family="sans-serif" font-size="14" font-weight="bold" lengthAdjust="spacing" textLength="348" x="1064.75" y="27.9951">US009 - As Admin, I want to add a customer</text><rect fill="#FFFFFF" height="819.25" style="stroke:#181818;stroke-width:1.0;" width="10" x="325" y="238.2578"/><rect fill="#FFFFFF" height="760.9844" style="stroke:#181818;stroke-width:1.0;" width="10" x="596" y="267.3906"/><rect fill="#FFFFFF" height="308.3984" style="stroke:#181818;stroke-width:1.0;" width="10" x="846" y="311.6563"/><rect fill="#FFFFFF" height="350.0547" style="stroke:#181818;stroke-width:1.0;" width="10" x="1046" y="649.1875"/><rect fill="#FFFFFF" height="29.1328" style="stroke:#181818;stroke-width:1.0;" width="10" x="1889" y="678.3203"/><rect fill="#FFFFFF" height="29.1328" style="stroke:#181818;stroke-width:1.0;" width="10" x="1889" y="882.7109"/><rect fill="#FFFFFF" height="86.7266" style="stroke:#181818;stroke-width:1.0;" width="10" x="2048" y="766.8516"/><rect fill="#FFFFFF" height="29.1328" style="stroke:#181818;stroke-width:1.0;" width="10" x="2230.5" y="940.9766"/><line style="stroke:#181818;stroke-width:0.5;stroke-dasharray:5.0,5.0;" x1="56" x2="56" y1="118.5938" y2="1075.5078"/><line style="stroke:#181818;stroke-width:0.5;stroke-dasharray:5.0,5.0;" x1="330" x2="330" y1="118.5938" y2="1075.5078"/><line style="stroke:#181818;stroke-width:0.5;stroke-dasharray:5.0,5.0;" x1="601" x2="601" y1="118.5938" y2="1075.5078"/><line style="stroke:#181818;stroke-width:0.5;stroke-dasharray:5.0,5.0;" x1="850.5" x2="850.5" y1="118.5938" y2="1075.5078"/><line style="stroke:#181818;stroke-width:0.5;stroke-dasharray:5.0,5.0;" x1="1050.5" x2="1050.5" y1="118.5938" y2="1075.5078"/><line style="stroke:#181818;stroke-width:0.5;stroke-dasharray:5.0,5.0;" x1="1232.5" x2="1232.5" y1="358.4531" y2="1075.5078"/><line style="stroke:#181818;stroke-width:0.5;stroke-dasharray:5.0,5.0;" x1="1440.5" x2="1440.5" y1="424.1953" y2="1075.5078"/><line style="stroke:#181818;stroke-width:0.5;stroke-dasharray:5.0,5.0;" x1="1611.5" x2="1611.5" y1="498.0859" y2="1075.5078"/><line style="stroke:#181818;stroke-width:0.5;stroke-dasharray:5.0,5.0;" x1="1745.5" x2="1745.5" y1="571.9766" y2="1075.5078"/><line style="stroke:#181818;stroke-width:0.5;stroke-dasharray:5.0,5.0;" x1="1893.5" x2="1893.5" y1="118.5938" y2="1075.5078"/><line style="stroke:#181818;stroke-width:0.5;stroke-dasharray:5.0,5.0;" x1="2052.5" x2="2052.5" y1="118.5938" y2="1075.5078"/><line style="stroke:#181818;stroke-width:0.5;stroke-dasharray:5.0,5.0;" x1="2235.5" x2="2235.5" y1="118.5938" y2="1075.5078"/><line style="stroke:#181818;stroke-width:0.5;stroke-dasharray:5.0,5.0;" x1="2411.5" x2="2411.5" y1="813.6484" y2="1075.5078"/><text fill="#000000" font-family="sans-serif" font-size="14" lengthAdjust="spacing" textLength="96" x="5" y="115.292">:Administrator</text><ellipse cx="56" cy="50.7969" fill="#FFFFFF" rx="8" ry="8" style="stroke:#181818;stroke-width:0.5;"/><path d="M56,58.7969 L56,85.7969 M43,66.7969 L69,66.7969 M56,85.7969 L43,100.7969 M56,85.7969 L69,100.7969 " fill="none" style="stroke:#181818;stroke-width:0.5;"/><text fill="#000000" font-family="sans-serif" font-size="14" lengthAdjust="spacing" textLength="96" x="5" y="1087.5029">:Administrator</text><ellipse cx="56" cy="1099.3047" fill="#FFFFFF" rx="8" ry="8" style="stroke:#181818;stroke-width:0.5;"/><path d="M56,1107.3047 L56,1134.3047 M43,1115.3047 L69,1115.3047 M56,1134.3047 L43,1149.3047 M56,1134.3047 L69,1149.3047 " fill="none" style="stroke:#181818;stroke-width:0.5;"/><rect fill="#FFFFFF" height="30.2969" rx="2.5" ry="2.5" style="stroke:#181818;stroke-width:0.5;" width="146" x="257" y="87.2969"/><text fill="#000000" font-family="sans-serif" font-size="14" lengthAdjust="spacing" textLength="132" x="264" y="107.292">:CreateCustomerUI</text><rect fill="#FFFFFF" height="30.2969" rx="2.5" ry="2.5" style="stroke:#181818;stroke-width:0.5;" width="146" x="257" y="1074.5078"/><text fill="#000000" font-family="sans-serif" font-size="14" lengthAdjust="spacing" textLength="132" x="264" y="1094.5029">:CreateCustomerUI</text><rect fill="#FFFFFF" height="30.2969" rx="2.5" ry="2.5" style="stroke:#181818;stroke-width:0.5;" width="154" x="524" y="87.2969"/><text fill="#000000" font-family="sans-serif" font-size="14" lengthAdjust="spacing" textLength="140" x="531" y="107.292">:CustomerController</text><rect fill="#FFFFFF" height="30.2969" rx="2.5" ry="2.5" style="stroke:#181818;stroke-width:0.5;" width="154" x="524" y="1074.5078"/><text fill="#000000" font-family="sans-serif" font-size="14" lengthAdjust="spacing" textLength="140" x="531" y="1094.5029">:CustomerController</text><rect fill="#FFFFFF" height="30.2969" rx="2.5" ry="2.5" style="stroke:#181818;stroke-width:0.5;" width="243" x="729.5" y="87.2969"/><text fill="#000000" font-family="sans-serif" font-size="14" lengthAdjust="spacing" textLength="229" x="736.5" y="107.292">:CustomerValueObjectAssembler</text><rect fill="#FFFFFF" height="30.2969" rx="2.5" ry="2.5" style="stroke:#181818;stroke-width:0.5;" width="243" x="729.5" y="1074.5078"/><text fill="#000000" font-family="sans-serif" font-size="14" lengthAdjust="spacing" textLength="229" x="736.5" y="1094.5029">:CustomerValueObjectAssembler</text><rect fill="#FFFFFF" height="46.5938" rx="2.5" ry="2.5" style="stroke:#181818;stroke-width:0.5;" width="137" x="982.5" y="71"/><text fill="#000000" font-family="sans-serif" font-size="14" lengthAdjust="spacing" textLength="116" x="993" y="90.9951">customerService</text><text fill="#000000" font-family="sans-serif" font-size="14" lengthAdjust="spacing" textLength="123" x="989.5" y="107.292">:CustomerService</text><rect fill="#FFFFFF" height="46.5938" rx="2.5" ry="2.5" style="stroke:#181818;stroke-width:0.5;" width="137" x="982.5" y="1074.5078"/><text fill="#000000" font-family="sans-serif" font-size="14" lengthAdjust="spacing" textLength="116" x="993" y="1094.5029">customerService</text><text fill="#000000" font-family="sans-serif" font-size="14" lengthAdjust="spacing" textLength="123" x="989.5" y="1110.7998">:CustomerService</text><rect fill="#FFFFFF" height="46.5938" rx="2.5" ry="2.5" style="stroke:#181818;stroke-width:0.5;" width="207" x="1129.5" y="1074.5078"/><text fill="#000000" font-family="sans-serif" font-size="14" lengthAdjust="spacing" textLength="189" x="1136.5" y="1094.5029">customerValueObjectDTO :</text><text fill="#000000" font-family="sans-serif" font-size="14" lengthAdjust="spacing" textLength="182" x="1144" y="1110.7998">CustomerValueObjectDTO</text><rect fill="#FFFFFF" height="62.8906" rx="2.5" ry="2.5" style="stroke:#181818;stroke-width:0.5;" width="189" x="1346.5" y="1074.5078"/><text fill="#000000" font-family="sans-serif" font-size="14" lengthAdjust="spacing" textLength="101" x="1390.5" y="1094.5029">&#171;ValueObject&#187;</text><text fill="#000000" font-family="sans-serif" font-size="14" lengthAdjust="spacing" textLength="171" x="1353.5" y="1110.7998">taxIdentificationNumber :</text><text fill="#000000" font-family="sans-serif" font-size="14" lengthAdjust="spacing" textLength="166" x="1360" y="1127.0967">TaxIdentificationNumber</text><rect fill="#FFFFFF" height="62.8906" rx="2.5" ry="2.5" style="stroke:#181818;stroke-width:0.5;" width="133" x="1545.5" y="1074.5078"/><text fill="#000000" font-family="sans-serif" font-size="14" lengthAdjust="spacing" textLength="101" x="1561.5" y="1094.5029">&#171;ValueObject&#187;</text><text fill="#000000" font-family="sans-serif" font-size="14" lengthAdjust="spacing" textLength="115" x="1552.5" y="1110.7998">customerName :</text><text fill="#000000" font-family="sans-serif" font-size="14" lengthAdjust="spacing" textLength="108" x="1560" y="1127.0967">CustomerName</text><rect fill="#FFFFFF" height="62.8906" rx="2.5" ry="2.5" style="stroke:#181818;stroke-width:0.5;" width="115" x="1688.5" y="1074.5078"/><text fill="#000000" font-family="sans-serif" font-size="14" lengthAdjust="spacing" textLength="101" x="1695.5" y="1094.5029">&#171;ValueObject&#187;</text><text fill="#000000" font-family="sans-serif" font-size="14" lengthAdjust="spacing" textLength="61" x="1713.5" y="1110.7998">country :</text><text fill="#000000" font-family="sans-serif" font-size="14" lengthAdjust="spacing" textLength="54" x="1721" y="1127.0967">Country</text><rect fill="#FFFFFF" height="46.5938" rx="2.5" ry="2.5" style="stroke:#181818;stroke-width:0.5;" width="161" x="1813.5" y="71"/><text fill="#000000" font-family="sans-serif" font-size="14" lengthAdjust="spacing" textLength="78" x="1855" y="90.9951">&#171;Interface&#187;</text><text fill="#000000" font-family="sans-serif" font-size="14" lengthAdjust="spacing" textLength="147" x="1820.5" y="107.292">:CustomerRepository</text><rect fill="#FFFFFF" height="46.5938" rx="2.5" ry="2.5" style="stroke:#181818;stroke-width:0.5;" width="161" x="1813.5" y="1074.5078"/><text fill="#000000" font-family="sans-serif" font-size="14" lengthAdjust="spacing" textLength="78" x="1855" y="1094.5029">&#171;Interface&#187;</text><text fill="#000000" font-family="sans-serif" font-size="14" lengthAdjust="spacing" textLength="147" x="1820.5" y="1110.7998">:CustomerRepository</text><rect fill="#FFFFFF" height="46.5938" rx="2.5" ry="2.5" style="stroke:#181818;stroke-width:0.5;" width="137" x="1984.5" y="71"/><text fill="#000000" font-family="sans-serif" font-size="14" lengthAdjust="spacing" textLength="78" x="2014" y="90.9951">&#171;Interface&#187;</text><text fill="#000000" font-family="sans-serif" font-size="14" lengthAdjust="spacing" textLength="123" x="1991.5" y="107.292">:CustomerFactory</text><rect fill="#FFFFFF" height="46.5938" rx="2.5" ry="2.5" style="stroke:#181818;stroke-width:0.5;" width="137" x="1984.5" y="1074.5078"/><text fill="#000000" font-family="sans-serif" font-size="14" lengthAdjust="spacing" textLength="78" x="2014" y="1094.5029">&#171;Interface&#187;</text><text fill="#000000" font-family="sans-serif" font-size="14" lengthAdjust="spacing" textLength="123" x="1991.5" y="1110.7998">:CustomerFactory</text><rect fill="#FFFFFF" height="30.2969" rx="2.5" ry="2.5" style="stroke:#181818;stroke-width:0.5;" width="208" x="2131.5" y="87.2969"/><text fill="#000000" font-family="sans-serif" font-size="14" lengthAdjust="spacing" textLength="194" x="2138.5" y="107.292">:OutputCustomerAssembler</text><rect fill="#FFFFFF" height="30.2969" rx="2.5" ry="2.5" style="stroke:#181818;stroke-width:0.5;" width="208" x="2131.5" y="1074.5078"/><text fill="#000000" font-family="sans-serif" font-size="14" lengthAdjust="spacing" textLength="194" x="2138.5" y="1094.5029">:OutputCustomerAssembler</text><rect fill="#FFFFFF" height="46.5938" rx="2.5" ry="2.5" style="stroke:#181818;stroke-width:0.5;" width="124" x="2349.5" y="1074.5078"/><text fill="#000000" font-family="sans-serif" font-size="14" lengthAdjust="spacing" textLength="106" x="2356.5" y="1094.5029">newCustomer :</text><text fill="#000000" font-family="sans-serif" font-size="14" lengthAdjust="spacing" textLength="68" x="2377.5" y="1110.7998">Customer</text><rect fill="#FFFFFF" height="819.25" style="stroke:#181818;stroke-width:1.0;" width="10" x="325" y="238.2578"/><rect fill="#FFFFFF" height="760.9844" style="stroke:#181818;stroke-width:1.0;" width="10" x="596" y="267.3906"/><rect fill="#FFFFFF" height="308.3984" style="stroke:#181818;stroke-width:1.0;" width="10" x="846" y="311.6563"/><rect fill="#FFFFFF" height="350.0547" style="stroke:#181818;stroke-width:1.0;" width="10" x="1046" y="649.1875"/><rect fill="#FFFFFF" height="29.1328" style="stroke:#181818;stroke-width:1.0;" width="10" x="1889" y="678.3203"/><rect fill="#FFFFFF" height="29.1328" style="stroke:#181818;stroke-width:1.0;" width="10" x="1889" y="882.7109"/><rect fill="#FFFFFF" height="86.7266" style="stroke:#181818;stroke-width:1.0;" width="10" x="2048" y="766.8516"/><rect fill="#FFFFFF" height="29.1328" style="stroke:#181818;stroke-width:1.0;" width="10" x="2230.5" y="940.9766"/><polygon fill="#181818" points="318,145.7266,328,149.7266,318,153.7266,322,149.7266" style="stroke:#181818;stroke-width:1.0;"/><line style="stroke:#181818;stroke-width:1.0;" x1="56" x2="324" y1="149.7266" y2="149.7266"/><text fill="#000000" font-family="sans-serif" font-size="13" font-weight="bold" lengthAdjust="spacing" textLength="9" x="103.5" y="144.6606">1</text><text fill="#000000" font-family="sans-serif" font-size="13" lengthAdjust="spacing" textLength="166" x="116.5" y="144.6606">requests to add customer</text><polygon fill="#181818" points="67,174.8594,57,178.8594,67,182.8594,63,178.8594" style="stroke:#181818;stroke-width:1.0;"/><line style="stroke:#181818;stroke-width:1.0;stroke-dasharray:2.0,2.0;" x1="61" x2="329" y1="178.8594" y2="178.8594"/><text fill="#000000" font-family="sans-serif" font-size="13" font-weight="bold" lengthAdjust="spacing" textLength="9" x="138.5" y="173.7935">2</text><text fill="#000000" font-family="sans-serif" font-size="13" lengthAdjust="spacing" textLength="96" x="151.5" y="173.7935">asks for details</text><polygon fill="#181818" points="313,234.2578,323,238.2578,313,242.2578,317,238.2578" style="stroke:#181818;stroke-width:1.0;"/><line style="stroke:#181818;stroke-width:1.0;" x1="56" x2="319" y1="238.2578" y2="238.2578"/><text fill="#000000" font-family="sans-serif" font-size="13" font-weight="bold" lengthAdjust="spacing" textLength="9" x="65.5" y="218.0591">3</text><text fill="#000000" font-family="sans-serif" font-size="13" lengthAdjust="spacing" textLength="66" x="162" y="202.9263">fills details</text><text fill="#000000" font-family="sans-serif" font-size="13" lengthAdjust="spacing" textLength="198" x="98" y="218.0591">(taxIdentificationNumberValue,</text><text fill="#000000" font-family="sans-serif" font-size="13" lengthAdjust="spacing" textLength="233" x="82.5" y="233.1919">customerNameValue, countryValue)</text><polygon fill="#181818" points="584,263.3906,594,267.3906,584,271.3906,588,267.3906" style="stroke:#181818;stroke-width:1.0;"/><line style="stroke:#181818;stroke-width:1.0;" x1="335" x2="590" y1="267.3906" y2="267.3906"/><text fill="#000000" font-family="sans-serif" font-size="13" font-weight="bold" lengthAdjust="spacing" textLength="9" x="344.5" y="262.3247">4</text><text fill="#000000" font-family="sans-serif" font-size="13" lengthAdjust="spacing" textLength="229" x="357.5" y="262.3247">createCustomer(newCustomerDTO)</text><polygon fill="#181818" points="834,307.6563,844,311.6563,834,315.6563,838,311.6563" style="stroke:#181818;stroke-width:1.0;"/><line style="stroke:#181818;stroke-width:1.0;" x1="606" x2="840" y1="311.6563" y2="311.6563"/><text fill="#000000" font-family="sans-serif" font-size="13" font-weight="bold" lengthAdjust="spacing" textLength="9" x="615.5" y="299.0239">5</text><text fill="#000000" font-family="sans-serif" font-size="13" lengthAdjust="spacing" textLength="208" x="628.5" y="291.4575">createCustomerValueObjectDTO</text><text fill="#000000" font-family="sans-serif" font-size="13" lengthAdjust="spacing" textLength="125" x="670" y="306.5903">(newCustomerDTO)</text><polygon fill="#181818" points="1117.5,336.7891,1127.5,340.7891,1117.5,344.7891,1121.5,340.7891" style="stroke:#181818;stroke-width:1.0;"/><line style="stroke:#181818;stroke-width:1.0;" x1="856" x2="1123.5" y1="340.7891" y2="340.7891"/><text fill="#000000" font-family="sans-serif" font-size="13" font-weight="bold" lengthAdjust="spacing" textLength="9" x="960.75" y="335.7231">6</text><text fill="#000000" font-family="sans-serif" font-size="13" lengthAdjust="spacing" textLength="51" x="973.75" y="335.7231">create()</text><rect fill="#FFFFFF" height="46.5938" rx="2.5" ry="2.5" style="stroke:#181818;stroke-width:0.5;" width="207" x="1129.5" y="319.6563"/><text fill="#000000" font-family="sans-serif" font-size="14" lengthAdjust="spacing" textLength="189" x="1136.5" y="339.6514">customerValueObjectDTO :</text><text fill="#000000" font-family="sans-serif" font-size="14" lengthAdjust="spacing" textLength="182" x="1144" y="355.9482">CustomerValueObjectDTO</text><polygon fill="#181818" points="1334.5,394.3828,1344.5,398.3828,1334.5,402.3828,1338.5,398.3828" style="stroke:#181818;stroke-width:1.0;"/><line style="stroke:#181818;stroke-width:1.0;" x1="856" x2="1340.5" y1="398.3828" y2="398.3828"/><text fill="#000000" font-family="sans-serif" font-size="13" font-weight="bold" lengthAdjust="spacing" textLength="9" x="933.25" y="393.3169">7</text><text fill="#000000" font-family="sans-serif" font-size="13" lengthAdjust="spacing" textLength="323" x="946.25" y="393.3169">create(newCustomerDTO.taxIdentificationNumber)</text><rect fill="#FFFFFF" height="62.8906" rx="2.5" ry="2.5" style="stroke:#181818;stroke-width:0.5;" width="189" x="1346.5" y="377.25"/><text fill="#000000" font-family="sans-serif" font-size="14" lengthAdjust="spacing" textLength="101" x="1390.5" y="397.2451">&#171;ValueObject&#187;</text><text fill="#000000" font-family="sans-serif" font-size="14" lengthAdjust="spacing" textLength="171" x="1353.5" y="413.542">taxIdentificationNumber :</text><text fill="#000000" font-family="sans-serif" font-size="14" lengthAdjust="spacing" textLength="166" x="1360" y="429.8389">TaxIdentificationNumber</text><polygon fill="#181818" points="1533.5,468.2734,1543.5,472.2734,1533.5,476.2734,1537.5,472.2734" style="stroke:#181818;stroke-width:1.0;"/><line style="stroke:#181818;stroke-width:1.0;" x1="856" x2="1539.5" y1="472.2734" y2="472.2734"/><text fill="#000000" font-family="sans-serif" font-size="13" font-weight="bold" lengthAdjust="spacing" textLength="9" x="1059.25" y="467.2075">8</text><text fill="#000000" font-family="sans-serif" font-size="13" lengthAdjust="spacing" textLength="270" x="1072.25" y="467.2075">create(newCustomerDTO.customerName)</text><rect fill="#FFFFFF" height="62.8906" rx="2.5" ry="2.5" style="stroke:#181818;stroke-width:0.5;" width="133" x="1545.5" y="451.1406"/><text fill="#000000" font-family="sans-serif" font-size="14" lengthAdjust="spacing" textLength="101" x="1561.5" y="471.1357">&#171;ValueObject&#187;</text><text fill="#000000" font-family="sans-serif" font-size="14" lengthAdjust="spacing" textLength="115" x="1552.5" y="487.4326">customerName :</text><text fill="#000000" font-family="sans-serif" font-size="14" lengthAdjust="spacing" textLength="108" x="1560" y="503.7295">CustomerName</text><polygon fill="#181818" points="1676.5,542.1641,1686.5,546.1641,1676.5,550.1641,1680.5,546.1641" style="stroke:#181818;stroke-width:1.0;"/><line style="stroke:#181818;stroke-width:1.0;" x1="856" x2="1682.5" y1="546.1641" y2="546.1641"/><text fill="#000000" font-family="sans-serif" font-size="13" font-weight="bold" lengthAdjust="spacing" textLength="9" x="1156.75" y="541.0981">9</text><text fill="#000000" font-family="sans-serif" font-size="13" lengthAdjust="spacing" textLength="218" x="1169.75" y="541.0981">create(newCustomerDTO.country)</text><rect fill="#FFFFFF" height="62.8906" rx="2.5" ry="2.5" style="stroke:#181818;stroke-width:0.5;" width="115" x="1688.5" y="525.0313"/><text fill="#000000" font-family="sans-serif" font-size="14" lengthAdjust="spacing" textLength="101" x="1695.5" y="545.0264">&#171;ValueObject&#187;</text><text fill="#000000" font-family="sans-serif" font-size="14" lengthAdjust="spacing" textLength="61" x="1713.5" y="561.3232">country :</text><text fill="#000000" font-family="sans-serif" font-size="14" lengthAdjust="spacing" textLength="54" x="1721" y="577.6201">Country</text><polygon fill="#181818" points="617,616.0547,607,620.0547,617,624.0547,613,620.0547" style="stroke:#181818;stroke-width:1.0;"/><line style="stroke:#181818;stroke-width:1.0;stroke-dasharray:2.0,2.0;" x1="611" x2="850" y1="620.0547" y2="620.0547"/><text fill="#000000" font-family="sans-serif" font-size="13" font-weight="bold" lengthAdjust="spacing" textLength="18" x="635" y="614.9888">10</text><text fill="#000000" font-family="sans-serif" font-size="13" lengthAdjust="spacing" textLength="165" x="657" y="614.9888">customerValueObjectDTO</text><polygon fill="#181818" points="1034,645.1875,1044,649.1875,1034,653.1875,1038,649.1875" style="stroke:#181818;stroke-width:1.0;"/><line style="stroke:#181818;stroke-width:1.0;" x1="606" x2="1040" y1="649.1875" y2="649.1875"/><text fill="#000000" font-family="sans-serif" font-size="13" font-weight="bold" lengthAdjust="spacing" textLength="18" x="675.5" y="644.1216">11</text><text fill="#000000" font-family="sans-serif" font-size="13" lengthAdjust="spacing" textLength="279" x="697.5" y="644.1216">createCustomer(customerValueObjectDTO)</text><polygon fill="#181818" points="1877,674.3203,1887,678.3203,1877,682.3203,1881,678.3203" style="stroke:#181818;stroke-width:1.0;"/><line style="stroke:#181818;stroke-width:1.0;" x1="1056" x2="1883" y1="678.3203" y2="678.3203"/><text fill="#000000" font-family="sans-serif" font-size="13" font-weight="bold" lengthAdjust="spacing" textLength="18" x="1262.5" y="673.2544">12</text><text fill="#000000" font-family="sans-serif" font-size="13" lengthAdjust="spacing" textLength="398" x="1284.5" y="673.2544">existsByID(customerValueObjectDTO.taxIdentificationNumber)</text><polygon fill="#181818" points="1067,703.4531,1057,707.4531,1067,711.4531,1063,707.4531" style="stroke:#181818;stroke-width:1.0;"/><line style="stroke:#181818;stroke-width:1.0;stroke-dasharray:2.0,2.0;" x1="1061" x2="1893" y1="707.4531" y2="707.4531"/><text fill="#000000" font-family="sans-serif" font-size="13" font-weight="bold" lengthAdjust="spacing" textLength="18" x="1434" y="702.3872">13</text><text fill="#000000" font-family="sans-serif" font-size="13" lengthAdjust="spacing" textLength="60" x="1456" y="702.3872">true/false</text><polygon fill="#181818" points="2036,762.8516,2046,766.8516,2036,770.8516,2040,766.8516" style="stroke:#181818;stroke-width:1.0;"/><line style="stroke:#181818;stroke-width:1.0;" x1="1056" x2="2042" y1="766.8516" y2="766.8516"/><text fill="#000000" font-family="sans-serif" font-size="13" font-weight="bold" lengthAdjust="spacing" textLength="18" x="1323.5" y="746.6528">14</text><text fill="#000000" font-family="sans-serif" font-size="13" lengthAdjust="spacing" textLength="435" x="1345.5" y="731.52">createCustomer(customerValueObjectDTO.taxIdentificationNumber,</text><text fill="#000000" font-family="sans-serif" font-size="13" lengthAdjust="spacing" textLength="273" x="1428.5" y="746.6528">customerValueObjectDTO.customerName,</text><text fill="#000000" font-family="sans-serif" font-size="13" lengthAdjust="spacing" textLength="222" x="1454" y="761.7856">customerValueObjectDTO.country)</text><polygon fill="#181818" points="2337.5,807.1172,2347.5,811.1172,2337.5,815.1172,2341.5,811.1172" style="stroke:#181818;stroke-width:1.0;"/><line style="stroke:#181818;stroke-width:1.0;" x1="2058" x2="2343.5" y1="811.1172" y2="811.1172"/><text fill="#000000" font-family="sans-serif" font-size="13" font-weight="bold" lengthAdjust="spacing" textLength="18" x="2091.25" y="798.4849">15</text><text fill="#000000" font-family="sans-serif" font-size="13" lengthAdjust="spacing" textLength="203" x="2113.25" y="790.9185">create(taxIdentificationNumber,</text><text fill="#000000" font-family="sans-serif" font-size="13" lengthAdjust="spacing" textLength="161" x="2134.25" y="806.0513">customerName, country)</text><rect fill="#FFFFFF" height="46.5938" rx="2.5" ry="2.5" style="stroke:#181818;stroke-width:0.5;" width="124" x="2349.5" y="774.8516"/><text fill="#000000" font-family="sans-serif" font-size="14" lengthAdjust="spacing" textLength="106" x="2356.5" y="794.8467">newCustomer :</text><text fill="#000000" font-family="sans-serif" font-size="14" lengthAdjust="spacing" textLength="68" x="2377.5" y="811.1436">Customer</text><polygon fill="#181818" points="1067,849.5781,1057,853.5781,1067,857.5781,1063,853.5781" style="stroke:#181818;stroke-width:1.0;"/><line style="stroke:#181818;stroke-width:1.0;stroke-dasharray:2.0,2.0;" x1="1061" x2="2052" y1="853.5781" y2="853.5781"/><text fill="#000000" font-family="sans-serif" font-size="13" font-weight="bold" lengthAdjust="spacing" textLength="18" x="1499.5" y="848.5122">16</text><text fill="#000000" font-family="sans-serif" font-size="13" lengthAdjust="spacing" textLength="88" x="1521.5" y="848.5122">newCustomer</text><polygon fill="#181818" points="1877,878.7109,1887,882.7109,1877,886.7109,1881,882.7109" style="stroke:#181818;stroke-width:1.0;"/><line style="stroke:#181818;stroke-width:1.0;" x1="1056" x2="1883" y1="882.7109" y2="882.7109"/><text fill="#000000" font-family="sans-serif" font-size="13" font-weight="bold" lengthAdjust="spacing" textLength="18" x="1397.5" y="877.645">17</text><text fill="#000000" font-family="sans-serif" font-size="13" lengthAdjust="spacing" textLength="128" x="1419.5" y="877.645">save(newCustomer)</text><polygon fill="#181818" points="1067,907.8438,1057,911.8438,1067,915.8438,1063,911.8438" style="stroke:#181818;stroke-width:1.0;"/><line style="stroke:#181818;stroke-width:1.0;stroke-dasharray:2.0,2.0;" x1="1061" x2="1893" y1="911.8438" y2="911.8438"/><text fill="#000000" font-family="sans-serif" font-size="13" font-weight="bold" lengthAdjust="spacing" textLength="18" x="1413.5" y="906.7778">18</text><text fill="#000000" font-family="sans-serif" font-size="13" lengthAdjust="spacing" textLength="101" x="1435.5" y="906.7778">savedCustomer</text><polygon fill="#181818" points="2218.5,936.9766,2228.5,940.9766,2218.5,944.9766,2222.5,940.9766" style="stroke:#181818;stroke-width:1.0;"/><line style="stroke:#181818;stroke-width:1.0;" x1="1056" x2="2224.5" y1="940.9766" y2="940.9766"/><text fill="#000000" font-family="sans-serif" font-size="13" font-weight="bold" lengthAdjust="spacing" textLength="18" x="1489.25" y="935.9106">19</text><text fill="#000000" font-family="sans-serif" font-size="13" lengthAdjust="spacing" textLength="286" x="1511.25" y="935.9106">createOutputCustomerDTO(savedCustomer)</text><polygon fill="#181818" points="1067,966.1094,1057,970.1094,1067,974.1094,1063,970.1094" style="stroke:#181818;stroke-width:1.0;"/><line style="stroke:#181818;stroke-width:1.0;stroke-dasharray:2.0,2.0;" x1="1061" x2="2234.5" y1="970.1094" y2="970.1094"/><text fill="#000000" font-family="sans-serif" font-size="13" font-weight="bold" lengthAdjust="spacing" textLength="18" x="1568.75" y="965.0435">20</text><text fill="#000000" font-family="sans-serif" font-size="13" lengthAdjust="spacing" textLength="132" x="1590.75" y="965.0435">outputCustomerDTO</text><polygon fill="#181818" points="617,995.2422,607,999.2422,617,1003.2422,613,999.2422" style="stroke:#181818;stroke-width:1.0;"/><line style="stroke:#181818;stroke-width:1.0;stroke-dasharray:2.0,2.0;" x1="611" x2="1050" y1="999.2422" y2="999.2422"/><text fill="#000000" font-family="sans-serif" font-size="13" font-weight="bold" lengthAdjust="spacing" textLength="18" x="751.5" y="994.1763">21</text><text fill="#000000" font-family="sans-serif" font-size="13" lengthAdjust="spacing" textLength="132" x="773.5" y="994.1763">outputCustomerDTO</text><polygon fill="#181818" points="346,1024.375,336,1028.375,346,1032.375,342,1028.375" style="stroke:#181818;stroke-width:1.0;"/><line style="stroke:#181818;stroke-width:1.0;stroke-dasharray:2.0,2.0;" x1="340" x2="600" y1="1028.375" y2="1028.375"/><text fill="#000000" font-family="sans-serif" font-size="13" font-weight="bold" lengthAdjust="spacing" textLength="18" x="381.5" y="1023.3091">22</text><text fill="#000000" font-family="sans-serif" font-size="13" lengthAdjust="spacing" textLength="151" x="403.5" y="1023.3091">ResponseEntity.created</text><polygon fill="#181818" points="67,1053.5078,57,1057.5078,67,1061.5078,63,1057.5078" style="stroke:#181818;stroke-width:1.0;"/><line style="stroke:#181818;stroke-width:1.0;stroke-dasharray:2.0,2.0;" x1="61" x2="329" y1="1057.5078" y2="1057.5078"/><text fill="#000000" font-family="sans-serif" font-size="13" font-weight="bold" lengthAdjust="spacing" textLength="18" x="135" y="1052.4419">23</text><text fill="#000000" font-family="sans-serif" font-size="13" lengthAdjust="spacing" textLength="94" x="157" y="1052.4419">success/failure</text><!--SRC=[bLPDKzim4BtxLsWufHEWN9jXCXD2FtmecG72YOkGDwcA8wUI3EJVToLBjcIiVFZ0sD9xRtUrRnNKAnTRAkc6AFXNWs3m6vIYQvYLV2q80w51Pgf5KQOhUKFPwrfMjIZcLLb9ylw7QmX0-5TpnhTKw4DG7_KULY3Doyc4Nq0BaCVIVY9cEmpEQAqhKMzUiE0iqroNG9OFLrVVo0MPAJ8hDboSavoyOrb4LuGM1Q64rKfN6qEnHqFE9XR8bPOKlyy8TLI_aWMdW-Yv1AfXxbIMkIKiypxAxSyheMLLbj08Tvy9_1CjQrYy_0McPqh1vgLbxW74Mhx01v1ldC6pQCNTYjLpxyFK8CZjuu9CoBCOIW3th5PBM-1Ah7Xz7U2dqsUXwKTUe4dvYZEgUINkR0ER68_3cpR8OtvtGDgdSKSt4ETiLgo8m9T3AcWpBNTEeFbegcpU-_JS3DoACZ3azgZlOLifZkxPHTthbe-J-M4zscYuzvvn5hNUrjhZOyyazc850UyUOMls7yrvTPjP5aq5kPYYwoT4cZbLMla1QyThcPCBn4Ia2Mg-Ah92UW6Qyb8DYOx74xBYPQay2BCQ9NnZctUEdGgRtopwXjclBrb6y359JOCfDA5ODD2Ze6Hqi-EPfsDPZJtpE1wJlcmyDLXFFmpfFGszDrfzqBuaJ98HswSq2chgHJCpTceCvBJASL6NYPwbuzlnF3K1Gqfb4BeY7TPFzid7sruLYUZDVX1OWgvbPzRO5IchkQjwmAl3Ea4yHmqDsrr1HX0-SFRKpIw_JOYbczYhISiQlgvegM0mlBkzZYuY5JUSzHuZRFO-cEzAttp1NUUtNDRMPjrss-zqZb4kv5D8TsRHzNfqpnHzYwpsITO0Yht2YL-6uEAA4NXkeqZriwUhFk5OXDkz1xMjX8BlU9nwTzbaKMIPhwbc3F_HHOVnifReiUm_]--></g></svg>