<?xml version="1.0" encoding="us-ascii" standalone="no"?><svg xmlns="http://www.w3.org/2000/svg" xmlns:xlink="http://www.w3.org/1999/xlink" contentStyleType="text/css" height="1052px" preserveAspectRatio="none" style="width:626px;height:1052px;background:#FFFFFF;" version="1.1" viewBox="0 0 626 1052" width="626px" zoomAndPan="magnify"><defs/><g><!--cluster System--><g id="cluster_System"><rect fill="none" height="1039" rx="2.5" ry="2.5" style="stroke:#181818;stroke-width:1.0;" width="437" x="183" y="7"/><text fill="#000000" font-family="sans-serif" font-size="14" font-weight="bold" lengthAdjust="spacing" textLength="58" x="372.5" y="21.9951">System</text></g><g id="elem_UC7"><ellipse cx="401.5139" cy="73.2028" fill="#FFFFFF" rx="144.0139" ry="31.2028" style="stroke:#181818;stroke-width:0.5;"/><text fill="#000000" font-family="sans-serif" font-size="14" lengthAdjust="spacing" textLength="258" x="272.5139" y="76.0495">US007: create a new project typology</text></g><g id="elem_UC8"><ellipse cx="401.3027" cy="165.9605" fill="#FFFFFF" rx="120.3027" ry="26.4605" style="stroke:#181818;stroke-width:0.5;"/><text fill="#000000" font-family="sans-serif" font-size="14" lengthAdjust="spacing" textLength="208" x="297.3027" y="168.8072">US008: add a business sector</text></g><g id="elem_UC9"><ellipse cx="401.5203" cy="249.8041" fill="#FFFFFF" rx="99.5203" ry="22.3041" style="stroke:#181818;stroke-width:0.5;"/><text fill="#000000" font-family="sans-serif" font-size="14" lengthAdjust="spacing" textLength="163" x="320.0203" y="252.6507">US009: add a customer</text></g><g id="elem_UC10"><ellipse cx="401.6004" cy="338.8201" fill="#FFFFFF" rx="142.1004" ry="30.8201" style="stroke:#181818;stroke-width:0.5;"/><text fill="#000000" font-family="sans-serif" font-size="14" lengthAdjust="spacing" textLength="254" x="274.6004" y="341.6668">US010: register/create a new project</text></g><g id="elem_UC11"><ellipse cx="401.2643" cy="447.8529" fill="#FFFFFF" rx="199.7643" ry="42.3529" style="stroke:#181818;stroke-width:0.5;"/><text fill="#000000" font-family="sans-serif" font-size="14" lengthAdjust="spacing" textLength="373" x="214.7643" y="450.6995">US011: associate a user as Team Member of a project</text></g><g id="elem_UC12"><ellipse cx="401.5296" cy="562.0059" fill="#FFFFFF" rx="170.5296" ry="36.5059" style="stroke:#181818;stroke-width:0.5;"/><text fill="#000000" font-family="sans-serif" font-size="14" lengthAdjust="spacing" textLength="313" x="245.0296" y="564.8526">US012: define the Product Owner of a project</text></g><g id="elem_UC13"><ellipse cx="401.6526" cy="669.2305" fill="#FFFFFF" rx="166.6526" ry="35.7305" style="stroke:#181818;stroke-width:0.5;"/><text fill="#000000" font-family="sans-serif" font-size="14" lengthAdjust="spacing" textLength="305" x="249.1526" y="672.0772">US013: define the Scrum Master of a project</text></g><g id="elem_UC14"><ellipse cx="401.4805" cy="779.9961" fill="#FFFFFF" rx="190.4805" ry="40.4961" style="stroke:#181818;stroke-width:0.5;"/><text fill="#000000" font-family="sans-serif" font-size="14" lengthAdjust="spacing" textLength="354" x="224.4805" y="782.8428">US014: get a list of all human resources in a project</text></g><g id="elem_UC15"><ellipse cx="401.3027" cy="881.9605" fill="#FFFFFF" rx="120.3027" ry="26.4605" style="stroke:#181818;stroke-width:0.5;"/><text fill="#000000" font-family="sans-serif" font-size="14" lengthAdjust="spacing" textLength="208" x="297.3027" y="884.8072">US015: get a list of all projects</text></g><g id="elem_UC16"><ellipse cx="401.7002" cy="986.94" fill="#FFFFFF" rx="202.7002" ry="42.94" style="stroke:#181818;stroke-width:0.5;"/><text fill="#000000" font-family="sans-serif" font-size="14" lengthAdjust="spacing" textLength="379" x="212.2002" y="989.7867">US016: get a list of all projects I'm currently allocated to</text></g><!--entity A--><g id="elem_A"><ellipse cx="72.5" cy="136.5" fill="#FFFFFF" rx="8" ry="8" style="stroke:#181818;stroke-width:0.5;"/><path d="M72.5,144.5 L72.5,171.5 M59.5,152.5 L85.5,152.5 M72.5,171.5 L59.5,186.5 M72.5,171.5 L85.5,186.5 " fill="none" style="stroke:#181818;stroke-width:0.5;"/><text fill="#000000" font-family="sans-serif" font-size="14" lengthAdjust="spacing" textLength="91" x="27" y="200.9951">Administrator</text></g><!--entity M--><g id="elem_M"><ellipse cx="72.5" cy="586.5" fill="#FFFFFF" rx="8" ry="8" style="stroke:#181818;stroke-width:0.5;"/><path d="M72.5,594.5 L72.5,621.5 M59.5,602.5 L85.5,602.5 M72.5,621.5 L59.5,636.5 M72.5,621.5 L85.5,636.5 " fill="none" style="stroke:#181818;stroke-width:0.5;"/><text fill="#000000" font-family="sans-serif" font-size="14" lengthAdjust="spacing" textLength="60" x="42.5" y="650.9951">Manager</text></g><!--entity U--><g id="elem_U"><ellipse cx="72.5" cy="957.5" fill="#FFFFFF" rx="8" ry="8" style="stroke:#181818;stroke-width:0.5;"/><path d="M72.5,965.5 L72.5,992.5 M59.5,973.5 L85.5,973.5 M72.5,992.5 L59.5,1007.5 M72.5,992.5 L85.5,1007.5 " fill="none" style="stroke:#181818;stroke-width:0.5;"/><text fill="#000000" font-family="sans-serif" font-size="14" lengthAdjust="spacing" textLength="133" x="6" y="1021.9951">Authenticated User</text></g><!--link A to UC7--><g id="link_A_UC7"><path d="M118.25,144.36 C135.67,136.53 155.99,128.12 175,122 C209.98,110.74 248.85,101.25 284.33,93.72 " fill="none" id="A-to-UC7" style="stroke:#181818;stroke-width:1.0;"/><polygon fill="#181818" points="289.54,92.62,279.9102,90.5542,284.6466,93.6472,281.5537,98.3836,289.54,92.62" style="stroke:#181818;stroke-width:1.0;"/></g><!--link A to UC8--><g id="link_A_UC8"><path d="M118.28,166 C158.7,166 220.11,166 275.33,166 " fill="none" id="A-to-UC8" style="stroke:#181818;stroke-width:1.0;"/><polygon fill="#181818" points="280.66,166,271.66,162,275.66,166,271.66,170,280.66,166" style="stroke:#181818;stroke-width:1.0;"/></g><!--link A to UC9--><g id="link_A_UC9"><path d="M118.13,188.03 C135.54,195.9 155.87,204.24 175,210 C218.08,222.96 267.13,232.28 308.46,238.65 " fill="none" id="A-to-UC9" style="stroke:#181818;stroke-width:1.0;"/><polygon fill="#181818" points="313.46,239.41,305.1694,234.0934,308.5176,238.6529,303.9581,242.0012,313.46,239.41" style="stroke:#181818;stroke-width:1.0;"/></g><!--link M to UC10--><g id="link_M_UC10"><path d="M79.62,577.66 C89.91,526.35 115.68,436.26 175,388 C199.12,368.38 229.33,356.15 259.73,348.64 " fill="none" id="M-to-UC10" style="stroke:#181818;stroke-width:1.0;"/><polygon fill="#181818" points="264.61,347.47,254.9292,345.6582,259.7454,348.6255,256.7781,353.4417,264.61,347.47" style="stroke:#181818;stroke-width:1.0;"/></g><!--link M to UC11--><g id="link_M_UC11"><path d="M100.51,577.84 C118.97,554.44 145.4,525.67 175,508 C196.28,495.3 220.26,485.24 244.45,477.29 " fill="none" id="M-to-UC11" style="stroke:#181818;stroke-width:1.0;"/><polygon fill="#181818" points="249.28,475.72,239.4887,474.6565,244.5184,477.2454,241.9294,482.2751,249.28,475.72" style="stroke:#181818;stroke-width:1.0;"/></g><!--link M to UC12--><g id="link_M_UC12"><path d="M102.52,611.21 C138.32,605.3 201.73,594.82 260.88,585.06 " fill="none" id="M-to-UC12" style="stroke:#181818;stroke-width:1.0;"/><polygon fill="#181818" points="265.86,584.23,256.3295,581.7461,260.9265,585.0427,257.6299,589.6397,265.86,584.23" style="stroke:#181818;stroke-width:1.0;"/></g><!--link M to UC13--><g id="link_M_UC13"><path d="M102.52,620.7 C138.85,626.59 203.62,637.09 263.51,646.8 " fill="none" id="M-to-UC13" style="stroke:#181818;stroke-width:1.0;"/><polygon fill="#181818" points="268.55,647.61,260.3072,642.2197,263.6146,646.8089,259.0254,650.1163,268.55,647.61" style="stroke:#181818;stroke-width:1.0;"/></g><!--link M to UC14--><g id="link_M_UC14"><path d="M101.02,654.04 C119.5,676.94 145.75,704.89 175,722 C197.24,735.01 222.39,745.14 247.62,753.02 " fill="none" id="M-to-UC14" style="stroke:#181818;stroke-width:1.0;"/><polygon fill="#181818" points="252.66,754.56,245.2384,748.0854,247.882,753.0866,242.8809,755.7302,252.66,754.56" style="stroke:#181818;stroke-width:1.0;"/></g><!--link M to UC15--><g id="link_M_UC15"><path d="M79.97,654.39 C90.56,704.72 116.58,791.97 175,838 C203.59,860.53 240.46,872.59 276.06,878.78 " fill="none" id="M-to-UC15" style="stroke:#181818;stroke-width:1.0;"/><polygon fill="#181818" points="281.31,879.65,273.0824,874.2364,276.3769,878.835,271.7783,882.1294,281.31,879.65" style="stroke:#181818;stroke-width:1.0;"/></g><!--link U to UC16--><g id="link_U_UC16"><path d="M139.28,987 C155.65,987 174.07,987 193.38,987 " fill="none" id="U-to-UC16" style="stroke:#181818;stroke-width:1.0;"/><polygon fill="#181818" points="198.85,987,189.85,983,193.85,987,189.85,991,198.85,987" style="stroke:#181818;stroke-width:1.0;"/></g><!--SRC=[VP9DRi8m48NtFiM8JLUeX7-og4HPTO5QYUO0nXc2IsAZiIs4gjwz4qA8wjBkdZFlUvaPsnsqEKgI5MGEbNJuBDMX81jClhAb9JZjjKVXRhQbyfRkcqI9Em_U0kbYxo7NXCfhQuIGDGIzPLvfevqdoSSUI0VBjhIMHXROV5pV_C7lqNYjfCUyRh2fPqBKoT8K9SBcx3nMy2a0GZC1zBBDO31BGH4o218Cdk18zeCXyESZjroScwJLBERcASWyPsWRd3Re772rRJTRpMF_elMhuBojsXPNYyYO358WB7XwfCTxdLsvP1232V_1EQjqWt2DQkixycsiiThoqUwu4EKaSSumXHntF1FmLk6DR1vu7wydyqV0C0uO_GZOA0hSWAm7kikFOdwSGe6UZILluOAK9Un39Grlnjb02Xreypjf72TDxYLT8TTIavYQ_aV1oqF5TqZ43wuyroNRF3jlsy2f-19Y2Vt-q-NXj6f-KmknlYg-nPjCEZdivAYJuqvEHDRAgVW6]--></g></svg>