<?xml version="1.0" encoding="us-ascii" standalone="no"?><svg xmlns="http://www.w3.org/2000/svg" xmlns:xlink="http://www.w3.org/1999/xlink" contentStyleType="text/css" height="1926px" preserveAspectRatio="none" style="width:3594px;height:1926px;background:#FFFFFF;" version="1.1" viewBox="0 0 3594 1926" width="3594px" zoomAndPan="magnify"><defs/><g><!--cluster AccountAggregate--><g id="cluster_AccountAggregate"><path d="M314.5,848 L463.5,848 A3.75,3.75 0 0 1 466,850.5 L473,870.2969 L706.5,870.2969 A2.5,2.5 0 0 1 709,872.7969 L709,1348.5 A2.5,2.5 0 0 1 706.5,1351 L314.5,1351 A2.5,2.5 0 0 1 312,1348.5 L312,850.5 A2.5,2.5 0 0 1 314.5,848 " fill="none" style="stroke:#000000;stroke-width:1.5;"/><line style="stroke:#000000;stroke-width:1.5;" x1="312" x2="473" y1="870.2969" y2="870.2969"/><text fill="#000000" font-family="sans-serif" font-size="14" font-weight="bold" lengthAdjust="spacing" textLength="148" x="316" y="862.9951">AccountAggregate</text></g><!--cluster AccountValueObject--><g id="cluster_AccountValueObject"><rect fill="none" height="309" rx="2.5" ry="2.5" style="stroke:#181818;stroke-width:1.0;" width="333" x="344" y="1010"/><text fill="#000000" font-family="sans-serif" font-size="14" font-weight="bold" lengthAdjust="spacing" textLength="95" x="463" y="1024.9951">ValueObject</text></g><!--cluster ProfileAggregate--><g id="cluster_ProfileAggregate"><path d="M235.5,1586 L370.5,1586 A3.75,3.75 0 0 1 373,1588.5 L380,1608.2969 L477.5,1608.2969 A2.5,2.5 0 0 1 480,1610.7969 L480,1916.5 A2.5,2.5 0 0 1 477.5,1919 L235.5,1919 A2.5,2.5 0 0 1 233,1916.5 L233,1588.5 A2.5,2.5 0 0 1 235.5,1586 " fill="none" style="stroke:#000000;stroke-width:1.5;"/><line style="stroke:#000000;stroke-width:1.5;" x1="233" x2="380" y1="1608.2969" y2="1608.2969"/><text fill="#000000" font-family="sans-serif" font-size="14" font-weight="bold" lengthAdjust="spacing" textLength="134" x="237" y="1600.9951">ProfileAggregate</text></g><!--cluster ProfileValueObject--><g id="cluster_ProfileValueObject"><rect fill="none" height="139" rx="2.5" ry="2.5" style="stroke:#181818;stroke-width:1.0;" width="183" x="265" y="1748"/><text fill="#000000" font-family="sans-serif" font-size="14" font-weight="bold" lengthAdjust="spacing" textLength="95" x="309" y="1762.9951">ValueObject</text></g><!--cluster ResourceAggregate--><g id="cluster_ResourceAggregate"><path d="M393.5,29 L552.5,29 A3.75,3.75 0 0 1 555,31.5 L562,51.2969 L785.5,51.2969 A2.5,2.5 0 0 1 788,53.7969 L788,539.5 A2.5,2.5 0 0 1 785.5,542 L393.5,542 A2.5,2.5 0 0 1 391,539.5 L391,31.5 A2.5,2.5 0 0 1 393.5,29 " fill="none" style="stroke:#000000;stroke-width:1.5;"/><line style="stroke:#000000;stroke-width:1.5;" x1="391" x2="562" y1="51.2969" y2="51.2969"/><text fill="#000000" font-family="sans-serif" font-size="14" font-weight="bold" lengthAdjust="spacing" textLength="158" x="395" y="43.9951">ResourceAggregate</text></g><!--cluster ResourceValueObject--><g id="cluster_ResourceValueObject"><rect fill="none" height="295" rx="2.5" ry="2.5" style="stroke:#181818;stroke-width:1.0;" width="333" x="423" y="215"/><text fill="#000000" font-family="sans-serif" font-size="14" font-weight="bold" lengthAdjust="spacing" textLength="95" x="542" y="229.9951">ValueObject</text></g><!--cluster ProjectAggregate--><g id="cluster_ProjectAggregate"><path d="M814.5,29 L954.5,29 A3.75,3.75 0 0 1 957,31.5 L964,51.2969 L1356.5,51.2969 A2.5,2.5 0 0 1 1359,53.7969 L1359,1348.5 A2.5,2.5 0 0 1 1356.5,1351 L814.5,1351 A2.5,2.5 0 0 1 812,1348.5 L812,31.5 A2.5,2.5 0 0 1 814.5,29 " fill="none" style="stroke:#000000;stroke-width:1.5;"/><line style="stroke:#000000;stroke-width:1.5;" x1="812" x2="964" y1="51.2969" y2="51.2969"/><text fill="#000000" font-family="sans-serif" font-size="14" font-weight="bold" lengthAdjust="spacing" textLength="139" x="816" y="43.9951">ProjectAggregate</text></g><!--cluster ProjectValueObject--><g id="cluster_ProjectValueObject"><path d="M846.5,1010 L942.5,1010 A3.75,3.75 0 0 1 945,1012.5 L952,1032.2969 L1324.5,1032.2969 A2.5,2.5 0 0 1 1327,1034.7969 L1327,1316.5 A2.5,2.5 0 0 1 1324.5,1319 L846.5,1319 A2.5,2.5 0 0 1 844,1316.5 L844,1012.5 A2.5,2.5 0 0 1 846.5,1010 " fill="none" style="stroke:#000000;stroke-width:1.5;"/><line style="stroke:#000000;stroke-width:1.5;" x1="844" x2="952" y1="1032.2969" y2="1032.2969"/><text fill="#000000" font-family="sans-serif" font-size="14" font-weight="bold" lengthAdjust="spacing" textLength="95" x="848" y="1024.9951">ValueObject</text></g><!--cluster ProjectStatusAggregate--><g id="cluster_ProjectStatusAggregate"><path d="M1385.5,1018 L1575.5,1018 A3.75,3.75 0 0 1 1578,1020.5 L1585,1040.2969 L1627.5,1040.2969 A2.5,2.5 0 0 1 1630,1042.7969 L1630,1348.5 A2.5,2.5 0 0 1 1627.5,1351 L1385.5,1351 A2.5,2.5 0 0 1 1383,1348.5 L1383,1020.5 A2.5,2.5 0 0 1 1385.5,1018 " fill="none" style="stroke:#000000;stroke-width:1.5;"/><line style="stroke:#000000;stroke-width:1.5;" x1="1383" x2="1585" y1="1040.2969" y2="1040.2969"/><text fill="#000000" font-family="sans-serif" font-size="14" font-weight="bold" lengthAdjust="spacing" textLength="189" x="1387" y="1032.9951">ProjectStatusAggregate</text></g><!--cluster ProjectStatusValueObject--><g id="cluster_ProjectStatusValueObject"><rect fill="none" height="139" rx="2.5" ry="2.5" style="stroke:#181818;stroke-width:1.0;" width="183" x="1415" y="1180"/><text fill="#000000" font-family="sans-serif" font-size="14" font-weight="bold" lengthAdjust="spacing" textLength="95" x="1459" y="1194.9951">ValueObject</text></g><!--cluster ProjectTypologyAggregate--><g id="cluster_ProjectTypologyAggregate"><path d="M1656.5,1018 L1868.5,1018 A3.75,3.75 0 0 1 1871,1020.5 L1878,1040.2969 L1898.5,1040.2969 A2.5,2.5 0 0 1 1901,1042.7969 L1901,1348.5 A2.5,2.5 0 0 1 1898.5,1351 L1656.5,1351 A2.5,2.5 0 0 1 1654,1348.5 L1654,1020.5 A2.5,2.5 0 0 1 1656.5,1018 " fill="none" style="stroke:#000000;stroke-width:1.5;"/><line style="stroke:#000000;stroke-width:1.5;" x1="1654" x2="1878" y1="1040.2969" y2="1040.2969"/><text fill="#000000" font-family="sans-serif" font-size="14" font-weight="bold" lengthAdjust="spacing" textLength="211" x="1658" y="1032.9951">ProjectTypologyAggregate</text></g><!--cluster ProjectTypologyValueObject--><g id="cluster_ProjectTypologyValueObject"><rect fill="none" height="139" rx="2.5" ry="2.5" style="stroke:#181818;stroke-width:1.0;" width="183" x="1686" y="1180"/><text fill="#000000" font-family="sans-serif" font-size="14" font-weight="bold" lengthAdjust="spacing" textLength="95" x="1730" y="1194.9951">ValueObject</text></g><!--cluster BusinessSectorAggregate--><g id="cluster_BusinessSectorAggregate"><path d="M1927.5,1018 L2134.5,1018 A3.75,3.75 0 0 1 2137,1020.5 L2144,1040.2969 L2169.5,1040.2969 A2.5,2.5 0 0 1 2172,1042.7969 L2172,1348.5 A2.5,2.5 0 0 1 2169.5,1351 L1927.5,1351 A2.5,2.5 0 0 1 1925,1348.5 L1925,1020.5 A2.5,2.5 0 0 1 1927.5,1018 " fill="none" style="stroke:#000000;stroke-width:1.5;"/><line style="stroke:#000000;stroke-width:1.5;" x1="1925" x2="2144" y1="1040.2969" y2="1040.2969"/><text fill="#000000" font-family="sans-serif" font-size="14" font-weight="bold" lengthAdjust="spacing" textLength="206" x="1929" y="1032.9951">BusinessSectorAggregate</text></g><!--cluster BusinessSectorValueObject--><g id="cluster_BusinessSectorValueObject"><rect fill="none" height="139" rx="2.5" ry="2.5" style="stroke:#181818;stroke-width:1.0;" width="183" x="1957" y="1180"/><text fill="#000000" font-family="sans-serif" font-size="14" font-weight="bold" lengthAdjust="spacing" textLength="95" x="2001" y="1194.9951">ValueObject</text></g><!--cluster CustomerAggregate--><g id="cluster_CustomerAggregate"><path d="M2198.5,1018 L2359.5,1018 A3.75,3.75 0 0 1 2362,1020.5 L2369,1040.2969 L2655.5,1040.2969 A2.5,2.5 0 0 1 2658,1042.7969 L2658,1348.5 A2.5,2.5 0 0 1 2655.5,1351 L2198.5,1351 A2.5,2.5 0 0 1 2196,1348.5 L2196,1020.5 A2.5,2.5 0 0 1 2198.5,1018 " fill="none" style="stroke:#000000;stroke-width:1.5;"/><line style="stroke:#000000;stroke-width:1.5;" x1="2196" x2="2369" y1="1040.2969" y2="1040.2969"/><text fill="#000000" font-family="sans-serif" font-size="14" font-weight="bold" lengthAdjust="spacing" textLength="160" x="2200" y="1032.9951">CustomerAggregate</text></g><!--cluster CustomerValueObject--><g id="cluster_CustomerValueObject"><rect fill="none" height="139" rx="2.5" ry="2.5" style="stroke:#181818;stroke-width:1.0;" width="398" x="2228" y="1180"/><text fill="#000000" font-family="sans-serif" font-size="14" font-weight="bold" lengthAdjust="spacing" textLength="95" x="2379.5" y="1194.9951">ValueObject</text></g><!--cluster SprintAggregate--><g id="cluster_SprintAggregate"><path d="M2798.5,29 L2929.5,29 A3.75,3.75 0 0 1 2932,31.5 L2939,51.2969 L3190.5,51.2969 A2.5,2.5 0 0 1 3193,53.7969 L3193,383.5 A2.5,2.5 0 0 1 3190.5,386 L2798.5,386 A2.5,2.5 0 0 1 2796,383.5 L2796,31.5 A2.5,2.5 0 0 1 2798.5,29 " fill="none" style="stroke:#000000;stroke-width:1.5;"/><line style="stroke:#000000;stroke-width:1.5;" x1="2796" x2="2939" y1="51.2969" y2="51.2969"/><text fill="#000000" font-family="sans-serif" font-size="14" font-weight="bold" lengthAdjust="spacing" textLength="130" x="2800" y="43.9951">SprintAggregate</text></g><!--cluster SprintValueObject--><g id="cluster_SprintValueObject"><rect fill="none" height="139" rx="2.5" ry="2.5" style="stroke:#181818;stroke-width:1.0;" width="333" x="2828" y="215"/><text fill="#000000" font-family="sans-serif" font-size="14" font-weight="bold" lengthAdjust="spacing" textLength="95" x="2947" y="229.9951">ValueObject</text></g><!--cluster UserStoryAggregate--><g id="cluster_UserStoryAggregate"><path d="M2692.5,840 L2855.5,840 A3.75,3.75 0 0 1 2858,842.5 L2865,862.2969 L3300.5,862.2969 A2.5,2.5 0 0 1 3303,864.7969 L3303,1356.5 A2.5,2.5 0 0 1 3300.5,1359 L2692.5,1359 A2.5,2.5 0 0 1 2690,1356.5 L2690,842.5 A2.5,2.5 0 0 1 2692.5,840 " fill="none" style="stroke:#000000;stroke-width:1.5;"/><line style="stroke:#000000;stroke-width:1.5;" x1="2690" x2="2865" y1="862.2969" y2="862.2969"/><text fill="#000000" font-family="sans-serif" font-size="14" font-weight="bold" lengthAdjust="spacing" textLength="162" x="2694" y="854.9951">UserStoryAggregate</text></g><!--cluster UserStoryValueObject--><g id="cluster_UserStoryValueObject"><rect fill="none" height="309" rx="2.5" ry="2.5" style="stroke:#181818;stroke-width:1.0;" width="525" x="2738" y="1010"/><text fill="#000000" font-family="sans-serif" font-size="14" font-weight="bold" lengthAdjust="spacing" textLength="95" x="2953" y="1024.9951">ValueObject</text></g><g id="elem_Account"><rect fill="#F1F1F1" height="52.5938" style="stroke:#181818;stroke-width:0.5;" width="100" x="328" y="902"/><text fill="#000000" font-family="sans-serif" font-size="14" lengthAdjust="spacing" textLength="86" x="335" y="916.9951">&#171;Agg. Root&#187;</text><text fill="#000000" font-family="sans-serif" font-size="14" lengthAdjust="spacing" textLength="57" x="349.5" y="933.292">Account</text><line style="stroke:#181818;stroke-width:0.5;" x1="329" x2="427" y1="938.5938" y2="938.5938"/></g><g id="elem_Email"><rect fill="#F1F1F1" height="52.5938" style="stroke:#181818;stroke-width:0.5;" width="115" x="387.5" y="1072"/><text fill="#000000" font-family="sans-serif" font-size="14" lengthAdjust="spacing" textLength="101" x="394.5" y="1086.9951">&#171;ValueObject&#187;</text><text fill="#000000" font-family="sans-serif" font-size="14" lengthAdjust="spacing" textLength="36" x="427" y="1103.292">Email</text><line style="stroke:#181818;stroke-width:0.5;" x1="388.5" x2="501.5" y1="1108.5938" y2="1108.5938"/></g><g id="elem_Name"><rect fill="#F1F1F1" height="52.5938" style="stroke:#181818;stroke-width:0.5;" width="115" x="537.5" y="1072"/><text fill="#000000" font-family="sans-serif" font-size="14" lengthAdjust="spacing" textLength="101" x="544.5" y="1086.9951">&#171;ValueObject&#187;</text><text fill="#000000" font-family="sans-serif" font-size="14" lengthAdjust="spacing" textLength="40" x="575" y="1103.292">Name</text><line style="stroke:#181818;stroke-width:0.5;" x1="538.5" x2="651.5" y1="1108.5938" y2="1108.5938"/></g><g id="elem_PhoneNumber"><rect fill="#F1F1F1" height="52.5938" style="stroke:#181818;stroke-width:0.5;" width="115" x="387.5" y="1242"/><text fill="#000000" font-family="sans-serif" font-size="14" lengthAdjust="spacing" textLength="101" x="394.5" y="1256.9951">&#171;ValueObject&#187;</text><text fill="#000000" font-family="sans-serif" font-size="14" lengthAdjust="spacing" textLength="100" x="395" y="1273.292">PhoneNumber</text><line style="stroke:#181818;stroke-width:0.5;" x1="388.5" x2="501.5" y1="1278.5938" y2="1278.5938"/></g><g id="elem_Profile"><rect fill="#F1F1F1" height="52.5938" style="stroke:#181818;stroke-width:0.5;" width="100" x="249" y="1640"/><text fill="#000000" font-family="sans-serif" font-size="14" lengthAdjust="spacing" textLength="86" x="256" y="1654.9951">&#171;Agg. Root&#187;</text><text fill="#000000" font-family="sans-serif" font-size="14" lengthAdjust="spacing" textLength="42" x="278" y="1671.292">Profile</text><line style="stroke:#181818;stroke-width:0.5;" x1="250" x2="348" y1="1676.5938" y2="1676.5938"/></g><g id="elem_ProfileName"><rect fill="#F1F1F1" height="52.5938" style="stroke:#181818;stroke-width:0.5;" width="115" x="308.5" y="1810"/><text fill="#000000" font-family="sans-serif" font-size="14" lengthAdjust="spacing" textLength="101" x="315.5" y="1824.9951">&#171;ValueObject&#187;</text><text fill="#000000" font-family="sans-serif" font-size="14" lengthAdjust="spacing" textLength="40" x="346" y="1841.292">Name</text><line style="stroke:#181818;stroke-width:0.5;" x1="309.5" x2="422.5" y1="1846.5938" y2="1846.5938"/></g><g id="elem_Resource"><rect fill="#F1F1F1" height="52.5938" style="stroke:#181818;stroke-width:0.5;" width="100" x="409" y="83"/><text fill="#000000" font-family="sans-serif" font-size="14" lengthAdjust="spacing" textLength="86" x="416" y="97.9951">&#171;Agg. Root&#187;</text><text fill="#000000" font-family="sans-serif" font-size="14" lengthAdjust="spacing" textLength="67" x="425.5" y="114.292">Resource</text><line style="stroke:#181818;stroke-width:0.5;" x1="410" x2="508" y1="119.5938" y2="119.5938"/></g><g id="elem_Role"><rect fill="#F1F1F1" height="52.5938" style="stroke:#181818;stroke-width:0.5;" width="115" x="466.5" y="277"/><text fill="#000000" font-family="sans-serif" font-size="14" lengthAdjust="spacing" textLength="101" x="473.5" y="291.9951">&#171;ValueObject&#187;</text><text fill="#000000" font-family="sans-serif" font-size="14" lengthAdjust="spacing" textLength="31" x="508.5" y="308.292">Role</text><line style="stroke:#181818;stroke-width:0.5;" x1="467.5" x2="580.5" y1="313.5938" y2="313.5938"/></g><g id="elem_Allocation"><rect fill="#F1F1F1" height="52.5938" style="stroke:#181818;stroke-width:0.5;" width="115" x="616.5" y="277"/><text fill="#000000" font-family="sans-serif" font-size="14" lengthAdjust="spacing" textLength="101" x="623.5" y="291.9951">&#171;ValueObject&#187;</text><text fill="#000000" font-family="sans-serif" font-size="14" lengthAdjust="spacing" textLength="66" x="641" y="308.292">Allocation</text><line style="stroke:#181818;stroke-width:0.5;" x1="617.5" x2="730.5" y1="313.5938" y2="313.5938"/></g><g id="elem_CostPerHour"><rect fill="#F1F1F1" height="52.5938" style="stroke:#181818;stroke-width:0.5;" width="115" x="466.5" y="433"/><text fill="#000000" font-family="sans-serif" font-size="14" lengthAdjust="spacing" textLength="101" x="473.5" y="447.9951">&#171;ValueObject&#187;</text><text fill="#000000" font-family="sans-serif" font-size="14" lengthAdjust="spacing" textLength="88" x="480" y="464.292">CostPerHour</text><line style="stroke:#181818;stroke-width:0.5;" x1="467.5" x2="580.5" y1="469.5938" y2="469.5938"/></g><g id="elem_ResourcePeriod"><rect fill="#F1F1F1" height="52.5938" style="stroke:#181818;stroke-width:0.5;" width="115" x="616.5" y="433"/><text fill="#000000" font-family="sans-serif" font-size="14" lengthAdjust="spacing" textLength="101" x="623.5" y="447.9951">&#171;ValueObject&#187;</text><text fill="#000000" font-family="sans-serif" font-size="14" lengthAdjust="spacing" textLength="44" x="652" y="464.292">Period</text><line style="stroke:#181818;stroke-width:0.5;" x1="617.5" x2="730.5" y1="469.5938" y2="469.5938"/></g><g id="elem_Project"><rect fill="#F1F1F1" height="52.5938" style="stroke:#181818;stroke-width:0.5;" width="100" x="1243" y="902"/><text fill="#000000" font-family="sans-serif" font-size="14" lengthAdjust="spacing" textLength="86" x="1250" y="916.9951">&#171;Agg. Root&#187;</text><text fill="#000000" font-family="sans-serif" font-size="14" lengthAdjust="spacing" textLength="48" x="1269" y="933.292">Project</text><line style="stroke:#181818;stroke-width:0.5;" x1="1244" x2="1342" y1="938.5938" y2="938.5938"/></g><g id="elem_ProductBacklog"><rect fill="#F1F1F1" height="52.5938" style="stroke:#181818;stroke-width:0.5;" width="123" x="1180.5" y="83"/><text fill="#000000" font-family="sans-serif" font-size="14" lengthAdjust="spacing" textLength="56" x="1214" y="97.9951">&#171;Entity&#187;</text><text fill="#000000" font-family="sans-serif" font-size="14" lengthAdjust="spacing" textLength="109" x="1187.5" y="114.292">ProductBacklog</text><line style="stroke:#181818;stroke-width:0.5;" x1="1181.5" x2="1302.5" y1="119.5938" y2="119.5938"/></g><g id="elem_Budget"><rect fill="#F1F1F1" height="52.5938" style="stroke:#181818;stroke-width:0.5;" width="115" x="887.5" y="1072"/><text fill="#000000" font-family="sans-serif" font-size="14" lengthAdjust="spacing" textLength="101" x="894.5" y="1086.9951">&#171;ValueObject&#187;</text><text fill="#000000" font-family="sans-serif" font-size="14" lengthAdjust="spacing" textLength="51" x="919.5" y="1103.292">Budget</text><line style="stroke:#181818;stroke-width:0.5;" x1="888.5" x2="1001.5" y1="1108.5938" y2="1108.5938"/></g><g id="elem_ProjectName"><rect fill="#F1F1F1" height="52.5938" style="stroke:#181818;stroke-width:0.5;" width="115" x="1037.5" y="1072"/><text fill="#000000" font-family="sans-serif" font-size="14" lengthAdjust="spacing" textLength="101" x="1044.5" y="1086.9951">&#171;ValueObject&#187;</text><text fill="#000000" font-family="sans-serif" font-size="14" lengthAdjust="spacing" textLength="88" x="1051" y="1103.292">ProjectName</text><line style="stroke:#181818;stroke-width:0.5;" x1="1038.5" x2="1151.5" y1="1108.5938" y2="1108.5938"/></g><g id="elem_ProjectDescription"><rect fill="#F1F1F1" height="52.5938" style="stroke:#181818;stroke-width:0.5;" width="115" x="1187.5" y="1072"/><text fill="#000000" font-family="sans-serif" font-size="14" lengthAdjust="spacing" textLength="101" x="1194.5" y="1086.9951">&#171;ValueObject&#187;</text><text fill="#000000" font-family="sans-serif" font-size="14" lengthAdjust="spacing" textLength="79" x="1205.5" y="1103.292">Description</text><line style="stroke:#181818;stroke-width:0.5;" x1="1188.5" x2="1301.5" y1="1108.5938" y2="1108.5938"/></g><g id="elem_ProjectPeriod"><rect fill="#F1F1F1" height="52.5938" style="stroke:#181818;stroke-width:0.5;" width="115" x="887.5" y="1242"/><text fill="#000000" font-family="sans-serif" font-size="14" lengthAdjust="spacing" textLength="101" x="894.5" y="1256.9951">&#171;ValueObject&#187;</text><text fill="#000000" font-family="sans-serif" font-size="14" lengthAdjust="spacing" textLength="44" x="923" y="1273.292">Period</text><line style="stroke:#181818;stroke-width:0.5;" x1="888.5" x2="1001.5" y1="1278.5938" y2="1278.5938"/></g><g id="elem_SprintDuration"><rect fill="#F1F1F1" height="52.5938" style="stroke:#181818;stroke-width:0.5;" width="115" x="1037.5" y="1242"/><text fill="#000000" font-family="sans-serif" font-size="14" lengthAdjust="spacing" textLength="101" x="1044.5" y="1256.9951">&#171;ValueObject&#187;</text><text fill="#000000" font-family="sans-serif" font-size="14" lengthAdjust="spacing" textLength="99" x="1045.5" y="1273.292">SprintDuration</text><line style="stroke:#181818;stroke-width:0.5;" x1="1038.5" x2="1151.5" y1="1278.5938" y2="1278.5938"/></g><g id="elem_ProjectStatus"><rect fill="#F1F1F1" height="52.5938" style="stroke:#181818;stroke-width:0.5;" width="106" x="1399" y="1072"/><text fill="#000000" font-family="sans-serif" font-size="14" lengthAdjust="spacing" textLength="86" x="1409" y="1086.9951">&#171;Agg. Root&#187;</text><text fill="#000000" font-family="sans-serif" font-size="14" lengthAdjust="spacing" textLength="92" x="1406" y="1103.292">ProjectStatus</text><line style="stroke:#181818;stroke-width:0.5;" x1="1400" x2="1504" y1="1108.5938" y2="1108.5938"/></g><g id="elem_ProjectStatusName"><rect fill="#F1F1F1" height="52.5938" style="stroke:#181818;stroke-width:0.5;" width="115" x="1458.5" y="1242"/><text fill="#000000" font-family="sans-serif" font-size="14" lengthAdjust="spacing" textLength="101" x="1465.5" y="1256.9951">&#171;ValueObject&#187;</text><text fill="#000000" font-family="sans-serif" font-size="14" lengthAdjust="spacing" textLength="40" x="1496" y="1273.292">Name</text><line style="stroke:#181818;stroke-width:0.5;" x1="1459.5" x2="1572.5" y1="1278.5938" y2="1278.5938"/></g><g id="elem_ProjectTypology"><rect fill="#F1F1F1" height="52.5938" style="stroke:#181818;stroke-width:0.5;" width="124" x="1670" y="1072"/><text fill="#000000" font-family="sans-serif" font-size="14" lengthAdjust="spacing" textLength="86" x="1689" y="1086.9951">&#171;Agg. Root&#187;</text><text fill="#000000" font-family="sans-serif" font-size="14" lengthAdjust="spacing" textLength="110" x="1677" y="1103.292">ProjectTypology</text><line style="stroke:#181818;stroke-width:0.5;" x1="1671" x2="1793" y1="1108.5938" y2="1108.5938"/></g><g id="elem_ProjectTypologyName"><rect fill="#F1F1F1" height="52.5938" style="stroke:#181818;stroke-width:0.5;" width="115" x="1729.5" y="1242"/><text fill="#000000" font-family="sans-serif" font-size="14" lengthAdjust="spacing" textLength="101" x="1736.5" y="1256.9951">&#171;ValueObject&#187;</text><text fill="#000000" font-family="sans-serif" font-size="14" lengthAdjust="spacing" textLength="40" x="1767" y="1273.292">Name</text><line style="stroke:#181818;stroke-width:0.5;" x1="1730.5" x2="1843.5" y1="1278.5938" y2="1278.5938"/></g><g id="elem_BusinessSector"><rect fill="#F1F1F1" height="52.5938" style="stroke:#181818;stroke-width:0.5;" width="123" x="1941.5" y="1072"/><text fill="#000000" font-family="sans-serif" font-size="14" lengthAdjust="spacing" textLength="86" x="1960" y="1086.9951">&#171;Agg. Root&#187;</text><text fill="#000000" font-family="sans-serif" font-size="14" lengthAdjust="spacing" textLength="109" x="1948.5" y="1103.292">BusinessSector</text><line style="stroke:#181818;stroke-width:0.5;" x1="1942.5" x2="2063.5" y1="1108.5938" y2="1108.5938"/></g><g id="elem_BusinessSectorName"><rect fill="#F1F1F1" height="52.5938" style="stroke:#181818;stroke-width:0.5;" width="115" x="2000.5" y="1242"/><text fill="#000000" font-family="sans-serif" font-size="14" lengthAdjust="spacing" textLength="101" x="2007.5" y="1256.9951">&#171;ValueObject&#187;</text><text fill="#000000" font-family="sans-serif" font-size="14" lengthAdjust="spacing" textLength="40" x="2038" y="1273.292">Name</text><line style="stroke:#181818;stroke-width:0.5;" x1="2001.5" x2="2114.5" y1="1278.5938" y2="1278.5938"/></g><g id="elem_Customer"><rect fill="#F1F1F1" height="52.5938" style="stroke:#181818;stroke-width:0.5;" width="100" x="2212" y="1072"/><text fill="#000000" font-family="sans-serif" font-size="14" lengthAdjust="spacing" textLength="86" x="2219" y="1086.9951">&#171;Agg. Root&#187;</text><text fill="#000000" font-family="sans-serif" font-size="14" lengthAdjust="spacing" textLength="68" x="2228" y="1103.292">Customer</text><line style="stroke:#181818;stroke-width:0.5;" x1="2213" x2="2311" y1="1108.5938" y2="1108.5938"/></g><g id="elem_TaxIdentificationNumber"><rect fill="#F1F1F1" height="52.5938" style="stroke:#181818;stroke-width:0.5;" width="180" x="2422" y="1242"/><text fill="#000000" font-family="sans-serif" font-size="14" lengthAdjust="spacing" textLength="101" x="2461.5" y="1256.9951">&#171;ValueObject&#187;</text><text fill="#000000" font-family="sans-serif" font-size="14" lengthAdjust="spacing" textLength="166" x="2429" y="1273.292">TaxIdentificationNumber</text><line style="stroke:#181818;stroke-width:0.5;" x1="2423" x2="2601" y1="1278.5938" y2="1278.5938"/></g><g id="elem_CustomerName"><rect fill="#F1F1F1" height="52.5938" style="stroke:#181818;stroke-width:0.5;" width="115" x="2271.5" y="1242"/><text fill="#000000" font-family="sans-serif" font-size="14" lengthAdjust="spacing" textLength="101" x="2278.5" y="1256.9951">&#171;ValueObject&#187;</text><text fill="#000000" font-family="sans-serif" font-size="14" lengthAdjust="spacing" textLength="40" x="2309" y="1273.292">Name</text><line style="stroke:#181818;stroke-width:0.5;" x1="2272.5" x2="2385.5" y1="1278.5938" y2="1278.5938"/></g><g id="elem_Sprint"><rect fill="#F1F1F1" height="52.5938" style="stroke:#181818;stroke-width:0.5;" width="100" x="2957" y="83"/><text fill="#000000" font-family="sans-serif" font-size="14" lengthAdjust="spacing" textLength="86" x="2964" y="97.9951">&#171;Agg. Root&#187;</text><text fill="#000000" font-family="sans-serif" font-size="14" lengthAdjust="spacing" textLength="40" x="2987" y="114.292">Sprint</text><line style="stroke:#181818;stroke-width:0.5;" x1="2958" x2="3056" y1="119.5938" y2="119.5938"/></g><g id="elem_SprintBacklog"><rect fill="#F1F1F1" height="52.5938" style="stroke:#181818;stroke-width:0.5;" width="109" x="2812.5" y="83"/><text fill="#000000" font-family="sans-serif" font-size="14" lengthAdjust="spacing" textLength="56" x="2839" y="97.9951">&#171;Entity&#187;</text><text fill="#000000" font-family="sans-serif" font-size="14" lengthAdjust="spacing" textLength="95" x="2819.5" y="114.292">SprintBacklog</text><line style="stroke:#181818;stroke-width:0.5;" x1="2813.5" x2="2920.5" y1="119.5938" y2="119.5938"/></g><g id="elem_SprintCode"><rect fill="#F1F1F1" height="52.5938" style="stroke:#181818;stroke-width:0.5;" width="115" x="3021.5" y="277"/><text fill="#000000" font-family="sans-serif" font-size="14" lengthAdjust="spacing" textLength="101" x="3028.5" y="291.9951">&#171;ValueObject&#187;</text><text fill="#000000" font-family="sans-serif" font-size="14" lengthAdjust="spacing" textLength="77" x="3040.5" y="308.292">SprintCode</text><line style="stroke:#181818;stroke-width:0.5;" x1="3022.5" x2="3135.5" y1="313.5938" y2="313.5938"/></g><g id="elem_SprintPeriod"><rect fill="#F1F1F1" height="52.5938" style="stroke:#181818;stroke-width:0.5;" width="115" x="2871.5" y="277"/><text fill="#000000" font-family="sans-serif" font-size="14" lengthAdjust="spacing" textLength="101" x="2878.5" y="291.9951">&#171;ValueObject&#187;</text><text fill="#000000" font-family="sans-serif" font-size="14" lengthAdjust="spacing" textLength="44" x="2907" y="308.292">Period</text><line style="stroke:#181818;stroke-width:0.5;" x1="2872.5" x2="2985.5" y1="313.5938" y2="313.5938"/></g><g id="elem_UserStory"><rect fill="#F1F1F1" height="52.5938" style="stroke:#181818;stroke-width:0.5;" width="100" x="2733" y="902"/><text fill="#000000" font-family="sans-serif" font-size="14" lengthAdjust="spacing" textLength="86" x="2740" y="916.9951">&#171;Agg. Root&#187;</text><text fill="#000000" font-family="sans-serif" font-size="14" lengthAdjust="spacing" textLength="67" x="2749.5" y="933.292">UserStory</text><line style="stroke:#181818;stroke-width:0.5;" x1="2734" x2="2832" y1="938.5938" y2="938.5938"/></g><g id="elem_UserStoryCode"><rect fill="#F1F1F1" height="52.5938" style="stroke:#181818;stroke-width:0.5;" width="118" x="2781" y="1072"/><text fill="#000000" font-family="sans-serif" font-size="14" lengthAdjust="spacing" textLength="101" x="2789.5" y="1086.9951">&#171;ValueObject&#187;</text><text fill="#000000" font-family="sans-serif" font-size="14" lengthAdjust="spacing" textLength="104" x="2788" y="1103.292">UserStoryCode</text><line style="stroke:#181818;stroke-width:0.5;" x1="2782" x2="2898" y1="1108.5938" y2="1108.5938"/></g><g id="elem_AcceptanceCriteria"><rect fill="#F1F1F1" height="52.5938" style="stroke:#181818;stroke-width:0.5;" width="144" x="2934" y="1072"/><text fill="#000000" font-family="sans-serif" font-size="14" lengthAdjust="spacing" textLength="101" x="2955.5" y="1086.9951">&#171;ValueObject&#187;</text><text fill="#000000" font-family="sans-serif" font-size="14" lengthAdjust="spacing" textLength="130" x="2941" y="1103.292">AcceptanceCriteria</text><line style="stroke:#181818;stroke-width:0.5;" x1="2935" x2="3077" y1="1108.5938" y2="1108.5938"/></g><g id="elem_UserStoryStatus"><rect fill="#F1F1F1" height="52.5938" style="stroke:#181818;stroke-width:0.5;" width="125" x="3113.5" y="1072"/><text fill="#000000" font-family="sans-serif" font-size="14" lengthAdjust="spacing" textLength="101" x="3125.5" y="1086.9951">&#171;ValueObject&#187;</text><text fill="#000000" font-family="sans-serif" font-size="14" lengthAdjust="spacing" textLength="111" x="3120.5" y="1103.292">UserStoryStatus</text><line style="stroke:#181818;stroke-width:0.5;" x1="3114.5" x2="3237.5" y1="1108.5938" y2="1108.5938"/></g><g id="elem_UserStoryDescription"><rect fill="#F1F1F1" height="52.5938" style="stroke:#181818;stroke-width:0.5;" width="115" x="2782.5" y="1242"/><text fill="#000000" font-family="sans-serif" font-size="14" lengthAdjust="spacing" textLength="101" x="2789.5" y="1256.9951">&#171;ValueObject&#187;</text><text fill="#000000" font-family="sans-serif" font-size="14" lengthAdjust="spacing" textLength="79" x="2800.5" y="1273.292">Description</text><line style="stroke:#181818;stroke-width:0.5;" x1="2783.5" x2="2896.5" y1="1278.5938" y2="1278.5938"/></g><g id="elem_Effort"><rect fill="#F1F1F1" height="52.5938" style="stroke:#181818;stroke-width:0.5;" width="115" x="2932.5" y="1242"/><text fill="#000000" font-family="sans-serif" font-size="14" lengthAdjust="spacing" textLength="101" x="2939.5" y="1256.9951">&#171;ValueObject&#187;</text><text fill="#000000" font-family="sans-serif" font-size="14" lengthAdjust="spacing" textLength="36" x="2972" y="1273.292">Effort</text><line style="stroke:#181818;stroke-width:0.5;" x1="2933.5" x2="3046.5" y1="1278.5938" y2="1278.5938"/></g><g id="elem_GMN59"><path d="M2381.5,729 L2381.5,769.2656 L2658.5,769.2656 L2658.5,739 L2648.5,729 L2381.5,729 " fill="#FEFFDD" style="stroke:#181818;stroke-width:0.5;"/><path d="M2648.5,729 L2648.5,739 L2658.5,739 L2648.5,729 " fill="#FEFFDD" style="stroke:#181818;stroke-width:1.0;"/><text fill="#000000" font-family="sans-serif" font-size="13" lengthAdjust="spacing" textLength="251" x="2387.5" y="746.0669">The repository of this aggregate can be</text><text fill="#000000" font-family="sans-serif" font-size="13" lengthAdjust="spacing" textLength="256" x="2387.5" y="761.1997">consulted to check the Product Backlog.</text></g><g id="elem_GMN62"><path d="M6,59 L6,159.7969 L374,159.7969 L374,69 L364,59 L6,59 " fill="#FEFFDD" style="stroke:#181818;stroke-width:0.5;"/><path d="M364,59 L364,69 L374,69 L364,59 " fill="#FEFFDD" style="stroke:#181818;stroke-width:1.0;"/><text fill="#000000" font-family="sans-serif" font-size="13" lengthAdjust="spacing" textLength="233" x="12" y="76.0669">This has a list of UserStoryCode that</text><text fill="#000000" font-family="sans-serif" font-size="13" lengthAdjust="spacing" textLength="247" x="12" y="91.1997">defines the priority of the User Stories.</text><text fill="#000000" font-family="sans-serif" font-size="13" lengthAdjust="spacing" textLength="298" x="12" y="106.3325">When saved in the database it would be stored</text><text fill="#000000" font-family="sans-serif" font-size="13" lengthAdjust="spacing" textLength="287" x="12" y="121.4653">as a String of User Story codes separated by</text><text fill="#000000" font-family="sans-serif" font-size="13" lengthAdjust="spacing" textLength="347" x="12" y="136.5981">a comma (e.g.: {US001,US002,US003}) to guarantee</text><text fill="#000000" font-family="sans-serif" font-size="13" lengthAdjust="spacing" textLength="221" x="12" y="151.731">that the priority is correctly stored.</text></g><g id="elem_N1"><path d="M3209,66.5 L3209,152.1641 L3587,152.1641 L3587,76.5 L3577,66.5 L3209,66.5 " fill="#FEFFDD" style="stroke:#181818;stroke-width:0.5;"/><path d="M3577,66.5 L3577,76.5 L3587,76.5 L3577,66.5 " fill="#FEFFDD" style="stroke:#181818;stroke-width:1.0;"/><text fill="#000000" font-family="sans-serif" font-size="13" lengthAdjust="spacing" textLength="235" x="3215" y="83.5669">Some simplifications in this diagram:</text><text fill="#000000" font-family="sans-serif" font-size="13" lengthAdjust="spacing" textLength="357" x="3215" y="98.6997">- The associations between aggregates are represented</text><text fill="#000000" font-family="sans-serif" font-size="13" lengthAdjust="spacing" textLength="328" x="3223" y="113.8325">as an association between Aggregate Root Entities.</text><text fill="#000000" font-family="sans-serif" font-size="13" lengthAdjust="spacing" textLength="336" x="3223" y="128.9653">In reality one Aggregate only knows the Value Object</text><text fill="#000000" font-family="sans-serif" font-size="13" lengthAdjust="spacing" textLength="200" x="3223" y="144.0981">that identifies other Aggregate.</text></g><!--link GMN59 to UserStoryAggregate--><g id="link_GMN59_UserStoryAggregate"><path d="M2539.39,769.33 C2562.095,791.975 2600.8725,830.645 2634.4013,864.08 C2651.1656,880.7975 2666.6178,896.2063 2678.0927,907.6488 C2680.9614,910.5094 2683.5815,913.1221 2685.9114,915.4454 C2687.0763,916.6071 2688.1687,917.6964 2689.1834,918.7082 C2689.437,918.9611 2689.6858,919.2092 2689.9297,919.4524 " fill="none" id="GMN59-UserStoryAggregate" style="stroke:#181818;stroke-width:1.0;stroke-dasharray:7.0,7.0;"/></g><!--link GMN62 to ProductBacklog--><g id="link_GMN62_ProductBacklog"><path d="M296.69,58.96 C352.15,32.69 408.5,6 408.5,6 C408.5,6 770.5,6 770.5,6 C770.5,6 1052.55,67.91 1180.36,95.97 " fill="none" id="GMN62-ProductBacklog" style="stroke:#181818;stroke-width:1.0;stroke-dasharray:7.0,7.0;"/></g><!--link Project to ProjectValueObject--><g id="link_Project_ProjectValueObject"><path codeLine="123" d="M1242.93,937.15 C1131.15,954.24 871,994 871,994 C871,994 869.8494,1000.2681 868.1144,1009.7192 " fill="none" id="Project-to-ProjectValueObject" style="stroke:#181818;stroke-width:1.0;"/><polygon fill="#181818" points="868.1144,1009.7192,873.6737,1001.5894,869.0172,1004.8014,865.8052,1000.1449,868.1144,1009.7192" style="stroke:#181818;stroke-width:1.0;"/></g><!--link Project to ProjectTypology--><g id="link_Project_ProjectTypology"><path codeLine="125" d="M1343.09,939.09 C1436.97,957.05 1630,994 1630,994 C1630,994 1673.01,1037.65 1703.18,1068.25 " fill="none" id="Project-to-ProjectTypology" style="stroke:#181818;stroke-width:1.0;"/><polygon fill="#181818" points="1706.79,1071.92,1703.329,1062.6993,1703.2832,1068.356,1697.6265,1068.3102,1706.79,1071.92" style="stroke:#181818;stroke-width:1.0;"/></g><!--link Project to ProjectStatus--><g id="link_Project_ProjectStatus"><path codeLine="126" d="M1317.15,955.02 C1345.87,985.36 1393.71,1035.91 1424.02,1067.93 " fill="none" id="Project-to-ProjectStatus" style="stroke:#181818;stroke-width:1.0;"/><polygon fill="#181818" points="1427.62,1071.74,1424.327,1062.458,1424.1785,1068.1129,1418.5236,1067.9644,1427.62,1071.74" style="stroke:#181818;stroke-width:1.0;"/></g><!--link Project to Customer--><g id="link_Project_Customer"><path codeLine="127" d="M1343.1,933.18 C1529.46,946.85 2172,994 2172,994 C2172,994 2209.64,1037.29 2236.24,1067.88 " fill="none" id="Project-to-Customer" style="stroke:#181818;stroke-width:1.0;"/><polygon fill="#181818" points="2239.75,1071.92,2236.854,1062.5065,2236.4656,1068.15,2230.8221,1067.7616,2239.75,1071.92" style="stroke:#181818;stroke-width:1.0;"/></g><!--link Project to BusinessSector--><g id="link_Project_BusinessSector"><path codeLine="128" d="M1343.01,934.81 C1488.45,950.23 1901,994 1901,994 C1901,994 1944.01,1037.65 1974.18,1068.25 " fill="none" id="Project-to-BusinessSector" style="stroke:#181818;stroke-width:1.0;"/><polygon fill="#181818" points="1977.79,1071.92,1974.329,1062.6993,1974.2832,1068.356,1968.6265,1068.3102,1977.79,1071.92" style="stroke:#181818;stroke-width:1.0;"/></g><!--link UserStory to UserStoryValueObject--><g id="link_UserStory_UserStoryValueObject"><path codeLine="130" d="M2775.78,955.36 C2770.77,973.31 2765,994 2765,994 C2765,994 2763.8494,1000.2681 2762.1144,1009.7192 " fill="none" id="UserStory-to-UserStoryValueObject" style="stroke:#181818;stroke-width:1.0;"/><polygon fill="#181818" points="2762.1144,1009.7192,2767.6737,1001.5894,2763.0172,1004.8014,2759.8052,1000.1449,2762.1144,1009.7192" style="stroke:#181818;stroke-width:1.0;"/></g><!--link Sprint to SprintValueObject--><g id="link_Sprint_SprintValueObject"><path codeLine="132" d="M2971.8,136.12 C2955.21,148.2 2939,160 2939,160 C2939,160 2855,199 2855,199 C2855,199 2853.8494,205.2681 2852.1144,214.7192 " fill="none" id="Sprint-to-SprintValueObject" style="stroke:#181818;stroke-width:1.0;"/><polygon fill="#181818" points="2852.1144,214.7192,2857.6737,206.5894,2853.0172,209.8014,2849.8052,205.1449,2852.1144,214.7192" style="stroke:#181818;stroke-width:1.0;"/></g><!--link Resource to ResourceValueObject--><g id="link_Resource_ResourceValueObject"><path codeLine="134" d="M455.22,136.39 C453.34,149.2875 450.9188,165.8969 448.3364,183.6102 C447.0452,192.4668 445.7138,201.5994 444.3896,210.682 C444.2241,211.8173 444.0587,212.9519 443.8934,214.085 C443.8521,214.3683 443.8109,214.6515 443.7696,214.9346 " fill="none" id="Resource-to-ResourceValueObject" style="stroke:#181818;stroke-width:1.0;"/><polygon fill="#181818" points="443.7696,214.9346,449.0262,206.6058,444.4909,209.9869,441.1099,205.4516,443.7696,214.9346" style="stroke:#181818;stroke-width:1.0;"/></g><!--link Account to AccountValueObject--><g id="link_Account_AccountValueObject"><path codeLine="136" d="M374.05,955.02 C372.26,966.585 370.0156,981.0869 367.6489,996.3797 C367.0572,1000.2029 366.4579,1004.0755 365.8561,1007.9641 C365.7809,1008.4501 365.7056,1008.9365 365.6303,1009.4229 " fill="none" id="Account-to-AccountValueObject" style="stroke:#181818;stroke-width:1.0;"/><polygon fill="#181818" points="365.6303,1009.4229,370.9597,1001.1406,366.395,1004.4818,363.0538,999.9171,365.6303,1009.4229" style="stroke:#181818;stroke-width:1.0;"/></g><!--link Customer to CustomerValueObject--><g id="link_Customer_CustomerValueObject"><path codeLine="138" d="M2258.05,1125.02 C2256.26,1136.585 2254.0156,1151.0869 2251.6489,1166.3797 C2251.0572,1170.2029 2250.4579,1174.0755 2249.8561,1177.9641 C2249.7809,1178.4501 2249.7056,1178.9365 2249.6303,1179.4229 " fill="none" id="Customer-to-CustomerValueObject" style="stroke:#181818;stroke-width:1.0;"/><polygon fill="#181818" points="2249.6303,1179.4229,2254.9597,1171.1406,2250.395,1174.4818,2247.0538,1169.9171,2249.6303,1179.4229" style="stroke:#181818;stroke-width:1.0;"/></g><!--link ProjectTypology to ProjectTypologyValueObject--><g id="link_ProjectTypology_ProjectTypologyValueObject"><path codeLine="140" d="M1724.38,1125.36 C1719.1,1143.31 1713,1164 1713,1164 C1713,1164 1711.8494,1170.2681 1710.1144,1179.7192 " fill="none" id="ProjectTypology-to-ProjectTypologyValueObject" style="stroke:#181818;stroke-width:1.0;"/><polygon fill="#181818" points="1710.1144,1179.7192,1715.6737,1171.5894,1711.0172,1174.8014,1707.8052,1170.1449,1710.1144,1179.7192" style="stroke:#181818;stroke-width:1.0;"/></g><!--link Profile to ProfileValueObject--><g id="link_Profile_ProfileValueObject"><path codeLine="142" d="M295.05,1693.02 C293.26,1704.585 291.0156,1719.0869 288.6489,1734.3797 C288.0572,1738.2029 287.4579,1742.0755 286.8561,1745.9641 C286.7809,1746.4501 286.7056,1746.9365 286.6303,1747.4229 " fill="none" id="Profile-to-ProfileValueObject" style="stroke:#181818;stroke-width:1.0;"/><polygon fill="#181818" points="286.6303,1747.4229,291.9597,1739.1406,287.395,1742.4818,284.0538,1737.9171,286.6303,1747.4229" style="stroke:#181818;stroke-width:1.0;"/></g><!--link ProjectStatus to ProjectStatusValueObject--><g id="link_ProjectStatus_ProjectStatusValueObject"><path codeLine="144" d="M1447.6,1125.02 C1445.6025,1136.585 1443.0981,1151.0869 1440.4573,1166.3797 C1439.7971,1170.2029 1439.1284,1174.0755 1438.457,1177.9641 C1438.373,1178.4501 1438.2891,1178.9365 1438.2051,1179.4229 " fill="none" id="ProjectStatus-to-ProjectStatusValueObject" style="stroke:#181818;stroke-width:1.0;"/><polygon fill="#181818" points="1438.2051,1179.4229,1443.6781,1171.2348,1439.0558,1174.4959,1435.7948,1169.8736,1438.2051,1179.4229" style="stroke:#181818;stroke-width:1.0;"/></g><!--link BusinessSector to BusinessSectorValueObject--><g id="link_BusinessSector_BusinessSectorValueObject"><path codeLine="146" d="M1995.38,1125.36 C1990.1,1143.31 1984,1164 1984,1164 C1984,1164 1982.8494,1170.2681 1981.1144,1179.7192 " fill="none" id="BusinessSector-to-BusinessSectorValueObject" style="stroke:#181818;stroke-width:1.0;"/><polygon fill="#181818" points="1981.1144,1179.7192,1986.6737,1171.5894,1982.0172,1174.8014,1978.8052,1170.1449,1981.1144,1179.7192" style="stroke:#181818;stroke-width:1.0;"/></g><!--link Resource to Project--><g id="link_Resource_Project"><path codeLine="149" d="M509.01,125.81 C591.73,151.14 748,199 748,199 C748,199 945,302.5 945,302.5 C945,302.5 945,302.5 945,750 C945,750 1140.15,849.54 1238.18,899.54 " fill="none" id="Resource-to-Project" style="stroke:#181818;stroke-width:1.0;"/><polygon fill="#181818" points="1242.77,901.88,1236.5674,894.2296,1238.3151,899.6097,1232.935,901.3574,1242.77,901.88" style="stroke:#181818;stroke-width:1.0;"/><text fill="#000000" font-family="sans-serif" font-size="13" lengthAdjust="spacing" textLength="77" x="946" y="602.0669">ProjectCode</text></g><!--link Resource to Account--><g id="link_Resource_Account"><path codeLine="150" d="M446.27,136.1 C433.28,162.24 415,199 415,199 C415,199 378,302.5 378,302.5 C378,302.5 378,302.5 378,750 C378,750 378,845.77 378,896.62 " fill="none" id="Resource-to-Account" style="stroke:#181818;stroke-width:1.0;"/><polygon fill="#181818" points="378,901.69,382,892.69,378,896.69,374,892.69,378,901.69" style="stroke:#181818;stroke-width:1.0;"/><text fill="#000000" font-family="sans-serif" font-size="13" lengthAdjust="spacing" textLength="35" x="379" y="602.0669">Email</text></g><!--link Sprint to Project--><g id="link_Sprint_Project"><path codeLine="152" d="M2971.8,136.12 C2955.21,148.2 2939,160 2939,160 C2939,160 2775,199 2775,199 C2775,199 2545,302.5 2545,302.5 C2545,302.5 2545,302.5 2545,559 C2545,559 2497,637 2497,637 C2497,637 1584.58,857.15 1348.32,914.15 " fill="none" id="Sprint-to-Project" style="stroke:#181818;stroke-width:1.0;"/><polygon fill="#181818" points="1343.2,915.39,1352.8858,917.1749,1348.0614,914.221,1351.0153,909.3966,1343.2,915.39" style="stroke:#181818;stroke-width:1.0;"/><text fill="#000000" font-family="sans-serif" font-size="13" lengthAdjust="spacing" textLength="77" x="2527" y="602.0669">ProjectCode</text></g><!--link Sprint to UserStory--><g id="link_Sprint_UserStory"><path codeLine="153" d="M2971.8,136.12 C2955.21,148.2 2939,160 2939,160 C2939,160 2820,199 2820,199 C2820,199 2783,302.5 2783,302.5 C2783,302.5 2783,302.5 2783,750 C2783,750 2783,845.77 2783,896.62 " fill="none" id="Sprint-to-UserStory" style="stroke:#181818;stroke-width:1.0;"/><polygon fill="#181818" points="2783,901.69,2787,892.69,2783,896.69,2779,892.69,2783,901.69" style="stroke:#181818;stroke-width:1.0;"/><text fill="#000000" font-family="sans-serif" font-size="13" lengthAdjust="spacing" textLength="97" x="2784" y="602.0669">UserStoryCode</text><text fill="#000000" font-family="sans-serif" font-size="13" lengthAdjust="spacing" textLength="8" x="2955.225" y="155.7096">1</text><text fill="#000000" font-family="sans-serif" font-size="13" lengthAdjust="spacing" textLength="7" x="2775.1906" y="890.885">*</text></g><!--link Account to Profile--><g id="link_Account_Profile"><path codeLine="155" d="M361.16,955.36 C349.47,973.31 336,994 336,994 C336,994 299,1097.5 299,1097.5 C299,1097.5 299,1097.5 299,1539 C299,1539 299,1597.08 299,1634.53 " fill="none" id="Account-to-Profile" style="stroke:#181818;stroke-width:1.0;"/><polygon fill="#181818" points="299,1639.9,303,1630.9,299,1634.9,295,1630.9,299,1639.9" style="stroke:#181818;stroke-width:1.0;"/></g><!--link UserStory to Project--><g id="link_UserStory_Project"><path codeLine="157" d="M2768.1,901.88 C2752.12,873.31 2729,832 2729,832 C2729,832 2682,832 2682,832 C2682,832 1607.12,906.68 1348.48,924.65 " fill="none" id="UserStory-to-Project" style="stroke:#181818;stroke-width:1.0;"/><polygon fill="#181818" points="1343.26,925.01,1352.5228,928.3567,1348.2472,924.6527,1351.9512,920.3772,1343.26,925.01" style="stroke:#181818;stroke-width:1.0;"/><text fill="#000000" font-family="sans-serif" font-size="13" lengthAdjust="spacing" textLength="77" x="2385.5" y="812.0669">ProjectCode</text></g><!--reverse link ProductBacklog to Project--><g id="link_ProductBacklog_Project"><path codeLine="159" d="M1242,141.48 C1242,195.8 1242,302.5 1242,302.5 C1242,302.5 1242,302.5 1242,750 C1242,750 1271.44,852.46 1285.58,901.69 " fill="none" id="ProductBacklog-backto-Project" style="stroke:#181818;stroke-width:1.0;"/><polygon fill="#181818" points="1242,136.39,1238,145.39,1242,141.39,1246,145.39,1242,136.39" style="stroke:#181818;stroke-width:1.0;"/><text fill="#000000" font-family="sans-serif" font-size="13" lengthAdjust="spacing" textLength="99" x="1243" y="602.0669">ProductBacklog</text></g><!--link ProductBacklog to UserStory--><g id="link_ProductBacklog_UserStory"><path codeLine="160" d="M1303.77,120.96 C1540.41,161.03 2376,302.5 2376,302.5 C2376,302.5 2376,302.5 2376,559 C2376,559 2403,606 2403,606 C2403,606 2676,729 2676,729 C2676,729 2729,824 2729,824 C2729,824 2751.22,866.59 2767.15,897.13 " fill="none" id="ProductBacklog-to-UserStory" style="stroke:#181818;stroke-width:1.0;"/><polygon fill="#181818" points="2769.65,901.92,2769.0267,892.0909,2767.3342,897.4886,2761.9365,895.7961,2769.65,901.92" style="stroke:#181818;stroke-width:1.0;"/><text fill="#000000" font-family="sans-serif" font-size="13" lengthAdjust="spacing" textLength="97" x="2404" y="602.0669">UserStoryCode</text><text fill="#000000" font-family="sans-serif" font-size="13" lengthAdjust="spacing" textLength="8" x="1311.3747" y="118.5159">1</text><text fill="#000000" font-family="sans-serif" font-size="13" lengthAdjust="spacing" textLength="7" x="2758.5428" y="890.7456">*</text></g><!--SRC=[hLXBR-Cs4BxpLn2-f2swmQQz1OQ191kWUqc3EBkzz49BOvcDJ0earTHOvBzt-1GbAxOCnmU3ZszU7qT3ZIxq2nSDKsnB6rQyi0gMPbS3LL0O9geQI0UekG2pQu0sijxP2RceOMseaLJnQcDeoQqObuAG2tfJLGegPa3JJ-VyIF2BtXI5R8L9UkaFGl4dL_-WKJgRpt7daZv9QHQBlqL0poZJKTB1exRlh6xXJo_RGVBL-Vmfah1O16DzWndQchpVCbuxWsvqNE21RS7XxU0u_74Z1JoqsnKe9vNDdV0RUIE9hKSbrxo6YMm5j5VhnuVO2f2ps4h11sM9WruOJw1bgugfSKIuKnmdXoA9cBD2UPA1EZiu3h-fQram-vpux4pJuw9tKfj7K7-Wpquscq_87r1SbZrg_D9ezbYfwTbZr-Dfsl40VYyCDxk0BTl2tAAXMbPH95iYHnBF3lFL2UTpsvOLUFVyS09Ntb2Uf75-NFWBw4Bn9frm4CwMJpgi89wTrK79PQEuC5zQrQLOV-dTuruQPbfzsg5xcTnFlpBb63tomwf8ftAybWJ8ymxlBrdjJeipIkN6ujgKM2FsGwEDIiVZlMqrNj9QBn4frSHm-qBXcScN3iNQHtvCg7sTuv7UjTh8BKoDCS9z2GsJGt55p5aHFRF_lfQ0XN3DVRdFhl9tzawWAReuJf0l01FfyU2iSBnRpFrsNijxAuSezS2p2FKgxcG9cMaxFQcwUh7XHTXHzqs3McBcJQqN2U-qfzaXBXBeB3gIbiH8RsN2UqbHG8CM2xXJt20XBBuz3vPFy2Mx7WPhfr-ZIS595-dzUYsLpsO_p0xvWZx8inkKiveRWVQnWMgeN8za6ddUs5QiaPhRTGio6wufIwbOC45NG0efT5iRA6qpLcoWU44Wn3Sh6fx7ImAYfDOayOPT-uPA1szWpzR61WbZsFDfq_FDfXBgPeQKiBQ5sHd2PqXYSWGF_KD3BPw3lYH_RK1GpVv5zxXm-oKpRCKqK6xegsph4eEWMC0KbCJPNHfyAgjesQdQqG9jQwh1jgCsrjMEC5pSRXdz2Iwhoslwuzloy-UhN-t_R-x_zxUVBILLYoB2013hUjzbZBMGodQkzIxui4UKxT6ko18BBDLyszIfJciV4UeeEQkmIxucdwWzDQQrB7Z0hC2y0dB0kfwOANUo2ZIMVR2LnyOjShaarbKUMsIegx-EM4g_2jJ2QaUzW0mf1KRp8kIhFo3tK53_LA2OOu676mUzaOXHdNGUFtRoUIWyY-BCnZwynA2MnSYBFHdRJszS8tkXhEGxwMxF5mUlCoIbjjiTgyM4-4l20VOkBa9YD-NsHpfAGiBd1GVO_zH0I7Iqv_KO6P60CLA6UDjLHzoWNK_wF6dxDFQmVSP6IEoX1mapallJqYDZrVsIX_GwZjozje-BR5-73p7TyHrK552pgra2pdwPTHc1yFwDcXrhfzXzE-abrK6Zf5zxwJpW-_2yEWy4q5qwqT__0G00]--></g></svg>