<svg version="1.1" xmlns="http://www.w3.org/2000/svg" viewBox="0 0 581.5999755859375 365.5999755859375" width="581.5999755859375" height="365.5999755859375">
  <!-- svg-source:excalidraw -->
  
  <defs>
    <style class="style-fonts">
      @font-face {
        font-family: "Virgil";
        src: url("https://excalidraw.com/Virgil.woff2");
      }
      @font-face {
        font-family: "Cascadia";
        src: url("https://excalidraw.com/Cascadia.woff2");
      }
    </style>
  </defs>
  <rect x="0" y="0" width="581.5999755859375" height="365.5999755859375" fill="#ffffff"></rect><g stroke-linecap="round" transform="translate(10 10) rotate(0 280.79998779296875 172.79998779296875)"><path d="M32 0 M32 0 C150.58 -0.92, 269.57 -1.85, 529.6 0 M32 0 C185.43 0.42, 338.08 0.4, 529.6 0 M529.6 0 C551.63 -1.72, 561.91 11.77, 561.6 32 M529.6 0 C550.71 -0.21, 563.43 11.01, 561.6 32 M561.6 32 C562.65 110.86, 564.16 190.71, 561.6 313.6 M561.6 32 C559.44 120.26, 560.36 208.85, 561.6 313.6 M561.6 313.6 C561.44 333.74, 552.59 344.02, 529.6 345.6 M561.6 313.6 C562.64 336.09, 548.78 345.37, 529.6 345.6 M529.6 345.6 C330.9 347.04, 131.18 347.22, 32 345.6 M529.6 345.6 C334.2 344.21, 139.51 344.02, 32 345.6 M32 345.6 C9.49 345.62, 0.82 334.21, 0 313.6 M32 345.6 C12.91 345.15, 1.19 335.43, 0 313.6 M0 313.6 C-0.13 233.78, 0.18 156.65, 0 32 M0 313.6 C-0.31 226.14, -0.64 139.19, 0 32 M0 32 C1.11 10.93, 9.59 0.09, 32 0 M0 32 C2 9.61, 11.66 -0.43, 32 0" stroke="#415a77" stroke-width="1" fill="none"></path></g><g stroke-linecap="round" transform="translate(146.35043334960938 34.59754180908203) rotate(0 208.00001525878906 154.00000762939453)"><path d="M32 0 M32 0 C103.26 1.56, 176.91 1.38, 384 0 M32 0 C123.8 -1.23, 214.65 -0.75, 384 0 M384 0 C404.53 1.81, 417.66 8.86, 416 32 M384 0 C403.41 0.69, 414.17 9.44, 416 32 M416 32 C416.17 122.53, 415.9 213.17, 416 276 M416 32 C417.39 118.06, 417 203.57, 416 276 M416 276 C414.67 299.08, 407.14 307.02, 384 308 M416 276 C417.53 295.77, 403.38 308.78, 384 308 M384 308 C269.8 305.72, 154.18 304.76, 32 308 M384 308 C251.46 307.9, 118.39 306.98, 32 308 M32 308 C9.61 308.73, -0.7 297.91, 0 276 M32 308 C9.23 310.16, 1.2 298.59, 0 276 M0 276 C-0.62 212.2, -3.2 152.18, 0 32 M0 276 C0.55 224.1, -0.36 171.59, 0 32 M0 32 C-0.43 11.08, 10.95 1.67, 32 0 M0 32 C0.32 11.1, 9.28 1.77, 32 0" stroke="#343a40" stroke-width="1" fill="none"></path></g><g stroke-linecap="round" transform="translate(20.79998779296875 32.999977111816406) rotate(0 58 156.0000228881836)"><path d="M29 0 M29 0 C49.44 0.8, 67.69 1.54, 87 0 M29 0 C47.44 0.54, 67.17 -0.94, 87 0 M87 0 C106.01 1.87, 114.1 8.94, 116 29 M87 0 C105.84 -1.57, 117.87 7.86, 116 29 M116 29 C116.21 114.66, 115.47 203.54, 116 283 M116 29 C116.3 121.75, 116.71 216.23, 116 283 M116 283 C117.92 302.74, 105.44 310.09, 87 312 M116 283 C117.39 303.85, 105.42 309.91, 87 312 M87 312 C67.06 310.03, 42.17 310.31, 29 312 M87 312 C72.78 311.43, 56.28 311.62, 29 312 M29 312 C10.92 310.15, -1.61 303.12, 0 283 M29 312 C7.42 311.05, 1.66 301.41, 0 283 M0 283 C-0.49 211.1, 1.58 137.23, 0 29 M0 283 C0.95 202.81, 1.11 120.65, 0 29 M0 29 C1.72 11.15, 9.32 -1.13, 29 0 M0 29 C0.43 10.7, 7.54 1.64, 29 0" stroke="#343a40" stroke-width="1" fill="none"></path></g><g stroke-linecap="round" transform="translate(31.999969482421875 86.5999984741211) rotate(0 47.19999694824219 15.20001220703125)"><path d="M7.6 0 M7.6 0 C34.17 -1.31, 61.26 -0.6, 86.8 0 M7.6 0 C31.8 1.14, 56 -0.44, 86.8 0 M86.8 0 C92.55 0.32, 95.3 2.87, 94.4 7.6 M86.8 0 C91.75 0.75, 92.77 2.09, 94.4 7.6 M94.4 7.6 C94.99 14.31, 93.11 20.19, 94.4 22.8 M94.4 7.6 C93.68 10.51, 94.48 14.32, 94.4 22.8 M94.4 22.8 C93.26 27.04, 90.07 30.49, 86.8 30.4 M94.4 22.8 C93.72 25.68, 90.13 28.64, 86.8 30.4 M86.8 30.4 C63.04 31.3, 38.58 30.12, 7.6 30.4 M86.8 30.4 C69.44 28.89, 52.89 29.44, 7.6 30.4 M7.6 30.4 C1.05 29.46, -1.84 28.89, 0 22.8 M7.6 30.4 C1.42 30.33, -1.07 25.77, 0 22.8 M0 22.8 C-0.34 18.72, 1.36 13.97, 0 7.6 M0 22.8 C0.21 19.75, -0.43 15.92, 0 7.6 M0 7.6 C0.42 1.29, 3.92 1.87, 7.6 0 M0 7.6 C0.2 1.28, 4.21 1.76, 7.6 0" stroke="#000000" stroke-width="1" fill="none"></path></g><g stroke-linecap="round" transform="translate(32.39997863769531 126.39995574951172) rotate(0 47.19999694824219 15.20001220703125)"><path d="M7.6 0 M7.6 0 C34.75 0.94, 56.86 1.91, 86.8 0 M7.6 0 C39.51 1.2, 70.62 0.99, 86.8 0 M86.8 0 C90.35 -1.6, 94.2 1.75, 94.4 7.6 M86.8 0 C91.15 0.18, 94.41 2.8, 94.4 7.6 M94.4 7.6 C93.02 13.41, 94.15 17.89, 94.4 22.8 M94.4 7.6 C94.9 12.04, 94.78 18.31, 94.4 22.8 M94.4 22.8 C95.4 29.81, 90.31 32.24, 86.8 30.4 M94.4 22.8 C93.27 26.77, 91.01 29.11, 86.8 30.4 M86.8 30.4 C61.72 28.49, 38.81 30.11, 7.6 30.4 M86.8 30.4 C68.25 30.03, 48.37 29.31, 7.6 30.4 M7.6 30.4 C2.25 31.5, -1.44 26.06, 0 22.8 M7.6 30.4 C0.89 32.67, 0.95 25.84, 0 22.8 M0 22.8 C-0.43 17.34, 0.79 10.49, 0 7.6 M0 22.8 C-0.16 16.32, -0.49 10.65, 0 7.6 M0 7.6 C0.61 0.68, 2.13 -1.12, 7.6 0 M0 7.6 C-0.13 4.73, 2.43 1.97, 7.6 0" stroke="#000000" stroke-width="1" fill="none"></path></g><g stroke-linecap="round" transform="translate(31.599990844726562 164.59996795654297) rotate(0 47.19999694824219 15.20001220703125)"><path d="M7.6 0 M7.6 0 C29.79 -1.97, 48.16 -1.16, 86.8 0 M7.6 0 C30.66 0.06, 55.99 0.37, 86.8 0 M86.8 0 C92.37 -1.57, 94.11 3.63, 94.4 7.6 M86.8 0 C90.21 -2.07, 92.76 4.8, 94.4 7.6 M94.4 7.6 C94.31 12.62, 93.84 17.99, 94.4 22.8 M94.4 7.6 C93.79 13.26, 94.01 17.78, 94.4 22.8 M94.4 22.8 C92.87 27.22, 92.48 28.55, 86.8 30.4 M94.4 22.8 C93.94 26.58, 91.74 32.6, 86.8 30.4 M86.8 30.4 C61.98 31.46, 40.32 32.51, 7.6 30.4 M86.8 30.4 C54.87 30.71, 23.46 31.03, 7.6 30.4 M7.6 30.4 C0.55 28.4, -0.6 26.1, 0 22.8 M7.6 30.4 C1.45 28.14, 1.36 25.63, 0 22.8 M0 22.8 C-1.13 16.64, 0.32 14.58, 0 7.6 M0 22.8 C0.15 18.67, 0.07 15.93, 0 7.6 M0 7.6 C0.9 2.83, 1.51 -1.1, 7.6 0 M0 7.6 C-0.09 3.56, 0.79 1.6, 7.6 0" stroke="#000000" stroke-width="1" fill="none"></path></g><g stroke-linecap="round" transform="translate(31.399978637695312 206.5999984741211) rotate(0 47.19999694824219 15.20001220703125)"><path d="M7.6 0 M7.6 0 C26.51 -1.6, 43.8 -0.86, 86.8 0 M7.6 0 C31.78 0.72, 53.53 0.3, 86.8 0 M86.8 0 C92.21 1.57, 96.38 2.42, 94.4 7.6 M86.8 0 C91.19 -0.71, 95.64 2.3, 94.4 7.6 M94.4 7.6 C93.79 12.12, 93.53 17.84, 94.4 22.8 M94.4 7.6 C94.11 13.43, 93.67 17.87, 94.4 22.8 M94.4 22.8 C94.78 29.83, 90.77 31.73, 86.8 30.4 M94.4 22.8 C93.3 28.61, 90.63 30.93, 86.8 30.4 M86.8 30.4 C55.98 29.42, 27.12 31.41, 7.6 30.4 M86.8 30.4 C69.43 30.19, 51.47 30.62, 7.6 30.4 M7.6 30.4 C2.69 29.14, -1.6 27.68, 0 22.8 M7.6 30.4 C4.14 30.93, -0.99 26.54, 0 22.8 M0 22.8 C0.55 20.27, -0.01 16.21, 0 7.6 M0 22.8 C0.89 16.72, 0.02 12.1, 0 7.6 M0 7.6 C-0.31 2.46, 3.71 -0.61, 7.6 0 M0 7.6 C2.21 4.66, 2.51 2.16, 7.6 0" stroke="#000000" stroke-width="1" fill="none"></path></g><g transform="translate(56 11.400007629394537) rotate(0 28.149999618530273 9.599999999999994)"><text x="0" y="0" font-family="Cascadia, Segoe UI Emoji" font-size="16px" fill="#000000" text-anchor="start" style="white-space: pre;" direction="ltr" dominant-baseline="text-before-edge">NavBar</text></g><g transform="translate(191.99993896484375 12.199974060058594) rotate(0 37.53333282470703 9.599999999999994)"><text x="0" y="0" font-family="Cascadia, Segoe UI Emoji" font-size="16px" fill="#000000" text-anchor="start" style="white-space: pre;" direction="ltr" dominant-baseline="text-before-edge">Projects</text></g><g stroke-linecap="round" transform="translate(194.5999755859375 281.2000045776367) rotate(0 26.800018310546875 12.399993896484375)"><path d="M6.2 0 M6.2 0 C20.39 0.21, 32.44 -0.28, 47.4 0 M6.2 0 C15.17 -0.31, 24.13 0.71, 47.4 0 M47.4 0 C51.88 -1.21, 53.77 1.03, 53.6 6.2 M47.4 0 C53.16 0.75, 53.47 2.12, 53.6 6.2 M53.6 6.2 C54.82 9.67, 53.01 10.3, 53.6 18.6 M53.6 6.2 C54.06 10.43, 52.99 14.31, 53.6 18.6 M53.6 18.6 C55.49 22.06, 50.49 26.71, 47.4 24.8 M53.6 18.6 C51.47 24.36, 53.72 26.47, 47.4 24.8 M47.4 24.8 C37.21 24.76, 23.83 25.24, 6.2 24.8 M47.4 24.8 C32.93 24.45, 20.62 23.98, 6.2 24.8 M6.2 24.8 C1.88 24.34, 1.83 23.62, 0 18.6 M6.2 24.8 C3.77 23.8, -1.57 22.12, 0 18.6 M0 18.6 C-0.05 16.62, 0.33 12.88, 0 6.2 M0 18.6 C-0.66 14.41, 0.44 9.36, 0 6.2 M0 6.2 C0.39 1.03, 0.49 -0.12, 6.2 0 M0 6.2 C1.53 2.37, 1.15 -1.01, 6.2 0" stroke="#000000" stroke-width="1" fill="none"></path></g><g stroke-linecap="round" transform="translate(170.4791259765625 76.6695327758789) rotate(0 115.05245971679688 120.98702239990234)"><path d="M32 0 M32 0 C68.68 1.54, 103.73 -0.64, 198.1 0 M32 0 C74.2 -0.39, 114.79 -0.43, 198.1 0 M198.1 0 C218.38 -1.28, 229.19 9.21, 230.1 32 M198.1 0 C221.43 1.86, 230.88 8.64, 230.1 32 M230.1 32 C230.88 100.75, 232.43 165.67, 230.1 209.97 M230.1 32 C230.5 83.46, 230.24 135.89, 230.1 209.97 M230.1 209.97 C230.49 230.41, 217.51 240.06, 198.1 241.97 M230.1 209.97 C228.63 231.33, 218.47 243.34, 198.1 241.97 M198.1 241.97 C161.16 242.14, 122 240.41, 32 241.97 M198.1 241.97 C155.47 240.98, 113 241.21, 32 241.97 M32 241.97 C9.94 240.44, 1.39 230.47, 0 209.97 M32 241.97 C11.27 243.4, 1.57 230.35, 0 209.97 M0 209.97 C0.18 162.66, -1.9 114.56, 0 32 M0 209.97 C0.78 143.94, 1.94 79.31, 0 32 M0 32 C1.39 9.33, 9.76 -1.9, 32 0 M0 32 C0.48 10.87, 11.48 -0.33, 32 0" stroke="#000000" stroke-width="1" fill="none"></path></g><g transform="translate(192.00146484375 54.801902770996094) rotate(0 48.641666412353516 7.672470588235299)"><text x="0" y="0" font-family="Cascadia, Segoe UI Emoji" font-size="12.787450980392158px" fill="#000000" text-anchor="start" style="white-space: pre;" direction="ltr" dominant-baseline="text-before-edge">UserStoryForm</text></g><g stroke-linecap="round" transform="translate(258.9999694824219 281.8999938964844) rotate(0 26.800018310546875 12.399993896484375)"><path d="M6.2 0 M6.2 0 C19.57 -0.81, 36.33 -0.91, 47.4 0 M6.2 0 C22.16 0.16, 37.96 -0.29, 47.4 0 M47.4 0 C51.68 0.77, 55.28 3.75, 53.6 6.2 M47.4 0 C49.72 -2.11, 54.57 4.27, 53.6 6.2 M53.6 6.2 C52.68 9.65, 52.57 12.43, 53.6 18.6 M53.6 6.2 C53.93 9.74, 52.97 12.16, 53.6 18.6 M53.6 18.6 C53.92 24.53, 51.07 25.63, 47.4 24.8 M53.6 18.6 C54.88 20.64, 50.87 26.23, 47.4 24.8 M47.4 24.8 C39.33 23.07, 27.68 25.66, 6.2 24.8 M47.4 24.8 C39.55 25.69, 30.5 25.32, 6.2 24.8 M6.2 24.8 C3.31 26.65, 1.75 22.27, 0 18.6 M6.2 24.8 C-0.17 24.62, -1.48 22.34, 0 18.6 M0 18.6 C-1.04 15.36, -0.67 11.35, 0 6.2 M0 18.6 C-0.65 16.3, -0.02 13.19, 0 6.2 M0 6.2 C0.53 3.94, 1.09 0.26, 6.2 0 M0 6.2 C2.09 0.24, 4.23 0.46, 6.2 0" stroke="#000000" stroke-width="1" fill="none"></path></g><g stroke-linecap="round" transform="translate(326.4286193847656 282.4428405761719) rotate(0 26.800018310546875 12.399993896484375)"><path d="M6.2 0 M6.2 0 C22.1 -1.55, 34.34 -0.43, 47.4 0 M6.2 0 C20.82 -0.56, 34.24 0.68, 47.4 0 M47.4 0 C52.74 1.54, 53.6 2.87, 53.6 6.2 M47.4 0 C52.96 2.12, 55.61 1.53, 53.6 6.2 M53.6 6.2 C53.38 9.02, 52.64 11.65, 53.6 18.6 M53.6 6.2 C54.08 8.22, 53.99 11.34, 53.6 18.6 M53.6 18.6 C51.72 23.69, 51.67 24.09, 47.4 24.8 M53.6 18.6 C54.21 24.88, 50.41 25.1, 47.4 24.8 M47.4 24.8 C31.69 24.34, 13.38 26.01, 6.2 24.8 M47.4 24.8 C36.17 24.13, 26.12 24.92, 6.2 24.8 M6.2 24.8 C0.73 24.16, 1.1 23.93, 0 18.6 M6.2 24.8 C3.38 22.85, -0.37 23.57, 0 18.6 M0 18.6 C0.92 15.1, -0.58 13.3, 0 6.2 M0 18.6 C0.1 14.45, 0.27 11.41, 0 6.2 M0 6.2 C1 3.7, 3.21 1.93, 6.2 0 M0 6.2 C-2.09 2.48, 2.54 -0.97, 6.2 0" stroke="#000000" stroke-width="1" fill="none"></path></g><g stroke-linecap="round" transform="translate(189.83985900878906 124.4755859375) rotate(0 47.19999694824219 17.5)"><path d="M8.75 0 M8.75 0 C27.6 -1.68, 43.56 -0.76, 85.65 0 M8.75 0 C32.06 0.06, 53.4 0.94, 85.65 0 M85.65 0 C92.34 1.65, 96.14 2.27, 94.4 8.75 M85.65 0 C92.31 -0.63, 95.6 2.61, 94.4 8.75 M94.4 8.75 C94.36 12.89, 92.7 18.19, 94.4 26.25 M94.4 8.75 C95.02 12.27, 94.39 16.3, 94.4 26.25 M94.4 26.25 C96.19 31.97, 93.19 36.44, 85.65 35 M94.4 26.25 C94.89 31.63, 90.25 35.86, 85.65 35 M85.65 35 C66.79 33.84, 45.49 36.05, 8.75 35 M85.65 35 C65.5 35.49, 46.4 34.19, 8.75 35 M8.75 35 C4.27 36.71, 1.52 31.35, 0 26.25 M8.75 35 C3.99 34.27, -1.78 30.71, 0 26.25 M0 26.25 C-0.72 23.15, 0.49 19.85, 0 8.75 M0 26.25 C0.83 20.35, -0.53 16.58, 0 8.75 M0 8.75 C-0.41 4.34, 4.23 -1.1, 8.75 0 M0 8.75 C-0.17 4.24, 2.97 1.49, 8.75 0" stroke="#000000" stroke-width="1" fill="none"></path></g><g stroke-linecap="round" transform="translate(189.38526916503906 186.15493774414062) rotate(0 85.98930358886719 21.61004638671875)"><path d="M10.81 0 M10.81 0 C58.88 2.71, 106.89 1.8, 161.17 0 M10.81 0 C59.8 0.37, 107.84 0.45, 161.17 0 M161.17 0 C167.05 0.92, 170 4.95, 171.98 10.81 M161.17 0 C170.44 -0.4, 172.22 5.03, 171.98 10.81 M171.98 10.81 C170.89 18.97, 172.33 23.06, 171.98 32.42 M171.98 10.81 C171.8 19.89, 172.19 28.23, 171.98 32.42 M171.98 32.42 C172.15 37.71, 168.99 43.57, 161.17 43.22 M171.98 32.42 C172.18 38.57, 166.55 44.44, 161.17 43.22 M161.17 43.22 C107.81 44.66, 57.29 43.98, 10.81 43.22 M161.17 43.22 C121.76 44.97, 81.36 43.54, 10.81 43.22 M10.81 43.22 C4.57 41.88, 1.17 39.73, 0 32.42 M10.81 43.22 C2.6 43.5, 1.84 38.83, 0 32.42 M0 32.42 C-2.05 27.47, 0.45 21.45, 0 10.81 M0 32.42 C-0.11 23.39, 0.67 15.63, 0 10.81 M0 10.81 C0.54 4.83, 5.24 1.93, 10.81 0 M0 10.81 C-0.32 4.19, 1.97 -1.31, 10.81 0" stroke="#000000" stroke-width="1" fill="none"></path></g><g stroke-linecap="round"><g transform="translate(208.79998779296875 140.29998779296875) rotate(0 31.69644736810119 -0.9054151133795187)"><path d="M0.45 -0.16 C11.12 -0.52, 53.5 -1.68, 64.16 -1.65 M-0.77 -1.28 C9.75 -1.55, 52.53 -0.37, 63.3 -0.46" stroke="#000000" stroke-width="1" fill="none"></path></g></g><mask></mask><g stroke-linecap="round"><g transform="translate(203.79998779296875 197.2999877929687) rotate(0 69.38409116251859 0.5545303851416463)"><path d="M0.25 0.44 C23.63 0.3, 116.38 -0.01, 139.85 -0.03 M-1.08 -0.38 C22.17 -0.39, 115.16 1.13, 138.82 1.49" stroke="#000000" stroke-width="1" fill="none"></path></g></g><mask></mask><g stroke-linecap="round"><g transform="translate(205.79998779296875 212.29998779296875) rotate(0 67.13632881862111 1.548403659788903)"><path d="M0.55 0.83 C22.73 1.17, 110.67 1.61, 132.81 1.91 M-0.62 0.22 C21.93 0.68, 112.75 2.29, 134.89 2.88" stroke="#000000" stroke-width="1" fill="none"></path></g></g><mask></mask><g transform="translate(329.66650009155273 266.0859522633272) rotate(0 22.450000762939453 7.672470588235285)"><text x="0" y="0" font-family="Cascadia, Segoe UI Emoji" font-size="12.787450980392158px" fill="#000000" text-anchor="start" style="white-space: pre;" direction="ltr" dominant-baseline="text-before-edge">Button</text></g><g transform="translate(198.63872909545898 264.2145838551241) rotate(0 22.450000762939453 7.672470588235285)"><text x="0" y="0" font-family="Cascadia, Segoe UI Emoji" font-size="12.787450980392158px" fill="#000000" text-anchor="start" style="white-space: pre;" direction="ltr" dominant-baseline="text-before-edge">Button</text></g><g transform="translate(261.4432945251465 266.99284313246784) rotate(0 22.450000762939453 7.672470588235285)"><text x="0" y="0" font-family="Cascadia, Segoe UI Emoji" font-size="12.787450980392158px" fill="#000000" text-anchor="start" style="white-space: pre;" direction="ltr" dominant-baseline="text-before-edge">Button</text></g></svg>