<svg version="1.1" xmlns="http://www.w3.org/2000/svg" viewBox="0 0 779 535" width="779" height="535">
  <!-- svg-source:excalidraw -->
  
  <defs>
    <style class="style-fonts">
      @font-face {
        font-family: "Virgil";
        src: url("https://excalidraw.com/Virgil.woff2");
      }
      @font-face {
        font-family: "Cascadia";
        src: url("https://excalidraw.com/Cascadia.woff2");
      }
    </style>
    
  </defs>
  <rect x="0" y="0" width="779" height="535" fill="#ffffff"></rect><g stroke-linecap="round" transform="translate(10 10) rotate(0 379.5 257.5)"><path d="M32 0 M32 0 C184.25 0.8, 336.41 -0.31, 727 0 M32 0 C248.4 0.67, 464.72 0.46, 727 0 M727 0 C749.4 1.4, 757.78 9.81, 759 32 M727 0 C746.85 -1.39, 758.62 9.65, 759 32 M759 32 C757.74 173.3, 757.49 313.93, 759 483 M759 32 C760.1 144.93, 759.97 258.53, 759 483 M759 483 C758.22 503.06, 749.43 513.46, 727 515 M759 483 C759.58 503.3, 746.73 515.99, 727 515 M727 515 C474.06 514.33, 219.77 515.6, 32 515 M727 515 C458.75 517.21, 190.94 516.98, 32 515 M32 515 C8.86 515.39, 0.46 502.69, 0 483 M32 515 C9.45 514.39, 1.69 502.09, 0 483 M0 483 C1.83 359.22, 1.19 234.98, 0 32 M0 483 C1.75 340.2, 1.69 198.55, 0 32 M0 32 C1.21 10.76, 10.97 -0.12, 32 0 M0 32 C-1.02 12.76, 8.85 1.22, 32 0" stroke="#1e1e1e" stroke-width="1" fill="none"></path></g><g stroke-linecap="round" transform="translate(31 29) rotate(0 92.5 240)"><path d="M32 0 M32 0 C64.61 -0.72, 97.23 0.67, 153 0 M32 0 C76.16 -1.86, 119.27 -1.4, 153 0 M153 0 C172.37 -1.19, 185.88 11.87, 185 32 M153 0 C174.44 0.35, 184.86 9.65, 185 32 M185 32 C183.02 194.98, 184.04 356.85, 185 448 M185 32 C185.96 138.39, 186.05 243.64, 185 448 M185 448 C183.67 469.85, 175.25 478.82, 153 480 M185 448 C185.11 470.72, 174.08 478.89, 153 480 M153 480 C111.49 478.58, 66.69 481.6, 32 480 M153 480 C128.82 480.38, 103.7 479.82, 32 480 M32 480 C11.52 481.71, 0.52 468.17, 0 448 M32 480 C10.93 480.92, 1.84 468.89, 0 448 M0 448 C-1.64 285.78, -0.52 124.35, 0 32 M0 448 C2.22 350.46, 2.3 254.14, 0 32 M0 32 C1.98 11.83, 9.52 -1.75, 32 0 M0 32 C1.11 10.35, 11.48 0.65, 32 0" stroke="#1e1e1e" stroke-width="1" fill="none"></path></g><g transform="translate(85 39) rotate(0 35.15625 12)"><text x="0" y="0" font-family="Cascadia, Segoe UI Emoji" font-size="20px" fill="#1e1e1e" text-anchor="start" style="white-space: pre;" direction="ltr" dominant-baseline="text-before-edge">NavBar</text></g><g transform="translate(246 58) rotate(0 152.34375 12)"><text x="0" y="0" font-family="Cascadia, Segoe UI Emoji" font-size="20px" fill="#1e1e1e" text-anchor="start" style="white-space: pre;" direction="ltr" dominant-baseline="text-before-edge">SprintCode - SprintBacklog</text></g><g stroke-linecap="round" transform="translate(246 108) rotate(0 241 136.5)"><path d="M32 0 M32 0 C192.72 -2.59, 354.86 -1.42, 450 0 M32 0 C187.02 0.42, 342.5 -0.22, 450 0 M450 0 C471.2 1.34, 482.23 10.79, 482 32 M450 0 C472.68 -1.99, 481 11.41, 482 32 M482 32 C482.75 77.97, 482.87 123.48, 482 241 M482 32 C480.68 103.95, 480.27 177.37, 482 241 M482 241 C483.73 263.62, 471.2 273.01, 450 273 M482 241 C483.38 264.3, 470.4 274.16, 450 273 M450 273 C364.13 273.06, 277.43 273.75, 32 273 M450 273 C288.3 270.53, 126.41 271.05, 32 273 M32 273 C9.33 273.37, 0.83 263.57, 0 241 M32 273 C10.35 274.56, 0.19 262.08, 0 241 M0 241 C2.59 193.38, 3.27 142.02, 0 32 M0 241 C-0.05 187.06, -1.2 133.32, 0 32 M0 32 C1.99 9.53, 10.49 1.21, 32 0 M0 32 C-1.96 9.89, 12.82 1.58, 32 0" stroke="#1e1e1e" stroke-width="1" fill="none"></path></g><g stroke-linecap="round" transform="translate(259.6666666666665 118.66666666666663) rotate(0 229.5 20.5)"><path d="M10.25 0 M10.25 0 C104.75 0.63, 198.99 1.01, 448.75 0 M10.25 0 C112.57 -0.62, 214.75 -1.08, 448.75 0 M448.75 0 C457.14 -1.2, 460.43 2.38, 459 10.25 M448.75 0 C456.05 -1.28, 457.86 3.34, 459 10.25 M459 10.25 C459.69 19.19, 458.01 23.31, 459 30.75 M459 10.25 C460.02 16.54, 459.09 21.79, 459 30.75 M459 30.75 C460.51 39.42, 456.38 40.41, 448.75 41 M459 30.75 C459.79 36.14, 454.38 42.94, 448.75 41 M448.75 41 C306.3 39.62, 165.76 39.41, 10.25 41 M448.75 41 C277.51 42.09, 106.77 42.68, 10.25 41 M10.25 41 C3.69 42.69, -1.53 36.88, 0 30.75 M10.25 41 C5.65 40.33, 0.46 38.36, 0 30.75 M0 30.75 C-1.91 22.71, -1.1 16.66, 0 10.25 M0 30.75 C-0.44 23.65, 0.13 15.69, 0 10.25 M0 10.25 C1.89 4.96, 2.56 -0.85, 10.25 0 M0 10.25 C1.22 3.64, 5.7 -1.85, 10.25 0" stroke="#1e1e1e" stroke-width="1" fill="none"></path></g><g transform="translate(273.6666666666665 121.46666666666664) rotate(0 32.8125 19.19999999999999)"><text x="0" y="0" font-family="Cascadia, Segoe UI Emoji" font-size="16px" fill="#1e1e1e" text-anchor="start" style="white-space: pre;" direction="ltr" dominant-baseline="text-before-edge">Project</text><text x="0" y="19.2" font-family="Cascadia, Segoe UI Emoji" font-size="16px" fill="#1e1e1e" text-anchor="start" style="white-space: pre;" direction="ltr" dominant-baseline="text-before-edge">Code</text></g><g transform="translate(377.8541666666665 121.46666666666664) rotate(0 46.875 19.19999999999999)"><text x="0" y="0" font-family="Cascadia, Segoe UI Emoji" font-size="16px" fill="#1e1e1e" text-anchor="start" style="white-space: pre;" direction="ltr" dominant-baseline="text-before-edge">User Story</text><text x="0" y="19.2" font-family="Cascadia, Segoe UI Emoji" font-size="16px" fill="#1e1e1e" text-anchor="start" style="white-space: pre;" direction="ltr" dominant-baseline="text-before-edge">Code</text></g><g transform="translate(504.6666666666665 126.66666666666663) rotate(0 51.5625 9.599999999999994)"><text x="0" y="0" font-family="Cascadia, Segoe UI Emoji" font-size="16px" fill="#1e1e1e" text-anchor="start" style="white-space: pre;" direction="ltr" dominant-baseline="text-before-edge">Description</text></g><g transform="translate(641.6666666666665 126.66666666666663) rotate(0 28.125 9.599999999999994)"><text x="0" y="0" font-family="Cascadia, Segoe UI Emoji" font-size="16px" fill="#1e1e1e" text-anchor="start" style="white-space: pre;" direction="ltr" dominant-baseline="text-before-edge">Status</text></g><g stroke-linecap="round" transform="translate(262.6666666666665 171.66666666666663) rotate(0 225.5 99.5)"><path d="M32 0 M32 0 C153.39 -0.87, 272.04 -1.18, 419 0 M32 0 C133.25 -0.15, 234.06 -0.26, 419 0 M419 0 C442.14 -1.44, 452.63 9.22, 451 32 M419 0 C439.96 0.14, 453.13 9.51, 451 32 M451 32 C452.12 81.28, 454.21 129.07, 451 167 M451 32 C452.93 80.92, 451.38 129.04, 451 167 M451 167 C451.24 188.64, 440.02 200.44, 419 199 M451 167 C450.3 190.09, 441.73 200.22, 419 199 M419 199 C301.77 200.37, 182.08 199.13, 32 199 M419 199 C303.39 199.37, 187.05 199.08, 32 199 M32 199 C11.61 199.59, -0.73 190.04, 0 167 M32 199 C9.09 198.22, 1.72 189.51, 0 167 M0 167 C-2.17 130.39, -2.83 91.13, 0 32 M0 167 C-0.49 127.73, -0.81 88.28, 0 32 M0 32 C-0.7 12.6, 12.26 1, 32 0 M0 32 C2.29 12.66, 8.67 -1, 32 0" stroke="#1e1e1e" stroke-width="1" fill="none"></path></g></svg>