<?xml version="1.0" encoding="us-ascii" standalone="no"?><svg xmlns="http://www.w3.org/2000/svg" xmlns:xlink="http://www.w3.org/1999/xlink" contentStyleType="text/css" height="642px" preserveAspectRatio="none" style="width:1543px;height:642px;background:#FFFFFF;" version="1.1" viewBox="0 0 1543 642" width="1543px" zoomAndPan="magnify"><defs/><g><text fill="#000000" font-family="sans-serif" font-size="14" font-weight="bold" lengthAdjust="spacing" textLength="482" x="529.5" y="27.9951">US005 - As Administrator, I want to inactivate a user account</text><rect fill="#FFFFFF" height="393.6797" style="stroke:#181818;stroke-width:1.0;" width="10" x="255" y="149.7266"/><rect fill="#FFFFFF" height="335.4141" style="stroke:#181818;stroke-width:1.0;" width="10" x="492" y="178.8594"/><rect fill="#FFFFFF" height="277.1484" style="stroke:#181818;stroke-width:1.0;" width="10" x="893" y="207.9922"/><rect fill="#FFFFFF" height="29.1328" style="stroke:#181818;stroke-width:1.0;" width="10" x="1241" y="294.7188"/><rect fill="#FFFFFF" height="29.1328" style="stroke:#181818;stroke-width:1.0;" width="10" x="1494" y="426.875"/><line style="stroke:#181818;stroke-width:0.5;stroke-dasharray:5.0,5.0;" x1="56" x2="56" y1="118.5938" y2="561.4063"/><line style="stroke:#181818;stroke-width:0.5;stroke-dasharray:5.0,5.0;" x1="260" x2="260" y1="118.5938" y2="561.4063"/><line style="stroke:#181818;stroke-width:0.5;stroke-dasharray:5.0,5.0;" x1="496.5" x2="496.5" y1="118.5938" y2="561.4063"/><line style="stroke:#181818;stroke-width:0.5;stroke-dasharray:5.0,5.0;" x1="898" x2="898" y1="118.5938" y2="561.4063"/><line style="stroke:#181818;stroke-width:0.5;stroke-dasharray:5.0,5.0;" x1="1111" x2="1111" y1="254.7891" y2="561.4063"/><line style="stroke:#181818;stroke-width:0.5;stroke-dasharray:5.0,5.0;" x1="1246" x2="1246" y1="118.5938" y2="561.4063"/><line style="stroke:#181818;stroke-width:0.5;stroke-dasharray:5.0,5.0;" x1="1391" x2="1391" y1="378.7969" y2="561.4063"/><line style="stroke:#181818;stroke-width:0.5;stroke-dasharray:5.0,5.0;" x1="1499" x2="1499" y1="118.5938" y2="561.4063"/><text fill="#000000" font-family="sans-serif" font-size="14" lengthAdjust="spacing" textLength="96" x="5" y="115.292">:Administrator</text><ellipse cx="56" cy="50.7969" fill="#FFFFFF" rx="8" ry="8" style="stroke:#181818;stroke-width:0.5;"/><path d="M56,58.7969 L56,85.7969 M43,66.7969 L69,66.7969 M56,85.7969 L43,100.7969 M56,85.7969 L69,100.7969 " fill="none" style="stroke:#181818;stroke-width:0.5;"/><text fill="#000000" font-family="sans-serif" font-size="14" lengthAdjust="spacing" textLength="96" x="5" y="573.4014">:Administrator</text><ellipse cx="56" cy="585.2031" fill="#FFFFFF" rx="8" ry="8" style="stroke:#181818;stroke-width:0.5;"/><path d="M56,593.2031 L56,620.2031 M43,601.2031 L69,601.2031 M56,620.2031 L43,635.2031 M56,620.2031 L69,635.2031 " fill="none" style="stroke:#181818;stroke-width:0.5;"/><rect fill="#FFFFFF" height="30.2969" rx="2.5" ry="2.5" style="stroke:#181818;stroke-width:0.5;" width="154" x="183" y="87.2969"/><text fill="#000000" font-family="sans-serif" font-size="14" lengthAdjust="spacing" textLength="140" x="190" y="107.292">:InactivateAccountUI</text><rect fill="#FFFFFF" height="30.2969" rx="2.5" ry="2.5" style="stroke:#181818;stroke-width:0.5;" width="154" x="183" y="560.4063"/><text fill="#000000" font-family="sans-serif" font-size="14" lengthAdjust="spacing" textLength="140" x="190" y="580.4014">:InactivateAccountUI</text><rect fill="#FFFFFF" height="46.5938" rx="2.5" ry="2.5" style="stroke:#181818;stroke-width:0.5;" width="141" x="426.5" y="71"/><text fill="#000000" font-family="sans-serif" font-size="14" lengthAdjust="spacing" textLength="127" x="433.5" y="90.9951">:InactivateAccount</text><text fill="#000000" font-family="sans-serif" font-size="14" lengthAdjust="spacing" textLength="67" x="463.5" y="107.292">Controller</text><rect fill="#FFFFFF" height="46.5938" rx="2.5" ry="2.5" style="stroke:#181818;stroke-width:0.5;" width="141" x="426.5" y="560.4063"/><text fill="#000000" font-family="sans-serif" font-size="14" lengthAdjust="spacing" textLength="127" x="433.5" y="580.4014">:InactivateAccount</text><text fill="#000000" font-family="sans-serif" font-size="14" lengthAdjust="spacing" textLength="67" x="463.5" y="596.6982">Controller</text><rect fill="#FFFFFF" height="46.5938" rx="2.5" ry="2.5" style="stroke:#181818;stroke-width:0.5;" width="126" x="835" y="71"/><text fill="#000000" font-family="sans-serif" font-size="14" lengthAdjust="spacing" textLength="106" x="845" y="90.9951">accountService</text><text fill="#000000" font-family="sans-serif" font-size="14" lengthAdjust="spacing" textLength="112" x="842" y="107.292">:AccountService</text><rect fill="#FFFFFF" height="46.5938" rx="2.5" ry="2.5" style="stroke:#181818;stroke-width:0.5;" width="126" x="835" y="560.4063"/><text fill="#000000" font-family="sans-serif" font-size="14" lengthAdjust="spacing" textLength="106" x="845" y="580.4014">accountService</text><text fill="#000000" font-family="sans-serif" font-size="14" lengthAdjust="spacing" textLength="112" x="842" y="596.6982">:AccountService</text><rect fill="#FFFFFF" height="46.5938" rx="2.5" ry="2.5" style="stroke:#181818;stroke-width:0.5;" width="99" x="1062" y="560.4063"/><text fill="#000000" font-family="sans-serif" font-size="14" lengthAdjust="spacing" textLength="85" x="1069" y="580.4014">&#171;DomainID&#187;</text><text fill="#000000" font-family="sans-serif" font-size="14" lengthAdjust="spacing" textLength="85" x="1069" y="596.6982">email : Email</text><rect fill="#FFFFFF" height="46.5938" rx="2.5" ry="2.5" style="stroke:#181818;stroke-width:0.5;" width="150" x="1171" y="71"/><text fill="#000000" font-family="sans-serif" font-size="14" lengthAdjust="spacing" textLength="92" x="1200" y="90.9951">&#171;Repository&#187;</text><text fill="#000000" font-family="sans-serif" font-size="14" lengthAdjust="spacing" textLength="136" x="1178" y="107.292">:AccountRepository</text><rect fill="#FFFFFF" height="46.5938" rx="2.5" ry="2.5" style="stroke:#181818;stroke-width:0.5;" width="150" x="1171" y="560.4063"/><text fill="#000000" font-family="sans-serif" font-size="14" lengthAdjust="spacing" textLength="92" x="1200" y="580.4014">&#171;Repository&#187;</text><text fill="#000000" font-family="sans-serif" font-size="14" lengthAdjust="spacing" textLength="136" x="1178" y="596.6982">:AccountRepository</text><rect fill="#FFFFFF" height="62.8906" rx="2.5" ry="2.5" style="stroke:#181818;stroke-width:0.5;" width="120" x="1331" y="560.4063"/><text fill="#000000" font-family="sans-serif" font-size="14" lengthAdjust="spacing" textLength="101" x="1340.5" y="580.4014">&#171;ValueObject&#187;</text><text fill="#000000" font-family="sans-serif" font-size="14" lengthAdjust="spacing" textLength="100" x="1341" y="596.6982">accountStatus</text><text fill="#000000" font-family="sans-serif" font-size="14" lengthAdjust="spacing" textLength="106" x="1338" y="612.9951">:AccountStatus</text><rect fill="#FFFFFF" height="46.5938" rx="2.5" ry="2.5" style="stroke:#181818;stroke-width:0.5;" width="76" x="1461" y="71"/><text fill="#000000" font-family="sans-serif" font-size="14" lengthAdjust="spacing" textLength="56" x="1471" y="90.9951">account</text><text fill="#000000" font-family="sans-serif" font-size="14" lengthAdjust="spacing" textLength="62" x="1468" y="107.292">:Account</text><rect fill="#FFFFFF" height="46.5938" rx="2.5" ry="2.5" style="stroke:#181818;stroke-width:0.5;" width="76" x="1461" y="560.4063"/><text fill="#000000" font-family="sans-serif" font-size="14" lengthAdjust="spacing" textLength="56" x="1471" y="580.4014">account</text><text fill="#000000" font-family="sans-serif" font-size="14" lengthAdjust="spacing" textLength="62" x="1468" y="596.6982">:Account</text><rect fill="#FFFFFF" height="393.6797" style="stroke:#181818;stroke-width:1.0;" width="10" x="255" y="149.7266"/><rect fill="#FFFFFF" height="335.4141" style="stroke:#181818;stroke-width:1.0;" width="10" x="492" y="178.8594"/><rect fill="#FFFFFF" height="277.1484" style="stroke:#181818;stroke-width:1.0;" width="10" x="893" y="207.9922"/><rect fill="#FFFFFF" height="29.1328" style="stroke:#181818;stroke-width:1.0;" width="10" x="1241" y="294.7188"/><rect fill="#FFFFFF" height="29.1328" style="stroke:#181818;stroke-width:1.0;" width="10" x="1494" y="426.875"/><polygon fill="#181818" points="243,145.7266,253,149.7266,243,153.7266,247,149.7266" style="stroke:#181818;stroke-width:1.0;"/><line style="stroke:#181818;stroke-width:1.0;" x1="56" x2="249" y1="149.7266" y2="149.7266"/><text fill="#000000" font-family="sans-serif" font-size="13" font-weight="bold" lengthAdjust="spacing" textLength="9" x="65.5" y="144.6606">1</text><text fill="#000000" font-family="sans-serif" font-size="13" lengthAdjust="spacing" textLength="167" x="78.5" y="144.6606">asks to inactivate account</text><polygon fill="#181818" points="480,174.8594,490,178.8594,480,182.8594,484,178.8594" style="stroke:#181818;stroke-width:1.0;"/><line style="stroke:#181818;stroke-width:1.0;" x1="265" x2="486" y1="178.8594" y2="178.8594"/><text fill="#000000" font-family="sans-serif" font-size="13" font-weight="bold" lengthAdjust="spacing" textLength="9" x="274.5" y="173.7935">2</text><text fill="#000000" font-family="sans-serif" font-size="13" lengthAdjust="spacing" textLength="195" x="287.5" y="173.7935">inactivateAccount(emailValue)</text><polygon fill="#181818" points="881,203.9922,891,207.9922,881,211.9922,885,207.9922" style="stroke:#181818;stroke-width:1.0;"/><line style="stroke:#181818;stroke-width:1.0;" x1="502" x2="887" y1="207.9922" y2="207.9922"/><text fill="#000000" font-family="sans-serif" font-size="13" font-weight="bold" lengthAdjust="spacing" textLength="9" x="511.5" y="202.9263">3</text><text fill="#000000" font-family="sans-serif" font-size="13" lengthAdjust="spacing" textLength="359" x="524.5" y="202.9263">changeAccountStatus(emailValue, accountStatusValue)</text><polygon fill="#181818" points="1050,233.125,1060,237.125,1050,241.125,1054,237.125" style="stroke:#181818;stroke-width:1.0;"/><line style="stroke:#181818;stroke-width:1.0;" x1="903" x2="1056" y1="237.125" y2="237.125"/><text fill="#000000" font-family="sans-serif" font-size="13" font-weight="bold" lengthAdjust="spacing" textLength="9" x="915" y="232.0591">4</text><text fill="#000000" font-family="sans-serif" font-size="13" lengthAdjust="spacing" textLength="122" x="928" y="232.0591">create(emailValue)</text><rect fill="#FFFFFF" height="46.5938" rx="2.5" ry="2.5" style="stroke:#181818;stroke-width:0.5;" width="99" x="1062" y="215.9922"/><text fill="#000000" font-family="sans-serif" font-size="14" lengthAdjust="spacing" textLength="85" x="1069" y="235.9873">&#171;DomainID&#187;</text><text fill="#000000" font-family="sans-serif" font-size="14" lengthAdjust="spacing" textLength="85" x="1069" y="252.2842">email : Email</text><polygon fill="#181818" points="1229,290.7188,1239,294.7188,1229,298.7188,1233,294.7188" style="stroke:#181818;stroke-width:1.0;"/><line style="stroke:#181818;stroke-width:1.0;" x1="903" x2="1235" y1="294.7188" y2="294.7188"/><text fill="#000000" font-family="sans-serif" font-size="13" font-weight="bold" lengthAdjust="spacing" textLength="9" x="1017" y="289.6528">5</text><text fill="#000000" font-family="sans-serif" font-size="13" lengthAdjust="spacing" textLength="97" x="1030" y="289.6528">findByID(email)</text><polygon fill="#181818" points="914,319.8516,904,323.8516,914,327.8516,910,323.8516" style="stroke:#181818;stroke-width:1.0;"/><line style="stroke:#181818;stroke-width:1.0;stroke-dasharray:2.0,2.0;" x1="908" x2="1245" y1="323.8516" y2="323.8516"/><text fill="#000000" font-family="sans-serif" font-size="13" font-weight="bold" lengthAdjust="spacing" textLength="9" x="1016" y="318.7856">6</text><text fill="#000000" font-family="sans-serif" font-size="13" lengthAdjust="spacing" textLength="104" x="1029" y="318.7856">accountOptional</text><polygon fill="#181818" points="1319,348.9844,1329,352.9844,1319,356.9844,1323,352.9844" style="stroke:#181818;stroke-width:1.0;"/><line style="stroke:#181818;stroke-width:1.0;" x1="903" x2="1325" y1="352.9844" y2="352.9844"/><text fill="#000000" font-family="sans-serif" font-size="13" font-weight="bold" lengthAdjust="spacing" textLength="9" x="1020.5" y="347.9185">7</text><text fill="#000000" font-family="sans-serif" font-size="13" lengthAdjust="spacing" textLength="180" x="1033.5" y="347.9185">create(accountStatusValue)</text><rect fill="#FFFFFF" height="62.8906" rx="2.5" ry="2.5" style="stroke:#181818;stroke-width:0.5;" width="120" x="1331" y="331.8516"/><text fill="#000000" font-family="sans-serif" font-size="14" lengthAdjust="spacing" textLength="101" x="1340.5" y="351.8467">&#171;ValueObject&#187;</text><text fill="#000000" font-family="sans-serif" font-size="14" lengthAdjust="spacing" textLength="100" x="1341" y="368.1436">accountStatus</text><text fill="#000000" font-family="sans-serif" font-size="14" lengthAdjust="spacing" textLength="106" x="1338" y="384.4404">:AccountStatus</text><polygon fill="#181818" points="1482,422.875,1492,426.875,1482,430.875,1486,426.875" style="stroke:#181818;stroke-width:1.0;"/><line style="stroke:#181818;stroke-width:1.0;" x1="903" x2="1488" y1="426.875" y2="426.875"/><text fill="#000000" font-family="sans-serif" font-size="13" font-weight="bold" lengthAdjust="spacing" textLength="9" x="1083.5" y="421.8091">8</text><text fill="#000000" font-family="sans-serif" font-size="13" lengthAdjust="spacing" textLength="217" x="1096.5" y="421.8091">setAccountStatus(accountStatus)</text><polygon fill="#181818" points="914,452.0078,904,456.0078,914,460.0078,910,456.0078" style="stroke:#181818;stroke-width:1.0;"/><line style="stroke:#181818;stroke-width:1.0;stroke-dasharray:2.0,2.0;" x1="908" x2="1498" y1="456.0078" y2="456.0078"/><text fill="#000000" font-family="sans-serif" font-size="13" font-weight="bold" lengthAdjust="spacing" textLength="9" x="1164.5" y="450.9419">9</text><text fill="#000000" font-family="sans-serif" font-size="13" lengthAdjust="spacing" textLength="60" x="1177.5" y="450.9419">true/false</text><polygon fill="#181818" points="513,481.1406,503,485.1406,513,489.1406,509,485.1406" style="stroke:#181818;stroke-width:1.0;"/><line style="stroke:#181818;stroke-width:1.0;stroke-dasharray:2.0,2.0;" x1="507" x2="897" y1="485.1406" y2="485.1406"/><text fill="#000000" font-family="sans-serif" font-size="13" font-weight="bold" lengthAdjust="spacing" textLength="18" x="659" y="480.0747">10</text><text fill="#000000" font-family="sans-serif" font-size="13" lengthAdjust="spacing" textLength="60" x="681" y="480.0747">true/false</text><polygon fill="#181818" points="276,510.2734,266,514.2734,276,518.2734,272,514.2734" style="stroke:#181818;stroke-width:1.0;"/><line style="stroke:#181818;stroke-width:1.0;stroke-dasharray:2.0,2.0;" x1="270" x2="496" y1="514.2734" y2="514.2734"/><text fill="#000000" font-family="sans-serif" font-size="13" font-weight="bold" lengthAdjust="spacing" textLength="18" x="340" y="509.2075">11</text><text fill="#000000" font-family="sans-serif" font-size="13" lengthAdjust="spacing" textLength="60" x="362" y="509.2075">true/false</text><polygon fill="#181818" points="67,539.4063,57,543.4063,67,547.4063,63,543.4063" style="stroke:#181818;stroke-width:1.0;"/><line style="stroke:#181818;stroke-width:1.0;stroke-dasharray:2.0,2.0;" x1="61" x2="259" y1="543.4063" y2="543.4063"/><text fill="#000000" font-family="sans-serif" font-size="13" font-weight="bold" lengthAdjust="spacing" textLength="18" x="71" y="538.3403">12</text><text fill="#000000" font-family="sans-serif" font-size="13" lengthAdjust="spacing" textLength="152" x="93" y="538.3403">successful/unsuccessful</text><!--SRC=[bLHDJnin4BtlhnZHIoD0SEabGf4MWjezL4YWz9IBSIR1ZMDlxJ68Vrz_BRlUB9Jwa8n7xxsPDsEjtGlLCiCEOF6FGyNn9rhBTbXBiLF0KH6QohwX62TjhXdVxunsQdEZfJRmyYG81o3_IuABbYdw5xIhUezRD27uRy8FP1iqdwLzzvXs6bmnHrgvmwCtJ88amkhXyl8Rd4DjeTuSX1AM3FF-pw215syEI8DGVYJYcH420sVH-15nBqrUBymAJkO5zmJOI0s-fFg3gNbIywPR9xrL4wchvfFujRhHYeoM4bFH_ZgfaDj-GFCiEAxLl2uIKIB79V7gQgaFJAXckLYi5VfGmXnkmtyanMXCkSTMM-7TlmPILwlFfZ6DisELNqmwl7lyZPo2J6U163axS13loK0C9utt-8ZCsMvKLLNkx7pXDt5wElVGlHs_W-u1W3z-NnxRppvmn7XNN-FKefjPP7Ldi3ElaiSV9FWJKpii30v4pg0OHHOkbCFX1aE_QK7mpib5G_tRlDl4AvgkFg0ThJ4Os0grkNvjbabbTiGtICwepiTTIq8h9gl9DhEFl5nu_moQIk3UpEJ0FdAL2S6BHIetKOZDfZhAziWulDWoQSCBgqO5Zp7JsPonZdF_xTuwUU5KVwd-0W00]--></g></svg>