<?xml version="1.0" encoding="us-ascii" standalone="no"?><svg xmlns="http://www.w3.org/2000/svg" xmlns:xlink="http://www.w3.org/1999/xlink" contentStyleType="text/css" height="557px" preserveAspectRatio="none" style="width:592px;height:557px;background:#FFFFFF;" version="1.1" viewBox="0 0 592 557" width="592px" zoomAndPan="magnify"><defs/><g><text fill="#000000" font-family="sans-serif" font-size="14" font-weight="bold" lengthAdjust="spacing" textLength="549" x="20" y="32.9951">US027 - As a Project Manager, I want to create a sprint in the web UI.</text><rect fill="#F1F1F1" height="36.2969" rx="12.5" ry="12.5" style="stroke:#181818;stroke-width:1.5;" width="106.3333" x="241.8333" y="47.2969"/><path d="M257.5,60.7604 C254.9217,60.7604 252.8333,62.8487 252.8333,65.4271 C252.8333,68.0054 254.9217,70.0938 257.5,70.0938 C260.0783,70.0938 262.1667,68.0054 262.1667,65.4271 C262.1667,62.8487 260.0783,60.7604 257.5,60.7604 M257.5,61.9271 C257.885,61.9271 258.2467,62.0321 258.5967,62.1488 C258.3517,62.3821 258.0717,62.5921 258.1183,62.8021 C258.165,63.0121 258.9233,62.9538 258.9233,63.3854 C258.9233,63.7004 258.4333,63.7937 258.7717,64.1554 C259.18,64.5638 258.025,65.2988 258.0017,65.8354 C257.9667,66.8038 258.9817,66.9671 259.7867,66.9671 C260.2767,66.9671 260.405,67.2004 260.37,67.4804 C259.74,68.3788 258.6667,68.9388 257.4883,68.9388 C257.045,68.9388 256.6367,68.8338 256.2517,68.6821 C256.5083,68.1688 255.925,67.1538 255.3767,66.8271 C255.1083,66.5588 254.5367,66.6638 254.21,66.5354 C254.105,66.2204 254,65.9054 253.9883,65.5554 C254.0233,65.4971 254.0817,65.4504 254.175,65.4504 C254.3967,65.4504 254.7,65.8938 254.8633,65.8471 C255.0733,65.8004 254,64.3188 254.5017,64.0271 C254.735,63.8871 255.2017,64.4821 255.05,63.8404 C254.91,63.2454 255.47,63.5137 255.82,63.3621 C256.1233,63.2338 256.345,62.8838 255.9717,62.6738 C255.9017,62.6387 255.82,62.5571 255.715,62.4521 C256.24,62.1371 256.8467,61.9388 257.5,61.9388 M260.195,63.1988 C260.405,63.4554 260.5683,63.7354 260.7083,64.0388 C260.7083,64.0504 260.7083,64.0621 260.7083,64.0738 C260.6617,64.1554 260.58,64.2021 260.4517,64.3304 C260.125,64.6571 260.0783,64.0854 259.9383,63.9688 C259.7867,63.8288 259.2383,63.9921 259.1683,63.8171 C259.0867,63.6071 259.7517,63.3271 260.195,63.1988 " fill="#000000" style="stroke:;stroke-width:0.0;stroke-dasharray:;"/><text fill="#000000" font-family="sans-serif" font-size="14" lengthAdjust="spacing" textLength="75" x="263.1667" y="70.292">Application</text><rect fill="#F1F1F1" height="36.2969" rx="12.5" ry="12.5" style="stroke:#181818;stroke-width:1.5;" width="67" x="112" y="108.5938"/><text fill="#000000" font-family="sans-serif" font-size="14" lengthAdjust="spacing" textLength="47" x="122" y="131.5889">Navbar</text><rect fill="#F1F1F1" height="36.2969" rx="12.5" ry="12.5" style="stroke:#181818;stroke-width:1.5;" width="75" x="108" y="169.8906"/><text fill="#000000" font-family="sans-serif" font-size="14" lengthAdjust="spacing" textLength="55" x="118" y="192.8857">NavItem</text><path d="M145.5,144.8906 L145.5,147.8906 C145.5,154.8906 145.5,159.8906 145.5,166.8906 L145.5,169.8906 " fill="none" style="stroke:#181818;stroke-width:1.0;"/><path d="M295,83.5938 L295,86.5938 C295,93.5938 145.5,98.5938 145.5,105.5938 L145.5,108.5938 " fill="none" style="stroke:#181818;stroke-width:1.0;"/><rect fill="#F1F1F1" height="36.2969" rx="12.5" ry="12.5" style="stroke:#181818;stroke-width:1.5;" width="94" x="295.5" y="108.5938"/><text fill="#000000" font-family="sans-serif" font-size="14" lengthAdjust="spacing" textLength="74" x="305.5" y="131.5889">MainRoute</text><rect fill="#F1F1F1" height="36.2969" rx="12.5" ry="12.5" style="stroke:#181818;stroke-width:1.5;" width="76" x="304.5" y="169.8906"/><text fill="#000000" font-family="sans-serif" font-size="14" lengthAdjust="spacing" textLength="56" x="314.5" y="192.8857">Projects</text><rect fill="#F1F1F1" height="36.2969" rx="12.5" ry="12.5" style="stroke:#181818;stroke-width:1.5;" width="103" x="291" y="231.1875"/><text fill="#000000" font-family="sans-serif" font-size="14" lengthAdjust="spacing" textLength="83" x="301" y="254.1826">ProjectPage</text><rect fill="#F1F1F1" height="36.2969" rx="12.5" ry="12.5" style="stroke:#181818;stroke-width:1.5;" width="95" x="295" y="292.4844"/><text fill="#000000" font-family="sans-serif" font-size="14" lengthAdjust="spacing" textLength="75" x="305" y="315.4795">SprintForm</text><rect fill="#F1F1F1" height="52.5938" rx="12.5" ry="12.5" style="stroke:#181818;stroke-width:1.5;" width="67" x="203" y="353.7813"/><text fill="#000000" font-family="sans-serif" font-size="14" lengthAdjust="spacing" textLength="47" x="213" y="376.7764">Button</text><text fill="#000000" font-family="sans-serif" font-size="14" lengthAdjust="spacing" textLength="44" x="213" y="393.0732">(Back)</text><path d="M342.5,328.7813 L342.5,331.7813 C342.5,338.7813 236.5,343.7813 236.5,350.7813 L236.5,353.7813 " fill="none" style="stroke:#181818;stroke-width:1.0;"/><rect fill="#F1F1F1" height="52.5938" rx="12.5" ry="12.5" style="stroke:#181818;stroke-width:1.5;" width="101" x="290" y="353.7813"/><text fill="#000000" font-family="sans-serif" font-size="14" lengthAdjust="spacing" textLength="47" x="300" y="376.7764">Button</text><text fill="#000000" font-family="sans-serif" font-size="14" lengthAdjust="spacing" textLength="81" x="300" y="393.0732">(Add Sprint)</text><rect fill="#F1F1F1" height="36.2969" rx="12.5" ry="12.5" style="stroke:#181818;stroke-width:1.5;" width="142" x="269.5" y="431.375"/><text fill="#000000" font-family="sans-serif" font-size="14" lengthAdjust="spacing" textLength="122" x="279.5" y="454.3701">SuccessMessage</text><rect fill="#F1F1F1" height="52.5938" rx="12.5" ry="12.5" style="stroke:#181818;stroke-width:1.5;" width="67" x="307" y="492.6719"/><text fill="#000000" font-family="sans-serif" font-size="14" lengthAdjust="spacing" textLength="47" x="317" y="515.667">Button</text><text fill="#000000" font-family="sans-serif" font-size="14" lengthAdjust="spacing" textLength="29" x="317" y="531.9639">(Ok)</text><path d="M340.5,467.6719 L340.5,470.6719 C340.5,477.6719 340.5,482.6719 340.5,489.6719 L340.5,492.6719 " fill="none" style="stroke:#181818;stroke-width:1.0;"/><path d="M340.5,406.375 L340.5,409.375 C340.5,416.375 340.5,421.375 340.5,428.375 L340.5,431.375 " fill="none" style="stroke:#181818;stroke-width:1.0;"/><path d="M342.5,328.7813 L342.5,331.7813 C342.5,338.7813 340.5,343.7813 340.5,350.7813 L340.5,353.7813 " fill="none" style="stroke:#181818;stroke-width:1.0;"/><rect fill="#F1F1F1" height="52.5938" rx="12.5" ry="12.5" style="stroke:#181818;stroke-width:1.5;" width="71" x="411" y="353.7813"/><text fill="#000000" font-family="sans-serif" font-size="14" lengthAdjust="spacing" textLength="47" x="421" y="376.7764">Button</text><text fill="#000000" font-family="sans-serif" font-size="14" lengthAdjust="spacing" textLength="51" x="421" y="393.0732">(Reset)</text><path d="M342.5,328.7813 L342.5,331.7813 C342.5,338.7813 446.5,343.7813 446.5,350.7813 L446.5,353.7813 " fill="none" style="stroke:#181818;stroke-width:1.0;"/><path d="M342.5,267.4844 L342.5,270.4844 C342.5,277.4844 342.5,282.4844 342.5,289.4844 L342.5,292.4844 " fill="none" style="stroke:#181818;stroke-width:1.0;"/><path d="M342.5,206.1875 L342.5,209.1875 C342.5,216.1875 342.5,221.1875 342.5,228.1875 L342.5,231.1875 " fill="none" style="stroke:#181818;stroke-width:1.0;"/><path d="M342.5,144.8906 L342.5,147.8906 C342.5,154.8906 342.5,159.8906 342.5,166.8906 L342.5,169.8906 " fill="none" style="stroke:#181818;stroke-width:1.0;"/><path d="M295,83.5938 L295,86.5938 C295,93.5938 342.5,98.5938 342.5,105.5938 L342.5,108.5938 " fill="none" style="stroke:#181818;stroke-width:1.0;"/><!--SRC=[RL1DJy904BtlhvYJWKO87qQmCKOGD21LmfSNBzjsnDLsjzcTXVZldLRG63rCClFUpCkRT-r8MigLJdDP246ACeJrijNfGGC63YJChNd3X22IMcxHdi84zb8Ja874eYJa7LTOnP3IGAy8UunXFMcocYdAjTWGcHnIPLb76Ir409Sdsyp4U3KeYambieA301xaBfQMkwgT4EOb6acb5yOJLiJ1a2k7xsdEtYeWW6LbvjRO_0i8OEZPW7xMjQ5Ctkj_q46Q7ewE78lu947d8gvlvLz7Z_y8BT0XQuXhv3YFaSupJciTpM27rl6Rq6vsMfrkirjRlNf-pKBh0jgziDiAstru6g-WfEkYTZUVWJFU9iZHER8gzcLCTJ6LEmaBhqdb6C9ZWNewkZy2CDOxPOtEKPEORgAVXVEpnb0HBD6o4zX4OeGlqcV45ub9bTw6i5xTDlfY9lNMyzSXe1OtXdNj1tFBJm00]--></g></svg>