<?xml version="1.0" encoding="us-ascii" standalone="no"?><svg xmlns="http://www.w3.org/2000/svg" xmlns:xlink="http://www.w3.org/1999/xlink" contentStyleType="text/css" height="787px" preserveAspectRatio="none" style="width:855px;height:787px;background:#FFFFFF;" version="1.1" viewBox="0 0 855 787" width="855px" zoomAndPan="magnify"><defs/><g><text fill="#000000" font-family="sans-serif" font-size="14" font-weight="bold" lengthAdjust="spacing" textLength="827" x="10" y="22.9951">US036 - As a PO/SM/Team Member, I want to consult the Sprint Backlog of a chosen sprint in the web UI.</text><!--cluster src--><g id="cluster_src"><path d="M306.64,43.2969 L332.64,43.2969 A3.75,3.75 0 0 1 335.14,45.7969 L342.14,65.5938 L561.64,65.5938 A2.5,2.5 0 0 1 564.14,68.0938 L564.14,777.5169 A2.5,2.5 0 0 1 561.64,780.0169 L306.64,780.0169 A2.5,2.5 0 0 1 304.14,777.5169 L304.14,45.7969 A2.5,2.5 0 0 1 306.64,43.2969 " fill="none" style="stroke:#000000;stroke-width:1.5;"/><line style="stroke:#000000;stroke-width:1.5;" x1="304.14" x2="342.14" y1="65.5938" y2="65.5938"/><text fill="#000000" font-family="sans-serif" font-size="14" font-weight="bold" lengthAdjust="spacing" textLength="25" x="308.14" y="58.292">src</text></g><!--cluster components--><g id="cluster_components"><path d="M356.64,321.0169 L455.64,321.0169 A3.75,3.75 0 0 1 458.14,323.5169 L465.14,343.3138 L521.64,343.3138 A2.5,2.5 0 0 1 524.14,345.8138 L524.14,551.5169 A2.5,2.5 0 0 1 521.64,554.0169 L356.64,554.0169 A2.5,2.5 0 0 1 354.14,551.5169 L354.14,323.5169 A2.5,2.5 0 0 1 356.64,321.0169 " fill="none" style="stroke:#000000;stroke-width:1.5;"/><line style="stroke:#000000;stroke-width:1.5;" x1="354.14" x2="465.14" y1="343.3138" y2="343.3138"/><text fill="#000000" font-family="sans-serif" font-size="14" font-weight="bold" lengthAdjust="spacing" textLength="98" x="358.14" y="336.012">components</text></g><path d="M417.14,131.0169 L463.14,131.0169 A3.75,3.75 0 0 1 465.64,133.5169 L472.64,153.3138 L477.14,153.3138 A2.5,2.5 0 0 1 479.64,155.8138 L479.64,181.1106 A2.5,2.5 0 0 1 477.14,183.6106 L417.14,183.6106 A2.5,2.5 0 0 1 414.64,181.1106 L414.64,133.5169 A2.5,2.5 0 0 1 417.14,131.0169 " fill="#F1F1F1" style="stroke:#181818;stroke-width:0.5;"/><line style="stroke:#181818;stroke-width:0.5;" x1="414.64" x2="472.64" y1="153.3138" y2="153.3138"/><text fill="#000000" font-family="sans-serif" font-size="14" lengthAdjust="spacing" textLength="45" x="418.64" y="146.012">routes</text><path d="M418.14,244.0169 L462.14,244.0169 A3.75,3.75 0 0 1 464.64,246.5169 L471.64,266.3138 L476.14,266.3138 A2.5,2.5 0 0 1 478.64,268.8138 L478.64,294.1106 A2.5,2.5 0 0 1 476.14,296.6106 L418.14,296.6106 A2.5,2.5 0 0 1 415.64,294.1106 L415.64,246.5169 A2.5,2.5 0 0 1 418.14,244.0169 " fill="#F1F1F1" style="stroke:#181818;stroke-width:0.5;"/><line style="stroke:#181818;stroke-width:0.5;" x1="415.64" x2="471.64" y1="266.3138" y2="266.3138"/><text fill="#000000" font-family="sans-serif" font-size="14" lengthAdjust="spacing" textLength="43" x="419.64" y="259.012">pages</text><path d="M380.64,477.0169 L475.64,477.0169 A3.75,3.75 0 0 1 478.14,479.5169 L485.14,499.3138 L489.64,499.3138 A2.5,2.5 0 0 1 492.14,501.8138 L492.14,527.1106 A2.5,2.5 0 0 1 489.64,529.6106 L380.64,529.6106 A2.5,2.5 0 0 1 378.14,527.1106 L378.14,479.5169 A2.5,2.5 0 0 1 380.64,477.0169 " fill="#F1F1F1" style="stroke:#181818;stroke-width:0.5;"/><line style="stroke:#181818;stroke-width:0.5;" x1="378.14" x2="485.14" y1="499.3138" y2="499.3138"/><text fill="#000000" font-family="sans-serif" font-size="14" lengthAdjust="spacing" textLength="94" x="382.14" y="492.012">sprintBacklog</text><path d="M424.14,364.0169 L464.14,364.0169 A3.75,3.75 0 0 1 466.64,366.5169 L473.64,386.3138 L478.14,386.3138 A2.5,2.5 0 0 1 480.64,388.8138 L480.64,414.1106 A2.5,2.5 0 0 1 478.14,416.6106 L424.14,416.6106 A2.5,2.5 0 0 1 421.64,414.1106 L421.64,366.5169 A2.5,2.5 0 0 1 424.14,364.0169 " fill="#F1F1F1" style="stroke:#181818;stroke-width:0.5;"/><line style="stroke:#181818;stroke-width:0.5;" x1="421.64" x2="473.64" y1="386.3138" y2="386.3138"/><text fill="#000000" font-family="sans-serif" font-size="14" lengthAdjust="spacing" textLength="39" x="425.64" y="379.012">sprint</text><path d="M401.64,590.0169 L454.64,590.0169 A3.75,3.75 0 0 1 457.14,592.5169 L464.14,612.3138 L468.64,612.3138 A2.5,2.5 0 0 1 471.14,614.8138 L471.14,640.1106 A2.5,2.5 0 0 1 468.64,642.6106 L401.64,642.6106 A2.5,2.5 0 0 1 399.14,640.1106 L399.14,592.5169 A2.5,2.5 0 0 1 401.64,590.0169 " fill="#F1F1F1" style="stroke:#181818;stroke-width:0.5;"/><line style="stroke:#181818;stroke-width:0.5;" x1="399.14" x2="464.14" y1="612.3138" y2="612.3138"/><text fill="#000000" font-family="sans-serif" font-size="14" lengthAdjust="spacing" textLength="52" x="403.14" y="605.012">context</text><path d="M399.14,703.0169 L457.14,703.0169 A3.75,3.75 0 0 1 459.64,705.5169 L466.64,725.3138 L471.14,725.3138 A2.5,2.5 0 0 1 473.64,727.8138 L473.64,753.1106 A2.5,2.5 0 0 1 471.14,755.6106 L399.14,755.6106 A2.5,2.5 0 0 1 396.64,753.1106 L396.64,705.5169 A2.5,2.5 0 0 1 399.14,703.0169 " fill="#F1F1F1" style="stroke:#181818;stroke-width:0.5;"/><line style="stroke:#181818;stroke-width:0.5;" x1="396.64" x2="466.64" y1="725.3138" y2="725.3138"/><text fill="#000000" font-family="sans-serif" font-size="14" lengthAdjust="spacing" textLength="57" x="400.64" y="718.012">services</text><!--link src to components--><g id="link_src_components"><path codeLine="27" d="M481.21,71.0769 C482.55,72.3569 504.18,93.1669 511.14,115.0169 C529.365,172.2419 530.86,239.6344 527.6788,293.3219 C526.8834,306.7438 525.7959,319.3091 524.6044,330.6448 C524.4554,332.0618 524.3049,333.4595 524.153,334.8373 " fill="none" id="src-to-components" style="stroke:#181818;stroke-width:1.0;stroke-dasharray:7.0,7.0;"/><polygon fill="#181818" points="524.153,334.8373,529.1147,326.3296,524.7007,329.8674,521.1628,325.4534,524.153,334.8373" style="stroke:#181818;stroke-width:1.0;"/></g><!--link src to routes--><g id="link_src_routes"><path codeLine="28" d="M481.12,71.0769 C480.51,72.6069 468.81,102.0369 459.3,125.9269 " fill="none" id="src-to-routes" style="stroke:#181818;stroke-width:1.0;stroke-dasharray:7.0,7.0;"/><polygon fill="#181818" points="457.44,130.6269,464.4782,123.7374,459.2846,125.9796,457.0425,120.786,457.44,130.6269" style="stroke:#181818;stroke-width:1.0;"/></g><!--link routes to pages--><g id="link_routes_pages"><path codeLine="29" d="M447.14,184.2569 C447.14,200.5169 447.14,221.5969 447.14,238.7269 " fill="none" id="routes-to-pages" style="stroke:#181818;stroke-width:1.0;stroke-dasharray:7.0,7.0;"/><polygon fill="#181818" points="447.14,243.9069,451.1657,234.9183,447.1543,238.9069,443.1657,234.8955,447.14,243.9069" style="stroke:#181818;stroke-width:1.0;"/></g><!--link pages to components--><g id="link_pages_components"><path codeLine="30" d="M479.02,294.8269 C480.39,295.5969 481.77,296.3369 483.14,297.0169 C493.58,302.2269 500.82,295.9269 508.14,305.0169 C511.0037,308.5756 513.2913,312.5116 515.1001,316.6812 C515.5523,317.7235 515.9745,318.7806 516.3684,319.8499 C516.4669,320.1173 516.5636,320.3854 516.6586,320.6542 " fill="none" id="pages-to-components" style="stroke:#181818;stroke-width:1.0;stroke-dasharray:7.0,7.0;"/><polygon fill="#181818" points="516.6586,320.6542,517.4332,310.8359,514.9935,315.9396,509.8898,313.4999,516.6586,320.6542" style="stroke:#181818;stroke-width:1.0;"/></g><!--link pages to sprintBacklog--><g id="link_pages_sprintBacklog"><path codeLine="31" d="M415.35,290.5969 C410.82,294.7569 406.8,299.5769 404.14,305.0169 C377.49,359.5569 401.72,431.7569 419.75,472.0269 " fill="none" id="pages-to-sprintBacklog" style="stroke:#181818;stroke-width:1.0;stroke-dasharray:7.0,7.0;"/><polygon fill="#181818" points="421.92,476.7769,421.8,466.9287,419.8338,472.2329,414.5296,470.2667,421.92,476.7769" style="stroke:#181818;stroke-width:1.0;"/></g><!--link pages to sprint--><g id="link_pages_sprint"><path codeLine="32" d="M448.01,297.1169 C448.62,315.2169 449.45,339.5469 450.1,358.7069 " fill="none" id="pages-to-sprint" style="stroke:#181818;stroke-width:1.0;stroke-dasharray:7.0,7.0;"/><polygon fill="#181818" points="450.27,363.9669,453.9584,354.8347,450.0982,358.9698,445.9631,355.1096,450.27,363.9669" style="stroke:#181818;stroke-width:1.0;"/></g><!--link sprint to sprintBacklog--><g id="link_sprint_sprintBacklog"><path codeLine="33" d="M447.43,417.2569 C445.09,433.5169 442.05,454.5969 439.58,471.7269 " fill="none" id="sprint-to-sprintBacklog" style="stroke:#181818;stroke-width:1.0;stroke-dasharray:7.0,7.0;"/><polygon fill="#181818" points="438.83,476.9069,444.0727,468.5694,439.5431,471.958,436.1545,467.4284,438.83,476.9069" style="stroke:#181818;stroke-width:1.0;"/></g><!--link sprintBacklog to context--><g id="link_sprintBacklog_context"><path codeLine="34" d="M435.14,530.2569 C435.14,546.5169 435.14,567.5969 435.14,584.7269 " fill="none" id="sprintBacklog-to-context" style="stroke:#181818;stroke-width:1.0;stroke-dasharray:7.0,7.0;"/><polygon fill="#181818" points="435.14,589.9069,439.1657,580.9183,435.1543,584.9069,431.1657,580.8955,435.14,589.9069" style="stroke:#181818;stroke-width:1.0;"/></g><!--link sprint to context--><g id="link_sprint_context"><path codeLine="35" d="M475.19,417.3669 C488.29,433.2669 503.22,454.8069 510.14,477.0169 C522.43,516.4769 530.42,533.9969 510.14,570.0169 C502.55,583.4869 489.19,593.4369 475.82,600.5269 " fill="none" id="sprint-to-context" style="stroke:#181818;stroke-width:1.0;stroke-dasharray:7.0,7.0;"/><polygon fill="#181818" points="471.3,602.8269,481.135,602.3043,475.7549,600.5566,477.5026,595.1765,471.3,602.8269" style="stroke:#181818;stroke-width:1.0;"/></g><!--link pages to context--><g id="link_pages_context"><path codeLine="36" d="M415.35,275.2069 C396.49,279.2169 374.01,287.5769 362.14,305.0169 C295.86,402.3769 304.98,467.0369 362.14,570.0169 C369.24,582.8069 381.6,592.4769 394.15,599.5269 " fill="none" id="pages-to-context" style="stroke:#181818;stroke-width:1.0;stroke-dasharray:7.0,7.0;"/><polygon fill="#181818" points="398.77,602.0169,392.7256,594.241,394.3626,599.6558,388.9478,601.2928,398.77,602.0169" style="stroke:#181818;stroke-width:1.0;"/></g><!--link context to services--><g id="link_context_services"><path codeLine="37" d="M435.14,643.2569 C435.14,659.5169 435.14,680.5969 435.14,697.7269 " fill="none" id="context-to-services" style="stroke:#181818;stroke-width:1.0;stroke-dasharray:7.0,7.0;"/><polygon fill="#181818" points="435.14,702.9069,439.1657,693.9183,435.1543,697.9069,431.1657,693.8955,435.14,702.9069" style="stroke:#181818;stroke-width:1.0;"/></g><!--SRC=[TL5DZy8W5Bo_Np7nl5jDJ3nkijuy64sgFm39MsrieG7KJJRxtoL0RR7AWO-PUSCyS9Mh6VjoDb_W4zyM0jlDj5nFTomQhBaviFd02ZUX79o6rCfUQhyzCShML1vT2dckzH7wnnVBaxQiO2DLgI2yyG7xLK7KUgauCYRMo0d-27uyCAClZcq7_rFEjdv-IqhTj5gnSa4Hk8oFSLBGpcHWz48yL3sfnxShnx-k3vVRiRbMiiyU9Tx3lm6AuWjz-0SKduBY4f3GFeNvkQW7ipP7EALF6IkpKx8FBGrBEcYO8I9fZSQfMw8x]--></g></svg>