<?xml version="1.0" encoding="us-ascii" standalone="no"?><svg xmlns="http://www.w3.org/2000/svg" xmlns:xlink="http://www.w3.org/1999/xlink" contentStyleType="text/css" height="240px" preserveAspectRatio="none" style="width:360px;height:240px;background:#FFFFFF;" version="1.1" viewBox="0 0 360 240" width="360px" zoomAndPan="magnify"><defs/><g><line style="stroke:#181818;stroke-width:0.5;stroke-dasharray:5.0,5.0;" x1="59" x2="59" y1="81.2969" y2="159.5625"/><line style="stroke:#181818;stroke-width:0.5;stroke-dasharray:5.0,5.0;" x1="319.5" x2="319.5" y1="81.2969" y2="159.5625"/><text fill="#000000" font-family="sans-serif" font-size="14" lengthAdjust="spacing" textLength="103" x="5" y="77.9951">Product Owner</text><ellipse cx="59.5" cy="13.5" fill="#E2E2F0" rx="8" ry="8" style="stroke:#181818;stroke-width:0.5;"/><path d="M59.5,21.5 L59.5,48.5 M46.5,29.5 L72.5,29.5 M59.5,48.5 L46.5,63.5 M59.5,48.5 L72.5,63.5 " fill="none" style="stroke:#181818;stroke-width:0.5;"/><text fill="#000000" font-family="sans-serif" font-size="14" lengthAdjust="spacing" textLength="103" x="5" y="171.5576">Product Owner</text><ellipse cx="59.5" cy="183.3594" fill="#E2E2F0" rx="8" ry="8" style="stroke:#181818;stroke-width:0.5;"/><path d="M59.5,191.3594 L59.5,218.3594 M46.5,199.3594 L72.5,199.3594 M59.5,218.3594 L46.5,233.3594 M59.5,218.3594 L72.5,233.3594 " fill="none" style="stroke:#181818;stroke-width:0.5;"/><rect fill="#E2E2F0" height="30.2969" rx="2.5" ry="2.5" style="stroke:#181818;stroke-width:0.5;" width="70" x="284.5" y="50"/><text fill="#000000" font-family="sans-serif" font-size="14" lengthAdjust="spacing" textLength="56" x="291.5" y="69.9951">:System</text><rect fill="#E2E2F0" height="30.2969" rx="2.5" ry="2.5" style="stroke:#181818;stroke-width:0.5;" width="70" x="284.5" y="158.5625"/><text fill="#000000" font-family="sans-serif" font-size="14" lengthAdjust="spacing" textLength="56" x="291.5" y="178.5576">:System</text><polygon fill="#181818" points="307.5,108.4297,317.5,112.4297,307.5,116.4297,311.5,112.4297" style="stroke:#181818;stroke-width:1.0;"/><line style="stroke:#181818;stroke-width:1.0;" x1="59.5" x2="313.5" y1="112.4297" y2="112.4297"/><text fill="#000000" font-family="sans-serif" font-size="13" font-weight="bold" lengthAdjust="spacing" textLength="9" x="112" y="107.3638">1</text><text fill="#000000" font-family="sans-serif" font-size="13" lengthAdjust="spacing" textLength="142" x="125" y="107.3638">defines Sprint Backlog</text><polygon fill="#181818" points="70.5,137.5625,60.5,141.5625,70.5,145.5625,66.5,141.5625" style="stroke:#181818;stroke-width:1.0;"/><line style="stroke:#181818;stroke-width:1.0;stroke-dasharray:2.0,2.0;" x1="64.5" x2="318.5" y1="141.5625" y2="141.5625"/><text fill="#000000" font-family="sans-serif" font-size="13" font-weight="bold" lengthAdjust="spacing" textLength="9" x="71.5" y="136.4966">2</text><text fill="#000000" font-family="sans-serif" font-size="13" lengthAdjust="spacing" textLength="223" x="84.5" y="136.4966">confirms creation of Sprint Backlog</text><!--SRC=[NOn13i8m30JlUONLUp_G0nBSKIBn0kEwbLNY5CSHulT4b1EtNStErarqHyCCbP-DbVZAjUBAvuUi2iJgR06R5stvtcD0yc8m92jp8uVuKhO1i4AAeJ-vaEoe3iDqUrVd_6L7325564-_Di7CYoXtkfjquuAqFSeQ3WnZNwOu0HLTn785CaQNeb2MV-K3]--></g></svg>