<?xml version="1.0" encoding="us-ascii" standalone="no"?><svg xmlns="http://www.w3.org/2000/svg" xmlns:xlink="http://www.w3.org/1999/xlink" contentStyleType="text/css" height="690px" preserveAspectRatio="none" style="width:754px;height:690px;background:#FFFFFF;" version="1.1" viewBox="0 0 754 690" width="754px" zoomAndPan="magnify"><defs/><g><text fill="#000000" font-family="sans-serif" font-size="14" font-weight="bold" lengthAdjust="spacing" textLength="721" x="10" y="22.9951">US033 - As Project Member, I want to update the status (i.e.: the Scrum Board category) of</text><text fill="#000000" font-family="sans-serif" font-size="14" font-weight="bold" lengthAdjust="spacing" textLength="598" x="74" y="39.292">a user story in the scope of the current/active sprint backlog in the web UI.</text><!--cluster src--><g id="cluster_src"><path d="M246.5,59.5938 L272.5,59.5938 A3.75,3.75 0 0 1 275,62.0938 L282,81.8906 L512.5,81.8906 A2.5,2.5 0 0 1 515,84.3906 L515,680.8138 A2.5,2.5 0 0 1 512.5,683.3138 L246.5,683.3138 A2.5,2.5 0 0 1 244,680.8138 L244,62.0938 A2.5,2.5 0 0 1 246.5,59.5938 " fill="none" style="stroke:#000000;stroke-width:1.5;"/><line style="stroke:#000000;stroke-width:1.5;" x1="244" x2="282" y1="81.8906" y2="81.8906"/><text fill="#000000" font-family="sans-serif" font-size="14" font-weight="bold" lengthAdjust="spacing" textLength="25" x="248" y="74.5889">src</text></g><!--cluster components--><g id="cluster_components"><path d="M296.5,337.3138 L395.5,337.3138 A3.75,3.75 0 0 1 398,339.8138 L405,359.6106 L472.5,359.6106 A2.5,2.5 0 0 1 475,362.1106 L475,454.8138 A2.5,2.5 0 0 1 472.5,457.3138 L296.5,457.3138 A2.5,2.5 0 0 1 294,454.8138 L294,339.8138 A2.5,2.5 0 0 1 296.5,337.3138 " fill="none" style="stroke:#000000;stroke-width:1.5;"/><line style="stroke:#000000;stroke-width:1.5;" x1="294" x2="405" y1="359.6106" y2="359.6106"/><text fill="#000000" font-family="sans-serif" font-size="14" font-weight="bold" lengthAdjust="spacing" textLength="98" x="298" y="352.3089">components</text></g><path d="M354,147.3138 L400,147.3138 A3.75,3.75 0 0 1 402.5,149.8138 L409.5,169.6106 L414,169.6106 A2.5,2.5 0 0 1 416.5,172.1106 L416.5,197.4075 A2.5,2.5 0 0 1 414,199.9075 L354,199.9075 A2.5,2.5 0 0 1 351.5,197.4075 L351.5,149.8138 A2.5,2.5 0 0 1 354,147.3138 " fill="#F1F1F1" style="stroke:#181818;stroke-width:0.5;"/><line style="stroke:#181818;stroke-width:0.5;" x1="351.5" x2="409.5" y1="169.6106" y2="169.6106"/><text fill="#000000" font-family="sans-serif" font-size="14" lengthAdjust="spacing" textLength="45" x="355.5" y="162.3089">routes</text><path d="M349,260.3138 L393,260.3138 A3.75,3.75 0 0 1 395.5,262.8138 L402.5,282.6106 L407,282.6106 A2.5,2.5 0 0 1 409.5,285.1106 L409.5,310.4075 A2.5,2.5 0 0 1 407,312.9075 L349,312.9075 A2.5,2.5 0 0 1 346.5,310.4075 L346.5,262.8138 A2.5,2.5 0 0 1 349,260.3138 " fill="#F1F1F1" style="stroke:#181818;stroke-width:0.5;"/><line style="stroke:#181818;stroke-width:0.5;" x1="346.5" x2="402.5" y1="282.6106" y2="282.6106"/><text fill="#000000" font-family="sans-serif" font-size="14" lengthAdjust="spacing" textLength="43" x="350.5" y="275.3089">pages</text><path d="M320.5,380.3138 L415.5,380.3138 A3.75,3.75 0 0 1 418,382.8138 L425,402.6106 L429.5,402.6106 A2.5,2.5 0 0 1 432,405.1106 L432,430.4075 A2.5,2.5 0 0 1 429.5,432.9075 L320.5,432.9075 A2.5,2.5 0 0 1 318,430.4075 L318,382.8138 A2.5,2.5 0 0 1 320.5,380.3138 " fill="#F1F1F1" style="stroke:#181818;stroke-width:0.5;"/><line style="stroke:#181818;stroke-width:0.5;" x1="318" x2="425" y1="402.6106" y2="402.6106"/><text fill="#000000" font-family="sans-serif" font-size="14" lengthAdjust="spacing" textLength="94" x="322" y="395.3089">sprintBacklog</text><path d="M307.5,493.3138 L360.5,493.3138 A3.75,3.75 0 0 1 363,495.8138 L370,515.6106 L374.5,515.6106 A2.5,2.5 0 0 1 377,518.1106 L377,543.4075 A2.5,2.5 0 0 1 374.5,545.9075 L307.5,545.9075 A2.5,2.5 0 0 1 305,543.4075 L305,495.8138 A2.5,2.5 0 0 1 307.5,493.3138 " fill="#F1F1F1" style="stroke:#181818;stroke-width:0.5;"/><line style="stroke:#181818;stroke-width:0.5;" x1="305" x2="370" y1="515.6106" y2="515.6106"/><text fill="#000000" font-family="sans-serif" font-size="14" lengthAdjust="spacing" textLength="52" x="309" y="508.3089">context</text><path d="M305,606.3138 L363,606.3138 A3.75,3.75 0 0 1 365.5,608.8138 L372.5,628.6106 L377,628.6106 A2.5,2.5 0 0 1 379.5,631.1106 L379.5,656.4075 A2.5,2.5 0 0 1 377,658.9075 L305,658.9075 A2.5,2.5 0 0 1 302.5,656.4075 L302.5,608.8138 A2.5,2.5 0 0 1 305,606.3138 " fill="#F1F1F1" style="stroke:#181818;stroke-width:0.5;"/><line style="stroke:#181818;stroke-width:0.5;" x1="302.5" x2="372.5" y1="628.6106" y2="628.6106"/><text fill="#000000" font-family="sans-serif" font-size="14" lengthAdjust="spacing" textLength="57" x="306.5" y="621.3089">services</text><!--link src to components--><g id="link_src_components"><path codeLine="24" d="M424.08,87.3737 C425.63,88.6037 450.69,108.5838 459,131.3138 C479.63,187.7338 481.89,255.1137 478.865,308.9963 C478.1088,322.4669 477.0222,335.0939 475.8098,346.4952 C475.6582,347.9204 475.5047,349.3264 475.3496,350.7125 C475.2721,351.4055 475.1941,352.0936 475.1159,352.7766 " fill="none" id="src-to-components" style="stroke:#181818;stroke-width:1.0;stroke-dasharray:7.0,7.0;"/><polygon fill="#181818" points="475.1159,352.7766,480.1146,344.2906,475.6852,347.8091,472.1666,343.3797,475.1159,352.7766" style="stroke:#181818;stroke-width:1.0;"/></g><!--link src to routes--><g id="link_src_routes"><path codeLine="25" d="M423.97,87.3737 C423.26,88.9038 409.49,118.3338 398.31,142.2238 " fill="none" id="src-to-routes" style="stroke:#181818;stroke-width:1.0;stroke-dasharray:7.0,7.0;"/><polygon fill="#181818" points="396.11,146.9238,403.5418,140.4609,398.2252,142.3932,396.2929,137.0766,396.11,146.9238" style="stroke:#181818;stroke-width:1.0;"/></g><!--link routes to pages--><g id="link_routes_pages"><path codeLine="26" d="M382.61,200.5538 C381.73,216.8138 380.59,237.8938 379.66,255.0238 " fill="none" id="routes-to-pages" style="stroke:#181818;stroke-width:1.0;stroke-dasharray:7.0,7.0;"/><polygon fill="#181818" points="379.38,260.2038,383.8633,251.4345,379.6518,255.2111,375.8752,250.9996,379.38,260.2038" style="stroke:#181818;stroke-width:1.0;"/></g><!--link pages to components--><g id="link_pages_components"><path codeLine="27" d="M409.82,311.2638 C411.21,311.9938 412.6,312.6838 414,313.3138 C428.15,319.6938 437.08,310.2838 448,321.3138 C451.28,324.6263 454.0442,328.3756 456.3695,332.4075 C456.9508,333.4155 457.5047,334.4411 458.0323,335.482 C458.2961,336.0024 458.5534,336.5266 458.8042,337.0544 " fill="none" id="pages-to-components" style="stroke:#181818;stroke-width:1.0;stroke-dasharray:7.0,7.0;"/><polygon fill="#181818" points="458.8042,337.0544,458.5533,327.2087,456.6578,332.5386,451.3279,330.6431,458.8042,337.0544" style="stroke:#181818;stroke-width:1.0;"/></g><!--link pages to sprintBacklog--><g id="link_pages_sprintBacklog"><path codeLine="28" d="M377.35,313.4138 C376.89,331.5138 376.27,355.8438 375.78,375.0038 " fill="none" id="pages-to-sprintBacklog" style="stroke:#181818;stroke-width:1.0;stroke-dasharray:7.0,7.0;"/><polygon fill="#181818" points="375.65,380.2638,379.88,371.3695,375.7785,375.2654,371.8827,371.1639,375.65,380.2638" style="stroke:#181818;stroke-width:1.0;"/></g><!--link sprintBacklog to context--><g id="link_sprintBacklog_context"><path codeLine="29" d="M367.11,433.5538 C362.14,449.8138 355.68,470.8938 350.43,488.0238 " fill="none" id="sprintBacklog-to-context" style="stroke:#181818;stroke-width:1.0;stroke-dasharray:7.0,7.0;"/><polygon fill="#181818" points="348.84,493.2038,355.3083,485.7767,350.3094,488.4245,347.6616,483.4256,348.84,493.2038" style="stroke:#181818;stroke-width:1.0;"/></g><!--link pages to context--><g id="link_pages_context"><path codeLine="30" d="M346.4,293.2938 C330.2,297.8738 311.84,306.2138 302,321.3138 C265.1,377.9038 278.56,409.9538 302,473.3138 C304.03,478.8038 307.05,484.0738 310.53,488.9638 " fill="none" id="pages-to-context" style="stroke:#181818;stroke-width:1.0;stroke-dasharray:7.0,7.0;"/><polygon fill="#181818" points="313.55,492.9738,311.3281,483.3788,310.5409,488.9806,304.9391,488.1934,313.55,492.9738" style="stroke:#181818;stroke-width:1.0;"/></g><!--link context to services--><g id="link_context_services"><path codeLine="31" d="M341,546.5538 C341,562.8138 341,583.8938 341,601.0238 " fill="none" id="context-to-services" style="stroke:#181818;stroke-width:1.0;stroke-dasharray:7.0,7.0;"/><polygon fill="#181818" points="341,606.2038,345.0257,597.2152,341.0143,601.2038,337.0257,597.1924,341,606.2038" style="stroke:#181818;stroke-width:1.0;"/></g><!--SRC=[TOz1ImCn48Nl-HMFdXHq5Nhp8DXR3u9GUlEIJSTrRJS9aqchYF_TDDbsZM8E2VEzcPStqikEi5xTpkUunaF04xitCe976bhYAonnq5OW3j5lj13abH14Imouw1jgxZ9P6Ou35axp1YQrTOu_Bk5Uy6mrOY1ECmcXjyN0E4z7-LYOo4nMRhIHVfyqpttwiTLcktFTQU90BTRBHYcVkEu8iy1cXa-5TCwCNHGA9_obQjMd-r_HkC4xctBaZgnLUecrAAbE9Z-C_lfPeNUPlglTYFUzcTAKbkIHjaBJt6EASqPbELMUJF92Aj-_XoPO1LTLDGxbe9LD8UDRNCR0Idq3]--></g></svg>