<?xml version="1.0" encoding="us-ascii" standalone="no"?><svg xmlns="http://www.w3.org/2000/svg" xmlns:xlink="http://www.w3.org/1999/xlink" contentStyleType="text/css" height="1326px" preserveAspectRatio="none" style="width:3310px;height:1326px;background:#FFFFFF;" version="1.1" viewBox="0 0 3310 1326" width="3310px" zoomAndPan="magnify"><defs/><g><text fill="#000000" font-family="sans-serif" font-size="14" font-weight="bold" lengthAdjust="spacing" textLength="1083" x="1112.5" y="27.9951">US020 - As a Team Member, I want to add a user story in the product backlog to the sprint backlog, during the sprint planning ceremony</text><rect fill="#FFFFFF" height="1055.9531" style="stroke:#181818;stroke-width:1.0;" width="10" x="407.5" y="168.75"/><rect fill="#FFFFFF" height="982.5547" style="stroke:#181818;stroke-width:1.0;" width="10" x="737.5" y="213.0156"/><rect fill="#FFFFFF" height="909.1563" style="stroke:#181818;stroke-width:1.0;" width="10" x="1067.5" y="257.2813"/><rect fill="#FFFFFF" height="29.1328" style="stroke:#181818;stroke-width:1.0;" width="10" x="1781" y="466.7891"/><rect fill="#FFFFFF" height="29.1328" style="stroke:#181818;stroke-width:1.0;" width="10" x="1941.5" y="540.1875"/><rect fill="#FFFFFF" height="29.1328" style="stroke:#181818;stroke-width:1.0;" width="10" x="2098" y="613.5859"/><rect fill="#FFFFFF" height="203.9297" style="stroke:#181818;stroke-width:1.0;" width="10" x="2098" y="875.1094"/><rect fill="#FFFFFF" height="174.125" style="stroke:#181818;stroke-width:1.0;" width="10" x="2245" y="671.8516"/><rect fill="#FFFFFF" height="115.8594" style="stroke:#181818;stroke-width:1.0;" width="10" x="2469" y="700.9844"/><rect fill="#FFFFFF" height="29.1328" style="stroke:#181818;stroke-width:1.0;" width="10" x="2836.5" y="904.2422"/><rect fill="#FFFFFF" height="29.1328" style="stroke:#181818;stroke-width:1.0;" width="10" x="2836.5" y="1020.7734"/><rect fill="#FFFFFF" height="29.1328" style="stroke:#181818;stroke-width:1.0;" width="10" x="3032" y="962.5078"/><rect fill="#FFFFFF" height="29.1328" style="stroke:#181818;stroke-width:1.0;" width="10" x="3209" y="1108.1719"/><line style="stroke:#181818;stroke-width:0.5;stroke-dasharray:5.0,5.0;" x1="60" x2="60" y1="122.4844" y2="1242.7031"/><line style="stroke:#181818;stroke-width:0.5;stroke-dasharray:5.0,5.0;" x1="412" x2="412" y1="122.4844" y2="1242.7031"/><line style="stroke:#181818;stroke-width:0.5;stroke-dasharray:5.0,5.0;" x1="742" x2="742" y1="122.4844" y2="1242.7031"/><line style="stroke:#181818;stroke-width:0.5;stroke-dasharray:5.0,5.0;" x1="1072" x2="1072" y1="122.4844" y2="1242.7031"/><line style="stroke:#181818;stroke-width:0.5;stroke-dasharray:5.0,5.0;" x1="1522.5" x2="1522.5" y1="320.375" y2="1242.7031"/><line style="stroke:#181818;stroke-width:0.5;stroke-dasharray:5.0,5.0;" x1="1647.5" x2="1647.5" y1="410.5625" y2="1242.7031"/><line style="stroke:#181818;stroke-width:0.5;stroke-dasharray:5.0,5.0;" x1="1785.5" x2="1785.5" y1="122.4844" y2="1242.7031"/><line style="stroke:#181818;stroke-width:0.5;stroke-dasharray:5.0,5.0;" x1="1946.5" x2="1946.5" y1="122.4844" y2="1242.7031"/><line style="stroke:#181818;stroke-width:0.5;stroke-dasharray:5.0,5.0;" x1="2102.5" x2="2102.5" y1="122.4844" y2="1242.7031"/><line style="stroke:#181818;stroke-width:0.5;stroke-dasharray:5.0,5.0;" x1="2249.5" x2="2249.5" y1="122.4844" y2="1242.7031"/><line style="stroke:#181818;stroke-width:0.5;stroke-dasharray:5.0,5.0;" x1="2474" x2="2474" y1="122.4844" y2="1242.7031"/><line style="stroke:#181818;stroke-width:0.5;stroke-dasharray:5.0,5.0;" x1="2649" x2="2649" y1="747.7813" y2="1242.7031"/><line style="stroke:#181818;stroke-width:0.5;stroke-dasharray:5.0,5.0;" x1="2841" x2="2841" y1="122.4844" y2="1242.7031"/><line style="stroke:#181818;stroke-width:0.5;stroke-dasharray:5.0,5.0;" x1="3037" x2="3037" y1="122.4844" y2="1242.7031"/><line style="stroke:#181818;stroke-width:0.5;stroke-dasharray:5.0,5.0;" x1="3214" x2="3214" y1="122.4844" y2="1242.7031"/><text fill="#000000" font-family="sans-serif" font-size="14" lengthAdjust="spacing" textLength="105" x="5" y="119.1826">:Team Member</text><ellipse cx="60.5" cy="54.6875" fill="#FFFFFF" rx="8" ry="8" style="stroke:#181818;stroke-width:0.5;"/><path d="M60.5,62.6875 L60.5,89.6875 M47.5,70.6875 L73.5,70.6875 M60.5,89.6875 L47.5,104.6875 M60.5,89.6875 L73.5,104.6875 " fill="none" style="stroke:#181818;stroke-width:0.5;"/><text fill="#000000" font-family="sans-serif" font-size="14" lengthAdjust="spacing" textLength="105" x="5" y="1254.6982">:Team Member</text><ellipse cx="60.5" cy="1266.5" fill="#FFFFFF" rx="8" ry="8" style="stroke:#181818;stroke-width:0.5;"/><path d="M60.5,1274.5 L60.5,1301.5 M47.5,1282.5 L73.5,1282.5 M60.5,1301.5 L47.5,1316.5 M60.5,1301.5 L73.5,1316.5 " fill="none" style="stroke:#181818;stroke-width:0.5;"/><rect fill="#FFFFFF" height="30.2969" rx="2.5" ry="2.5" style="stroke:#181818;stroke-width:0.5;" width="127" x="349" y="91.1875"/><text fill="#000000" font-family="sans-serif" font-size="14" lengthAdjust="spacing" textLength="113" x="356" y="111.1826">:SprintBacklogUI</text><rect fill="#FFFFFF" height="30.2969" rx="2.5" ry="2.5" style="stroke:#181818;stroke-width:0.5;" width="127" x="349" y="1241.7031"/><text fill="#000000" font-family="sans-serif" font-size="14" lengthAdjust="spacing" textLength="113" x="356" y="1261.6982">:SprintBacklogUI</text><rect fill="#FFFFFF" height="46.5938" rx="2.5" ry="2.5" style="stroke:#181818;stroke-width:0.5;" width="181" x="652" y="74.8906"/><text fill="#000000" font-family="sans-serif" font-size="14" lengthAdjust="spacing" textLength="85" x="700" y="94.8857">&#171;Controller&#187;</text><text fill="#000000" font-family="sans-serif" font-size="14" lengthAdjust="spacing" textLength="167" x="659" y="111.1826">:SprintBacklogController</text><rect fill="#FFFFFF" height="46.5938" rx="2.5" ry="2.5" style="stroke:#181818;stroke-width:0.5;" width="181" x="652" y="1241.7031"/><text fill="#000000" font-family="sans-serif" font-size="14" lengthAdjust="spacing" textLength="85" x="700" y="1261.6982">&#171;Controller&#187;</text><text fill="#000000" font-family="sans-serif" font-size="14" lengthAdjust="spacing" textLength="167" x="659" y="1277.9951">:SprintBacklogController</text><rect fill="#FFFFFF" height="46.5938" rx="2.5" ry="2.5" style="stroke:#181818;stroke-width:0.5;" width="109" x="1018" y="74.8906"/><text fill="#000000" font-family="sans-serif" font-size="14" lengthAdjust="spacing" textLength="68" x="1038.5" y="94.8857">&#171;Service&#187;</text><text fill="#000000" font-family="sans-serif" font-size="14" lengthAdjust="spacing" textLength="95" x="1025" y="111.1826">:SprintService</text><rect fill="#FFFFFF" height="46.5938" rx="2.5" ry="2.5" style="stroke:#181818;stroke-width:0.5;" width="109" x="1018" y="1241.7031"/><text fill="#000000" font-family="sans-serif" font-size="14" lengthAdjust="spacing" textLength="68" x="1038.5" y="1261.6982">&#171;Service&#187;</text><text fill="#000000" font-family="sans-serif" font-size="14" lengthAdjust="spacing" textLength="95" x="1025" y="1277.9951">:SprintService</text><rect fill="#FFFFFF" height="79.1875" rx="2.5" ry="2.5" style="stroke:#181818;stroke-width:0.5;" width="115" x="1465.5" y="1241.7031"/><text fill="#000000" font-family="sans-serif" font-size="14" lengthAdjust="spacing" textLength="101" x="1472.5" y="1261.6982">&#171;ValueObject&#187;</text><text fill="#000000" font-family="sans-serif" font-size="14" lengthAdjust="spacing" textLength="85" x="1480.5" y="1277.9951">&#171;DomainID&#187;</text><text fill="#000000" font-family="sans-serif" font-size="14" lengthAdjust="spacing" textLength="80" x="1483" y="1294.292">userStoryID</text><text fill="#000000" font-family="sans-serif" font-size="14" lengthAdjust="spacing" textLength="86" x="1480" y="1310.5889">:UserStoryID</text><rect fill="#FFFFFF" height="79.1875" rx="2.5" ry="2.5" style="stroke:#181818;stroke-width:0.5;" width="115" x="1590.5" y="1241.7031"/><text fill="#000000" font-family="sans-serif" font-size="14" lengthAdjust="spacing" textLength="101" x="1597.5" y="1261.6982">&#171;ValueObject&#187;</text><text fill="#000000" font-family="sans-serif" font-size="14" lengthAdjust="spacing" textLength="85" x="1605.5" y="1277.9951">&#171;DomainID&#187;</text><text fill="#000000" font-family="sans-serif" font-size="14" lengthAdjust="spacing" textLength="53" x="1621.5" y="1294.292">sprintID</text><text fill="#000000" font-family="sans-serif" font-size="14" lengthAdjust="spacing" textLength="59" x="1618.5" y="1310.5889">:SprintID</text><rect fill="#FFFFFF" height="62.8906" rx="2.5" ry="2.5" style="stroke:#181818;stroke-width:0.5;" width="141" x="1715.5" y="58.5938"/><text fill="#000000" font-family="sans-serif" font-size="14" lengthAdjust="spacing" textLength="78" x="1747" y="78.5889">&#171;Interface&#187;</text><text fill="#000000" font-family="sans-serif" font-size="14" lengthAdjust="spacing" textLength="92" x="1740" y="94.8857">&#171;Repository&#187;</text><text fill="#000000" font-family="sans-serif" font-size="14" lengthAdjust="spacing" textLength="127" x="1722.5" y="111.1826">:ProjectRepository</text><rect fill="#FFFFFF" height="62.8906" rx="2.5" ry="2.5" style="stroke:#181818;stroke-width:0.5;" width="141" x="1715.5" y="1241.7031"/><text fill="#000000" font-family="sans-serif" font-size="14" lengthAdjust="spacing" textLength="78" x="1747" y="1261.6982">&#171;Interface&#187;</text><text fill="#000000" font-family="sans-serif" font-size="14" lengthAdjust="spacing" textLength="92" x="1740" y="1277.9951">&#171;Repository&#187;</text><text fill="#000000" font-family="sans-serif" font-size="14" lengthAdjust="spacing" textLength="127" x="1722.5" y="1294.292">:ProjectRepository</text><rect fill="#FFFFFF" height="62.8906" rx="2.5" ry="2.5" style="stroke:#181818;stroke-width:0.5;" width="160" x="1866.5" y="58.5938"/><text fill="#000000" font-family="sans-serif" font-size="14" lengthAdjust="spacing" textLength="78" x="1907.5" y="78.5889">&#171;Interface&#187;</text><text fill="#000000" font-family="sans-serif" font-size="14" lengthAdjust="spacing" textLength="92" x="1900.5" y="94.8857">&#171;Repository&#187;</text><text fill="#000000" font-family="sans-serif" font-size="14" lengthAdjust="spacing" textLength="146" x="1873.5" y="111.1826">:UserStoryRepository</text><rect fill="#FFFFFF" height="62.8906" rx="2.5" ry="2.5" style="stroke:#181818;stroke-width:0.5;" width="160" x="1866.5" y="1241.7031"/><text fill="#000000" font-family="sans-serif" font-size="14" lengthAdjust="spacing" textLength="78" x="1907.5" y="1261.6982">&#171;Interface&#187;</text><text fill="#000000" font-family="sans-serif" font-size="14" lengthAdjust="spacing" textLength="92" x="1900.5" y="1277.9951">&#171;Repository&#187;</text><text fill="#000000" font-family="sans-serif" font-size="14" lengthAdjust="spacing" textLength="146" x="1873.5" y="1294.292">:UserStoryRepository</text><rect fill="#FFFFFF" height="62.8906" rx="2.5" ry="2.5" style="stroke:#181818;stroke-width:0.5;" width="133" x="2036.5" y="58.5938"/><text fill="#000000" font-family="sans-serif" font-size="14" lengthAdjust="spacing" textLength="78" x="2064" y="78.5889">&#171;Interface&#187;</text><text fill="#000000" font-family="sans-serif" font-size="14" lengthAdjust="spacing" textLength="92" x="2057" y="94.8857">&#171;Repository&#187;</text><text fill="#000000" font-family="sans-serif" font-size="14" lengthAdjust="spacing" textLength="119" x="2043.5" y="111.1826">:SprintRepository</text><rect fill="#FFFFFF" height="62.8906" rx="2.5" ry="2.5" style="stroke:#181818;stroke-width:0.5;" width="133" x="2036.5" y="1241.7031"/><text fill="#000000" font-family="sans-serif" font-size="14" lengthAdjust="spacing" textLength="78" x="2064" y="1261.6982">&#171;Interface&#187;</text><text fill="#000000" font-family="sans-serif" font-size="14" lengthAdjust="spacing" textLength="92" x="2057" y="1277.9951">&#171;Repository&#187;</text><text fill="#000000" font-family="sans-serif" font-size="14" lengthAdjust="spacing" textLength="119" x="2043.5" y="1294.292">:SprintRepository</text><rect fill="#FFFFFF" height="79.1875" rx="2.5" ry="2.5" style="stroke:#181818;stroke-width:0.5;" width="141" x="2179.5" y="42.2969"/><text fill="#000000" font-family="sans-serif" font-size="14" lengthAdjust="spacing" textLength="56" x="2222" y="62.292">&#171;Entity&#187;</text><text fill="#000000" font-family="sans-serif" font-size="14" lengthAdjust="spacing" textLength="127" x="2186.5" y="78.5889">&#171;Aggregate Root&#187;</text><text fill="#000000" font-family="sans-serif" font-size="14" lengthAdjust="spacing" textLength="39" x="2230.5" y="94.8857">sprint</text><text fill="#000000" font-family="sans-serif" font-size="14" lengthAdjust="spacing" textLength="45" x="2227.5" y="111.1826">:Sprint</text><rect fill="#FFFFFF" height="79.1875" rx="2.5" ry="2.5" style="stroke:#181818;stroke-width:0.5;" width="141" x="2179.5" y="1241.7031"/><text fill="#000000" font-family="sans-serif" font-size="14" lengthAdjust="spacing" textLength="56" x="2222" y="1261.6982">&#171;Entity&#187;</text><text fill="#000000" font-family="sans-serif" font-size="14" lengthAdjust="spacing" textLength="127" x="2186.5" y="1277.9951">&#171;Aggregate Root&#187;</text><text fill="#000000" font-family="sans-serif" font-size="14" lengthAdjust="spacing" textLength="39" x="2230.5" y="1294.292">sprint</text><text fill="#000000" font-family="sans-serif" font-size="14" lengthAdjust="spacing" textLength="45" x="2227.5" y="1310.5889">:Sprint</text><rect fill="#FFFFFF" height="46.5938" rx="2.5" ry="2.5" style="stroke:#181818;stroke-width:0.5;" width="114" x="2417" y="74.8906"/><text fill="#000000" font-family="sans-serif" font-size="14" lengthAdjust="spacing" textLength="56" x="2446" y="94.8857">&#171;Entity&#187;</text><text fill="#000000" font-family="sans-serif" font-size="14" lengthAdjust="spacing" textLength="100" x="2424" y="111.1826">:SprintBacklog</text><rect fill="#FFFFFF" height="46.5938" rx="2.5" ry="2.5" style="stroke:#181818;stroke-width:0.5;" width="114" x="2417" y="1241.7031"/><text fill="#000000" font-family="sans-serif" font-size="14" lengthAdjust="spacing" textLength="56" x="2446" y="1261.6982">&#171;Entity&#187;</text><text fill="#000000" font-family="sans-serif" font-size="14" lengthAdjust="spacing" textLength="100" x="2424" y="1277.9951">:SprintBacklog</text><rect fill="#FFFFFF" height="46.5938" rx="2.5" ry="2.5" style="stroke:#181818;stroke-width:0.5;" width="147" x="2576" y="1241.7031"/><text fill="#000000" font-family="sans-serif" font-size="14" lengthAdjust="spacing" textLength="126" x="2586.5" y="1261.6982">userStoryCodeList</text><text fill="#000000" font-family="sans-serif" font-size="14" lengthAdjust="spacing" textLength="133" x="2583" y="1277.9951">:List&lt;UserStoryID&gt;</text><rect fill="#FFFFFF" height="30.2969" rx="2.5" ry="2.5" style="stroke:#181818;stroke-width:0.5;" width="217" x="2733" y="91.1875"/><text fill="#000000" font-family="sans-serif" font-size="14" lengthAdjust="spacing" textLength="203" x="2740" y="111.1826">:SprintDomainDataAssembler</text><rect fill="#FFFFFF" height="30.2969" rx="2.5" ry="2.5" style="stroke:#181818;stroke-width:0.5;" width="217" x="2733" y="1241.7031"/><text fill="#000000" font-family="sans-serif" font-size="14" lengthAdjust="spacing" textLength="203" x="2740" y="1261.6982">:SprintDomainDataAssembler</text><rect fill="#FFFFFF" height="62.8906" rx="2.5" ry="2.5" style="stroke:#181818;stroke-width:0.5;" width="154" x="2960" y="58.5938"/><text fill="#000000" font-family="sans-serif" font-size="14" lengthAdjust="spacing" textLength="78" x="2998" y="78.5889">&#171;Interface&#187;</text><text fill="#000000" font-family="sans-serif" font-size="14" lengthAdjust="spacing" textLength="92" x="2991" y="94.8857">&#171;Repository&#187;</text><text fill="#000000" font-family="sans-serif" font-size="14" lengthAdjust="spacing" textLength="140" x="2967" y="111.1826">:SprintRepositoryJPA</text><rect fill="#FFFFFF" height="62.8906" rx="2.5" ry="2.5" style="stroke:#181818;stroke-width:0.5;" width="154" x="2960" y="1241.7031"/><text fill="#000000" font-family="sans-serif" font-size="14" lengthAdjust="spacing" textLength="78" x="2998" y="1261.6982">&#171;Interface&#187;</text><text fill="#000000" font-family="sans-serif" font-size="14" lengthAdjust="spacing" textLength="92" x="2991" y="1277.9951">&#171;Repository&#187;</text><text fill="#000000" font-family="sans-serif" font-size="14" lengthAdjust="spacing" textLength="140" x="2967" y="1294.292">:SprintRepositoryJPA</text><rect fill="#FFFFFF" height="30.2969" rx="2.5" ry="2.5" style="stroke:#181818;stroke-width:0.5;" width="180" x="3124" y="91.1875"/><text fill="#000000" font-family="sans-serif" font-size="14" lengthAdjust="spacing" textLength="166" x="3131" y="111.1826">:OutputSprintAssembler</text><rect fill="#FFFFFF" height="30.2969" rx="2.5" ry="2.5" style="stroke:#181818;stroke-width:0.5;" width="180" x="3124" y="1241.7031"/><text fill="#000000" font-family="sans-serif" font-size="14" lengthAdjust="spacing" textLength="166" x="3131" y="1261.6982">:OutputSprintAssembler</text><rect fill="#FFFFFF" height="1055.9531" style="stroke:#181818;stroke-width:1.0;" width="10" x="407.5" y="168.75"/><rect fill="#FFFFFF" height="982.5547" style="stroke:#181818;stroke-width:1.0;" width="10" x="737.5" y="213.0156"/><rect fill="#FFFFFF" height="909.1563" style="stroke:#181818;stroke-width:1.0;" width="10" x="1067.5" y="257.2813"/><rect fill="#FFFFFF" height="29.1328" style="stroke:#181818;stroke-width:1.0;" width="10" x="1781" y="466.7891"/><rect fill="#FFFFFF" height="29.1328" style="stroke:#181818;stroke-width:1.0;" width="10" x="1941.5" y="540.1875"/><rect fill="#FFFFFF" height="29.1328" style="stroke:#181818;stroke-width:1.0;" width="10" x="2098" y="613.5859"/><rect fill="#FFFFFF" height="203.9297" style="stroke:#181818;stroke-width:1.0;" width="10" x="2098" y="875.1094"/><rect fill="#FFFFFF" height="174.125" style="stroke:#181818;stroke-width:1.0;" width="10" x="2245" y="671.8516"/><rect fill="#FFFFFF" height="115.8594" style="stroke:#181818;stroke-width:1.0;" width="10" x="2469" y="700.9844"/><rect fill="#FFFFFF" height="29.1328" style="stroke:#181818;stroke-width:1.0;" width="10" x="2836.5" y="904.2422"/><rect fill="#FFFFFF" height="29.1328" style="stroke:#181818;stroke-width:1.0;" width="10" x="2836.5" y="1020.7734"/><rect fill="#FFFFFF" height="29.1328" style="stroke:#181818;stroke-width:1.0;" width="10" x="3032" y="962.5078"/><rect fill="#FFFFFF" height="29.1328" style="stroke:#181818;stroke-width:1.0;" width="10" x="3209" y="1108.1719"/><polygon fill="#181818" points="395.5,164.75,405.5,168.75,395.5,172.75,399.5,168.75" style="stroke:#181818;stroke-width:1.0;"/><line style="stroke:#181818;stroke-width:1.0;" x1="60.5" x2="401.5" y1="168.75" y2="168.75"/><text fill="#000000" font-family="sans-serif" font-size="13" font-weight="bold" lengthAdjust="spacing" textLength="9" x="70" y="156.1177">1</text><text fill="#000000" font-family="sans-serif" font-size="13" lengthAdjust="spacing" textLength="315" x="83" y="148.5513">requests to add user story in the product backlog</text><text fill="#000000" font-family="sans-serif" font-size="13" lengthAdjust="spacing" textLength="131" x="177" y="163.6841">to the sprint backlog</text><polygon fill="#181818" points="725.5,209.0156,735.5,213.0156,725.5,217.0156,729.5,213.0156" style="stroke:#181818;stroke-width:1.0;"/><line style="stroke:#181818;stroke-width:1.0;" x1="417.5" x2="731.5" y1="213.0156" y2="213.0156"/><text fill="#000000" font-family="sans-serif" font-size="13" font-weight="bold" lengthAdjust="spacing" textLength="9" x="427" y="200.3833">2</text><text fill="#000000" font-family="sans-serif" font-size="13" lengthAdjust="spacing" textLength="191" x="488.5" y="192.8169">addUserStoryToSprintBacklog</text><text fill="#000000" font-family="sans-serif" font-size="13" lengthAdjust="spacing" textLength="288" x="440" y="207.9497">(projectCode, sprintCode, newUserStoryDTO)</text><polygon fill="#181818" points="1055.5,253.2813,1065.5,257.2813,1055.5,261.2813,1059.5,257.2813" style="stroke:#181818;stroke-width:1.0;"/><line style="stroke:#181818;stroke-width:1.0;" x1="747.5" x2="1061.5" y1="257.2813" y2="257.2813"/><text fill="#000000" font-family="sans-serif" font-size="13" font-weight="bold" lengthAdjust="spacing" textLength="9" x="757" y="244.6489">3</text><text fill="#000000" font-family="sans-serif" font-size="13" lengthAdjust="spacing" textLength="191" x="818.5" y="237.0825">addUserStoryToSprintBacklog</text><text fill="#000000" font-family="sans-serif" font-size="13" lengthAdjust="spacing" textLength="288" x="770" y="252.2153">(projectCode, sprintCode, newUserStoryDTO)</text><polygon fill="#181818" points="1453.5,282.4141,1463.5,286.4141,1453.5,290.4141,1457.5,286.4141" style="stroke:#181818;stroke-width:1.0;"/><line style="stroke:#181818;stroke-width:1.0;" x1="1077.5" x2="1459.5" y1="286.4141" y2="286.4141"/><text fill="#000000" font-family="sans-serif" font-size="13" font-weight="bold" lengthAdjust="spacing" textLength="9" x="1089.5" y="281.3481">4</text><text fill="#000000" font-family="sans-serif" font-size="13" lengthAdjust="spacing" textLength="351" x="1102.5" y="281.3481">create(projectCode, newUserStoryDTO.userStoryCode)</text><rect fill="#FFFFFF" height="79.1875" rx="2.5" ry="2.5" style="stroke:#181818;stroke-width:0.5;" width="115" x="1465.5" y="265.2813"/><text fill="#000000" font-family="sans-serif" font-size="14" lengthAdjust="spacing" textLength="101" x="1472.5" y="285.2764">&#171;ValueObject&#187;</text><text fill="#000000" font-family="sans-serif" font-size="14" lengthAdjust="spacing" textLength="85" x="1480.5" y="301.5732">&#171;DomainID&#187;</text><text fill="#000000" font-family="sans-serif" font-size="14" lengthAdjust="spacing" textLength="80" x="1483" y="317.8701">userStoryID</text><text fill="#000000" font-family="sans-serif" font-size="14" lengthAdjust="spacing" textLength="86" x="1480" y="334.167">:UserStoryID</text><polygon fill="#181818" points="1578.5,372.6016,1588.5,376.6016,1578.5,380.6016,1582.5,376.6016" style="stroke:#181818;stroke-width:1.0;"/><line style="stroke:#181818;stroke-width:1.0;" x1="1077.5" x2="1584.5" y1="376.6016" y2="376.6016"/><text fill="#000000" font-family="sans-serif" font-size="13" font-weight="bold" lengthAdjust="spacing" textLength="9" x="1225" y="371.5356">5</text><text fill="#000000" font-family="sans-serif" font-size="13" lengthAdjust="spacing" textLength="205" x="1238" y="371.5356">create(projectCode, sprintCode)</text><rect fill="#FFFFFF" height="79.1875" rx="2.5" ry="2.5" style="stroke:#181818;stroke-width:0.5;" width="115" x="1590.5" y="355.4688"/><text fill="#000000" font-family="sans-serif" font-size="14" lengthAdjust="spacing" textLength="101" x="1597.5" y="375.4639">&#171;ValueObject&#187;</text><text fill="#000000" font-family="sans-serif" font-size="14" lengthAdjust="spacing" textLength="85" x="1605.5" y="391.7607">&#171;DomainID&#187;</text><text fill="#000000" font-family="sans-serif" font-size="14" lengthAdjust="spacing" textLength="53" x="1621.5" y="408.0576">sprintID</text><text fill="#000000" font-family="sans-serif" font-size="14" lengthAdjust="spacing" textLength="59" x="1618.5" y="424.3545">:SprintID</text><polygon fill="#181818" points="1769,462.7891,1779,466.7891,1769,470.7891,1773,466.7891" style="stroke:#181818;stroke-width:1.0;"/><line style="stroke:#181818;stroke-width:1.0;" x1="1077.5" x2="1775" y1="466.7891" y2="466.7891"/><text fill="#000000" font-family="sans-serif" font-size="13" font-weight="bold" lengthAdjust="spacing" textLength="9" x="1347.25" y="461.7231">6</text><text fill="#000000" font-family="sans-serif" font-size="13" lengthAdjust="spacing" textLength="151" x="1360.25" y="461.7231">existsById(projectCode)</text><polygon fill="#181818" points="1088.5,491.9219,1078.5,495.9219,1088.5,499.9219,1084.5,495.9219" style="stroke:#181818;stroke-width:1.0;"/><line style="stroke:#181818;stroke-width:1.0;stroke-dasharray:2.0,2.0;" x1="1082.5" x2="1785" y1="495.9219" y2="495.9219"/><text fill="#000000" font-family="sans-serif" font-size="13" font-weight="bold" lengthAdjust="spacing" textLength="9" x="1395.25" y="490.856">7</text><text fill="#000000" font-family="sans-serif" font-size="13" lengthAdjust="spacing" textLength="60" x="1408.25" y="490.856">true/false</text><polygon fill="#181818" points="1929.5,536.1875,1939.5,540.1875,1929.5,544.1875,1933.5,540.1875" style="stroke:#181818;stroke-width:1.0;"/><line style="stroke:#181818;stroke-width:1.0;" x1="1077.5" x2="1935.5" y1="540.1875" y2="540.1875"/><text fill="#000000" font-family="sans-serif" font-size="13" font-weight="bold" lengthAdjust="spacing" textLength="9" x="1285" y="527.5552">8</text><text fill="#000000" font-family="sans-serif" font-size="13" lengthAdjust="spacing" textLength="436" x="1298" y="519.9888">existsByUserStoryIdAndUserStoryStatusNotAndUserStoryStatusNot</text><text fill="#000000" font-family="sans-serif" font-size="13" lengthAdjust="spacing" textLength="330" x="1351" y="535.1216">(userStoryID, Status.FINISHED, Status.CANCELLED)</text><polygon fill="#181818" points="1088.5,565.3203,1078.5,569.3203,1088.5,573.3203,1084.5,569.3203" style="stroke:#181818;stroke-width:1.0;"/><line style="stroke:#181818;stroke-width:1.0;stroke-dasharray:2.0,2.0;" x1="1082.5" x2="1945.5" y1="569.3203" y2="569.3203"/><text fill="#000000" font-family="sans-serif" font-size="13" font-weight="bold" lengthAdjust="spacing" textLength="9" x="1475.5" y="564.2544">9</text><text fill="#000000" font-family="sans-serif" font-size="13" lengthAdjust="spacing" textLength="60" x="1488.5" y="564.2544">true/false</text><polygon fill="#181818" points="2086,609.5859,2096,613.5859,2086,617.5859,2090,613.5859" style="stroke:#181818;stroke-width:1.0;"/><line style="stroke:#181818;stroke-width:1.0;" x1="1077.5" x2="2092" y1="613.5859" y2="613.5859"/><text fill="#000000" font-family="sans-serif" font-size="13" font-weight="bold" lengthAdjust="spacing" textLength="18" x="1467.75" y="600.9536">10</text><text fill="#000000" font-family="sans-serif" font-size="13" lengthAdjust="spacing" textLength="218" x="1489.75" y="593.3872">findBySprintIdAndSprintStatusLike</text><text fill="#000000" font-family="sans-serif" font-size="13" lengthAdjust="spacing" textLength="205" x="1496.25" y="608.52">(sprintID, SprintStatus.OPENED)</text><polygon fill="#181818" points="1088.5,638.7188,1078.5,642.7188,1088.5,646.7188,1084.5,642.7188" style="stroke:#181818;stroke-width:1.0;"/><line style="stroke:#181818;stroke-width:1.0;stroke-dasharray:2.0,2.0;" x1="1082.5" x2="2102" y1="642.7188" y2="642.7188"/><text fill="#000000" font-family="sans-serif" font-size="13" font-weight="bold" lengthAdjust="spacing" textLength="18" x="1561.25" y="637.6528">11</text><text fill="#000000" font-family="sans-serif" font-size="13" lengthAdjust="spacing" textLength="36" x="1583.25" y="637.6528">sprint</text><polygon fill="#181818" points="2233,667.8516,2243,671.8516,2233,675.8516,2237,671.8516" style="stroke:#181818;stroke-width:1.0;"/><line style="stroke:#181818;stroke-width:1.0;" x1="1077.5" x2="2239" y1="671.8516" y2="671.8516"/><text fill="#000000" font-family="sans-serif" font-size="13" font-weight="bold" lengthAdjust="spacing" textLength="18" x="1544.25" y="666.7856">12</text><text fill="#000000" font-family="sans-serif" font-size="13" lengthAdjust="spacing" textLength="212" x="1566.25" y="666.7856">addToSprintBacklog(userStoryID)</text><polygon fill="#181818" points="2457,696.9844,2467,700.9844,2457,704.9844,2461,700.9844" style="stroke:#181818;stroke-width:1.0;"/><line style="stroke:#181818;stroke-width:1.0;" x1="2255" x2="2463" y1="700.9844" y2="700.9844"/><text fill="#000000" font-family="sans-serif" font-size="13" font-weight="bold" lengthAdjust="spacing" textLength="18" x="2264.5" y="695.9185">13</text><text fill="#000000" font-family="sans-serif" font-size="13" lengthAdjust="spacing" textLength="173" x="2286.5" y="695.9185">addUserStory(userStoryID)</text><polygon fill="#181818" points="2564,726.1172,2574,730.1172,2564,734.1172,2568,730.1172" style="stroke:#181818;stroke-width:1.0;"/><line style="stroke:#181818;stroke-width:1.0;" x1="2479" x2="2570" y1="730.1172" y2="730.1172"/><text fill="#000000" font-family="sans-serif" font-size="13" font-weight="bold" lengthAdjust="spacing" textLength="18" x="2491" y="725.0513">14</text><text fill="#000000" font-family="sans-serif" font-size="13" lengthAdjust="spacing" textLength="51" x="2513" y="725.0513">create()</text><rect fill="#FFFFFF" height="46.5938" rx="2.5" ry="2.5" style="stroke:#181818;stroke-width:0.5;" width="147" x="2576" y="708.9844"/><text fill="#000000" font-family="sans-serif" font-size="14" lengthAdjust="spacing" textLength="126" x="2586.5" y="728.9795">userStoryCodeList</text><text fill="#000000" font-family="sans-serif" font-size="14" lengthAdjust="spacing" textLength="133" x="2583" y="745.2764">:List&lt;UserStoryID&gt;</text><polygon fill="#181818" points="2637.5,783.7109,2647.5,787.7109,2637.5,791.7109,2641.5,787.7109" style="stroke:#181818;stroke-width:1.0;"/><line style="stroke:#181818;stroke-width:1.0;" x1="2479" x2="2643.5" y1="787.7109" y2="787.7109"/><text fill="#000000" font-family="sans-serif" font-size="13" font-weight="bold" lengthAdjust="spacing" textLength="18" x="2498.75" y="782.645">15</text><text fill="#000000" font-family="sans-serif" font-size="13" lengthAdjust="spacing" textLength="109" x="2520.75" y="782.645">add(userStoryID)</text><polygon fill="#181818" points="2266,812.8438,2256,816.8438,2266,820.8438,2262,816.8438" style="stroke:#181818;stroke-width:1.0;"/><line style="stroke:#181818;stroke-width:1.0;stroke-dasharray:2.0,2.0;" x1="2260" x2="2473" y1="816.8438" y2="816.8438"/><text fill="#000000" font-family="sans-serif" font-size="13" font-weight="bold" lengthAdjust="spacing" textLength="18" x="2323.5" y="811.7778">16</text><text fill="#000000" font-family="sans-serif" font-size="13" lengthAdjust="spacing" textLength="60" x="2345.5" y="811.7778">true/false</text><polygon fill="#181818" points="1088.5,841.9766,1078.5,845.9766,1088.5,849.9766,1084.5,845.9766" style="stroke:#181818;stroke-width:1.0;"/><line style="stroke:#181818;stroke-width:1.0;stroke-dasharray:2.0,2.0;" x1="1082.5" x2="2249" y1="845.9766" y2="845.9766"/><text fill="#000000" font-family="sans-serif" font-size="13" font-weight="bold" lengthAdjust="spacing" textLength="18" x="1622.75" y="840.9106">17</text><text fill="#000000" font-family="sans-serif" font-size="13" lengthAdjust="spacing" textLength="60" x="1644.75" y="840.9106">true/false</text><polygon fill="#181818" points="2086,871.1094,2096,875.1094,2086,879.1094,2090,875.1094" style="stroke:#181818;stroke-width:1.0;"/><line style="stroke:#181818;stroke-width:1.0;" x1="1077.5" x2="2092" y1="875.1094" y2="875.1094"/><text fill="#000000" font-family="sans-serif" font-size="13" font-weight="bold" lengthAdjust="spacing" textLength="18" x="1538.75" y="870.0435">18</text><text fill="#000000" font-family="sans-serif" font-size="13" lengthAdjust="spacing" textLength="76" x="1560.75" y="870.0435">save(sprint)</text><polygon fill="#181818" points="2824.5,900.2422,2834.5,904.2422,2824.5,908.2422,2828.5,904.2422" style="stroke:#181818;stroke-width:1.0;"/><line style="stroke:#181818;stroke-width:1.0;" x1="2108" x2="2830.5" y1="904.2422" y2="904.2422"/><text fill="#000000" font-family="sans-serif" font-size="13" font-weight="bold" lengthAdjust="spacing" textLength="18" x="2416.25" y="899.1763">19</text><text fill="#000000" font-family="sans-serif" font-size="13" lengthAdjust="spacing" textLength="90" x="2438.25" y="899.1763">toData(sprint)</text><polygon fill="#181818" points="2119,929.375,2109,933.375,2119,937.375,2115,933.375" style="stroke:#181818;stroke-width:1.0;"/><line style="stroke:#181818;stroke-width:1.0;stroke-dasharray:2.0,2.0;" x1="2113" x2="2840.5" y1="933.375" y2="933.375"/><text fill="#000000" font-family="sans-serif" font-size="13" font-weight="bold" lengthAdjust="spacing" textLength="18" x="2435.75" y="928.3091">20</text><text fill="#000000" font-family="sans-serif" font-size="13" lengthAdjust="spacing" textLength="56" x="2457.75" y="928.3091">sprintJPA</text><polygon fill="#181818" points="3020,958.5078,3030,962.5078,3020,966.5078,3024,962.5078" style="stroke:#181818;stroke-width:1.0;"/><line style="stroke:#181818;stroke-width:1.0;" x1="2108" x2="3026" y1="962.5078" y2="962.5078"/><text fill="#000000" font-family="sans-serif" font-size="13" font-weight="bold" lengthAdjust="spacing" textLength="18" x="2511" y="957.4419">21</text><text fill="#000000" font-family="sans-serif" font-size="13" lengthAdjust="spacing" textLength="96" x="2533" y="957.4419">save(sprintJPA)</text><polygon fill="#181818" points="2119,987.6406,2109,991.6406,2119,995.6406,2115,991.6406" style="stroke:#181818;stroke-width:1.0;"/><line style="stroke:#181818;stroke-width:1.0;stroke-dasharray:2.0,2.0;" x1="2113" x2="3036" y1="991.6406" y2="991.6406"/><text fill="#000000" font-family="sans-serif" font-size="13" font-weight="bold" lengthAdjust="spacing" textLength="18" x="2513.5" y="986.5747">22</text><text fill="#000000" font-family="sans-serif" font-size="13" lengthAdjust="spacing" textLength="96" x="2535.5" y="986.5747">savedSprintJPA</text><polygon fill="#181818" points="2824.5,1016.7734,2834.5,1020.7734,2824.5,1024.7734,2828.5,1020.7734" style="stroke:#181818;stroke-width:1.0;"/><line style="stroke:#181818;stroke-width:1.0;" x1="2108" x2="2830.5" y1="1020.7734" y2="1020.7734"/><text fill="#000000" font-family="sans-serif" font-size="13" font-weight="bold" lengthAdjust="spacing" textLength="18" x="2376.75" y="1015.7075">23</text><text fill="#000000" font-family="sans-serif" font-size="13" lengthAdjust="spacing" textLength="169" x="2398.75" y="1015.7075">toDomain(savedSprintJPA)</text><polygon fill="#181818" points="2119,1045.9063,2109,1049.9063,2119,1053.9063,2115,1049.9063" style="stroke:#181818;stroke-width:1.0;"/><line style="stroke:#181818;stroke-width:1.0;stroke-dasharray:2.0,2.0;" x1="2113" x2="2840.5" y1="1049.9063" y2="1049.9063"/><text fill="#000000" font-family="sans-serif" font-size="13" font-weight="bold" lengthAdjust="spacing" textLength="18" x="2418.25" y="1044.8403">24</text><text fill="#000000" font-family="sans-serif" font-size="13" lengthAdjust="spacing" textLength="91" x="2440.25" y="1044.8403">updatedSprint</text><polygon fill="#181818" points="1088.5,1075.0391,1078.5,1079.0391,1088.5,1083.0391,1084.5,1079.0391" style="stroke:#181818;stroke-width:1.0;"/><line style="stroke:#181818;stroke-width:1.0;stroke-dasharray:2.0,2.0;" x1="1082.5" x2="2102" y1="1079.0391" y2="1079.0391"/><text fill="#000000" font-family="sans-serif" font-size="13" font-weight="bold" lengthAdjust="spacing" textLength="18" x="1533.75" y="1073.9731">25</text><text fill="#000000" font-family="sans-serif" font-size="13" lengthAdjust="spacing" textLength="91" x="1555.75" y="1073.9731">updatedSprint</text><polygon fill="#181818" points="3197,1104.1719,3207,1108.1719,3197,1112.1719,3201,1108.1719" style="stroke:#181818;stroke-width:1.0;"/><line style="stroke:#181818;stroke-width:1.0;" x1="1077.5" x2="3203" y1="1108.1719" y2="1108.1719"/><text fill="#000000" font-family="sans-serif" font-size="13" font-weight="bold" lengthAdjust="spacing" textLength="18" x="2039.25" y="1103.106">26</text><text fill="#000000" font-family="sans-serif" font-size="13" lengthAdjust="spacing" textLength="186" x="2061.25" y="1103.106">generateDTO(updatedSprint)</text><polygon fill="#181818" points="1088.5,1133.3047,1078.5,1137.3047,1088.5,1141.3047,1084.5,1137.3047" style="stroke:#181818;stroke-width:1.0;"/><line style="stroke:#181818;stroke-width:1.0;stroke-dasharray:2.0,2.0;" x1="1082.5" x2="3213" y1="1137.3047" y2="1137.3047"/><text fill="#000000" font-family="sans-serif" font-size="13" font-weight="bold" lengthAdjust="spacing" textLength="18" x="2081.25" y="1132.2388">27</text><text fill="#000000" font-family="sans-serif" font-size="13" lengthAdjust="spacing" textLength="107" x="2103.25" y="1132.2388">outputSprintDTO</text><polygon fill="#181818" points="758.5,1162.4375,748.5,1166.4375,758.5,1170.4375,754.5,1166.4375" style="stroke:#181818;stroke-width:1.0;"/><line style="stroke:#181818;stroke-width:1.0;stroke-dasharray:2.0,2.0;" x1="752.5" x2="1071.5" y1="1166.4375" y2="1166.4375"/><text fill="#000000" font-family="sans-serif" font-size="13" font-weight="bold" lengthAdjust="spacing" textLength="18" x="845.5" y="1161.3716">28</text><text fill="#000000" font-family="sans-serif" font-size="13" lengthAdjust="spacing" textLength="107" x="867.5" y="1161.3716">outputSprintDTO</text><polygon fill="#181818" points="428.5,1191.5703,418.5,1195.5703,428.5,1199.5703,424.5,1195.5703" style="stroke:#181818;stroke-width:1.0;"/><line style="stroke:#181818;stroke-width:1.0;stroke-dasharray:2.0,2.0;" x1="422.5" x2="741.5" y1="1195.5703" y2="1195.5703"/><text fill="#000000" font-family="sans-serif" font-size="13" font-weight="bold" lengthAdjust="spacing" textLength="18" x="515.5" y="1190.5044">29</text><text fill="#000000" font-family="sans-serif" font-size="13" lengthAdjust="spacing" textLength="107" x="537.5" y="1190.5044">outputSprintDTO</text><polygon fill="#181818" points="71.5,1220.7031,61.5,1224.7031,71.5,1228.7031,67.5,1224.7031" style="stroke:#181818;stroke-width:1.0;"/><line style="stroke:#181818;stroke-width:1.0;stroke-dasharray:2.0,2.0;" x1="65.5" x2="411.5" y1="1224.7031" y2="1224.7031"/><text fill="#000000" font-family="sans-serif" font-size="13" font-weight="bold" lengthAdjust="spacing" textLength="18" x="124.5" y="1219.6372">30</text><text fill="#000000" font-family="sans-serif" font-size="13" lengthAdjust="spacing" textLength="202" x="146.5" y="1219.6372">returns successful/unsuccessful</text><!--SRC=[hLR9Rjim4BthAuYSOiHPq6DW6F3MHaKI1t7SKu22aSQA6fbKkIJrttUuMAHa1wdRNYnoEEyDvt5cOFbIifeAkYOIVcfW6To0bBI0KLKMZ6J058X4DbuqKroCQVPI2AvPFk4L5-JjkLGGEU6lAhEofanzvBgDUWyh46PnCE0AQ0xYJs5VqAVUxvnGhJZJwoTCE56bge0i5nUVBiWf6Kb2oGCWpmsOypv9oHjcHnGdDC_nK4iGHA8s6r8oefw1r8BdEbFa2ODLl32knYnhKRB6sYUvndqH7zKLPSpOCanmpTa6RsPK9qUNqHME29NsIj_TFeb4Hy-5vHgxAClKUY_JjjDWCE5C2LvL88R3HzO6XJCB3jikoGB4Qvb1nE0j5kVNNT0tMccOF_s0J1dWO33bQrgoT6fsHio5qJAT8kSox5mQONyGgvFNKYxyqjtGRxfagIdz5NMP3GRtK7DPchWsqpl1JPXWjLoHzJ2w9gaEOSj-6ANBgyCNZ5so6SEQtpYcKL48AAW2Si-v2k8rh17N-ppjUeeWtj96Dey-uJbSbz84Cvz1zDv3IsAiUylTlVQKAZgI4hjYMxlDxjy4_7etidJutHNmSgvLhPN3jCFxTCCjagXloUaG6_FaX5mIOMQKL78xLJwSAOzi_rH9bgcX3IrhwP6oaVA1jrxYaHtNhdAD-7rFvzOCtXhOz67UImAj2UBx-xz6o0IOseiRtOUnQWKpndI-RV8EuLchj1hwfkyZxgtj7U9mwrwCYhhUwW2_i4BbU9FcCRoN251Qu9i93UShMadOczOEJKWu7x6Wy49HfUKjLtkDA7WqHll47PnzJc_JnTKi62QZsydi-des_U1weHditLOboySRBvUvbf_yblIwV06ClnsuVH8VditlPhTHEEUr6sfRKPr2YhF2Ht1rtu2yqqurjb6-0EmSQU4CaR66v- -zwu3qRTPT-GuHLD9Ny8fjOvepuzaC3kkek1bmZMjBHPnC7QoVLTqGQ0vGDFldsyNlnBOZzhYDQQXqdQDe_c2_CLAWEnTjY08O2FJ7lZrk8PiWF1gqwFLtPlUHHEeimp-yArsTQnOsoMy0]--></g></svg>