<?xml version="1.0" encoding="us-ascii" standalone="no"?><svg xmlns="http://www.w3.org/2000/svg" xmlns:xlink="http://www.w3.org/1999/xlink" contentStyleType="text/css" height="387px" preserveAspectRatio="none" style="width:392px;height:387px;background:#FFFFFF;" version="1.1" viewBox="0 0 392 387" width="392px" zoomAndPan="magnify"><defs/><g><text fill="#000000" font-family="sans-serif" font-size="14" font-weight="bold" lengthAdjust="spacing" textLength="364" x="10" y="22.9951">US024 - As an Admin, I want to list all projects</text><!--cluster src--><g id="cluster_src"><path d="M49.5,43.2969 L75.5,43.2969 A3.75,3.75 0 0 1 78,45.7969 L85,65.5938 L347.5,65.5938 A2.5,2.5 0 0 1 350,68.0938 L350,377.7969 A2.5,2.5 0 0 1 347.5,380.2969 L49.5,380.2969 A2.5,2.5 0 0 1 47,377.7969 L47,45.7969 A2.5,2.5 0 0 1 49.5,43.2969 " fill="none" style="stroke:#000000;stroke-width:1.5;"/><line style="stroke:#000000;stroke-width:1.5;" x1="47" x2="85" y1="65.5938" y2="65.5938"/><text fill="#000000" font-family="sans-serif" font-size="14" font-weight="bold" lengthAdjust="spacing" textLength="25" x="51" y="58.292">src</text></g><!--cluster components--><g id="cluster_components"><path d="M81.5,155.2969 L180.5,155.2969 A3.75,3.75 0 0 1 183,157.7969 L190,177.5938 L243.5,177.5938 A2.5,2.5 0 0 1 246,180.0938 L246,272.7969 A2.5,2.5 0 0 1 243.5,275.2969 L81.5,275.2969 A2.5,2.5 0 0 1 79,272.7969 L79,157.7969 A2.5,2.5 0 0 1 81.5,155.2969 " fill="none" style="stroke:#000000;stroke-width:1.5;"/><line style="stroke:#000000;stroke-width:1.5;" x1="79" x2="190" y1="177.5938" y2="177.5938"/><text fill="#000000" font-family="sans-serif" font-size="14" font-weight="bold" lengthAdjust="spacing" textLength="98" x="83" y="170.292">components</text></g><path d="M125,198.2969 L205,198.2969 A3.75,3.75 0 0 1 207.5,200.7969 L214.5,220.5938 L219,220.5938 A2.5,2.5 0 0 1 221.5,223.0938 L221.5,248.3906 A2.5,2.5 0 0 1 219,250.8906 L125,250.8906 A2.5,2.5 0 0 1 122.5,248.3906 L122.5,200.7969 A2.5,2.5 0 0 1 125,198.2969 " fill="#F1F1F1" style="stroke:#181818;stroke-width:0.5;"/><line style="stroke:#181818;stroke-width:0.5;" x1="122.5" x2="214.5" y1="220.5938" y2="220.5938"/><text fill="#000000" font-family="sans-serif" font-size="14" lengthAdjust="spacing" textLength="79" x="126.5" y="213.292">projectsList</text><path d="M273,198.2969 L317,198.2969 A3.75,3.75 0 0 1 319.5,200.7969 L326.5,220.5938 L331,220.5938 A2.5,2.5 0 0 1 333.5,223.0938 L333.5,248.3906 A2.5,2.5 0 0 1 331,250.8906 L273,250.8906 A2.5,2.5 0 0 1 270.5,248.3906 L270.5,200.7969 A2.5,2.5 0 0 1 273,198.2969 " fill="#F1F1F1" style="stroke:#181818;stroke-width:0.5;"/><line style="stroke:#181818;stroke-width:0.5;" x1="270.5" x2="326.5" y1="220.5938" y2="220.5938"/><text fill="#000000" font-family="sans-serif" font-size="14" lengthAdjust="spacing" textLength="43" x="274.5" y="213.292">pages</text><path d="M201.5,311.2969 L254.5,311.2969 A3.75,3.75 0 0 1 257,313.7969 L264,333.5938 L268.5,333.5938 A2.5,2.5 0 0 1 271,336.0938 L271,361.3906 A2.5,2.5 0 0 1 268.5,363.8906 L201.5,363.8906 A2.5,2.5 0 0 1 199,361.3906 L199,313.7969 A2.5,2.5 0 0 1 201.5,311.2969 " fill="#F1F1F1" style="stroke:#181818;stroke-width:0.5;"/><line style="stroke:#181818;stroke-width:0.5;" x1="199" x2="264" y1="333.5938" y2="333.5938"/><text fill="#000000" font-family="sans-serif" font-size="14" lengthAdjust="spacing" textLength="52" x="203" y="326.292">context</text><path d="M66,78.2969 L112,78.2969 A3.75,3.75 0 0 1 114.5,80.7969 L121.5,100.5938 L126,100.5938 A2.5,2.5 0 0 1 128.5,103.0938 L128.5,128.3906 A2.5,2.5 0 0 1 126,130.8906 L66,130.8906 A2.5,2.5 0 0 1 63.5,128.3906 L63.5,80.7969 A2.5,2.5 0 0 1 66,78.2969 " fill="#F1F1F1" style="stroke:#181818;stroke-width:0.5;"/><line style="stroke:#181818;stroke-width:0.5;" x1="63.5" x2="121.5" y1="100.5938" y2="100.5938"/><text fill="#000000" font-family="sans-serif" font-size="14" lengthAdjust="spacing" textLength="45" x="67.5" y="93.292">routes</text><!--link routes to components--><g id="link_routes_components"><path codeLine="23" d="M93.64,136.6769 C93.3188,140.9044 92.9781,145.383 92.6275,149.9902 C92.5398,151.142 92.4516,152.3018 92.3628,153.4677 C92.3184,154.0507 92.2739,154.6352 92.2293,155.221 " fill="none" id="routes-components" style="stroke:#181818;stroke-width:1.0;stroke-dasharray:7.0,7.0;"/><polygon fill="#181818" points="94.05,131.3969,89.3924,140.0748,93.6785,136.3831,97.3703,140.6692,94.05,131.3969" style="stroke:#181818;stroke-width:1.0;"/><polygon fill="#181818" points="92.2293,155.221,96.901,146.5507,92.6089,150.2355,88.9241,145.9433,92.2293,155.221" style="stroke:#181818;stroke-width:1.0;"/></g><!--reverse link projectsList to pages--><g id="link_projectsList_pages"><path codeLine="24" d="M226.78,224.7969 C239.61,224.7969 258.67,224.7969 258.67,224.7969 C258.67,224.7969 263.56,224.7969 270.05,224.7969 " fill="none" id="projectsList-backto-pages" style="stroke:#181818;stroke-width:1.0;stroke-dasharray:7.0,7.0;"/><polygon fill="#181818" points="221.73,224.7969,230.73,228.7969,226.73,224.7969,230.73,220.7969,221.73,224.7969" style="stroke:#181818;stroke-width:1.0;"/></g><!--link projectsList to context--><g id="link_projectsList_context"><path codeLine="25" d="M186.61,251.5369 C195.91,267.9369 208.01,289.2369 217.78,306.4569 " fill="none" id="projectsList-to-context" style="stroke:#181818;stroke-width:1.0;stroke-dasharray:7.0,7.0;"/><polygon fill="#181818" points="220.47,311.1869,219.4951,301.3864,217.997,306.8413,212.5421,305.3432,220.47,311.1869" style="stroke:#181818;stroke-width:1.0;"/></g><!--link pages to context--><g id="link_pages_context"><path codeLine="26" d="M286.46,251.5369 C276.48,268.0769 263.49,289.6069 253.05,306.8969 " fill="none" id="pages-to-context" style="stroke:#181818;stroke-width:1.0;stroke-dasharray:7.0,7.0;"/><polygon fill="#181818" points="250.46,311.1869,258.5343,305.5472,253.043,306.9057,251.6844,301.4144,250.46,311.1869" style="stroke:#181818;stroke-width:1.0;"/></g><!--link pages to components--><g id="link_pages_components"><path codeLine="27" d="M282.1,198.2169 C263.31,173.1169 238,139.2969 238,139.2969 C238,139.2969 220.5,135.2969 220.5,135.2969 C220.5,135.2969 123.5,135.2969 123.5,135.2969 C123.5,135.2969 106,139.2969 106,139.2969 C106,139.2969 104.9213,144.1513 103.2778,151.5466 C103.0724,152.471 102.8581,153.4351 102.6361,154.4344 C102.5805,154.6842 102.5245,154.9362 102.4681,155.1904 " fill="none" id="pages-to-components" style="stroke:#181818;stroke-width:1.0;stroke-dasharray:7.0,7.0;"/><polygon fill="#181818" points="102.4681,155.1904,108.3252,147.2725,103.5527,150.3095,100.5157,145.537,102.4681,155.1904" style="stroke:#181818;stroke-width:1.0;"/></g><!--SRC=[TOx12i8m44Jl-nM35o_QYdWI4JmAtiGF237KQ9eipOgA-E-cBQrLC92GVPEPoVWamd6Pv-oKbslfCXtAF6qEtdYP7gqgAbLIl5ZFAjtWh3VoO0CExb4FH6B56Hpsi_a2KsmYbCVcM5e_mHQtb0i9oHS5oZbm5Sv6IoHYfI-gC1Z5Ie_m_CnzVwmnqkgbphrBSPtuejSWZDFP-8PG1o_cBh-u2bVf7YTExOnLbgtn-GGDIsiHJSStRYrD2pNoNzB7lW40]--></g></svg>