<?xml version="1.0" encoding="us-ascii" standalone="no"?><svg xmlns="http://www.w3.org/2000/svg" xmlns:xlink="http://www.w3.org/1999/xlink" contentStyleType="text/css" height="2548px" preserveAspectRatio="none" style="width:540px;height:2548px;background:#FFFFFF;" version="1.1" viewBox="0 0 540 2548" width="540px" zoomAndPan="magnify"><defs/><g><text fill="#000000" font-family="sans-serif" font-size="14" font-weight="bold" lengthAdjust="spacing" textLength="143" x="191.5" y="22.9951">Use Case Diagram</text><!--cluster System--><g id="cluster_System"><rect fill="none" height="2498" rx="2.5" ry="2.5" style="stroke:#181818;stroke-width:1.0;" width="372" x="162" y="44.2969"/><text fill="#000000" font-family="sans-serif" font-size="14" font-weight="bold" lengthAdjust="spacing" textLength="58" x="319" y="59.292">System</text></g><g id="elem_UC999"><ellipse cx="348.0673" cy="1937.5103" fill="#FFFFFF" rx="99.0673" ry="22.2135" style="stroke:#181818;stroke-width:0.5;"/><text fill="#000000" font-family="sans-serif" font-size="14" lengthAdjust="spacing" textLength="162" x="267.0673" y="1940.357">change profile of a user</text></g><g id="elem_UC998"><ellipse cx="348.1728" cy="205.1314" fill="#FFFFFF" rx="89.6728" ry="20.3346" style="stroke:#181818;stroke-width:0.5;"/><text fill="#000000" font-family="sans-serif" font-size="14" lengthAdjust="spacing" textLength="141" x="277.6728" y="207.9781">create a new project</text></g><g id="elem_UC997"><ellipse cx="348.2231" cy="931.3454" fill="#FFFFFF" rx="37.7231" ry="14.5485" style="stroke:#181818;stroke-width:0.5;"/><text fill="#000000" font-family="sans-serif" font-size="14" lengthAdjust="spacing" textLength="37" x="328.1116" y="934.7281">log in</text></g><g id="elem_UC996"><ellipse cx="347.8836" cy="995.4447" fill="#FFFFFF" rx="45.8836" ry="14.6478" style="stroke:#181818;stroke-width:0.5;"/><text fill="#000000" font-family="sans-serif" font-size="14" lengthAdjust="spacing" textLength="48" x="320.8836" y="999.1923">log out</text></g><g id="elem_UC995"><ellipse cx="348.24" cy="1631.3449" fill="#FFFFFF" rx="68.24" ry="16.048" style="stroke:#181818;stroke-width:0.5;"/><text fill="#000000" font-family="sans-serif" font-size="14" lengthAdjust="spacing" textLength="88" x="301.24" y="1635.0924">register user</text></g><g id="elem_UC994"><ellipse cx="347.8844" cy="1062.2738" fill="#FFFFFF" rx="75.3844" ry="17.4769" style="stroke:#181818;stroke-width:0.5;"/><text fill="#000000" font-family="sans-serif" font-size="14" lengthAdjust="spacing" textLength="107" x="291.3844" y="1066.0213">reset password</text></g><g id="elem_UC993"><ellipse cx="348.0998" cy="1789.5168" fill="#FFFFFF" rx="86.5998" ry="19.72" style="stroke:#181818;stroke-width:0.5;"/><text fill="#000000" font-family="sans-serif" font-size="14" lengthAdjust="spacing" textLength="134" x="281.0998" y="1792.3635">list all system users</text></g><g id="elem_UC992"><ellipse cx="347.8536" cy="1862.1676" fill="#FFFFFF" rx="77.3536" ry="17.8707" style="stroke:#181818;stroke-width:0.5;"/><text fill="#000000" font-family="sans-serif" font-size="14" lengthAdjust="spacing" textLength="112" x="289.1333" y="1865.8422">search for users</text></g><g id="elem_UC991"><ellipse cx="348.0447" cy="2031.2058" fill="#FFFFFF" rx="170.0447" ry="36.4089" style="stroke:#181818;stroke-width:0.5;"/><text fill="#000000" font-family="sans-serif" font-size="14" lengthAdjust="spacing" textLength="312" x="192.0447" y="2034.0525">associate user accounts with existing profiles</text></g><g id="elem_UC990"><ellipse cx="347.8591" cy="2124.4687" fill="#FFFFFF" rx="96.3591" ry="21.6718" style="stroke:#181818;stroke-width:0.5;"/><text fill="#000000" font-family="sans-serif" font-size="14" lengthAdjust="spacing" textLength="156" x="269.8591" y="2127.3154">activate user accounts</text></g><g id="elem_UC989"><ellipse cx="348.0638" cy="1558.1096" fill="#FFFFFF" rx="94.5638" ry="21.3128" style="stroke:#181818;stroke-width:0.5;"/><text fill="#000000" font-family="sans-serif" font-size="14" lengthAdjust="spacing" textLength="152" x="272.0638" y="1560.9563">disable user accounts</text></g><g id="elem_UC988"><ellipse cx="347.9942" cy="1708.1957" fill="#FFFFFF" rx="117.4942" ry="25.8988" style="stroke:#181818;stroke-width:0.5;"/><text fill="#000000" font-family="sans-serif" font-size="14" lengthAdjust="spacing" textLength="202" x="246.9942" y="1711.0424">edit user account information</text></g><g id="elem_UC987"><ellipse cx="348.1066" cy="278.1182" fill="#FFFFFF" rx="74.6066" ry="17.3213" style="stroke:#181818;stroke-width:0.5;"/><text fill="#000000" font-family="sans-serif" font-size="14" lengthAdjust="spacing" textLength="105" x="292.6066" y="281.8658">register project</text></g><g id="elem_UC986"><ellipse cx="348.0673" cy="515.5103" fill="#FFFFFF" rx="99.0673" ry="22.2135" style="stroke:#181818;stroke-width:0.5;"/><text fill="#000000" font-family="sans-serif" font-size="14" lengthAdjust="spacing" textLength="162" x="267.0673" y="518.357">create activity in project</text></g><g id="elem_UC985"><ellipse cx="348.211" cy="594.2391" fill="#FFFFFF" rx="97.711" ry="21.9422" style="stroke:#181818;stroke-width:0.5;"/><text fill="#000000" font-family="sans-serif" font-size="14" lengthAdjust="spacing" textLength="159" x="268.711" y="597.0858">edit project information</text></g><g id="elem_UC984"><ellipse cx="347.9263" cy="1414.0821" fill="#FFFFFF" rx="84.4263" ry="19.2853" style="stroke:#181818;stroke-width:0.5;"/><text fill="#000000" font-family="sans-serif" font-size="14" lengthAdjust="spacing" textLength="129" x="283.305" y="1416.9708">search for projects</text></g><g id="elem_UC983"><ellipse cx="348.1963" cy="2199.2361" fill="#FFFFFF" rx="80.1963" ry="18.4393" style="stroke:#181818;stroke-width:0.5;"/><text fill="#000000" font-family="sans-serif" font-size="14" lengthAdjust="spacing" textLength="119" x="287.1039" y="2202.5948">create User Story</text></g><g id="elem_UC982"><ellipse cx="347.8872" cy="2274.0743" fill="#FFFFFF" rx="91.8872" ry="20.7774" style="stroke:#181818;stroke-width:0.5;"/><text fill="#000000" font-family="sans-serif" font-size="14" lengthAdjust="spacing" textLength="146" x="274.8872" y="2276.921">define Sprint Backlog</text></g><g id="elem_UC981"><ellipse cx="347.8004" cy="2355.357" fill="#FFFFFF" rx="113.3004" ry="25.0601" style="stroke:#181818;stroke-width:0.5;"/><text fill="#000000" font-family="sans-serif" font-size="14" lengthAdjust="spacing" textLength="193" x="251.3004" y="2358.2036">define effort for each activity</text></g><g id="elem_UC980"><ellipse cx="347.8963" cy="2431.0761" fill="#FFFFFF" rx="64.3963" ry="15.2793" style="stroke:#181818;stroke-width:0.5;"/><text fill="#000000" font-family="sans-serif" font-size="14" lengthAdjust="spacing" textLength="77" x="306.3963" y="2434.8237">create task</text></g><g id="elem_UC979"><ellipse cx="347.8093" cy="2504.0587" fill="#FFFFFF" rx="96.8093" ry="21.7619" style="stroke:#181818;stroke-width:0.5;"/><text fill="#000000" font-family="sans-serif" font-size="14" lengthAdjust="spacing" textLength="157" x="269.3093" y="2506.9054">register work on a task</text></g><g id="elem_UC978"><ellipse cx="347.9333" cy="1485.2835" fill="#FFFFFF" rx="70.4333" ry="16.4867" style="stroke:#181818;stroke-width:0.5;"/><text fill="#000000" font-family="sans-serif" font-size="14" lengthAdjust="spacing" textLength="94" x="297.9333" y="1489.0311">update a task</text></g><g id="elem_UC977"><ellipse cx="348.1701" cy="675.4309" fill="#FFFFFF" rx="108.6701" ry="24.134" style="stroke:#181818;stroke-width:0.5;"/><text fill="#000000" font-family="sans-serif" font-size="14" lengthAdjust="spacing" textLength="183" x="256.6701" y="678.2776">log a time record on a task</text></g><g id="elem_UC976"><ellipse cx="347.9942" cy="357.1957" fill="#FFFFFF" rx="117.4942" ry="25.8988" style="stroke:#181818;stroke-width:0.5;"/><text fill="#000000" font-family="sans-serif" font-size="14" lengthAdjust="spacing" textLength="202" x="246.9942" y="360.0424">associate resource to project</text></g><g id="elem_UC975"><ellipse cx="347.7932" cy="438.2555" fill="#FFFFFF" rx="85.2932" ry="19.4586" style="stroke:#181818;stroke-width:0.5;"/><text fill="#000000" font-family="sans-serif" font-size="14" lengthAdjust="spacing" textLength="131" x="282.2932" y="441.1022">assign task to user</text></g><g id="elem_UC974"><ellipse cx="347.8277" cy="1145.1624" fill="#FFFFFF" rx="137.3277" ry="29.8655" style="stroke:#181818;stroke-width:0.5;"/><text fill="#000000" font-family="sans-serif" font-size="14" lengthAdjust="spacing" textLength="244" x="225.8277" y="1148.0091">view the projects' ongoing activities</text></g><g id="elem_UC973"><ellipse cx="348.1224" cy="1241.5214" fill="#FFFFFF" rx="141.6224" ry="30.7245" style="stroke:#181818;stroke-width:0.5;"/><text fill="#000000" font-family="sans-serif" font-size="14" lengthAdjust="spacing" textLength="253" x="221.6224" y="1244.368">change between two viewing modes</text></g><g id="elem_UC972"><ellipse cx="347.834" cy="1333.1637" fill="#FFFFFF" rx="119.834" ry="26.3668" style="stroke:#181818;stroke-width:0.5;"/><text fill="#000000" font-family="sans-serif" font-size="14" lengthAdjust="spacing" textLength="207" x="244.334" y="1336.0103">generate an allocations report</text></g><g id="elem_UC971"><ellipse cx="347.8872" cy="755.0743" fill="#FFFFFF" rx="91.8872" ry="20.7774" style="stroke:#181818;stroke-width:0.5;"/><text fill="#000000" font-family="sans-serif" font-size="14" lengthAdjust="spacing" textLength="146" x="274.8872" y="757.921">generate a KPI report</text></g><g id="elem_UC970"><ellipse cx="347.7652" cy="846.3499" fill="#FFFFFF" rx="163.2652" ry="35.053" style="stroke:#181818;stroke-width:0.5;"/><text fill="#000000" font-family="sans-serif" font-size="14" lengthAdjust="spacing" textLength="298" x="198.7652" y="849.1966">create a scrum ceremony minute in system</text></g><g id="elem_UC969"><ellipse cx="347.7817" cy="114.2532" fill="#FFFFFF" rx="162.7817" ry="34.9563" style="stroke:#181818;stroke-width:0.5;"/><text fill="#000000" font-family="sans-serif" font-size="14" lengthAdjust="spacing" textLength="297" x="199.2817" y="117.0999">import projects created in a legacy platform</text></g><!--entity M--><g id="elem_M"><ellipse cx="62" cy="248.7969" fill="#FFFFFF" rx="8" ry="8" style="stroke:#181818;stroke-width:0.5;"/><path d="M62,256.7969 L62,283.7969 M49,264.7969 L75,264.7969 M62,283.7969 L49,298.7969 M62,283.7969 L75,298.7969 " fill="none" style="stroke:#181818;stroke-width:0.5;"/><text fill="#000000" font-family="sans-serif" font-size="14" lengthAdjust="spacing" textLength="60" x="32" y="313.292">Manager</text></g><!--entity PM--><g id="elem_PM"><ellipse cx="62" cy="525.7969" fill="#FFFFFF" rx="8" ry="8" style="stroke:#181818;stroke-width:0.5;"/><path d="M62,533.7969 L62,560.7969 M49,541.7969 L75,541.7969 M62,560.7969 L49,575.7969 M62,560.7969 L75,575.7969 " fill="none" style="stroke:#181818;stroke-width:0.5;"/><text fill="#000000" font-family="sans-serif" font-size="14" lengthAdjust="spacing" textLength="112" x="6" y="590.292">Project Manager</text></g><!--entity U--><g id="elem_U"><ellipse cx="62" cy="1032.7969" fill="#FFFFFF" rx="8" ry="8" style="stroke:#181818;stroke-width:0.5;"/><path d="M62,1040.7969 L62,1067.7969 M49,1048.7969 L75,1048.7969 M62,1067.7969 L49,1082.7969 M62,1067.7969 L75,1082.7969 " fill="none" style="stroke:#181818;stroke-width:0.5;"/><text fill="#000000" font-family="sans-serif" font-size="14" lengthAdjust="spacing" textLength="32" x="46" y="1097.292">User</text></g><!--entity A--><g id="elem_A"><ellipse cx="62" cy="1796.7969" fill="#FFFFFF" rx="8" ry="8" style="stroke:#181818;stroke-width:0.5;"/><path d="M62,1804.7969 L62,1831.7969 M49,1812.7969 L75,1812.7969 M62,1831.7969 L49,1846.7969 M62,1831.7969 L75,1846.7969 " fill="none" style="stroke:#181818;stroke-width:0.5;"/><text fill="#000000" font-family="sans-serif" font-size="14" lengthAdjust="spacing" textLength="43" x="40.5" y="1861.292">Admin</text></g><!--entity PO--><g id="elem_PO"><ellipse cx="62" cy="2218.7969" fill="#FFFFFF" rx="8" ry="8" style="stroke:#181818;stroke-width:0.5;"/><path d="M62,2226.7969 L62,2253.7969 M49,2234.7969 L75,2234.7969 M62,2253.7969 L49,2268.7969 M62,2253.7969 L75,2268.7969 " fill="none" style="stroke:#181818;stroke-width:0.5;"/><text fill="#000000" font-family="sans-serif" font-size="14" lengthAdjust="spacing" textLength="103" x="10.5" y="2283.292">Product Owner</text></g><!--entity TM--><g id="elem_TM"><ellipse cx="62" cy="2352.7969" fill="#FFFFFF" rx="8" ry="8" style="stroke:#181818;stroke-width:0.5;"/><path d="M62,2360.7969 L62,2387.7969 M49,2368.7969 L75,2368.7969 M62,2387.7969 L49,2402.7969 M62,2387.7969 L75,2402.7969 " fill="none" style="stroke:#181818;stroke-width:0.5;"/><text fill="#000000" font-family="sans-serif" font-size="14" lengthAdjust="spacing" textLength="100" x="12" y="2417.292">Team Member</text></g><!--link A to UC999--><g id="link_A_UC999"><path d="M83.55,1846.8969 C100.88,1863.0569 127.09,1884.8369 154,1897.2969 C186.61,1912.3869 224.93,1921.8269 258.8,1927.7169 " fill="none" id="A-UC999" style="stroke:#181818;stroke-width:1.0;"/></g><!--link M to UC998--><g id="link_M_UC998"><path d="M92.07,265.6369 C109.72,258.3269 132.86,249.3969 154,243.2969 C192.88,232.0869 237.12,223.1069 273.43,216.7069 " fill="none" id="M-UC998" style="stroke:#181818;stroke-width:1.0;"/></g><!--link U to UC997--><g id="link_U_UC997"><path d="M78.23,1038.0369 C94.16,1014.8669 121.35,980.9569 154,963.2969 C203.44,936.5469 269.62,931.0169 310.23,930.4369 " fill="none" id="U-UC997" style="stroke:#181818;stroke-width:1.0;"/></g><!--link U to UC996--><g id="link_U_UC996"><path d="M78.14,1055.3769 C95.95,1047.5069 126.56,1034.7669 154,1027.2969 C204.8,1013.4669 264.83,1004.6569 304.3,999.8569 " fill="none" id="U-UC996" style="stroke:#181818;stroke-width:1.0;"/></g><!--link A to UC995--><g id="link_A_UC995"><path d="M73.76,1788.2969 C86.51,1750.5869 111.56,1694.2269 154,1664.2969 C190.53,1638.5369 240.46,1630.5369 280.38,1628.8469 " fill="none" id="A-UC995" style="stroke:#181818;stroke-width:1.0;"/></g><!--link U to UC994--><g id="link_U_UC994"><path d="M78.27,1062.2969 C114.22,1062.2969 206.14,1062.2969 272.48,1062.2969 " fill="none" id="U-UC994" style="stroke:#181818;stroke-width:1.0;"/></g><!--link A to UC993--><g id="link_A_UC993"><path d="M83.88,1823.5769 C123.15,1818.4569 209.69,1807.1869 272.84,1798.9569 " fill="none" id="A-UC993" style="stroke:#181818;stroke-width:1.0;"/></g><!--link A to UC992--><g id="link_A_UC992"><path d="M83.88,1828.9469 C124.55,1834.0969 215.96,1845.6869 279.54,1853.7469 " fill="none" id="A-UC992" style="stroke:#181818;stroke-width:1.0;"/></g><!--link A to UC991--><g id="link_A_UC991"><path d="M76.79,1864.5469 C91.02,1898.7169 116.46,1947.6669 154,1976.2969 C172.22,1990.1869 193.8,2000.5769 215.83,2008.3369 " fill="none" id="A-UC991" style="stroke:#181818;stroke-width:1.0;"/></g><!--link A to UC990--><g id="link_A_UC990"><path d="M65.01,1864.4369 C70.18,1921.4669 88.57,2028.3569 154,2085.2969 C180.56,2108.4069 216.99,2119.2369 251.05,2123.9269 " fill="none" id="A-UC990" style="stroke:#181818;stroke-width:1.0;"/></g><!--link A to UC989--><g id="link_A_UC989"><path d="M67.05,1788.2069 C74.63,1736.7269 95.89,1645.8469 154,1597.2969 C181.55,1574.2869 218.96,1563.5869 253.52,1558.9769 " fill="none" id="A-UC989" style="stroke:#181818;stroke-width:1.0;"/></g><!--link A to UC988--><g id="link_A_UC988"><path d="M83.81,1804.6069 C101.08,1787.8669 127.09,1765.4069 154,1752.2969 C182.89,1738.2169 216.42,1728.5569 247.35,1721.9569 " fill="none" id="A-UC988" style="stroke:#181818;stroke-width:1.0;"/></g><!--link M to UC987--><g id="link_M_UC987"><path d="M92.06,278.2969 C134.33,278.2969 214.17,278.2969 273.29,278.2969 " fill="none" id="M-UC987" style="stroke:#181818;stroke-width:1.0;"/></g><!--link PM to UC986--><g id="link_PM_UC986"><path d="M118.09,547.5369 C159.55,541.6969 217.06,533.5969 264.07,526.9769 " fill="none" id="PM-UC986" style="stroke:#181818;stroke-width:1.0;"/></g><!--link PM to UC985--><g id="link_PM_UC985"><path d="M118.09,562.8669 C159.63,568.5669 217.29,576.4869 264.34,582.9469 " fill="none" id="PM-UC985" style="stroke:#181818;stroke-width:1.0;"/></g><!--link U to UC984--><g id="link_U_UC984"><path d="M62.1,1100.3069 C62.73,1166.9269 74.3,1304.5969 154,1377.2969 C183.49,1404.1969 226.34,1414.2369 264.17,1417.2069 " fill="none" id="U-UC984" style="stroke:#181818;stroke-width:1.0;"/></g><!--link PO to UC983--><g id="link_PO_UC983"><path d="M113.77,2239.5369 C161.24,2231.3469 232.29,2219.0869 283.49,2210.2569 " fill="none" id="PO-UC983" style="stroke:#181818;stroke-width:1.0;"/></g><!--link TM to UC982--><g id="link_TM_UC982"><path d="M104.32,2344.0569 C119.06,2332.2469 136.39,2320.2669 154,2312.2969 C187.91,2296.9469 227.93,2287.7769 262.72,2282.3169 " fill="none" id="TM-UC982" style="stroke:#181818;stroke-width:1.0;"/></g><!--link PO to UC982--><g id="link_PO_UC982"><path d="M113.77,2252.9469 C155.02,2256.7169 214.06,2262.1269 262.43,2266.5569 " fill="none" id="PO-UC982" style="stroke:#181818;stroke-width:1.0;"/></g><!--link TM to UC981--><g id="link_TM_UC981"><path d="M112.14,2377.6269 C148.26,2374.1869 198.65,2369.3969 243.5,2365.1369 " fill="none" id="TM-UC981" style="stroke:#181818;stroke-width:1.0;"/></g><!--link TM to UC980--><g id="link_TM_UC980"><path d="M112.14,2390.7769 C163.27,2399.5969 242.98,2413.3469 295.1,2422.3369 " fill="none" id="TM-UC980" style="stroke:#181818;stroke-width:1.0;"/></g><!--link TM to UC979--><g id="link_TM_UC979"><path d="M96.39,2420.3069 C112.32,2436.1869 132.56,2453.4369 154,2464.2969 C186.05,2480.5369 224.28,2490.1769 258.22,2495.9069 " fill="none" id="TM-UC979" style="stroke:#181818;stroke-width:1.0;"/></g><!--link U to UC978--><g id="link_U_UC978"><path d="M66.65,1100.4969 C75.87,1188.7869 103.11,1403.1569 154,1451.2969 C187.49,1482.9769 239.6,1490.6469 281.23,1490.8469 " fill="none" id="U-UC978" style="stroke:#181818;stroke-width:1.0;"/></g><!--link U to UC977--><g id="link_U_UC977"><path d="M67.96,1024.2069 C79.24,943.4269 109.38,758.8369 154,716.2969 C177,694.3769 208.66,682.9569 239.7,677.3069 " fill="none" id="U-UC977" style="stroke:#181818;stroke-width:1.0;"/></g><!--link M to UC976--><g id="link_M_UC976"><path d="M92.14,290.7269 C109.81,297.9569 132.95,306.8869 154,313.2969 C188.03,323.6569 226.09,332.8369 259.36,340.0869 " fill="none" id="M-UC976" style="stroke:#181818;stroke-width:1.0;"/></g><!--link M to UC975--><g id="link_M_UC975"><path d="M81.69,316.5569 C97.21,344.1969 121.92,380.0869 154,400.2969 C186.36,420.6869 227.35,430.5069 263.22,435.1069 " fill="none" id="M-UC975" style="stroke:#181818;stroke-width:1.0;"/></g><!--link U to UC974--><g id="link_U_UC974"><path d="M78.25,1068.8269 C96.16,1076.3469 126.88,1088.7469 154,1097.2969 C185.28,1107.1569 219.93,1116.3169 251.13,1123.9269 " fill="none" id="U-UC974" style="stroke:#181818;stroke-width:1.0;"/></g><!--link U to UC973--><g id="link_U_UC973"><path d="M78.05,1095.9969 C93.08,1125.7669 118.98,1168.1069 154,1192.2969 C175.9,1207.4269 202.09,1217.8869 228.01,1225.1169 " fill="none" id="U-UC973" style="stroke:#181818;stroke-width:1.0;"/></g><!--link U to UC972--><g id="link_U_UC972"><path d="M67.46,1100.7269 C75.47,1151.6769 97.18,1240.7669 154,1289.2969 C176.02,1308.0969 204.45,1319.2969 232.68,1325.8469 " fill="none" id="U-UC972" style="stroke:#181818;stroke-width:1.0;"/></g><!--link U to UC971--><g id="link_U_UC971"><path d="M64.39,1024.1369 C68.7,965.2769 85.96,852.9169 154,793.2969 C181.74,768.9869 220.42,758.4269 255.88,754.3469 " fill="none" id="U-UC971" style="stroke:#181818;stroke-width:1.0;"/></g><!--link U to UC970--><g id="link_U_UC970"><path d="M74.58,1024.2169 C87.84,986.9569 113.19,931.2869 154,899.2969 C172.12,885.0969 193.78,874.6969 215.95,867.0769 " fill="none" id="U-UC970" style="stroke:#181818;stroke-width:1.0;"/></g><!--link M to UC969--><g id="link_M_UC969"><path d="M85.51,240.1569 C101.67,215.9269 125.58,185.7569 154,167.2969 C174.47,153.9969 198.24,144.0069 221.96,136.5169 " fill="none" id="M-UC969" style="stroke:#181818;stroke-width:1.0;"/></g><!--SRC=[TLHDZvim4BtxLupsqjDA2Sb2SapJIrL56sbtVu0N9iGDsCWsIwEg_xtZ16mWmEd9y-RDC5_c8cJ5DI_Xms3A3NxdwINNgfRPNXLAGtCM5fdnj5rgbPuciG9F5gm2BVApXKneJArGaZ4hR84k0kmf1FmGF2SjnhWJWwS3bpn7_GJSmA5xF6hrc_oXRpnwAsdTdpwwbrrM2dbxslKaifeaNXlP2RnsjdUadpbW-TbQtW-CkNovp2dLjwknMC9V1lJLzyh0KtecAqAbrKaGIPs0EsERo7wxtOxu6hb58abid9Vx7y_T3Bc5og7DtrcJHwkgWtCyD6lC1IMiXzcyZ4a6BLJSc4RfpBFMeqWa1BmemDnBu1ID9w-6P8DSfsSuAJtYHKCUnLIfSBLmDE1fIhDZ3JJ2dW7_K4WXywwkGMKvKg5f-deGyUp5a9q9mp-B6V9cr2dCX1qmgHVqLoLty-kTDZDL7xLsaqoFWKjVs2j9FtZ44-cqdCbCNcRxq7g5FrrF9kFs1zve4wwUEEfjXYSXQHCgBQWSRkDf23qvcYJZYLAmjpoGKqBTBtktvMGobfkBfoncYan3Um4bQPlwz6JKoBhAxYit84ti6Z54YK0hJyimePlCJJ2jaQfrYkxGZTgOn0zE8fStNSVkBsSowk2Ne1DXp-ZxzuroofLRYxQ88Yn6ifwyIvze6qIAroXmUiwvL5dFRzJY7EaktiebtSghz3PaXdwneZPwhsZE2tuTVux9ovaJQ59Tbv2YnbB9Az2jhkcTLk5-Pxp_gFsYTEg-Ad3NovmZXm9pdbwXAhXrAz9fn5lsZx4TF3-tH_dGmGtxw60IO1ouB-5r7LvN0KO1BWDSU4Y7nSED3qmNuUXntCCX7ktfyRN3A_RkAL7lFUgzBtju4J0jH2UPXD-bSVQ4EC0GdaRAmrM0KO3B01TUWKhz7m00]--></g></svg>