<?xml version="1.0" encoding="us-ascii" standalone="no"?><svg xmlns="http://www.w3.org/2000/svg" xmlns:xlink="http://www.w3.org/1999/xlink" contentStyleType="text/css" height="1233px" preserveAspectRatio="none" style="width:2355px;height:1233px;background:#FFFFFF;" version="1.1" viewBox="0 0 2355 1233" width="2355px" zoomAndPan="magnify"><defs/><g><text fill="#000000" font-family="sans-serif" font-size="14" font-weight="bold" lengthAdjust="spacing" textLength="975" x="691.75" y="27.9951">US018 - As PO/SM/Team Member, I want to consult the product backlog, i.e. to get the list of user stories sorted by priority</text><rect fill="#FFFFFF" height="919.1875" style="stroke:#181818;stroke-width:1.0;" width="10" x="347" y="215.125"/><rect fill="#FFFFFF" height="860.9219" style="stroke:#181818;stroke-width:1.0;" width="10" x="639" y="244.2578"/><rect fill="#FFFFFF" height="728.7656" style="stroke:#181818;stroke-width:1.0;" width="10" x="1048.5" y="347.2813"/><rect fill="#FFFFFF" height="29.1328" style="stroke:#181818;stroke-width:1.0;" width="10" x="1587.5" y="524.1953"/><rect fill="#FFFFFF" height="29.1328" style="stroke:#181818;stroke-width:1.0;" width="10" x="1748" y="582.4609"/><rect fill="#FFFFFF" height="29.1328" style="stroke:#181818;stroke-width:1.0;" width="10" x="1873" y="640.7266"/><rect fill="#FFFFFF" height="290.6563" style="stroke:#181818;stroke-width:1.0;" width="10" x="1997.5" y="756.2578"/><rect fill="#FFFFFF" height="29.1328" style="stroke:#181818;stroke-width:1.0;" width="10" x="2252.5" y="981.6484"/><rect fill="none" height="189.9297" style="stroke:#000000;stroke-width:1.5;" width="436.5" x="1913" y="828.8516"/><line style="stroke:#181818;stroke-width:0.5;stroke-dasharray:5.0,5.0;" x1="138" x2="138" y1="118.5938" y2="1152.3125"/><line style="stroke:#181818;stroke-width:0.5;stroke-dasharray:5.0,5.0;" x1="352" x2="352" y1="118.5938" y2="1152.3125"/><line style="stroke:#181818;stroke-width:0.5;stroke-dasharray:5.0,5.0;" x1="644" x2="644" y1="118.5938" y2="1152.3125"/><line style="stroke:#181818;stroke-width:0.5;stroke-dasharray:5.0,5.0;" x1="907" x2="907" y1="299.2031" y2="1152.3125"/><line style="stroke:#181818;stroke-width:0.5;stroke-dasharray:5.0,5.0;" x1="1053" x2="1053" y1="118.5938" y2="1152.3125"/><line style="stroke:#181818;stroke-width:0.5;stroke-dasharray:5.0,5.0;" x1="1329" x2="1329" y1="402.2266" y2="1152.3125"/><line style="stroke:#181818;stroke-width:0.5;stroke-dasharray:5.0,5.0;" x1="1454" x2="1454" y1="476.1172" y2="1152.3125"/><line style="stroke:#181818;stroke-width:0.5;stroke-dasharray:5.0,5.0;" x1="1592" x2="1592" y1="118.5938" y2="1152.3125"/><line style="stroke:#181818;stroke-width:0.5;stroke-dasharray:5.0,5.0;" x1="1753" x2="1753" y1="118.5938" y2="1152.3125"/><line style="stroke:#181818;stroke-width:0.5;stroke-dasharray:5.0,5.0;" x1="1878" x2="1878" y1="118.5938" y2="1152.3125"/><line style="stroke:#181818;stroke-width:0.5;stroke-dasharray:5.0,5.0;" x1="2002" x2="2002" y1="118.5938" y2="1152.3125"/><line style="stroke:#181818;stroke-width:0.5;stroke-dasharray:5.0,5.0;" x1="2257.5" x2="2257.5" y1="803.0547" y2="1152.3125"/><text fill="#000000" font-family="sans-serif" font-size="14" lengthAdjust="spacing" textLength="106" x="82" y="115.292">:User With Role</text><ellipse cx="138" cy="50.7969" fill="#FFFFFF" rx="8" ry="8" style="stroke:#181818;stroke-width:0.5;"/><path d="M138,58.7969 L138,85.7969 M125,66.7969 L151,66.7969 M138,85.7969 L125,100.7969 M138,85.7969 L151,100.7969 " fill="none" style="stroke:#181818;stroke-width:0.5;"/><text fill="#000000" font-family="sans-serif" font-size="14" lengthAdjust="spacing" textLength="106" x="82" y="1164.3076">:User With Role</text><ellipse cx="138" cy="1176.1094" fill="#FFFFFF" rx="8" ry="8" style="stroke:#181818;stroke-width:0.5;"/><path d="M138,1184.1094 L138,1211.1094 M125,1192.1094 L151,1192.1094 M138,1211.1094 L125,1226.1094 M138,1211.1094 L151,1226.1094 " fill="none" style="stroke:#181818;stroke-width:0.5;"/><rect fill="#FFFFFF" height="46.5938" rx="2.5" ry="2.5" style="stroke:#181818;stroke-width:0.5;" width="126" x="289" y="71"/><text fill="#000000" font-family="sans-serif" font-size="14" lengthAdjust="spacing" textLength="112" x="296" y="90.9951">:ConsultProduct</text><text fill="#000000" font-family="sans-serif" font-size="14" lengthAdjust="spacing" textLength="68" x="318" y="107.292">BacklogUI</text><rect fill="#FFFFFF" height="46.5938" rx="2.5" ry="2.5" style="stroke:#181818;stroke-width:0.5;" width="126" x="289" y="1151.3125"/><text fill="#000000" font-family="sans-serif" font-size="14" lengthAdjust="spacing" textLength="112" x="296" y="1171.3076">:ConsultProduct</text><text fill="#000000" font-family="sans-serif" font-size="14" lengthAdjust="spacing" textLength="68" x="318" y="1187.6045">BacklogUI</text><rect fill="#FFFFFF" height="46.5938" rx="2.5" ry="2.5" style="stroke:#181818;stroke-width:0.5;" width="128" x="580" y="71"/><text fill="#000000" font-family="sans-serif" font-size="14" lengthAdjust="spacing" textLength="114" x="587" y="90.9951">:ProductBacklog</text><text fill="#000000" font-family="sans-serif" font-size="14" lengthAdjust="spacing" textLength="67" x="610.5" y="107.292">Controller</text><rect fill="#FFFFFF" height="46.5938" rx="2.5" ry="2.5" style="stroke:#181818;stroke-width:0.5;" width="128" x="580" y="1151.3125"/><text fill="#000000" font-family="sans-serif" font-size="14" lengthAdjust="spacing" textLength="114" x="587" y="1171.3076">:ProductBacklog</text><text fill="#000000" font-family="sans-serif" font-size="14" lengthAdjust="spacing" textLength="67" x="610.5" y="1187.6045">Controller</text><rect fill="#FFFFFF" height="62.8906" rx="2.5" ry="2.5" style="stroke:#181818;stroke-width:0.5;" width="115" x="850" y="1151.3125"/><text fill="#000000" font-family="sans-serif" font-size="14" lengthAdjust="spacing" textLength="101" x="857" y="1171.3076">&#171;ValueObject&#187;</text><text fill="#000000" font-family="sans-serif" font-size="14" lengthAdjust="spacing" textLength="85" x="865" y="1187.6045">projectCode</text><text fill="#000000" font-family="sans-serif" font-size="14" lengthAdjust="spacing" textLength="90" x="862.5" y="1203.9014">:ProjectCode</text><rect fill="#FFFFFF" height="46.5938" rx="2.5" ry="2.5" style="stroke:#181818;stroke-width:0.5;" width="157" x="975" y="71"/><text fill="#000000" font-family="sans-serif" font-size="14" lengthAdjust="spacing" textLength="143" x="982" y="90.9951">&#171;ApplicationService&#187;</text><text fill="#000000" font-family="sans-serif" font-size="14" lengthAdjust="spacing" textLength="103" x="1002" y="107.292">:ProjectService</text><rect fill="#FFFFFF" height="46.5938" rx="2.5" ry="2.5" style="stroke:#181818;stroke-width:0.5;" width="157" x="975" y="1151.3125"/><text fill="#000000" font-family="sans-serif" font-size="14" lengthAdjust="spacing" textLength="143" x="982" y="1171.3076">&#171;ApplicationService&#187;</text><text fill="#000000" font-family="sans-serif" font-size="14" lengthAdjust="spacing" textLength="103" x="1002" y="1187.6045">:ProjectService</text><rect fill="#FFFFFF" height="62.8906" rx="2.5" ry="2.5" style="stroke:#181818;stroke-width:0.5;" width="115" x="1272" y="1151.3125"/><text fill="#000000" font-family="sans-serif" font-size="14" lengthAdjust="spacing" textLength="101" x="1279" y="1171.3076">&#171;ValueObject&#187;</text><text fill="#000000" font-family="sans-serif" font-size="14" lengthAdjust="spacing" textLength="66" x="1296.5" y="1187.6045">cancelled</text><text fill="#000000" font-family="sans-serif" font-size="14" lengthAdjust="spacing" textLength="49" x="1305" y="1203.9014">:Status</text><rect fill="#FFFFFF" height="62.8906" rx="2.5" ry="2.5" style="stroke:#181818;stroke-width:0.5;" width="115" x="1397" y="1151.3125"/><text fill="#000000" font-family="sans-serif" font-size="14" lengthAdjust="spacing" textLength="101" x="1404" y="1171.3076">&#171;ValueObject&#187;</text><text fill="#000000" font-family="sans-serif" font-size="14" lengthAdjust="spacing" textLength="54" x="1427.5" y="1187.6045">finished</text><text fill="#000000" font-family="sans-serif" font-size="14" lengthAdjust="spacing" textLength="49" x="1430" y="1203.9014">:Status</text><rect fill="#FFFFFF" height="62.8906" rx="2.5" ry="2.5" style="stroke:#181818;stroke-width:0.5;" width="141" x="1522" y="54.7031"/><text fill="#000000" font-family="sans-serif" font-size="14" lengthAdjust="spacing" textLength="78" x="1553.5" y="74.6982">&#171;Interface&#187;</text><text fill="#000000" font-family="sans-serif" font-size="14" lengthAdjust="spacing" textLength="92" x="1546.5" y="90.9951">&#171;Repository&#187;</text><text fill="#000000" font-family="sans-serif" font-size="14" lengthAdjust="spacing" textLength="127" x="1529" y="107.292">:ProjectRepository</text><rect fill="#FFFFFF" height="62.8906" rx="2.5" ry="2.5" style="stroke:#181818;stroke-width:0.5;" width="141" x="1522" y="1151.3125"/><text fill="#000000" font-family="sans-serif" font-size="14" lengthAdjust="spacing" textLength="78" x="1553.5" y="1171.3076">&#171;Interface&#187;</text><text fill="#000000" font-family="sans-serif" font-size="14" lengthAdjust="spacing" textLength="92" x="1546.5" y="1187.6045">&#171;Repository&#187;</text><text fill="#000000" font-family="sans-serif" font-size="14" lengthAdjust="spacing" textLength="127" x="1529" y="1203.9014">:ProjectRepository</text><rect fill="#FFFFFF" height="62.8906" rx="2.5" ry="2.5" style="stroke:#181818;stroke-width:0.5;" width="160" x="1673" y="54.7031"/><text fill="#000000" font-family="sans-serif" font-size="14" lengthAdjust="spacing" textLength="78" x="1714" y="74.6982">&#171;Interface&#187;</text><text fill="#000000" font-family="sans-serif" font-size="14" lengthAdjust="spacing" textLength="92" x="1707" y="90.9951">&#171;Repository&#187;</text><text fill="#000000" font-family="sans-serif" font-size="14" lengthAdjust="spacing" textLength="146" x="1680" y="107.292">:UserStoryRepository</text><rect fill="#FFFFFF" height="62.8906" rx="2.5" ry="2.5" style="stroke:#181818;stroke-width:0.5;" width="160" x="1673" y="1151.3125"/><text fill="#000000" font-family="sans-serif" font-size="14" lengthAdjust="spacing" textLength="78" x="1714" y="1171.3076">&#171;Interface&#187;</text><text fill="#000000" font-family="sans-serif" font-size="14" lengthAdjust="spacing" textLength="92" x="1707" y="1187.6045">&#171;Repository&#187;</text><text fill="#000000" font-family="sans-serif" font-size="14" lengthAdjust="spacing" textLength="146" x="1680" y="1203.9014">:UserStoryRepository</text><rect fill="#FFFFFF" height="62.8906" rx="2.5" ry="2.5" style="stroke:#181818;stroke-width:0.5;" width="70" x="1843" y="54.7031"/><text fill="#000000" font-family="sans-serif" font-size="14" lengthAdjust="spacing" textLength="56" x="1850" y="74.6982">&#171;Entity&#187;</text><text fill="#000000" font-family="sans-serif" font-size="14" lengthAdjust="spacing" textLength="48" x="1854" y="90.9951">project</text><text fill="#000000" font-family="sans-serif" font-size="14" lengthAdjust="spacing" textLength="53" x="1851.5" y="107.292">:Project</text><rect fill="#FFFFFF" height="62.8906" rx="2.5" ry="2.5" style="stroke:#181818;stroke-width:0.5;" width="70" x="1843" y="1151.3125"/><text fill="#000000" font-family="sans-serif" font-size="14" lengthAdjust="spacing" textLength="56" x="1850" y="1171.3076">&#171;Entity&#187;</text><text fill="#000000" font-family="sans-serif" font-size="14" lengthAdjust="spacing" textLength="48" x="1854" y="1187.6045">project</text><text fill="#000000" font-family="sans-serif" font-size="14" lengthAdjust="spacing" textLength="53" x="1851.5" y="1203.9014">:Project</text><rect fill="#FFFFFF" height="30.2969" rx="2.5" ry="2.5" style="stroke:#181818;stroke-width:0.5;" width="159" x="1923" y="87.2969"/><text fill="#000000" font-family="sans-serif" font-size="14" lengthAdjust="spacing" textLength="145" x="1930" y="107.292">:UserStoryAssembler</text><rect fill="#FFFFFF" height="30.2969" rx="2.5" ry="2.5" style="stroke:#181818;stroke-width:0.5;" width="159" x="1923" y="1151.3125"/><text fill="#000000" font-family="sans-serif" font-size="14" lengthAdjust="spacing" textLength="145" x="1930" y="1171.3076">:UserStoryAssembler</text><rect fill="#FFFFFF" height="46.5938" rx="2.5" ry="2.5" style="stroke:#181818;stroke-width:0.5;" width="164" x="2175.5" y="1151.3125"/><text fill="#000000" font-family="sans-serif" font-size="14" lengthAdjust="spacing" textLength="120" x="2195.5" y="1171.3076">userStoryDTOList</text><text fill="#000000" font-family="sans-serif" font-size="14" lengthAdjust="spacing" textLength="150" x="2182.5" y="1187.6045">:List&lt;UserStoryDTO&gt;</text><rect fill="#FFFFFF" height="919.1875" style="stroke:#181818;stroke-width:1.0;" width="10" x="347" y="215.125"/><rect fill="#FFFFFF" height="860.9219" style="stroke:#181818;stroke-width:1.0;" width="10" x="639" y="244.2578"/><rect fill="#FFFFFF" height="728.7656" style="stroke:#181818;stroke-width:1.0;" width="10" x="1048.5" y="347.2813"/><rect fill="#FFFFFF" height="29.1328" style="stroke:#181818;stroke-width:1.0;" width="10" x="1587.5" y="524.1953"/><rect fill="#FFFFFF" height="29.1328" style="stroke:#181818;stroke-width:1.0;" width="10" x="1748" y="582.4609"/><rect fill="#FFFFFF" height="29.1328" style="stroke:#181818;stroke-width:1.0;" width="10" x="1873" y="640.7266"/><rect fill="#FFFFFF" height="290.6563" style="stroke:#181818;stroke-width:1.0;" width="10" x="1997.5" y="756.2578"/><rect fill="#FFFFFF" height="29.1328" style="stroke:#181818;stroke-width:1.0;" width="10" x="2252.5" y="981.6484"/><path d="M5,133.5938 L5,188.5938 L133,188.5938 L133,143.5938 L123,133.5938 L5,133.5938 " fill="#FEFFDD" style="stroke:#181818;stroke-width:0.5;"/><path d="M123,133.5938 L123,143.5938 L133,143.5938 L123,133.5938 " fill="#FEFFDD" style="stroke:#181818;stroke-width:0.5;"/><text fill="#000000" font-family="sans-serif" font-size="13" lengthAdjust="spacing" textLength="97" x="11" y="150.6606">Product Owner,</text><text fill="#000000" font-family="sans-serif" font-size="13" lengthAdjust="spacing" textLength="107" x="11" y="165.7935">Scrum Master or</text><text fill="#000000" font-family="sans-serif" font-size="13" lengthAdjust="spacing" textLength="93" x="11" y="180.9263">Team Member</text><polygon fill="#181818" points="335,211.125,345,215.125,335,219.125,339,215.125" style="stroke:#181818;stroke-width:1.0;"/><line style="stroke:#181818;stroke-width:1.0;" x1="138" x2="341" y1="215.125" y2="215.125"/><text fill="#000000" font-family="sans-serif" font-size="13" font-weight="bold" lengthAdjust="spacing" textLength="9" x="147.5" y="210.0591">1</text><text fill="#000000" font-family="sans-serif" font-size="13" lengthAdjust="spacing" textLength="177" x="160.5" y="210.0591">requests list of User Stories</text><polygon fill="#181818" points="627,240.2578,637,244.2578,627,248.2578,631,244.2578" style="stroke:#181818;stroke-width:1.0;"/><line style="stroke:#181818;stroke-width:1.0;" x1="357" x2="633" y1="244.2578" y2="244.2578"/><text fill="#000000" font-family="sans-serif" font-size="13" font-weight="bold" lengthAdjust="spacing" textLength="9" x="366.5" y="239.1919">2</text><text fill="#000000" font-family="sans-serif" font-size="13" lengthAdjust="spacing" textLength="250" x="379.5" y="239.1919">createUserStoryList(projectCodeValue)</text><polygon fill="#181818" points="838,269.3906,848,273.3906,838,277.3906,842,273.3906" style="stroke:#181818;stroke-width:1.0;"/><line style="stroke:#181818;stroke-width:1.0;" x1="649" x2="844" y1="273.3906" y2="273.3906"/><text fill="#000000" font-family="sans-serif" font-size="13" font-weight="bold" lengthAdjust="spacing" textLength="9" x="661" y="268.3247">3</text><text fill="#000000" font-family="sans-serif" font-size="13" lengthAdjust="spacing" textLength="164" x="674" y="268.3247">create(projectCodeValue)</text><rect fill="#FFFFFF" height="62.8906" rx="2.5" ry="2.5" style="stroke:#181818;stroke-width:0.5;" width="115" x="850" y="252.2578"/><text fill="#000000" font-family="sans-serif" font-size="14" lengthAdjust="spacing" textLength="101" x="857" y="272.2529">&#171;ValueObject&#187;</text><text fill="#000000" font-family="sans-serif" font-size="14" lengthAdjust="spacing" textLength="85" x="865" y="288.5498">projectCode</text><text fill="#000000" font-family="sans-serif" font-size="14" lengthAdjust="spacing" textLength="90" x="862.5" y="304.8467">:ProjectCode</text><polygon fill="#181818" points="1036.5,343.2813,1046.5,347.2813,1036.5,351.2813,1040.5,347.2813" style="stroke:#181818;stroke-width:1.0;"/><line style="stroke:#181818;stroke-width:1.0;" x1="649" x2="1042.5" y1="347.2813" y2="347.2813"/><text fill="#000000" font-family="sans-serif" font-size="13" font-weight="bold" lengthAdjust="spacing" textLength="9" x="735.25" y="342.2153">4</text><text fill="#000000" font-family="sans-serif" font-size="13" lengthAdjust="spacing" textLength="214" x="748.25" y="342.2153">createUserStoryList(projectCode)</text><polygon fill="#181818" points="1260,372.4141,1270,376.4141,1260,380.4141,1264,376.4141" style="stroke:#181818;stroke-width:1.0;"/><line style="stroke:#181818;stroke-width:1.0;" x1="1058.5" x2="1266" y1="376.4141" y2="376.4141"/><text fill="#000000" font-family="sans-serif" font-size="13" font-weight="bold" lengthAdjust="spacing" textLength="9" x="1103.25" y="371.3481">5</text><text fill="#000000" font-family="sans-serif" font-size="13" lengthAdjust="spacing" textLength="111" x="1116.25" y="371.3481">create(cancelled)</text><rect fill="#FFFFFF" height="62.8906" rx="2.5" ry="2.5" style="stroke:#181818;stroke-width:0.5;" width="115" x="1272" y="355.2813"/><text fill="#000000" font-family="sans-serif" font-size="14" lengthAdjust="spacing" textLength="101" x="1279" y="375.2764">&#171;ValueObject&#187;</text><text fill="#000000" font-family="sans-serif" font-size="14" lengthAdjust="spacing" textLength="66" x="1296.5" y="391.5732">cancelled</text><text fill="#000000" font-family="sans-serif" font-size="14" lengthAdjust="spacing" textLength="49" x="1305" y="407.8701">:Status</text><polygon fill="#181818" points="1385,446.3047,1395,450.3047,1385,454.3047,1389,450.3047" style="stroke:#181818;stroke-width:1.0;"/><line style="stroke:#181818;stroke-width:1.0;" x1="1058.5" x2="1391" y1="450.3047" y2="450.3047"/><text fill="#000000" font-family="sans-serif" font-size="13" font-weight="bold" lengthAdjust="spacing" textLength="9" x="1171.25" y="445.2388">6</text><text fill="#000000" font-family="sans-serif" font-size="13" lengthAdjust="spacing" textLength="100" x="1184.25" y="445.2388">create(finished)</text><rect fill="#FFFFFF" height="62.8906" rx="2.5" ry="2.5" style="stroke:#181818;stroke-width:0.5;" width="115" x="1397" y="429.1719"/><text fill="#000000" font-family="sans-serif" font-size="14" lengthAdjust="spacing" textLength="101" x="1404" y="449.167">&#171;ValueObject&#187;</text><text fill="#000000" font-family="sans-serif" font-size="14" lengthAdjust="spacing" textLength="54" x="1427.5" y="465.4639">finished</text><text fill="#000000" font-family="sans-serif" font-size="14" lengthAdjust="spacing" textLength="49" x="1430" y="481.7607">:Status</text><polygon fill="#181818" points="1575.5,520.1953,1585.5,524.1953,1575.5,528.1953,1579.5,524.1953" style="stroke:#181818;stroke-width:1.0;"/><line style="stroke:#181818;stroke-width:1.0;" x1="1058.5" x2="1581.5" y1="524.1953" y2="524.1953"/><text fill="#000000" font-family="sans-serif" font-size="13" font-weight="bold" lengthAdjust="spacing" textLength="9" x="1247" y="519.1294">7</text><text fill="#000000" font-family="sans-serif" font-size="13" lengthAdjust="spacing" textLength="139" x="1260" y="519.1294">findByID(projectCode)</text><polygon fill="#181818" points="1069.5,549.3281,1059.5,553.3281,1069.5,557.3281,1065.5,553.3281" style="stroke:#181818;stroke-width:1.0;"/><line style="stroke:#181818;stroke-width:1.0;stroke-dasharray:2.0,2.0;" x1="1063.5" x2="1591.5" y1="553.3281" y2="553.3281"/><text fill="#000000" font-family="sans-serif" font-size="13" font-weight="bold" lengthAdjust="spacing" textLength="9" x="1297" y="548.2622">8</text><text fill="#000000" font-family="sans-serif" font-size="13" lengthAdjust="spacing" textLength="44" x="1310" y="548.2622">project</text><polygon fill="#181818" points="1736,578.4609,1746,582.4609,1736,586.4609,1740,582.4609" style="stroke:#181818;stroke-width:1.0;"/><line style="stroke:#181818;stroke-width:1.0;" x1="1058.5" x2="1742" y1="582.4609" y2="582.4609"/><text fill="#000000" font-family="sans-serif" font-size="13" font-weight="bold" lengthAdjust="spacing" textLength="9" x="1078.75" y="577.395">9</text><text fill="#000000" font-family="sans-serif" font-size="13" lengthAdjust="spacing" textLength="636" x="1091.75" y="577.395">findByProjectCodeAndUserStoryStatusNotAndUserStoryStatusNot(projectCode, cancelled, finished)</text><polygon fill="#181818" points="1069.5,607.5938,1059.5,611.5938,1069.5,615.5938,1065.5,611.5938" style="stroke:#181818;stroke-width:1.0;"/><line style="stroke:#181818;stroke-width:1.0;stroke-dasharray:2.0,2.0;" x1="1063.5" x2="1752" y1="611.5938" y2="611.5938"/><text fill="#000000" font-family="sans-serif" font-size="13" font-weight="bold" lengthAdjust="spacing" textLength="18" x="1352.75" y="606.5278">10</text><text fill="#000000" font-family="sans-serif" font-size="13" lengthAdjust="spacing" textLength="84" x="1374.75" y="606.5278">userStoryList</text><polygon fill="#181818" points="1861,636.7266,1871,640.7266,1861,644.7266,1865,640.7266" style="stroke:#181818;stroke-width:1.0;"/><line style="stroke:#181818;stroke-width:1.0;" x1="1058.5" x2="1867" y1="640.7266" y2="640.7266"/><text fill="#000000" font-family="sans-serif" font-size="13" font-weight="bold" lengthAdjust="spacing" textLength="18" x="1374.25" y="635.6606">11</text><text fill="#000000" font-family="sans-serif" font-size="13" lengthAdjust="spacing" textLength="161" x="1396.25" y="635.6606">getUserStoryPriorityList()</text><polygon fill="#181818" points="1069.5,665.8594,1059.5,669.8594,1069.5,673.8594,1065.5,669.8594" style="stroke:#181818;stroke-width:1.0;"/><line style="stroke:#181818;stroke-width:1.0;stroke-dasharray:2.0,2.0;" x1="1063.5" x2="1877" y1="669.8594" y2="669.8594"/><text fill="#000000" font-family="sans-serif" font-size="13" font-weight="bold" lengthAdjust="spacing" textLength="18" x="1393.25" y="664.7935">12</text><text fill="#000000" font-family="sans-serif" font-size="13" lengthAdjust="spacing" textLength="128" x="1415.25" y="664.7935">userStoryPriorityList</text><line style="stroke:#181818;stroke-width:1.0;" x1="1058.5" x2="1100.5" y1="714.125" y2="714.125"/><line style="stroke:#181818;stroke-width:1.0;" x1="1100.5" x2="1100.5" y1="714.125" y2="727.125"/><line style="stroke:#181818;stroke-width:1.0;" x1="1059.5" x2="1100.5" y1="727.125" y2="727.125"/><polygon fill="#181818" points="1069.5,723.125,1059.5,727.125,1069.5,731.125,1065.5,727.125" style="stroke:#181818;stroke-width:1.0;"/><text fill="#000000" font-family="sans-serif" font-size="13" font-weight="bold" lengthAdjust="spacing" textLength="18" x="1065.5" y="701.4927">13</text><text fill="#000000" font-family="sans-serif" font-size="13" lengthAdjust="spacing" textLength="160" x="1122.5" y="693.9263">sortUserStoriesByPriority</text><text fill="#000000" font-family="sans-serif" font-size="13" lengthAdjust="spacing" textLength="230" x="1087.5" y="709.0591">(userStoryList, userStoryPriorityList)</text><polygon fill="#181818" points="1985.5,752.2578,1995.5,756.2578,1985.5,760.2578,1989.5,756.2578" style="stroke:#181818;stroke-width:1.0;"/><line style="stroke:#181818;stroke-width:1.0;" x1="1058.5" x2="1991.5" y1="756.2578" y2="756.2578"/><text fill="#000000" font-family="sans-serif" font-size="13" font-weight="bold" lengthAdjust="spacing" textLength="18" x="1380.5" y="751.1919">14</text><text fill="#000000" font-family="sans-serif" font-size="13" lengthAdjust="spacing" textLength="273" x="1402.5" y="751.1919">createUserStoryDTOList(userStoryIterator)</text><polygon fill="#181818" points="2163.5,781.3906,2173.5,785.3906,2163.5,789.3906,2167.5,785.3906" style="stroke:#181818;stroke-width:1.0;"/><line style="stroke:#181818;stroke-width:1.0;" x1="2007.5" x2="2169.5" y1="785.3906" y2="785.3906"/><text fill="#000000" font-family="sans-serif" font-size="13" font-weight="bold" lengthAdjust="spacing" textLength="18" x="2055" y="780.3247">15</text><text fill="#000000" font-family="sans-serif" font-size="13" lengthAdjust="spacing" textLength="51" x="2077" y="780.3247">create()</text><rect fill="#FFFFFF" height="46.5938" rx="2.5" ry="2.5" style="stroke:#181818;stroke-width:0.5;" width="164" x="2175.5" y="764.2578"/><text fill="#000000" font-family="sans-serif" font-size="14" lengthAdjust="spacing" textLength="120" x="2195.5" y="784.2529">userStoryDTOList</text><text fill="#000000" font-family="sans-serif" font-size="14" lengthAdjust="spacing" textLength="150" x="2182.5" y="800.5498">:List&lt;UserStoryDTO&gt;</text><path d="M1913,828.8516 L1990,828.8516 L1990,835.9844 L1980,845.9844 L1913,845.9844 L1913,828.8516 " fill="#FFFFFF" style="stroke:#000000;stroke-width:1.5;"/><rect fill="none" height="189.9297" style="stroke:#000000;stroke-width:1.5;" width="436.5" x="1913" y="828.8516"/><text fill="#000000" font-family="sans-serif" font-size="13" font-weight="bold" lengthAdjust="spacing" textLength="32" x="1928" y="841.9185">loop</text><text fill="#000000" font-family="sans-serif" font-size="11" font-weight="bold" lengthAdjust="spacing" textLength="185" x="2005" y="841.062">[userStoryIterator.hasNext()]</text><line style="stroke:#181818;stroke-width:1.0;" x1="2007.5" x2="2049.5" y1="882.25" y2="882.25"/><line style="stroke:#181818;stroke-width:1.0;" x1="2049.5" x2="2049.5" y1="882.25" y2="895.25"/><line style="stroke:#181818;stroke-width:1.0;" x1="2008.5" x2="2049.5" y1="895.25" y2="895.25"/><polygon fill="#181818" points="2018.5,891.25,2008.5,895.25,2018.5,899.25,2014.5,895.25" style="stroke:#181818;stroke-width:1.0;"/><text fill="#000000" font-family="sans-serif" font-size="13" font-weight="bold" lengthAdjust="spacing" textLength="18" x="2014.5" y="869.6177">16</text><text fill="#000000" font-family="sans-serif" font-size="13" lengthAdjust="spacing" textLength="125" x="2047.5" y="862.0513">currentUserStory =</text><text fill="#000000" font-family="sans-serif" font-size="13" lengthAdjust="spacing" textLength="151" x="2036.5" y="877.1841">userStoryIterator.next()</text><line style="stroke:#181818;stroke-width:1.0;" x1="2007.5" x2="2049.5" y1="939.5156" y2="939.5156"/><line style="stroke:#181818;stroke-width:1.0;" x1="2049.5" x2="2049.5" y1="939.5156" y2="952.5156"/><line style="stroke:#181818;stroke-width:1.0;" x1="2008.5" x2="2049.5" y1="952.5156" y2="952.5156"/><polygon fill="#181818" points="2018.5,948.5156,2008.5,952.5156,2018.5,956.5156,2014.5,952.5156" style="stroke:#181818;stroke-width:1.0;"/><text fill="#000000" font-family="sans-serif" font-size="13" font-weight="bold" lengthAdjust="spacing" textLength="18" x="2014.5" y="926.8833">17</text><text fill="#000000" font-family="sans-serif" font-size="13" lengthAdjust="spacing" textLength="104" x="2087" y="919.3169">userStoryDTO =</text><text fill="#000000" font-family="sans-serif" font-size="13" lengthAdjust="spacing" textLength="209" x="2036.5" y="934.4497">userStoryDTO(currentUserStory)</text><polygon fill="#181818" points="2240.5,977.6484,2250.5,981.6484,2240.5,985.6484,2244.5,981.6484" style="stroke:#181818;stroke-width:1.0;"/><line style="stroke:#181818;stroke-width:1.0;" x1="2007.5" x2="2246.5" y1="981.6484" y2="981.6484"/><text fill="#000000" font-family="sans-serif" font-size="13" font-weight="bold" lengthAdjust="spacing" textLength="18" x="2057.5" y="976.5825">18</text><text fill="#000000" font-family="sans-serif" font-size="13" lengthAdjust="spacing" textLength="123" x="2079.5" y="976.5825">add(userStoryDTO)</text><polygon fill="#181818" points="2018.5,1006.7813,2008.5,1010.7813,2018.5,1014.7813,2014.5,1010.7813" style="stroke:#181818;stroke-width:1.0;"/><line style="stroke:#181818;stroke-width:1.0;stroke-dasharray:2.0,2.0;" x1="2012.5" x2="2256.5" y1="1010.7813" y2="1010.7813"/><text fill="#000000" font-family="sans-serif" font-size="13" font-weight="bold" lengthAdjust="spacing" textLength="18" x="2108.5" y="1005.7153">19</text><text fill="#000000" font-family="sans-serif" font-size="13" lengthAdjust="spacing" textLength="26" x="2130.5" y="1005.7153">true</text><polygon fill="#181818" points="1069.5,1042.9141,1059.5,1046.9141,1069.5,1050.9141,1065.5,1046.9141" style="stroke:#181818;stroke-width:1.0;"/><line style="stroke:#181818;stroke-width:1.0;stroke-dasharray:2.0,2.0;" x1="1063.5" x2="2001.5" y1="1046.9141" y2="1046.9141"/><text fill="#000000" font-family="sans-serif" font-size="13" font-weight="bold" lengthAdjust="spacing" textLength="18" x="1464" y="1041.8481">20</text><text fill="#000000" font-family="sans-serif" font-size="13" lengthAdjust="spacing" textLength="111" x="1486" y="1041.8481">userStoryDTOList</text><polygon fill="#181818" points="660,1072.0469,650,1076.0469,660,1080.0469,656,1076.0469" style="stroke:#181818;stroke-width:1.0;"/><line style="stroke:#181818;stroke-width:1.0;stroke-dasharray:2.0,2.0;" x1="654" x2="1052.5" y1="1076.0469" y2="1076.0469"/><text fill="#000000" font-family="sans-serif" font-size="13" font-weight="bold" lengthAdjust="spacing" textLength="18" x="784.75" y="1070.981">21</text><text fill="#000000" font-family="sans-serif" font-size="13" lengthAdjust="spacing" textLength="111" x="806.75" y="1070.981">userStoryDTOList</text><polygon fill="#181818" points="368,1101.1797,358,1105.1797,368,1109.1797,364,1105.1797" style="stroke:#181818;stroke-width:1.0;"/><line style="stroke:#181818;stroke-width:1.0;stroke-dasharray:2.0,2.0;" x1="362" x2="643" y1="1105.1797" y2="1105.1797"/><text fill="#000000" font-family="sans-serif" font-size="13" font-weight="bold" lengthAdjust="spacing" textLength="18" x="434" y="1100.1138">22</text><text fill="#000000" font-family="sans-serif" font-size="13" lengthAdjust="spacing" textLength="111" x="456" y="1100.1138">userStoryDTOList</text><polygon fill="#181818" points="149,1130.3125,139,1134.3125,149,1138.3125,145,1134.3125" style="stroke:#181818;stroke-width:1.0;"/><line style="stroke:#181818;stroke-width:1.0;stroke-dasharray:2.0,2.0;" x1="143" x2="351" y1="1134.3125" y2="1134.3125"/><text fill="#000000" font-family="sans-serif" font-size="13" font-weight="bold" lengthAdjust="spacing" textLength="18" x="156" y="1129.2466">23</text><text fill="#000000" font-family="sans-serif" font-size="13" lengthAdjust="spacing" textLength="156" x="178" y="1129.2466">shows list of user stories</text><!--SRC=[bLPDSzem4BthL-oq5pAGfBrr6CeCa7umquHC2Es5Yx0NKED8L99B-VTT-KEM7GE93o1ftxwtMktADaz2xhZcps3mJueombiqXczmb8YDX0YbHSsCH_78AZtcqTD6grJ64vKe3Vkji1Y0wDUAIEoujEUWfUe3hb6xmPiTlYEFKR_MxHjXTkrWnbEhPFgyeWqpAso2i9X_-FW9Bc5au7vsFR-zVaJYkaM7wS4KzhH3i0eY9KsQq72BiDCgJYCBAn99rAO7uWgl76Y3EI0Hne9QGsfGWw5q2ZHWbBOOm-f0_eAMx87YSRc6T_s50_uITWiFAi5tm0su9RVY5XYJoX8jhZFQckc-26QsbnGncqSwfVYveKC5fLcm7OOo1aV4M71yf3x9zrOmBUKutzTYcWSoRS0BN85QIdAtMYK9wWnVJUj-Wy5FdgGuM_t6o0w7IqbfTCE9Yd4f7MivosY2UPDdjDib8k9MA3b7_LT4wEXAXc8f8od6PmA9E9KD1HmJoTnocvhSEHjEIkCPahMGmcpRERuMjYR5rBNUckVn3mOFk5D6K4KSmlrKgsLUWknNnhTnknAQkrc3_JZV5qaDSmZEhOemFAz6hNYTaJ5KX6MD-5aTdfRecyVP3zT3fE7-1ul0CCmON8in5dO2N0wfLhjTw8DsLu6nnZTYrb_pl14P0teMKuUlQhNRxKEaaLlqMawv4nHfTk0NkRjxSdYjK4jJnUjK0aGfSegtxboKy2lY2oY2y9fL748Axaoc3lDn-juunUxh-oHvYVBSPSiqg0F7OyNkia7UyVWmlQcd82JIQ5CjeR0V5McZ3Ovi96EVydmZTygsBeQHzC1dhWVLHbl2IyFpF9K9H-qYfBUCrxulNYLPBPoc3w57POfXFtjRbIhKD6FllfITMiIzTeNZP-fxlwMaYxwl5APqYN4QNBGLNtO7XEkUskaugo-rkhzx4gLsxxFF0dYXThNbvWx_sHQtceIVa4wgwLkbEXZuJ9VNIsBvDjRmGgmpqaAdgNc6roN4vPp7SIVaUUbMb8xLATPiz071JjPOSNxiDVPZjcBTRDNUj7v9iVy0]--></g></svg>