<?xml version="1.0" encoding="us-ascii" standalone="no"?><svg xmlns="http://www.w3.org/2000/svg" xmlns:xlink="http://www.w3.org/1999/xlink" contentStyleType="text/css" height="712px" preserveAspectRatio="none" style="width:1235px;height:712px;background:#FFFFFF;" version="1.1" viewBox="0 0 1235 712" width="1235px" zoomAndPan="magnify"><defs/><g><text fill="#000000" font-family="sans-serif" font-size="14" font-weight="bold" lengthAdjust="spacing" textLength="1192" x="20" y="32.9951">US032 - As a Team Member, I want to add a user story in the product backlog to the sprint backlog, during the sprint planning ceremony in the web UI</text><rect fill="#F1F1F1" height="36.2969" rx="12.5" ry="12.5" style="stroke:#181818;stroke-width:1.5;" width="106.3333" x="563.3333" y="47.2969"/><path d="M579,60.7604 C576.4217,60.7604 574.3333,62.8487 574.3333,65.4271 C574.3333,68.0054 576.4217,70.0938 579,70.0938 C581.5783,70.0938 583.6667,68.0054 583.6667,65.4271 C583.6667,62.8487 581.5783,60.7604 579,60.7604 M579,61.9271 C579.385,61.9271 579.7467,62.0321 580.0967,62.1488 C579.8517,62.3821 579.5717,62.5921 579.6183,62.8021 C579.665,63.0121 580.4233,62.9538 580.4233,63.3854 C580.4233,63.7004 579.9333,63.7937 580.2717,64.1554 C580.68,64.5638 579.525,65.2988 579.5017,65.8354 C579.4667,66.8038 580.4817,66.9671 581.2867,66.9671 C581.7767,66.9671 581.905,67.2004 581.87,67.4804 C581.24,68.3788 580.1667,68.9388 578.9883,68.9388 C578.545,68.9388 578.1367,68.8338 577.7517,68.6821 C578.0083,68.1688 577.425,67.1538 576.8767,66.8271 C576.6083,66.5588 576.0367,66.6638 575.71,66.5354 C575.605,66.2204 575.5,65.9054 575.4883,65.5554 C575.5233,65.4971 575.5817,65.4504 575.675,65.4504 C575.8967,65.4504 576.2,65.8938 576.3633,65.8471 C576.5733,65.8004 575.5,64.3188 576.0017,64.0271 C576.235,63.8871 576.7017,64.4821 576.55,63.8404 C576.41,63.2454 576.97,63.5137 577.32,63.3621 C577.6233,63.2338 577.845,62.8838 577.4717,62.6738 C577.4017,62.6387 577.32,62.5571 577.215,62.4521 C577.74,62.1371 578.3467,61.9388 579,61.9388 M581.695,63.1988 C581.905,63.4554 582.0683,63.7354 582.2083,64.0388 C582.2083,64.0504 582.2083,64.0621 582.2083,64.0738 C582.1617,64.1554 582.08,64.2021 581.9517,64.3304 C581.625,64.6571 581.5783,64.0854 581.4383,63.9688 C581.2867,63.8288 580.7383,63.9921 580.6683,63.8171 C580.5867,63.6071 581.2517,63.3271 581.695,63.1988 " fill="#000000" style="stroke:;stroke-width:0.0;stroke-dasharray:;"/><text fill="#000000" font-family="sans-serif" font-size="14" lengthAdjust="spacing" textLength="75" x="584.6667" y="70.292">Application</text><rect fill="#F1F1F1" height="36.2969" rx="12.5" ry="12.5" style="stroke:#181818;stroke-width:1.5;" width="67" x="55" y="108.5938"/><text fill="#000000" font-family="sans-serif" font-size="14" lengthAdjust="spacing" textLength="47" x="65" y="131.5889">Navbar</text><rect fill="#F1F1F1" height="36.2969" rx="12.5" ry="12.5" style="stroke:#181818;stroke-width:1.5;" width="75" x="51" y="169.8906"/><text fill="#000000" font-family="sans-serif" font-size="14" lengthAdjust="spacing" textLength="55" x="61" y="192.8857">NavItem</text><path d="M88.5,144.8906 L88.5,147.8906 C88.5,154.8906 88.5,159.8906 88.5,166.8906 L88.5,169.8906 " fill="none" style="stroke:#181818;stroke-width:1.0;"/><path d="M616.5,83.5938 L616.5,86.5938 C616.5,93.5938 88.5,98.5938 88.5,105.5938 L88.5,108.5938 " fill="none" style="stroke:#181818;stroke-width:1.0;"/><rect fill="#F1F1F1" height="36.2969" rx="12.5" ry="12.5" style="stroke:#181818;stroke-width:1.5;" width="94" x="617" y="108.5938"/><text fill="#000000" font-family="sans-serif" font-size="14" lengthAdjust="spacing" textLength="74" x="627" y="131.5889">MainRoute</text><rect fill="#F1F1F1" height="36.2969" rx="12.5" ry="12.5" style="stroke:#181818;stroke-width:1.5;" width="76" x="626" y="169.8906"/><text fill="#000000" font-family="sans-serif" font-size="14" lengthAdjust="spacing" textLength="56" x="636" y="192.8857">Projects</text><rect fill="#F1F1F1" height="36.2969" rx="12.5" ry="12.5" style="stroke:#181818;stroke-width:1.5;" width="103" x="612.5" y="231.1875"/><text fill="#000000" font-family="sans-serif" font-size="14" lengthAdjust="spacing" textLength="83" x="622.5" y="254.1826">ProjectPage</text><rect fill="#F1F1F1" height="52.5938" rx="12.5" ry="12.5" style="stroke:#181818;stroke-width:1.5;" width="141" x="146" y="292.4844"/><text fill="#000000" font-family="sans-serif" font-size="14" lengthAdjust="spacing" textLength="121" x="156" y="315.4795">ProjectPageTable</text><text fill="#000000" font-family="sans-serif" font-size="14" lengthAdjust="spacing" textLength="87" x="156" y="331.7764">(Project Info)</text><path d="M664,267.4844 L664,270.4844 C664,277.4844 216.5,282.4844 216.5,289.4844 L216.5,292.4844 " fill="none" style="stroke:#181818;stroke-width:1.0;"/><rect fill="#F1F1F1" height="52.5938" rx="12.5" ry="12.5" style="stroke:#181818;stroke-width:1.5;" width="67" x="307" y="292.4844"/><text fill="#000000" font-family="sans-serif" font-size="14" lengthAdjust="spacing" textLength="47" x="317" y="315.4795">Button</text><text fill="#000000" font-family="sans-serif" font-size="14" lengthAdjust="spacing" textLength="44" x="317" y="331.7764">(Back)</text><path d="M664,267.4844 L664,270.4844 C664,277.4844 340.5,282.4844 340.5,289.4844 L340.5,292.4844 " fill="none" style="stroke:#181818;stroke-width:1.0;"/><rect fill="#F1F1F1" height="52.5938" rx="12.5" ry="12.5" style="stroke:#181818;stroke-width:1.5;" width="143" x="394" y="292.4844"/><text fill="#000000" font-family="sans-serif" font-size="14" lengthAdjust="spacing" textLength="47" x="404" y="315.4795">Button</text><text fill="#000000" font-family="sans-serif" font-size="14" lengthAdjust="spacing" textLength="123" x="404" y="331.7764">(Product Backlog)</text><path d="M664,267.4844 L664,270.4844 C664,277.4844 465.5,282.4844 465.5,289.4844 L465.5,292.4844 " fill="none" style="stroke:#181818;stroke-width:1.0;"/><rect fill="#F1F1F1" height="52.5938" rx="12.5" ry="12.5" style="stroke:#181818;stroke-width:1.5;" width="105" x="557" y="292.4844"/><text fill="#000000" font-family="sans-serif" font-size="14" lengthAdjust="spacing" textLength="47" x="567" y="315.4795">Button</text><text fill="#000000" font-family="sans-serif" font-size="14" lengthAdjust="spacing" textLength="85" x="567" y="331.7764">(Resources)</text><path d="M664,267.4844 L664,270.4844 C664,277.4844 609.5,282.4844 609.5,289.4844 L609.5,292.4844 " fill="none" style="stroke:#181818;stroke-width:1.0;"/><rect fill="#F1F1F1" height="52.5938" rx="12.5" ry="12.5" style="stroke:#181818;stroke-width:1.5;" width="78" x="682" y="292.4844"/><text fill="#000000" font-family="sans-serif" font-size="14" lengthAdjust="spacing" textLength="47" x="692" y="315.4795">Button</text><text fill="#000000" font-family="sans-serif" font-size="14" lengthAdjust="spacing" textLength="58" x="692" y="331.7764">(Sprints)</text><rect fill="#F1F1F1" height="36.2969" rx="12.5" ry="12.5" style="stroke:#181818;stroke-width:1.5;" width="99" x="671.5" y="370.0781"/><text fill="#000000" font-family="sans-serif" font-size="14" lengthAdjust="spacing" textLength="79" x="681.5" y="393.0732">Sprint Page</text><rect fill="#F1F1F1" height="52.5938" rx="12.5" ry="12.5" style="stroke:#181818;stroke-width:1.5;" width="120" x="260" y="431.375"/><text fill="#000000" font-family="sans-serif" font-size="14" lengthAdjust="spacing" textLength="47" x="270" y="454.3701">Button</text><text fill="#000000" font-family="sans-serif" font-size="14" lengthAdjust="spacing" textLength="100" x="270" y="470.667">(Create Sprint)</text><path d="M721,406.375 L721,409.375 C721,416.375 320,421.375 320,428.375 L320,431.375 " fill="none" style="stroke:#181818;stroke-width:1.0;"/><rect fill="#F1F1F1" height="52.5938" rx="12.5" ry="12.5" style="stroke:#181818;stroke-width:1.5;" width="97" x="400" y="431.375"/><text fill="#000000" font-family="sans-serif" font-size="14" lengthAdjust="spacing" textLength="47" x="410" y="454.3701">Button</text><text fill="#000000" font-family="sans-serif" font-size="14" lengthAdjust="spacing" textLength="77" x="410" y="470.667">(All Sprints)</text><path d="M721,406.375 L721,409.375 C721,416.375 448.5,421.375 448.5,428.375 L448.5,431.375 " fill="none" style="stroke:#181818;stroke-width:1.0;"/><rect fill="#F1F1F1" height="36.2969" rx="12.5" ry="12.5" style="stroke:#181818;stroke-width:1.5;" width="160" x="517" y="431.375"/><text fill="#000000" font-family="sans-serif" font-size="14" lengthAdjust="spacing" textLength="140" x="527" y="454.3701">CurrentlyOpenSprint</text><path d="M721,406.375 L721,409.375 C721,416.375 597,421.375 597,428.375 L597,431.375 " fill="none" style="stroke:#181818;stroke-width:1.0;"/><rect fill="#F1F1F1" height="52.5938" rx="12.5" ry="12.5" style="stroke:#181818;stroke-width:1.5;" width="113" x="697" y="431.375"/><text fill="#000000" font-family="sans-serif" font-size="14" lengthAdjust="spacing" textLength="47" x="707" y="454.3701">Button</text><text fill="#000000" font-family="sans-serif" font-size="14" lengthAdjust="spacing" textLength="93" x="707" y="470.667">(Close Sprint)</text><path d="M721,406.375 L721,409.375 C721,416.375 753.5,421.375 753.5,428.375 L753.5,431.375 " fill="none" style="stroke:#181818;stroke-width:1.0;"/><rect fill="#F1F1F1" height="52.5938" rx="12.5" ry="12.5" style="stroke:#181818;stroke-width:1.5;" width="132" x="830" y="431.375"/><text fill="#000000" font-family="sans-serif" font-size="14" lengthAdjust="spacing" textLength="47" x="840" y="454.3701">Button</text><text fill="#000000" font-family="sans-serif" font-size="14" lengthAdjust="spacing" textLength="112" x="840" y="470.667">(Add User Story)</text><rect fill="#F1F1F1" height="52.5938" rx="12.5" ry="12.5" style="stroke:#181818;stroke-width:1.5;" width="148" x="822" y="508.9688"/><text fill="#000000" font-family="sans-serif" font-size="14" lengthAdjust="spacing" textLength="108" x="832" y="531.9639">UserStoryModal</text><text fill="#000000" font-family="sans-serif" font-size="14" lengthAdjust="spacing" textLength="128" x="832" y="548.2607">(Select User Story)</text><rect fill="#F1F1F1" height="52.5938" rx="12.5" ry="12.5" style="stroke:#181818;stroke-width:1.5;" width="77" x="770.5" y="586.5625"/><text fill="#000000" font-family="sans-serif" font-size="14" lengthAdjust="spacing" textLength="47" x="780.5" y="609.5576">Button</text><text fill="#000000" font-family="sans-serif" font-size="14" lengthAdjust="spacing" textLength="57" x="780.5" y="625.8545">(Cancel)</text><path d="M896,561.5625 L896,564.5625 C896,571.5625 809,576.5625 809,583.5625 L809,586.5625 " fill="none" style="stroke:#181818;stroke-width:1.0;"/><rect fill="#F1F1F1" height="36.2969" rx="12.5" ry="12.5" style="stroke:#181818;stroke-width:1.5;" width="94" x="897.5" y="586.5625"/><text fill="#000000" font-family="sans-serif" font-size="14" lengthAdjust="spacing" textLength="74" x="907.5" y="609.5576">SearchBox</text><rect fill="#F1F1F1" height="52.5938" rx="12.5" ry="12.5" style="stroke:#181818;stroke-width:1.5;" width="67" x="867.5" y="647.8594"/><text fill="#000000" font-family="sans-serif" font-size="14" lengthAdjust="spacing" textLength="47" x="877.5" y="670.8545">Button</text><text fill="#000000" font-family="sans-serif" font-size="14" lengthAdjust="spacing" textLength="45" x="877.5" y="687.1514">(Clear)</text><path d="M944.5,622.8594 L944.5,625.8594 C944.5,632.8594 901,637.8594 901,644.8594 L901,647.8594 " fill="none" style="stroke:#181818;stroke-width:1.0;"/><rect fill="#F1F1F1" height="52.5938" rx="12.5" ry="12.5" style="stroke:#181818;stroke-width:1.5;" width="67" x="954.5" y="647.8594"/><text fill="#000000" font-family="sans-serif" font-size="14" lengthAdjust="spacing" textLength="47" x="964.5" y="670.8545">Button</text><text fill="#000000" font-family="sans-serif" font-size="14" lengthAdjust="spacing" textLength="37" x="964.5" y="687.1514">(Add)</text><path d="M944.5,622.8594 L944.5,625.8594 C944.5,632.8594 988,637.8594 988,644.8594 L988,647.8594 " fill="none" style="stroke:#181818;stroke-width:1.0;"/><path d="M896,561.5625 L896,564.5625 C896,571.5625 944.5,576.5625 944.5,583.5625 L944.5,586.5625 " fill="none" style="stroke:#181818;stroke-width:1.0;"/><path d="M896,483.9688 L896,486.9688 C896,493.9688 896,498.9688 896,505.9688 L896,508.9688 " fill="none" style="stroke:#181818;stroke-width:1.0;"/><path d="M721,406.375 L721,409.375 C721,416.375 896,421.375 896,428.375 L896,431.375 " fill="none" style="stroke:#181818;stroke-width:1.0;"/><rect fill="#F1F1F1" height="52.5938" rx="12.5" ry="12.5" style="stroke:#181818;stroke-width:1.5;" width="67" x="982" y="431.375"/><text fill="#000000" font-family="sans-serif" font-size="14" lengthAdjust="spacing" textLength="47" x="992" y="454.3701">Button</text><text fill="#000000" font-family="sans-serif" font-size="14" lengthAdjust="spacing" textLength="44" x="992" y="470.667">(Back)</text><path d="M721,406.375 L721,409.375 C721,416.375 1015.5,421.375 1015.5,428.375 L1015.5,431.375 " fill="none" style="stroke:#181818;stroke-width:1.0;"/><rect fill="#F1F1F1" height="36.2969" rx="12.5" ry="12.5" style="stroke:#181818;stroke-width:1.5;" width="105" x="1073" y="431.375"/><text fill="#000000" font-family="sans-serif" font-size="14" lengthAdjust="spacing" textLength="85" x="1083" y="454.3701">ScrumBoard</text><rect fill="#F1F1F1" height="36.2969" rx="12.5" ry="12.5" style="stroke:#181818;stroke-width:1.5;" width="113" x="1069" y="492.6719"/><text fill="#000000" font-family="sans-serif" font-size="14" lengthAdjust="spacing" textLength="93" x="1079" y="515.667">UserStoryBox</text><path d="M1125.5,467.6719 L1125.5,470.6719 C1125.5,477.6719 1125.5,482.6719 1125.5,489.6719 L1125.5,492.6719 " fill="none" style="stroke:#181818;stroke-width:1.0;"/><path d="M721,406.375 L721,409.375 C721,416.375 1125.5,421.375 1125.5,428.375 L1125.5,431.375 " fill="none" style="stroke:#181818;stroke-width:1.0;"/><path d="M721,345.0781 L721,348.0781 C721,355.0781 721,360.0781 721,367.0781 L721,370.0781 " fill="none" style="stroke:#181818;stroke-width:1.0;"/><path d="M664,267.4844 L664,270.4844 C664,277.4844 721,282.4844 721,289.4844 L721,292.4844 " fill="none" style="stroke:#181818;stroke-width:1.0;"/><path d="M664,206.1875 L664,209.1875 C664,216.1875 664,221.1875 664,228.1875 L664,231.1875 " fill="none" style="stroke:#181818;stroke-width:1.0;"/><path d="M664,144.8906 L664,147.8906 C664,154.8906 664,159.8906 664,166.8906 L664,169.8906 " fill="none" style="stroke:#181818;stroke-width:1.0;"/><path d="M616.5,83.5938 L616.5,86.5938 C616.5,93.5938 664,98.5938 664,105.5938 L664,108.5938 " fill="none" style="stroke:#181818;stroke-width:1.0;"/><!--SRC=[VPDRZzCm48NV_Ilc2RNHTjKBWgL2Q9lkWheqKFMolF0oIMPRWsD7Zjsb_vvnUgSLRvdpJOx7zl5zvT2wGkgym5889vqYMCpQlIwqO501mfomW8IAbEmDZE0LjGDd0FESeQ_8GkMCtO3Ku5O4fJMvpnoacFrMPXbQWroLLkg3UWEvvtfvYag5MWSj8qk5qGV7LqfXCHBEbC4iDSwP0d9fANFIQ24Y-FXcgKnAdmPbgMI6jHn5y0tNALh-gZz7ZegW9YZrr7X7DPXOyukDgb0SgWakQtgkp35Lz5CtTXACz8jfxjfYprDfXZ5ly4ASxCuatkx-Wa-fCjvcL9qJO3Ih3sSF8jZMS9pmr6Te2HtjUfgNVA0K_6COmT1RIzgfpVUIz9PUSLQc-fynXs4HeZ0BKJWqHBLOQud9KONza0fdTwtvT3dK6QbJD2EqsIesVuxQsNYCcrSHZtPbu9Dh2kQPzKLiqEPN9Wzh2d5F_4BshsJ2KNMBP0nhiXM73JgttNQtTzjhp5UU0sQX_G4wx_kzThzp1pyUvn1mKpI-JCQmlMeESEMiJ7q8QrCyuHfXwhMJ1VKXtCJJmzUz08zwBQtH1L-JU7fEZWtlthPYwVXmB4y2pubue1Vqol4VcSdvCVLXCV_SkXDZr4lFcUa3QJ4qx6itp6P_0G00]--></g></svg>