<?xml version="1.0" encoding="us-ascii" standalone="no"?><svg xmlns="http://www.w3.org/2000/svg" xmlns:xlink="http://www.w3.org/1999/xlink" contentStyleType="text/css" height="240px" preserveAspectRatio="none" style="width:356px;height:240px;background:#FFFFFF;" version="1.1" viewBox="0 0 356 240" width="356px" zoomAndPan="magnify"><defs/><g><line style="stroke:#181818;stroke-width:0.5;stroke-dasharray:5.0,5.0;" x1="64" x2="64" y1="81.2969" y2="159.5625"/><line style="stroke:#181818;stroke-width:0.5;stroke-dasharray:5.0,5.0;" x1="315" x2="315" y1="81.2969" y2="159.5625"/><text fill="#000000" font-family="sans-serif" font-size="14" lengthAdjust="spacing" textLength="112" x="5" y="77.9951">Project Manager</text><ellipse cx="64" cy="13.5" fill="#E2E2F0" rx="8" ry="8" style="stroke:#181818;stroke-width:0.5;"/><path d="M64,21.5 L64,48.5 M51,29.5 L77,29.5 M64,48.5 L51,63.5 M64,48.5 L77,63.5 " fill="none" style="stroke:#181818;stroke-width:0.5;"/><text fill="#000000" font-family="sans-serif" font-size="14" lengthAdjust="spacing" textLength="112" x="5" y="171.5576">Project Manager</text><ellipse cx="64" cy="183.3594" fill="#E2E2F0" rx="8" ry="8" style="stroke:#181818;stroke-width:0.5;"/><path d="M64,191.3594 L64,218.3594 M51,199.3594 L77,199.3594 M64,218.3594 L51,233.3594 M64,218.3594 L77,233.3594 " fill="none" style="stroke:#181818;stroke-width:0.5;"/><rect fill="#E2E2F0" height="30.2969" rx="2.5" ry="2.5" style="stroke:#181818;stroke-width:0.5;" width="70" x="280" y="50"/><text fill="#000000" font-family="sans-serif" font-size="14" lengthAdjust="spacing" textLength="56" x="287" y="69.9951">:System</text><rect fill="#E2E2F0" height="30.2969" rx="2.5" ry="2.5" style="stroke:#181818;stroke-width:0.5;" width="70" x="280" y="158.5625"/><text fill="#000000" font-family="sans-serif" font-size="14" lengthAdjust="spacing" textLength="56" x="287" y="178.5576">:System</text><polygon fill="#181818" points="303,108.4297,313,112.4297,303,116.4297,307,112.4297" style="stroke:#181818;stroke-width:1.0;"/><line style="stroke:#181818;stroke-width:1.0;" x1="64" x2="309" y1="112.4297" y2="112.4297"/><text fill="#000000" font-family="sans-serif" font-size="13" font-weight="bold" lengthAdjust="spacing" textLength="9" x="115.5" y="107.3638">1</text><text fill="#000000" font-family="sans-serif" font-size="13" lengthAdjust="spacing" textLength="135" x="128.5" y="107.3638">associates resources</text><polygon fill="#181818" points="75,137.5625,65,141.5625,75,145.5625,71,141.5625" style="stroke:#181818;stroke-width:1.0;"/><line style="stroke:#181818;stroke-width:1.0;stroke-dasharray:2.0,2.0;" x1="69" x2="314" y1="141.5625" y2="141.5625"/><text fill="#000000" font-family="sans-serif" font-size="13" font-weight="bold" lengthAdjust="spacing" textLength="9" x="76" y="136.4966">2</text><text fill="#000000" font-family="sans-serif" font-size="13" lengthAdjust="spacing" textLength="214" x="89" y="136.4966">confirms association of resources</text><!--SRC=[JOn13i8m30JlUONLUp_G0n8FY1I95nZBhGB4BhPpuFT4525kkvhPzNkL7GqRE3yx2t5cTzpu_AYR0B44My8UAhrTHqn8eGPJCRqn1MIKOTi4w51o6bzHgUue0TDoUNbm-x0ZfbGopATlMmPmfOh13iQktOWz7H3cuPMy0AcirPh_vAe2kluDtW00]--></g></svg>