<?xml version="1.0" encoding="us-ascii" standalone="no"?><svg xmlns="http://www.w3.org/2000/svg" xmlns:xlink="http://www.w3.org/1999/xlink" contentStyleType="text/css" height="743px" preserveAspectRatio="none" style="width:1805px;height:743px;background:#FFFFFF;" version="1.1" viewBox="0 0 1805 743" width="1805px" zoomAndPan="magnify"><defs/><g><text fill="#000000" font-family="sans-serif" font-size="14" font-weight="bold" lengthAdjust="spacing" textLength="721" x="538.75" y="27.9951">US033 - As Project Member, I want to update the status (i.e.: the Scrum Board category) of</text><text fill="#000000" font-family="sans-serif" font-size="14" font-weight="bold" lengthAdjust="spacing" textLength="598" x="602.75" y="44.292">a user story in the scope of the current/active sprint backlog in the web UI.</text><rect fill="#FFFFFF" height="463.6172" style="stroke:#181818;stroke-width:1.0;" width="10" x="233.5" y="181.1563"/><rect fill="#FFFFFF" height="390.2188" style="stroke:#181818;stroke-width:1.0;" width="10" x="611.5" y="225.4219"/><rect fill="#FFFFFF" height="274.3594" style="stroke:#181818;stroke-width:1.0;" width="10" x="998.5" y="312.1484"/><rect fill="#FFFFFF" height="29.1328" style="stroke:#181818;stroke-width:1.0;" width="10" x="1175.5" y="341.2813"/><rect fill="#FFFFFF" height="29.1328" style="stroke:#181818;stroke-width:1.0;" width="10" x="1175.5" y="428.6797"/><rect fill="#FFFFFF" height="70.4297" style="stroke:#181818;stroke-width:1.0;" width="10" x="1516" y="486.9453"/><line style="stroke:#181818;stroke-width:0.5;stroke-dasharray:5.0,5.0;" x1="66" x2="66" y1="134.8906" y2="662.7734"/><line style="stroke:#181818;stroke-width:0.5;stroke-dasharray:5.0,5.0;" x1="238" x2="238" y1="134.8906" y2="662.7734"/><line style="stroke:#181818;stroke-width:0.5;stroke-dasharray:5.0,5.0;" x1="616.5" x2="616.5" y1="134.8906" y2="662.7734"/><line style="stroke:#181818;stroke-width:0.5;stroke-dasharray:5.0,5.0;" x1="759.5" x2="759.5" y1="272.2188" y2="662.7734"/><line style="stroke:#181818;stroke-width:0.5;stroke-dasharray:5.0,5.0;" x1="1003.5" x2="1003.5" y1="134.8906" y2="662.7734"/><line style="stroke:#181818;stroke-width:0.5;stroke-dasharray:5.0,5.0;" x1="1180.5" x2="1180.5" y1="134.8906" y2="662.7734"/><line style="stroke:#181818;stroke-width:0.5;stroke-dasharray:5.0,5.0;" x1="1338.5" x2="1338.5" y1="134.8906" y2="662.7734"/><line style="stroke:#181818;stroke-width:0.5;stroke-dasharray:5.0,5.0;" x1="1520.5" x2="1520.5" y1="134.8906" y2="662.7734"/><line style="stroke:#181818;stroke-width:0.5;stroke-dasharray:5.0,5.0;" x1="1716.5" x2="1716.5" y1="525.5938" y2="662.7734"/><text fill="#000000" font-family="sans-serif" font-size="14" lengthAdjust="spacing" textLength="117" x="5" y="131.5889">:Project Manager</text><ellipse cx="66.5" cy="67.0938" fill="#FFFFFF" rx="8" ry="8" style="stroke:#181818;stroke-width:0.5;"/><path d="M66.5,75.0938 L66.5,102.0938 M53.5,83.0938 L79.5,83.0938 M66.5,102.0938 L53.5,117.0938 M66.5,102.0938 L79.5,117.0938 " fill="none" style="stroke:#181818;stroke-width:0.5;"/><text fill="#000000" font-family="sans-serif" font-size="14" lengthAdjust="spacing" textLength="117" x="5" y="674.7686">:Project Manager</text><ellipse cx="66.5" cy="686.5703" fill="#FFFFFF" rx="8" ry="8" style="stroke:#181818;stroke-width:0.5;"/><path d="M66.5,694.5703 L66.5,721.5703 M53.5,702.5703 L79.5,702.5703 M66.5,721.5703 L53.5,736.5703 M66.5,721.5703 L79.5,736.5703 " fill="none" style="stroke:#181818;stroke-width:0.5;"/><rect fill="#FFFFFF" height="30.2969" rx="2.5" ry="2.5" style="stroke:#181818;stroke-width:0.5;" width="197" x="140" y="103.5938"/><text fill="#000000" font-family="sans-serif" font-size="14" lengthAdjust="spacing" textLength="183" x="147" y="123.5889">:ChangeUserStoryStatusUI</text><rect fill="#FFFFFF" height="30.2969" rx="2.5" ry="2.5" style="stroke:#181818;stroke-width:0.5;" width="197" x="140" y="661.7734"/><text fill="#000000" font-family="sans-serif" font-size="14" lengthAdjust="spacing" textLength="183" x="147" y="681.7686">:ChangeUserStoryStatusUI</text><rect fill="#FFFFFF" height="46.5938" rx="2.5" ry="2.5" style="stroke:#181818;stroke-width:0.5;" width="86" x="573.5" y="87.2969"/><text fill="#000000" font-family="sans-serif" font-size="14" lengthAdjust="spacing" textLength="72" x="580.5" y="107.292">:UserStory</text><text fill="#000000" font-family="sans-serif" font-size="14" lengthAdjust="spacing" textLength="67" x="583" y="123.5889">Controller</text><rect fill="#FFFFFF" height="46.5938" rx="2.5" ry="2.5" style="stroke:#181818;stroke-width:0.5;" width="86" x="573.5" y="661.7734"/><text fill="#000000" font-family="sans-serif" font-size="14" lengthAdjust="spacing" textLength="72" x="580.5" y="681.7686">:UserStory</text><text fill="#000000" font-family="sans-serif" font-size="14" lengthAdjust="spacing" textLength="67" x="583" y="698.0654">Controller</text><rect fill="#FFFFFF" height="46.5938" rx="2.5" ry="2.5" style="stroke:#181818;stroke-width:0.5;" width="100" x="709.5" y="661.7734"/><text fill="#000000" font-family="sans-serif" font-size="14" lengthAdjust="spacing" textLength="85" x="717" y="681.7686">&#171;DomainID&#187;</text><text fill="#000000" font-family="sans-serif" font-size="14" lengthAdjust="spacing" textLength="86" x="716.5" y="698.0654">:UserStoryID</text><rect fill="#FFFFFF" height="30.2969" rx="2.5" ry="2.5" style="stroke:#181818;stroke-width:0.5;" width="136" x="935.5" y="103.5938"/><text fill="#000000" font-family="sans-serif" font-size="14" lengthAdjust="spacing" textLength="122" x="942.5" y="123.5889">:UserStoryService</text><rect fill="#FFFFFF" height="30.2969" rx="2.5" ry="2.5" style="stroke:#181818;stroke-width:0.5;" width="136" x="935.5" y="661.7734"/><text fill="#000000" font-family="sans-serif" font-size="14" lengthAdjust="spacing" textLength="122" x="942.5" y="681.7686">:UserStoryService</text><rect fill="#FFFFFF" height="46.5938" rx="2.5" ry="2.5" style="stroke:#181818;stroke-width:0.5;" width="160" x="1100.5" y="87.2969"/><text fill="#000000" font-family="sans-serif" font-size="14" lengthAdjust="spacing" textLength="92" x="1134.5" y="107.292">&#171;Repository&#187;</text><text fill="#000000" font-family="sans-serif" font-size="14" lengthAdjust="spacing" textLength="146" x="1107.5" y="123.5889">:UserStoryRepository</text><rect fill="#FFFFFF" height="46.5938" rx="2.5" ry="2.5" style="stroke:#181818;stroke-width:0.5;" width="160" x="1100.5" y="661.7734"/><text fill="#000000" font-family="sans-serif" font-size="14" lengthAdjust="spacing" textLength="92" x="1134.5" y="681.7686">&#171;Repository&#187;</text><text fill="#000000" font-family="sans-serif" font-size="14" lengthAdjust="spacing" textLength="146" x="1107.5" y="698.0654">:UserStoryRepository</text><rect fill="#FFFFFF" height="46.5938" rx="2.5" ry="2.5" style="stroke:#181818;stroke-width:0.5;" width="137" x="1270.5" y="87.2969"/><text fill="#000000" font-family="sans-serif" font-size="14" lengthAdjust="spacing" textLength="123" x="1277.5" y="107.292">&#171;AggregateRoot&#187;</text><text fill="#000000" font-family="sans-serif" font-size="14" lengthAdjust="spacing" textLength="72" x="1303" y="123.5889">:UserStory</text><rect fill="#FFFFFF" height="46.5938" rx="2.5" ry="2.5" style="stroke:#181818;stroke-width:0.5;" width="137" x="1270.5" y="661.7734"/><text fill="#000000" font-family="sans-serif" font-size="14" lengthAdjust="spacing" textLength="123" x="1277.5" y="681.7686">&#171;AggregateRoot&#187;</text><text fill="#000000" font-family="sans-serif" font-size="14" lengthAdjust="spacing" textLength="72" x="1303" y="698.0654">:UserStory</text><rect fill="#FFFFFF" height="30.2969" rx="2.5" ry="2.5" style="stroke:#181818;stroke-width:0.5;" width="207" x="1417.5" y="103.5938"/><text fill="#000000" font-family="sans-serif" font-size="14" lengthAdjust="spacing" textLength="193" x="1424.5" y="123.5889">:OutputUserStoryAssembler</text><rect fill="#FFFFFF" height="30.2969" rx="2.5" ry="2.5" style="stroke:#181818;stroke-width:0.5;" width="207" x="1417.5" y="661.7734"/><text fill="#000000" font-family="sans-serif" font-size="14" lengthAdjust="spacing" textLength="193" x="1424.5" y="681.7686">:OutputUserStoryAssembler</text><rect fill="#FFFFFF" height="30.2969" rx="2.5" ry="2.5" style="stroke:#181818;stroke-width:0.5;" width="165" x="1634.5" y="661.7734"/><text fill="#000000" font-family="sans-serif" font-size="14" lengthAdjust="spacing" textLength="151" x="1641.5" y="681.7686">:OutputUserStoryDTO</text><rect fill="#FFFFFF" height="463.6172" style="stroke:#181818;stroke-width:1.0;" width="10" x="233.5" y="181.1563"/><rect fill="#FFFFFF" height="390.2188" style="stroke:#181818;stroke-width:1.0;" width="10" x="611.5" y="225.4219"/><rect fill="#FFFFFF" height="274.3594" style="stroke:#181818;stroke-width:1.0;" width="10" x="998.5" y="312.1484"/><rect fill="#FFFFFF" height="29.1328" style="stroke:#181818;stroke-width:1.0;" width="10" x="1175.5" y="341.2813"/><rect fill="#FFFFFF" height="29.1328" style="stroke:#181818;stroke-width:1.0;" width="10" x="1175.5" y="428.6797"/><rect fill="#FFFFFF" height="70.4297" style="stroke:#181818;stroke-width:1.0;" width="10" x="1516" y="486.9453"/><polygon fill="#181818" points="221.5,177.1563,231.5,181.1563,221.5,185.1563,225.5,181.1563" style="stroke:#181818;stroke-width:1.0;"/><line style="stroke:#181818;stroke-width:1.0;" x1="66.5" x2="227.5" y1="181.1563" y2="181.1563"/><text fill="#000000" font-family="sans-serif" font-size="13" font-weight="bold" lengthAdjust="spacing" textLength="9" x="76" y="168.5239">1</text><text fill="#000000" font-family="sans-serif" font-size="13" lengthAdjust="spacing" textLength="135" x="89" y="160.9575">Ask to change status</text><text fill="#000000" font-family="sans-serif" font-size="13" lengthAdjust="spacing" textLength="84" x="114.5" y="176.0903">of User Story</text><polygon fill="#181818" points="599.5,221.4219,609.5,225.4219,599.5,229.4219,603.5,225.4219" style="stroke:#181818;stroke-width:1.0;"/><line style="stroke:#181818;stroke-width:1.0;" x1="243.5" x2="605.5" y1="225.4219" y2="225.4219"/><text fill="#000000" font-family="sans-serif" font-size="13" font-weight="bold" lengthAdjust="spacing" textLength="9" x="253" y="212.7896">2</text><text fill="#000000" font-family="sans-serif" font-size="13" lengthAdjust="spacing" textLength="151" x="358.5" y="205.2231">updateUserStoryStatus</text><text fill="#000000" font-family="sans-serif" font-size="13" lengthAdjust="spacing" textLength="336" x="266" y="220.356">(projectCode, userStoryCode, InputUserStoryStatus)</text><polygon fill="#181818" points="697.5,250.5547,707.5,254.5547,697.5,258.5547,701.5,254.5547" style="stroke:#181818;stroke-width:1.0;"/><line style="stroke:#181818;stroke-width:1.0;" x1="621.5" x2="703.5" y1="254.5547" y2="254.5547"/><text fill="#000000" font-family="sans-serif" font-size="13" font-weight="bold" lengthAdjust="spacing" textLength="9" x="633.5" y="249.4888">3</text><text fill="#000000" font-family="sans-serif" font-size="13" lengthAdjust="spacing" textLength="51" x="646.5" y="249.4888">create()</text><rect fill="#FFFFFF" height="46.5938" rx="2.5" ry="2.5" style="stroke:#181818;stroke-width:0.5;" width="100" x="709.5" y="233.4219"/><text fill="#000000" font-family="sans-serif" font-size="14" lengthAdjust="spacing" textLength="85" x="717" y="253.417">&#171;DomainID&#187;</text><text fill="#000000" font-family="sans-serif" font-size="14" lengthAdjust="spacing" textLength="86" x="716.5" y="269.7139">:UserStoryID</text><polygon fill="#181818" points="986.5,308.1484,996.5,312.1484,986.5,316.1484,990.5,312.1484" style="stroke:#181818;stroke-width:1.0;"/><line style="stroke:#181818;stroke-width:1.0;" x1="621.5" x2="992.5" y1="312.1484" y2="312.1484"/><text fill="#000000" font-family="sans-serif" font-size="13" font-weight="bold" lengthAdjust="spacing" textLength="9" x="631" y="307.0825">4</text><text fill="#000000" font-family="sans-serif" font-size="13" lengthAdjust="spacing" textLength="345" x="644" y="307.0825">changeUserStoryStatus(userStoryStatus, userStoryID</text><polygon fill="#181818" points="1163.5,337.2813,1173.5,341.2813,1163.5,345.2813,1167.5,341.2813" style="stroke:#181818;stroke-width:1.0;"/><line style="stroke:#181818;stroke-width:1.0;" x1="1008.5" x2="1169.5" y1="341.2813" y2="341.2813"/><text fill="#000000" font-family="sans-serif" font-size="13" font-weight="bold" lengthAdjust="spacing" textLength="9" x="1018" y="336.2153">5</text><text fill="#000000" font-family="sans-serif" font-size="13" lengthAdjust="spacing" textLength="135" x="1031" y="336.2153">findById(userStoryID)</text><polygon fill="#181818" points="1019.5,366.4141,1009.5,370.4141,1019.5,374.4141,1015.5,370.4141" style="stroke:#181818;stroke-width:1.0;"/><line style="stroke:#181818;stroke-width:1.0;stroke-dasharray:2.0,2.0;" x1="1013.5" x2="1179.5" y1="370.4141" y2="370.4141"/><text fill="#000000" font-family="sans-serif" font-size="13" font-weight="bold" lengthAdjust="spacing" textLength="9" x="1057" y="365.3481">6</text><text fill="#000000" font-family="sans-serif" font-size="13" lengthAdjust="spacing" textLength="62" x="1070" y="365.3481">userStory</text><polygon fill="#181818" points="1327,395.5469,1337,399.5469,1327,403.5469,1331,399.5469" style="stroke:#181818;stroke-width:1.0;"/><line style="stroke:#181818;stroke-width:1.0;" x1="1008.5" x2="1333" y1="399.5469" y2="399.5469"/><text fill="#000000" font-family="sans-serif" font-size="13" font-weight="bold" lengthAdjust="spacing" textLength="9" x="1065.75" y="394.481">7</text><text fill="#000000" font-family="sans-serif" font-size="13" lengthAdjust="spacing" textLength="203" x="1078.75" y="394.481">changeStatus(userStoryStatus)</text><polygon fill="#181818" points="1163.5,424.6797,1173.5,428.6797,1163.5,432.6797,1167.5,428.6797" style="stroke:#181818;stroke-width:1.0;"/><line style="stroke:#181818;stroke-width:1.0;" x1="1008.5" x2="1169.5" y1="428.6797" y2="428.6797"/><text fill="#000000" font-family="sans-serif" font-size="13" font-weight="bold" lengthAdjust="spacing" textLength="9" x="1031.5" y="423.6138">8</text><text fill="#000000" font-family="sans-serif" font-size="13" lengthAdjust="spacing" textLength="108" x="1044.5" y="423.6138">patch(userStory)</text><polygon fill="#181818" points="1019.5,453.8125,1009.5,457.8125,1019.5,461.8125,1015.5,457.8125" style="stroke:#181818;stroke-width:1.0;"/><line style="stroke:#181818;stroke-width:1.0;stroke-dasharray:2.0,2.0;" x1="1013.5" x2="1179.5" y1="457.8125" y2="457.8125"/><text fill="#000000" font-family="sans-serif" font-size="13" font-weight="bold" lengthAdjust="spacing" textLength="9" x="1057" y="452.7466">9</text><text fill="#000000" font-family="sans-serif" font-size="13" lengthAdjust="spacing" textLength="62" x="1070" y="452.7466">userStory</text><polygon fill="#181818" points="1504,482.9453,1514,486.9453,1504,490.9453,1508,486.9453" style="stroke:#181818;stroke-width:1.0;"/><line style="stroke:#181818;stroke-width:1.0;" x1="1008.5" x2="1510" y1="486.9453" y2="486.9453"/><text fill="#000000" font-family="sans-serif" font-size="13" font-weight="bold" lengthAdjust="spacing" textLength="18" x="1125.25" y="481.8794">10</text><text fill="#000000" font-family="sans-serif" font-size="13" lengthAdjust="spacing" textLength="252" x="1147.25" y="481.8794">createOutputUserStoryDTO (userStory)</text><polygon fill="#181818" points="1622.5,512.0781,1632.5,516.0781,1622.5,520.0781,1626.5,516.0781" style="stroke:#181818;stroke-width:1.0;"/><line style="stroke:#181818;stroke-width:1.0;" x1="1526" x2="1628.5" y1="516.0781" y2="516.0781"/><text fill="#000000" font-family="sans-serif" font-size="13" font-weight="bold" lengthAdjust="spacing" textLength="18" x="1543.75" y="511.0122">11</text><text fill="#000000" font-family="sans-serif" font-size="13" lengthAdjust="spacing" textLength="51" x="1565.75" y="511.0122">create()</text><rect fill="#FFFFFF" height="30.2969" rx="2.5" ry="2.5" style="stroke:#181818;stroke-width:0.5;" width="165" x="1634.5" y="494.9453"/><text fill="#000000" font-family="sans-serif" font-size="14" lengthAdjust="spacing" textLength="151" x="1641.5" y="514.9404">:OutputUserStoryDTO</text><polygon fill="#181818" points="1019.5,553.375,1009.5,557.375,1019.5,561.375,1015.5,557.375" style="stroke:#181818;stroke-width:1.0;"/><line style="stroke:#181818;stroke-width:1.0;stroke-dasharray:2.0,2.0;" x1="1013.5" x2="1520" y1="557.375" y2="557.375"/><text fill="#000000" font-family="sans-serif" font-size="13" font-weight="bold" lengthAdjust="spacing" textLength="18" x="1187.25" y="552.3091">12</text><text fill="#000000" font-family="sans-serif" font-size="13" lengthAdjust="spacing" textLength="133" x="1209.25" y="552.3091">outputUserStoryDTO</text><polygon fill="#181818" points="632.5,582.5078,622.5,586.5078,632.5,590.5078,628.5,586.5078" style="stroke:#181818;stroke-width:1.0;"/><line style="stroke:#181818;stroke-width:1.0;stroke-dasharray:2.0,2.0;" x1="626.5" x2="1002.5" y1="586.5078" y2="586.5078"/><text fill="#000000" font-family="sans-serif" font-size="13" font-weight="bold" lengthAdjust="spacing" textLength="18" x="735" y="581.4419">13</text><text fill="#000000" font-family="sans-serif" font-size="13" lengthAdjust="spacing" textLength="133" x="757" y="581.4419">outputUserStoryDTO</text><polygon fill="#181818" points="254.5,611.6406,244.5,615.6406,254.5,619.6406,250.5,615.6406" style="stroke:#181818;stroke-width:1.0;"/><line style="stroke:#181818;stroke-width:1.0;stroke-dasharray:2.0,2.0;" x1="248.5" x2="615.5" y1="615.6406" y2="615.6406"/><text fill="#000000" font-family="sans-serif" font-size="13" font-weight="bold" lengthAdjust="spacing" textLength="18" x="360.5" y="610.5747">14</text><text fill="#000000" font-family="sans-serif" font-size="13" lengthAdjust="spacing" textLength="117" x="382.5" y="610.5747">responseEntity.OK</text><polygon fill="#181818" points="77.5,640.7734,67.5,644.7734,77.5,648.7734,73.5,644.7734" style="stroke:#181818;stroke-width:1.0;"/><line style="stroke:#181818;stroke-width:1.0;stroke-dasharray:2.0,2.0;" x1="71.5" x2="237.5" y1="644.7734" y2="644.7734"/><text fill="#000000" font-family="sans-serif" font-size="13" font-weight="bold" lengthAdjust="spacing" textLength="18" x="116" y="639.7075">15</text><text fill="#000000" font-family="sans-serif" font-size="13" lengthAdjust="spacing" textLength="51" x="138" y="639.7075">success</text><!--SRC=[bLNBRjim4BphAnOvsKZY5iZD20pu4RH24RYmwvilDBMMMSiaoqSC_tsNUajnNXTPIyxE3Za3sHw5rCom4rZyvr5oV4PhMOhJJAGIE4g79h8rYd6dp8pnOsgKbybSPSh0-I0Sja3qT88BpQJx25fDNU4UJNZvSiDFP0cQpxRz88o-3ewOTqhwquuE73dXCeJD-ll30zp3rC9le_uYT_2C0N07CPpfUE0KU9qmX-0E2DOnvoqCn0X7utnbpOq_mKmnam0dMAhCPGXg3rl9m5iqr4DB86H1m9N6i1qAxWsTq7sZEnSljAUDe8ax4f-fjEeuumusyOZK1sVWPbmBPP9iD3V0RE5QrBA5SFC3aobkIC8wA5ZdqZTnZlUY1wvXMpbNqXcLPIKrhyjko-FZGfsOaF5YCjdAXY1U51EQ-grHQpGlWcCNNYxsPwrGAoi2e3kjMU_IDEjzfccQ6ap9gPLIhalMfUZ9NdgdlQknKsifADKbiQfwlsdnPvd3wRVoytv2PjpUmfWoU0nfuxbjPTAsag8Isg6Gv4LeQ2p96ujyzepUoe4kWZ9N2TurnohAMBPr5It3Y1iCIMzxrypAfJOxDBY03uPlWKelSv7yMXe7lblVTKRtUJhSZS4v_Lx8P7Q9aq6BO1WPTDx8bgNlKjOghuiRVacGPeuV6efFQgbpLDnPVh-lCmHjtjAp4AcwEr05NCkYShnwHVRnZa6hbRJu9EcZUHajVrKRrdDEVoR_0G00]--></g></svg>