<?xml version="1.0" encoding="us-ascii" standalone="no"?><svg xmlns="http://www.w3.org/2000/svg" xmlns:xlink="http://www.w3.org/1999/xlink" contentStyleType="text/css" height="706px" preserveAspectRatio="none" style="width:752px;height:706px;background:#FFFFFF;" version="1.1" viewBox="0 0 752 706" width="752px" zoomAndPan="magnify"><defs/><g><text fill="#000000" font-family="sans-serif" font-size="14" font-weight="bold" lengthAdjust="spacing" textLength="724" x="10" y="22.9951">US028 - As Manager, I want to associate a user as Team Member of a project in the web UI.</text><text fill="#000000" font-family="sans-serif" font-size="14" font-weight="bold" lengthAdjust="spacing" textLength="562" x="91" y="39.292">US029 - As Manager, I want to define the PO of a project in the web UI.</text><text fill="#000000" font-family="sans-serif" font-size="14" font-weight="bold" lengthAdjust="spacing" textLength="563" x="90.5" y="55.5889">US030 - As Manager, I want to define the SM of a project in the web UI.</text><!--cluster src--><g id="cluster_src"><path d="M261.5,75.8906 L287.5,75.8906 A3.75,3.75 0 0 1 290,78.3906 L297,98.1875 L495.5,98.1875 A2.5,2.5 0 0 1 498,100.6875 L498,697.1106 A2.5,2.5 0 0 1 495.5,699.6106 L261.5,699.6106 A2.5,2.5 0 0 1 259,697.1106 L259,78.3906 A2.5,2.5 0 0 1 261.5,75.8906 " fill="none" style="stroke:#000000;stroke-width:1.5;"/><line style="stroke:#000000;stroke-width:1.5;" x1="259" x2="297" y1="98.1875" y2="98.1875"/><text fill="#000000" font-family="sans-serif" font-size="14" font-weight="bold" lengthAdjust="spacing" textLength="25" x="263" y="90.8857">src</text></g><!--cluster components--><g id="cluster_components"><path d="M311.5,353.6106 L410.5,353.6106 A3.75,3.75 0 0 1 413,356.1106 L420,375.9075 L455.5,375.9075 A2.5,2.5 0 0 1 458,378.4075 L458,471.1106 A2.5,2.5 0 0 1 455.5,473.6106 L311.5,473.6106 A2.5,2.5 0 0 1 309,471.1106 L309,356.1106 A2.5,2.5 0 0 1 311.5,353.6106 " fill="none" style="stroke:#000000;stroke-width:1.5;"/><line style="stroke:#000000;stroke-width:1.5;" x1="309" x2="420" y1="375.9075" y2="375.9075"/><text fill="#000000" font-family="sans-serif" font-size="14" font-weight="bold" lengthAdjust="spacing" textLength="98" x="313" y="368.6057">components</text></g><path d="M347,163.6106 L393,163.6106 A3.75,3.75 0 0 1 395.5,166.1106 L402.5,185.9075 L407,185.9075 A2.5,2.5 0 0 1 409.5,188.4075 L409.5,213.7044 A2.5,2.5 0 0 1 407,216.2044 L347,216.2044 A2.5,2.5 0 0 1 344.5,213.7044 L344.5,166.1106 A2.5,2.5 0 0 1 347,163.6106 " fill="#F1F1F1" style="stroke:#181818;stroke-width:0.5;"/><line style="stroke:#181818;stroke-width:0.5;" x1="344.5" x2="402.5" y1="185.9075" y2="185.9075"/><text fill="#000000" font-family="sans-serif" font-size="14" lengthAdjust="spacing" textLength="45" x="348.5" y="178.6057">routes</text><path d="M346,276.6106 L390,276.6106 A3.75,3.75 0 0 1 392.5,279.1106 L399.5,298.9075 L404,298.9075 A2.5,2.5 0 0 1 406.5,301.4075 L406.5,326.7044 A2.5,2.5 0 0 1 404,329.2044 L346,329.2044 A2.5,2.5 0 0 1 343.5,326.7044 L343.5,279.1106 A2.5,2.5 0 0 1 346,276.6106 " fill="#F1F1F1" style="stroke:#181818;stroke-width:0.5;"/><line style="stroke:#181818;stroke-width:0.5;" x1="343.5" x2="399.5" y1="298.9075" y2="298.9075"/><text fill="#000000" font-family="sans-serif" font-size="14" lengthAdjust="spacing" textLength="43" x="347.5" y="291.6057">pages</text><path d="M335.5,396.6106 L398.5,396.6106 A3.75,3.75 0 0 1 401,399.1106 L408,418.9075 L412.5,418.9075 A2.5,2.5 0 0 1 415,421.4075 L415,446.7044 A2.5,2.5 0 0 1 412.5,449.2044 L335.5,449.2044 A2.5,2.5 0 0 1 333,446.7044 L333,399.1106 A2.5,2.5 0 0 1 335.5,396.6106 " fill="#F1F1F1" style="stroke:#181818;stroke-width:0.5;"/><line style="stroke:#181818;stroke-width:0.5;" x1="333" x2="408" y1="418.9075" y2="418.9075"/><text fill="#000000" font-family="sans-serif" font-size="14" lengthAdjust="spacing" textLength="62" x="337" y="411.6057">resource</text><path d="M314.5,509.6106 L367.5,509.6106 A3.75,3.75 0 0 1 370,512.1106 L377,531.9075 L381.5,531.9075 A2.5,2.5 0 0 1 384,534.4075 L384,559.7044 A2.5,2.5 0 0 1 381.5,562.2044 L314.5,562.2044 A2.5,2.5 0 0 1 312,559.7044 L312,512.1106 A2.5,2.5 0 0 1 314.5,509.6106 " fill="#F1F1F1" style="stroke:#181818;stroke-width:0.5;"/><line style="stroke:#181818;stroke-width:0.5;" x1="312" x2="377" y1="531.9075" y2="531.9075"/><text fill="#000000" font-family="sans-serif" font-size="14" lengthAdjust="spacing" textLength="52" x="316" y="524.6057">context</text><path d="M312,622.6106 L370,622.6106 A3.75,3.75 0 0 1 372.5,625.1106 L379.5,644.9075 L384,644.9075 A2.5,2.5 0 0 1 386.5,647.4075 L386.5,672.7044 A2.5,2.5 0 0 1 384,675.2044 L312,675.2044 A2.5,2.5 0 0 1 309.5,672.7044 L309.5,625.1106 A2.5,2.5 0 0 1 312,622.6106 " fill="#F1F1F1" style="stroke:#181818;stroke-width:0.5;"/><line style="stroke:#181818;stroke-width:0.5;" x1="309.5" x2="379.5" y1="644.9075" y2="644.9075"/><text fill="#000000" font-family="sans-serif" font-size="14" lengthAdjust="spacing" textLength="57" x="313.5" y="637.6057">services</text><!--link src to components--><g id="link_src_components"><path codeLine="24" d="M413.07,103.6706 C414.45,104.9406 436.76,125.6006 444,147.6106 C462.77,204.6656 464.5175,272.0531 461.4512,325.7806 C460.6847,339.2125 459.6173,351.7906 458.4397,363.1401 C458.3662,363.8495 458.2921,364.554 458.2177,365.2537 C458.1805,365.6035 458.1432,365.9521 458.1058,366.2995 " fill="none" id="src-to-components" style="stroke:#181818;stroke-width:1.0;stroke-dasharray:7.0,7.0;"/><polygon fill="#181818" points="458.1058,366.2995,463.046,357.7792,458.6409,361.3282,455.092,356.9231,458.1058,366.2995" style="stroke:#181818;stroke-width:1.0;"/></g><!--link src to routes--><g id="link_src_routes"><path codeLine="25" d="M412.97,103.6706 C412.33,105.2006 399.94,134.6306 389.88,158.5206 " fill="none" id="src-to-routes" style="stroke:#181818;stroke-width:1.0;stroke-dasharray:7.0,7.0;"/><polygon fill="#181818" points="387.9,163.2206,395.0791,156.4781,389.8403,158.6124,387.706,153.3737,387.9,163.2206" style="stroke:#181818;stroke-width:1.0;"/></g><!--link routes to pages--><g id="link_routes_pages"><path codeLine="26" d="M376.54,216.8506 C376.24,233.1106 375.86,254.1906 375.55,271.3206 " fill="none" id="routes-to-pages" style="stroke:#181818;stroke-width:1.0;stroke-dasharray:7.0,7.0;"/><polygon fill="#181818" points="375.46,276.5006,379.6392,267.5824,375.56,271.5016,371.6408,267.4224,375.46,276.5006" style="stroke:#181818;stroke-width:1.0;"/></g><!--link pages to components--><g id="link_pages_components"><path codeLine="27" d="M406.54,327.0606 C408.03,327.9506 409.52,328.8006 411,329.6106 C419.41,334.1906 424.79,330.3206 431,337.6106 C434.0238,341.1581 436.5938,345.0856 438.7756,349.2491 C439.321,350.2899 439.8422,351.3455 440.3402,352.4136 C440.4647,352.6807 440.5877,352.9485 440.7093,353.217 " fill="none" id="pages-to-components" style="stroke:#181818;stroke-width:1.0;stroke-dasharray:7.0,7.0;"/><polygon fill="#181818" points="440.7093,353.217,440.6408,343.3684,438.6469,348.6622,433.3531,346.6683,440.7093,353.217" style="stroke:#181818;stroke-width:1.0;"/></g><!--link pages to resource--><g id="link_pages_resource"><path codeLine="28" d="M374.78,329.7106 C374.63,347.8106 374.42,372.1406 374.26,391.3006 " fill="none" id="pages-to-resource" style="stroke:#181818;stroke-width:1.0;stroke-dasharray:7.0,7.0;"/><polygon fill="#181818" points="374.22,396.5606,378.297,387.5952,374.2629,391.5608,370.2973,387.5267,374.22,396.5606" style="stroke:#181818;stroke-width:1.0;"/></g><!--link resource to context--><g id="link_resource_context"><path codeLine="29" d="M367.97,449.8506 C364.16,466.1106 359.22,487.1906 355.21,504.3206 " fill="none" id="resource-to-context" style="stroke:#181818;stroke-width:1.0;stroke-dasharray:7.0,7.0;"/><polygon fill="#181818" points="354,509.5006,359.9499,501.6521,355.142,504.6328,352.1614,499.8249,354,509.5006" style="stroke:#181818;stroke-width:1.0;"/></g><!--link pages to context--><g id="link_pages_context"><path codeLine="30" d="M343.42,314.8906 C333.14,320.0806 322.87,327.4406 317,337.6106 C283.23,396.1206 297.1,425.0506 317,489.6106 C318.64,494.9306 321.13,500.1706 324.01,505.1106 " fill="none" id="pages-to-context" style="stroke:#181818;stroke-width:1.0;stroke-dasharray:7.0,7.0;"/><polygon fill="#181818" points="326.75,509.5606,325.4252,499.8013,324.1231,505.3063,318.6182,504.0043,326.75,509.5606" style="stroke:#181818;stroke-width:1.0;"/></g><!--link context to services--><g id="link_context_services"><path codeLine="31" d="M348,562.8506 C348,579.1106 348,600.1906 348,617.3206 " fill="none" id="context-to-services" style="stroke:#181818;stroke-width:1.0;stroke-dasharray:7.0,7.0;"/><polygon fill="#181818" points="348,622.5006,352.0257,613.5121,348.0143,617.5006,344.0257,613.4892,348,622.5006" style="stroke:#181818;stroke-width:1.0;"/></g><!--SRC=[ZL4nJWCn4Ept5QFKv1H10mqIPOeJI24TZMCsOE3iaxr7aABydOqlpd6W02xMzipEU5OM9s-CvM9sVeafRX9guyqJnpFCiJ5U804cfM2T4OP1bpWgW7is3MfkLdeDQoNQ65xO2fo7F3CslC9oNZtulVNLIUj7NZlFMN5t-wVHnUm_HelwDoEYrjXNbMEIefrWIz1rn6BeX5E1TpHcMwqdIHkQDdZsaZioDxRc5BfekUY_UFoqyi8VChmqOlKBtfqTWlGjwg43eQgkCIGvGlrSr6yPoRDGhjz50rWoKpaSMdEyaRX73dl6IaoYJm00]--></g></svg>