<?xml version="1.0" encoding="us-ascii" standalone="no"?><svg xmlns="http://www.w3.org/2000/svg" xmlns:xlink="http://www.w3.org/1999/xlink" contentStyleType="text/css" height="553px" preserveAspectRatio="none" style="width:623px;height:553px;background:#FFFFFF;" version="1.1" viewBox="0 0 623 553" width="623px" zoomAndPan="magnify"><defs/><g><!--cluster System--><g id="cluster_System"><rect fill="none" height="540" rx="2.5" ry="2.5" style="stroke:#181818;stroke-width:1.0;" width="455" x="162" y="7"/><text fill="#000000" font-family="sans-serif" font-size="14" font-weight="bold" lengthAdjust="spacing" textLength="58" x="360.5" y="21.9951">System</text></g><g id="elem_UC23"><ellipse cx="389.5569" cy="500.0114" fill="#FFFFFF" rx="143.0569" ry="31.0114" style="stroke:#181818;stroke-width:0.5;"/><text fill="#000000" font-family="sans-serif" font-size="14" lengthAdjust="spacing" textLength="256" x="261.5569" y="502.8581">US023: create a Project in the web UI</text></g><g id="elem_UC24"><ellipse cx="389.3042" cy="403.9608" fill="#FFFFFF" rx="137.8042" ry="29.9608" style="stroke:#181818;stroke-width:0.5;"/><text fill="#000000" font-family="sans-serif" font-size="14" lengthAdjust="spacing" textLength="245" x="266.8042" y="406.8075">US024: list all Projects in the web UI</text></g><g id="elem_UC25"><ellipse cx="389.7188" cy="81.1438" fill="#FFFFFF" rx="181.2188" ry="38.6438" style="stroke:#181818;stroke-width:0.5;"/><text fill="#000000" font-family="sans-serif" font-size="14" lengthAdjust="spacing" textLength="301" x="237.2188" y="75.842">US025: create a user story and add it to the</text><text fill="#000000" font-family="sans-serif" font-size="14" lengthAdjust="spacing" textLength="232" x="273.7188" y="92.1389">Product Backlog using the web UI</text></g><g id="elem_UC26"><ellipse cx="389.519" cy="199.2038" fill="#FFFFFF" rx="211.519" ry="44.7038" style="stroke:#181818;stroke-width:0.5;"/><text fill="#000000" font-family="sans-serif" font-size="14" lengthAdjust="spacing" textLength="397" x="191.019" y="202.0505">US026: consult the current Product Backlog in the web UI</text></g><g id="elem_UC27"><ellipse cx="389.2578" cy="309.1516" fill="#FFFFFF" rx="138.7578" ry="30.1516" style="stroke:#181818;stroke-width:0.5;"/><text fill="#000000" font-family="sans-serif" font-size="14" lengthAdjust="spacing" textLength="247" x="265.7578" y="311.9982">US027: create a sprint in the web UI</text></g><!--entity PO--><g id="elem_PO"><ellipse cx="62" cy="26.5" fill="#FFFFFF" rx="8" ry="8" style="stroke:#181818;stroke-width:0.5;"/><path d="M62,34.5 L62,61.5 M49,42.5 L75,42.5 M62,61.5 L49,76.5 M62,61.5 L75,76.5 " fill="none" style="stroke:#181818;stroke-width:0.5;"/><text fill="#000000" font-family="sans-serif" font-size="14" lengthAdjust="spacing" textLength="103" x="10.5" y="90.9951">Product Owner</text></g><!--entity SM--><g id="elem_SM"><ellipse cx="62" cy="137.5" fill="#FFFFFF" rx="8" ry="8" style="stroke:#181818;stroke-width:0.5;"/><path d="M62,145.5 L62,172.5 M49,153.5 L75,153.5 M62,172.5 L49,187.5 M62,172.5 L75,187.5 " fill="none" style="stroke:#181818;stroke-width:0.5;"/><text fill="#000000" font-family="sans-serif" font-size="14" lengthAdjust="spacing" textLength="95" x="14.5" y="201.9951">Scrum Master</text></g><!--entity PM--><g id="elem_PM"><ellipse cx="62" cy="359.5" fill="#FFFFFF" rx="8" ry="8" style="stroke:#181818;stroke-width:0.5;"/><path d="M62,367.5 L62,394.5 M49,375.5 L75,375.5 M62,394.5 L49,409.5 M62,394.5 L75,409.5 " fill="none" style="stroke:#181818;stroke-width:0.5;"/><text fill="#000000" font-family="sans-serif" font-size="14" lengthAdjust="spacing" textLength="112" x="6" y="423.9951">Project Manager</text></g><!--entity TM--><g id="elem_TM"><ellipse cx="62" cy="248.5" fill="#FFFFFF" rx="8" ry="8" style="stroke:#181818;stroke-width:0.5;"/><path d="M62,256.5 L62,283.5 M49,264.5 L75,264.5 M62,283.5 L49,298.5 M62,283.5 L75,298.5 " fill="none" style="stroke:#181818;stroke-width:0.5;"/><text fill="#000000" font-family="sans-serif" font-size="14" lengthAdjust="spacing" textLength="100" x="12" y="312.9951">Team Member</text></g><!--entity Admin--><g id="elem_Admin"><ellipse cx="62" cy="470.5" fill="#FFFFFF" rx="8" ry="8" style="stroke:#181818;stroke-width:0.5;"/><path d="M62,478.5 L62,505.5 M49,486.5 L75,486.5 M62,505.5 L49,520.5 M62,505.5 L75,520.5 " fill="none" style="stroke:#181818;stroke-width:0.5;"/><text fill="#000000" font-family="sans-serif" font-size="14" lengthAdjust="spacing" textLength="91" x="16.5" y="534.9951">Administrator</text></g><!--link Admin to UC23--><g id="link_Admin_UC23"><path d="M107.58,500 C142.27,500 192.5,500 240.92,500 " fill="none" id="Admin-to-UC23" style="stroke:#181818;stroke-width:1.0;"/><polygon fill="#181818" points="246.21,500,237.21,496,241.21,500,237.21,504,246.21,500" style="stroke:#181818;stroke-width:1.0;"/></g><!--link Admin to UC24--><g id="link_Admin_UC24"><path d="M107.6,472.58 C122,464.67 138.3,456.66 154,451 C190.17,437.97 230.85,428.21 268.05,421.07 " fill="none" id="Admin-to-UC24" style="stroke:#181818;stroke-width:1.0;"/><polygon fill="#181818" points="273.04,420.12,263.4538,417.8606,268.1269,421.0483,264.9392,425.7215,273.04,420.12" style="stroke:#181818;stroke-width:1.0;"/></g><!--link PO to UC25--><g id="link_PO_UC25"><path d="M113.5,59.88 C140.99,61.99 176.8,64.74 213.46,67.56 " fill="none" id="PO-to-UC25" style="stroke:#181818;stroke-width:1.0;"/><polygon fill="#181818" points="218.87,67.97,210.2053,63.2877,213.8849,67.5843,209.5883,71.2639,218.87,67.97" style="stroke:#181818;stroke-width:1.0;"/></g><!--link PO to UC26--><g id="link_PO_UC26"><path d="M102.35,94.33 C121.43,112.21 142.63,130.9 154,137 C177.05,149.38 202.72,159.4 228.39,167.48 " fill="none" id="PO-to-UC26" style="stroke:#181818;stroke-width:1.0;"/><polygon fill="#181818" points="233.18,168.97,225.7761,162.4752,228.4061,167.4835,223.3977,170.1135,233.18,168.97" style="stroke:#181818;stroke-width:1.0;"/></g><!--link SM to UC26--><g id="link_SM_UC26"><path d="M109.64,171.58 C132.4,173.82 161.49,176.68 192.25,179.71 " fill="none" id="SM-to-UC26" style="stroke:#181818;stroke-width:1.0;"/><polygon fill="#181818" points="197.61,180.23,189.0403,175.3762,192.6336,179.7452,188.2646,183.3385,197.61,180.23" style="stroke:#181818;stroke-width:1.0;"/></g><!--link TM to UC26--><g id="link_TM_UC26"><path d="M112.08,266.09 C147.63,257.46 197.61,245.33 245.33,233.75 " fill="none" id="TM-to-UC26" style="stroke:#181818;stroke-width:1.0;"/><polygon fill="#181818" points="250.23,232.56,240.5381,230.8085,245.3726,233.7458,242.4354,238.5803,250.23,232.56" style="stroke:#181818;stroke-width:1.0;"/></g><!--link PM to UC27--><g id="link_PM_UC27"><path d="M118.4,367.42 C130.05,363.3 142.35,359.26 154,356 C192.75,345.16 235.76,335.79 274.25,328.33 " fill="none" id="PM-to-UC27" style="stroke:#181818;stroke-width:1.0;"/><polygon fill="#181818" points="279.41,327.34,269.8163,325.1126,274.5001,328.2848,271.3279,332.9685,279.41,327.34" style="stroke:#181818;stroke-width:1.0;"/></g><!--SRC=[TL4zQyCm5DprAuxiWPBc0p8KqamTJ0oEjoulikgeaQNm91D2wN-lxCIkQzBjv7ltmTcVj3qJKuNSAqbUlP8ybUngMsoTSOpBKGSbV7-saS7nuoDXr4T0S61T7WCApKe6xQmGr8WmITaLjGpONQpY2SWZtNLS9hcka90FTofB1hBFw1H9IsKdxDczYgqILHtkpBvdDaMbhVQ1AJvRhlqYX6YAaIsDGdQDWHM-153V1i0apvvcpsj8LXGK25s-jWX7XOiw87zh_VBjx7cidAzXOYZ8c4xf7qldO-bY41e9Xe_5ho1RW8e2kXstyNcttPJDdp2kZEVQbWyo5kECPSnmrjScjDUoPbOsOEptiF1oRBOQ5FPdrlQVaLRYMuXsV4odBxVP_Zpd8jrrU370Iv4bltW_m6cFL-87]--></g></svg>