<?xml version="1.0" encoding="us-ascii" standalone="no"?><svg xmlns="http://www.w3.org/2000/svg" xmlns:xlink="http://www.w3.org/1999/xlink" contentStyleType="text/css" height="357px" preserveAspectRatio="none" style="width:795px;height:357px;background:#FFFFFF;" version="1.1" viewBox="0 0 795 357" width="795px" zoomAndPan="magnify"><defs/><g><text fill="#000000" font-family="sans-serif" font-size="14" font-weight="bold" lengthAdjust="spacing" textLength="752" x="20" y="32.9951">US026 - As a PO/SM/Team Member, I want to consult the current Product Backlog in the web UI</text><rect fill="#F1F1F1" height="36.2969" rx="12.5" ry="12.5" style="stroke:#181818;stroke-width:1.5;" width="106.3333" x="343.3333" y="47.2969"/><path d="M359,60.7604 C356.4217,60.7604 354.3333,62.8487 354.3333,65.4271 C354.3333,68.0054 356.4217,70.0938 359,70.0938 C361.5783,70.0938 363.6667,68.0054 363.6667,65.4271 C363.6667,62.8487 361.5783,60.7604 359,60.7604 M359,61.9271 C359.385,61.9271 359.7467,62.0321 360.0967,62.1488 C359.8517,62.3821 359.5717,62.5921 359.6183,62.8021 C359.665,63.0121 360.4233,62.9538 360.4233,63.3854 C360.4233,63.7004 359.9333,63.7937 360.2717,64.1554 C360.68,64.5638 359.525,65.2988 359.5017,65.8354 C359.4667,66.8038 360.4817,66.9671 361.2867,66.9671 C361.7767,66.9671 361.905,67.2004 361.87,67.4804 C361.24,68.3788 360.1667,68.9388 358.9883,68.9388 C358.545,68.9388 358.1367,68.8338 357.7517,68.6821 C358.0083,68.1688 357.425,67.1538 356.8767,66.8271 C356.6083,66.5588 356.0367,66.6638 355.71,66.5354 C355.605,66.2204 355.5,65.9054 355.4883,65.5554 C355.5233,65.4971 355.5817,65.4504 355.675,65.4504 C355.8967,65.4504 356.2,65.8938 356.3633,65.8471 C356.5733,65.8004 355.5,64.3188 356.0017,64.0271 C356.235,63.8871 356.7017,64.4821 356.55,63.8404 C356.41,63.2454 356.97,63.5137 357.32,63.3621 C357.6233,63.2338 357.845,62.8838 357.4717,62.6738 C357.4017,62.6387 357.32,62.5571 357.215,62.4521 C357.74,62.1371 358.3467,61.9388 359,61.9388 M361.695,63.1988 C361.905,63.4554 362.0683,63.7354 362.2083,64.0388 C362.2083,64.0504 362.2083,64.0621 362.2083,64.0738 C362.1617,64.1554 362.08,64.2021 361.9517,64.3304 C361.625,64.6571 361.5783,64.0854 361.4383,63.9688 C361.2867,63.8288 360.7383,63.9921 360.6683,63.8171 C360.5867,63.6071 361.2517,63.3271 361.695,63.1988 " fill="#000000" style="stroke:;stroke-width:0.0;stroke-dasharray:;"/><text fill="#000000" font-family="sans-serif" font-size="14" lengthAdjust="spacing" textLength="75" x="364.6667" y="70.292">Application</text><rect fill="#F1F1F1" height="36.2969" rx="12.5" ry="12.5" style="stroke:#181818;stroke-width:1.5;" width="67" x="139.5" y="108.5938"/><text fill="#000000" font-family="sans-serif" font-size="14" lengthAdjust="spacing" textLength="47" x="149.5" y="131.5889">Navbar</text><rect fill="#F1F1F1" height="36.2969" rx="12.5" ry="12.5" style="stroke:#181818;stroke-width:1.5;" width="75" x="135.5" y="169.8906"/><text fill="#000000" font-family="sans-serif" font-size="14" lengthAdjust="spacing" textLength="55" x="145.5" y="192.8857">NavItem</text><path d="M173,144.8906 L173,147.8906 C173,154.8906 173,159.8906 173,166.8906 L173,169.8906 " fill="none" style="stroke:#181818;stroke-width:1.0;"/><path d="M396.5,83.5938 L396.5,86.5938 C396.5,93.5938 173,98.5938 173,105.5938 L173,108.5938 " fill="none" style="stroke:#181818;stroke-width:1.0;"/><rect fill="#F1F1F1" height="36.2969" rx="12.5" ry="12.5" style="stroke:#181818;stroke-width:1.5;" width="94" x="397" y="108.5938"/><text fill="#000000" font-family="sans-serif" font-size="14" lengthAdjust="spacing" textLength="74" x="407" y="131.5889">MainRoute</text><rect fill="#F1F1F1" height="36.2969" rx="12.5" ry="12.5" style="stroke:#181818;stroke-width:1.5;" width="76" x="406" y="169.8906"/><text fill="#000000" font-family="sans-serif" font-size="14" lengthAdjust="spacing" textLength="56" x="416" y="192.8857">Projects</text><rect fill="#F1F1F1" height="36.2969" rx="12.5" ry="12.5" style="stroke:#181818;stroke-width:1.5;" width="103" x="392.5" y="231.1875"/><text fill="#000000" font-family="sans-serif" font-size="14" lengthAdjust="spacing" textLength="83" x="402.5" y="254.1826">ProjectPage</text><rect fill="#F1F1F1" height="52.5938" rx="12.5" ry="12.5" style="stroke:#181818;stroke-width:1.5;" width="141" x="230.5" y="292.4844"/><text fill="#000000" font-family="sans-serif" font-size="14" lengthAdjust="spacing" textLength="121" x="240.5" y="315.4795">ProjectPageTable</text><text fill="#000000" font-family="sans-serif" font-size="14" lengthAdjust="spacing" textLength="87" x="240.5" y="331.7764">(Project Info)</text><path d="M444,267.4844 L444,270.4844 C444,277.4844 301,282.4844 301,289.4844 L301,292.4844 " fill="none" style="stroke:#181818;stroke-width:1.0;"/><rect fill="#F1F1F1" height="52.5938" rx="12.5" ry="12.5" style="stroke:#181818;stroke-width:1.5;" width="67" x="391.5" y="292.4844"/><text fill="#000000" font-family="sans-serif" font-size="14" lengthAdjust="spacing" textLength="47" x="401.5" y="315.4795">Button</text><text fill="#000000" font-family="sans-serif" font-size="14" lengthAdjust="spacing" textLength="44" x="401.5" y="331.7764">(Back)</text><path d="M444,267.4844 L444,270.4844 C444,277.4844 425,282.4844 425,289.4844 L425,292.4844 " fill="none" style="stroke:#181818;stroke-width:1.0;"/><rect fill="#F1F1F1" height="52.5938" rx="12.5" ry="12.5" style="stroke:#181818;stroke-width:1.5;" width="179" x="478.5" y="292.4844"/><text fill="#000000" font-family="sans-serif" font-size="14" lengthAdjust="spacing" textLength="47" x="488.5" y="315.4795">Button</text><text fill="#000000" font-family="sans-serif" font-size="14" lengthAdjust="spacing" textLength="159" x="488.5" y="331.7764">(View Product Backlog)</text><path d="M444,267.4844 L444,270.4844 C444,277.4844 568,282.4844 568,289.4844 L568,292.4844 " fill="none" style="stroke:#181818;stroke-width:1.0;"/><path d="M444,206.1875 L444,209.1875 C444,216.1875 444,221.1875 444,228.1875 L444,231.1875 " fill="none" style="stroke:#181818;stroke-width:1.0;"/><path d="M444,144.8906 L444,147.8906 C444,154.8906 444,159.8906 444,166.8906 L444,169.8906 " fill="none" style="stroke:#181818;stroke-width:1.0;"/><path d="M396.5,83.5938 L396.5,86.5938 C396.5,93.5938 444,98.5938 444,105.5938 L444,108.5938 " fill="none" style="stroke:#181818;stroke-width:1.0;"/><!--SRC=[xP9DRzim38Rl-XKyRKdGnFaOkiuOXZHhDYIBMwDniiikjCmwsYp9aAa4-_UJZMn5ksEllP7lIr7a8yqRHiTQcK9ZBTuUcEicZgAwGiDULoDfTNHsXuN2qg4MWXLN1BljU7e9GxXk026zYxP9b15gI4Zdv2vW1QVG1DY2jARnLGWF1D8xHq5EdIsyP5YW_5NP4fJfx1Fbi5i9jdLxCBVCLaEX74bMrWWnW8zloihczEcwhYibiPC70xZ5OuukH5suOjAjcg0ozzOpTKQuysTerBJ9lop5idEVAXdc5VqmlRC4A_DW- -UoXGzJcM2si_ydxXMTdc_N5qBCAL0ySnRp9zXVWRuOQDf-s5soWIEv9cm0az5qF9sDPhtiuCFK3iOVOF8-detZoHLyNsRGsdtH-vfkeB7UIGfK6dOgzos1lbZZ4U7U6rQQOhYhoQnlllqLO6cEobcZ0tcntYUF1PVlXWl5i2KN9e5z8cxe0TktMXff2sNA67RPb-6LsA0fVG0J0ndnsOQ-xdVmjdy0]--></g></svg>