<?xml version="1.0" encoding="us-ascii" standalone="no"?><svg xmlns="http://www.w3.org/2000/svg" xmlns:xlink="http://www.w3.org/1999/xlink" contentStyleType="text/css" height="418px" preserveAspectRatio="none" style="width:823px;height:418px;background:#FFFFFF;" version="1.1" viewBox="0 0 823 418" width="823px" zoomAndPan="magnify"><defs/><g><text fill="#000000" font-family="sans-serif" font-size="14" font-weight="bold" lengthAdjust="spacing" textLength="752" x="34" y="32.9951">US026 - As a PO/SM/Team Member, I want to consult the current Product Backlog in the web UI</text><rect fill="#F1F1F1" height="36.2969" rx="12.5" ry="12.5" style="stroke:#181818;stroke-width:1.5;" width="106.3333" x="357.3333" y="47.2969"/><path d="M373,60.7604 C370.4217,60.7604 368.3333,62.8487 368.3333,65.4271 C368.3333,68.0054 370.4217,70.0938 373,70.0938 C375.5783,70.0938 377.6667,68.0054 377.6667,65.4271 C377.6667,62.8487 375.5783,60.7604 373,60.7604 M373,61.9271 C373.385,61.9271 373.7467,62.0321 374.0967,62.1488 C373.8517,62.3821 373.5717,62.5921 373.6183,62.8021 C373.665,63.0121 374.4233,62.9538 374.4233,63.3854 C374.4233,63.7004 373.9333,63.7937 374.2717,64.1554 C374.68,64.5638 373.525,65.2988 373.5017,65.8354 C373.4667,66.8038 374.4817,66.9671 375.2867,66.9671 C375.7767,66.9671 375.905,67.2004 375.87,67.4804 C375.24,68.3788 374.1667,68.9388 372.9883,68.9388 C372.545,68.9388 372.1367,68.8338 371.7517,68.6821 C372.0083,68.1688 371.425,67.1538 370.8767,66.8271 C370.6083,66.5588 370.0367,66.6638 369.71,66.5354 C369.605,66.2204 369.5,65.9054 369.4883,65.5554 C369.5233,65.4971 369.5817,65.4504 369.675,65.4504 C369.8967,65.4504 370.2,65.8938 370.3633,65.8471 C370.5733,65.8004 369.5,64.3188 370.0017,64.0271 C370.235,63.8871 370.7017,64.4821 370.55,63.8404 C370.41,63.2454 370.97,63.5137 371.32,63.3621 C371.6233,63.2338 371.845,62.8838 371.4717,62.6738 C371.4017,62.6387 371.32,62.5571 371.215,62.4521 C371.74,62.1371 372.3467,61.9388 373,61.9388 M375.695,63.1988 C375.905,63.4554 376.0683,63.7354 376.2083,64.0388 C376.2083,64.0504 376.2083,64.0621 376.2083,64.0738 C376.1617,64.1554 376.08,64.2021 375.9517,64.3304 C375.625,64.6571 375.5783,64.0854 375.4383,63.9688 C375.2867,63.8288 374.7383,63.9921 374.6683,63.8171 C374.5867,63.6071 375.2517,63.3271 375.695,63.1988 " fill="#000000" style="stroke:;stroke-width:0.0;stroke-dasharray:;"/><text fill="#000000" font-family="sans-serif" font-size="14" lengthAdjust="spacing" textLength="75" x="378.6667" y="70.292">Application</text><rect fill="#F1F1F1" height="36.2969" rx="12.5" ry="12.5" style="stroke:#181818;stroke-width:1.5;" width="67" x="24" y="108.5938"/><text fill="#000000" font-family="sans-serif" font-size="14" lengthAdjust="spacing" textLength="47" x="34" y="131.5889">Navbar</text><rect fill="#F1F1F1" height="36.2969" rx="12.5" ry="12.5" style="stroke:#181818;stroke-width:1.5;" width="75" x="20" y="169.8906"/><text fill="#000000" font-family="sans-serif" font-size="14" lengthAdjust="spacing" textLength="55" x="30" y="192.8857">NavItem</text><path d="M57.5,144.8906 L57.5,147.8906 C57.5,154.8906 57.5,159.8906 57.5,166.8906 L57.5,169.8906 " fill="none" style="stroke:#181818;stroke-width:1.0;"/><path d="M410.5,83.5938 L410.5,86.5938 C410.5,93.5938 57.5,98.5938 57.5,105.5938 L57.5,108.5938 " fill="none" style="stroke:#181818;stroke-width:1.0;"/><rect fill="#F1F1F1" height="36.2969" rx="12.5" ry="12.5" style="stroke:#181818;stroke-width:1.5;" width="94" x="411" y="108.5938"/><text fill="#000000" font-family="sans-serif" font-size="14" lengthAdjust="spacing" textLength="74" x="421" y="131.5889">MainRoute</text><rect fill="#F1F1F1" height="36.2969" rx="12.5" ry="12.5" style="stroke:#181818;stroke-width:1.5;" width="76" x="420" y="169.8906"/><text fill="#000000" font-family="sans-serif" font-size="14" lengthAdjust="spacing" textLength="56" x="430" y="192.8857">Projects</text><rect fill="#F1F1F1" height="36.2969" rx="12.5" ry="12.5" style="stroke:#181818;stroke-width:1.5;" width="103" x="406.5" y="231.1875"/><text fill="#000000" font-family="sans-serif" font-size="14" lengthAdjust="spacing" textLength="83" x="416.5" y="254.1826">ProjectPage</text><rect fill="#F1F1F1" height="52.5938" rx="12.5" ry="12.5" style="stroke:#181818;stroke-width:1.5;" width="143" x="115" y="292.4844"/><text fill="#000000" font-family="sans-serif" font-size="14" lengthAdjust="spacing" textLength="50" x="125" y="315.4795">Header</text><text fill="#000000" font-family="sans-serif" font-size="14" lengthAdjust="spacing" textLength="123" x="125" y="331.7764">(Product Backlog)</text><path d="M458,267.4844 L458,270.4844 C458,277.4844 186.5,282.4844 186.5,289.4844 L186.5,292.4844 " fill="none" style="stroke:#181818;stroke-width:1.0;"/><rect fill="#F1F1F1" height="52.5938" rx="12.5" ry="12.5" style="stroke:#181818;stroke-width:1.5;" width="67" x="278" y="292.4844"/><text fill="#000000" font-family="sans-serif" font-size="14" lengthAdjust="spacing" textLength="47" x="288" y="315.4795">Button</text><text fill="#000000" font-family="sans-serif" font-size="14" lengthAdjust="spacing" textLength="44" x="288" y="331.7764">(Back)</text><path d="M458,267.4844 L458,270.4844 C458,277.4844 311.5,282.4844 311.5,289.4844 L311.5,292.4844 " fill="none" style="stroke:#181818;stroke-width:1.0;"/><rect fill="#F1F1F1" height="52.5938" rx="12.5" ry="12.5" style="stroke:#181818;stroke-width:1.5;" width="151" x="365" y="292.4844"/><text fill="#000000" font-family="sans-serif" font-size="14" lengthAdjust="spacing" textLength="47" x="375" y="315.4795">Button</text><text fill="#000000" font-family="sans-serif" font-size="14" lengthAdjust="spacing" textLength="131" x="375" y="331.7764">(Create User Story)</text><path d="M458,267.4844 L458,270.4844 C458,277.4844 440.5,282.4844 440.5,289.4844 L440.5,292.4844 " fill="none" style="stroke:#181818;stroke-width:1.0;"/><rect fill="#F1F1F1" height="52.5938" rx="12.5" ry="12.5" style="stroke:#181818;stroke-width:1.5;" width="167" x="536" y="292.4844"/><text fill="#000000" font-family="sans-serif" font-size="14" lengthAdjust="spacing" textLength="147" x="546" y="315.4795">ProductBacklogTable</text><text fill="#000000" font-family="sans-serif" font-size="14" lengthAdjust="spacing" textLength="138" x="546" y="331.7764">(List of User Stories)</text><rect fill="#F1F1F1" height="36.2969" rx="12.5" ry="12.5" style="stroke:#181818;stroke-width:1.5;" width="164" x="438" y="370.0781"/><text fill="#000000" font-family="sans-serif" font-size="14" lengthAdjust="spacing" textLength="144" x="448" y="393.0732">ProductBacklogBody</text><path d="M619.5,345.0781 L619.5,348.0781 C619.5,355.0781 520,360.0781 520,367.0781 L520,370.0781 " fill="none" style="stroke:#181818;stroke-width:1.0;"/><rect fill="#F1F1F1" height="36.2969" rx="12.5" ry="12.5" style="stroke:#181818;stroke-width:1.5;" width="179" x="622" y="370.0781"/><text fill="#000000" font-family="sans-serif" font-size="14" lengthAdjust="spacing" textLength="159" x="632" y="393.0732">ProductBacklogHeader</text><path d="M619.5,345.0781 L619.5,348.0781 C619.5,355.0781 711.5,360.0781 711.5,367.0781 L711.5,370.0781 " fill="none" style="stroke:#181818;stroke-width:1.0;"/><path d="M458,267.4844 L458,270.4844 C458,277.4844 619.5,282.4844 619.5,289.4844 L619.5,292.4844 " fill="none" style="stroke:#181818;stroke-width:1.0;"/><path d="M458,206.1875 L458,209.1875 C458,216.1875 458,221.1875 458,228.1875 L458,231.1875 " fill="none" style="stroke:#181818;stroke-width:1.0;"/><path d="M458,144.8906 L458,147.8906 C458,154.8906 458,159.8906 458,166.8906 L458,169.8906 " fill="none" style="stroke:#181818;stroke-width:1.0;"/><path d="M410.5,83.5938 L410.5,86.5938 C410.5,93.5938 458,98.5938 458,105.5938 L458,108.5938 " fill="none" style="stroke:#181818;stroke-width:1.0;"/><!--SRC=[xLDDSzCm4BthL-m9aWpvPahnC4oQDj24c7eQfrouoFRM4LYIHrgbat_FshXqAFm03jnMx-q-xRmdBJn9HrgPGijQl3mGrJuQZ-jA6Wgw6kLMZpjsM2XPEgc584KLmdutcPt142uyI4XknhjudABK4AFEqBs2DJom2925t1eVAYuF27bm3XbEd2r2Jh2K-VVAbg1CIpzW1lkr85itWvabiXeAvJ0dPOqG0tZtegniXkylwhfIkMpXmG0-osCc7LTjkIRK3HfBPMvj86m9llCR2_dcyEkKoB9b6Rb6MQ23hwRtRBj-rx0Cl8zXli7_02yTIc9VF6lioBhJOqUdrecbCgkGsxVA4zZxftw5lfjuFhAqnUdlpC-LXLWWPzIbA1Q_XVe_hdyyhgJvRFju2qTqdls1wMWscSr7yrvw2Eo9WybRcBw9vfDeUWvVLYaqT5_qFYPRy3Qu7DbpJqvbeV6tBpRoAE4s658Q8xYfqMokFZq2i397vQpHdAlOtCLF3MUlXqj5i4F7cy1TBAxmNZOlOMLoMoXJHh1FFmpFnLQQCd0G4Q0HbvPrtOcvtGy0]--></g></svg>