<?xml version="1.0" encoding="us-ascii" standalone="no"?><svg xmlns="http://www.w3.org/2000/svg" xmlns:xlink="http://www.w3.org/1999/xlink" contentStyleType="text/css" height="783px" preserveAspectRatio="none" style="width:1091px;height:783px;background:#FFFFFF;" version="1.1" viewBox="0 0 1091 783" width="1091px" zoomAndPan="magnify"><defs/><g><text fill="#000000" font-family="sans-serif" font-size="14" font-weight="bold" lengthAdjust="spacing" textLength="172" x="452.5" y="22.9951">Logical View - Level 4</text><!--cluster RepositoryComponent--><g id="cluster_RepositoryComponent"><rect fill="none" height="347" rx="2.5" ry="2.5" style="stroke:#181818;stroke-width:1.0;" width="1047" x="38" y="44.2969"/><text fill="#000000" font-family="sans-serif" font-size="14" font-weight="bold" lengthAdjust="spacing" textLength="107" x="508" y="59.292">&#171;component&#187;</text><text fill="#000000" font-family="sans-serif" font-size="14" font-weight="bold" lengthAdjust="spacing" textLength="85" x="519" y="75.5889">Repository</text></g><!--cluster DataModelComponent--><g id="cluster_DataModelComponent"><rect fill="none" height="223" rx="2.5" ry="2.5" style="stroke:#181818;stroke-width:1.0;" width="583" x="500" y="554.2969"/><text fill="#000000" font-family="sans-serif" font-size="14" font-weight="bold" lengthAdjust="spacing" textLength="107" x="738" y="569.292">&#171;component&#187;</text><text fill="#000000" font-family="sans-serif" font-size="14" font-weight="bold" lengthAdjust="spacing" textLength="87" x="748" y="585.5889">Data Model</text></g><!--cluster PersistenceComponent--><g id="cluster_PersistenceComponent"><rect fill="none" height="246" rx="2.5" ry="2.5" style="stroke:#181818;stroke-width:1.0;" width="461" x="7" y="431.2969"/><text fill="#000000" font-family="sans-serif" font-size="14" font-weight="bold" lengthAdjust="spacing" textLength="107" x="184" y="446.292">&#171;component&#187;</text><text fill="#000000" font-family="sans-serif" font-size="14" font-weight="bold" lengthAdjust="spacing" textLength="94" x="190.5" y="462.5889">Persistence</text></g><!--class Repository--><g id="elem_Repository"><rect codeLine="12" fill="#F1F1F1" height="48" id="Repository" rx="2.5" ry="2.5" style="stroke:#181818;stroke-width:0.5;" width="106" x="527" y="103.2969"/><ellipse cx="542" cy="119.2969" fill="#B4A7E5" rx="11" ry="11" style="stroke:#181818;stroke-width:1.0;"/><path d="M537.9219,115.0625 L537.9219,112.9063 L545.3125,112.9063 L545.3125,115.0625 L542.8438,115.0625 L542.8438,123.1406 L545.3125,123.1406 L545.3125,125.2969 L537.9219,125.2969 L537.9219,123.1406 L540.3906,123.1406 L540.3906,115.0625 L537.9219,115.0625 Z " fill="#000000"/><text fill="#000000" font-family="sans-serif" font-size="14" font-style="italic" lengthAdjust="spacing" textLength="74" x="556" y="124.1436">Repository</text><line style="stroke:#181818;stroke-width:0.5;" x1="528" x2="632" y1="135.2969" y2="135.2969"/><line style="stroke:#181818;stroke-width:0.5;" x1="528" x2="632" y1="143.2969" y2="143.2969"/></g><!--class ProjectRepository--><g id="elem_ProjectRepository"><rect codeLine="14" fill="#F1F1F1" height="48" id="ProjectRepository" rx="2.5" ry="2.5" style="stroke:#181818;stroke-width:0.5;" width="153" x="619.5" y="211.2969"/><ellipse cx="634.5" cy="227.2969" fill="#B4A7E5" rx="11" ry="11" style="stroke:#181818;stroke-width:1.0;"/><path d="M630.4219,223.0625 L630.4219,220.9063 L637.8125,220.9063 L637.8125,223.0625 L635.3438,223.0625 L635.3438,231.1406 L637.8125,231.1406 L637.8125,233.2969 L630.4219,233.2969 L630.4219,231.1406 L632.8906,231.1406 L632.8906,223.0625 L630.4219,223.0625 Z " fill="#000000"/><text fill="#000000" font-family="sans-serif" font-size="14" font-style="italic" lengthAdjust="spacing" textLength="121" x="648.5" y="232.1436">ProjectRepository</text><line style="stroke:#181818;stroke-width:0.5;" x1="620.5" x2="771.5" y1="243.2969" y2="243.2969"/><line style="stroke:#181818;stroke-width:0.5;" x1="620.5" x2="771.5" y1="251.2969" y2="251.2969"/></g><!--class ProjectRepositoryPersistence--><g id="elem_ProjectRepositoryPersistence"><rect codeLine="16" fill="#F1F1F1" height="48" id="ProjectRepositoryPersistence" rx="2.5" ry="2.5" style="stroke:#181818;stroke-width:0.5;" width="236" x="825" y="319.2969"/><ellipse cx="840" cy="335.2969" fill="#ADD1B2" rx="11" ry="11" style="stroke:#181818;stroke-width:1.0;"/><path d="M842.9688,340.9375 Q842.3906,341.2344 841.75,341.375 Q841.1094,341.5313 840.4063,341.5313 Q837.9063,341.5313 836.5781,339.8906 Q835.2656,338.2344 835.2656,335.1094 Q835.2656,331.9844 836.5781,330.3281 Q837.9063,328.6719 840.4063,328.6719 Q841.1094,328.6719 841.75,328.8281 Q842.4063,328.9844 842.9688,329.2813 L842.9688,332 Q842.3438,331.4219 841.75,331.1563 Q841.1563,330.875 840.5313,330.875 Q839.1875,330.875 838.5,331.9531 Q837.8125,333.0156 837.8125,335.1094 Q837.8125,337.2031 838.5,338.2813 Q839.1875,339.3438 840.5313,339.3438 Q841.1563,339.3438 841.75,339.0781 Q842.3438,338.7969 842.9688,338.2188 L842.9688,340.9375 Z " fill="#000000"/><text fill="#000000" font-family="sans-serif" font-size="14" lengthAdjust="spacing" textLength="204" x="854" y="340.1436">ProjectRepositoryPersistence</text><line style="stroke:#181818;stroke-width:0.5;" x1="826" x2="1060" y1="351.2969" y2="351.2969"/><line style="stroke:#181818;stroke-width:0.5;" x1="826" x2="1060" y1="359.2969" y2="359.2969"/></g><!--class ProjectRepositoryFake--><g id="elem_ProjectRepositoryFake"><rect codeLine="18" fill="#F1F1F1" height="48" id="ProjectRepositoryFake" rx="2.5" ry="2.5" style="stroke:#181818;stroke-width:0.5;" width="187" x="602.5" y="319.2969"/><ellipse cx="617.5" cy="335.2969" fill="#ADD1B2" rx="11" ry="11" style="stroke:#181818;stroke-width:1.0;"/><path d="M620.4688,340.9375 Q619.8906,341.2344 619.25,341.375 Q618.6094,341.5313 617.9063,341.5313 Q615.4063,341.5313 614.0781,339.8906 Q612.7656,338.2344 612.7656,335.1094 Q612.7656,331.9844 614.0781,330.3281 Q615.4063,328.6719 617.9063,328.6719 Q618.6094,328.6719 619.25,328.8281 Q619.9063,328.9844 620.4688,329.2813 L620.4688,332 Q619.8438,331.4219 619.25,331.1563 Q618.6563,330.875 618.0313,330.875 Q616.6875,330.875 616,331.9531 Q615.3125,333.0156 615.3125,335.1094 Q615.3125,337.2031 616,338.2813 Q616.6875,339.3438 618.0313,339.3438 Q618.6563,339.3438 619.25,339.0781 Q619.8438,338.7969 620.4688,338.2188 L620.4688,340.9375 Z " fill="#000000"/><text fill="#000000" font-family="sans-serif" font-size="14" lengthAdjust="spacing" textLength="155" x="631.5" y="340.1436">ProjectRepositoryFake</text><line style="stroke:#181818;stroke-width:0.5;" x1="603.5" x2="788.5" y1="351.2969" y2="351.2969"/><line style="stroke:#181818;stroke-width:0.5;" x1="603.5" x2="788.5" y1="359.2969" y2="359.2969"/></g><!--class ResourceRepository--><g id="elem_ResourceRepository"><rect codeLine="20" fill="#F1F1F1" height="48" id="ResourceRepository" rx="2.5" ry="2.5" style="stroke:#181818;stroke-width:0.5;" width="172" x="378" y="211.2969"/><ellipse cx="393" cy="227.2969" fill="#B4A7E5" rx="11" ry="11" style="stroke:#181818;stroke-width:1.0;"/><path d="M388.9219,223.0625 L388.9219,220.9063 L396.3125,220.9063 L396.3125,223.0625 L393.8438,223.0625 L393.8438,231.1406 L396.3125,231.1406 L396.3125,233.2969 L388.9219,233.2969 L388.9219,231.1406 L391.3906,231.1406 L391.3906,223.0625 L388.9219,223.0625 Z " fill="#000000"/><text fill="#000000" font-family="sans-serif" font-size="14" font-style="italic" lengthAdjust="spacing" textLength="140" x="407" y="232.1436">ResourceRepository</text><line style="stroke:#181818;stroke-width:0.5;" x1="379" x2="549" y1="243.2969" y2="243.2969"/><line style="stroke:#181818;stroke-width:0.5;" x1="379" x2="549" y1="251.2969" y2="251.2969"/></g><!--class ResourceRepositoryFake--><g id="elem_ResourceRepositoryFake"><rect codeLine="22" fill="#F1F1F1" height="48" id="ResourceRepositoryFake" rx="2.5" ry="2.5" style="stroke:#181818;stroke-width:0.5;" width="206" x="361" y="319.2969"/><ellipse cx="376" cy="335.2969" fill="#ADD1B2" rx="11" ry="11" style="stroke:#181818;stroke-width:1.0;"/><path d="M378.9688,340.9375 Q378.3906,341.2344 377.75,341.375 Q377.1094,341.5313 376.4063,341.5313 Q373.9063,341.5313 372.5781,339.8906 Q371.2656,338.2344 371.2656,335.1094 Q371.2656,331.9844 372.5781,330.3281 Q373.9063,328.6719 376.4063,328.6719 Q377.1094,328.6719 377.75,328.8281 Q378.4063,328.9844 378.9688,329.2813 L378.9688,332 Q378.3438,331.4219 377.75,331.1563 Q377.1563,330.875 376.5313,330.875 Q375.1875,330.875 374.5,331.9531 Q373.8125,333.0156 373.8125,335.1094 Q373.8125,337.2031 374.5,338.2813 Q375.1875,339.3438 376.5313,339.3438 Q377.1563,339.3438 377.75,339.0781 Q378.3438,338.7969 378.9688,338.2188 L378.9688,340.9375 Z " fill="#000000"/><text fill="#000000" font-family="sans-serif" font-size="14" lengthAdjust="spacing" textLength="174" x="390" y="340.1436">ResourceRepositoryFake</text><line style="stroke:#181818;stroke-width:0.5;" x1="362" x2="566" y1="351.2969" y2="351.2969"/><line style="stroke:#181818;stroke-width:0.5;" x1="362" x2="566" y1="359.2969" y2="359.2969"/></g><!--class ResourceRepositoryPersistence--><g id="elem_ResourceRepositoryPersistence"><rect codeLine="23" fill="#F1F1F1" height="48" id="ResourceRepositoryPersistence" rx="2.5" ry="2.5" style="stroke:#181818;stroke-width:0.5;" width="255" x="70.5" y="319.2969"/><ellipse cx="85.5" cy="335.2969" fill="#ADD1B2" rx="11" ry="11" style="stroke:#181818;stroke-width:1.0;"/><path d="M88.4688,340.9375 Q87.8906,341.2344 87.25,341.375 Q86.6094,341.5313 85.9063,341.5313 Q83.4063,341.5313 82.0781,339.8906 Q80.7656,338.2344 80.7656,335.1094 Q80.7656,331.9844 82.0781,330.3281 Q83.4063,328.6719 85.9063,328.6719 Q86.6094,328.6719 87.25,328.8281 Q87.9063,328.9844 88.4688,329.2813 L88.4688,332 Q87.8438,331.4219 87.25,331.1563 Q86.6563,330.875 86.0313,330.875 Q84.6875,330.875 84,331.9531 Q83.3125,333.0156 83.3125,335.1094 Q83.3125,337.2031 84,338.2813 Q84.6875,339.3438 86.0313,339.3438 Q86.6563,339.3438 87.25,339.0781 Q87.8438,338.7969 88.4688,338.2188 L88.4688,340.9375 Z " fill="#000000"/><text fill="#000000" font-family="sans-serif" font-size="14" lengthAdjust="spacing" textLength="223" x="99.5" y="340.1436">ResourceRepositoryPersistence</text><line style="stroke:#181818;stroke-width:0.5;" x1="71.5" x2="324.5" y1="351.2969" y2="351.2969"/><line style="stroke:#181818;stroke-width:0.5;" x1="71.5" x2="324.5" y1="359.2969" y2="359.2969"/></g><!--class ProjectDomainModelAssembler--><g id="elem_ProjectDomainModelAssembler"><rect codeLine="27" fill="#F1F1F1" height="48" id="ProjectDomainModelAssembler" rx="2.5" ry="2.5" style="stroke:#181818;stroke-width:0.5;" width="248" x="819" y="605.2969"/><ellipse cx="834" cy="621.2969" fill="#ADD1B2" rx="11" ry="11" style="stroke:#181818;stroke-width:1.0;"/><path d="M836.9688,626.9375 Q836.3906,627.2344 835.75,627.375 Q835.1094,627.5313 834.4063,627.5313 Q831.9063,627.5313 830.5781,625.8906 Q829.2656,624.2344 829.2656,621.1094 Q829.2656,617.9844 830.5781,616.3281 Q831.9063,614.6719 834.4063,614.6719 Q835.1094,614.6719 835.75,614.8281 Q836.4063,614.9844 836.9688,615.2813 L836.9688,618 Q836.3438,617.4219 835.75,617.1563 Q835.1563,616.875 834.5313,616.875 Q833.1875,616.875 832.5,617.9531 Q831.8125,619.0156 831.8125,621.1094 Q831.8125,623.2031 832.5,624.2813 Q833.1875,625.3438 834.5313,625.3438 Q835.1563,625.3438 835.75,625.0781 Q836.3438,624.7969 836.9688,624.2188 L836.9688,626.9375 Z " fill="#000000"/><text fill="#000000" font-family="sans-serif" font-size="14" lengthAdjust="spacing" textLength="216" x="848" y="626.1436">ProjectDomainModelAssembler</text><line style="stroke:#181818;stroke-width:0.5;" x1="820" x2="1066" y1="637.2969" y2="637.2969"/><line style="stroke:#181818;stroke-width:0.5;" x1="820" x2="1066" y1="645.2969" y2="645.2969"/></g><!--class ProjectJPA--><g id="elem_ProjectJPA"><rect codeLine="29" fill="#F1F1F1" height="48" id="ProjectJPA" rx="2.5" ry="2.5" style="stroke:#181818;stroke-width:0.5;" width="101" x="800.5" y="713.2969"/><ellipse cx="815.5" cy="729.2969" fill="#ADD1B2" rx="11" ry="11" style="stroke:#181818;stroke-width:1.0;"/><path d="M818.4688,734.9375 Q817.8906,735.2344 817.25,735.375 Q816.6094,735.5313 815.9063,735.5313 Q813.4063,735.5313 812.0781,733.8906 Q810.7656,732.2344 810.7656,729.1094 Q810.7656,725.9844 812.0781,724.3281 Q813.4063,722.6719 815.9063,722.6719 Q816.6094,722.6719 817.25,722.8281 Q817.9063,722.9844 818.4688,723.2813 L818.4688,726 Q817.8438,725.4219 817.25,725.1563 Q816.6563,724.875 816.0313,724.875 Q814.6875,724.875 814,725.9531 Q813.3125,727.0156 813.3125,729.1094 Q813.3125,731.2031 814,732.2813 Q814.6875,733.3438 816.0313,733.3438 Q816.6563,733.3438 817.25,733.0781 Q817.8438,732.7969 818.4688,732.2188 L818.4688,734.9375 Z " fill="#000000"/><text fill="#000000" font-family="sans-serif" font-size="14" lengthAdjust="spacing" textLength="69" x="829.5" y="734.1436">ProjectJPA</text><line style="stroke:#181818;stroke-width:0.5;" x1="801.5" x2="900.5" y1="745.2969" y2="745.2969"/><line style="stroke:#181818;stroke-width:0.5;" x1="801.5" x2="900.5" y1="753.2969" y2="753.2969"/></g><!--class ResourceDomainModelAssembler--><g id="elem_ResourceDomainModelAssembler"><rect codeLine="31" fill="#F1F1F1" height="48" id="ResourceDomainModelAssembler" rx="2.5" ry="2.5" style="stroke:#181818;stroke-width:0.5;" width="267" x="516.5" y="605.2969"/><ellipse cx="531.5" cy="621.2969" fill="#ADD1B2" rx="11" ry="11" style="stroke:#181818;stroke-width:1.0;"/><path d="M534.4688,626.9375 Q533.8906,627.2344 533.25,627.375 Q532.6094,627.5313 531.9063,627.5313 Q529.4063,627.5313 528.0781,625.8906 Q526.7656,624.2344 526.7656,621.1094 Q526.7656,617.9844 528.0781,616.3281 Q529.4063,614.6719 531.9063,614.6719 Q532.6094,614.6719 533.25,614.8281 Q533.9063,614.9844 534.4688,615.2813 L534.4688,618 Q533.8438,617.4219 533.25,617.1563 Q532.6563,616.875 532.0313,616.875 Q530.6875,616.875 530,617.9531 Q529.3125,619.0156 529.3125,621.1094 Q529.3125,623.2031 530,624.2813 Q530.6875,625.3438 532.0313,625.3438 Q532.6563,625.3438 533.25,625.0781 Q533.8438,624.7969 534.4688,624.2188 L534.4688,626.9375 Z " fill="#000000"/><text fill="#000000" font-family="sans-serif" font-size="14" lengthAdjust="spacing" textLength="235" x="545.5" y="626.1436">ResourceDomainModelAssembler</text><line style="stroke:#181818;stroke-width:0.5;" x1="517.5" x2="782.5" y1="637.2969" y2="637.2969"/><line style="stroke:#181818;stroke-width:0.5;" x1="517.5" x2="782.5" y1="645.2969" y2="645.2969"/></g><!--class ResourceJPA--><g id="elem_ResourceJPA"><rect codeLine="33" fill="#F1F1F1" height="48" id="ResourceJPA" rx="2.5" ry="2.5" style="stroke:#181818;stroke-width:0.5;" width="120" x="553" y="713.2969"/><ellipse cx="568" cy="729.2969" fill="#ADD1B2" rx="11" ry="11" style="stroke:#181818;stroke-width:1.0;"/><path d="M570.9688,734.9375 Q570.3906,735.2344 569.75,735.375 Q569.1094,735.5313 568.4063,735.5313 Q565.9063,735.5313 564.5781,733.8906 Q563.2656,732.2344 563.2656,729.1094 Q563.2656,725.9844 564.5781,724.3281 Q565.9063,722.6719 568.4063,722.6719 Q569.1094,722.6719 569.75,722.8281 Q570.4063,722.9844 570.9688,723.2813 L570.9688,726 Q570.3438,725.4219 569.75,725.1563 Q569.1563,724.875 568.5313,724.875 Q567.1875,724.875 566.5,725.9531 Q565.8125,727.0156 565.8125,729.1094 Q565.8125,731.2031 566.5,732.2813 Q567.1875,733.3438 568.5313,733.3438 Q569.1563,733.3438 569.75,733.0781 Q570.3438,732.7969 570.9688,732.2188 L570.9688,734.9375 Z " fill="#000000"/><text fill="#000000" font-family="sans-serif" font-size="14" lengthAdjust="spacing" textLength="88" x="582" y="734.1436">ResourceJPA</text><line style="stroke:#181818;stroke-width:0.5;" x1="554" x2="672" y1="745.2969" y2="745.2969"/><line style="stroke:#181818;stroke-width:0.5;" x1="554" x2="672" y1="753.2969" y2="753.2969"/></g><!--class CrudRepository--><g id="elem_CrudRepository"><rect codeLine="37" fill="#F1F1F1" height="48" id="CrudRepository" rx="2.5" ry="2.5" style="stroke:#181818;stroke-width:0.5;" width="139" x="58.5" y="490.2969"/><ellipse cx="73.5" cy="506.2969" fill="#B4A7E5" rx="11" ry="11" style="stroke:#181818;stroke-width:1.0;"/><path d="M69.4219,502.0625 L69.4219,499.9063 L76.8125,499.9063 L76.8125,502.0625 L74.3438,502.0625 L74.3438,510.1406 L76.8125,510.1406 L76.8125,512.2969 L69.4219,512.2969 L69.4219,510.1406 L71.8906,510.1406 L71.8906,502.0625 L69.4219,502.0625 Z " fill="#000000"/><text fill="#000000" font-family="sans-serif" font-size="14" font-style="italic" lengthAdjust="spacing" textLength="107" x="87.5" y="511.1436">CrudRepository</text><line style="stroke:#181818;stroke-width:0.5;" x1="59.5" x2="196.5" y1="522.2969" y2="522.2969"/><line style="stroke:#181818;stroke-width:0.5;" x1="59.5" x2="196.5" y1="530.2969" y2="530.2969"/></g><!--class ProjectRepositoryJPA--><g id="elem_ProjectRepositoryJPA"><rect codeLine="39" fill="#F1F1F1" height="48" id="ProjectRepositoryJPA" rx="2.5" ry="2.5" style="stroke:#181818;stroke-width:0.5;" width="175" x="268.5" y="605.2969"/><ellipse cx="283.5" cy="621.2969" fill="#B4A7E5" rx="11" ry="11" style="stroke:#181818;stroke-width:1.0;"/><path d="M279.4219,617.0625 L279.4219,614.9063 L286.8125,614.9063 L286.8125,617.0625 L284.3438,617.0625 L284.3438,625.1406 L286.8125,625.1406 L286.8125,627.2969 L279.4219,627.2969 L279.4219,625.1406 L281.8906,625.1406 L281.8906,617.0625 L279.4219,617.0625 Z " fill="#000000"/><text fill="#000000" font-family="sans-serif" font-size="14" font-style="italic" lengthAdjust="spacing" textLength="143" x="297.5" y="626.1436">ProjectRepositoryJPA</text><line style="stroke:#181818;stroke-width:0.5;" x1="269.5" x2="442.5" y1="637.2969" y2="637.2969"/><line style="stroke:#181818;stroke-width:0.5;" x1="269.5" x2="442.5" y1="645.2969" y2="645.2969"/></g><!--class ResourceRepositoryJPA--><g id="elem_ResourceRepositoryJPA"><rect codeLine="41" fill="#F1F1F1" height="48" id="ResourceRepositoryJPA" rx="2.5" ry="2.5" style="stroke:#181818;stroke-width:0.5;" width="194" x="39" y="605.2969"/><ellipse cx="54" cy="621.2969" fill="#B4A7E5" rx="11" ry="11" style="stroke:#181818;stroke-width:1.0;"/><path d="M49.9219,617.0625 L49.9219,614.9063 L57.3125,614.9063 L57.3125,617.0625 L54.8438,617.0625 L54.8438,625.1406 L57.3125,625.1406 L57.3125,627.2969 L49.9219,627.2969 L49.9219,625.1406 L52.3906,625.1406 L52.3906,617.0625 L49.9219,617.0625 Z " fill="#000000"/><text fill="#000000" font-family="sans-serif" font-size="14" font-style="italic" lengthAdjust="spacing" textLength="162" x="68" y="626.1436">ResourceRepositoryJPA</text><line style="stroke:#181818;stroke-width:0.5;" x1="40" x2="232" y1="637.2969" y2="637.2969"/><line style="stroke:#181818;stroke-width:0.5;" x1="40" x2="232" y1="645.2969" y2="645.2969"/></g><!--reverse link Repository to ProjectRepository--><g id="link_Repository_ProjectRepository"><path codeLine="44" d="M620.02,164.8669 C636.75,180.1569 655.69,197.4669 670.48,210.9769 " fill="none" id="Repository-backto-ProjectRepository" style="stroke:#181818;stroke-width:1.0;"/><polygon fill="none" points="615.21,169.9569,605.17,151.2969,624.66,159.6169,615.21,169.9569" style="stroke:#181818;stroke-width:1.0;"/></g><!--reverse link Repository to ResourceRepository--><g id="link_Repository_ResourceRepository"><path codeLine="45" d="M539.98,164.8669 C523.25,180.1569 504.31,197.4669 489.52,210.9769 " fill="none" id="Repository-backto-ResourceRepository" style="stroke:#181818;stroke-width:1.0;"/><polygon fill="none" points="535.34,159.6169,554.83,151.2969,544.79,169.9569,535.34,159.6169" style="stroke:#181818;stroke-width:1.0;"/></g><!--reverse link ProjectRepository to ProjectRepositoryFake--><g id="link_ProjectRepository_ProjectRepositoryFake"><path codeLine="48" d="M696,279.3169 C696,292.8769 696,307.3369 696,318.9769 " fill="none" id="ProjectRepository-backto-ProjectRepositoryFake" style="stroke:#181818;stroke-width:1.0;stroke-dasharray:7.0,7.0;"/><polygon fill="none" points="689,279.2969,696,259.2969,703,279.2969,689,279.2969" style="stroke:#181818;stroke-width:1.0;"/></g><!--reverse link ProjectRepository to ProjectRepositoryPersistence--><g id="link_ProjectRepository_ProjectRepositoryPersistence"><path codeLine="49" d="M768.11,267.2469 C806.78,283.8369 853.61,303.9369 889.08,319.1569 " fill="none" id="ProjectRepository-backto-ProjectRepositoryPersistence" style="stroke:#181818;stroke-width:1.0;stroke-dasharray:7.0,7.0;"/><polygon fill="none" points="765.21,273.6169,749.6,259.2969,770.73,260.7569,765.21,273.6169" style="stroke:#181818;stroke-width:1.0;"/></g><!--reverse link ResourceRepository to ResourceRepositoryFake--><g id="link_ResourceRepository_ResourceRepositoryFake"><path codeLine="50" d="M464,279.3169 C464,292.8769 464,307.3369 464,318.9769 " fill="none" id="ResourceRepository-backto-ResourceRepositoryFake" style="stroke:#181818;stroke-width:1.0;stroke-dasharray:7.0,7.0;"/><polygon fill="none" points="457,279.2969,464,259.2969,471,279.2969,457,279.2969" style="stroke:#181818;stroke-width:1.0;"/></g><!--reverse link ResourceRepository to ResourceRepositoryPersistence--><g id="link_ResourceRepository_ResourceRepositoryPersistence"><path codeLine="51" d="M387.47,266.7869 C345.62,283.4669 294.61,303.7969 256.06,319.1569 " fill="none" id="ResourceRepository-backto-ResourceRepositoryPersistence" style="stroke:#181818;stroke-width:1.0;stroke-dasharray:7.0,7.0;"/><polygon fill="none" points="385.11,260.1969,406.28,259.2969,390.29,273.2069,385.11,260.1969" style="stroke:#181818;stroke-width:1.0;"/></g><!--reverse link CrudRepository to ProjectRepositoryJPA--><g id="link_CrudRepository_ProjectRepositoryJPA"><path codeLine="53" d="M217.15,533.3869 C228.46,536.9969 239.68,541.2669 250,546.2969 C281.16,561.4869 311.96,586.7769 332.26,605.2569 " fill="none" id="CrudRepository-backto-ProjectRepositoryJPA" style="stroke:#181818;stroke-width:1.0;"/><polygon fill="none" points="214.8,539.9969,197.51,527.7469,218.66,526.5369,214.8,539.9969" style="stroke:#181818;stroke-width:1.0;"/></g><!--reverse link CrudRepository to ResourceRepositoryJPA--><g id="link_CrudRepository_ResourceRepositoryJPA"><path codeLine="54" d="M131.07,558.6369 C132.19,574.4769 133.42,591.7869 134.36,605.1869 " fill="none" id="CrudRepository-backto-ResourceRepositoryJPA" style="stroke:#181818;stroke-width:1.0;"/><polygon fill="none" points="124.07,558.8769,129.64,538.4369,138.03,557.8969,124.07,558.8769" style="stroke:#181818;stroke-width:1.0;"/></g><!--link ProjectRepositoryPersistence to ProjectRepositoryJPA--><g id="link_ProjectRepositoryPersistence_ProjectRepositoryJPA"><path codeLine="56" d="M893.31,367.4369 C867.57,379.3969 835.63,394.1869 807,407.2969 C670.82,469.6669 633.44,478.2769 500,546.2969 C465.33,563.9669 427.1,585.8569 398.74,602.5769 " fill="none" id="ProjectRepositoryPersistence-to-ProjectRepositoryJPA" style="stroke:#181818;stroke-width:1.0;"/><polygon fill="#181818" points="394.28,605.2169,404.0629,604.0787,398.5838,602.6718,399.9907,597.1927,394.28,605.2169" style="stroke:#181818;stroke-width:1.0;"/></g><!--link ResourceRepositoryPersistence to ResourceRepositoryJPA--><g id="link_ResourceRepositoryPersistence_ResourceRepositoryJPA"><path codeLine="57" d="M206.38,367.5869 C218.45,404.9269 236.99,479.9169 215,538.2969 C205.73,562.8969 186.35,585.1469 169.1,601.3769 " fill="none" id="ResourceRepositoryPersistence-to-ResourceRepositoryJPA" style="stroke:#181818;stroke-width:1.0;"/><polygon fill="#181818" points="165.23,604.9569,174.5579,601.7961,168.9057,601.5673,169.1345,595.915,165.23,604.9569" style="stroke:#181818;stroke-width:1.0;"/></g><!--link ProjectRepositoryPersistence to ProjectDomainModelAssembler--><g id="link_ProjectRepositoryPersistence_ProjectDomainModelAssembler"><path codeLine="58" d="M943,367.5369 C943,419.2569 943,543.7169 943,599.9169 " fill="none" id="ProjectRepositoryPersistence-to-ProjectDomainModelAssembler" style="stroke:#181818;stroke-width:1.0;"/><polygon fill="#181818" points="943,605.1369,947,596.1369,943,600.1369,939,596.1369,943,605.1369" style="stroke:#181818;stroke-width:1.0;"/></g><!--link ResourceRepositoryPersistence to ResourceDomainModelAssembler--><g id="link_ResourceRepositoryPersistence_ResourceDomainModelAssembler"><path codeLine="59" d="M240.74,367.3269 C269.16,381.4669 307.78,398.5069 344,407.2969 C369.11,413.3869 436.8,403.9269 460,415.2969 C544.06,456.4869 607.52,552.8669 635.01,600.5669 " fill="none" id="ResourceRepositoryPersistence-to-ResourceDomainModelAssembler" style="stroke:#181818;stroke-width:1.0;"/><polygon fill="#181818" points="637.56,605.0169,636.5851,595.2164,635.087,600.6713,629.6321,599.1732,637.56,605.0169" style="stroke:#181818;stroke-width:1.0;"/></g><!--link ProjectDomainModelAssembler to ProjectJPA--><g id="link_ProjectDomainModelAssembler_ProjectJPA"><path codeLine="63" d="M923.04,653.2969 C908.79,669.7169 889.57,691.8569 874.57,709.1369 " fill="none" id="ProjectDomainModelAssembler-to-ProjectJPA" style="stroke:#181818;stroke-width:1.0;stroke-dasharray:7.0,7.0;"/><polygon fill="#181818" points="871.24,712.9769,880.1589,708.7993,874.5163,709.1998,874.1157,703.5572,871.24,712.9769" style="stroke:#181818;stroke-width:1.0;"/></g><!--link ResourceDomainModelAssembler to ResourceJPA--><g id="link_ResourceDomainModelAssembler_ResourceJPA"><path codeLine="64" d="M641.97,653.2969 C636.39,669.2969 628.9,690.7469 622.94,707.8269 " fill="none" id="ResourceDomainModelAssembler-to-ResourceJPA" style="stroke:#181818;stroke-width:1.0;stroke-dasharray:7.0,7.0;"/><polygon fill="#181818" points="621.14,712.9769,627.8789,705.7944,622.7854,708.2554,620.3245,703.1618,621.14,712.9769" style="stroke:#181818;stroke-width:1.0;"/></g><!--link ProjectRepositoryJPA to ProjectJPA--><g id="link_ProjectRepositoryJPA_ProjectJPA"><path codeLine="66" d="M399.17,653.3769 C427.13,667.2569 464.78,683.9869 500,693.2969 C582.52,715.1069 606.3,702.7769 691,713.2969 C725.62,717.5969 764.34,723.1469 795.02,727.7169 " fill="none" id="ProjectRepositoryJPA-to-ProjectJPA" style="stroke:#181818;stroke-width:1.0;stroke-dasharray:7.0,7.0;"/><polygon fill="#181818" points="800.27,728.4969,791.9644,723.2037,795.3255,727.7538,790.7755,731.1149,800.27,728.4969" style="stroke:#181818;stroke-width:1.0;"/></g><!--link ResourceRepositoryJPA to ResourceJPA--><g id="link_ResourceRepositoryJPA_ResourceJPA"><path codeLine="67" d="M170.16,653.5569 C192.25,667.4269 222.16,684.0669 251,693.2969 C351.22,725.3669 473.95,733.9169 547.68,735.9769 " fill="none" id="ResourceRepositoryJPA-to-ResourceJPA" style="stroke:#181818;stroke-width:1.0;stroke-dasharray:7.0,7.0;"/><polygon fill="#181818" points="552.9,736.1069,544.0058,731.8768,547.9017,735.9783,543.8002,739.8742,552.9,736.1069" style="stroke:#181818;stroke-width:1.0;"/></g><!--link RepositoryComponent to PersistenceComponent--><!--SRC=[bLHDJnin4BtxLuou-BGhLU8OHK8Wr2AA8eIuK0x3UjYuzTgHROWYuB_NTWBP3yTDzsRFcpTlteoNQ-C9qC7DDyP_QF1BwK18R2rsOBJQX1k2Hg5pvC2IGay2l4dNsBQMsd3Z65zOyviQ3wW5t98pBxO904lWbcQjQxZhqJmR6_CPjzIXr5AtFQeGLSgiKm677S4AlIUh4tCWP3n8th8c8aMjV99A-asGXyveLpDE0HixOvnvwHN1jMbbWmhk9QsXWcjw9GMdZDcW6NKR42UpMMEwbT6a_Np-Iz_IoZZfZTsSH7_sn_DF5Bmn29_KGTupXdRt63QAxDmP0v8Xq-22h9FEasweYBl4FyGc6hRUvqjDeucZ1EYB-IWPTe4UuQSHf99XyPXEOxy6pLoOk049TnPsetjIP3CzNotESctyA_iJ5zEBsdjD9l6zyvVyyRJFxOluZub_jL2QrKxe_W9cxrMLMPyn8ZDsFi3KDInKAFhTA46shtj2laDdj-rOS7zhfjgsIGUMyNZuu9qCnt70j-Xl3fYV12kr1TKypr_K2LL8orSh5zjNooxzyKMpwRoSNzVpmLlYHQqHtN-t1TrZR4daH0NBsN-8SGeQKEL-xrLLYOUb58BqOxG_yqzWVm40]--></g></svg>